/* XPM */
static char *_01[] = {
/* columns rows colors chars-per-pixel */
"32 32 115 2 ",
"   c #1D2224",
".  c #262626",
"X  c #2D393E",
"o  c #35393A",
"O  c #313D42",
"+  c #3D3F40",
"@  c #374449",
"#  c #39484F",
"$  c #3D4B52",
"%  c #464646",
"&  c #494949",
"*  c #565656",
"=  c #555C5F",
"-  c #5F5F5F",
";  c #4B5D65",
":  c #4F626A",
">  c #51656D",
",  c #596E77",
"<  c #586E78",
"1  c #5A7079",
"2  c #676767",
"3  c #6F6F6F",
"4  c #65767E",
"5  c #747474",
"6  c #7D7D7D",
"7  c #637B85",
"8  c #717F84",
"9  c #7B7F80",
"0  c #6C848E",
"q  c #76858B",
"w  c #78878E",
"e  c #6B8590",
"r  c #7D8C92",
"t  c #7C929C",
"y  c #7C99A5",
"u  c #7F9DAA",
"i  c #818181",
"p  c #85888A",
"a  c #8C8E8E",
"s  c #838F93",
"d  c #839197",
"f  c #889296",
"g  c #84949B",
"h  c #88989F",
"j  c #919191",
"k  c #979A9B",
"l  c #9A9B9C",
"z  c #A09F9E",
"x  c #829BA5",
"c  c #8A9AA1",
"v  c #829EAA",
"b  c #969FA2",
"n  c #999EA0",
"m  c #86A1AD",
"M  c #96A0A4",
"N  c #9BA1A4",
"B  c #83A3B1",
"V  c #89A9B6",
"C  c #8DADBB",
"Z  c #8EB0BF",
"A  c #A4A4A4",
"S  c #A5AAAC",
"D  c #ABACAC",
"F  c #ADB1B2",
"G  c #B1B2B3",
"H  c #B4B7B8",
"J  c #B7B9BA",
"K  c #BBBBBB",
"L  c #8FB1C0",
"P  c #93B7C6",
"I  c #96BBCA",
"U  c #9EC5D5",
"Y  c #BEC0C0",
"T  c #ACC9D5",
"R  c #A3CBDC",
"E  c #BFD0D7",
"W  c #A6CFE0",
"Q  c #AAD3E5",
"!  c #ADD7E8",
"~  c #AED9EB",
"^  c #B0D5E5",
"/  c #B2DDEF",
"(  c #B3DEF1",
")  c #B4E0F2",
"_  c #BBE1F1",
"`  c #C5C5C5",
"'  c #C7C8C9",
"]  c #CBCBCB",
"[  c #C3D3DA",
"{  c #CFD6D8",
"}  c #CFD9DD",
"|  c #D3D3D3",
" . c #D1D9DD",
".. c #DCDCDC",
"X. c #D1DEE3",
"o. c #CDE1EA",
"O. c #DCE4E7",
"+. c #DBE7EC",
"@. c #C1E4F2",
"#. c #CAE7F3",
"$. c #CDE9F4",
"%. c #D2EBF5",
"&. c #DCEFF7",
"*. c #DDF0F7",
"=. c #DEF0F8",
"-. c #E3E3E3",
";. c #E0E6E8",
":. c #EBEBEB",
">. c #EBF6FA",
",. c #EEF8FB",
"<. c #F3F3F3",
"1. c #F8F7F7",
"2. c #F5FAFC",
"3. c #FEFEFE",
"4. c None",
/* pixels */
"4.4.4.4.4.4.4.4.4.4.4.4.4.4.4.4.4.6 | a . 4.4.4.4.4.4.4.4.4.4.4.",
"4.4.4.4.4.4.4.4.4.4.4.4.4.4.4.4.* :.3.f # 4.4.4.4.4.4.4.4.4.4.4.",
"4.4.4.4.4.4.4.4.4.4.4.4.4.4.4.4.2 <.3.b ; 4.4.4.4.4.4.4.4.4.4.4.",
"4.4.4.4.4.4.4.4.4.4.4.4.4.4.4.4.5 <.3.S 1 4.4.4.4.4.4.4.4.4.4.4.",
"4.4.4.4.4.4.4.4.4.4.4.4.4.4.4.4.i 3.3.H 7 4.4.4.4.4.4.4.4.4.4.4.",
"4.4.4.4.4.4.4.4.4.4.4.4.4.4.4.4.j 3.3.Y 7 4.4.4.4.4.4.4.4.4.4.4.",
"4.4.4.4.4.4.4.4.4.4.4.4.4.4.4.4.l 3.3...9 o 4.4.4.4.4.4.4.4.4.4.",
"4.4.4.4.4.4.4.4.4.4.4.4.4.4.4.4.D 3.<.| l h / 4.4.4.4.4.4.4.4.4.",
"4.4.4.4.4.4.4.4.4.4.4.4.4.4.4.4.A J j A -.O.! _ / / ( 4.4.4.4.4.",
"4.4.4.4.4.4.4.4.4.4.4.4.4.4.4.% i K :.3.3.<.[ &.=.$._ ( / 4.4.4.",
"4.4.4.4.4.4.4.4.4.4.4.4.4.5 D -.3.3.3.3.3.3. .+.2.>.&._ / / 4.4.",
"4.4.4.4.4.4.4.4.4.4.4.j ] <.3.3.3.3.3.1.3.3.:. .3.2.>.%.( / 4.4.",
"4.4.4.4.4.4.4.4.3 D -.1.3.3.3.3.1.| b f H :.3.{ >.3.>.%./ / 4.4.",
"4.4.4.4.4.4.a ' <.3.3.3.3.3.:.H d v U R C 8 ..;.X.2.>.#./ 4.4.4.",
"4.4.4.4.$ l 3.3.3.3.3.1.| N t Z Q ( ( ( / r :.1.[ >.*._ ! 4.4.4.",
"4.4.4., U c <.3.3.<.J d v U ~ ( / / ) ( Z N 3.3. .o.@./ 4.4.4.4.",
"4.4.; R ) V ' 3.3.S u Q ( / / / ) ~ P t s -.3.3.:.T ( / 4.4.4.4.",
"4.4.Z ) ( R M 3.<.s ! / / ( / R m w l | 1.3.3.3.3.[ ~ 4.4.4.4.4.",
"4.> ! / / ( x -.| 0 Q ( ~ I y f J :.3.3.3.3.3.<.' p 4.4.4.4.4.4.",
"4.e ( / / ( I F <.D r x g S ..1.3.3.3.3.3...D a D A o 4.4.4.4.4.",
"4.0 ( / / / ! c <.3.<.| <.3.3.3.3.3.<.] 6 a ' <.3.l 7 O 4.4.4.4.",
"4.> Q / / / ( V ' 3.3.3.3.3.3.3.-.F 5 4.4.a <.3.3.:.s 7 4.4.4.4.",
"4.4.B ) / / ( R b 3.3.3.3.<.] j 4.4.4.4.4.4.6 -.3.3...q ; 4.4.4.",
"4.4.@ V / ) ) ( m ..3.-.H 5 4.4.4.4.4.4.4.4.4.2 ..3.3.' 4 X 4.4.",
"4.4.4.4.1 u L I y p l 4.4.4.4.4.4.4.4.4.4.4.4.4.* ] 3.3.J = . 4.",
"4.4.4.4.4.4.4.4.4.4.4.4.4.4.4.4.4.4.4.4.4.4.4.4.4.% K <.` 5 4.4.",
"4.4.4.4.4.4.4.4.4.4.4.4.4.4.4.4.4.4.4.4.4.4.4.4.4.4.4.- 4.4.4.4.",
"4.4.4.4.4.4.4.4.4.4.4.4.4.4.4.4.4.4.4.4.4.4.4.4.4.4.4.4.4.4.4.4.",
"4.4.4.4.4.4.4.4.4.4.4.4.4.4.4.4.4.4.4.4.4.4.4.4.4.4.4.4.4.4.4.4.",
"4.4.4.4.4.4.4.4.4.4.4.4.4.4.4.4.4.4.4.4.4.4.4.4.4.4.4.4.4.4.4.4.",
"4.4.4.4.4.4.4.4.4.4.4.4.4.4.4.4.4.4.4.4.4.4.4.4.4.4.4.4.4.4.4.4.",
"4.4.4.4.4.4.4.4.4.4.4.4.4.4.4.4.4.4.4.4.4.4.4.4.4.4.4.4.4.4.4.4."
};
