/* XPM */
static char *_66[] = {
/* columns rows colors chars-per-pixel */
"32 32 255 2 ",
"   c #2A2A2A",
".  c #2E373B",
"X  c #2F373B",
"o  c #2E3A3F",
"O  c #364349",
"+  c #3E4D53",
"@  c #4E4E4E",
"#  c #4F4F4E",
"$  c #43535A",
"%  c #565656",
"&  c #57595A",
"*  c #5A5A5A",
"=  c #5B5B5B",
"-  c #5F5F5F",
";  c #475A61",
":  c #495B63",
">  c #516066",
",  c #586265",
"<  c #5E6467",
"1  c #546871",
"2  c #576A72",
"3  c #596F78",
"4  c #696969",
"5  c #6F6F6F",
"6  c #626D71",
"7  c #717171",
"8  c #727272",
"9  c #777777",
"0  c #7B7C7C",
"q  c #7C7C7C",
"w  c #5F7882",
"e  c #607781",
"r  c #637A84",
"t  c #697B83",
"y  c #6E7A80",
"u  c #66808A",
"i  c #69818C",
"p  c #738085",
"a  c #7A8285",
"s  c #768288",
"d  c #75848A",
"f  c #77868C",
"g  c #79888E",
"h  c #7B888E",
"j  c #6F8A96",
"k  c #778990",
"l  c #7B8A91",
"z  c #7F8F95",
"x  c #7D8F96",
"c  c #7A8F98",
"v  c #7C9099",
"b  c #7C929B",
"n  c #79919C",
"m  c #858585",
"M  c #8E8E8E",
"N  c #849095",
"B  c #879296",
"V  c #889195",
"C  c #85979F",
"Z  c #87979E",
"A  c #8D979B",
"S  c #919191",
"D  c #939393",
"F  c #979797",
"G  c #90979B",
"H  c #929A9D",
"J  c #989898",
"K  c #999999",
"L  c #9A9A9A",
"P  c #9C9B9B",
"I  c #999C9D",
"U  c #9C9C9C",
"Y  c #9D9D9D",
"T  c #9F9F9F",
"R  c #8499A1",
"E  c #8C9BA1",
"W  c #819DA8",
"Q  c #879EA8",
"!  c #84A2AE",
"~  c #9BA1A4",
"^  c #9CA1A4",
"/  c #85A3B0",
"(  c #85A4B1",
")  c #85A6B3",
"_  c #87A8B6",
"`  c #88A9B6",
"'  c #88A9B7",
"]  c #89AAB8",
"[  c #8BACBA",
"{  c #8BADBB",
"}  c #8CADBB",
"|  c #8CAEBC",
" . c #8EAEBC",
".. c #8EB1BF",
"X. c #A0A0A0",
"o. c #A2A5A6",
"O. c #A5A5A5",
"+. c #A0A6A8",
"@. c #A2A6A8",
"#. c #A5A7A8",
"$. c #A2A8AB",
"%. c #A9A9A9",
"&. c #A9ACAD",
"*. c #A9ADAF",
"=. c #ABADAE",
"-. c #ADADAD",
";. c #AAAEB0",
":. c #AFB1B2",
">. c #B1B1B1",
",. c #B2B2B2",
"<. c #B3B3B3",
"1. c #B2B5B6",
"2. c #B2B6B7",
"3. c #B4B4B4",
"4. c #B5B5B5",
"5. c #B7B7B7",
"6. c #B6B8B9",
"7. c #B9BCBD",
"8. c #BCBCBC",
"9. c #BDBFBF",
"0. c #BFBFBF",
"q. c #90B3C2",
"w. c #92B4C2",
"e. c #95B9C8",
"r. c #96B9C8",
"t. c #99BECE",
"y. c #9ABFCE",
"u. c #9AC0D0",
"i. c #9FC5D5",
"p. c #9EC6D6",
"a. c #9FC6D6",
"s. c #9EC6D7",
"d. c #BFC1C2",
"f. c #BBC4C8",
"g. c #A4CCDC",
"h. c #A4CCDD",
"j. c #B5CAD3",
"k. c #B5D1DC",
"l. c #A5CFE0",
"z. c #A7D1E2",
"x. c #AAD3E4",
"c. c #AAD4E6",
"v. c #ABD5E6",
"b. c #ADD4E4",
"n. c #ACD6E7",
"m. c #ACD6E8",
"M. c #ADD7E9",
"N. c #ADD8EA",
"B. c #AED9EA",
"V. c #AED9EB",
"C. c #B0DAEC",
"Z. c #B0DBED",
"A. c #B1DCEE",
"S. c #B1DDEF",
"D. c #B2DDEF",
"F. c #B4DEEF",
"G. c #B7DEEF",
"H. c #B2DDF0",
"J. c #B3DEF0",
"K. c #B3DFF1",
"L. c #B3DFF2",
"P. c #B4DEF0",
"I. c #B5DFF0",
"U. c #B4DFF1",
"Y. c #B4DFF2",
"T. c #B4E0F2",
"R. c #B4E0F3",
"E. c #B6E2F4",
"W. c #BDE1F0",
"Q. c #BFE3F2",
"!. c #C0C0C0",
"~. c #C3C5C5",
"^. c #C5C5C5",
"/. c #C8C8C8",
"(. c #CBCCCC",
"). c #CCCCCC",
"_. c #CDCDCD",
"`. c #CFCFCF",
"'. c #C5D2D7",
"]. c #CAD4D8",
"[. c #CFD5D8",
"{. c #CBD8DD",
"}. c #D4D4D4",
"|. c #D5D5D5",
" X c #D7D7D7",
".X c #D8D8D8",
"XX c #D9D9D9",
"oX c #DDDDDD",
"OX c #DFDFDF",
"+X c #C9D9E0",
"@X c #CDDDE3",
"#X c #D0DCE0",
"$X c #C1E1EF",
"%X c #DBE1E3",
"&X c #D9E8EF",
"*X c #C3E5F3",
"=X c #C6E6F3",
"-X c #C7E6F3",
";X c #C8E7F4",
":X c #C9E7F4",
">X c #CAE8F4",
",X c #DDF0F8",
"<X c #DEF0F8",
"1X c #E0E0E0",
"2X c #E1E0E0",
"3X c #E2E2E2",
"4X c #E4E4E4",
"5X c #E5E5E4",
"6X c #E6E6E6",
"7X c #E7E7E7",
"8X c #E8E8E7",
"9X c #E1E6E8",
"0X c #E6E9EA",
"qX c #EBEBEB",
"wX c #EAECED",
"eX c #ECECEC",
"rX c #EDEDED",
"tX c #EEEDED",
"yX c #EEEEEE",
"uX c #E7F0F4",
"iX c #E4F3F9",
"pX c #E5F3F9",
"aX c #E6F4FA",
"sX c #EAF6FA",
"dX c #EFF8FC",
"fX c #F0F0F0",
"gX c #F1F0F0",
"hX c #F2F2F1",
"jX c #F2F2F2",
"kX c #F4F4F3",
"lX c #F1F5F6",
"zX c #F4F4F4",
"xX c #F6F6F6",
"cX c #F7F6F6",
"vX c #F7F7F7",
"bX c #F8F7F7",
"nX c #F0F9FC",
"mX c #F2F9FC",
"MX c #F6FBFD",
"NX c #F8F8F8",
"BX c #F8F9F9",
"VX c #FAFAF9",
"CX c #FAFAFA",
"ZX c #FBFBFB",
"AX c #FCFBFB",
"SX c #F8FCFD",
"DX c #FCFCFC",
"FX c #FDFCFC",
"GX c #FDFDFD",
"HX c #FEFDFD",
"JX c #FCFEFE",
"KX c #FEFEFE",
"LX c #FFFEFE",
"PX c #FFFFFF",
"IX c None",
/* pixels */
"IXIXIXIXIXIXIXIXIXIXIXIXIXO &.7X9 IXIXIXIXIXIXIXIXIXIXIXIXIXIXIX",
"IXIXIXIXIXIXIXIXIXIXIXIXIX2 ~.PX!.IXIXIXIXIXIXIXIXIXIXIXIXIXIXIX",
"IXIXIXIXIXIXIXIXIXIXIXIXo t oXPX8.IXIXIXIXIXIXIXIXIXIXIXIXIXIXIX",
"IXIXIXIXIXIXIXIXIXIXIXIX; l gXPX5.IXIXIXIXIXIXIXIXIXIXIXIXIXIXIX",
"IXIXIXIXIXIXIXIXIXIXIXIXw A FXPX3.IXIXIXIXIXIXIXIXIXIXIXIXIXIXIX",
"IXIXIXIXIXIXIXIXIXIXIXIX> @.PXPX4.IXIXIXIXIXIXIXIXIXIXIXIXIXIXIX",
"IXIXIXIXIXIXIXIXIXIXIX, P 3XPXPX<.IXIXIXIXIXIXIXIXIXIXIXIXIXIXIX",
"IXIXIXIXIXIXM.Z.A.S.b.f.K X.1XPX>.IXIXIXIXIXIXIXIXIXIXIXIXIXIXIX",
"IXIXIXD.D.F.W.-X:X$Xj.BXZX).S %.D IXIXIXIXIXIXIXIXIXIXIXIXIXIXIX",
"IXIXIXD.I.>X,XsXnX@X%XPXPXPXNX^.5 IXIXIXIXIXIXIXIXIXIXIXIXIXIXIX",
"IXIXIXS.*XiXmXMXuX'.CXPXPXPXPXPXxX!.7 IXIXIXIXIXIXIXIXIXIXIXIXIX",
"IXIXIXS.=XaXSXJX#X9XPXVX2X5XKXPXPXPXfX5.4 IXIXIXIXIXIXIXIXIXIXIX",
"IXIXIXS.Q.pXMXlX[.vX6.B c k o.8XPXPXPXPXeX-.- IXIXIXIXIXIXIXIXIX",
"IXIXIXIXG.<XdX{.0XcXs s.H.N.[ f =.yXPXPXPXPX6XO.% IXIXIXIXIXIXIX",
"IXIXIXIXA.;X&X].GXPX^ u.Y.D.T.v.( h 9.bXPXPXPXHX1XU IXIXIXIXIXIX",
"IXIXIXIXIXP.k.wXPXPX_.n c.Y.D.H.T.z.! N (.CXPXPXPXPX#.. IXIXIXIX",
"IXIXIXIXIXn.+XLXPXPXZXd.z } m.Y.D.J.U.h.W H qXPXPXjXE ..+ IXIXIX",
"IXIXIXIXIX6 I  XDXPXPXPXhX1.x q.V.U.D.J.R.` :.PXPX7. .E._ IXIXIX",
"IXIXIXIXIX< 0.T L XXGXPXPXPXtX*.v e.Z.K.Y.l.V AXtXZ m.H.C.e IXIX",
"IXIXIXIXu p OXKX|.J Y 4XPXPXPXPX7X+.b t.p./ a kX2.w.Y.D.T.| IXIX",
"IXIXIX3 g XXPXPXPX}.@ = 5.fXPXPXPXLX1X~ G 9.rX8XC B.D.D.J.a.IXIX",
"IXIX: d  XPXPXvX,.# IXIXIX8 0.zXPXPXPXHXGXPXPX;.r.U.D.D.J.i.IXIX",
"IXX y .XPXPX3Xm IXIXIXIXIXIXIXq /.vXPXPXPXPX3XR Z.D.D.D.T.] IXIX",
"  0 }.PXZX!.* IXIXIXIXIXIXIXIXIXIXm `.CXPXLX$.y.K.D.D.K.x.1 IXIX",
"IXIXq ^.F IXIXIXIXIXIXIXIXIXIXIXIXIXIXM XXXXQ L.T.T.U.g.r IXIXIX",
"IXIXIXIXIXIXIXIXIXIXIXIXIXIXIXIXIXIXIXIXIX& i ' { ) j $ IXIXIXIX",
"IXIXIXIXIXIXIXIXIXIXIXIXIXIXIXIXIXIXIXIXIXIXIXIXIXIXIXIXIXIXIXIX",
"IXIXIXIXIXIXIXIXIXIXIXIXIXIXIXIXIXIXIXIXIXIXIXIXIXIXIXIXIXIXIXIX",
"IXIXIXIXIXIXIXIXIXIXIXIXIXIXIXIXIXIXIXIXIXIXIXIXIXIXIXIXIXIXIXIX",
"IXIXIXIXIXIXIXIXIXIXIXIXIXIXIXIXIXIXIXIXIXIXIXIXIXIXIXIXIXIXIXIX",
"IXIXIXIXIXIXIXIXIXIXIXIXIXIXIXIXIXIXIXIXIXIXIXIXIXIXIXIXIXIXIXIX",
"IXIXIXIXIXIXIXIXIXIXIXIXIXIXIXIXIXIXIXIXIXIXIXIXIXIXIXIXIXIXIXIX"
};
