/* XPM */
static char *_[] = {
/* columns rows colors chars-per-pixel */
"32 32 109 2 ",
"   c #2F3335",
".  c #363636",
"X  c #364349",
"o  c #38464C",
"O  c #3F4E55",
"+  c #434343",
"@  c #494949",
"#  c #425055",
"$  c #4B5559",
"%  c #555555",
"&  c #595959",
"*  c #4B5D65",
"=  c #546267",
"-  c #52666E",
";  c #566B73",
":  c #5C727B",
">  c #656565",
",  c #666768",
"<  c #727272",
"1  c #7E7E7E",
"2  c #647C85",
"3  c #6E7C81",
"4  c #7C7E80",
"5  c #6B848E",
"6  c #7E868A",
"7  c #79888E",
"8  c #778E97",
"9  c #7B8F97",
"0  c #738D98",
"q  c #74919C",
"w  c #7D919A",
"e  c #7D96A1",
"r  c #7D99A5",
"t  c #828282",
"y  c #80898D",
"u  c #818D92",
"i  c #859196",
"p  c #859399",
"a  c #8D969A",
"s  c #949494",
"d  c #93999C",
"f  c #9B9B9B",
"g  c #859BA5",
"h  c #8A9AA0",
"j  c #939DA1",
"k  c #86A2AE",
"l  c #9DA2A4",
"z  c #86A4B0",
"x  c #8CACBA",
"c  c #8EB0BF",
"v  c #A4A4A4",
"b  c #A3A9AB",
"n  c #AAAAAA",
"m  c #AEB0B1",
"M  c #B2B3B4",
"N  c #B3B7B9",
"B  c #B7BABB",
"V  c #BBBCBC",
"C  c #8FB2C0",
"Z  c #90B3C2",
"A  c #95B9C8",
"S  c #99BECE",
"D  c #AABFC8",
"F  c #BCBFC0",
"G  c #9DC4D4",
"H  c #BEC1C2",
"J  c #A3CCDD",
"K  c #B6D2DE",
"L  c #A7CFE0",
"P  c #A7D0E2",
"I  c #AAD3E4",
"U  c #ACD7E8",
"Y  c #AED9EB",
"T  c #B2DDEF",
"R  c #B3DFF1",
"E  c #B4E0F2",
"W  c #BEE2F1",
"Q  c #C3C4C4",
"!  c #C7C8C9",
"~  c #CDCECE",
"^  c #C7D2D7",
"/  c #C3D4DB",
"(  c #CBD6DA",
")  c #D2D2D2",
"_  c #D3DBDE",
"`  c #DCDCDC",
"'  c #DFE4E7",
"]  c #D4E4EA",
"[  c #DCE4E8",
"{  c #C5E5F3",
"}  c #C8E6F3",
"|  c #CFEAF5",
" . c #D3ECF6",
".. c #D8EEF7",
"X. c #DDF0F8",
"o. c #E3E3E3",
"O. c #E8E8E7",
"+. c #E5E8EA",
"@. c #EBEBEB",
"#. c #F0EFEF",
"$. c #E4EDF1",
"%. c #E8F2F6",
"&. c #E1F2F8",
"*. c #ECF6FA",
"=. c #F5F5F5",
"-. c #F7F7F8",
";. c #F3FAFC",
":. c #FEFEFE",
">. c None",
/* pixels */
">.>.>.>.>.>.>.>.>.>., v 1 + >.>.>.>.>.>.>.>.>.>.>.>.>.>.>.>.>.>.",
">.>.>.>.>.>.>.>.>.>.# Q :.n >.>.>.>.>.>.>.>.>.>.>.>.>.>.>.>.>.>.",
">.>.>.>.>.>.>.>.>.>.; H :.) >.>.>.>.>.>.>.>.>.>.>.>.>.>.>.>.>.>.",
">.>.>.>.>.>.>.>.>.>.: H :.O.% >.>.>.>.>.>.>.>.>.>.>.>.>.>.>.>.>.",
">.>.>.>.>.>.>.>.>.>.2 H :.-.< >.>.>.>.>.>.>.>.>.>.>.>.>.>.>.>.>.",
">.>.>.>.>.>.>.>.>.>.5 V :.:.s >.>.>.>.>.>.>.>.>.>.>.>.>.>.>.>.>.",
">.>.>.>.>.>.>.>.>.>.= V :.:.M >.>.>.>.>.>.>.>.>.>.>.>.>.>.>.>.>.",
">.>.>.>.>.>.>.>.>.$ s ` :.:.~ >.>.>.>.>.>.>.>.>.>.>.>.>.>.>.>.>.",
">.>.>.>.>.>.>.T T D n s f N Q @ >.>.>.>.>.>.>.>.>.>.>.>.>.>.>.>.",
">.>.>.>.>.Y R R I _ :.-.o.V s & >.>.>.>.>.>.>.>.>.>.>.>.>.>.>.>.",
">.>.>.T R W | X./ +.:.:.:.:.:.#.) n 1 >.>.>.>.>.>.>.>.>.>.>.>.>.",
">.>.T T { X.*.%./ -.:.:.:.:.:.:.:.:.-.o.V s , >.>.>.>.>.>.>.>.>.",
">.>.T W ..;.:.$.( :.:.) m ~ #.:.:.:.:.:.:.:.@.) n 1 >.>.>.>.>.>.",
">.>.T { &.;.:.[ +.@.l 9 x e 7 a V O.:.:.:.:.:.:.:.=.y * >.>.>.>.",
">.>.T R ..;.;._ =.V 8 T E R U G z w a M ` -.:.:.:.O.g I 5 >.>.>.",
">.>.>.T } %.%.^ :.%.u I E R R R R Y L C g p ) :.:.! x E Y 5 >.>.",
">.>.>.>.T ..] ` :.:.Q 8 S I R E R R R E R G u -.:.b G R R L * >.",
">.>.>.>.T W I @.:.:.:.) b p e c G T E R R E r B -.a U T R E r >.",
">.>.>.>.>.T I -.:.:.:.:.:.-.o.V j p z S I C 7 ~ ` k R T R E Z >.",
">.>.>.>.>.>.6 n Q O.-.:.:.:.:.:.:.%.) l i l O.:.N A R R T E C >.",
">.>.>.>.>.>.6 ~ N f s n ` -.:.:.:.:.:.:.-.:.:.:.j P R T T E q >.",
">.>.>.>.>.: < @.:.:.` % >.t n ) @.:.:.:.:.:.:.O.g Y T T R G O >.",
">.>.>.>.X 5 V :.:.-.s >.>.>.>.>., s Q o.-.:.:.! x E R R S - >.>.",
">.>.>.>.; a -.:.-.s >.>.>.>.>.>.>.>.>.>.t n ) d Z G x 5 X >.>.>.",
">.>.>.X 3 ` :.-.f >.>.>.>.>.>.>.>.>.>.>.>.>.>.. o >.>.>.>.>.>.>.",
">.>.>.$ V :.:.n >.>.>.>.>.>.>.>.>.>.>.>.>.>.>.>.>.>.>.>.>.>.>.>.",
">.>.. t ~ =.M >.>.>.>.>.>.>.>.>.>.>.>.>.>.>.>.>.>.>.>.>.>.>.>.>.",
">.>.>.>.>.> >.>.>.>.>.>.>.>.>.>.>.>.>.>.>.>.>.>.>.>.>.>.>.>.>.>.",
">.>.>.>.>.>.>.>.>.>.>.>.>.>.>.>.>.>.>.>.>.>.>.>.>.>.>.>.>.>.>.>.",
">.>.>.>.>.>.>.>.>.>.>.>.>.>.>.>.>.>.>.>.>.>.>.>.>.>.>.>.>.>.>.>.",
">.>.>.>.>.>.>.>.>.>.>.>.>.>.>.>.>.>.>.>.>.>.>.>.>.>.>.>.>.>.>.>.",
">.>.>.>.>.>.>.>.>.>.>.>.>.>.>.>.>.>.>.>.>.>.>.>.>.>.>.>.>.>.>.>."
};
