/* XPM */
static char *_04[] = {
/* columns rows colors chars-per-pixel */
"32 32 255 2 ",
"   c #2A2A2A",
".  c #2E373B",
"X  c #2F373B",
"o  c #2E3A3F",
"O  c #364349",
"+  c #3E4D53",
"@  c #4E4E4E",
"#  c #43535A",
"$  c #565656",
"%  c #57595A",
"&  c #5A5A5A",
"*  c #5B5B5B",
"=  c #5F5F5F",
"-  c #475A62",
";  c #495B63",
":  c #516066",
">  c #586265",
",  c #5E6467",
"<  c #546871",
"1  c #576A72",
"2  c #596F78",
"3  c #696969",
"4  c #6E6E6E",
"5  c #626D71",
"6  c #727171",
"7  c #717172",
"8  c #777777",
"9  c #7B7B7C",
"0  c #7C7C7C",
"q  c #5F7882",
"w  c #607781",
"e  c #627A84",
"r  c #697B83",
"t  c #6E7A80",
"y  c #66808A",
"u  c #68818C",
"i  c #738085",
"p  c #7A8285",
"a  c #768288",
"s  c #75848A",
"d  c #77868C",
"f  c #79888E",
"g  c #7B888E",
"h  c #6F8A96",
"j  c #778990",
"k  c #7B8A91",
"l  c #7F8F95",
"z  c #7D8F96",
"x  c #7A8F98",
"c  c #7C9099",
"v  c #7C929B",
"b  c #79919C",
"n  c #858585",
"m  c #868585",
"M  c #8E8E8E",
"N  c #849095",
"B  c #879296",
"V  c #889195",
"C  c #85979F",
"Z  c #87979E",
"A  c #8D979C",
"S  c #919191",
"D  c #939393",
"F  c #979797",
"G  c #90979B",
"H  c #929A9D",
"J  c #989898",
"K  c #999999",
"L  c #9A9A9A",
"P  c #9C9B9B",
"I  c #999C9D",
"U  c #9C9C9C",
"Y  c #9C9D9D",
"T  c #9F9F9F",
"R  c #8499A1",
"E  c #8C9BA1",
"W  c #819DA8",
"Q  c #879EA8",
"!  c #84A2AE",
"~  c #9BA1A4",
"^  c #9CA2A4",
"/  c #85A3B0",
"(  c #85A4B1",
")  c #85A6B3",
"_  c #87A8B6",
"`  c #88A9B6",
"'  c #88A9B7",
"]  c #89AAB8",
"[  c #8BACBA",
"{  c #8BADBB",
"}  c #8CADBB",
"|  c #8CAEBC",
" . c #8EAEBC",
".. c #8EB1BF",
"X. c #A0A0A0",
"o. c #A2A5A6",
"O. c #A5A5A5",
"+. c #A0A6A8",
"@. c #A2A6A8",
"#. c #A5A7A8",
"$. c #A2A8AB",
"%. c #A9A9A9",
"&. c #A9ACAD",
"*. c #A9ADAF",
"=. c #ABADAE",
"-. c #ADADAD",
";. c #A9AEB0",
":. c #AFB1B2",
">. c #B1B1B1",
",. c #B2B2B2",
"<. c #B3B3B3",
"1. c #B2B5B6",
"2. c #B2B6B7",
"3. c #B4B4B4",
"4. c #B5B5B5",
"5. c #B7B7B7",
"6. c #B6B8B9",
"7. c #B9BCBD",
"8. c #BCBCBC",
"9. c #BDBEBF",
"0. c #BDBFBF",
"q. c #BFBFBF",
"w. c #90B3C2",
"e. c #92B4C2",
"r. c #95B9C8",
"t. c #96B9C8",
"y. c #99BECE",
"u. c #9ABFCE",
"i. c #9AC0D0",
"p. c #9FC5D5",
"a. c #9EC6D6",
"s. c #9FC6D6",
"d. c #9EC6D7",
"f. c #BFC1C2",
"g. c #BBC4C8",
"h. c #A4CCDC",
"j. c #A4CCDD",
"k. c #B5CAD3",
"l. c #B5D1DC",
"z. c #A5CFE0",
"x. c #A7D1E2",
"c. c #AAD3E4",
"v. c #AAD4E6",
"b. c #ABD5E6",
"n. c #ADD4E4",
"m. c #ACD6E7",
"M. c #ACD6E8",
"N. c #ADD7E9",
"B. c #ADD8EA",
"V. c #AED9EA",
"C. c #AED9EB",
"Z. c #B0DAEC",
"A. c #B0DBED",
"S. c #B1DCEE",
"D. c #B1DDEF",
"F. c #B2DCEE",
"G. c #B2DDEF",
"H. c #B4DEEF",
"J. c #B7DEEF",
"K. c #B2DDF0",
"L. c #B3DEF0",
"P. c #B3DFF1",
"I. c #B3DFF2",
"U. c #B4DEF0",
"Y. c #B5DEF0",
"T. c #B4DFF1",
"R. c #B4DFF2",
"E. c #B4E0F2",
"W. c #B4E0F3",
"Q. c #B6E2F4",
"!. c #BDE1F0",
"~. c #BFE3F2",
"^. c #C0C0C0",
"/. c #C3C5C5",
"(. c #C5C5C5",
"). c #C8C8C8",
"_. c #CBCCCC",
"`. c #CCCCCC",
"'. c #CDCDCD",
"]. c #CFCFCF",
"[. c #C5D2D7",
"{. c #CAD4D8",
"}. c #CFD5D8",
"|. c #CBD8DD",
" X c #D4D4D4",
".X c #D5D5D5",
"XX c #D7D7D7",
"oX c #D8D8D8",
"OX c #D9D9D9",
"+X c #DDDDDD",
"@X c #DFDFDF",
"#X c #C9D9E0",
"$X c #CDDDE3",
"%X c #D0DCE0",
"&X c #C0E1EF",
"*X c #DBE1E3",
"=X c #D9E9EF",
"-X c #C3E5F3",
";X c #C5E6F3",
":X c #C7E6F3",
">X c #C8E7F4",
",X c #CAE7F4",
"<X c #DDF0F8",
"1X c #DEF0F8",
"2X c #E0E0E0",
"3X c #E1E0E0",
"4X c #E2E2E2",
"5X c #E4E4E4",
"6X c #E5E5E4",
"7X c #E6E6E6",
"8X c #E7E7E7",
"9X c #E8E8E7",
"0X c #E1E6E8",
"qX c #E6E9EA",
"wX c #EBEBEB",
"eX c #EAECED",
"rX c #ECECEC",
"tX c #EDEDED",
"yX c #EEEDED",
"uX c #EEEEEE",
"iX c #E7F0F4",
"pX c #E4F3F9",
"aX c #E5F3F9",
"sX c #E6F4FA",
"dX c #EAF6FA",
"fX c #EFF8FB",
"gX c #F0F0F0",
"hX c #F2F2F1",
"jX c #F2F2F2",
"kX c #F4F4F3",
"lX c #F1F5F6",
"zX c #F4F4F4",
"xX c #F6F6F6",
"cX c #F7F6F6",
"vX c #F7F7F7",
"bX c #F8F7F7",
"nX c #F0F9FC",
"mX c #F2F9FC",
"MX c #F6FBFD",
"NX c #F8F8F8",
"BX c #F8F9F9",
"VX c #FAFAF9",
"CX c #FAFAFA",
"ZX c #FBFBFB",
"AX c #FCFBFB",
"SX c #F8FCFD",
"DX c #FCFCFC",
"FX c #FDFCFC",
"GX c #FDFDFD",
"HX c #FEFDFD",
"JX c #FCFEFF",
"KX c #FEFEFE",
"LX c #FFFEFE",
"PX c #FFFFFF",
"IX c None",
/* pixels */
"IXIXIXIXIXIXIXIXIXIXIXIXIXIXIXIXIXIXIXIXIXIXIXIXIXIXIXIXIXIXIXIX",
"IXIXIXIXIXIXIXIXIXIXIXIXIXIXIXIXIXIXIXIXIXIXIXIXIXIXIXIXIXIXIXIX",
"IXIXIXIXIXIXIXIXIXIXIXIXIXIXIXIXIXIXIXIXIXIXIXIXIXIXIXIXIXIXIXIX",
"IXIXIXIXIXIXIXIXIXIXIXIXIXIXIXIXIXIXIXIXIXIXIXIXIXIXIXIXIXIXIXIX",
"IXIXIXIXIXIXIXIXIXIXIXIXIXIXIXIXIXIXIXIXIXIXIXIXIXIXIXIXIXIXIXIX",
"IXIXIXIXIXIXIXIXIXIXIXIXIXIXIXIXIXIXIXIXIXIXIXIXIXIXIXIXIXIXIXIX",
"IXIXIXIX# h ) { ' u % IXIXIXIXIXIXIXIXIXIXIXIXIXIXIXIXIXIXIXIXIX",
"IXIXIXe h.T.E.E.I.Q OXOXM IXIXIXIXIXIXIXIXIXIXIXIXIXIXF (.0 IXIX",
"IXIX< c.P.G.G.P.u.$.LXPXCX].n IXIXIXIXIXIXIXIXIXIX& ^.ZXPX X9   ",
"IXIX] E.G.G.G.A.R 4XPXPXPXPXvX).0 IXIXIXIXIXIXIXm 4XPXPXoXt X IX",
"IXIXp.L.G.G.T.t.;.PXPXGXHXPXPXPXzXq.6 IXIXIX@ ,.vXPXPXXXs ; IXIX",
"IXIXs.L.G.G.V.C 9XtX9.G ~ 2XLXPXPXPXgX5.* @  XPXPXPXOXf 2 IXIXIX",
"IXIX| E.G.R.e.2.kXp / a.y.v +.8XPXPXPXPX5XY J .XKX@Xi y IXIXIXIX",
"IXIXw Z.L.M.Z yXAXV z.T.P.A.r.c *.yXPXPXPXGXOXL T q., IXIXIXIXIX",
"IXIXIX_ Q. .7.PXPX:.` W.L.G.T.C.w.z 1.hXPXPXPXDXXXI 5 IXIXIXIXIX",
"IXIXIX+ ..E jXPXPXwXH W j.T.L.G.R.M.} l f.ZXPXPXLX#Xm.IXIXIXIXIX",
"IXIXIXIX. #.PXPXPXPXCX_.N ! x.E.G.G.R.v.b '.PXPXeXl.U.IXIXIXIXIX",
"IXIXIXIXIXIXU 2XHXPXPXPXbX0.g ( b.E.G.R.i.^ PXGX{.=X>XF.IXIXIXIX",
"IXIXIXIXIXIXIX$ O.7XPXPXPXPXuX=.d [ B.K.d.a cXqX|.fX1XJ.IXIXIXIX",
"IXIXIXIXIXIXIXIXIX= -.rXPXPXPXPX9Xo.j x B 6.vX}.lXMXaX~.D.IXIXIX",
"IXIXIXIXIXIXIXIXIXIXIX3 5.gXPXPXPXKX6X3XVXPX0X%XJXSXsX;XD.IXIXIX",
"IXIXIXIXIXIXIXIXIXIXIXIXIX7 ^.xXPXPXPXPXPXCX[.iXMXmXpX-XD.IXIXIX",
"IXIXIXIXIXIXIXIXIXIXIXIXIXIXIX4 (.NXPXPXPX*X$XnXdX<X,XY.G.IXIXIX",
"IXIXIXIXIXIXIXIXIXIXIXIXIXIXIXD %.S `.ZXBXk.&X,X:X!.H.G.G.IXIXIX",
"IXIXIXIXIXIXIXIXIXIXIXIXIXIXIX>.PX2XX.K g.n.D.S.A.N.IXIXIXIXIXIX",
"IXIXIXIXIXIXIXIXIXIXIXIXIXIXIX<.PXPX4XP > IXIXIXIXIXIXIXIXIXIXIX",
"IXIXIXIXIXIXIXIXIXIXIXIXIXIXIX4.PXPX@.: IXIXIXIXIXIXIXIXIXIXIXIX",
"IXIXIXIXIXIXIXIXIXIXIXIXIXIXIX3.PXFXA q IXIXIXIXIXIXIXIXIXIXIXIX",
"IXIXIXIXIXIXIXIXIXIXIXIXIXIXIX5.PXgXk - IXIXIXIXIXIXIXIXIXIXIXIX",
"IXIXIXIXIXIXIXIXIXIXIXIXIXIXIX8.PX+Xr o IXIXIXIXIXIXIXIXIXIXIXIX",
"IXIXIXIXIXIXIXIXIXIXIXIXIXIXIX^.PX/.1 IXIXIXIXIXIXIXIXIXIXIXIXIX",
"IXIXIXIXIXIXIXIXIXIXIXIXIXIXIX8 8X&.O IXIXIXIXIXIXIXIXIXIXIXIXIX"
};
