/* XPM */
static char *_05[] = {
/* columns rows colors chars-per-pixel */
"32 32 114 2 ",
"   c #20282C",
".  c #2D2D2D",
"X  c #2B373C",
"o  c #353535",
"O  c #3C3C3C",
"+  c #38454B",
"@  c #39484E",
"#  c #3D4C52",
"$  c #4E4E4E",
"%  c #475054",
"&  c #43545B",
"*  c #565656",
"=  c #5E5E5E",
"-  c #465860",
";  c #5B666B",
":  c #546972",
">  c #5C727C",
",  c #636364",
"<  c #646A6D",
"1  c #6C6C6C",
"2  c #636D71",
"3  c #60737B",
"4  c #747474",
"5  c #687E87",
"6  c #667E88",
"7  c #767F83",
"8  c #67808B",
"9  c #7C8487",
"0  c #75868E",
"q  c #7B878C",
"w  c #7F8B8F",
"e  c #6E8893",
"r  c #748A93",
"t  c #7C8E95",
"y  c #718C98",
"u  c #7B929B",
"i  c #7E96A0",
"p  c #7E99A5",
"a  c #828282",
"s  c #8B8B8B",
"d  c #868F94",
"f  c #859095",
"g  c #85979E",
"h  c #8D989D",
"j  c #919292",
"k  c #92979A",
"l  c #91999D",
"z  c #999999",
"x  c #849CA5",
"c  c #809CA8",
"v  c #949EA2",
"b  c #9A9FA2",
"n  c #84A1AE",
"m  c #9CA4A7",
"M  c #87A6B3",
"N  c #8AA8B4",
"B  c #8BADBB",
"V  c #8DB0BE",
"C  c #A3A3A3",
"Z  c #A1A6A8",
"A  c #A6AAAB",
"S  c #ABADAD",
"D  c #ABAFB1",
"F  c #AEB1B2",
"G  c #B5B5B5",
"H  c #B7BABB",
"J  c #BABBBB",
"K  c #93B6C5",
"L  c #95B8C7",
"P  c #97BCCB",
"I  c #9CC3D3",
"U  c #9FC7D8",
"Y  c #BFC1C1",
"T  c #A0C7D7",
"R  c #A3CBDC",
"E  c #B2C9D3",
"W  c #B6D1DC",
"Q  c #A7D0E1",
"!  c #ACD5E7",
"~  c #ADD7E9",
"^  c #AED8EA",
"/  c #B2DDEF",
"(  c #B3DFF1",
")  c #B4E0F2",
"_  c #BCE1F1",
"`  c #C4C4C4",
"'  c #C7C9C9",
"]  c #CCCDCD",
"[  c #C3D1D6",
"{  c #C8D2D6",
"}  c #C5D3D9",
"|  c #CFD5D8",
" . c #CFD8DB",
".. c #D4D4D4",
"X. c #D5DCDF",
"o. c #DCDCDC",
"O. c #E0DFDF",
"+. c #D4DEE2",
"@. c #CCE0E9",
"#. c #DFE4E7",
"$. c #D4E2E8",
"%. c #C1E4F2",
"&. c #D2EBF5",
"*. c #DFF1F8",
"=. c #E5E5E5",
"-. c #ECECEC",
";. c #EDF2F4",
":. c #E2F2F9",
">. c #ECF7FB",
",. c #F4F4F4",
"<. c #F8F7F7",
"1. c #F4FAFB",
"2. c #FEFEFE",
"3. c None",
/* pixels */
"3.3.3.3.3.3.3.3.3.3.3.3.3.3.3.3.3.3.3.3.3.3.3.3.3.3.3.3.3.3.3.3.",
"3.3.3.3.3.3.3.3.3.3.3.3.3.3.3.3.3.3.3.3.3.3.3.3.3.3.3.3.3.3.3.3.",
"3.3.3.3.3.3.3.3.3.3.3.3.3.3.3.3.3.3.3.3.3.3.3.3.3.3.3.3.3.3.3.3.",
"3.3.3.3.3.3.3.3.3.3.3.3.3.3.3.3.3.3.3.3.3.3.3.3.3.3.3.3.3.3.3.3.",
"3.3.3.3.3.3.3.3.3.3.3.3.3.3.3.3.3.3.3.3.3.3.3.3.3.3.3.3.3.3.3.3.",
"3.3.3.3.3.3.3.# + 3.3.3.3.3.3.3.3.3.3.3.3.3.3.3.3.3.3.3.3.3.3.3.",
"3.3.3.3.> B I R T V 2 4 3.3.3.3.3.3.3.3.3.3.3.3.3.3.3.3.3.3.3.3.",
"3.3.3.y ^ ) ( ( ( N ] ,.H , 3.3.3.3.3.3.3.3.3.3.3.3.3.3.a $ 3.3.",
"3.3.: ~ ( / / ( T v <.2.2.=.C 3.3.3.3.3.3.3.3.3.3.3.4 ] 2.o.a 3.",
"3.3.n ) / / ( / x o.2.2.2.2.2.o.s 3.3.3.3.3.3.3.3.C ;.2.2.G < o ",
"3.3.K ( / / / P A 2.2.<.<.2.2.2.<.] 4 3.3.3.3.4 ..2.2.2.F 3 X 3.",
"3.3.B ( / / ^ x =.o.S f d ] 2.2.2.2.-.G * o S ,.2.2.<.S 5 @ 3.3.",
"3.3.e ( ( ( B J 2.9 B Q R p v o.2.2.2.2.o.s C -.2.<.Z r & 3.3.3.",
"3.3.# T ) Q h ,.2.m I ) ) ) I u A -.2.2.2.<.` j J ..2 - 3.3.3.3.",
"3.3.3.6 ^ M ] 2.2.` i ^ ( / ( ^ K t J <.2.2.2.,.G z , 3.3.3.3.3.",
"3.3.3.3.8 m <.2.2.<.D u I ( ( / ( ~ N f ..2.2.2.2.{ L 3.3.3.3.3.",
"3.3.3.3.3.z -.2.2.2.2.o.h p R ( ( ( ( R r o.2.2.,.W ( 3.3.3.3.3.",
"3.3.3.3.3.3.1 ` <.2.2.2.2.` w M ~ ( ( ) L F 2.2. .@._ / 3.3.3.3.",
"3.3.3.3.3.3.3.3.a ..2.2.2.2.-.S 0 K ^ ) U f 2.-.} >.&./ 3.3.3.3.",
"3.3.3.3.3.3.3.3.3.3.z =.2.2.2.2.o.h t p t A <.| ;.1.*._ 3.3.3.3.",
"3.3.3.3.3.3.3.3.3.3.3., G -.2.2.2.2.....<.2.#.+.2.1.:._ ( 3.3.3.",
"3.3.3.3.3.3.3.3.3.3.3.3.3.4 ] <.2.2.2.2.2.<.[ ;.2.1.:.%./ 3.3.3.",
"3.3.3.3.3.3.3.3.3.3.3.3.3.3.. a o.2.2.2.2.X.$.1.>.:.&.( / 3.3.3.",
"3.3.3.3.3.3.3.3.3.3.3.3.3.3.3.S z z -.2.,.E &.&.&.%.( / / 3.3.3.",
"3.3.3.3.3.3.3.3.3.3.3.3.3.3.3.o.2.` s G } ^ ( / / ^ / 3.3.3.3.3.",
"3.3.3.3.3.3.3.3.3.3.3.3.3.3.3.o.2.2...a r ) 3.3.3.3.3.3.3.3.3.3.",
"3.3.3.3.3.3.3.3.3.3.3.3.3.3.3.=.2.<.9 % 3.3.3.3.3.3.3.3.3.3.3.3.",
"3.3.3.3.3.3.3.3.3.3.3.3.3.3.* -.2.o.r & 3.3.3.3.3.3.3.3.3.3.3.3.",
"3.3.3.3.3.3.3.3.3.3.3.3.3.3., -.2.` 6 3.3.3.3.3.3.3.3.3.3.3.3.3.",
"3.3.3.3.3.3.3.3.3.3.3.3.3.3.1 ,.2.m : 3.3.3.3.3.3.3.3.3.3.3.3.3.",
"3.3.3.3.3.3.3.3.3.3.3.3.3.3.4 <.<.w # 3.3.3.3.3.3.3.3.3.3.3.3.3.",
"3.3.3.3.3.3.3.3.3.3.3.3.3.3.O J =.;   3.3.3.3.3.3.3.3.3.3.3.3.3."
};
