/* XPM */
static char *_19[] = {
/* columns rows colors chars-per-pixel */
"32 32 246 2 ",
"   c #151616",
".  c #353535",
"X  c #3F4446",
"o  c #39474D",
"O  c #3E4D53",
"+  c #3F4D54",
"@  c #4C4C4C",
"#  c #404F55",
"$  c #415259",
"%  c #43535A",
"&  c #505050",
"*  c #555555",
"=  c #565656",
"-  c #585858",
";  c #495B62",
":  c #4E6169",
">  c #50636B",
",  c #51666E",
"<  c #556A72",
"1  c #586D76",
"2  c #5A7079",
"3  c #5B727C",
"4  c #5D747E",
"5  c #626262",
"6  c #636363",
"7  c #676767",
"8  c #676868",
"9  c #6C6C6C",
"0  c #656F74",
"q  c #667074",
"w  c #607279",
"e  c #737373",
"r  c #757575",
"t  c #787878",
"y  c #607781",
"u  c #7F8283",
"i  c #768489",
"p  c #73848C",
"a  c #75868E",
"s  c #7B868B",
"d  c #78868C",
"f  c #7E898D",
"g  c #6D8691",
"h  c #728891",
"j  c #708B96",
"k  c #708B97",
"l  c #798C94",
"z  c #798D96",
"x  c #7D8D94",
"c  c #7A8F98",
"v  c #75919D",
"b  c #78909A",
"n  c #78929D",
"m  c #7996A2",
"M  c #7C95A0",
"N  c #7F9DAA",
"B  c #828282",
"V  c #838383",
"C  c #868686",
"Z  c #8A8A8A",
"A  c #8C8C8C",
"S  c #828F94",
"D  c #849196",
"F  c #859297",
"G  c #8D9395",
"H  c #85969E",
"J  c #8E979A",
"K  c #8F989B",
"L  c #8B989D",
"P  c #929292",
"I  c #939393",
"U  c #959494",
"Y  c #969696",
"T  c #979797",
"R  c #919698",
"E  c #959798",
"W  c #93999C",
"Q  c #979D9F",
"!  c #9C9C9C",
"~  c #9D9D9D",
"^  c #859BA4",
"/  c #829FAB",
"(  c #859FAA",
")  c #849FAB",
"_  c #949DA1",
"`  c #979FA2",
"'  c #83A0AC",
"]  c #9FA2A4",
"[  c #9EA4A6",
"{  c #84A4B1",
"}  c #88A8B5",
"|  c #8AA8B5",
" . c #8AABB9",
".. c #8CAFBE",
"X. c #A1A1A1",
"o. c #A6A6A6",
"O. c #A0A7A9",
"+. c #A6A9AB",
"@. c #A7ABAD",
"#. c #A9ADAE",
"$. c #ACACAC",
"%. c #ADADAD",
"&. c #AEAEAE",
"*. c #B1B1B1",
"=. c #B0B4B6",
"-. c #B2B5B6",
";. c #B4B6B7",
":. c #B8B8B8",
">. c #BABABA",
",. c #BCBEBE",
"<. c #BEBEBE",
"1. c #91B3C1",
"2. c #92B5C4",
"3. c #92B6C5",
"4. c #95B9C8",
"5. c #9ABDCB",
"6. c #98BDCC",
"7. c #B9BEC0",
"8. c #9BC1D1",
"9. c #9BC2D2",
"0. c #9DC3D3",
"q. c #BFC1C2",
"w. c #A0C7D7",
"e. c #A3CBDC",
"r. c #B1D1DE",
"t. c #BCD1DA",
"y. c #BED4DE",
"u. c #A7CFE0",
"i. c #A6CFE1",
"p. c #A8D2E3",
"a. c #A9D3E4",
"s. c #AAD4E5",
"d. c #AAD4E6",
"f. c #ACD5E7",
"g. c #ACD6E8",
"h. c #AED8EA",
"j. c #AED9EB",
"k. c #AFD9EB",
"l. c #AFDAEC",
"z. c #B1DAEC",
"x. c #B0DBED",
"c. c #B1DCEE",
"v. c #B1DCEF",
"b. c #B2DDEF",
"n. c #B3DEEF",
"m. c #B5DDED",
"M. c #B6DDEE",
"N. c #B2DDF0",
"B. c #B2DEF0",
"V. c #B3DEF0",
"C. c #B2DEF1",
"Z. c #B3DEF1",
"A. c #B3DFF1",
"S. c #B4DEF0",
"D. c #B4DFF1",
"F. c #B4DFF2",
"G. c #B4E0F2",
"H. c #B5E1F3",
"J. c #B6E2F4",
"K. c #B8E0F0",
"L. c #B9E0F0",
"P. c #BAE1F1",
"I. c #BCE1F1",
"U. c #C1C3C3",
"Y. c #C3C5C6",
"T. c #C4C4C5",
"R. c #C6C5C5",
"E. c #C5C7C7",
"W. c #C7C7C7",
"Q. c #C7C7C8",
"!. c #C8C9C9",
"~. c #C9C9C9",
"^. c #CCCCCC",
"/. c #CCCDCD",
"(. c #CDCDCD",
"). c #CECECE",
"_. c #CECFCF",
"`. c #CBD3D6",
"'. c #C1D3DB",
"]. c #C4D4DA",
"[. c #C8D3D8",
"{. c #CFD8DB",
"}. c #D2D2D2",
"|. c #D2D3D3",
" X c #D4D5D5",
".X c #D5DBDE",
"XX c #D9D9D9",
"oX c #DBDBDB",
"OX c #DDDDDD",
"+X c #DEDDDD",
"@X c #DFDFDF",
"#X c #D4DEE2",
"$X c #D9E5EA",
"%X c #DFEAEF",
"&X c #C1E3F1",
"*X c #C1E4F2",
"=X c #CFEAF5",
"-X c #D3ECF6",
";X c #D9EEF7",
":X c #DEF0F7",
">X c #DEF0F8",
",X c #E1E1E1",
"<X c #E2E2E2",
"1X c #E3E2E2",
"2X c #E1E4E5",
"3X c #E4E4E4",
"4X c #E6E6E6",
"5X c #E7E7E7",
"6X c #E6EAEC",
"7X c #E9E9E8",
"8X c #ECECEB",
"9X c #ECECEC",
"0X c #EDECEC",
"qX c #EEEEEE",
"wX c #EFEEEE",
"eX c #EEF0F1",
"rX c #E6F4FA",
"tX c #E7F4FA",
"yX c #E9F5FA",
"uX c #F0F0F0",
"iX c #F2F1F1",
"pX c #F2F2F2",
"aX c #F3F3F3",
"sX c #F3F5F5",
"dX c #F6F5F5",
"fX c #F7F6F6",
"gX c #F7F7F7",
"hX c #F7FAFB",
"jX c #F0F9FC",
"kX c #F1F9FC",
"lX c #F2F9FC",
"zX c #F3F9FC",
"xX c #F7FCFD",
"cX c #F8F8F8",
"vX c #F9F9F9",
"bX c #FAFAFA",
"nX c #FBFAFA",
"mX c #FBFBFB",
"MX c #F8FCFD",
"NX c #FAFDFE",
"BX c #FCFCFC",
"VX c #FDFDFD",
"CX c #FEFEFE",
"ZX c #FFFFFE",
"AX c #FFFFFF",
"SX c None",
/* pixels */
"SXSXSXSXSXSXSXSXSXSXSXSXSXSXSXSXSXSXSXSXSXSXSXSXSXSXSXSXSXSXSXSX",
"SXSXSXSXSXSXSXSXSXSXSXSXSXSXSXSXSXSXSXSXSXSXSXSXSXSXSXSXSXSXSXSX",
"SXSXSXSXSXSXSXSX> v N k : SXSXSXSXSXSXSXSXSXSXSXSXSXSXSXSXSXSXSX",
"SXSXSXSXSXSXSXm f.G.G.D.s.{ % SXSXSXSXSXSXSXSXSXSXSXSXSXSXSXSXSX",
"SXSXSXSXSXSXj b.B.b.b.b.B.H.0.# SXSXSXSXSXSXSXSXSXSXSXSXSXSXSXSX",
"SXSXSXSXSXo w.Z.b.b.b.B.A.w.^ @.e SXSXSXSXSXSXSXSXSXSXSXSXSXSXSX",
"SXSXSXSXSX< h.b.b.b.D.g.| _ OXAX).SXSXSXSXSXSXSXSXSXSXSXSXSXSXSX",
"SXSXSXSXSXy x.b.V.N.6.H q.cXAXAXBX! SXSXSXSXSXSXSXSXSXSXSXSXSXSX",
"SXSXSXSXSX1 k.F.i.( O.7XAXAXAXAXAX5X7 SXSXSXSXSXSXSXSXSXSXSXSXSX",
"SXSXSXSXSX; u.1.L _.ZX/.G #.!.cXAXAX<.SXSXSXSXSXSXSXSXSXSXSXSXSX",
"SXSXSXSXSXSXp =.iXAXAXQ ..4.n -.AXAXcXZ SXSXSXSXSXSXSXSXSXSXSXSX",
"SXSXSXSXSXSXU CXAXAXfXS d.G.l.c ,XAXAXoXSXSXSXSXSXSXSXSXSXSXSXSX",
"SXSXSXSXSXSX= oXAXAXdXF p.B.A.8.K mXAXAX%.SXSXSXSXSXSXSXSXSXSXSX",
"SXSXSXSXSXSXSXZ cXAXAXY.' Z.b.Z./ U.AXAXuXt SXSXSXSXSXSXSXSXSXSX",
"SXSXSXSXSXSXSXSX<.AXAXnXJ 8.A.B.a.x 0XAXAX^.. SX- 5 e V P X.$.6 ",
"SXSXSXSXSXSXSXSX7 5XAXAX+Xz j.b.D.3.[ ZXAXbXC >.qXpXcXBXZXAXAXXX",
"SXSXSXSXSXSXSXSXSX! BXAXAX+.} F.b.c.M |.AXAXoXI gXAXAXAXCXuX X;.",
"SXSXSXSXSXSXSXSXSXSX(.AXAXwXs e.Z.Z.e.D dXAXAX%.:.CX,X,.` d w O ",
"SXSXSXSXSXSXSXSXSXSXt uXAXAXT.b b.b.G.' Q.AXAXaXT R.q g 3 $ SXSX",
"SXSXSXSXSXSXSXSXSXSXSX&.AXAXBXR 2.J.H.) }.AXAXAX Xu X SXSXSXSXSX",
"SXSXSXSXSXSXSXSXSXSXSX& XXAXAX1Xi  .9.l 8XAXCX6Xy.5.SXSXSXSXSXSX",
"SXSXSXSXSXSXSXSXSXSXSXSXB vXAXAX@X;.W ] BXsX{.'.m.C.SXSXSXSXSXSX",
"SXSXSXSXSXSXSXSXSXSXSXY o.>.AXAXAXAXAXBX2X`.$XtX*Xv.SXSXSXSXSXSX",
"SXSXSXSXSXSXSXSXSXSX= 3XuXA 4XAXAXZXeX[.#XhXxXrX&XSXSXSXSXSXSXSX",
"SXSXSXSXSXSXSXSXSXSX*.AXAX~.~ VXvX.X].%XMXNXzX>XL.SXSXSXSXSXSXSX",
"SXSXSXSXSXSXSXSXSXr pXAXVX,XT 7.t.r.:XjXkXlXyX=Xn.SXSXSXSXSXSXSX",
"SXSXSXSXSXSXSXSXSX^.AXAXE.0 8 h c.b.P.=X;X;X-XI.b.SXSXSXSXSXSXSX",
"SXSXSXSXSXSXSXSXY BXAX}.a 4 SXSXSXSXc.z.M.K.S.b.b.SXSXSXSXSXSXSX",
"SXSXSXSXSXSXSX@ <XAX@Xi 2 SXSXSXSXSXSXSXSXb.b.b.SXSXSXSXSXSXSXSX",
"SXSXSXSXSXSXSXSXW.9Xf , SXSXSXSXSXSXSXSXSXSXSXSXSXSXSXSXSXSXSXSX",
"SXSXSXSXSXSXSXSX9 E + SXSXSXSXSXSXSXSXSXSXSXSXSXSXSXSXSXSXSXSXSX",
"SXSXSXSXSXSXSXSXSX*   SXSXSXSXSXSXSXSXSXSXSXSXSXSXSXSXSXSXSXSXSX"
};
