/* XPM */
static char *_21[] = {
/* columns rows colors chars-per-pixel */
"32 32 110 2 ",
"   c #2A2A2A",
".  c #262E32",
"X  c #313B3F",
"o  c #36444A",
"O  c #39454A",
"+  c #4A4A4A",
"@  c #415057",
"#  c #425259",
"$  c #575757",
"%  c #57595A",
"&  c #595A5B",
"*  c #4E626B",
"=  c #52656C",
"-  c #5B676C",
";  c #546870",
":  c #5D6F77",
">  c #5E757F",
",  c #636363",
"<  c #626B6E",
"1  c #6A6A6A",
"2  c #66757C",
"3  c #727373",
"4  c #7C7C7C",
"5  c #627A84",
"6  c #6D7F87",
"7  c #677F89",
"8  c #758287",
"9  c #798185",
"0  c #72848B",
"q  c #7B878C",
"w  c #6E8994",
"e  c #738993",
"r  c #7D8E95",
"t  c #7B8F98",
"y  c #7E929A",
"u  c #868686",
"i  c #8D8D8D",
"p  c #818D92",
"a  c #869297",
"s  c #86979F",
"d  c #8B959A",
"f  c #929292",
"g  c #959899",
"h  c #9C9C9C",
"j  c #8499A1",
"k  c #8D9BA1",
"l  c #839EA9",
"z  c #9A9FA2",
"x  c #9BA2A4",
"c  c #85A5B2",
"v  c #88A7B5",
"b  c #87A8B6",
"n  c #8BADBB",
"m  c #A3A3A3",
"M  c #A3A6A8",
"N  c #A4A9AB",
"B  c #ABABAC",
"V  c #AAAFB1",
"C  c #AEB1B2",
"Z  c #B4B5B5",
"A  c #B3B6B8",
"S  c #B6B8B9",
"D  c #BDBEBE",
"F  c #8EB1C0",
"G  c #91B4C2",
"H  c #95B9C8",
"J  c #99BFCF",
"K  c #BEBFC0",
"L  c #9EC4D5",
"P  c #BFC0C0",
"I  c #BBC4C8",
"U  c #A0C6D6",
"Y  c #ACC9D5",
"T  c #A4CCDD",
"R  c #BCD0D9",
"E  c #A7D1E2",
"W  c #ABD4E5",
"Q  c #ACD6E8",
"!  c #AED9EB",
"~  c #B2DDEF",
"^  c #B4DFF1",
"/  c #BCE0EF",
"(  c #B5E0F2",
")  c #BCE2F1",
"_  c #C5C6C6",
"`  c #C7C8C8",
"'  c #CECECE",
"]  c #C6D1D6",
"[  c #C9D5DA",
"{  c #D5D5D5",
"}  c #DDDDDD",
"|  c #CCDBE1",
" . c #CFE5EE",
".. c #DCE1E4",
"X. c #C0E3F2",
"o. c #CFE9F3",
"O. c #D1EBF5",
"+. c #D8EEF7",
"@. c #E5E5E5",
"#. c #E6EAEC",
"$. c #ECECEB",
"%. c #E7EFF2",
"&. c #EFF5F7",
"*. c #E2F2F9",
"=. c #ECF7FB",
"-. c #EFF8FB",
";. c #F3F3F3",
":. c #F4FAFC",
">. c #FEFEFE",
",. c None",
/* pixels */
",.,.,.,.,.,.,.,.,.,.,.,.,.,.,.,.,.,.,.,.,.,.,.,.,.,.,.,.,.,.,.,.",
",.,.,.,.,.,.,.,.,.,.,.,.,.,.,.,.,.,.,.,.,.,.,.,.,.,.,.,.,.,.,.,.",
",.,.,.,.,.,.,.,.; b L U n 5 ,.,.,.,.,.,.,.,.,.,.,.,.,.,.,.,.,.,.",
",.,.,.,.,.,.,.5 W ( ^ ( ( ~ n @ ,.,.,.,.,.,.,.,.,.,.,.,.,.,.,.,.",
",.,.,.,.,.,.# T ( ~ ~ ~ ~ ~ ( G X ,.,.,.,.,.,.,.,.,.,.,.,.,.,.,.",
",.,.,.,.,.,.w ^ ~ ~ ~ ~ ( ! n s M ,.,.,.,.,.,.,.,.,.,.,.,.,.,.,.",
",.,.,.,.,.,.c ( ~ ~ ~ ! G s D ;.>.h ,.,.,.,.,.,.,.,.,.,.,.,.,.,.",
",.,.,.,.,.,.n ( ~ ~ H s Z ;.>.>.>.} $ ,.,.,.,.,.,.,.,.,.,.,.,.,.",
",.,.,.,.,.,.b ^ J j C #.;.:.>.>.>.>.m ,.,.,.,.,.,.,.,.,.,.,.,.,.",
",.,.,.,.,.,.0 l x @.>.$.9 a N @.>.>.@., ,.,.,.,.,.,.,.,.,.,.,.,.",
",.,.,.,.,.,.% } >.>.>._ l E n p ;.>.>.B ,.,.,.,.,.,.,.,.,.,.,.,.",
",.,.,.,.,.,.,.{ >.>.>.z L ( ( v D >.>.$.1 ,.,.,.,.,.,.,.,.,.,.,.",
",.,.,.,.,.,.,.i :.>.>.C G ( ^ W r ;.>.>.Z ,.,.,.,.,.,.,.,.,.,.,.",
",.,.,.,.,.,.,.,.' >.>.$.y Q ~ ( n A >.>.;.3 ,.,.,.,.,.,.,.,.,.,.",
",.,.,.,.,.,.,.,.u ;.>.>.C n ~ ~ W y $.>.>.D ,.,.,.,.,.,.,.,.,.,.",
",.,.,.,.,.,.,.,.,.` >.>.$.r W ~ ( G B >.>.;., u h h h m B B B , ",
",.,.,.,.,.,.,.,.,.4 ;.>.>.Z c ^ ^ ! y @.>.>.Z Z >.>.>.>.>.>.>.{ ",
",.,.,.,.,.,.,.,.,.,.D >.>.$.q E ~ ^ H x >.>.;.i $.>.>.>.:.$.{ D ",
",.,.,.,.,.,.,.,.,.,.3 ;.>.>.Z l ^ ^ ~ y @.>.>._ B ;.Z M a 8 : O ",
",.,.,.,.,.,.,.,.,.,.,.Z >.>.;.q T ^ ^ y @.>.>.;.h M = 5 * o ,.,.",
",.,.,.,.,.,.,.,.,.,.,.$ $.>.>.K e L L s >.>.>.>.I < ,.,.,.,.,.,.",
",.,.,.,.,.,.,.,.,.,.,.$ B >.>.:._ z 8 S >.:...R Q ,.,.,.,.,.,.,.",
",.,.,.,.,.,.,.,.,.,.1 } f @.>.>.>.>.;.;.@.] | o.^ ,.,.,.,.,.,.,.",
",.,.,.,.,.,.,.,.,.,.` >._ m >.>.>.>.#.[ ..;.-.+.~ ,.,.,.,.,.,.,.",
",.,.,.,.,.,.,.,.,.h >.>.:.f } >.$.[ [ %.>.:.=.O.~ ,.,.,.,.,.,.,.",
",.,.,.,.,.,.,.,.3 $.>.>.{ Z g [ Y  .:.:.:.:.*.X.~ ,.,.,.,.,.,.,.",
",.,.,.,.,.,.,.+ { >.>._ 2 & : Q ! ) O.*.*.*.O.~ ,.,.,.,.,.,.,.,.",
",.,.,.,.,.,.,.C >.>.` e 2 ,.,.,.,.! ~ X.X.X.^ ^ ,.,.,.,.,.,.,.,.",
",.,.,.,.,.,.,.{ >._ 0 ; ,.,.,.,.,.,.,.! ~ ~ ~ ~ ,.,.,.,.,.,.,.,.",
",.,.,.,.,.,.,.i ` 2 O ,.,.,.,.,.,.,.,.,.,.,.,.,.,.,.,.,.,.,.,.,.",
",.,.,.,.,.,.,.,.3 . ,.,.,.,.,.,.,.,.,.,.,.,.,.,.,.,.,.,.,.,.,.,.",
",.,.,.,.,.,.,.,.  ,.,.,.,.,.,.,.,.,.,.,.,.,.,.,.,.,.,.,.,.,.,.,."
};
