/* XPM */
static char *_37[] = {
/* columns rows colors chars-per-pixel */
"32 32 132 2 ",
"   c #3B1001",
".  c #373939",
"X  c #3D3938",
"o  c #4B1502",
"O  c #4E1D0C",
"+  c #541400",
"@  c #631C03",
"#  c #6D1F04",
"$  c #731E01",
"%  c #781F01",
"&  c #7D2304",
"*  c #4E3C35",
"=  c #644034",
"-  c #464646",
";  c #4B4C4C",
":  c #555555",
">  c #5B5B5B",
",  c #604B44",
"<  c #6A544C",
"1  c #73635E",
"2  c #646464",
"3  c #6B6B6B",
"4  c #747474",
"5  c #767878",
"6  c #7C7C7C",
"7  c #852403",
"8  c #892604",
"9  c #8E2805",
"0  c #982E09",
"q  c #8B3111",
"w  c #AA3006",
"e  c #BB3406",
"r  c #B4390E",
"t  c #BD3A0C",
"y  c #AC3B14",
"u  c #A33C18",
"i  c #AB3E18",
"p  c #B53A10",
"a  c #C23707",
"s  c #C33A0A",
"d  c #C83A08",
"f  c #D23B07",
"g  c #DB3C06",
"h  c #DA3E08",
"j  c #E23E05",
"k  c #E83F05",
"l  c #AE441F",
"z  c #87442D",
"x  c #8D452C",
"c  c #964326",
"v  c #9F4121",
"b  c #95452A",
"n  c #8A503C",
"m  c #9F5035",
"M  c #9A5239",
"N  c #A64827",
"B  c #A04C2F",
"V  c #E54006",
"C  c #EC4105",
"Z  c #E74208",
"A  c #EE4308",
"S  c #F44306",
"D  c #FC4506",
"F  c #F34509",
"G  c #FD4709",
"H  c #FF4809",
"J  c #FD5006",
"K  c #FF5309",
"L  c #FF5B08",
"P  c #E24914",
"I  c #D9631D",
"U  c #FF6009",
"Y  c #FF7109",
"T  c #FF7D09",
"R  c #925540",
"E  c #975944",
"W  c #94614F",
"Q  c #8C6253",
"!  c #806359",
"~  c #88675B",
"^  c #93695A",
"/  c #BD7757",
"(  c #8E6E62",
")  c #8F7166",
"_  c #937267",
"`  c #90766D",
"'  c #827672",
"]  c #8E7B74",
"[  c #967C73",
"{  c #BA7963",
"}  c #B47D69",
"|  c #FE8406",
" . c #FF9A07",
".. c #FF9B09",
"X. c #FEAC06",
"o. c #FFAA09",
"O. c #FFB506",
"+. c #CF892D",
"@. c #D38324",
"#. c #C78A36",
"$. c #BE824B",
"%. c #93837D",
"&. c #9C867F",
"*. c #C08440",
"=. c #838383",
"-. c #8B8B8B",
";. c #928885",
":. c #948B88",
">. c #998D88",
",. c #96908F",
"<. c #9A918E",
"1. c #949494",
"2. c #9E9794",
"3. c #9B9B9B",
"4. c #A19E9D",
"5. c #A4A19F",
"6. c #B4A099",
"7. c #A4A3A3",
"8. c #A9A5A4",
"9. c #AAAAAA",
"0. c #B9ACA7",
"q. c #B0AEAE",
"w. c #B3B3B3",
"e. c #BBB5B3",
"r. c #B6B8B9",
"t. c #BCBCBD",
"y. c #BEC1C2",
"u. c #C3C4C5",
"i. c #C5C6C9",
"p. c #C7CACB",
"a. c #CBCCCC",
"s. c None",
/* pixels */
"s.s.s.s.s.s.s.s.s.s.s.s.s.s.s.s.s.s.s.s.s.s.s.s.s.s.s.s.s.s.s.s.",
"s.s.s.s.s.s.s.s.s.s.s.s.s.s.H H s.s.s.s.s.s.s.s.s.s.s.s.s.s.s.s.",
"s.s.s.s.s.s.s.s.s.s.s.s.s.H H H H s.s.s.s.s.s.s.s.s.s.s.s.s.s.s.",
"s.s.s.s.s.s.s.s.s.s.s.s.H H Y | K H s.s.s.s.s.s.s.s.s.s.s.s.s.s.",
"s.s.s.s.s.s.s.s.s.s.s.H G J  .o.T H H s.s.s.s.s.s.s.s.s.s.s.s.s.",
"s.s.s.s.s.s.s.s.s.s.s.H G Y o.o.o.U H H s.s.s.s.s.s.  + * . s.s.",
"s.s.s.s.s.s.s.s.s.s.H G L  .O.O.o.| J D F s.s.o $ 8 q n >.; s.s.",
"s.; = 7 7 % @ s.s.t P P I @.+.#.$./ / / } < , 0 b ) 8.u.u.: s.s.",
"s.> 8.>.^ m y 0 < 1 6.0.e.e.t.u.i.i.p.a.u.5 4.>.r.a.a.a.w.- s.s.",
"s.; u.a.i.u.q.<.8.6 u.a.a.a.u.' 9.a.p.p.p.5 t.a.a.a.u.-.- s.s.s.",
"s.s.-.e.a.a.a.a.p.6 r.a.p.u.~ e x 5.a.a.p.6 r.a.p.4.> s.s.s.s.s.",
"s.s.s.- 6 9.p.a.a.6 w.a.p.%.s H C z r.a.a.' w.r.4 s.s.s.s.s.s.s.",
"s.s.s.s.s.s.2 3.u.=.9.a.a.Q C H H u 9.a.a.=.4 - s.s.s.s.s.s.s.s.",
"s.s.s.s.s.s.s.s.: : 8.a.a.( k H H y 7.a.a.=.s.s.s.s.s.s.s.s.s.s.",
"s.s.s.s.s.s.s.s.s.s.8.a.a.` j H H r 3.a.a.1.s.s.s.s.s.s.s.s.s.s.",
"s.s.s.s.s.s.s.s.s.s.7.a.a.;.h H H t <.a.a.3.s.s.s.s.s.s.s.s.s.s.",
"s.s.s.s.s.s.s.s.s.s.3.a.a.>.f H H d ;.a.a.8.s.s.s.s.s.s.s.s.s.s.",
"s.s.s.s.s.s.s.s.s.s.1.a.a.2.s H H f %.a.a.9.s.s.s.s.s.s.s.s.s.s.",
"s.s.s.s.s.s.s.s.s.s.:.a.a.7.t H H h [ a.a.q.s.s.s.s.s.s.s.s.s.s.",
"s.s.s.s.s.s.s.s.s.s.=.a.a.9.p H H V ) a.a.r.s.s.s.s.s.s.s.s.s.s.",
"s.s.s.s.s.s.s.s.s.s.6 a.a.q.y H H C ^ p.a.t.; s.s.s.s.s.s.s.s.s.",
"s.s.s.s.s.s.s.s.s.s.4 p.a.t.c D H h ` p.a.y.: s.s.s.s.s.s.s.s.s.",
"s.s.s.s.s.s.s.s.s.s.3 p.p.p.<.v h M r.a.p.u.> s.s.s.s.s.s.s.s.s.",
"s.s.s.s.s.s.s.s.s.s.2 u.p.a.a.8.! q.a.a.a.p.3 s.s.s.s.s.s.s.s.s.",
"s.s.s.s.s.s.s.s.s.s.> u.a.a.a.p.y.u.t.r.w.8.> s.s.s.s.s.s.s.s.s.",
"s.s.s.s.s.s.s.s.s.s.X ] [ ` ^ W E M B N l l O s.s.s.s.s.s.s.s.s.",
"s.s.s.s.s.s.s.s.s.s.s.w k C C S D D H H H g s.s.s.s.s.s.s.s.s.s.",
"s.s.s.s.s.s.s.s.s.s.s.8 F H H H H H H H H w s.s.s.s.s.s.s.s.s.s.",
"s.s.s.s.s.s.s.s.s.s.s.s.s H H H H H H H Z @ s.s.s.s.s.s.s.s.s.s.",
"s.s.s.s.s.s.s.s.s.s.s.s.@ h H H H H H F 9 s.s.s.s.s.s.s.s.s.s.s.",
"s.s.s.s.s.s.s.s.s.s.s.s.s.@ e A F F h 8 s.s.s.s.s.s.s.s.s.s.s.s.",
"s.s.s.s.s.s.s.s.s.s.s.s.s.s.s.# & # s.s.s.s.s.s.s.s.s.s.s.s.s.s."
};
