/* XPM */
static char *_66[] = {
/* columns rows colors chars-per-pixel */
"32 32 138 2 ",
"   c #222222",
".  c #3F3F3F",
"X  c #431707",
"o  c #4D1400",
"O  c #4F1D0B",
"+  c #631C03",
"@  c #6B1E04",
"#  c #701D01",
"$  c #7F2404",
"%  c #782C12",
"&  c #5E3729",
"*  c #653D2F",
"=  c #4F423D",
"-  c #684336",
";  c #7E4A38",
":  c #444444",
">  c #494949",
",  c #545454",
"<  c #5B5B5B",
"1  c #636363",
"2  c #686260",
"3  c #6A6A6A",
"4  c #737373",
"5  c #7B7573",
"6  c #7B7C7C",
"7  c #862402",
"8  c #8F2905",
"9  c #852B0B",
"0  c #932701",
"q  c #972903",
"w  c #9C2D06",
"e  c #8C3719",
"r  c #9D3E1D",
"t  c #A42D03",
"y  c #AE3106",
"u  c #B6390D",
"i  c #BB380B",
"p  c #A33915",
"a  c #AF3911",
"s  c #C63807",
"d  c #CB3A07",
"f  c #C43A0B",
"g  c #CB3B0A",
"h  c #D33A06",
"j  c #DD3D06",
"k  c #D33D09",
"l  c #DA3E08",
"z  c #E73D02",
"x  c #8C432A",
"c  c #974224",
"v  c #984021",
"b  c #92462C",
"n  c #9E482A",
"m  c #864630",
"M  c #8D4A32",
"N  c #844D3A",
"B  c #9B4C31",
"V  c #95513A",
"C  c #A74523",
"Z  c #EB4106",
"A  c #E54108",
"S  c #EE4308",
"D  c #F44306",
"F  c #FC4607",
"G  c #FC4806",
"H  c #F44509",
"J  c #FE4709",
"K  c #FF4809",
"L  c #F55408",
"P  c #FF5109",
"I  c #FF5D09",
"U  c #E54812",
"Y  c #FF6109",
"T  c #FF6B09",
"R  c #FF7309",
"E  c #FF7B09",
"W  c #E06815",
"Q  c #D15225",
"!  c #825647",
"~  c #885645",
"^  c #875A4B",
"/  c #955944",
"(  c #92604F",
")  c #8B675A",
"_  c #8C685C",
"`  c #916150",
"'  c #BF6849",
"]  c #8D7167",
"[  c #8D756C",
"{  c #91776E",
"}  c #897B77",
"|  c #917C75",
" . c #927F79",
".. c #D4841F",
"X. c #D88F1A",
"o. c #FF8507",
"O. c #FF8E09",
"+. c #F8A206",
"@. c #F8A807",
"#. c #FFA409",
"$. c #FFAD09",
"%. c #FFB708",
"&. c #B88353",
"*. c #B88A5D",
"=. c #88817E",
"-. c #95837D",
";. c #9E8379",
":. c #B68567",
">. c #B6816F",
",. c #838383",
"<. c #8E8582",
"1. c #8D8D8D",
"2. c #968883",
"3. c #988984",
"4. c #968D8A",
"5. c #9B908C",
"6. c #929292",
"7. c #9C9492",
"8. c #9A9A9A",
"9. c #A39895",
"0. c #A3A09F",
"q. c #B6A19A",
"w. c #A4A3A2",
"e. c #ACABAB",
"r. c #B6A9A3",
"t. c #B0AFAF",
"y. c #B9AEAA",
"u. c #B3B4B4",
"i. c #BBB3B1",
"p. c #B7B8B9",
"a. c #BCBDBD",
"s. c #BEC1C2",
"d. c #C3C5C5",
"f. c #C7C7C8",
"g. c #C6C8C9",
"h. c #CBCBCC",
"j. c #D0D0D0",
"k. c None",
/* pixels */
"k.k.k.k.k.k.k.k.k.k.k.k.k.+ -.p.< k.k.k.k.k.k.k.k.k.k.k.k.k.k.k.",
"k.k.k.k.k.k.k.k.k.k.k.k.k.9 9.j.8.k.k.k.k.k.k.k.k.k.k.k.k.k.k.k.",
"k.k.k.k.k.k.k.k.k.k.k.k.o e t.j.8.k.k.k.k.k.k.k.k.k.k.k.k.k.k.k.",
"k.k.k.k.k.k.k.k.k.k.k.k.# M s.h.6.k.k.k.k.k.k.k.k.k.k.k.k.k.k.k.",
"k.k.k.k.k.k.k.k.k.k.k.k.0 ` h.h.1.k.k.k.k.k.k.k.k.k.k.k.k.k.k.k.",
"k.k.k.k.k.k.k.k.k.k.k.k.% | h.h.6.k.k.k.k.k.k.k.k.k.k.k.k.k.k.k.",
"k.k.k.k.k.k.k.k.k.k.k.& 6 p.h.h.1.k.k.k.k.k.k.k.k.k.k.k.k.k.k.k.",
"k.k.k.k.k.k.J K K K U ;.6 =.u.j.1.k.k.k.k.k.k.k.k.k.k.k.k.k.k.k.",
"k.k.k.K K K K K K K ' d.f.w.4 ,.4 k.k.k.k.k.k.k.k.k.k.k.k.k.k.k.",
"k.k.k.K I R E E E W q.h.h.h.d.8.< k.k.k.k.k.k.k.k.k.k.k.k.k.k.k.",
"k.k.k.J T #.$.$.+.&.d.h.h.h.h.h.d.8.< k.k.k.k.k.k.k.k.k.k.k.k.k.",
"k.k.k.J P O.$.%.X.r.h.g.u.p.h.h.h.h.s.6., k.k.k.k.k.k.k.k.k.k.k.",
"k.k.k.K J Y #.@.*.d.4.^ v x } p.h.h.h.h.a.1.> k.k.k.k.k.k.k.k.k.",
"k.k.k.k.K K o...y.d.; Z K D s m =.a.h.h.h.h.u.,.: k.k.k.k.k.k.k.",
"k.k.k.k.K K L :.g.h.[ l K K K D i N 7.f.h.h.h.h.u.6 k.k.k.k.k.k.",
"k.k.k.k.k.K Q i.h.h.w.p D K K K J S u ~ 9.f.h.h.h.h.=.X k.k.k.k.",
"k.k.k.k.k.S >.g.h.h.f.7.M f D K J K K Z a ) a.h.h.s./ h + k.k.k.",
"k.k.k.k.k.* 5 e.f.h.h.h.d.2.b d F K J K K s 2.h.h.5.f K f k.k.k.",
"k.k.k.k.k.- 7.=.6 e.h.h.h.h.a.| c h J K K D ( g.s.V D K G 8 k.k.",
"k.k.k.k.t M u.h.e.6 6 u.h.h.h.h.p.[ r j Z f ! s.2.g K K K d k.k.",
"k.k.k.q B t.h.h.h.e.. : 6.a.h.h.h.h.u.] ) 7.a.p.B F J K K A k.k.",
"k.k.7 B e.h.h.d.1.. k.k.k.< 8.d.h.h.h.h.h.h.h.-.k K K K K A k.k.",
"k.O M e.h.h.u.3 k.k.k.k.k.k.k.1 8.f.h.h.h.h.u.n F J K K K f k.k.",
"  2 e.j.f.8.> k.k.k.k.k.k.k.k.k.k.3 w.f.h.h.{ l K J K K H $ k.k.",
"k.k.1 8.6 k.k.k.k.k.k.k.k.k.k.k.k.k.k.4 e.e.C J K K K S w k.k.k.",
"k.k.k.k.k.k.k.k.k.k.k.k.k.k.k.k.k.k.k.k.k.= w d d d y @ k.k.k.k.",
"k.k.k.k.k.k.k.k.k.k.k.k.k.k.k.k.k.k.k.k.k.k.k.k.k.k.k.k.k.k.k.k.",
"k.k.k.k.k.k.k.k.k.k.k.k.k.k.k.k.k.k.k.k.k.k.k.k.k.k.k.k.k.k.k.k.",
"k.k.k.k.k.k.k.k.k.k.k.k.k.k.k.k.k.k.k.k.k.k.k.k.k.k.k.k.k.k.k.k.",
"k.k.k.k.k.k.k.k.k.k.k.k.k.k.k.k.k.k.k.k.k.k.k.k.k.k.k.k.k.k.k.k.",
"k.k.k.k.k.k.k.k.k.k.k.k.k.k.k.k.k.k.k.k.k.k.k.k.k.k.k.k.k.k.k.k.",
"k.k.k.k.k.k.k.k.k.k.k.k.k.k.k.k.k.k.k.k.k.k.k.k.k.k.k.k.k.k.k.k."
};
