/* XPM */
static char *_6[] = {
/* columns rows colors chars-per-pixel */
"32 32 107 2 ",
"   c #12171A",
".  c #1E2427",
"X  c #252E32",
"o  c #263034",
"O  c #2B3439",
"+  c #3B3B3B",
"@  c #354248",
"#  c #38464B",
"$  c #3A484E",
"%  c #3D4C52",
"&  c #4B4B4B",
"*  c #515151",
"=  c #545758",
"-  c #5B5B5B",
";  c #465860",
":  c #4A5D65",
">  c #5A5F61",
",  c #52666E",
"<  c #5D6A6F",
"1  c #646464",
"2  c #6A6A6A",
"3  c #747879",
"4  c #7D7D7D",
"5  c #657981",
"6  c #6E7D84",
"7  c #797F82",
"8  c #66808B",
"9  c #6A828C",
"0  c #74848B",
"q  c #7D878B",
"w  c #748C96",
"e  c #7D8C92",
"r  c #778F99",
"t  c #7A8F98",
"y  c #75929D",
"u  c #7B919B",
"i  c #7D97A2",
"p  c #7D9BA8",
"a  c #818181",
"s  c #848C8F",
"d  c #8B8B8B",
"f  c #8C8F90",
"g  c #8B9497",
"h  c #84949B",
"j  c #8D979B",
"k  c #939393",
"l  c #959B9E",
"z  c #9A9B9B",
"x  c #839AA4",
"c  c #819EA9",
"v  c #949EA3",
"b  c #84A2AE",
"n  c #9DA3A5",
"m  c #86A4B0",
"M  c #89A8B5",
"N  c #8CAEBC",
"B  c #8EB0BF",
"V  c #A3A7A9",
"C  c #A9A9AA",
"Z  c #AAAEB0",
"A  c #B3B3B3",
"S  c #B6B9BA",
"D  c #BABBBB",
"F  c #90B3C2",
"G  c #96BACA",
"H  c #99BECD",
"J  c #BBBFC1",
"K  c #9DC4D4",
"L  c #A8C8D6",
"P  c #A2CADB",
"I  c #B6CFDA",
"U  c #AAD3E5",
"Y  c #ADD7E9",
"T  c #AFD9EB",
"R  c #B2D6E5",
"E  c #B8D5E1",
"W  c #B2DDEF",
"Q  c #B8DFEF",
"!  c #B3DEF1",
"~  c #B5E1F3",
"^  c #BCE1F1",
"/  c #C4C4C5",
"(  c #CCCDCD",
")  c #C5D0D5",
"_  c #CFD0D0",
"`  c #CBD6DA",
"'  c #D2D3D3",
"]  c #D2DADE",
"[  c #DCDCDC",
"{  c #D1E1E7",
"}  c #D8E2E6",
"|  c #D7E5EB",
" . c #C2E4F2",
".. c #CFEAF5",
"X. c #D5EDF7",
"o. c #DAEEF7",
"O. c #DBEFF8",
"+. c #DCF0F8",
"@. c #E3E4E4",
"#. c #EDEDEC",
"$. c #EEF3F5",
"%. c #E4F3F9",
"&. c #EBF6FB",
"*. c #F4F4F4",
"=. c #F3F9FC",
"-. c #FEFEFE",
";. c None",
/* pixels */
";.;.;.;.;.;.;.;.;.;.;.;.;.;.;.;.;.;.;.  > 4 ;.;.;.;.;.;.;.;.;.;.",
";.;.;.;.;.;.;.;.;.;.;.;.;.;.;.;.;.;.;.: f [ 2 ;.;.;.;.;.;.;.;.;.",
";.;.;.;.;.;.;.;.;.;.;.;.;.;.;.;.;.;.; 6 [ -.A ;.;.;.;.;.;.;.;.;.",
";.;.;.;.;.;.;.;.;.;.;.;.;.;.;.;.;.; 9 D -.=.d ;.;.;.;.;.;.;.;.;.",
";.;.;.;.;.;.;.W W W Y T ;.;.;.;.. 9 l *.-.' ;.;.;.;.;.;.;.;.;.;.",
";.;.;.;.;.;.W W ^  . .^ W W Q 3 3 7 #.-.-.d ;.;.;.;.;.;.;.;.;.;.",
";.;.;.;.;.;.W  .o.%.%.%.X.R I L k #.-.-.[ ;.;.;.;.;.;.;.;.;.;.;.",
";.;.;.;.;.;.W ..&.-.=.=.{ ) *.-.A C -.-.z ;.;.;.;.;.;.;.;.;.;.;.",
";.;.;.;.;.;.Q o.=.-.=.` ] =.-.-.-.z / @.* ;.;.;.;.;.;.;.;.;.;.;.",
";.;.;.;.;.;.Q +.=.$.` | -.-.-.-.-.#.d a ;.;.;.;.;.;.;.;.;.;.;.;.",
";.;.;.;.;.;.! +.| ) #.#.D ( [ =.-.-.[ & ;.;.;.;.;.;.;.;.;.;.;.;.",
";.;.;.;.;.;.! E ` *.-.D w m w V -.-.-./ ;.;.;.;.;.;.;.;.;.;.;.;.",
";.;.;.;.;.;.L } -.-.-.Z H ~ W r D -.-.-.C ;.;.;.;.;.;.;.;.;.;.;.",
";.;.;.;.;.= f #.-.-.-.n K ~ T U 0 [ -.-.*.d ;.;.;.;.;.;.;.;.;.;.",
";.;.X , 8 3 / z *.-.-.( i ! ! ! K q #.-.-.@.2 ;.;.;.;.;.;.;.;.;.",
"o : 5 e V [ -.A C -.-.-.C M ! ! W N l -.-.-.' ;.;.;.;.;.;.;.;.;.",
"2 j / *.-.-.-.-.V / -.-.=.j H ~ W ! c S -.-.-.D ;.;.;.;.;.;.;.;.",
"[ =.-.-.-.-.*.@.A - @.-.-.#.s P W W Y t ' -.-.=.z ;.;.;.;.;.;.;.",
"k #.[ / C d 2 ;.;.;.d *.-.-.' u Y ! Q P h #.-.-.*.4 ;.;.;.;.;.;.",
";.- ;.;.;.;.;.;.;.;.;.C -.-.-.D p W ! ~ b / -.-.-.' + ;.;.;.;.;.",
";.;.;.;.;.;.;.;.;.;.;.;./ -.-.-.n B ~ ~ c ' -.-.@.v , ;.;.;.;.;.",
";.;.;.;.;.;.;.;.;.;.;.;.- [ -.-.*.g u b 3 @.-._ g P F ;.;.;.;.;.",
";.;.;.;.;.;.;.;.;.;.;.;.;.4 #.-.-.*.[ ( _ *.S x U ! P % ;.;.;.;.",
";.;.;.;.;.;.;.;.;.;.;.;.;.;.z -.-.-.-.-.$.n M T ! ! U : ;.;.;.;.",
";.;.;.;.;.;.;.;.;.;.;.;.;.;.;.A -.-.-.[ j G ! W W W U : ;.;.;.;.",
";.;.;.;.;.;.;.;.;.;.;.;.;.;.;.;.( -./ h P ! W W W ! P $ ;.;.;.;.",
";.;.;.;.;.;.;.;.;.;.;.;.;.;.;.;.2 z b Y ! ! W W W ! p ;.;.;.;.;.",
";.;.;.;.;.;.;.;.;.;.;.;.;.;.;.;.;.O b Y ! ! ! ! ! F # ;.;.;.;.;.",
";.;.;.;.;.;.;.;.;.;.;.;.;.;.;.;.;.;.;., b H P H y @ ;.;.;.;.;.;.",
";.;.;.;.;.;.;.;.;.;.;.;.;.;.;.;.;.;.;.;.;.;.;.;.;.;.;.;.;.;.;.;.",
";.;.;.;.;.;.;.;.;.;.;.;.;.;.;.;.;.;.;.;.;.;.;.;.;.;.;.;.;.;.;.;.",
";.;.;.;.;.;.;.;.;.;.;.;.;.;.;.;.;.;.;.;.;.;.;.;.;.;.;.;.;.;.;.;."
};
