/* XPM */
static char *_6[] = {
/* columns rows colors chars-per-pixel */
"32 32 100 2 ",
"   c #1D2529",
".  c #2D3032",
"X  c #2E3A3F",
"o  c #343636",
"O  c #3C3C3C",
"+  c #313E43",
"@  c #3E4E54",
"#  c #4D4D4D",
"$  c #415057",
"%  c #43535A",
"&  c #545454",
"*  c #5B5C5C",
"=  c #485A61",
"-  c #4E626A",
";  c #51656D",
":  c #556A73",
">  c #5A6B73",
",  c #5A7079",
"<  c #646464",
"1  c #6C6C6C",
"2  c #62737A",
"3  c #737677",
"4  c #787878",
"5  c #7A7F82",
"6  c #6D818A",
"7  c #74858C",
"8  c #7B898F",
"9  c #6F8790",
"0  c #788C94",
"q  c #7A8F98",
"w  c #7B929B",
"e  c #7895A1",
"r  c #7D9AA7",
"t  c #7F9CA9",
"y  c #858585",
"u  c #878A8B",
"i  c #838F94",
"p  c #8A8E90",
"a  c #969696",
"s  c #9C9D9D",
"d  c #8B9CA3",
"f  c #939FA4",
"g  c #9A9FA1",
"h  c #85A2AE",
"j  c #95A0A5",
"k  c #9BA2A5",
"l  c #9BA4A8",
"z  c #86A6B3",
"x  c #89A8B6",
"c  c #8BACBA",
"v  c #8EB0BE",
"b  c #A3A4A4",
"n  c #A4A9AC",
"m  c #ACACAC",
"M  c #ABAFB0",
"N  c #B3B4B5",
"B  c #B6B8B9",
"V  c #BABBBB",
"C  c #91B4C3",
"Z  c #95BAC9",
"A  c #99BECE",
"S  c #9DC4D4",
"D  c #BFC2C2",
"F  c #ACCBD7",
"G  c #A0C7D8",
"H  c #A6CEDF",
"J  c #ACCEDD",
"K  c #A7D0E1",
"L  c #AAD4E5",
"P  c #ADD7E9",
"I  c #AED9EB",
"U  c #BFD7E0",
"Y  c #B2DDEF",
"T  c #B3DFF1",
"R  c #B4E0F2",
"E  c #BCE1F1",
"W  c #C2C3C3",
"Q  c #CCCCCD",
"!  c #C4D3D9",
"~  c #CCD7DB",
"^  c #D4D4D4",
"/  c #D4D8DA",
"(  c #DBDBDB",
")  c #C6E5F2",
"_  c #C8E7F4",
"`  c #CDE9F4",
"'  c #D3ECF6",
"]  c #DAEFF7",
"[  c #DDF0F8",
"{  c #E3E3E3",
"}  c #ECEBEB",
"|  c #F0F0EF",
" . c #EFF1F2",
".. c #E5F3F9",
"X. c #EBF6FB",
"o. c #EFF8FB",
"O. c #F4F4F4",
"+. c #F4F9FB",
"@. c #FEFEFE",
"#. c None",
/* pixels */
"#.#.#.#.#.#.#.#.#.#.#.#.#.#.#.#.#.#.#.#.#.#.#.#.#.#.#.#.#.#.#.#.",
"#.#.#.#.#.#.#.#.#.#.#.#.#.#.#.#.Y #.#.#.#.#.#.#.#.#.#.#.#.#.#.#.",
"#.#.#.#.#.#.#.#.#.#.#.#.#.#.T Y Y I Y #.#.#.#.#.#.#.#.#.#.#.#.#.",
"#.#.#.#.#.#.#.#.#.#.#.#.#.Y T _ ` ) Y Y #.#.#.#.#.#.#.#.#.#.#.#.",
"#.#.#.#.#.#.#.#.#.#.#.#.Y T ' X.X.] _ I #.#.#.#.#.#.#.#.#.#.#.#.",
"#.#.O . #.#.#.#.#.#.#.#.T ] o.+.+.+...E T #.#.#.#.#.#.#.#.#.#.#.",
"#.#.3 5 > ; % @ #.#.#.I )  .+.+.@.+.X.' T T #.#.#.#.#.#.  o #.#.",
"#.#.y O.Q k 7 6 : * d U ! ! ! / ~ ! ! ! F J 2 #.@ ; : > > u & #.",
"#.#.y @.@.@.| Q s V b @.@.+.+.O.+.O.O.| O./ y 3 6 i k W { { # #.",
"#.#.#.a { @.@.@.@.( s @.@.@.@.Q b O.@.@.@.{ s / / O.@.@.@.( #.#.",
"#.#.#.#.# b } @.@.( b @.@.@.W w d j +.@.@.( s @.@.@.@.} V 1 #.#.",
"#.#.#.#.#.#.* B O./ b @.@./ 0 P R r B @.@./ b @.@.} m < #.#.#.#.",
"#.#.#.#.#.#.#.#.4 s b @.@.W x R R Z l @.@.^ b { b & #.#.#.#.#.#.",
"#.#.#.#.#.#.#.#.#.#.m @.@.W C R R C n @.@.Q * & #.#.#.#.#.#.#.#.",
"#.#.#.#.#.#.#.#.#.#.W @.@.V C R R v m @.@.Q #.#.#.#.#.#.#.#.#.#.",
"#.#.#.#.#.#.#.#.#.#.W @.@.N C R R c N @.@.Q #.#.#.#.#.#.#.#.#.#.",
"#.#.#.#.#.#.#.#.#.#.Q @.@.N Z T R x B @.@.W #.#.#.#.#.#.#.#.#.#.",
"#.#.#.#.#.#.#.#.#.#.Q @.@.M A T R z W @.@.W #.#.#.#.#.#.#.#.#.#.",
"#.#.#.#.#.#.#.#.#.#.^ @.@.n S T R z Q @.@.V #.#.#.#.#.#.#.#.#.#.",
"#.#.#.#.#.#.#.#.#.#./ @.@.n S R R d ^ @.@.B #.#.#.#.#.#.#.#.#.#.",
"#.#.#.#.#.#.#.#.#.#./ @.@.k S R R z / @.@.N #.#.#.#.#.#.#.#.#.#.",
"#.#.#.#.#.#.#.#.#.#.{ @.@.b c R P q { @.@.m #.#.#.#.#.#.#.#.#.#.",
"#.#.#.#.#.#.#.#.#.#.{ @.@.} i C w M @.@.@.b #.#.#.#.#.#.#.#.#.#.",
"#.#.#.#.#.#.#.#.#.#.{ @.@.@.} p B @.@.@.@.b #.#.#.#.#.#.#.#.#.#.",
"#.#.#.#.#.#.#.#.#.#./ | O.O.O.O.+.@.@.@.@.s #.#.#.#.#.#.#.#.#.#.",
"#.#.#.#.#.#.#.#.#.#.7 d d d d d f f j j l * #.#.#.#.#.#.#.#.#.#.",
"#.#.#.#.#.#.#.#.#.#.r T P I I P L L K K C + #.#.#.#.#.#.#.#.#.#.",
"#.#.#.#.#.#.#.#.#.#.; P T I T T Y Y T T e #.#.#.#.#.#.#.#.#.#.#.",
"#.#.#.#.#.#.#.#.#.#.#.z R T I T Y Y T G $ #.#.#.#.#.#.#.#.#.#.#.",
"#.#.#.#.#.#.#.#.#.#.#.$ A R T T Y T L > #.#.#.#.#.#.#.#.#.#.#.#.",
"#.#.#.#.#.#.#.#.#.#.#.#.$ z J P L C : #.#.#.#.#.#.#.#.#.#.#.#.#.",
"#.#.#.#.#.#.#.#.#.#.#.#.#.#.% ; % #.#.#.#.#.#.#.#.#.#.#.#.#.#.#."
};
