/* XPM */
static char *_2[] = {
/* columns rows colors chars-per-pixel */
"32 32 249 2 ",
"   c #242C2F",
".  c #283237",
"X  c #3C3C3C",
"o  c #334146",
"O  c #364247",
"+  c #39474D",
"@  c #39484E",
"#  c #3B4A50",
"$  c #454545",
"%  c #4A4D4E",
"&  c #4C4C4C",
"*  c #4E5050",
"=  c #405158",
"-  c #47585F",
";  c #515151",
":  c #535353",
">  c #5B5B5B",
",  c #5C5C5C",
"<  c #5D5D5D",
"1  c #5C5E5F",
"2  c #5E5E5E",
"3  c #485A62",
"4  c #556A73",
"5  c #5C6B71",
"6  c #6E6E6E",
"7  c #647278",
"8  c #6C7A7F",
"9  c #707070",
"0  c #707171",
"q  c #727272",
"w  c #787878",
"e  c #7B7B7B",
"r  c #627B85",
"t  c #6E828B",
"y  c #69828D",
"u  c #6A848E",
"i  c #7C8385",
"p  c #76858B",
"a  c #78848A",
"s  c #77888F",
"d  c #7E8A8F",
"f  c #6F8A95",
"g  c #708A95",
"h  c #738C97",
"j  c #7A8A90",
"k  c #798B92",
"l  c #798C94",
"z  c #798F97",
"x  c #7B8E96",
"c  c #7C8F96",
"v  c #74919D",
"b  c #7B919A",
"n  c #7C97A2",
"m  c #7F9DAA",
"M  c #828282",
"N  c #838383",
"B  c #848484",
"V  c #858585",
"C  c #868686",
"Z  c #898989",
"A  c #869095",
"S  c #819198",
"D  c #819299",
"F  c #839399",
"G  c #869398",
"H  c #8A9499",
"J  c #929292",
"K  c #939596",
"L  c #969595",
"P  c #959596",
"I  c #979797",
"U  c #979C9E",
"Y  c #9F9F9F",
"T  c #809AA5",
"R  c #819BA6",
"E  c #899AA1",
"W  c #829FAB",
"Q  c #969DA0",
"!  c #959EA1",
"~  c #81A0AD",
"^  c #84A3AF",
"/  c #88A2AD",
"(  c #88A3AE",
")  c #94A0A5",
"_  c #9FA0A0",
"`  c #9DA2A5",
"'  c #9BA4A7",
"]  c #90A4AC",
"[  c #9BA4A8",
"{  c #86A5B2",
"}  c #8AA5B0",
"|  c #88A7B4",
" . c #8CADBB",
".. c #8DAFBD",
"X. c #8EB0BE",
"o. c #8EB0BF",
"O. c #A1A1A1",
"+. c #A3A5A6",
"@. c #A6A6A6",
"#. c #A2A8AA",
"$. c #A8A8A8",
"%. c #A9A9A9",
"&. c #AAA9A9",
"*. c #AAAAAA",
"=. c #ABACAC",
"-. c #ACACAC",
";. c #AEAFAF",
":. c #AFB2B3",
">. c #B2B2B2",
",. c #B0B3B4",
"<. c #B4B5B5",
"1. c #B8BABA",
"2. c #B8BBBC",
"3. c #B9BBBC",
"4. c #B9BCBD",
"5. c #BBBCBC",
"6. c #BABDBE",
"7. c #BCBCBC",
"8. c #BCBDBD",
"9. c #8FB2C0",
"0. c #90B3C2",
"q. c #92B5C4",
"w. c #93B6C4",
"e. c #93B6C5",
"r. c #98BDCD",
"t. c #99BFCF",
"y. c #BEBFC0",
"u. c #9BC0D0",
"i. c #9EC5D6",
"p. c #BFC0C1",
"a. c #A0C8D8",
"s. c #A1C9DA",
"d. c #A3CBDC",
"f. c #B7CDD7",
"g. c #AAD0DF",
"h. c #A8D0E1",
"j. c #A8D2E4",
"k. c #A9D2E4",
"l. c #A9D3E4",
"z. c #ADD7E8",
"x. c #ADD8E9",
"c. c #ADD8EA",
"v. c #AED8EA",
"b. c #AED9EB",
"n. c #B3D4E2",
"m. c #BED8E2",
"M. c #B0DAEC",
"N. c #B0DBED",
"B. c #B1DCEE",
"V. c #B1DDEF",
"C. c #B2DDEF",
"Z. c #B3DDEF",
"A. c #B7DEEE",
"S. c #B2DDF0",
"D. c #B2DEF0",
"F. c #B3DEF0",
"G. c #B3DFF1",
"H. c #B4DFF2",
"J. c #B4E0F2",
"K. c #B4E0F3",
"L. c #B5E0F3",
"P. c #B5E1F4",
"I. c #B5E2F4",
"U. c #BBE0F0",
"Y. c #BAE1F1",
"T. c #BCE2F1",
"R. c #BCE2F2",
"E. c #BEE3F2",
"W. c #C2C2C3",
"Q. c #C3C3C3",
"!. c #C5C5C5",
"~. c #C7C8C9",
"^. c #C8C8C8",
"/. c #CCCCCC",
"(. c #CDCDCD",
"). c #C9D3D7",
"_. c #C6D3D9",
"`. c #CFD8DB",
"'. c #CFD8DC",
"]. c #D0D0D0",
"[. c #D2D2D2",
"{. c #D5DBDE",
"}. c #D8D8D8",
"|. c #DADADA",
" X c #DBDBDB",
".X c #DCDCDC",
"XX c #DCDDDD",
"oX c #DEDDDD",
"OX c #DEDEDE",
"+X c #D8E2E6",
"@X c #DFE4E6",
"#X c #DDEAEF",
"$X c #C3E4F2",
"%X c #C3E5F3",
"&X c #CDE9F5",
"*X c #D1EAF5",
"=X c #D8EEF7",
"-X c #DEF0F8",
";X c #DEF1F8",
":X c #E0E0E0",
">X c #E1E1E1",
",X c #E2E2E2",
"<X c #E4E4E3",
"1X c #E0E5E7",
"2X c #E4E4E4",
"3X c #E6E6E6",
"4X c #E7E7E7",
"5X c #E8E7E7",
"6X c #E1E7EA",
"7X c #E0EBEF",
"8X c #E8E8E8",
"9X c #E9E8E8",
"0X c #E8E9E9",
"qX c #E9E9E9",
"wX c #EDECEC",
"eX c #EEF0F1",
"rX c #E5F3F9",
"tX c #E9F4F8",
"yX c #EAF6FA",
"uX c #EEF5F8",
"iX c #ECF6FA",
"pX c #EDF7FB",
"aX c #F1F1F0",
"sX c #F2F2F2",
"dX c #F3F2F2",
"fX c #F3F3F3",
"gX c #F4F4F3",
"hX c #F2F4F4",
"jX c #F3F5F6",
"kX c #F5F4F4",
"lX c #F5F5F4",
"zX c #F5F5F5",
"xX c #F6F5F5",
"cX c #F4FAFC",
"vX c #F5FBFD",
"bX c #F6FBFC",
"nX c #F9F8F8",
"mX c #F9F9F8",
"MX c #F9F9F9",
"NX c #FAFAFA",
"BX c #FAFAFB",
"VX c #FBFBFB",
"CX c #FBFEFE",
"ZX c #FCFCFC",
"AX c #FDFDFD",
"SX c #FCFEFF",
"DX c #FEFEFE",
"FX c #FFFFFF",
"GX c None",
/* pixels */
"GXGXGXGXGXGXGXGXGXGXGXGXGXGXGXGXGXGXGXGXGXGXGXGXGXGXGXGXGXGXGXGX",
"GXGXGXGXGXGXGXGXGXGXGXGXGXGXGXGXGXGXGXGXGXGXGXGXGXGXGXGXGXGXGXGX",
"GXGXGXGXGXGXGXGXGXGXGXGXGXGXGXGXGXV.V.V.C.GXGXGXGXGXGXGXGXGXGXGX",
"GXGXGXGXGX1 . GXGXGXGXGXGXGXGXN.Z.T.%XY.C.GXGXGXGXGXGXGXGXGXGXGX",
"GXGXGXGX6 5.8 4 # GXGXGXGXGXB.U.*X-XrX=XE.M.GXGXGXGXGXGXGXGXGXGX",
"GXGXGXGXI FX3X` t r + GXGXD.R.;XiXcXbXpX=XA.N.GXGXGXGXGXGXGXGXGX",
"GXGXGXGXB sXFXAX[.H 5 0 ] n.m.#XuXCXSXvXyX$XB.GXGXGXGXGXGXGXGXGX",
"GXGXGXGXGXN 8XFXFXlX(.>.!.jX@X`.).{.+X7XtX&XC.GXGXGXGXGXGXGXGXGX",
"GXGXGXGXGXGX9 OXFXFXFX_ ,XFXFXFXZXhX1X'._.f.g.z.GXGXGXGXGXGXGXGX",
"GXGXGXGXGXGXGX< ].FXfXJ zXFXFXFX2X<.lXFXBXeX6X) * O 3 = @ o   X ",
"GXGXGXGXGXGXGXGX& Q.}.Y FXFXnX1.c h ,.FXFXFXBXL @.7 l s p a i N ",
"GXGXGXGXGXGXGXGXGXGXq 7.FXFXp.n c.v.k ,XFXFX4XP sX<X8XwXaXzXxXe ",
"GXGXGXGXGXGXGXGXGXGX$ >XFXFX! s.G.L.W W.FXFX^.=.FXFXFXFXFXAX:X; ",
"GXGXGXGXGXGXGXGXGXGXB NXFXkXD c.C.S.z oXFXFX$.(.FXMX0X(.-.Z < GX",
"GXGXGXGXGXGXGXGXGXGX&.FXFX.XR G.C.l.d xXFXVXC ;.O.w : GXGXGXGXGX",
"GXGXGXGXGXGXGXGXGXGX/.FXFX2.o.J.G.r.U FXFXqX& GXGXGXGXGXGXGXGXGX",
"GXGXGXGXGXGXGXGXGX> 8XFXFX! a.F.J.^ 8.FXFX/.GXGXGXGXGXGXGXGXGXGX",
"GXGXGXGXGXGXGXGXGXM NXFXkXS x.C.C.b >XFXFX&.GXGXGXGXGXGXGXGXGXGX",
"GXGXGXGXGXGXGXGXGX$.FXFX.XT G.C.k.G mXFXNXN GXGXGXGXGXGXGXGXGXGX",
"GXGXGXGXGXGXGXGXGX/.FXFX3.X.J.G.t.#.FXFX0X, GXGXGXGXGXGXGXGXGXGX",
"GXGXGXGXGXGXGXGX2 8XFXFXQ i.G.L.| ~.FXFX(.GXGXGXGXGXGXGXGXGXGXGX",
"GXGXGXGXGXGXGXGXV MXFXFX:.{ P.j.x 9XFXFX*.GXGXGXGXGXGXGXGXGXGXGX",
"GXGXGXGXGXGXGXGX-.FXFXFXgXA ~ j y.DXFXNXB GXGXGXGXGXGXGXGXGXGXGX",
"GXGXGXGXGXGXGXGXK XXdXDXFX|.+.5XFXFXFX0X< GXGXGXGXGXGXGXGXGXGXGX",
"GXGXGXGXGXGXGXGXg } E [ 6. XlXFXFXFXFX(.GXGXGXGXGXGXGXGXGXGXGXGX",
"GXGXGXGXGXGXGXGX~ I.b.d.w./ E ' 4.|.kX&.GXGXGXGXGXGXGXGXGXGXGXGX",
"GXGXGXGXGXGXGXGXy F.C.F.H.G.b.d.e.( F % GXGXGXGXGXGXGXGXGXGXGXGX",
"GXGXGXGXGXGXGXGX- h.F.C.C.C.C.F.H.K.v GXGXGXGXGXGXGXGXGXGXGXGXGX",
"GXGXGXGXGXGXGXGXGXm J.C.C.C.C.C.J...GXGXGXGXGXGXGXGXGXGXGXGXGXGX",
"GXGXGXGXGXGXGXGXGX+ 0.G.J.G.J.C. .+ GXGXGXGXGXGXGXGXGXGXGXGXGXGX",
"GXGXGXGXGXGXGXGXGXGXGXf q.u.9.u GXGXGXGXGXGXGXGXGXGXGXGXGXGXGXGX",
"GXGXGXGXGXGXGXGXGXGXGXGXGXGXGXGXGXGXGXGXGXGXGXGXGXGXGXGXGXGXGXGX"
};
