/* XPM */
static char *_8[] = {
/* columns rows colors chars-per-pixel */
"32 32 136 2 ",
"   c #23140F",
".  c #3B1A0F",
"X  c #3B3C3C",
"o  c #571700",
"O  c #541803",
"+  c #541C09",
"@  c #631B02",
"#  c #6F1F04",
"$  c #731F02",
"%  c #722004",
"&  c #7F2405",
"*  c #772E15",
"=  c #7C2D12",
"-  c #463934",
";  c #7C3E28",
":  c #414040",
">  c #4D4D4D",
",  c #535353",
"<  c #5A5A5A",
"1  c #635A56",
"2  c #666666",
"3  c #696969",
"4  c #716F6E",
"5  c #747474",
"6  c #787574",
"7  c #7B7B7B",
"8  c #812202",
"9  c #8E2805",
"0  c #812909",
"q  c #9D2B04",
"w  c #8B3112",
"e  c #9C3815",
"r  c #913C1E",
"t  c #B63204",
"y  c #B83406",
"u  c #BB380B",
"i  c #AA3811",
"p  c #A23D1A",
"a  c #B03A11",
"s  c #BA3E13",
"d  c #C23707",
"f  c #C93907",
"g  c #C23808",
"h  c #CA3B09",
"j  c #D43B06",
"k  c #D93C06",
"l  c #D53D09",
"z  c #E33F06",
"x  c #AC421C",
"c  c #964326",
"v  c #9A4123",
"b  c #95472C",
"n  c #994A2E",
"m  c #8B4A34",
"M  c #864D39",
"N  c #984F35",
"B  c #8B533F",
"V  c #A24322",
"C  c #A14728",
"Z  c #B2512F",
"A  c #EE4105",
"S  c #E34008",
"D  c #EF450A",
"F  c #E74D0F",
"G  c #F54306",
"H  c #FD4607",
"J  c #F44509",
"K  c #FE4709",
"L  c #FF4809",
"P  c #FF5907",
"I  c #FF5309",
"U  c #FF6409",
"Y  c #FC7806",
"T  c #FF7309",
"R  c #CE5D2B",
"E  c #C65E3B",
"W  c #815141",
"Q  c #8C5440",
"!  c #8B5846",
"~  c #935945",
"^  c #845E51",
"/  c #916657",
"(  c #93685A",
")  c #8B6C61",
"_  c #8C7066",
"`  c #8E766E",
"'  c #917369",
"]  c #8B7871",
"[  c #847E7C",
"{  c #A77E6F",
"}  c #DF8F16",
"|  c #D1871F",
" . c #FF8209",
".. c #F38B08",
"X. c #FF8D09",
"o. c #FF9509",
"O. c #F9AC06",
"+. c #FFA508",
"@. c #FFAC09",
"#. c #FFB408",
"$. c #BD814A",
"%. c #B88B5B",
"&. c #93837D",
"*. c #9A857E",
"=. c #B68A6D",
"-. c #B68D7F",
";. c #828282",
":. c #8C8C8C",
">. c #958782",
",. c #968A86",
"<. c #948C89",
"1. c #9C918D",
"2. c #949494",
"3. c #9D9592",
"4. c #9B9B9B",
"5. c #A39793",
"6. c #A39E9C",
"7. c #B59C90",
"8. c #A5A09E",
"9. c #A5A4A4",
"0. c #A9A5A3",
"q. c #ACABAB",
"w. c #B8A9A1",
"e. c #B9AFAD",
"r. c #AFB0B0",
"t. c #B2B3B3",
"y. c #BDB8B7",
"u. c #B6B9BA",
"i. c #BBBCBC",
"p. c #BFC2C3",
"a. c #C2C3C4",
"s. c #C5C7C8",
"d. c #C6C9CA",
"f. c #CBCBCB",
"g. c #D0D1D1",
"h. c None",
/* pixels */
"h.h.h.h.h.h.h.h.h.h.h.h.h.h.h.h.h.h.h.h.h.h.h.h.h.h.h.h.h.h.h.h.",
"h.h.h.h.h.h.h.h.h.h.h.h.h.h.h.h.h.h.h.h.h.h.h.h.h.h.h.h.h.h.h.h.",
"h.h.h.h.h.h.h.h.h.h.h.h.h.h.h.h.h.h.h.h.h.h.h.h.h.h.h.h.h.h.h.h.",
"h.h.h.h.h.h.h.h.h.h.h.h.h.h.h.h.h.h.h.h.h.h.h.h.h.h.h.h.h.h.h.h.",
"h.h.h.h.h.h.h.h.h.h.h.h.h.h.h.h.h.h.h.h.h.h.h.h.h.h.h.h.h.h.h.h.",
"h.h.h.h.h.h.h.h.h.h.h.h.h.h.h.h.h.h.h.h.h.h.h.h.h.h.h.h.h.h.h.h.",
"h.h.h.h.h.h.# % $ . h.h.h.h.h.h.h.h.h.h.h.h.h.h.h.h.: ;.3 X h.h.",
"h.h.h.@ y S J J z ^ 4.3 h.h.h.h.h.h.h.h.h.h.h.h.h., q.f.f.[ : h.",
"h.h.% S L L L L s 6.g.a.9.5 h.h.h.h.h.h.h.h.h.h.2 u.f.f.*.=   h.",
"h.h.h L K L L G ~ a.f.f.f.f.t.;.> h.h.h.h.h.h.7 a.f.f.5.e @ h.h.",
"h.% J L L L L h 1.f.f.f.f.f.f.f.u.<.< h.h.X <.f.f.f.8.V 8 h.h.h.",
"h.9 K L L L J N i.f.t.,.9.s.f.f.f.f.a.4., 2 u.f.f.r.n q h.h.h.h.",
"h.& J L L L l *.p.) V h i ! 5.a.f.f.f.f.p.4.5 ;.t.<.* h.h.h.h.h.",
"h.h.S L L K v u.t.v H L K G u m ,.i.f.f.f.f.a.0.;.6 - h.h.h.h.h.",
"h.h.q L L z ' f.d./ A L L L L G h c ` r.f.f.f.f.f.{ k h.h.h.h.h.",
"h.h.h.d L x q.f.f.9.v k H L K L L H l p ) i.f.f.p.E H h.h.h.h.h.",
"h.h.h.o y ( s.f.f.f.t.] c f G L L L L H d ,.f.f.7.F K K h.h.h.h.",
"h.h.h.h.h.4 u.f.f.f.f.f.u.&.m u A L L L G Q s.a.$.Y L K h.h.h.h.",
"h.h.h.h.h.h.> ;.q.f.f.f.f.f.i.<.1 i z H j ; u.w.} +.U K K h.h.h.",
"h.h.h.h.h.h.h.h.h.5 9.a.f.f.f.f.y.4.^ M ] q.s.%.O.#.o.I K h.h.h.",
"h.h.h.h.h.h.h.h.h.h.h.3 4.a.f.f.f.g.s.p.f.f.e.| #.@.#. .L K h.h.",
"h.h.h.h.h.h.h.h.h.h.h.h.h.< :.u.f.f.f.f.f.f.=...o.o.X.T I K h.h.",
"h.h.h.h.h.h.h.h.h.h.h.h.h.h.h.: ] r.d.f.f.y.R P I I I L K h.h.h.",
"h.h.h.h.h.h.h.h.h.h.h.h.h.h.h.: 3.7 6 0.s.-.D K K K K K h.h.h.h.",
"h.h.h.h.h.h.h.h.h.h.h.h.h.h.h.h.u.f.q.;.5 Z L K h.h.h.h.h.h.h.h.",
"h.h.h.h.h.h.h.h.h.h.h.h.h.h.h.h.t.f.f.3.1 h.h.h.h.h.h.h.h.h.h.h.",
"h.h.h.h.h.h.h.h.h.h.h.h.h.h.h.h.q.f.s.Q $ h.h.h.h.h.h.h.h.h.h.h.",
"h.h.h.h.h.h.h.h.h.h.h.h.h.h.h.h.0.f.i.b $ h.h.h.h.h.h.h.h.h.h.h.",
"h.h.h.h.h.h.h.h.h.h.h.h.h.h.h.h.9.f.t.r o h.h.h.h.h.h.h.h.h.h.h.",
"h.h.h.h.h.h.h.h.h.h.h.h.h.h.h.h.4.g.q.w h.h.h.h.h.h.h.h.h.h.h.h.",
"h.h.h.h.h.h.h.h.h.h.h.h.h.h.h.h.2.g.5.0 h.h.h.h.h.h.h.h.h.h.h.h.",
"h.h.h.h.h.h.h.h.h.h.h.h.h.h.h.h.< q.1.+ h.h.h.h.h.h.h.h.h.h.h.h."
};
