/* XPM */
static char *_[] = {
/* columns rows colors chars-per-pixel */
"32 32 143 2 ",
"   c #3D170A",
".  c #30211C",
"X  c #282727",
"o  c #323232",
"O  c #3C3C3C",
"+  c #4D1400",
"@  c #431302",
"#  c #541702",
"$  c #531803",
"%  c #651D04",
"&  c #66250E",
"*  c #7D2203",
"=  c #752F17",
"-  c #7F3419",
";  c #57352A",
":  c #424242",
">  c #4C4C4C",
",  c #545454",
"<  c #5E5E5E",
"1  c #714F44",
"2  c #7D584C",
"3  c #615B58",
"4  c #6A5D58",
"5  c #646464",
"6  c #6A6664",
"7  c #6E6E6E",
"8  c #757575",
"9  c #7A7A7A",
"0  c #802201",
"q  c #9E2F09",
"w  c #9C2C06",
"e  c #8C3618",
"r  c #923211",
"t  c #9E3410",
"y  c #933819",
"u  c #A52F06",
"i  c #A83006",
"p  c #A0300A",
"a  c #A8360E",
"s  c #B73407",
"d  c #B7390E",
"f  c #BA390D",
"g  c #A63710",
"h  c #A63D19",
"j  c #AA3C16",
"k  c #853D24",
"l  c #C73807",
"z  c #CE3A07",
"x  c #CA3A08",
"c  c #D03B07",
"v  c #DD3D05",
"b  c #D43D09",
"n  c #DD3F08",
"m  c #C23E10",
"M  c #E33F06",
"N  c #B0411B",
"B  c #8F452B",
"V  c #934023",
"C  c #984529",
"Z  c #9C4223",
"A  c #8E4D37",
"S  c #894E3A",
"D  c #934F37",
"F  c #8E533E",
"G  c #97553E",
"H  c #A2492B",
"J  c #D94D1D",
"K  c #DA581C",
"L  c #EC4005",
"P  c #E64108",
"I  c #EF450A",
"U  c #F24205",
"Y  c #FC4506",
"T  c #F34509",
"R  c #FE4709",
"E  c #FF4809",
"W  c #EF540B",
"Q  c #FF5608",
"!  c #FF5B09",
"~  c #FF6B09",
"^  c #C4613F",
"/  c #C27D3F",
"(  c #895442",
")  c #82584A",
"_  c #AB5F45",
"`  c #8C6457",
"'  c #8F695C",
"]  c #926454",
"[  c #896F66",
"{  c #866C64",
"}  c #93766D",
"|  c #93786F",
" . c #8D7870",
".. c #807E7E",
"X. c #8B7E7A",
"o. c #907971",
"O. c #FB8606",
"+. c #FF8109",
"@. c #FF9606",
"#. c #FF9109",
"$. c #FF9F09",
"%. c #E49811",
"&. c #F7A607",
"*. c #FFAD07",
"=. c #FFAA09",
"-. c #FFB309",
";. c #CA862C",
":. c #B98556",
">. c #95817A",
",. c #B78F6D",
"<. c #858585",
"1. c #878A8B",
"2. c #898989",
"3. c #938782",
"4. c #978984",
"5. c #998984",
"6. c #9A8F8B",
"7. c #98918E",
"8. c #959494",
"9. c #999492",
"0. c #9A9A9A",
"q. c #B69485",
"w. c #A29C9A",
"e. c #A6A09E",
"r. c #B7A59B",
"t. c #A6A4A4",
"y. c #AAA4A1",
"u. c #A7A9A9",
"i. c #ACABAB",
"p. c #BAAFAC",
"a. c #BAB0AD",
"s. c #AFB0B0",
"d. c #B3B4B4",
"f. c #B7B9BA",
"g. c #BCBCBD",
"h. c #C0BDBD",
"j. c #BDBFC0",
"k. c #BEC1C2",
"l. c #C4C5C5",
"z. c #C4C7C8",
"x. c #C7C8C9",
"c. c #CBCCCC",
"v. c None",
/* pixels */
"v.v.v.v.v.v.v.v.v.v.v.v.v.v.v.v.v.v.v.v.v.v.v.v.v.v.v.v.v.v.v.v.",
"v.v.v.v.v.v.v.v.v.v.v.v.v.v.v.v.v.v.v.v.v.v.v.v.v.v.v.v.v.v.v.v.",
"v.v.v.v.v.v.v.v.v.v.v.v.v.v.v.v.v.v.v.v.v.v.v.v.v.v.v.v.v.v.v.v.",
"v.v.v.v.v.v.v.v.v.v.v.v.v.v.v.v.v.v.v.v.v.v.v.v.v.v.v.v.v.v.v.v.",
"v.v.v.v.O < O v.v.v.v.v.v.v.v.v.v.v.v.v.v.v.v.v.v.v.v.v.v.v.v.v.",
"v.v.X 6 i.x.0.O v.v.v.v.v.v.v.v.v.v.v.v.v.v.v.v.v.v.v.v.v.v.v.v.",
"v.v.v.& o.x.c.0.v.v.v.v.v.v.v.v.v.v.v.v.v.v.v.v.v.v.v.v.v.v.v.v.",
"v.v.v.+ e y.c.c.8.v.v.v.v.v.v.v.v.v.v.v.v.v.v.. # v.v.v.v.v.v.v.",
"v.v.v.v.0 ( k.c.c.2.v.v.v.v.v.v.v.v.v.v.5 2.u.{ c n l w $ v.v.v.",
"v.v.v.v.@ q X.c.c.x.2.v.v.v.v.v., 8 0.d.z.c.c.w.m E E E n * v.v.",
"v.v.v.v.v.* k d.c.z.i.> o 5 2.u.g.x.c.c.c.x.c.f.H Y E E E P % v.",
"v.v.v.v.v.v.4 0.2.8 9 9.s.z.c.c.c.c.c.c.c.c.c.x.] U E R E E i v.",
"v.v.v.v.v.v.1 <.t.g.c.c.c.c.c.c.c.l.i.4.' >.g.c.4.b E E E E c v.",
"v.v.v.v.v.Y ^ z.c.c.c.c.c.x.d.9.[ D j z L b D t.i.N R R E E b v.",
"v.v.v.v.E R J a.c.x.x.u.X.( V f M U E E R E f 9.z.G Y E E E s v.",
"v.v.v.v.E E W q.c.c.9.y c M Y E E E E E E U F k.c.} M E E T * v.",
"v.v.v.R R ! O.:.x.k.S U E E E E E Y U n d B w.c.c.w.m E Y i v.v.",
"v.v.R R ! #.*.;.h.8.p E E E Y L x h F o.e.l.x.x.c.g.H U u v.v.v.",
"v.v.E ! #.=.-.%.r.g. .Z x f C ` 7.d.z.c.c.c.c.c.c.l.2 * v.v.v.v.",
"v.v.E ~ $.=.-.&.,.c.c.i.3.t.k.c.c.c.x.c.c.x.g.t.2.5 v.v.v.v.v.v.",
"v.v.E E ! ~ +.@./ l.x.c.c.c.c.c.c.c.z.d.8.8 , v.v.v.v.v.v.v.v.v.",
"v.v.v.E R R E ! K a.c.x.c.c.x.g.u.2.6 v.v.v.v.v.v.v.v.v.v.v.v.v.",
"v.v.v.v.v.E R R T q.c.l.u.1.8 : v.v.v.v.v.v.v.v.v.v.v.v.v.v.v.v.",
"v.v.v.v.v.v.v.R Y _ 1.9 ..e.8.v.v.v.v.v.v.v.v.v.v.v.v.v.v.v.v.v.",
"v.v.v.v.v.v.v.v.v.; 9 d.c.c.8.v.v.v.v.v.v.v.v.v.v.v.v.v.v.v.v.v.",
"v.v.v.v.v.v.v.v.v.  e t.c.c.9 v.v.v.v.v.v.v.v.v.v.v.v.v.v.v.v.v.",
"v.v.v.v.v.v.v.v.v.$ a e.c.x.5 v.v.v.v.v.v.v.v.v.v.v.v.v.v.v.v.v.",
"v.v.v.v.v.v.v.v.v.v.g y.c.k.> v.v.v.v.v.v.v.v.v.v.v.v.v.v.v.v.v.",
"v.v.v.v.v.v.v.v.v.v.g y.c.i.v.v.v.v.v.v.v.v.v.v.v.v.v.v.v.v.v.v.",
"v.v.v.v.v.v.v.v.v.v.r y.c.0.v.v.v.v.v.v.v.v.v.v.v.v.v.v.v.v.v.v.",
"v.v.v.v.v.v.v.v.v.v.= i.x.9 v.v.v.v.v.v.v.v.v.v.v.v.v.v.v.v.v.v.",
"v.v.v.v.v.v.v.v.v.v.3 9 , v.v.v.v.v.v.v.v.v.v.v.v.v.v.v.v.v.v.v."
};
