/* XPM */
static char *_8[] = {
/* columns rows colors chars-per-pixel */
"32 32 256 2 ",
"   c #2F3335",
".  c #363636",
"X  c #354348",
"o  c #364349",
"O  c #36444A",
"+  c #38464C",
"@  c #3F4E55",
"#  c #434343",
"$  c #494949",
"%  c #425056",
"&  c #495358",
"*  c #4D575B",
"=  c #545454",
"-  c #555555",
";  c #595959",
":  c #4B5D64",
">  c #4B5E66",
",  c #546268",
"<  c #52666E",
"1  c #566972",
"2  c #576C75",
"3  c #5B717B",
"4  c #5D727B",
"5  c #626262",
"6  c #676767",
"7  c #666768",
"8  c #727272",
"9  c #7D7D7D",
"0  c #7F7F7F",
"q  c #647C85",
"w  c #6E7B80",
"e  c #6D7D83",
"r  c #7C7E80",
"t  c #69828D",
"y  c #6A838E",
"u  c #6A848E",
"i  c #6A848F",
"p  c #6E858F",
"a  c #7E868A",
"s  c #79888E",
"d  c #7A898F",
"f  c #778E97",
"g  c #7B8F97",
"h  c #728D98",
"j  c #74919C",
"k  c #7A9099",
"l  c #7F939B",
"z  c #7D96A1",
"x  c #7F98A3",
"c  c #7D99A5",
"v  c #7C9AA6",
"b  c #808080",
"n  c #838484",
"m  c #80898D",
"M  c #828C91",
"N  c #818E94",
"B  c #849095",
"V  c #859297",
"C  c #859399",
"Z  c #8B959A",
"A  c #8F979A",
"S  c #919191",
"D  c #939392",
"F  c #939393",
"G  c #949494",
"H  c #959595",
"J  c #969696",
"K  c #979797",
"L  c #92989A",
"P  c #949A9D",
"I  c #989898",
"U  c #9E9E9E",
"Y  c #819BA6",
"T  c #869BA4",
"R  c #879CA5",
"E  c #8A9AA0",
"W  c #929CA0",
"Q  c #939EA3",
"!  c #84A2AF",
"~  c #88A2AD",
"^  c #9DA2A4",
"/  c #9EA2A4",
"(  c #86A4B0",
")  c #8AABB9",
"_  c #8BACBA",
"`  c #8DACB9",
"'  c #8EAEBB",
"]  c #8EB0BF",
"[  c #A4A4A4",
"{  c #A3A8AB",
"}  c #A4A9AB",
"|  c #A2A9AC",
" . c #A8A8A8",
".. c #A9A9A9",
"X. c #AAAAA9",
"o. c #ABABAB",
"O. c #AEAEAE",
"+. c #AEB0B1",
"@. c #B0B0B0",
"#. c #B1B1B1",
"$. c #B2B5B6",
"%. c #B7B7B7",
"&. c #B3B7B9",
"*. c #B7BABB",
"=. c #B8B9B9",
"-. c #B9B9B9",
";. c #B9BABB",
":. c #BBBBBB",
">. c #B8BABC",
",. c #B9BCBD",
"<. c #BBBCBD",
"1. c #BBBDBD",
"2. c #BCBDBD",
"3. c #BEBEBE",
"4. c #BFBFBF",
"5. c #8FB2C0",
"6. c #90B3C1",
"7. c #90B3C2",
"8. c #91B4C3",
"9. c #95B9C8",
"0. c #99BECE",
"q. c #AABFC8",
"w. c #BCBFC0",
"e. c #9AC0D0",
"r. c #9BC1D1",
"t. c #9EC5D5",
"y. c #9FC6D6",
"u. c #9EC6D7",
"i. c #BEC1C2",
"p. c #A2CADB",
"a. c #A4CDDE",
"s. c #B6D2DD",
"d. c #B5D3DF",
"f. c #A7CFE0",
"g. c #A7D0E1",
"h. c #A7D1E2",
"j. c #A8D2E3",
"k. c #ACD3E3",
"l. c #A9D2E4",
"z. c #AAD4E5",
"x. c #ACD7E8",
"c. c #ADD8E9",
"v. c #AED8EA",
"b. c #AED9EA",
"n. c #AFDAEC",
"m. c #B0DCEE",
"M. c #B1DCEE",
"N. c #B1DDEF",
"B. c #B3DDEE",
"V. c #B2DDEF",
"C. c #B3DDEF",
"Z. c #B5DEEE",
"A. c #B1DEF0",
"S. c #B2DEF0",
"D. c #B3DEF0",
"F. c #B3DFF1",
"G. c #B4DEF0",
"H. c #B4DFF1",
"J. c #B7DFF0",
"K. c #B6DFF1",
"L. c #B4DFF2",
"P. c #B4E0F2",
"I. c #B5E1F3",
"U. c #B5E1F4",
"Y. c #BCE1F1",
"T. c #BFE2F0",
"R. c #BFE3F2",
"E. c #C0C2C3",
"W. c #C3C5C5",
"Q. c #C4C4C4",
"!. c #C4C4C5",
"~. c #C6C8C8",
"^. c #C7C8C9",
"/. c #CCCCCC",
"(. c #CDCDCD",
"). c #CECECE",
"_. c #CECFCF",
"`. c #C7D2D7",
"'. c #C5D4DA",
"]. c #C0D4DD",
"[. c #CBD6DA",
"{. c #D0D0D0",
"}. c #D1D1D1",
"|. c #D1D2D2",
" X c #D2D3D3",
".X c #D4D3D3",
"XX c #D7D7D7",
"oX c #D3DADC",
"OX c #D0DBDF",
"+X c #D5DCDF",
"@X c #DADADA",
"#X c #DBDBDB",
"$X c #DCDCDC",
"%X c #DDDDDD",
"&X c #DEDEDE",
"*X c #DFE4E7",
"=X c #D4E4EA",
"-X c #DCE4E8",
";X c #C4E5F3",
":X c #C8E6F3",
">X c #CFEAF5",
",X c #D3ECF6",
"<X c #D8EEF7",
"1X c #DBF0F8",
"2X c #DEF0F8",
"3X c #E0E0E0",
"4X c #E1E1E1",
"5X c #E2E2E2",
"6X c #E4E4E4",
"7X c #E5E5E5",
"8X c #E7E7E7",
"9X c #E8E8E7",
"0X c #E5E8EA",
"qX c #E9E8E8",
"wX c #E9E9E8",
"eX c #E8EBED",
"rX c #EDEDED",
"tX c #EEEEEE",
"yX c #EFEFEF",
"uX c #F0EFEF",
"iX c #E4EDF1",
"pX c #E8F2F6",
"aX c #E1F2F8",
"sX c #E8F5FA",
"dX c #EDF6F9",
"fX c #EEF7FB",
"gX c #F0F0F0",
"hX c #F2F1F1",
"jX c #F3F4F5",
"kX c #F4F4F4",
"lX c #F5F4F4",
"zX c #F5F5F4",
"xX c #F5F5F5",
"cX c #F7F7F6",
"vX c #F7F7F7",
"bX c #F7F7F8",
"nX c #F0F8FB",
"mX c #F5FAFC",
"MX c #F7FCFD",
"NX c #F8F8F8",
"BX c #F9F9F8",
"VX c #F9F9F9",
"CX c #FAFAFA",
"ZX c #FBFAFA",
"AX c #FBFBFB",
"SX c #FCFBFB",
"DX c #FCFCFB",
"FX c #F9FDFE",
"GX c #FCFCFC",
"HX c #FDFDFD",
"JX c #FEFDFD",
"KX c #FEFEFD",
"LX c #FDFFFF",
"PX c #FEFEFE",
"IX c #FFFFFF",
"UX c None",
/* pixels */
"UXUXUXUXUXUXUXUXUXUXUXUXUXUXUXUXUXUXUXUXUXUXUXUXUXUXUXUXUXUXUXUX",
"UXUXUXUXUXUXUXUXUXUXUXUXUXUXUXUXUXUXUXUXUXUXUXUXUXUXUXUXUXUXUXUX",
"UXUXUXUXUXUXUXUXUXUXUXUXUXUXUXUXUXUXUXUXUXUXUXUXUXUXUXUXUXUXUXUX",
"UXUXUXUXUXUXUXUXUXUXUXUXUXUXUXUXUXUXUXUXUXUXUXUXUXUXUXUXUXUXUXUX",
"UXUXUXUXUXUXUXUXUXUXUXUXUXUXUXUXUXUXUXUXUXUXUXUXUXUX5 UXUXUXUXUX",
"UXUXUXUXUXUXUXUXUXUXUXUXUXUXUXUXUXUXUXUXUXUXUXUXUX#.xX}.n . UXUX",
"UXUXUXUXUXUXUXUXUXUXUXUXUXUXUXUXUXUXUXUXUXUXUXUX .GXIX*.& UXUXUX",
"UXUXUXUXUXUXUX+   UXUXUXUXUXUXUXUXUXUXUXUXUXUXU VXIX%Xe O UXUXUX",
"UXUXUXo t ) r.6.P .Xo.0 UXUXUXUXUXUXUXUXUXUXG vXIXBXA 2 UXUXUXUX",
"UXUX< 0.S.P.U.' ~.IXIXNX5X4.G 6 UXUXUXUXUXS kXIXIX1.p X UXUXUXUX",
"UX@ y.P.V.V.N.T 9XIXIXIXIXIXJXyX}.o.b UX- $XPXIXqXw 3 UXUXUXUXUX",
"UXj L.V.V.S.g.Q SXIXHXZXIXIXIXIXIXIXNX@Xo.H K %.(.r UXUXUXUXUXUX",
"UX5.P.V.V.H.9.&.IXwX/ B { _.uXKXIXIXIXIXIXCX6XQ...m UXUXUXUXUXUX",
"UX8.P.V.V.F.~ #X/.s 7.j.0.( l W ,.4XBXIXIXIXIXIXNXs.A.UXUXUXUXUX",
"UXv P.V.V.c.E cX=.c U.C.F.L.n.p.] x C }  XAXIXIXeXd.K.N.UXUXUXUX",
"UX: f.D.D.t.| IXlXM u.H.L.S.V.D.L.S.z.0.f !.IXIX+X=X,XZ.UXUXUXUX",
"UXUXy b.I.` ^.IXIX|.V Y 7.a.M.P.F.V.V.P.h.N hXHX`.pXsX:XM.UXUXUX",
"UXUXUXi l.R qXIXIXIXvX$X$.Z g ! e.x.H.P.N.h 2.jXoXFXnX<XJ.N.UXUX",
"UXUXUXUX> a zXIXIXIXIXIXIXDX7X<.L d z _ k ^ rX*X-XLXmXaXR.N.UXUX",
"UXUXUXUXUXUX9 ..{.tXHXIXIXIXIXIXPXuX).+.XXJXIX[.iXMXnX2XY.N.UXUX",
"UXUXUXUXUXUXUXUXUX6 G 3.4XNXIXIXIXIXIXIXIXIXbX'.dXfX2X;XC.V.UXUX",
"UXUXUXUXUXUXUXUXUXUXUXUXUX0 o.}.gXPXIXIXIXIX0X].1X>XT.B.V.UXUXUX",
"UXUXUXUXUXUXUXUXUXUXUXUXUXUXUXUX; J :.3XBXIXOXk.G.V.v.UXUXUXUXUX",
"UXUXUXUXUXUXUXUXUXUXUXUXUXUXUXUX$ Q.-.I F X.q.m.N.UXUXUXUXUXUXUX",
"UXUXUXUXUXUXUXUXUXUXUXUXUXUXUXUXUX).IXPX&XD * UXUXUXUXUXUXUXUXUX",
"UXUXUXUXUXUXUXUXUXUXUXUXUXUXUXUXUX@.IXIX;., UXUXUXUXUXUXUXUXUXUX",
"UXUXUXUXUXUXUXUXUXUXUXUXUXUXUXUXUXS IXIX>.u UXUXUXUXUXUXUXUXUXUX",
"UXUXUXUXUXUXUXUXUXUXUXUXUXUXUXUXUX8 vXIXw.q UXUXUXUXUXUXUXUXUXUX",
"UXUXUXUXUXUXUXUXUXUXUXUXUXUXUXUXUX= 8XIXi.4 UXUXUXUXUXUXUXUXUXUX",
"UXUXUXUXUXUXUXUXUXUXUXUXUXUXUXUXUXUX}.IXE.1 UXUXUXUXUXUXUXUXUXUX",
"UXUXUXUXUXUXUXUXUXUXUXUXUXUXUXUXUXUXO.IXW.% UXUXUXUXUXUXUXUXUXUX",
"UXUXUXUXUXUXUXUXUXUXUXUXUXUXUXUXUXUX# 0 [ 7 UXUXUXUXUXUXUXUXUXUX"
};
