/* XPM */
static char *_01[] = {
/* columns rows colors chars-per-pixel */
"32 32 213 2 ",
"   c #073608",
".  c #243723",
"X  c #024406",
"o  c #035307",
"O  c #015D07",
"+  c #035808",
"@  c #045A0B",
"#  c #075F0C",
"$  c #144416",
"%  c #057E0F",
"&  c #0A7A13",
"*  c #127319",
"=  c #3C553B",
"-  c #2F6431",
";  c #4E4E4E",
":  c #435E45",
">  c #515050",
",  c #535152",
"<  c #525252",
"1  c #5D5B5D",
"2  c #5E5E5E",
"3  c #596559",
"4  c #6A6A6A",
"5  c #6E6E6E",
"6  c #697669",
"7  c #6B7C69",
"8  c #757575",
"9  c #7A7A7A",
"0  c #787E78",
"q  c #7C7C7C",
"w  c #7E7D7D",
"e  c #0A8911",
"r  c #059512",
"t  c #079512",
"y  c #089C13",
"u  c #0B9D1C",
"i  c #01AA13",
"p  c #02AC16",
"a  c #04AD15",
"s  c #10AF1F",
"d  c #05B014",
"f  c #05B016",
"g  c #01B617",
"h  c #03B717",
"j  c #04B616",
"k  c #03BF17",
"l  c #04BE17",
"z  c #09B019",
"x  c #0DB21E",
"c  c #05BB18",
"v  c #06BF19",
"b  c #1E8C2B",
"n  c #328437",
"m  c #3C833E",
"M  c #17A523",
"N  c #1EA72A",
"B  c #12B021",
"V  c #24A32E",
"C  c #23A42D",
"Z  c #20A62C",
"A  c #49BE13",
"S  c #4EBA14",
"D  c #6DA81B",
"F  c #60BB13",
"G  c #73B911",
"H  c #74BB10",
"J  c #7CB811",
"K  c #4FA52C",
"L  c #01C515",
"P  c #00C715",
"I  c #00C616",
"U  c #00CB15",
"Y  c #03C916",
"T  c #00CC14",
"R  c #00CC15",
"E  c #02C018",
"W  c #01C218",
"Q  c #01C618",
"!  c #0AC718",
"~  c #01CA19",
"^  c #00CB19",
"/  c #01CB19",
"(  c #03CA19",
")  c #00CD18",
"_  c #00CC19",
"`  c #00CD19",
"'  c #00CF19",
"]  c #08C818",
"[  c #08C918",
"{  c #0DC818",
"}  c #10C718",
"|  c #14C618",
" . c #378440",
".. c #3D9843",
"X. c #399F40",
"o. c #3E9B44",
"O. c #3F9C44",
"+. c #3F9D44",
"@. c #418B46",
"#. c #558958",
"$. c #579C5A",
"%. c #5A9C5D",
"&. c #60835F",
"*. c #48A647",
"=. c #5B8760",
"-. c #5E9A60",
";. c #6B836A",
":. c #6B906B",
">. c #69976B",
",. c #708C71",
"<. c #7E8E7E",
"1. c #7A907C",
"2. c #739F79",
"3. c #7DA261",
"4. c #76A077",
"5. c #73A278",
"6. c #7AA07A",
"7. c #7FA07E",
"8. c #7FA07F",
"9. c #9AB80F",
"0. c #9EB80C",
"q. c #808080",
"w. c #878686",
"e. c #878787",
"r. c #898989",
"t. c #8A8A8A",
"y. c #8E8E8E",
"u. c #90908F",
"i. c #929292",
"p. c #939393",
"a. c #959E96",
"s. c #999999",
"d. c #9B9B9B",
"f. c #9C9C9C",
"g. c #9D9D9D",
"h. c #9F9F9F",
"j. c #8FA38F",
"k. c #97A997",
"l. c #98A897",
"z. c #9DAA9B",
"x. c #9EAC9D",
"c. c #A2B19E",
"v. c #A2A2A2",
"b. c #A3A3A3",
"n. c #A4A3A3",
"m. c #A2AEA1",
"M. c #A9A6A9",
"N. c #A8A8A8",
"B. c #ABABAB",
"V. c #ACACAC",
"C. c #ADADAD",
"Z. c #AEADAE",
"A. c #AEAEAE",
"S. c #A9B0A8",
"D. c #B0B5AF",
"F. c #B0B0B0",
"G. c #B1B1B1",
"H. c #B2B2B2",
"J. c #B3B2B3",
"K. c #B2B6B1",
"L. c #B4B6B3",
"P. c #B4B7B3",
"I. c #B6B6B6",
"U. c #B7B7B7",
"Y. c #B1BAB4",
"T. c #B8B7B8",
"R. c #B9B7B8",
"E. c #BBB8BB",
"W. c #BABABA",
"Q. c #BBBBBB",
"!. c #BCBBBC",
"~. c #BDBBBD",
"^. c #BCBCBC",
"/. c #BEBDBE",
"(. c #BEBEBE",
"). c #C0BDC0",
"_. c #C0BFC0",
"`. c #C2BFC1",
"'. c #C0C0C0",
"]. c #C1C0C1",
"[. c #C2C0C1",
"{. c #C3C1C3",
"}. c #C3C2C3",
"|. c #C3C3C3",
" X c #C4C1C3",
".X c #C4C2C3",
"XX c #C5C2C5",
"oX c #C6C3C5",
"OX c #C4C4C4",
"+X c #C5C4C5",
"@X c #C6C5C6",
"#X c #C7C6C7",
"$X c #C8C5C7",
"%X c #C8C6C7",
"&X c #C9C7C9",
"*X c #C8C7CA",
"=X c #CAC7CA",
"-X c #C9C9C9",
";X c #CAC8CA",
":X c #CBC8CA",
">X c #CAC9CA",
",X c #CBC8CB",
"<X c #CBC9CB",
"1X c #CBCBCB",
"2X c #CCCACB",
"3X c #CCCCCB",
"4X c #CCCACC",
"5X c #CCCCCC",
"6X c #CDCCCC",
"7X c #CDCDCD",
"8X c #CECDCE",
"9X c #CECECE",
"0X c None",
/* pixels */
"0X0X0X0X0X0X0X0X0X0X0X0X0X0X0X0X0X0X0X0X0X0X0X0X0X0X0X0X0X0X0X0X",
"0X0X0X0X0X0X0X0X0X0X0X0X0X0X0X0X0X0X0X0X0X0X0X0X0X0X0X0X0X0X0X0X",
"0X0X0X0X0X0X0X0X0X0X0X0X0X0X0X0X0X0X0X0X0X0X0X0X0X0X0X0X0X0X0X0X",
"0X0X0X0X0X0X0X0X0X0X0X0X0X0X0X0X0X0X0X0X0X0X0X0X0X0X0X0X0X0X0X0X",
"0X0X0X0X0X0X0X0X0X0X0X0X0X0X0X0X0X0X0X0X0X0X0X0X0X0X0X0X0X0X0X0X",
"0X0X0X0X0X0X0X0X0X0X0X0X0X0X0X0X0X0X0X0X, 3 . 0X0X0X0X0X0X0X0X0X",
"0X0X0X0X0X0X0X0X0X0X0X0X0X0X0X0X0X0X0Xr.E.#.o 0X0X0X0X0X0X0X0X0X",
"0X0X0X0X0X0X0X0X0X0X0X0X0X0X0X0X0X0X2 '.$X@.O 0X0X0X0X0X0X0X0X0X",
"0X0X0X0X0X0X0X0X0X0X0X0X0X0X0X0X0X0Xe.1X).n + 0X0X0X0X0X0X0X0X0X",
"0X0X0X0X0X0X0X0X0X0X0X0X0X0X0X0X0X0XV.9X(.7 - 0X0X0X0X0X0X0X0X0X",
"0X0X0X0X0X0X0X0X0X0X0X0X0X0X0X0X0X4 W.B.d.M.5.v [ ] { } ( ^ 0X0X",
"0X0X0X0X0X0X0X0X0X0X0X0X0X0X0X0X0X5 f.Z.|.6XY.K H G J S ! ^ 0X0X",
"0X0X0X0X0X0X0X0X0X0X0X0X0X0X0Xq g.T.;XoXXX&X*X3.0.9.F | / 0X0X0X",
"0X0X0X0X0X0X0X0X0X0X0X0X0Xu.F.@X=XD.4.o...&.~.c.D A [ _ 0X0X0X0X",
"0X0X0X0X0X0X0X0X0X0X9 h.^.<X[.k.$.N k T d :.%X}.*.Y _ 0X0X0X0X0X",
"0X0X0X0X0X0X0X0Xy.A.+X:XK.6.X.x P U c C >.].5X<X2.g 0X0X0X0X0X0X",
"0X0X0X0X0X0X0 Q.-X>Xx.%.Z l R L s O.8.P.<XOXC.s.6 $ 0X0X0X0X0X0X",
"0X0X0X0Xe i =.<X2Xj.M P U c V -.z. X<XW.n.s.N.!.;.& X 0X0X0X0X0X",
"0X0X0Xy Q ) b J.R.m z B +.7.L.,X@XG.i.; 8 I.6X5X{.,.*   0X0X0X0X",
"0X0Xt ~ ^ ` p 1.@XS.l.m..X4X/.v.w 0X0X0X0X< t.U.3X&X<.= 0X0X0X0X",
"0X# E _ ^ ^ I  .`.7X8X#XH.p.0X0X0X0X0X0X0X0X0X> w.r.1 0X0X0X0X0X",
"0X@ W ` _ _ ' u a._.b.q.0X0X0X0X0X0X0X0X0X0X0X0X0X0X0X0X0X0X0X0X",
"0X0X% a h j f r : 0X0X0X0X0X0X0X0X0X0X0X0X0X0X0X0X0X0X0X0X0X0X0X",
"0X0X0X0X0X0X0X0X0X0X0X0X0X0X0X0X0X0X0X0X0X0X0X0X0X0X0X0X0X0X0X0X",
"0X0X0X0X0X0X0X0X0X0X0X0X0X0X0X0X0X0X0X0X0X0X0X0X0X0X0X0X0X0X0X0X",
"0X0X0X0X0X0X0X0X0X0X0X0X0X0X0X0X0X0X0X0X0X0X0X0X0X0X0X0X0X0X0X0X",
"0X0X0X0X0X0X0X0X0X0X0X0X0X0X0X0X0X0X0X0X0X0X0X0X0X0X0X0X0X0X0X0X",
"0X0X0X0X0X0X0X0X0X0X0X0X0X0X0X0X0X0X0X0X0X0X0X0X0X0X0X0X0X0X0X0X",
"0X0X0X0X0X0X0X0X0X0X0X0X0X0X0X0X0X0X0X0X0X0X0X0X0X0X0X0X0X0X0X0X",
"0X0X0X0X0X0X0X0X0X0X0X0X0X0X0X0X0X0X0X0X0X0X0X0X0X0X0X0X0X0X0X0X",
"0X0X0X0X0X0X0X0X0X0X0X0X0X0X0X0X0X0X0X0X0X0X0X0X0X0X0X0X0X0X0X0X",
"0X0X0X0X0X0X0X0X0X0X0X0X0X0X0X0X0X0X0X0X0X0X0X0X0X0X0X0X0X0X0X0X"
};
