/* XPM */
static char *_03[] = {
/* columns rows colors chars-per-pixel */
"32 32 199 2 ",
"   c #023604",
".  c #04520A",
"X  c #115918",
"o  c #06680B",
"O  c #08710E",
"+  c #067C0E",
"@  c #087E0F",
"#  c #0A6D10",
"$  c #1A6C1D",
"%  c #0A7112",
"&  c #235524",
"*  c #366037",
"=  c #327D3A",
"-  c #535353",
";  c #565656",
":  c #587C58",
">  c #686768",
",  c #637962",
"<  c #777777",
"1  c #747E73",
"2  c #757B75",
"3  c #7A7A7A",
"4  c #7F7F7F",
"5  c #0A8910",
"6  c #098E11",
"7  c #059412",
"8  c #089612",
"9  c #079B13",
"0  c #029C13",
"q  c #04A715",
"w  c #05A715",
"e  c #06A614",
"r  c #03A817",
"t  c #04A618",
"y  c #03B313",
"u  c #00BF15",
"i  c #0AB41B",
"p  c #0CB31D",
"a  c #0FB01E",
"s  c #0EB11E",
"d  c #10B01F",
"f  c #2ABC13",
"g  c #2FBF16",
"h  c #169D21",
"j  c #1C9D27",
"k  c #2D8637",
"l  c #308539",
"z  c #19A727",
"x  c #12AD20",
"c  c #14AC22",
"v  c #17AB24",
"b  c #1AA129",
"n  c #3FA923",
"m  c #42BE15",
"M  c #4EBD14",
"N  c #57BC13",
"B  c #60BB13",
"V  c #64BA12",
"C  c #71A722",
"Z  c #01C515",
"A  c #00C615",
"S  c #00C715",
"D  c #00C416",
"F  c #00C716",
"G  c #00C815",
"H  c #00C915",
"J  c #00CA14",
"K  c #00CA15",
"L  c #00C816",
"P  c #0AC917",
"I  c #01C618",
"U  c #01C719",
"Y  c #00CB19",
"T  c #01CB19",
"R  c #03CA19",
"E  c #05CA19",
"W  c #00CC19",
"Q  c #00CD19",
"!  c #00CE18",
"~  c #00CE19",
"^  c #0CC818",
"/  c #10C618",
"(  c #469B4B",
")  c #429D48",
"_  c #469C4B",
"`  c #4C9A4F",
"'  c #499C4E",
"]  c #4E8251",
"[  c #4C9750",
"{  c #4D9C51",
"}  c #519954",
"|  c #579A59",
" . c #5A995E",
".. c #53A75E",
"X. c #7DA15F",
"o. c #6D816F",
"O. c #6B926B",
"+. c #689D69",
"@. c #738274",
"#. c #799178",
"$. c #79927A",
"%. c #5EA664",
"&. c #8FB50D",
"*. c #98B70F",
"=. c #A6BB0D",
"-. c #7E9180",
";. c #818181",
":. c #838383",
">. c #848384",
",. c #858585",
"<. c #868485",
"1. c #888788",
"2. c #888888",
"3. c #8A8A8A",
"4. c #8C8C8C",
"5. c #819383",
"6. c #829682",
"7. c #829D83",
"8. c #899E89",
"9. c #919191",
"0. c #929191",
"q. c #949494",
"w. c #999999",
"e. c #9A9A9A",
"r. c #9D9E9D",
"t. c #9F9C9F",
"y. c #8FA68F",
"u. c #93A792",
"i. c #97A796",
"p. c #96A995",
"a. c #99A898",
"s. c #9AAA99",
"d. c #9CA99A",
"f. c #A0AB9E",
"g. c #A19FA0",
"h. c #A5A5A5",
"j. c #A6A6A6",
"k. c #A7A7A7",
"l. c #A0A9A0",
"z. c #A5AFA3",
"x. c #A8A8A8",
"c. c #A9A9A9",
"v. c #ACACAC",
"b. c #AFAFAF",
"n. c #A7B3A6",
"m. c #A7B4A8",
"M. c #ACB0AB",
"N. c #AEB2AD",
"B. c #AEB1AE",
"V. c #B0B0B0",
"C. c #B1B1B1",
"Z. c #B2B2B2",
"A. c #B4B3B3",
"S. c #B4B6B3",
"D. c #B5B5B5",
"F. c #BBB8BA",
"G. c #BBBBBB",
"H. c #BCBCBB",
"J. c #BCBABC",
"K. c #C0C0C0",
"L. c #C2C0C2",
"P. c #C3C2C2",
"I. c #C3C3C3",
"U. c #C4C2C3",
"Y. c #C4C3C4",
"T. c #C5C3C5",
"R. c #C6C3C5",
"E. c #C5C4C5",
"W. c #C5C4C7",
"Q. c #C6C4C6",
"!. c #C7C4C6",
"~. c #C6C5C6",
"^. c #C7C5C6",
"/. c #C6C6C6",
"(. c #C7C6C7",
"). c #C7C7C7",
"_. c #C8C5C7",
"`. c #C8C7C8",
"'. c #C9C6C9",
"]. c #C9C7C9",
"[. c #CAC7CA",
"{. c #C8C8C8",
"}. c #C8C9C8",
"|. c #C9C8C9",
" X c #CAC8C9",
".X c #CAC8CA",
"XX c #CAC9CA",
"oX c #CBC8CB",
"OX c #CACACA",
"+X c #CBCACB",
"@X c #CCCBCB",
"#X c #CCCBCC",
"$X c #CDCACD",
"%X c #CCCCCC",
"&X c #CDCDCD",
"*X c #CECDCE",
"=X c #CECECE",
"-X c #D0CED0",
";X c None",
/* pixels */
";X;X;X;X;X;X;X;X;X;X;X;X;X;X;X;X;X;X;X;X;X;X;X;X;X;X;X;X;X;X;X;X",
";X;X;X;X;X;X;X;X;X;X;X;X;X;X;X;X;X;X;X;X;X;X;X;X;X;X;X;X;X;X;X;X",
";X;X;X;X;X;X;X;X;X;X;X;X;X;X;X;X;X;X;X;X;X;X;X;X;X;X;X;X;X;X;X;X",
";X;X;X;X;X;X;X;X;X;X;X;X;X;X;X;X;X;X;X;X;X;X;X;X;X;X;X;X;X;X;X;X",
";X;X;X;X;X;X;X;X;X;X;X;X;X;X;X;X;X;X;X;X;X;X;X;X;X;X;X;X;X;X;X;X",
";X;X;X;X;X;X;X;X;X;X;X;X;X;X;X;X;X;X;X> 1 & ;X;X;X;X;X;X;X;X;X;X",
";X;X;X;X;X;X;X;X;X;X;X;X;X;X;X;X;X;X3 ~.8.O ;X;X;X;X;X;X;X;X;X;X",
";X;X;X;X;X;X;X;X;X;X;X;X;X;X;X;X;X;Xj.-X7.+ ;X;X;X;X;X;X;X;X;X;X",
";X;X;X;X;X;X;X;X;X;X;X;X;X;X;X;X;X- G.*X6.$ ;X;X;X;X;X;X;X;X;X;X",
";X;X;X;X;X;X;X;X;X;X;X;X;X;X;X;X;X< OX).r.2 b ! Y Y R E T ;X;X;X",
";X;X;X;X;X;X;X;X;X;X;X;X;X;X;X;X;Xq.V.e.c.L.%.f m M B g R ;X;X;X",
";X;X;X;X;X;X;X;X;X;X;X;X;X;X;X;X;X,.c.Y.&X*Xm.C =.*.V / W ;X;X;X",
";X;X;X;X;X;X;X;X;X;X;X;X;X;X;X>.k.E.^.N.M.S.W.X.&.N ^ W ;X;X;X;X",
";X;X;X;X;X;X;X;X;X;X;X;X;X,.b.`.!.s.{ z h : Q.n.n P Y ;X;X;X;X;X",
";X;X;X;X;X;X;X;X;X;X;X2.b.].T.p.' d G J j l.#X[...L ;X;X;X;X;X;X",
";X;X;X;X;X;X;X;X;X3.Z.|.U.u._ s H G a ( a.+X{.A.@.X ;X;X;X;X;X;X",
";X;X;X;X;X;X;X4.C.{.P.y.) p K S x ` i.R.XXV.w.g., # ;X;X;X;X;X;X",
";X;X;X;X;Xo o. X%XH.[ i K A c } d.!.|.x.9.h.K.@XB.] %   ;X;X;X;X",
";X;X;X;X6 u k F..XO.y Z v | f._.`.V.1.;X; 0.D.}.=XT.$.* ;X;X;X;X",
";X;X;X8 U ~ r -.T.#. .+.z.'.(.v.,.;X;X;X;X;X;X3 j.V.<.;X;X;X;X;X",
";X;X@ I W Y F l J.#XoX$X/.v.:.;X;X;X;X;X;X;X;X;X;X;X;X;X;X;X;X;X",
";X;Xq Q Y Y Q t 5.*XI.x.;.;X;X;X;X;X;X;X;X;X;X;X;X;X;X;X;X;X;X;X",
";X;X0 ~ Q Q W D = t.4 ;X;X;X;X;X;X;X;X;X;X;X;X;X;X;X;X;X;X;X;X;X",
";X;X. 7 w e 9 5 ;X;X;X;X;X;X;X;X;X;X;X;X;X;X;X;X;X;X;X;X;X;X;X;X",
";X;X;X;X;X;X;X;X;X;X;X;X;X;X;X;X;X;X;X;X;X;X;X;X;X;X;X;X;X;X;X;X",
";X;X;X;X;X;X;X;X;X;X;X;X;X;X;X;X;X;X;X;X;X;X;X;X;X;X;X;X;X;X;X;X",
";X;X;X;X;X;X;X;X;X;X;X;X;X;X;X;X;X;X;X;X;X;X;X;X;X;X;X;X;X;X;X;X",
";X;X;X;X;X;X;X;X;X;X;X;X;X;X;X;X;X;X;X;X;X;X;X;X;X;X;X;X;X;X;X;X",
";X;X;X;X;X;X;X;X;X;X;X;X;X;X;X;X;X;X;X;X;X;X;X;X;X;X;X;X;X;X;X;X",
";X;X;X;X;X;X;X;X;X;X;X;X;X;X;X;X;X;X;X;X;X;X;X;X;X;X;X;X;X;X;X;X",
";X;X;X;X;X;X;X;X;X;X;X;X;X;X;X;X;X;X;X;X;X;X;X;X;X;X;X;X;X;X;X;X",
";X;X;X;X;X;X;X;X;X;X;X;X;X;X;X;X;X;X;X;X;X;X;X;X;X;X;X;X;X;X;X;X"
};
