/* XPM */
static char *_11[] = {
/* columns rows colors chars-per-pixel */
"32 32 205 2 ",
"   c #373B36",
".  c #024D06",
"X  c #074609",
"o  c #005606",
"O  c #02510A",
"+  c #1A561C",
"@  c #0A7D0F",
"#  c #086D10",
"$  c #0A7B12",
"%  c #137C1A",
"&  c #2C602C",
"*  c #237D2A",
"=  c #4F4F4F",
"-  c #595959",
";  c #5F5B5F",
":  c #486447",
">  c #527453",
",  c #636363",
"<  c #656565",
"1  c #656566",
"2  c #676666",
"3  c #676767",
"4  c #6A6B6A",
"5  c #657165",
"6  c #747474",
"7  c #757575",
"8  c #777777",
"9  c #7B7B7B",
"0  c #098A11",
"q  c #079012",
"w  c #039713",
"e  c #049913",
"r  c #079D13",
"t  c #069F15",
"y  c #0B9A1C",
"u  c #05A114",
"i  c #05A214",
"p  c #07A219",
"a  c #0BA81A",
"s  c #10AF1F",
"d  c #04B316",
"f  c #06B417",
"g  c #06B616",
"h  c #02BF17",
"j  c #04BE17",
"k  c #08B71A",
"l  c #0EB11D",
"z  c #0BB41C",
"x  c #07B919",
"c  c #31BF16",
"v  c #1C8126",
"b  c #119320",
"n  c #189A27",
"m  c #1C9E26",
"M  c #2C8B33",
"N  c #329B3A",
"B  c #319E38",
"V  c #1CA627",
"C  c #14AB21",
"Z  c #17AA24",
"A  c #1FA52A",
"S  c #26A12E",
"D  c #3BA632",
"F  c #4CBE14",
"G  c #56BC13",
"H  c #77B70E",
"J  c #77B911",
"K  c #74A038",
"L  c #00C715",
"P  c #01C517",
"I  c #00C916",
"U  c #00C917",
"Y  c #00CB16",
"T  c #01CB17",
"R  c #00CC16",
"E  c #00CD16",
"W  c #0DC718",
"Q  c #00CB18",
"!  c #01CA19",
"~  c #00CB19",
"^  c #01CB19",
"/  c #02CA19",
"(  c #04C919",
")  c #04CA19",
"_  c #00CC18",
"`  c #00CC19",
"'  c #00CD19",
"]  c #00CE19",
"[  c #00CF19",
"{  c #16C016",
"}  c #16C517",
"|  c #2AC116",
" . c #39C015",
".. c #49854A",
"X. c #5D855E",
"o. c #5B895B",
"O. c #4C9A51",
"+. c #4E9952",
"@. c #5A9A5D",
"#. c #639F44",
"$. c #44A350",
"%. c #5F9961",
"&. c #618765",
"*. c #6D866C",
"=. c #689C6A",
"-. c #6E9B6E",
";. c #6F8A72",
":. c #769E77",
">. c #7D907F",
",. c #7C9D7C",
"<. c #97B80D",
"1. c #89B710",
"2. c #A3BA0E",
"3. c #808080",
"4. c #878787",
"5. c #8D8E8D",
"6. c #8F8F8F",
"7. c #829C82",
"8. c #869987",
"9. c #8A9689",
"0. c #8A978C",
"q. c #929292",
"w. c #959495",
"e. c #969696",
"r. c #989898",
"t. c #999999",
"y. c #9A9A9A",
"u. c #9C9A9C",
"i. c #9C9B9C",
"p. c #9E9E9E",
"a. c #9F9F9F",
"s. c #83A183",
"d. c #86A086",
"f. c #8AA189",
"g. c #90A690",
"h. c #97A796",
"j. c #9BA79A",
"k. c #95AE99",
"l. c #9CAB9B",
"z. c #A0A0A0",
"x. c #A2A1A1",
"c. c #A2A2A2",
"v. c #A6A6A6",
"b. c #A7A6A7",
"n. c #A7A7A7",
"m. c #A1A9A1",
"M. c #A3ACA1",
"N. c #A8ADA8",
"B. c #ACACAC",
"V. c #ADADAD",
"C. c #AEADAE",
"Z. c #A8B3A7",
"A. c #AEB4AD",
"S. c #AFB8AF",
"D. c #B1B1B1",
"F. c #B2B2B2",
"G. c #B1B4B0",
"H. c #B3B3B4",
"J. c #B5B4B4",
"K. c #B7B7B7",
"L. c #B5BCB7",
"P. c #B8B8B8",
"I. c #BABABA",
"U. c #BBBBBA",
"Y. c #BCBCBC",
"T. c #BDBCBD",
"R. c #BEBEBD",
"E. c #BFBEBE",
"W. c #BFBFBF",
"Q. c #C0C0C0",
"!. c #C1C1C1",
"~. c #C2C2C2",
"^. c #C3C2C3",
"/. c #C3C3C3",
"(. c #C4C2C3",
"). c #C4C3C4",
"_. c #C5C3C5",
"`. c #C6C3C5",
"'. c #C4C4C4",
"]. c #C5C5C5",
"[. c #C6C4C6",
"{. c #C7C4C6",
"}. c #C6C5C6",
"|. c #C6C6C6",
" X c #C7C7C7",
".X c #C8C5C7",
"XX c #C9C6C8",
"oX c #C9C7C9",
"OX c #CAC7C9",
"+X c #C8C8C8",
"@X c #C9C8C9",
"#X c #C9C9C9",
"$X c #CAC8CA",
"%X c #CAC9CA",
"&X c #CBC9CB",
"*X c #CBCACB",
"=X c #CBCBCB",
"-X c #CCCACC",
";X c #CDCACC",
":X c #CCCBCC",
">X c #CDCBCD",
",X c #CCCCCC",
"<X c #CDCCCD",
"1X c #CECDCE",
"2X c None",
/* pixels */
"2X2X2X2X2X2X2X2X2X2X2X2X2X2X2X2X2X2X2X2X2X2X2X2X2X2X2X2X2X2X2X2X",
"2X2X2X2X2X2X2X2X2X2X2X2X2X2X2X2X2X2X2X2X2X2X2X2X2X2X2X2X2X2X2X2X",
"2X2X2X2X2X2X2X2X2X2X2X2X2X2X2X2X2X2X2X2X2X2X2X2X2X2X2X2X2X2X2X2X",
"2X2X2X2X2X2X2X2X2X2X2X2X2X2X2X2X2X2X2X2X2X2X2X2X2X2X2X2X2X2X2X2X",
"2X2X2X2X2X2X2X2X2X2X2X2X2X2X2X2X2X5 + 2X2X2X2X2X2X2X2X2X2X2X2X2X",
"2X2X2X2X2X2X2X2X2X2X2X2X2X2X2X2Xi.m.% 2X2X2X2X2X2X2X2X2X2X2X2X2X",
"2X2X2X2X2X2X2X2X2X2X2X2X2X2X2X, ].T.M o 2X2X2X` ~ / ^ 2X2X2X2X2X",
"2X2X2X2X2X2X2X2X2X2X2X2X2X2X2X2 '.oXX.& t ] ~ W  .c ( 2X2X2X2X2X",
"2X2X2X2X2X2X2X2X2X2X2X2X2X2X2X< '.=Xx.5.$.{ F J 1.| ~ 2X2X2X2X2X",
"2X2X2X2X2X2X2X2X2X2X2X2X2X2X2X< '.V.p.}.L.#.<.2.G ) 2X2X2X2X2X2X",
"2X2X2X2X2X2X2X2X2X2X2X2X2X2X2X1 c.a. X<X1XS.K H } ` 2X2X2X2X2X2X",
"2X2X2X2X2X2X2X2X2X2X2X2X2X2X2X= z.%XU.j.9.).Z.D T 2X2X2X2X2X2X2X",
"2X2X2X2X2X2X2X2X2X2X2X2X2X2X2Xn.&Xl.N a ..`.>Xk.n 2X2X2X2X2X2X2X",
"2X2X2X2X2X2X2X2X2X2X2X2X2X2XD.-Xg.A Y f 7.<X|.u.: . 2X2X2X2X2X2X",
"2X2X2X2X2X2X2X2X2X2X2X2X8 K.$Xs.Z R k %.!./.y.b.*.* # X 2X2X2X2X",
"2X2X2X2X2X2X2X2X2X2X2X3.Y..X:.s E l -._.~.r.H.,X@XJ.8.>   2X2X2X",
"2X2X2X2X2X2X2X2X2X2X4.Q.(.=.z R C ,.XXI.9 p.I.W.'.#XC.; 2X2X2X2X",
"2X2X2X2X2X2X2X2X2X6.).E.@.x Y V f.&XP.7 2X2X2X- 3 6 2X2X2X2X2X2X",
"2X2X2X2X2X2X2X2Xe.|.R.+.j I S h.-XF.2X2X2X2X2X2X2X2X2X2X2X2X2X2X",
"2X2X2X2X2X2X2Xw.+X<Xd.g L B M.:XB.2X2X2X2X2X2X2X2X2X2X2X2X2X2X2X",
"2X2X2X2X2X2X$ &.[.OXo.m O.A.*Xv.2X2X2X2X2X2X2X2X2X2X2X2X2X2X2X2X",
"2X2X2X2X2X@ P p ;.{.N.G._.@Xz.2X2X2X2X2X2X2X2X2X2X2X2X2X2X2X2X2X",
"2X2X2X2X2Xd ` _ y >.;X,X|.t.2X2X2X2X2X2X2X2X2X2X2X2X2X2X2X2X2X2X",
"2X2X2X2X0 ! ~ ~ Q b 0.^.q.2X2X2X2X2X2X2X2X2X2X2X2X2X2X2X2X2X2X2X",
"2X2X2X2Xu ' ~ ~ ` U v 4 2X2X2X2X2X2X2X2X2X2X2X2X2X2X2X2X2X2X2X2X",
"2X2X2X2Xe [ ' ~ h r 2X2X2X2X2X2X2X2X2X2X2X2X2X2X2X2X2X2X2X2X2X2X",
"2X2X2X2XO w i q 2X2X2X2X2X2X2X2X2X2X2X2X2X2X2X2X2X2X2X2X2X2X2X2X",
"2X2X2X2X2X2X2X2X2X2X2X2X2X2X2X2X2X2X2X2X2X2X2X2X2X2X2X2X2X2X2X2X",
"2X2X2X2X2X2X2X2X2X2X2X2X2X2X2X2X2X2X2X2X2X2X2X2X2X2X2X2X2X2X2X2X",
"2X2X2X2X2X2X2X2X2X2X2X2X2X2X2X2X2X2X2X2X2X2X2X2X2X2X2X2X2X2X2X2X",
"2X2X2X2X2X2X2X2X2X2X2X2X2X2X2X2X2X2X2X2X2X2X2X2X2X2X2X2X2X2X2X2X",
"2X2X2X2X2X2X2X2X2X2X2X2X2X2X2X2X2X2X2X2X2X2X2X2X2X2X2X2X2X2X2X2X"
};
