/* XPM */
static char *_14[] = {
/* columns rows colors chars-per-pixel */
"32 32 195 2 ",
"   c #004404",
".  c #03520A",
"X  c #0B560E",
"o  c #035D09",
"O  c #144915",
"+  c #0A7A0F",
"@  c #0A6C11",
"#  c #0A7912",
"$  c #107E18",
"%  c #275728",
"&  c #1C7C24",
"*  c #524F52",
"=  c #535353",
"-  c #5B5A5A",
";  c #4D6C4C",
":  c #4D7C4E",
">  c #5E705E",
",  c #5E795F",
"<  c #626161",
"1  c #686A68",
"2  c #717171",
"3  c #727272",
"4  c #737373",
"5  c #747373",
"6  c #757575",
"7  c #7A7979",
"8  c #088410",
"9  c #089512",
"0  c #039813",
"q  c #049913",
"w  c #059F14",
"e  c #079F14",
"r  c #0B9A1C",
"t  c #05A414",
"y  c #01AB15",
"u  c #07A219",
"i  c #0AA718",
"p  c #10AF1F",
"a  c #04B116",
"s  c #06B518",
"d  c #0AB51A",
"f  c #0EB01D",
"g  c #0BB41C",
"h  c #07B919",
"j  c #06BB18",
"k  c #31BF16",
"l  c #3EBE15",
"z  c #1C8326",
"x  c #119320",
"c  c #1A9E24",
"v  c #1C9729",
"b  c #348A3A",
"n  c #32993A",
"m  c #1BA626",
"M  c #14AB21",
"N  c #17AA24",
"B  c #1FA52A",
"V  c #23A22D",
"C  c #29A132",
"Z  c #3BA632",
"A  c #45BE14",
"S  c #50BC14",
"D  c #7DB80E",
"F  c #7BB811",
"G  c #73A138",
"H  c #01C417",
"J  c #00C915",
"K  c #00C917",
"L  c #00CB16",
"P  c #00CB17",
"I  c #02CB17",
"U  c #00CC16",
"Y  c #00CD16",
"T  c #02C018",
"R  c #01C919",
"E  c #00CA19",
"W  c #00CB19",
"Q  c #01CB19",
"!  c #02CA19",
"~  c #05C919",
"^  c #00CC18",
"/  c #00CC19",
"(  c #00CD19",
")  c #00CF19",
"_  c #15C016",
"`  c #1BC517",
"'  c #13C718",
"]  c #25C316",
"[  c #4B874D",
"{  c #429848",
"}  c #5D8A5D",
"|  c #5B9B5D",
" . c #5B9A5E",
".. c #629E44",
"X. c #44A350",
"o. c #608665",
"O. c #649A65",
"+. c #689C6A",
"@. c #6F8A72",
"#. c #719B70",
"$. c #769E77",
"%. c #7D917D",
"&. c #7D907F",
"*. c #7D9D7C",
"=. c #96B70D",
"-. c #87B710",
";. c #A4BA0E",
":. c #828181",
">. c #898989",
",. c #8A8C8A",
"<. c #899587",
"1. c #8A978C",
"2. c #909090",
"3. c #919191",
"4. c #969596",
"5. c #979797",
"6. c #909F90",
"7. c #989898",
"8. c #999898",
"9. c #999999",
"0. c #9A9A9A",
"q. c #9D9B9D",
"w. c #9E9E9E",
"e. c #83A183",
"r. c #87A087",
"t. c #8AA188",
"y. c #8CA48C",
"u. c #90A68F",
"i. c #95A694",
"p. c #97A497",
"a. c #9AA69A",
"s. c #94AE98",
"d. c #9CAA9B",
"f. c #9FAB9E",
"g. c #A1A1A1",
"h. c #A1A2A2",
"j. c #A4A4A4",
"k. c #A5A5A5",
"l. c #A6A6A6",
"z. c #A7A6A7",
"x. c #A8ACA7",
"c. c #A8A8A8",
"v. c #A9A9A9",
"b. c #ABABAB",
"n. c #AFAEAF",
"m. c #A6B0A5",
"M. c #A8B3A7",
"N. c #AFB2AE",
"B. c #AFB7AF",
"V. c #B0B0B0",
"C. c #B1B1B0",
"Z. c #B1B1B1",
"A. c #B2B2B2",
"S. c #B7B7B7",
"D. c #B5BCB7",
"F. c #B8B8B8",
"G. c #B9B9B8",
"H. c #B9B9B9",
"J. c #BCBCBC",
"K. c #BEBEBE",
"L. c #BFBEBF",
"P. c #C0BEC0",
"I. c #C0C0C0",
"U. c #C1C1C1",
"Y. c #C3C1C2",
"T. c #C3C1C3",
"R. c #C3C2C3",
"E. c #C4C2C3",
"W. c #C4C3C4",
"Q. c #C4C4C4",
"!. c #C5C5C5",
"~. c #C6C4C6",
"^. c #C6C6C6",
"/. c #C8C7C7",
"(. c #C8C6C8",
"). c #C9C7C9",
"_. c #CAC7CA",
"`. c #C8C8C8",
"'. c #C9C8C9",
"]. c #C9C9C9",
"[. c #CAC8CA",
"{. c #CBC9CB",
"}. c #CACACA",
"|. c #CBCACB",
" X c #CCC9CB",
".X c #CCCACC",
"XX c #CDCACC",
"oX c #CCCBCC",
"OX c #CDCBCD",
"+X c #CCCCCC",
"@X c #CCCCCD",
"#X c #CDCCCD",
"$X c #CECCCE",
"%X c #CECDCE",
"&X c None",
/* pixels */
"&X&X&X&X&X&X&X&X&X&X&X&X&X&X&X&X&X&X&X&X&X&X&X&X&X&X&X&X&X&X&X&X",
"&X&X&X&X&X&X&X&X&X&X&X&X&X&X&X&X&X&X&X&X&X&X&X&X&X&X&X&X&X&X&X&X",
"&X&X&X&X&X&X&X&X&X&X&X&X&X&X&X&X&X&X&X&X&X&X&X&X&X&X&X&X&X&X&X&X",
"&X&X&X&X&X&X&X&X&X&X&X&X&X&X&X&X&X&X&X&X&X&X&X&X&X&X&X&X&X&X&X&X",
"&X&X&X&X&X&X&X&X&X&X&X&X&X&X&X* , X &X&X&X&X&X&X&X&X&X&X&X&X&X&X",
"&X&X&X&X&X&X&X&X&X&X&X&X&X&X&Xj.a.$ &X&X&X&X&X/ Q Q &X&X&X&X&X&X",
"&X&X&X&X&X&X&X&X&X&X&X&X&X&X< !.P.b o &X&X/ ! ] k ~ &X&X&X&X&X&X",
"&X&X&X&X&X&X&X&X&X&X&X&X&X&X- K.oX%.; v I ` S -.l E &X&X&X&X&X&X",
"&X&X&X&X&X&X&X&X&X&X&X&X&X&X&XS.+Xn.q.s.Z D ;.F ' / &X&X&X&X&X&X",
"&X&X&X&X&X&X&X&X&X&X&X&X&X&X&XV.H.0.Q.OXM.G =.A E &X&X&X&X&X&X&X",
"&X&X&X&X&X&X&X&X&X&X&X&X&X&X&X9.0.U.$X~.W.B..._ ( &X&X&X&X&X&X&X",
"&X&X&X&X&X&X&X&X&X&X&X&X&X&X&X6 L.U.r.[ <.%XD.X.y &X&X&X&X&X&X&X",
"&X&X&X&X&X&X&X&X&X&X&X&X&X&X6 F.E. .s i p.#X/.,.%   &X&X&X&X&X&X",
"&X&X&X&X&X&X&X&X&X&X&X&X&X&XS.(.+.h L n G.].w.8.: & @ O &X&X&X&X",
"&X&X&X&X&X&X&X&X&X&X&X&X&XZ.[.$.g L V f.|.g.c.}.E.C.6.> &X&X&X&X",
"&X&X&X&X&X&X&X&X&X&X&X&Xb. Xe.p U m i.XXl.h.`.`.`.}.z.&X&X&X&X&X",
"&X&X&X&X&X&X&X&X&X&X&Xk..Xu.N Y M t..Xv.= 2 4 3 5 5 &X&X&X&X&X&X",
"&X&X&X&X&X&X&X&X&X&Xw.|.d.B U f *.{.A.&X&X&X&X&X&X&X&X&X&X&X&X&X",
"&X&X&X&X&X&X&X&X&X5.'.m.C L d #.).S.&X&X&X&X&X&X&X&X&X&X&X&X&X&X",
"&X&X&X&X&X&X&X&X2.^.T.{ J j O.~.J.7 &X&X&X&X&X&X&X&X&X&X&X&X&X&X",
"&X&X&X&X&X&X&X1 R.@XN.c s | Y.I.:.&X&X&X&X&X&X&X&X&X&X&X&X&X&X&X",
"&X&X&X&X&X&X&Xz 1.XXx.} y.U.Q.>.&X&X&X&X&X&X&X&X&X&X&X&X&X&X&X&X",
"&X&X&X&X&X&Xe K x &.~._.#X^.3.&X&X&X&X&X&X&X&X&X&X&X&X&X&X&X&X&X",
"&X&X&X&X&X&XT / P r @.~.`.7.&X&X&X&X&X&X&X&X&X&X&X&X&X&X&X&X&X&X",
"&X&X&X&X&X9 W W W ^ u o.4.&X&X&X&X&X&X&X&X&X&X&X&X&X&X&X&X&X&X&X",
"&X&X&X&X&Xt ( W W / H # &X&X&X&X&X&X&X&X&X&X&X&X&X&X&X&X&X&X&X&X",
"&X&X&X&X&Xq ) ( R a + &X&X&X&X&X&X&X&X&X&X&X&X&X&X&X&X&X&X&X&X&X",
"&X&X&X&X&X. 0 w 8 &X&X&X&X&X&X&X&X&X&X&X&X&X&X&X&X&X&X&X&X&X&X&X",
"&X&X&X&X&X&X&X&X&X&X&X&X&X&X&X&X&X&X&X&X&X&X&X&X&X&X&X&X&X&X&X&X",
"&X&X&X&X&X&X&X&X&X&X&X&X&X&X&X&X&X&X&X&X&X&X&X&X&X&X&X&X&X&X&X&X",
"&X&X&X&X&X&X&X&X&X&X&X&X&X&X&X&X&X&X&X&X&X&X&X&X&X&X&X&X&X&X&X&X",
"&X&X&X&X&X&X&X&X&X&X&X&X&X&X&X&X&X&X&X&X&X&X&X&X&X&X&X&X&X&X&X&X"
};
