/* XPM */
static char *_31[] = {
/* columns rows colors chars-per-pixel */
"32 32 205 2 ",
"   c #004A04",
".  c #044108",
"X  c #044A09",
"o  c #035A09",
"O  c #18511A",
"+  c #086A0D",
"@  c #0A770E",
"#  c #0B790F",
"$  c #0A7E0F",
"%  c #166619",
"&  c #0C7413",
"*  c #0C7F14",
"=  c #127A1A",
"-  c #244623",
";  c #277D2B",
":  c #3E7F42",
">  c #444943",
",  c #515051",
"<  c #555454",
"1  c #5B5B5B",
"2  c #516D51",
"3  c #587259",
"4  c #666666",
"5  c #696E69",
"6  c #6D6D6D",
"7  c #757575",
"8  c #06850F",
"9  c #078210",
"0  c #0A8A11",
"q  c #05A714",
"w  c #05AA15",
"e  c #02AF17",
"r  c #02B116",
"t  c #01B917",
"y  c #00BD15",
"u  c #03BD17",
"i  c #03BF17",
"p  c #08B71A",
"a  c #0BB41C",
"s  c #0BBA1D",
"d  c #35BF15",
"f  c #1E8E2B",
"g  c #109820",
"h  c #2C8630",
"j  c #31873B",
"k  c #2D9533",
"l  c #12AF22",
"z  c #17AB24",
"x  c #1EA42A",
"c  c #21A72D",
"v  c #23A72E",
"b  c #27A331",
"n  c #33A13B",
"m  c #36A03E",
"M  c #40BF15",
"N  c #4CBD14",
"B  c #52BD13",
"V  c #7DB811",
"C  c #50A922",
"Z  c #79A42D",
"A  c #72A33F",
"S  c #00C012",
"D  c #00C114",
"F  c #01C017",
"G  c #00C415",
"H  c #00C615",
"J  c #00C716",
"K  c #00C914",
"L  c #00CA14",
"P  c #00CB14",
"I  c #00C916",
"U  c #00CC14",
"Y  c #00CC17",
"T  c #02C218",
"R  c #02C418",
"E  c #01C618",
"W  c #00CB19",
"Q  c #02CA19",
"!  c #03CA19",
"~  c #01CC18",
"^  c #00CC19",
"/  c #00CD19",
"(  c #00CE19",
")  c #15C517",
"_  c #17C517",
"`  c #18C314",
"'  c #2FC116",
"]  c #3B9641",
"[  c #399F40",
"{  c #3C9E41",
"}  c #47854E",
"|  c #5B8A5D",
" . c #4D9350",
".. c #4C9E51",
"X. c #519C55",
"o. c #539D56",
"O. c #59985C",
"+. c #5BA456",
"@. c #608965",
"#. c #6C816E",
"$. c #6F806F",
"%. c #649E66",
"&. c #6A9D6B",
"*. c #7B8D7A",
"=. c #739573",
"-. c #729F73",
";. c #5EA066",
":. c #7CA27D",
">. c #88B90D",
",. c #96B70F",
"<. c #A9BC0C",
"1. c #7F9A80",
"2. c #818181",
"3. c #828282",
"4. c #838283",
"5. c #848484",
"6. c #858585",
"7. c #868686",
"8. c #8C8C8C",
"9. c #8F8F8F",
"0. c #929292",
"q. c #949494",
"w. c #969696",
"e. c #9B9B9B",
"r. c #9C9C9C",
"t. c #9D9D9D",
"y. c #9E9E9E",
"u. c #82A181",
"i. c #93A892",
"p. c #94AE97",
"a. c #98A997",
"s. c #9DA49B",
"d. c #A0A69F",
"f. c #A0A0A0",
"g. c #A1A1A1",
"h. c #A1A3A0",
"j. c #A2A1A2",
"k. c #A0A6A0",
"l. c #A4A7A5",
"z. c #A7A7A7",
"x. c #A8A8A8",
"c. c #A9A9A9",
"v. c #AAAAAA",
"b. c #ACACAB",
"n. c #ADADAD",
"m. c #AEAEAE",
"M. c #A7B0A6",
"N. c #ACB1AA",
"B. c #AAB6AB",
"V. c #ADB2AD",
"C. c #B1B1B1",
"Z. c #B3B2B3",
"A. c #B1B5B0",
"S. c #B3B6B2",
"D. c #B4B4B4",
"F. c #B4B5B4",
"G. c #B4B4B5",
"H. c #B6B4B5",
"J. c #B7B9B6",
"K. c #B8BAB7",
"L. c #B7BDBA",
"P. c #B9B9B9",
"I. c #BBBAB9",
"U. c #BBBBBB",
"Y. c #BDBDBD",
"T. c #BFBEBF",
"R. c #C2BEC1",
"E. c #C1C1C1",
"W. c #C3C1C2",
"Q. c #C3C0C3",
"!. c #C2C2C2",
"~. c #C4C1C4",
"^. c #C4C2C4",
"/. c #C5C2C4",
"(. c #C4C3C4",
"). c #C5C3C5",
"_. c #C6C3C5",
"`. c #C2C4C5",
"'. c #C4C4C4",
"]. c #C5C5C5",
"[. c #C7C4C7",
"{. c #C7C5C7",
"}. c #C6C6C6",
"|. c #C9C5C9",
" X c #C9C7C9",
".X c #CAC6C9",
"XX c #CAC7C9",
"oX c #C9C7CA",
"OX c #CBC7CA",
"+X c #C8C8C8",
"@X c #C9C9C9",
"#X c #CAC8CA",
"$X c #CBC8CB",
"%X c #CACACA",
"&X c #CBCACB",
"*X c #CBCBCB",
"=X c #CCC9CC",
"-X c #CCCACC",
";X c #CCCBCC",
":X c #CDCACD",
">X c #CDCBCD",
",X c #CDCCCD",
"<X c #CDCDCD",
"1X c #CECDCE",
"2X c None",
/* pixels */
"2X2X2X2X2X2X2X2X2X2X2X2X2X2X2X2X2X2X2X2X2X2X2X2X2X2X2X2X2X2X2X2X",
"2X2X2X2X2X2X2X2X2X2X2X2X2X2X2X2X2X2X2X2X2X2X2X2X2X2X2X2X2X2X2X2X",
"2X2X2X2X2X2X2X2X2X2X2X2X2X2X2X2X2X! ! 2X2X2X2X2X2X2X2X2X2X2X2X2X",
"2X2X2X2X2X2X2X2X2X2X2X2X2X2X2X2X! d ) 2X2X2X2X2X2X2X2X2X2X2X2X2X",
"2X2X2X2X2X2X2X2X2X2X2X2X2X2X2X^ _ V ' ^ 2X2X2X2X2X2X2X2X2X2X2X2X",
"2X2X2X2X2X2X2X2X2X> O 2X2X2X2XQ N ,.M W 2X2X2X2X2X2X2X2X2X2X2X2X",
"2X2X2X2X2X2X2X2X2X6 | * o 2XJ ` >.<.B W 2X2X2X2X2X2X2X2X2X2X2X2X",
"2X2X2X2X2X2X2X2X2X8.{.1.; 2 ;.+.A Z C s e 2X2X  - 2X2X2X2X2X2X2X",
"2X2X2X2X2X2X2X2X2X2.%X&Xb.q.Q.oX`.L.B.p.3 % = : $.2X2X2X2X2X2X2X",
"2X2X2X2X2X2X2X2X2X2Xr.*X@Xt.].*Xh.F.1X(.9.*.k._.j.2X2X2X2X2X2X2X",
"2X2X2X2X2X2X2X2X2X2X2Xc.'.r.%XV.h =.>XP.f.,X1X}.2.2X2X2X2X2X2X2X",
"2X2X2X2X2X2X2X2X2X2X2X1 z.g.XXO.S ] ~.C.x.<XD.7 2X2X2X2X2X2X2X2X",
"2X2X2X2X2X2X2X2X2X2X2X2X< g.W.n U [ ^.c.n.e., 2X2X2X2X2X2X2X2X2X",
"2X2X2X2X2X2X2X2X2X2X2X2X2Xm.J.c K X.$Xw.4 2X2X2X2X2X2X2X2X2X2X2X",
"2X2X2X2X2X2X2X2X2X2X2X2X2XY.M.l G &.=X6.2X2X2X2X2X2X2X2X2X2X2X2X",
"2X2X2X2X2X2X2X2X2X2X2X2X2X(.i.p u u.#X5.2X2X2X2X2X2X2X2X2X2X2X2X",
"2X2X2X2X2X2X2X2X2X2X2X2X3. X:.F a a.).2X2X2X2X2X2X2X2X2X2X2X2X2X",
"2X2X2X2X2X2X2X2X2X2X2X2X9.$X%.H z N.Y.2X2X2X2X2X2X2X2X2X2X2X2X2X",
"2X2X2X2X2X2X2X2X2X2X2X2Xr..X..L b I.G.2X2X2X2X2X2X2X2X2X2X2X2X2X",
"2X2X2X2X2X2X2X2X2X2X2X2Xx.W.m P { /.v.2X2X2X2X2X2X2X2X2X2X2X2X2X",
"2X2X2X2X2X2X2X2X2X2X2X2XZ.K.v L o.OXy.2X2X2X2X2X2X2X2X2X2X2X2X2X",
"2X2X2X2X2X2X2X2X2X2X2X2XU.S.x D -.-X0.2X2X2X2X2X2X2X2X2X2X2X2X2X",
"2X2X2X2X2X2X2X2X2X2X2X2XE.[. .k A.+X7.2X2X2X2X2X2X2X2X2X2X2X2X2X",
"2X2X2X2X2X2X2X2X2X2X2X4.+X<Xd.s.;X!.2X2X2X2X2X2X2X2X2X2X2X2X2X2X",
"2X2X2X2X2X2X2X2X2X2X2X5 l.H.R.|.:XT.2X2X2X2X2X2X2X2X2X2X2X2X2X2X",
"2X2X2X2X2X2X2X2X2X2X2X& g f j } @.#.2X2X2X2X2X2X2X2X2X2X2X2X2X2X",
"2X2X2X2X2X2X2X2X2X2X2X0 ~ Y I G y 8 2X2X2X2X2X2X2X2X2X2X2X2X2X2X",
"2X2X2X2X2X2X2X2X2X2X2X$ E W W ^ R # 2X2X2X2X2X2X2X2X2X2X2X2X2X2X",
"2X2X2X2X2X2X2X2X2X2X2X2Xi ^ W / w 2X2X2X2X2X2X2X2X2X2X2X2X2X2X2X",
"2X2X2X2X2X2X2X2X2X2X2X2Xq ( / T @ 2X2X2X2X2X2X2X2X2X2X2X2X2X2X2X",
"2X2X2X2X2X2X2X2X2X2X2X2X+ r t 9 2X2X2X2X2X2X2X2X2X2X2X2X2X2X2X2X",
"2X2X2X2X2X2X2X2X2X2X2X2X2X. X 2X2X2X2X2X2X2X2X2X2X2X2X2X2X2X2X2X"
};
