/* XPM */
static char *_32[] = {
/* columns rows colors chars-per-pixel */
"32 32 203 2 ",
"   c #073B08",
".  c #015307",
"X  c #03540A",
"o  c #0A5D0F",
"O  c #03700B",
"+  c #0A770F",
"@  c #15751B",
"#  c #334432",
"$  c #3F543E",
"%  c #217225",
"&  c #257E2A",
"*  c #357E3B",
"=  c #4D4D4D",
"-  c #4E584F",
";  c #545353",
":  c #5C5C5C",
">  c #536853",
",  c #527754",
"<  c #646363",
"1  c #646464",
"2  c #6C6B6B",
"3  c #6A7669",
"4  c #787777",
"5  c #7E7E7E",
"6  c #7F7F7F",
"7  c #098210",
"8  c #059A13",
"9  c #079D13",
"0  c #03A412",
"q  c #06A014",
"w  c #07A514",
"e  c #04A715",
"r  c #04B316",
"t  c #03BE16",
"y  c #02BF17",
"u  c #0AB51B",
"i  c #0EB21F",
"p  c #07B81A",
"a  c #04BC18",
"s  c #3ABE12",
"d  c #39BD15",
"f  c #188A25",
"g  c #199721",
"h  c #208525",
"j  c #248B30",
"k  c #32873C",
"l  c #369C3E",
"z  c #12AE21",
"x  c #18AC26",
"c  c #1DA829",
"v  c #0DB622",
"b  c #23A62E",
"n  c #3BAA28",
"m  c #2AA333",
"M  c #44BF14",
"N  c #76B811",
"B  c #77B911",
"V  c #74A22F",
"C  c #76A33C",
"Z  c #00C112",
"A  c #00C713",
"S  c #00C115",
"D  c #00C216",
"F  c #00C415",
"G  c #00C515",
"H  c #00C715",
"J  c #00C814",
"K  c #00CA14",
"L  c #00CB14",
"P  c #00C916",
"I  c #00CC17",
"U  c #01C218",
"Y  c #02C318",
"T  c #0FC718",
"R  c #01C819",
"E  c #00CB19",
"W  c #01CB19",
"Q  c #02CB19",
"!  c #04C919",
"~  c #06C919",
"^  c #00CC19",
"/  c #00CD19",
"(  c #0CC818",
")  c #18C517",
"_  c #16C618",
"`  c #2BC215",
"'  c #39A040",
"]  c #3AA041",
"[  c #43854B",
"{  c #468C4B",
"}  c #419847",
"|  c #4A9E4F",
" . c #55875B",
".. c #4E9D52",
"X. c #529455",
"o. c #529C56",
"O. c #5C9E5F",
"+. c #54A75E",
"@. c #60A24D",
"#. c #658669",
"$. c #619C63",
"%. c #6E996F",
"&. c #7D807D",
"*. c #6E9F70",
"=. c #749E74",
"-. c #7A947B",
";. c #9BBB0D",
":. c #9FBA0C",
">. c #88B710",
",. c #807F80",
"<. c #828282",
"1. c #878686",
"2. c #878787",
"3. c #898989",
"4. c #8A8A8A",
"5. c #899588",
"6. c #909090",
"7. c #919290",
"8. c #939393",
"9. c #949993",
"0. c #959994",
"q. c #999898",
"w. c #999999",
"e. c #9A999A",
"r. c #9C9C9C",
"t. c #9F9F9F",
"y. c #80A380",
"u. c #86A285",
"i. c #8EA18E",
"p. c #91A891",
"a. c #97A895",
"s. c #9AA099",
"d. c #99A799",
"f. c #97A89A",
"g. c #99A999",
"h. c #A2A2A2",
"j. c #A4A4A4",
"k. c #A6A5A6",
"l. c #A6A6A6",
"z. c #A1AEA0",
"x. c #A6AFA4",
"c. c #A8A8A8",
"v. c #AAAAAA",
"b. c #ABABAB",
"n. c #ACACAC",
"m. c #ADADAD",
"M. c #AFAFAF",
"N. c #ABB0AB",
"B. c #AEB4AD",
"V. c #B2B2B2",
"C. c #B3B3B3",
"Z. c #B1B4B1",
"A. c #B3B5B1",
"S. c #B3B3B4",
"D. c #B4B4B4",
"F. c #B6B5B6",
"G. c #B0B9B2",
"H. c #B9B9B9",
"J. c #B9BAB8",
"K. c #BBB8BA",
"L. c #BBBBBB",
"P. c #B9BDBB",
"I. c #BDBCBC",
"U. c #BFBFBE",
"Y. c #BFBFBF",
"T. c #C0BDBF",
"R. c #C0BFC0",
"E. c #C2BFC2",
"W. c #C1C1C1",
"Q. c #C3C1C2",
"!. c #C1C3C4",
"~. c #C5C2C4",
"^. c #C5C3C4",
"/. c #C5C3C5",
"(. c #C5C4C5",
"). c #C6C5C7",
"_. c #C8C4C8",
"`. c #C9C6C8",
"'. c #C8C7C8",
"]. c #C9C6C9",
"[. c #C9C7C9",
"{. c #CAC6C9",
"}. c #CAC7C9",
"|. c #CAC7CA",
" X c #C8C8C8",
".X c #C9C8C9",
"XX c #C9C9C9",
"oX c #CAC8C9",
"OX c #CBC8CA",
"+X c #CBC8CB",
"@X c #CACACA",
"#X c #CCC9CB",
"$X c #CDC9CC",
"%X c #CDCACC",
"&X c #CCCBCC",
"*X c #CCCCCC",
"=X c #CDCCCD",
"-X c #CDCDCD",
";X c #CECCCE",
":X c #CECDCE",
">X c #CECECE",
",X c #CFCECF",
"<X c None",
/* pixels */
"<X<X<X<X<X<X<X<X<X<X<X<X<X<X<X<X<X<X<X<X<X<X<X<X<X<X<X<X<X<X<X<X",
"<X<X<X<X<X<X<X<X<X<X<X<X<X<X<X<X<X^ <X<X<X<X<X<X<X<X<X<X<X<X<X<X",
"<X<X<X<X<X<X<X<X<X<X<X<X<X<X<X<XW ~ Q <X<X<X<X<X<X<X<X<X<X<X<X<X",
"<X<X<X<X<X<X<X<X<X<X<X<X<X<X<X^ _ d ! <X<X<X<X<X<X<X<X<X<X<X<X<X",
"<X<X<X<X<X<X<X<X<X<X<X<X<X<X<XE M N ( <X<X<X<X<X<X<X<X<X<X<X<X<X",
"<X<X<X<X<X<X<X<X<X#   <X<X<X^ T B >.) ^ <X<X<X<X<X<X<X<X<X<X<X<X",
"<X<X<X<X<X<X<X<X<X3 & O <X<XP s :.;.` / <X<X<X<X<X<X<X<X<X<X<X<X",
"<X<X<X<X<X<X<X<X<Xk.N.{ % , +.@.C V n v <X<X. o $ <X<X<X<X<X<X<X",
"<X<X<X<X<X<X<X<X<Xj.,XR.9.e.{.).!.P.G.f.> @ * -.&.<X<X<X<X<X<X<X",
"<X<X<X<X<X<X<X<X<X< H.*XW.t.@X'.0.U.-XF.7.s.T.;X1.<X<X<X<X<X<X<X",
"<X<X<X<X<X<X<X<X<X<X2 Y.L.h.=Xd.h i.:Xn.m.>X*XM.: <X<X<X<X<X<X<X",
"<X<X<X<X<X<X<X<X<X<X<X4 n.c.^.} Z X.OXl.C. Xq.= <X<X<X<X<X<X<X<X",
"<X<X<X<X<X<X<X<X<X<X<X<X1 n.J.b K ..}.h.b.5 <X<X<X<X<X<X<X<X<X<X",
"<X<X<X<X<X<X<X<X<X<X<X<X<XS.B.x H $.$X4.; <X<X<X<X<X<X<X<X<X<X<X",
"<X<X<X<X<X<X<X<X<X<X<X<X<XY.z.i D =.#X6 <X<X<X<X<X<X<X<X<X<X<X<X",
"<X<X<X<X<X<X<X<X<X<X<X<X<X/.p.p a u.[.<.<X<X<X<X<X<X<X<X<X<X<X<X",
"<X<X<X<X<X<X<X<X<X<X<X<X,.`.y.y u a.(.<X<X<X<X<X<X<X<X<X<X<X<X<X",
"<X<X<X<X<X<X<X<X<X<X<X<X3.+X*.F z x.R.<X<X<X<X<X<X<X<X<X<X<X<X<X",
"<X<X<X<X<X<X<X<X<X<X<X<X8.+XO.J c A.H.<X<X<X<X<X<X<X<X<X<X<X<X<X",
"<X<X<X<X<X<X<X<X<X<X<X<Xr.].| K m I.V.<X<X<X<X<X<X<X<X<X<X<X<X<X",
"<X<X<X<X<X<X<X<X<X<X<X<Xl.~.' L ] ~.v.<X<X<X<X<X<X<X<X<X<X<X<X<X",
"<X<X<X<X<X<X<X<X<X<X<X<Xm.Q.l A o.|.h.<X<X<X<X<X<X<X<X<X<X<X<X<X",
"<X<X<X<X<X<X<X<X<X<X<X<XD.%X%.g g.&Xw.<X<X<X<X<X<X<X<X<X<X<X<X<X",
"<X<X<X<X<X<X<X<X<X<X<X<XL.-XZ.5..XXX6.<X<X<X<X<X<X<X<X<X<X<X<X<X",
"<X<X<X<X<X<X<X<X<X<X<X<Xl.K.E._.+XoX2.<X<X<X<X<X<X<X<X<X<X<X<X<X",
"<X<X<X<X<X<X<X<X<X<X<X<Xf j k [  .#.- <X<X<X<X<X<X<X<X<X<X<X<X<X",
"<X<X<X<X<X<X<X<X<X<X<X<Xt I P G S 0 <X<X<X<X<X<X<X<X<X<X<X<X<X<X",
"<X<X<X<X<X<X<X<X<X<X<X<Xr / E E / 9 <X<X<X<X<X<X<X<X<X<X<X<X<X<X",
"<X<X<X<X<X<X<X<X<X<X<X<Xw / E E Y + <X<X<X<X<X<X<X<X<X<X<X<X<X<X",
"<X<X<X<X<X<X<X<X<X<X<X<X7 R ^ / q <X<X<X<X<X<X<X<X<X<X<X<X<X<X<X",
"<X<X<X<X<X<X<X<X<X<X<X<X<X8 U e <X<X<X<X<X<X<X<X<X<X<X<X<X<X<X<X",
"<X<X<X<X<X<X<X<X<X<X<X<X<X<XX <X<X<X<X<X<X<X<X<X<X<X<X<X<X<X<X<X"
};
