/* XPM */
static char *_57[] = {
/* columns rows colors chars-per-pixel */
"32 32 184 2 ",
"   c #262A25",
".  c #014105",
"X  c #074108",
"o  c #04500A",
"O  c #0B560E",
"+  c #1C5C1E",
"@  c #006708",
"#  c #046E0B",
"$  c #097D0F",
"%  c #067F10",
"&  c #305F32",
"*  c #23772B",
"=  c #227828",
"-  c #3F693F",
";  c #5A5A5A",
":  c #605C5F",
">  c #4B734B",
",  c #487848",
"<  c #626161",
"1  c #6F6F6F",
"2  c #6C746C",
"3  c #6D796E",
"4  c #707070",
"5  c #787878",
"6  c #797979",
"7  c #7C7C7C",
"8  c #0D8517",
"9  c #088910",
"0  c #089012",
"q  c #089412",
"w  c #0E961E",
"e  c #0C991C",
"r  c #0B9D1C",
"t  c #02A715",
"y  c #04AB13",
"u  c #04AE15",
"i  c #0DA11A",
"p  c #10A91E",
"a  c #10AF1F",
"s  c #04B216",
"d  c #03B917",
"f  c #04B817",
"g  c #02BF17",
"h  c #0DB31D",
"j  c #0FB01E",
"k  c #0EB11E",
"l  c #0BB41C",
"z  c #32BC13",
"x  c #129321",
"c  c #2F9F37",
"v  c #1AA726",
"b  c #11A920",
"n  c #14AB21",
"m  c #17A923",
"M  c #12AD20",
"N  c #13AD21",
"B  c #15AC22",
"V  c #1EA628",
"C  c #20A12A",
"Z  c #35A83B",
"A  c #52B911",
"S  c #62BA12",
"D  c #6DBA12",
"F  c #75BA11",
"G  c #719E3A",
"H  c #6BA03E",
"J  c #00C116",
"K  c #00CB17",
"L  c #00CD15",
"P  c #00CC16",
"I  c #00CD16",
"U  c #00CE16",
"Y  c #01C819",
"T  c #00CB18",
"R  c #01CA19",
"E  c #00CB19",
"W  c #01CB19",
"Q  c #04C919",
"!  c #00CC18",
"~  c #00CC19",
"^  c #08C918",
"/  c #0AC818",
"(  c #21C117",
")  c #28C216",
"_  c #31C116",
"`  c #39A745",
"'  c #4F8453",
"]  c #628E63",
"[  c #6B846D",
"{  c #6B936D",
"}  c #6E9C6F",
"|  c #768C78",
" . c #7B8F7D",
".. c #7E8D7D",
"X. c #779576",
"o. c #729D73",
"O. c #779D77",
"+. c #769E77",
"@. c #7B9F7B",
"#. c #7C9D7B",
"$. c #7FA07F",
"%. c #92B70F",
"&. c #92B90F",
"*. c #9FB90C",
"=. c #817F80",
"-. c #828282",
";. c #848383",
":. c #8A8A8A",
">. c #8D8D8D",
",. c #8F8F8F",
"<. c #809181",
"1. c #829B82",
"2. c #819E80",
"3. c #8C9A8C",
"4. c #908E90",
"5. c #949494",
"6. c #979596",
"7. c #969696",
"8. c #959D96",
"9. c #989898",
"0. c #9F9F9F",
"q. c #84A184",
"w. c #86A085",
"e. c #88A388",
"r. c #8CA28A",
"t. c #91A48F",
"y. c #98A697",
"u. c #97A996",
"i. c #98A598",
"p. c #99A599",
"a. c #9EA59D",
"s. c #98A99B",
"d. c #A1A1A1",
"f. c #A7A7A7",
"g. c #A2ABA1",
"h. c #AAAAAA",
"j. c #ABABAB",
"k. c #ADADAD",
"l. c #ABB5AB",
"z. c #AEB2AD",
"x. c #AEB7AE",
"c. c #AFB8B1",
"v. c #B1B1B1",
"b. c #B2B2B1",
"n. c #B2B2B2",
"m. c #B3B3B3",
"M. c #B4B4B4",
"N. c #B7B5B7",
"B. c #B6B6B6",
"V. c #B7B6B7",
"C. c #B7B7B7",
"Z. c #B8B8B8",
"A. c #B9B9B9",
"S. c #BABAB9",
"D. c #BABABA",
"F. c #BBBBBB",
"G. c #BCBDBD",
"H. c #C0C0C0",
"J. c #C7C6C7",
"K. c #C7C7C7",
"L. c #C8C5C7",
"P. c #C9C6C8",
"I. c #C8C7C8",
"U. c #C9C7C9",
"Y. c #CAC7C9",
"T. c #CAC7CA",
"R. c #C8C8C8",
"E. c #CAC8C9",
"W. c #CAC8CA",
"Q. c #CBC8CA",
"!. c #CBC9CA",
"~. c #CBC9CB",
"^. c #CBCBCB",
"/. c #CCC9CB",
"(. c #CCCACB",
"). c #CCCACC",
"_. c #CCCBCC",
"`. c #CDCBCD",
"'. c #CCCCCC",
"]. c #CDCCCD",
"[. c #CDCDCD",
"{. c #CECDCE",
"}. c #CFCECF",
"|. c None",
/* pixels */
"|.|.|.|.|.|.|.|.|.|.|.|.|.|.|.|.|.|.|.|.|.|.|.|.|.|.|.|.|.|.|.|.",
"|.|.|.|.|.|.|.|.|.|.|.|.|.|.|.|.|.|.|.|.|.|.|.|.|.|.|.|.|.|.|.|.",
"|.|.|.|.|.|.|.|.|.|.|.|.|.|.|.|.|.|.|.|.|.|.|.|.|.|.|.|.|.|.|.|.",
"|.|.|.|.|.|.|.|.|.|.|.|.|.|.  |.|.|.|.|.|.|.|.|.|.|.|.|.|.|.|.|.",
"|.|.|.|.|.|.|.|.|.|.|.|.|.|.+ 2 |.|.|.|.|.|.|.|.|.|.|.|.|.|.|.|.",
"|.|.|.|.|.|.W W |.|.|.|.|.. = b.,.|.|.|.|.|.|.|.|.|.|.|.|.|.|.|.",
"|.|.|.|.|.|./ ( / ~ ~ |.|.@ ' T.C.|.|.|.|.|.|.|.|.|.|.|.|.|.|.|.",
"|.|.|.|.|.|.^ S D ) Q K * - 3.{.b.|.|.|.|.|.|.|.|.|.|.|.|.|.|.|.",
"|.|.|.|.|.|.E _ %.&.A Z s.4.V.[.j.|.|.|.|.|.|.|.|.|.|.|.|.|.|.|.",
"|.|.|.|.|.|.~ / F *.G l.].F.7.H.f.|.|.|.|.|.|.|.|.|.|.|.|.|.|.|.",
"|.|.|.|.|.|.|.~ z H x.U.~.{.A.9.5.|.|.|.|.|.|.|.|.|.|.|.|.|.|.|.",
"|.|.|.|.|.|.|.J ` c.`...] i.I.D.1 |.|.|.|.|.|.|.|.|.|.|.|.|.|.|.",
"|.|.|.|.|.|.|.& 8._.`.1.y p O.Y.M.|.|.|.|.|.|.|.|.|.|.|.|.|.|.|.",
"|.|.|.|.X # 8 , 6.h.'.z.C U j #.Q.C.|.|.|.|.|.|.|.|.|.|.|.|.|.|.",
"|.|.|.|.> { p.A.K.d.h.!.e.B I M 2.~.m.|.|.|.|.|.|.|.|.|.|.|.|.|.",
"|.|.|.|.: N.}.'.^.R.0.j.~.q.N I n w./.n.|.|.|.|.|.|.|.|.|.|.|.|.",
"|.|.|.|.|.< >.:.;.-.5 ; k.~.$.a I m r.).v.|.|.|.|.|.|.|.|.|.|.|.",
"|.|.|.|.|.|.|.|.|.|.|.|.|.n.W.@.k P v t.).k.|.|.|.|.|.|.|.|.|.|.",
"|.|.|.|.|.|.|.|.|.|.|.|.|.|.B.Y.+.h P V u.(.k.|.|.|.|.|.|.|.|.|.",
"|.|.|.|.|.|.|.|.|.|.|.|.|.|.|.C.P.o.l L c S.^.h.|.|.|.|.|.|.|.|.",
"|.|.|.|.|.|.|.|.|.|.|.|.|.|.|.4 Z.L.} b i y.].E.3 |.|.|.|.|.|.|.",
"|.|.|.|.|.|.|.|.|.|.|.|.|.|.|.|.5 F.J.g.X.a./.<.x 9 |.|.|.|.|.|.",
"|.|.|.|.|.|.|.|.|.|.|.|.|.|.|.|.|.7 D.[.`.U. .w ! d |.|.|.|.|.|.",
"|.|.|.|.|.|.|.|.|.|.|.|.|.|.|.|.|.|.6 G.U.| e T E E q |.|.|.|.|.",
"|.|.|.|.|.|.|.|.|.|.|.|.|.|.|.|.|.|.|.=.[ r T E E ~ s |.|.|.|.|.",
"|.|.|.|.|.|.|.|.|.|.|.|.|.|.|.|.|.|.|.|.O u R ~ E ~ g |.|.|.|.|.",
"|.|.|.|.|.|.|.|.|.|.|.|.|.|.|.|.|.|.|.|.|.|.0 f Y ~ t |.|.|.|.|.",
"|.|.|.|.|.|.|.|.|.|.|.|.|.|.|.|.|.|.|.|.|.|.|.|.$ % o |.|.|.|.|.",
"|.|.|.|.|.|.|.|.|.|.|.|.|.|.|.|.|.|.|.|.|.|.|.|.|.|.|.|.|.|.|.|.",
"|.|.|.|.|.|.|.|.|.|.|.|.|.|.|.|.|.|.|.|.|.|.|.|.|.|.|.|.|.|.|.|.",
"|.|.|.|.|.|.|.|.|.|.|.|.|.|.|.|.|.|.|.|.|.|.|.|.|.|.|.|.|.|.|.|.",
"|.|.|.|.|.|.|.|.|.|.|.|.|.|.|.|.|.|.|.|.|.|.|.|.|.|.|.|.|.|.|.|."
};
