/* XPM */
static char *_72[] = {
/* columns rows colors chars-per-pixel */
"32 32 206 2 ",
"   c #003E03",
".  c #043F06",
"X  c #163616",
"o  c #0C520E",
"O  c #134813",
"+  c #076D0D",
"@  c #097B0F",
"#  c #1B6C1F",
"$  c #0A7411",
"%  c #077F10",
"&  c #157A1D",
"*  c #2E402E",
"=  c #256F2B",
"-  c #2E7A33",
";  c #307C32",
":  c #494949",
">  c #5A5959",
",  c #557356",
"<  c #5C7A5D",
"1  c #656565",
"2  c #686767",
"3  c #686868",
"4  c #6D6D6D",
"5  c #617760",
"6  c #6F756E",
"7  c #717171",
"8  c #727272",
"9  c #797979",
"0  c #038110",
"q  c #0A8413",
"w  c #039813",
"e  c #07A013",
"r  c #06A314",
"t  c #04AB13",
"y  c #01AB14",
"u  c #02AA17",
"i  c #05AF15",
"p  c #05AF16",
"a  c #02B414",
"s  c #04B917",
"d  c #03BD17",
"f  c #02BF17",
"g  c #03B018",
"h  c #0EB01E",
"j  c #0BB41C",
"k  c #06B919",
"l  c #05BB18",
"z  c #04BD18",
"x  c #159723",
"c  c #169125",
"v  c #259E2F",
"b  c #328F36",
"n  c #16AC24",
"m  c #1AA926",
"M  c #1DA929",
"N  c #27A431",
"B  c #2DA135",
"V  c #6AB40F",
"C  c #64B912",
"Z  c #60BC11",
"A  c #76BA11",
"S  c #78B911",
"D  c #79B911",
"F  c #6AA332",
"G  c #00C312",
"H  c #00C115",
"J  c #01C216",
"K  c #00C715",
"L  c #01C416",
"P  c #00C716",
"I  c #04C715",
"U  c #08C715",
"Y  c #00C915",
"T  c #00CB14",
"R  c #00CA15",
"E  c #00CB15",
"W  c #01C919",
"Q  c #00CB19",
"!  c #01CB19",
"~  c #05C919",
"^  c #05CA19",
"/  c #00CD18",
"(  c #00CC19",
")  c #00CD19",
"_  c #00CE19",
"`  c #09C818",
"'  c #0AC918",
"]  c #1EC217",
"[  c #15C518",
"{  c #00D018",
"}  c #33C115",
"|  c #3B8443",
" . c #3A9F41",
".. c #3F9C45",
"X. c #3DA947",
"o. c #45994A",
"O. c #528658",
"+. c #4C9B50",
"@. c #509D54",
"#. c #519D55",
"$. c #599B5B",
"%. c #5BA65D",
"&. c #608E62",
"*. c #69896A",
"=. c #6D956E",
"-. c #699E6B",
";. c #6F9D6F",
":. c #6D8D71",
">. c #79807A",
",. c #759A7A",
"<. c #7AA471",
"1. c #87AC17",
"2. c #A7BB0E",
"3. c #858585",
"4. c #868586",
"5. c #8A8689",
"6. c #839485",
"7. c #819C81",
"8. c #909090",
"9. c #919191",
"0. c #929292",
"q. c #949294",
"w. c #949494",
"e. c #959595",
"r. c #979797",
"t. c #939C93",
"y. c #999999",
"u. c #9A999A",
"i. c #9B9B9B",
"p. c #9C9C9C",
"a. c #9D9D9D",
"s. c #9F9F9F",
"d. c #80A280",
"f. c #81A381",
"g. c #85A285",
"h. c #8AA388",
"j. c #95A695",
"k. c #97A996",
"l. c #9CAA9B",
"z. c #9FB09C",
"x. c #A2A2A2",
"c. c #A3A3A3",
"v. c #A7A7A7",
"b. c #A3AAA2",
"n. c #A8ABA8",
"m. c #AAAAAA",
"M. c #ABABAB",
"N. c #ADACAC",
"B. c #ADAFAC",
"V. c #ADAEAD",
"C. c #A9B0A8",
"Z. c #AAB2A9",
"A. c #ADB2AB",
"S. c #B0B5AF",
"D. c #B1B5AF",
"F. c #B0B0B0",
"G. c #B1B3B0",
"H. c #B4B4B4",
"J. c #B5B4B5",
"K. c #B5B5B5",
"L. c #B6B6B6",
"P. c #BABBB9",
"I. c #BBB9BB",
"U. c #BABABA",
"Y. c #BDBCBB",
"T. c #BABFBC",
"R. c #BDBDBD",
"E. c #BEBDBE",
"W. c #C0BEBF",
"Q. c #C1C1C1",
"!. c #C3C1C3",
"~. c #C2C2C2",
"^. c #C3C2C3",
"/. c #C4C2C3",
"(. c #C4C3C4",
"). c #C5C3C5",
"_. c #C6C2C5",
"`. c #C6C3C5",
"'. c #C5C4C5",
"]. c #C5C5C5",
"[. c #C6C4C6",
"{. c #C6C6C6",
"}. c #C8C4C7",
"|. c #C8C5C7",
" X c #C9C6C9",
".X c #C9C7C9",
"XX c #CAC6C9",
"oX c #CAC7C9",
"OX c #CAC7CA",
"+X c #C9C9C9",
"@X c #CAC8CA",
"#X c #CAC9CA",
"$X c #CBC8CB",
"%X c #CBC9CB",
"&X c #CBCACB",
"*X c #CBCBCB",
"=X c #CCC9CC",
"-X c #CCCACC",
";X c #CCCBCC",
":X c #CCCACD",
">X c #CCCCCC",
",X c #CDCDCD",
"<X c #CECCCE",
"1X c #CECDCE",
"2X c #CECECE",
"3X c None",
/* pixels */
"3X3X3X3X3X3X3X3X3X3X3X3X3X3X3X3X3X3X3X3X3X3X3X3X3X3X3X3X3X3X3X3X",
"3X3X3X3X3X3X3X3X3X3X3X3X3X3X3X3X3X3X3X3X3X3X3X3X3X3X3X3X3X3X3X3X",
"3X3X3X3X3X3X3X3X3X3X3X3X3X3X3X3X3X3X3X3X3X3X3X3X3X3X3X3X3X3X3X3X",
"3X3X3X3X3X3X3X3X3X3X3X3X3X3X3X3X3X3X3X3X3X3X3X3X3X3X3X3X3X3X3X3X",
"3X3X3X3X3X3X3X3X3X3X3X3X3X3X3X3X3X3X3X3X3X3X3X3X3X3X3X3X3X3X3X3X",
"3X3X3X3X3X3X3X3X3X3X3X3X3X3X3X3X3X3X3X3X3X3X3X3X3X3X3X3X3X3X3X3X",
"3X3X3X3X3X3X3X3XX , q.7 3X3X3X3X3X3X3X3X3X3X3X3X3X3X3X3X3X3X3X3X",
"3X3X3X3X3X3X3X3X  - W.Q.2 3X3X3X3X3X3X3X3X3X3X3X3X3X3X3X3X3X3X3X",
"3X3X3X3X3X3X3X3X3X& n.2Xp.3X3X3X3X3X3X3X3X3X3X3X3X3X3X3X3X3X3X3X",
"3X3X3X3X3X3X3X3X3X# t.2XQ.1 3X3X3X3X3X3X3X3X3X3X3X3X3X3X3X3X3X3X",
"3X3X3X3X3X3X( { x 6 r.L.{.i.3X3X3X3X3X3X3X3X3X3X3X3X3X3X3X3X3X3X",
"3X3X! ~ ` ' ` U X.E.H.x.y.e.: 3X3X3X3X3X3X3X3X3X3X3X3X3X3X3X3X3X",
"3X3XQ ] C S A V <.:X,X1X@XR.c.9.3X3X3X3X3X3X3X3X3X3X3X3X3X3X3X3X",
"3X3X3X^ } D 2.1.z.(.b.7.g.A.`.=X'.J.s.3.3X3X3X3X3X3X3X3X3X3X3X3X",
"3X3X3X3XQ [ Z F T.N.; a l m ..;.l.Y.$X@XR.M.w.3X3X3X3X3X3X3X3X3X",
"3X3X3X3X3XQ I %.OX#Xj.v d Y E J h B $.h.D.|.&X~.K.>.o 3X3X3X3X3X",
"3X3X3X3X3X3Xg ,.!.+X;XS.f.#.N j L T K k M +.C.;X<X:.y e 3X3X3X3X",
"3X3X3X3X3X3XO 5 u.a.v.U..XoXP.k.-. .n z R G b B._.| P ( s @ 3X3X",
"3X3X3X3X3X. q *.[.~.H.8.4 p.H.).%X/.Z.d.@.o.=.G.V.c / Q ) f + 3X",
"3X3X3X3X3X$ &.^.>X].i.> 3X3X3X3X0.m.E.@XXX}.-X1X6.u ) Q Q _ w 3X",
"3X3X3X3X* < I.*XF.8 3X3X3X3X3X3X3X3X3X4.s.H.~. XO.H ) ) ) W 0 3X",
"3X3X3X3X3X3X3 9 3X3X3X3X3X3X3X3X3X3X3X3X3X3X9 5.= t p i r % 3X3X",
"3X3X3X3X3X3X3X3X3X3X3X3X3X3X3X3X3X3X3X3X3X3X3X3X3X3X3X3X3X3X3X3X",
"3X3X3X3X3X3X3X3X3X3X3X3X3X3X3X3X3X3X3X3X3X3X3X3X3X3X3X3X3X3X3X3X",
"3X3X3X3X3X3X3X3X3X3X3X3X3X3X3X3X3X3X3X3X3X3X3X3X3X3X3X3X3X3X3X3X",
"3X3X3X3X3X3X3X3X3X3X3X3X3X3X3X3X3X3X3X3X3X3X3X3X3X3X3X3X3X3X3X3X",
"3X3X3X3X3X3X3X3X3X3X3X3X3X3X3X3X3X3X3X3X3X3X3X3X3X3X3X3X3X3X3X3X",
"3X3X3X3X3X3X3X3X3X3X3X3X3X3X3X3X3X3X3X3X3X3X3X3X3X3X3X3X3X3X3X3X",
"3X3X3X3X3X3X3X3X3X3X3X3X3X3X3X3X3X3X3X3X3X3X3X3X3X3X3X3X3X3X3X3X",
"3X3X3X3X3X3X3X3X3X3X3X3X3X3X3X3X3X3X3X3X3X3X3X3X3X3X3X3X3X3X3X3X",
"3X3X3X3X3X3X3X3X3X3X3X3X3X3X3X3X3X3X3X3X3X3X3X3X3X3X3X3X3X3X3X3X",
"3X3X3X3X3X3X3X3X3X3X3X3X3X3X3X3X3X3X3X3X3X3X3X3X3X3X3X3X3X3X3X3X"
};
