/* XPM */
static char *_7[] = {
/* columns rows colors chars-per-pixel */
"32 32 204 2 ",
"   c #003E03",
".  c #043F06",
"X  c #163616",
"o  c #0C520E",
"O  c #124613",
"+  c #076D0D",
"@  c #097B0F",
"#  c #087F0F",
"$  c #1B6C1F",
"%  c #0A7411",
"&  c #147A1D",
"*  c #2E402E",
"=  c #256F2B",
"-  c #2E7A33",
";  c #307C32",
":  c #494949",
">  c #5A5A5A",
",  c #557356",
"<  c #5C7A5D",
"1  c #646464",
"2  c #686767",
"3  c #686868",
"4  c #6D6D6D",
"5  c #617760",
"6  c #6F756E",
"7  c #717171",
"8  c #727272",
"9  c #787878",
"0  c #797979",
"q  c #797F7A",
"w  c #038210",
"e  c #098513",
"r  c #039813",
"t  c #07A014",
"y  c #06A414",
"u  c #05AB13",
"i  c #03AB14",
"p  c #03AA17",
"a  c #05AF15",
"s  c #02B414",
"d  c #04B917",
"f  c #03BD17",
"g  c #02BF17",
"h  c #04B018",
"j  c #0EB01E",
"k  c #0BB41C",
"l  c #06B919",
"z  c #05BB18",
"x  c #03BD18",
"c  c #149723",
"v  c #169225",
"b  c #259E2F",
"n  c #328F36",
"m  c #16AC24",
"M  c #1AA926",
"N  c #1EA929",
"B  c #27A431",
"V  c #2DA035",
"C  c #6AB40F",
"Z  c #64B912",
"A  c #60BC11",
"S  c #76BA11",
"D  c #78B811",
"F  c #78B911",
"G  c #6AA332",
"H  c #00C312",
"J  c #00C115",
"K  c #00C216",
"L  c #00C415",
"P  c #00C715",
"I  c #00C716",
"U  c #06C715",
"Y  c #0AC715",
"T  c #00C915",
"R  c #00CB14",
"E  c #00CA15",
"W  c #00CB15",
"Q  c #01C919",
"!  c #00CB19",
"~  c #01CB19",
"^  c #05C919",
"/  c #06CA19",
"(  c #00CD18",
")  c #00CC19",
"_  c #00CD19",
"`  c #00CE18",
"'  c #00CE19",
"]  c #09C818",
"[  c #0AC818",
"{  c #1EC217",
"}  c #15C518",
"|  c #33C115",
" . c #3B8544",
".. c #3A9F41",
"X. c #3F9D45",
"o. c #3CA946",
"O. c #45994A",
"+. c #518658",
"@. c #4C9B50",
"#. c #509D54",
"$. c #519D55",
"%. c #599B5B",
"&. c #5BA65D",
"*. c #608E63",
"=. c #69896A",
"-. c #6D956E",
";. c #699E6B",
":. c #6F9D6F",
">. c #6D8C70",
",. c #759A7A",
"<. c #7AA471",
"1. c #87AC17",
"2. c #A7BB0E",
"3. c #858585",
"4. c #868586",
"5. c #8A8689",
"6. c #839485",
"7. c #819C81",
"8. c #909090",
"9. c #929292",
"0. c #949294",
"q. c #949494",
"w. c #959595",
"e. c #979797",
"r. c #939C92",
"t. c #999999",
"y. c #9A999A",
"u. c #9B9B9B",
"i. c #9C9C9C",
"p. c #9D9D9D",
"a. c #9F9F9F",
"s. c #80A280",
"d. c #81A381",
"f. c #85A285",
"g. c #8AA388",
"h. c #95A695",
"j. c #97AA96",
"k. c #9CAA9B",
"l. c #9FB09C",
"z. c #A2A2A2",
"x. c #A3A3A3",
"c. c #A7A7A7",
"v. c #A3ABA2",
"b. c #A8ABA8",
"n. c #AAAAAA",
"m. c #ABABAB",
"M. c #ADACAC",
"N. c #ADADAD",
"B. c #ADAFAC",
"V. c #A9B0A8",
"C. c #AAB2A9",
"Z. c #ADB2AB",
"A. c #B0B5AF",
"S. c #B1B5AF",
"D. c #B0B0B0",
"F. c #B1B3B0",
"G. c #B4B4B4",
"H. c #B5B5B5",
"J. c #B6B6B6",
"K. c #B9BAB8",
"L. c #BBB9BB",
"P. c #BABABA",
"I. c #BDBCBB",
"U. c #BABFBC",
"Y. c #BDBDBD",
"T. c #BDBDBE",
"R. c #BEBDBE",
"E. c #C0BEC0",
"W. c #C1C1C1",
"Q. c #C3C1C3",
"!. c #C2C2C2",
"~. c #C3C2C3",
"^. c #C4C2C3",
"/. c #C4C3C4",
"(. c #C5C3C5",
"). c #C6C2C5",
"_. c #C6C3C5",
"`. c #C5C4C5",
"'. c #C5C5C5",
"]. c #C6C4C6",
"[. c #C6C6C6",
"{. c #C8C5C7",
"}. c #C9C6C9",
"|. c #C9C7C9",
" X c #CAC6C9",
".X c #CAC7C9",
"XX c #CAC7CA",
"oX c #C9C9C9",
"OX c #CAC8CA",
"+X c #CAC9CA",
"@X c #CBC8CB",
"#X c #CBC9CB",
"$X c #CBCACB",
"%X c #CBCBCB",
"&X c #CCC9CC",
"*X c #CCCACC",
"=X c #CCCBCC",
"-X c #CCCACD",
";X c #CCCCCC",
":X c #CDCDCD",
">X c #CECCCE",
",X c #CECDCE",
"<X c #CECECE",
"1X c None",
/* pixels */
"1X1X1X1X1X1X1X1X1X1X1X1X1X1X1X1X1X1X1X1X1X1X1X1X1X1X1X1X1X1X1X1X",
"1X1X1X1X1X1X1X1X1X1X1X1X1X1X1X1X1X1X+ r w 1X1X1X1X1X1X1X1X1X1X1X",
"1X1X1X1X1X1X1X1X1X1X1X1X1X1X1X1X1X@ g ' Q # 1X1X1X1X1X1X1X1X1X1X",
"1X1X1X1X1X1X1X1X1X1X1X1X1X1X1X1X1Xd ) ! _ y 1X1X1X1X1X1X1X1X1X1X",
"1X1X1X1X1X1X1X1X1X1X1X1X1X1X1X1Xt ) ! ! _ a 1X1X1X1X1X1X1X1X1X1X",
"1X1X1X1X1X1X1X1X1X1X1X1X1X1X1Xo i I ( _ _ a 1X1X1X1X1X1X1X1X1X1X",
"1X1X1X1X1X1X1X1X1X1X1X1X1X1X1Xq >. .v p J u 1X1X1X1X1X1X1X1X1X1X",
"1X1X1X1X1X1X1X1X1X1X1X1X1X1X1XH.>X).N.6.+.= 1X1X1X1X1X1X1X1X1X1X",
"1X1X1X1X1X1X1X1X1X1X1X1X1X1X1X!.=XB.F.,X}.5.1X1X1X1X1X1X1X1X1X1X",
"1X1X1X1X1X1X1X1X1X1X1X1X1X1Xq.$XV.n -.*X!.1X1X1X1X1X1X1X1X1X1X1X",
"1X1X1X1X1X1X1X1X1X1X1X1X1X1Xm.{.@.H O.{.G.1X1X1X1X1X1X1X1X1X1X1X",
"1X1X1X1X1X1X1X1X1X1X1X1X1X1XY.S.N E #. Xa.1X1X1X1X1X1X1X1X1X1X1X",
"1X1X1X1X1X1X1X1X1X1X1X1X1X3.OXg.l x s.OX4.1X1X1X1X1X1X1X1X1X1X1X",
"1X1X1X1X1X1X1X1X1X1X1X1X1Xa.@X%.P m C.R.1X1X1X1X1X1X1X1X1X1X1X1X",
"1X1X1X1X1X1X1X1X1X1X1X1X1XH.I.V R ..^.n.1X1X1X1X1X1X1X1X1X1X1X1X",
"1X1X1X1X1X1X1X1X1X1X1X1X9 `.k.j L ;.#X9.1X1X1X1X1X1X1X1X1X1X1X1X",
"1X1X1X1X1X1X1X1X1X1X1X1X9.&X:.K k j.(.1X1X1X1X1X1X1X1X1X1X1X1X1X",
"1X1X1X1X1X1X1X1X1X1X1X: x._.X.W B K.G.1X1X1X1X1X1X1X1X1X1X1X1X1X",
"1X1X1X1X1X1X1X1X1X1 u.w.Y.Z.M T $..Xi.1X1X1X1X1X1X1X1X1X1X1X1X1X",
"1X1X1X1X1X1X1X2 i.W.[.t.OXf.z f d.|.4 1X1X1X1X1X1X1X1X1X1X1X1X1X",
"1X1X1X1X1X1X7 W.<X<XJ.z.,X7.s b A.P.8.> 1X1X1X1X1X1X1X1X1X1X1X1X",
"1X1X1X1X1X1X0.E.b.r.e.G.:Xv.; h.=Xc.G.u.1X1X1X1X1X1X1X1X1X1X1X1X",
"1X1X1X1X1X1X, - & $ 6 T.-X/.M.+XoXp.!.'.8 1X1X1X1X1X1X1X1X1X1X1X",
"1X1X1X1X1X1XX   1X1Xc o.<.l.U.XXQ.y.].;XD.1X1X1X1X1X1X1X1X1X1X1X",
"1X1X1X1X1X1X1X1X1X1X` Y C 1.G &.,.5 =.~.%X0 1X1X1X1X1X1X1X1X1X1X",
"1X1X1X1X1X1X1X1X1X1X) ] S 2.A U h O e *.L.3 1X1X1X1X1X1X1X1X1X1X",
"1X1X1X1X1X1X1X1X1X1X1X[ F D } ! 1X1X. % < 1X1X1X1X1X1X1X1X1X1X1X",
"1X1X1X1X1X1X1X1X1X1X1X] Z | ! 1X1X1X1X1X* 1X1X1X1X1X1X1X1X1X1X1X",
"1X1X1X1X1X1X1X1X1X1X1X^ { / 1X1X1X1X1X1X1X1X1X1X1X1X1X1X1X1X1X1X",
"1X1X1X1X1X1X1X1X1X1X1X~ ~ 1X1X1X1X1X1X1X1X1X1X1X1X1X1X1X1X1X1X1X",
"1X1X1X1X1X1X1X1X1X1X1X1X1X1X1X1X1X1X1X1X1X1X1X1X1X1X1X1X1X1X1X1X",
"1X1X1X1X1X1X1X1X1X1X1X1X1X1X1X1X1X1X1X1X1X1X1X1X1X1X1X1X1X1X1X1X"
};
