/* XPM */
static char *_1[] = {
/* columns rows colors chars-per-pixel */
"32 32 199 2 ",
"   c #3D3D3D",
".  c #064109",
"X  c #09580D",
"o  c #036E0A",
"O  c #06750F",
"+  c #087810",
"@  c #087F10",
"#  c #285929",
"$  c #257229",
"%  c #3A6E3B",
"&  c #485F48",
"*  c #4E584D",
"=  c #595959",
"-  c #5F5F5F",
";  c #605F60",
":  c #626662",
">  c #697E68",
",  c #717171",
"<  c #7B7B7B",
"1  c #7D7D7D",
"2  c #0A8310",
"3  c #069312",
"4  c #049615",
"5  c #099012",
"6  c #059913",
"7  c #029E13",
"8  c #02AA14",
"9  c #02AF15",
"0  c #06A319",
"q  c #04B016",
"w  c #04B516",
"e  c #03BB17",
"r  c #02BF16",
"t  c #02BF17",
"y  c #07B018",
"u  c #0AB61B",
"i  c #0AB71B",
"p  c #0DB21D",
"a  c #04BA18",
"s  c #2BB815",
"d  c #2DBF16",
"f  c #34BF12",
"g  c #179126",
"h  c #218F28",
"j  c #32863C",
"k  c #369F3C",
"l  c #19A626",
"z  c #12AB20",
"x  c #16AC24",
"c  c #1BA927",
"v  c #1CA929",
"b  c #20A62B",
"n  c #2EA237",
"m  c #37A03F",
"M  c #7AAB1A",
"N  c #6BBA12",
"B  c #77B811",
"V  c #78A42C",
"C  c #00C115",
"Z  c #00C216",
"A  c #00C716",
"S  c #00C814",
"D  c #00C815",
"F  c #00CA14",
"G  c #00CB14",
"H  c #00C916",
"J  c #02C018",
"K  c #02C418",
"L  c #01CA19",
"P  c #00CB19",
"I  c #01CB19",
"U  c #03CA19",
"Y  c #07C818",
"T  c #00CD18",
"R  c #00CC19",
"E  c #00CD19",
"W  c #02CC19",
"Q  c #00CE19",
"!  c #09C818",
"~  c #09C918",
"^  c #19C517",
"/  c #13C718",
"(  c #2AC216",
")  c #2FC216",
"_  c #3C9E42",
"`  c #428444",
"'  c #4D8251",
"]  c #548A57",
"[  c #55865A",
"{  c #588E5A",
"}  c #4F9D53",
"|  c #529A5A",
" . c #579B59",
".. c #599D5D",
"X. c #62A14A",
"o. c #5E9C60",
"O. c #608762",
"+. c #678069",
"@. c #68836B",
"#. c #68986A",
"$. c #788E7A",
"%. c #7A9F7A",
"&. c #65A96D",
"*. c #73A074",
"=. c #7DA27E",
"-. c #9BBB0D",
";. c #9CBA0E",
":. c #89B710",
">. c #848484",
",. c #858585",
"<. c #8A898A",
"1. c #8B8B8B",
"2. c #8F8F8F",
"3. c #869D87",
"4. c #909090",
"5. c #919191",
"6. c #939393",
"7. c #979797",
"8. c #919990",
"9. c #939D94",
"0. c #999A98",
"q. c #9A9A9A",
"w. c #9C9C9C",
"e. c #9D9D9D",
"r. c #9E9E9E",
"t. c #81AB84",
"y. c #89A189",
"u. c #8AA38A",
"i. c #95A995",
"p. c #96A994",
"a. c #9BA999",
"s. c #A3A3A3",
"d. c #A3A5A3",
"f. c #A7A3A7",
"g. c #A4A4A4",
"h. c #A5A5A5",
"j. c #A6A6A7",
"k. c #A7A6A7",
"l. c #A7A7A7",
"z. c #A1ADA1",
"x. c #A9A9A9",
"c. c #A8ABA8",
"v. c #AEAEAE",
"b. c #AFAFAF",
"n. c #A2B2A1",
"m. c #ABB2AA",
"M. c #ABB2AB",
"N. c #ADB1AC",
"B. c #B0B4AE",
"V. c #B2B2B2",
"C. c #B3B3B3",
"Z. c #B1B6B0",
"A. c #B4B6B3",
"S. c #B5B3B5",
"D. c #B6B6B6",
"F. c #B8B8B9",
"G. c #B9B8B9",
"H. c #B9B9B9",
"J. c #BABABA",
"K. c #BBBBBB",
"L. c #B8BDBA",
"P. c #BDBCBD",
"I. c #BEBDBE",
"U. c #BFBEBF",
"Y. c #BFBFBF",
"T. c #C0BEC0",
"R. c #C3BFC3",
"E. c #C1C0C1",
"W. c #C1C1C1",
"Q. c #C2C0C1",
"!. c #C3C1C3",
"~. c #C4C2C3",
"^. c #C5C2C4",
"/. c #C4C3C4",
"(. c #C4C3C5",
"). c #C5C6C5",
"_. c #C6C4C6",
"`. c #C6C5C7",
"'. c #C7C6C7",
"]. c #C7C7C7",
"[. c #CAC7C9",
"{. c #CAC7CA",
"}. c #C9C8C9",
"|. c #C9C9C9",
" X c #CBC8CA",
".X c #CBC8CB",
"XX c #CBC9CB",
"oX c #CACACA",
"OX c #CDC9CC",
"+X c #CCCBCC",
"@X c #CDCBCC",
"#X c #CECBCD",
"$X c #CCCCCC",
"%X c #CDCCCD",
"&X c #CDCDCD",
"*X c #CECCCE",
"=X c #CFCECF",
"-X c #D0CECF",
";X c None",
/* pixels */
";X;X;X;X;X;X;X;X;X;X;X;X;X;X;X;X;X;X;X;X;X;X;X;X;X;X;X;X;X;X;X;X",
";X;X;X;X;X;X;X;X;X;X;X;X7 9 @ ;X;X;X;X;X;X;X;X;X;X;X;X;X;X;X;X;X",
";X;X;X;X;X;X;X;X;X;X;X3 E E K 2 ;X;X;X;X;X;X;X;X;X;X;X;X;X;X;X;X",
";X;X;X;X;X;X;X;X;X;X;Xq E P R w ;X;X;X;X;X;X;X;X;X;X;X;X;X;X;X;X",
";X;X;X;X;X;X;X;X;X;X;Xe R P P L 5 ;X;X;X;X;X;X;X;X;X;X;X;X;X;X;X",
";X;X;X;X;X;X;X;X;X;X;XJ Q T H C 6 ;X;X;X;X;X;X;X;X;X;X;X;X;X;X;X",
";X;X;X;X;X;X;X;X;X;X;X8 0 g j [ $.: ;X;X;X;X;X;X;X;X;X;X;X;X;X;X",
";X;X;X;X;X;X;X;X;X;X;X@.9.b.R..X@X6.;X;X;X;X;X;X;X;X;X;X;X;X;X;X",
";X;X;X;X;X;X;X;X;X;X;XS.=X).8.W.$Xs.;X;X;X;X;X;X;X;X;X;X;X;X;X;X",
";X;X;X;X;X;X;X;X;X;X;Xg.&XM.h #.'.C.;X;X;X;X;X;X;X;X;X;X;X;X;X;X",
";X;X;X;X;X;X;X;X;X;X;X5.+Xu.a z z.E.;X;X;X;X;X;X;X;X;X;X;X;X;X;X",
";X;X;X;X;X;X;X;X;X;X;X1 '.p.i t =.[.>.;X;X;X;X;X;X;X;X;X;X;X;X;X",
";X;X;X;X;X;X;X;X;X;X;X;XP.B.c D .. X7.;X;X;X;X;X;X;X;X;X;X;X;X;X",
";X;X;X;X;X;X;X;X;X;X;X;Xv.Q.k G m !.x.;X;X;X;X;X;X;X;X;X;X;X;X;X",
";X;X;X;X;X;X;X;X;X;X;X;Xr. X .S v Z.F.;X;X;X;X;X;X;X;X;X;X;X;X;X",
";X;X;X;X;X;X;X;X;X;X;X;X1.XX%.r u i./.;X;X;X;X;X;X;X;X;X;X;X;X;X",
";X;X;X;X;X;X;X;X;X;X;X;X;X(.a.p Z *..X<.;X;X;X;X;X;X;X;X;X;X;X;X",
";X;X;X;X;X;X;X;X;X;X;X;X;XH.A.b F } {.4.;X;X;X;X;X;X;X;X;X;X;X;X",
";X;X;X;X;X;X;X;X;X;X;X;X;Xh.^._ G n Y.j.1 = ;X;X;X;X;X;X;X;X;X;X",
";X;X;X;X;X;X;X;X;X;X;X;X  2.OXo.D x m.G.h.J.,.;X;X;X;X;X;X;X;X;X",
";X;X;X;X;X;X;X;X;X;X;X;X6.q.}.y.y l N./.w.oXoXb., ;X;X;X;X;X;X;X",
";X;X;X;X;X;X;X;X;X;X;X< ].w.Y.!.{ ` ~.|.e.I.[.-XD.;X;X;X;X;X;X;X",
";X;X;X;X;X;X;X;X;X;X; K.&Xl.V.%XK.d.@X*Xf.> ] 3.c.- ;X;X;X;X;X;X",
";X;X;X;X;X;X;X;X;X;Xl.&X_.e.k.#X`.L.n.t.| # o + $ * ;X;X;X;X;X;X",
";X;X;X;X;X;X;X;X;X;XU.T.O.% +.&.X.V M s H ;X;X;X;X;X;X;X;X;X;X;X",
";X;X;X;X;X;X;X;X;X;X0.' O . 4 A f -.;.( R ;X;X;X;X;X;X;X;X;X;X;X",
";X;X;X;X;X;X;X;X;X;X& X ;X;X;XR ! N :.^ R ;X;X;X;X;X;X;X;X;X;X;X",
";X;X;X;X;X;X;X;X;X;X;X;X;X;X;X;XR ) B / ;X;X;X;X;X;X;X;X;X;X;X;X",
";X;X;X;X;X;X;X;X;X;X;X;X;X;X;X;X;XY d ~ ;X;X;X;X;X;X;X;X;X;X;X;X",
";X;X;X;X;X;X;X;X;X;X;X;X;X;X;X;X;XW U I ;X;X;X;X;X;X;X;X;X;X;X;X",
";X;X;X;X;X;X;X;X;X;X;X;X;X;X;X;X;X;X;X;X;X;X;X;X;X;X;X;X;X;X;X;X",
";X;X;X;X;X;X;X;X;X;X;X;X;X;X;X;X;X;X;X;X;X;X;X;X;X;X;X;X;X;X;X;X"
};
