/* XPM */
static char *_4[] = {
/* columns rows colors chars-per-pixel */
"32 32 198 2 ",
"   c #0A2B0A",
".  c #103110",
"X  c #024A07",
"o  c #044D09",
"O  c #0B4F0E",
"+  c #0B7F0F",
"@  c #127D1B",
"#  c #167D1D",
"$  c #394539",
"%  c #1C7221",
"&  c #256727",
"*  c #39703B",
"=  c #3A7E3B",
"-  c #504F4F",
";  c #515050",
":  c #537253",
">  c #616060",
",  c #636262",
"<  c #656565",
"1  c #6C6E6C",
"2  c #6F796F",
"3  c #737373",
"4  c #797879",
"5  c #7A7A7A",
"6  c #7B7A7B",
"7  c #7D7D7D",
"8  c #068010",
"9  c #028510",
"0  c #098112",
"q  c #069212",
"w  c #049F14",
"e  c #089A13",
"r  c #099019",
"t  c #06A314",
"y  c #02AC16",
"u  c #00B812",
"i  c #00BD13",
"p  c #02BD17",
"a  c #0CB31C",
"s  c #0FB01E",
"d  c #0EB21E",
"f  c #0AB51C",
"g  c #0CB41D",
"h  c #1B8326",
"j  c #179026",
"k  c #38963E",
"l  c #309F39",
"z  c #329F39",
"x  c #379E3D",
"c  c #0DAF21",
"v  c #12AE20",
"b  c #29A333",
"n  c #2DA236",
"m  c #30A139",
"M  c #39A83C",
"N  c #52BC13",
"B  c #62B812",
"V  c #5CA237",
"C  c #00C315",
"Z  c #00C116",
"A  c #02C116",
"S  c #00C316",
"D  c #00C515",
"F  c #00C615",
"G  c #00C716",
"H  c #00CC14",
"J  c #00CC15",
"K  c #02C318",
"L  c #01CA19",
"P  c #00CB19",
"I  c #01CB19",
"U  c #03CA19",
"Y  c #00CD18",
"T  c #00CC19",
"R  c #00CD19",
"E  c #00CE19",
"W  c #0BC818",
"Q  c #13C418",
"!  c #12C718",
"~  c #23C317",
"^  c #26C314",
"/  c #21C417",
"(  c #22C417",
")  c #2FC113",
"_  c #3FA045",
"`  c #43844A",
"'  c #46854E",
"]  c #4B914E",
"[  c #528C53",
"{  c #5F9D61",
"}  c #619A63",
"|  c #639D65",
" . c #649C66",
".. c #6A9C6B",
"X. c #6C9D6E",
"o. c #758B77",
"O. c #79867A",
"+. c #788E7A",
"@. c #6E9A70",
"#. c #719E71",
"$. c #7F927F",
"%. c #61A969",
"&. c #7BA36A",
"*. c #8AB50D",
"=. c #95B80F",
"-. c #95BA0F",
";. c #84AC17",
":. c #8EB710",
">. c #7E9280",
",. c #828282",
"<. c #838383",
"1. c #8D8D8D",
"2. c #859585",
"3. c #859686",
"4. c #8D9E8D",
"5. c #949494",
"6. c #979596",
"7. c #969696",
"8. c #979797",
"9. c #989798",
"0. c #989898",
"q. c #999999",
"w. c #9A9A9A",
"e. c #9C9B9C",
"r. c #9D9C9D",
"t. c #9D9D9D",
"y. c #9E9E9E",
"u. c #8FA190",
"i. c #94A893",
"p. c #97A997",
"a. c #98A896",
"s. c #9BAB9A",
"d. c #9DAA9B",
"f. c #9FB09C",
"g. c #A0A0A0",
"h. c #A4A4A4",
"j. c #A2ACA0",
"k. c #A6ADA6",
"l. c #A8A8A8",
"z. c #ACAEAB",
"x. c #ACACAC",
"c. c #ADADAD",
"v. c #AEAEAE",
"b. c #AFAFAF",
"n. c #ABB0AB",
"m. c #B1B1B1",
"M. c #B3B3B3",
"N. c #B4B4B4",
"B. c #B5B4B5",
"V. c #B6B4B5",
"C. c #B7B5B6",
"Z. c #B8B9B7",
"A. c #B8B7B8",
"S. c #B9B9B9",
"D. c #BBBBBA",
"F. c #BDBDBC",
"G. c #BDBCBD",
"H. c #BDBDBD",
"J. c #BEBEBD",
"K. c #BFBDBE",
"L. c #BFBDBF",
"P. c #BDBFBE",
"I. c #BFBEBE",
"U. c #BDC0BE",
"Y. c #C0BFC0",
"T. c #C2BFC1",
"R. c #C1C0C1",
"E. c #C1C1C1",
"W. c #C2C2C2",
"Q. c #C5C3C4",
"!. c #C4C4C4",
"~. c #C5C4C5",
"^. c #C5C5C5",
"/. c #C6C5C6",
"(. c #C7C4C7",
"). c #C7C6C7",
"_. c #C7C7C7",
"`. c #C8C5C8",
"'. c #C8C6C8",
"]. c #C8C8C8",
"[. c #CBC8CA",
"{. c #CAC9CA",
"}. c #CBC8CB",
"|. c #CACACA",
" X c #CCC9CB",
".X c #CBCACC",
"XX c #CCC9CC",
"oX c #CDC9CC",
"OX c #CCCACC",
"+X c #CCCBCC",
"@X c #CECBCE",
"#X c #CCCCCC",
"$X c #CDCCCD",
"%X c #CDCCCE",
"&X c #CECCCE",
"*X c #CECDCE",
"=X c #CFCECF",
"-X c None",
/* pixels */
"-X-X-X-X-X-X-X-X-X-X-X-X-X-X-X-X-X-X-X-X-X-X-X-X-X-X-X-X-X-X-X-X",
"-X-X-X-X-X-X-X-X-X-Xo 9 8 -X-X-X-X-X-X-X-X-X-X-X-X-X-X-X-X-X-X-X",
"-X-X-X-X-X-X-X-X-X-Xw E L t -X-X-X-X-X-X-X-X-X-X-X-X-X-X-X-X-X-X",
"-X-X-X-X-X-X-X-X-X-Xp T P I e -X-X-X-X-X-X-X-X-X-X-X-X-X-X-X-X-X",
"-X-X-X-X-X-X-X-X-X-XK P P T K + -X-X-X-X-X-X-X-X-X-X-X-X-X-X-X-X",
"-X-X-X-X-X-X-X-X-X-XK T R Y D q -X-X-X-X-X-X-X-X-X-X-X-X-X-X-X-X",
"-X-X-X-X-X-X-X-X-X-XA C y j ` +.1 -X-X-X-X-X-X-X-X-X-X-X-X-X-X-X",
"-X-X-X-X-X-X-X-X-X-Xh ' >.v.(.&Xy.-X-X-X-X-X-X-X-X-X-X-X-X-X-X-X",
"-X-X-X-X-X-X-X-X-X-X6.`.$Xz.G.$XN.-X-X-X-X-X-X-X-X-X-X-X-X-X-X-X",
"-X-X-X-X-X-X-X-X-X-X8.|.'.[ ] Z.^.7 -X-X-X-X-X-X-X-X-X-X-X-X-X-X",
"-X-X-X-X-X-X-X-X-X-X-XE.L.l i } [.r.-X-X-X-X-X-X-X-X-X-X-X-X-X-X",
"-X-X-X-X-X-X-X-X-X-X-Xb.Q._ H b D.N.-X-X-X-X-X-X-X-X-X-X-X-X-X-X",
"-X-X-X-X-X-X-X-X-X-X-X7.OX#.Z f i./.5 -X-X-X-X-X-X-X-X-X-X-X-X-X",
"-X-X-X-X-X-X-X-X-X-X-X-X!.j.v F { }.q.-X-X-X-X-X-X-X-X-X-X-X-X-X",
"-X-X-X-X-X-X-X-X-X-X-X-Xm.T.x J n F.M.-X-X-X-X-X-X-X-X-X-X-X-X-X",
"-X-X-X-X-X-X-X-X-X-X-X-X0.XX..S g p.~.4 -X-X-X-X-X-X-X-X-X-X-X-X",
"-X-X-X-X-X-X-X-X-X-X-X-X6 ~.d.s D |  X5.-X-X-X-X-X-X-X-X-X-X-X-X",
"-X-X-X-X-X-X-X-X-X-X-X-X-XN.K.z J m I.l.- -X-X-X-X-X-X-X-X-X-X-X",
"-X-X-X-X-X-X-X-X-X-X-X-X-X0. X .D d s.R.7.h.3 -X-X-X-X-X-X-X-X-X",
"-X-X-X-X-X-X-X-X-X-X-X-X-X< ).a.a S X. Xt.E.].c.,.-X-X-X-X-X-X-X",
"-X-X-X-X-X-X-X-X-X-X-X-X; 1.B.J.k u @.@Xx.c.*X=X#X<.-X-X-X-X-X-X",
"-X-X-X-X-X-X-X-X-X-X-X-X1.S.g.#Xk.= 4.%XY.9.2.u.n.w.-X-X-X-X-X-X",
"-X-X-X-X-X-X-X-X-X-X-X> H._.q.!.+XV.L..XP.O.& 0 # * -X-X-X-X-X-X",
"-X-X-X-X-X-X-X-X-X-X-Xt.#X{.e.C.oXU.f.&.M c -X-X-X  -X-X-X-X-X-X",
"-X-X-X-X-X-X-X-X-X-X, W.[.$.: o.%.V ;.*.^ R -X-X-X-X-X-X-X-X-X-X",
"-X-X-X-X-X-X-X-X-X-X-XA.3.@ O r G ) -.=.~ T -X-X-X-X-X-X-X-X-X-X",
"-X-X-X-X-X-X-X-X-X-X-X2 % X -X-XT U N :./ T -X-X-X-X-X-X-X-X-X-X",
"-X-X-X-X-X-X-X-X-X-X-X$ . -X-X-X-XT ! B ( T -X-X-X-X-X-X-X-X-X-X",
"-X-X-X-X-X-X-X-X-X-X-X-X-X-X-X-X-X-XI Q W -X-X-X-X-X-X-X-X-X-X-X",
"-X-X-X-X-X-X-X-X-X-X-X-X-X-X-X-X-X-X-XI P -X-X-X-X-X-X-X-X-X-X-X",
"-X-X-X-X-X-X-X-X-X-X-X-X-X-X-X-X-X-X-X-X-X-X-X-X-X-X-X-X-X-X-X-X",
"-X-X-X-X-X-X-X-X-X-X-X-X-X-X-X-X-X-X-X-X-X-X-X-X-X-X-X-X-X-X-X-X"
};
