/* XPM */
static char *_6[] = {
/* columns rows colors chars-per-pixel */
"32 32 203 2 ",
"   c #383C37",
".  c #024D07",
"X  c #074609",
"o  c #005505",
"O  c #02510A",
"+  c #1A561C",
"@  c #0A7D0F",
"#  c #086D10",
"$  c #0A7B12",
"%  c #137C1A",
"&  c #2C602C",
"*  c #237D2A",
"=  c #4F4E4F",
"-  c #595959",
";  c #486447",
":  c #537453",
">  c #605C60",
",  c #636363",
"<  c #656565",
"1  c #676666",
"2  c #676767",
"3  c #6A6B6A",
"4  c #657164",
"5  c #747474",
"6  c #767575",
"7  c #777777",
"8  c #7C7C7C",
"9  c #098B11",
"0  c #079012",
"q  c #039713",
"w  c #049913",
"e  c #079D13",
"r  c #0B9A1C",
"t  c #03A116",
"y  c #05A114",
"u  c #05A214",
"i  c #07A219",
"p  c #0CA81A",
"a  c #10AF1F",
"s  c #04B316",
"d  c #05B417",
"f  c #04B616",
"g  c #02BF17",
"h  c #04BE17",
"j  c #08B71A",
"k  c #0EB11D",
"l  c #0BB41C",
"z  c #07B919",
"x  c #31BF16",
"c  c #1C8226",
"v  c #119320",
"b  c #199A27",
"n  c #1D9E26",
"m  c #2C8B33",
"M  c #329B3A",
"N  c #319E38",
"B  c #1CA627",
"V  c #14AB21",
"C  c #17AA24",
"Z  c #1FA52A",
"A  c #26A12E",
"S  c #3AA632",
"D  c #4CBE14",
"F  c #56BC13",
"G  c #77B70E",
"H  c #77B911",
"J  c #74A038",
"K  c #00C715",
"L  c #01C517",
"P  c #00C916",
"I  c #00C917",
"U  c #00CB16",
"Y  c #00CB17",
"T  c #01CB17",
"R  c #00CC16",
"E  c #0DC718",
"W  c #01C919",
"Q  c #00CB19",
"!  c #01CB19",
"~  c #02CA19",
"^  c #04C919",
"/  c #05CA19",
"(  c #00CC18",
")  c #00CC19",
"_  c #00CD19",
"`  c #00CE19",
"'  c #00CF19",
"]  c #16C016",
"[  c #16C517",
"{  c #2AC116",
"}  c #39C015",
"|  c #49854A",
" . c #5D855E",
".. c #5B895B",
"X. c #4C9A51",
"o. c #4F9952",
"O. c #5A9A5D",
"+. c #639F44",
"@. c #44A350",
"#. c #5F9961",
"$. c #608665",
"%. c #6C866C",
"&. c #689B6A",
"*. c #6E9B6E",
"=. c #6F8A72",
"-. c #769E77",
";. c #7D907F",
":. c #7C9D7C",
">. c #97B80D",
",. c #89B710",
"<. c #A3BA0E",
"1. c #808080",
"2. c #878787",
"3. c #8D8E8D",
"4. c #8F8F8F",
"5. c #829C82",
"6. c #869987",
"7. c #8A9689",
"8. c #8A978C",
"9. c #929292",
"0. c #959495",
"q. c #969696",
"w. c #989898",
"e. c #999999",
"r. c #9A9A9A",
"t. c #9C9A9C",
"y. c #9C9B9C",
"u. c #9E9E9E",
"i. c #9F9E9F",
"p. c #9F9F9F",
"a. c #83A183",
"s. c #86A086",
"d. c #8AA189",
"f. c #90A690",
"g. c #97A795",
"h. c #9BA79A",
"j. c #94AE99",
"k. c #9CAB9B",
"l. c #A0A0A0",
"z. c #A1A1A1",
"x. c #A2A2A2",
"c. c #A6A6A6",
"v. c #A7A6A7",
"b. c #A7A7A7",
"n. c #A2A9A2",
"m. c #A3ACA1",
"M. c #A8ADA8",
"N. c #ACACAC",
"B. c #ADADAD",
"V. c #AEADAE",
"C. c #A8B3A6",
"Z. c #AEB4AD",
"A. c #AFB8AF",
"S. c #B1B1B1",
"D. c #B2B2B2",
"F. c #B3B3B3",
"G. c #B1B4B0",
"H. c #B5B4B4",
"J. c #B7B7B7",
"K. c #B5BCB7",
"L. c #B8B8B8",
"P. c #BABABA",
"I. c #BBBBBA",
"U. c #BCBCBC",
"Y. c #BDBCBD",
"T. c #BEBEBD",
"R. c #BFBEBE",
"E. c #BFBFBF",
"W. c #C0C0C0",
"Q. c #C1C1C1",
"!. c #C2C2C2",
"~. c #C3C2C3",
"^. c #C3C3C3",
"/. c #C4C2C3",
"(. c #C4C3C4",
"). c #C5C3C5",
"_. c #C6C3C5",
"`. c #C4C4C4",
"'. c #C5C5C5",
"]. c #C6C4C6",
"[. c #C6C5C6",
"{. c #C6C6C6",
"}. c #C7C7C7",
"|. c #C8C5C7",
" X c #C9C6C8",
".X c #C9C7C9",
"XX c #CAC7C9",
"oX c #C8C8C8",
"OX c #C9C8C9",
"+X c #C9C9C9",
"@X c #CAC8CA",
"#X c #CAC9CA",
"$X c #CBC9CB",
"%X c #CBCACB",
"&X c #CBCBCB",
"*X c #CCCACC",
"=X c #CDCACC",
"-X c #CCCBCC",
";X c #CDCBCD",
":X c #CCCCCC",
">X c #CDCCCD",
",X c #CECDCE",
"<X c None",
/* pixels */
"<X<X<X<X<X<X<X<X<X<X<X<X<X<X<X<X<X<X<X<X<X<X<X<X<X<X<X<X<X<X<X<X",
"<X<X<X<X<X<X<X<X<X<X<X<X<X<X<X<X<X<X<X<X<X<X<X<X<X<X<X<X<X<X<X<X",
"<X<X<X<X<X<X<X<X<X<X<X<X<X<X<X<X<X<X<X<X<X<X<X<X<X<X<X<X<X<X<X<X",
"<X<X<X<X<X<X<X<X<X<X<X<X<X<X<X<X<X<X<X<X<X<X<X<X<X<X<X<X<X<X<X<X",
"<X<X<X<X<XO w y 9 <X<X<X<X<X<X<X<X<X<X<X<X<X<X<X<X<X<X<X<X<X<X<X",
"<X<X<X<X<Xq ' _ W s @ <X<X<X<X<X<X<X<X<X<X<X<X<X<X<X<X<X<X<X<X<X",
"<X<X<X<X<Xu _ Q Q ) L $ <X<X<X<X<X<X<X<X<X<X<X<X<X<X<X<X<X<X<X<X",
"<X<X<X<X<X0 Q Q Q ( i $.0.<X<X<X<X<X<X<X<X<X<X<X<X<X<X<X<X<X<X<X",
"<X<X<X<X<X<Xg ) Y r =.].oXq.<X<X<X<X<X<X<X<X<X<X<X<X<X<X<X<X<X<X",
"<X<X<X<X<X<Xe I v ;.].XX>X{.4.<X<X<X<X<X<X<X<X<X<X<X<X<X<X<X<X<X",
"<X<X<X<X<X<X<Xc 8.=XM...s.T.(.2.<X<X<X<X<X<X<X<X<X<X<X<X<X<X<X<X",
"<X<X<X<X<X<X<X3 ~.:XG.n f o.R.W.1.<X<X<X<X<X<X<X<X<X<X<X<X<X<X<X",
"<X<X<X<X<X<X<X<X9.{.).X.K h O./.U.7 <X<X<X<X<X<X<X<X<X<X<X<X<X<X",
"<X<X<X<X<X<X<X<X<Xe.OXZ.N P z &.|.J.<X<X<X<X<X<X<X<X<X<X<X<X<X<X",
"<X<X<X<X<X<X<X<X<X<Xl.%Xm.A U l -.@XS.<X<X<X<X<X<X<X<X<X<X<X<X<X",
"<X<X<X<X<X<X<X<X<X<X<Xc.-Xg.B R a a.*Xb.= < < < 1 , <X<X<X<X<X<X",
"<X<X<X<X<X<X<X<X<X<X<X<XN.*Xd.V R C f.$Xl.x.`.`.`.'.y.<X<X<X<X<X",
"<X<X<X<X<X<X<X<X<X<X<X<X<XD.$X:.k R Z k.#Xp.B.&X.XY.n.4 <X<X<X<X",
"<X<X<X<X<X<X<X<X<X<X<X<X<X<XL. X*.j U M I.}.u.z. .m % + <X<X<X<X",
"<X<X<X<X<X<X<X<X<X<X<X<X<X<X6 P.).#.d p h.>X[.3.& o <X<X<X<X<X<X",
"<X<X<X<X<X<X<X<X<X<X<X<X<X<X<X8 !.Q.5.| 7.,XK.@.t <X<X<X<X<X<X<X",
"<X<X<X<X<X<X<X<X<X<X<X<X<X<X<Xi.w.^.>X_.(.A.+.] ` <X<X<X<X<X<X<X",
"<X<X<X<X<X<X<X<X<X<X<X<X<X<X<XP.F.r.{.;XC.J >.D Q <X<X<X<X<X<X<X",
"<X<X<X<X<X<X<X<X<X<X<X<X<X<X- E.:Xv.t.j.S G <.H E ) <X<X<X<X<X<X",
"<X<X<X<X<X<X<X<X<X<X<X<X<X<X2 `.OX%.; b T [ F ,.} Q <X<X<X<X<X<X",
"<X<X<X<X<X<X<X<X<X<X<X<X<X<X5 +XH.* . <X<X) / { x ~ <X<X<X<X<X<X",
"<X<X<X<X<X<X<X<X<X<X<X<X<X<X<XV.6.# <X<X<X<X<X! ^ ! <X<X<X<X<X<X",
"<X<X<X<X<X<X<X<X<X<X<X<X<X<X<X> : X <X<X<X<X<X<X<X<X<X<X<X<X<X<X",
"<X<X<X<X<X<X<X<X<X<X<X<X<X<X<X<X  <X<X<X<X<X<X<X<X<X<X<X<X<X<X<X",
"<X<X<X<X<X<X<X<X<X<X<X<X<X<X<X<X<X<X<X<X<X<X<X<X<X<X<X<X<X<X<X<X",
"<X<X<X<X<X<X<X<X<X<X<X<X<X<X<X<X<X<X<X<X<X<X<X<X<X<X<X<X<X<X<X<X",
"<X<X<X<X<X<X<X<X<X<X<X<X<X<X<X<X<X<X<X<X<X<X<X<X<X<X<X<X<X<X<X<X"
};
