/* XPM */
static char *_4[] = {
/* columns rows colors chars-per-pixel */
"32 32 202 2 ",
"   c #024807",
".  c #024B07",
"X  c #034008",
"o  c #054C09",
"O  c #025D07",
"+  c #134414",
"@  c #07660C",
"#  c #066E0E",
"$  c #097A0F",
"%  c #0B7D0F",
"&  c #0A7E0F",
"*  c #0D7113",
"=  c #19711D",
"-  c #2B4F2B",
";  c #3E453D",
":  c #1D7522",
">  c #595959",
",  c #5B5B5B",
"<  c #5E5E5E",
"1  c #4B664B",
"2  c #477F4A",
"3  c #5E765F",
"4  c #666666",
"5  c #6A6A6A",
"6  c #6A6F6B",
"7  c #707270",
"8  c #727272",
"9  c #05880F",
"0  c #078510",
"q  c #0A8810",
"w  c #05A414",
"e  c #03A817",
"r  c #05AD15",
"t  c #02B016",
"y  c #02BA17",
"u  c #00BD15",
"i  c #03BD17",
"p  c #08B71A",
"a  c #0BB41C",
"s  c #0BBA1D",
"d  c #36BD15",
"f  c #1E8826",
"g  c #1E8E2B",
"h  c #109720",
"j  c #2A852E",
"k  c #31873B",
"l  c #299430",
"z  c #379F3E",
"x  c #12AF22",
"c  c #16AB24",
"v  c #21A72D",
"b  c #25A42F",
"n  c #25A430",
"m  c #2BA534",
"M  c #34A13C",
"N  c #36A03D",
"B  c #4FBD14",
"V  c #5ABD12",
"C  c #7FB711",
"Z  c #52A922",
"A  c #79A52D",
"S  c #72A03F",
"D  c #00C012",
"F  c #00C213",
"G  c #02C017",
"H  c #00C415",
"J  c #00C615",
"K  c #00C716",
"L  c #00C914",
"P  c #00CA14",
"I  c #00CB14",
"U  c #00C916",
"Y  c #00CC14",
"T  c #00CC17",
"R  c #02C318",
"E  c #02C518",
"W  c #01C618",
"Q  c #00CB18",
"!  c #01CA19",
"~  c #00CB19",
"^  c #01CB19",
"/  c #05C919",
"(  c #00CC19",
")  c #00CD19",
"_  c #00CE19",
"`  c #14C314",
"'  c #1FC517",
"]  c #12C718",
"[  c #27C316",
"{  c #39C015",
"}  c #3E9945",
"|  c #3E9E44",
" . c #47864E",
".. c #499E4E",
"X. c #538C56",
"o. c #4C9E51",
"O. c #519554",
"+. c #549C57",
"@. c #57955A",
"#. c #5BA556",
"$. c #608A65",
"%. c #6C816E",
"&. c #678A69",
"*. c #649E66",
"=. c #669B68",
"-. c #6C9D6C",
";. c #788478",
":. c #779877",
">. c #5EA166",
",. c #7CA27D",
"<. c #82B90E",
"1. c #96B70F",
"2. c #AABC0C",
"3. c #838383",
"4. c #848484",
"5. c #858484",
"6. c #8C8C8C",
"7. c #8F8F8E",
"8. c #908F8F",
"9. c #8B978A",
"0. c #919191",
"q. c #949494",
"w. c #979797",
"e. c #989798",
"r. c #9A9A9A",
"t. c #9C9C9C",
"y. c #9D9D9D",
"u. c #83A182",
"i. c #93A892",
"p. c #93AE96",
"a. c #98A997",
"s. c #9CA39B",
"d. c #9EA19D",
"f. c #A0A39F",
"g. c #A0A69F",
"h. c #A2A2A2",
"j. c #A5A7A5",
"k. c #A6A6A6",
"l. c #A7A7A7",
"z. c #A8A8A8",
"x. c #A9A9A9",
"c. c #A9AFA9",
"v. c #ACACAC",
"b. c #ADADAD",
"n. c #AEAEAF",
"m. c #A7B0A6",
"M. c #ABB1A9",
"N. c #A9B6AB",
"B. c #ACB1AC",
"V. c #AFB2AF",
"C. c #AFAFB0",
"Z. c #B3B3B3",
"A. c #B4B4B4",
"S. c #B6B4B5",
"D. c #B5B6B4",
"F. c #B7B7B7",
"G. c #B7B9B6",
"H. c #B7BDBA",
"J. c #B9BAB8",
"K. c #BABAB8",
"L. c #BBBBBB",
"P. c #BDBDBC",
"I. c #BDBCBD",
"U. c #BDBDBE",
"Y. c #BEBDBE",
"T. c #C0BEBF",
"R. c #C2BEC1",
"E. c #C0C0C0",
"W. c #C1C1C1",
"Q. c #C2C0C1",
"!. c #C3C1C2",
"~. c #C2C2C2",
"^. c #C4C1C3",
"/. c #C4C3C4",
"(. c #C5C2C5",
"). c #C4C3C5",
"_. c #C5C3C5",
"`. c #C6C3C5",
"'. c #C2C4C5",
"]. c #C7C7C7",
"[. c #C8C5C8",
"{. c #C8C6C8",
"}. c #C9C6C8",
"|. c #C9C6C9",
" X c #C9C7C9",
".X c #CAC7C9",
"XX c #CBC7CA",
"oX c #C8C8C8",
"OX c #C9C8C9",
"+X c #CBC8CA",
"@X c #CBC8CB",
"#X c #CBCBCB",
"$X c #CCC8CB",
"%X c #CCC9CB",
"&X c #CCC9CC",
"*X c #CCCBCC",
"=X c #CDCACD",
"-X c #CCCCCC",
";X c #CDCDCD",
":X c #CECCCD",
">X c #CECDCE",
",X c None",
/* pixels */
",X,X,X,X,X,X,X,X,X,X,X,X,X,X,X,X,X,X,X,X,X,X,X,X,X,X,X,X,X,X,X,X",
",X,X,X,X,X,X,X,X,X,X,X,X,X,X,X,X,X,X,X,X,X,X,X,X,X,X,X,X,X,X,X,X",
",X,X,X,X,X,X,X,X,X,X,X,X,X,X,X,X,X,X,X,X,X,X,X,X,X,X,X,X,X,X,X,X",
",X,X,X,X,X,X,X,X,X,X,X,X,X,X,X,X,X,X,X,X,X,X,X,X,X,X,X,X,X,X,X,X",
",X,X,X,X,X,X,X,X,X,X,X,X,X,X,X,X,X,X,X,X,X,X,X,X,X,X,X,X,X,X,X,X",
",X,X,X,X,X,X,X,X,X,X,X,X,X,X,X,X,X,X,X,X,X,X,X,X,X,X,X,X,X,X,X,X",
",X,X,X,X,X,X,X,X,X,X,X,X,X,X,X,X,X,X,X,X,X,X,X,X,X,X,X,X,X,X,X,X",
",X,X,X,X,X,X,X,X,X,X,X,X,X,X,X,X,X,X,X,X,X8 w.;.- ,X,X,X,X,X,X,X",
",X,X,X,X,X,X,X,X,X,X,X,X,X,X,X,X,X,X,X,X4 E.&XX.O ,X,X,X,X,X,X,X",
",X,X,X,X,X,X,X,X,X,X,X,X,X,X,X,X,X,X,X,Xx.;XV.f . ,X,X,X,X,X,X,X",
",X,X,X,X,X,X,X,X,X,X,X,X,X,X,X,X,X,X,X6.-X>X9.= ,X,X,X,X,X,X,X,X",
",X,X,X,X,X,X,X,X,X,X,X,X,X,X,X,X,X,X, v.b.k.q.3 e ,X,X,X,X,X,X,X",
",X,X,X,X,X,X,X,X,X,X,X,X,X,X,X,X3.4.8.l.n.F.!.p.s ^ ~ ( ,X,X,X,X",
",X,X,X,X,X,X,X,X,X4.0.y.x.A.I./. X$X.X!._.:X>XN.Z V { [ ] ^ ,X,X",
",X,X,X,X% 9 %.Y.~.oX@X}.Q.G.m.i.,.*.o.N } :.D.H.A 2.1.C d / ,X,X",
",X,X& r E u $.=X*XB.=...M v x p G J P Y D j f.'.S <.B ' / ^ ,X,X",
",X0 R ) ~ H  .|.s.l F I I L H i a c b z @.c.#X X#.` ! ( ,X,X,X,X",
"o y ( ~ ~ U k R.g.O.n m | +.-.u.a.M.K.^.+X#X].(.>.K ,X,X,X,X,X,X",
"X t _ ( ~ T g S.;X[.J.P.`.XX%XOX).U.C.l.h.t.r.7.1 ,X,X,X,X,X,X,X",
",X@ w i W Q h j.oXW.L.Z.x.y.0.4.,X,X,X< v.W.].d.:   ,X,X,X,X,X,X",
",X,X,X,X$ q * 6 5.,X,X,X,X,X,X,X,X,X,X,X5 A.-X{.&.# ,X,X,X,X,X,X",
",X,X,X,X,X,X,X,X,X,X,X,X,X,X,X,X,X,X,X,X,X> z.;XT.2 + ,X,X,X,X,X",
",X,X,X,X,X,X,X,X,X,X,X,X,X,X,X,X,X,X,X,X,X,X,X8.e.7 ; ,X,X,X,X,X",
",X,X,X,X,X,X,X,X,X,X,X,X,X,X,X,X,X,X,X,X,X,X,X,X,X,X,X,X,X,X,X,X",
",X,X,X,X,X,X,X,X,X,X,X,X,X,X,X,X,X,X,X,X,X,X,X,X,X,X,X,X,X,X,X,X",
",X,X,X,X,X,X,X,X,X,X,X,X,X,X,X,X,X,X,X,X,X,X,X,X,X,X,X,X,X,X,X,X",
",X,X,X,X,X,X,X,X,X,X,X,X,X,X,X,X,X,X,X,X,X,X,X,X,X,X,X,X,X,X,X,X",
",X,X,X,X,X,X,X,X,X,X,X,X,X,X,X,X,X,X,X,X,X,X,X,X,X,X,X,X,X,X,X,X",
",X,X,X,X,X,X,X,X,X,X,X,X,X,X,X,X,X,X,X,X,X,X,X,X,X,X,X,X,X,X,X,X",
",X,X,X,X,X,X,X,X,X,X,X,X,X,X,X,X,X,X,X,X,X,X,X,X,X,X,X,X,X,X,X,X",
",X,X,X,X,X,X,X,X,X,X,X,X,X,X,X,X,X,X,X,X,X,X,X,X,X,X,X,X,X,X,X,X",
",X,X,X,X,X,X,X,X,X,X,X,X,X,X,X,X,X,X,X,X,X,X,X,X,X,X,X,X,X,X,X,X"
};
