/* XPM */
static char *_12[] = {
/* columns rows colors chars-per-pixel */
"32 32 123 2 ",
"   c #353535",
".  c #3F3F3F",
"X  c #4C1502",
"o  c #571600",
"O  c #5A1903",
"+  c #661D03",
"@  c #6C1F04",
"#  c #761F01",
"$  c #7E2303",
"%  c #712B13",
"&  c #503E37",
"*  c #663525",
"=  c #444444",
"-  c #4E4E4E",
";  c #575554",
":  c #7D5547",
">  c #7D594D",
",  c #6B5A54",
"<  c #775D54",
"1  c #72605A",
"2  c #7F655C",
"3  c #646464",
"4  c #6E6E6E",
"5  c #797472",
"6  c #7C7C7C",
"7  c #832302",
"8  c #882909",
"9  c #982B05",
"0  c #9B300B",
"q  c #993B1B",
"w  c #A42C03",
"e  c #BD3607",
"r  c #A23611",
"t  c #A03D1A",
"y  c #B33E16",
"u  c #BC3D11",
"i  c #C73807",
"p  c #CC3907",
"a  c #C23C0E",
"s  c #D33B06",
"d  c #DB3D06",
"f  c #DB3E08",
"g  c #E43E04",
"h  c #95452A",
"j  c #8B4B35",
"k  c #8B4E39",
"l  c #984B30",
"z  c #86513E",
"x  c #925039",
"c  c #E34008",
"v  c #EA4208",
"b  c #F64305",
"n  c #FC4607",
"m  c #F14409",
"M  c #FD4709",
"N  c #FF4809",
"B  c #F85907",
"V  c #FF5409",
"C  c #FF5D09",
"Z  c #FB6E06",
"A  c #FF6409",
"S  c #FF6E09",
"D  c #CF562C",
"F  c #CB5B2E",
"G  c #C77E31",
"H  c #C1793C",
"J  c #845443",
"K  c #895441",
"L  c #8C5846",
"P  c #865848",
"I  c #885848",
"U  c #935641",
"Y  c #945C49",
"T  c #8F6152",
"R  c #82685F",
"E  c #8E6A5D",
"W  c #996654",
"Q  c #BF6343",
"!  c #8B7066",
"~  c #90776E",
"^  c #8D7B75",
"/  c #917C75",
"(  c #C16341",
")  c #FF8309",
"_  c #FF8809",
"`  c #F69B07",
"'  c #FF9409",
"]  c #FF9B09",
"[  c #FAAC07",
"{  c #FFA709",
"}  c #FFAB09",
"|  c #FFB309",
" . c #C68535",
".. c #C08239",
"X. c #94827B",
"o. c #838383",
"O. c #8C8C8C",
"+. c #958680",
"@. c #968A86",
"#. c #9A8881",
"$. c #998D89",
"%. c #939292",
"&. c #9D9491",
"*. c #97999A",
"=. c #9B9B9B",
"-. c #A39B98",
";. c #AAAAA9",
":. c #B7A9A4",
">. c #B8ACA7",
",. c #B9AFAB",
"<. c #B9B1AE",
"1. c #B3B3B3",
"2. c #BAB4B2",
"3. c #BDB8B6",
"4. c #B6B7B8",
"5. c #B7B9B9",
"6. c #BABCBD",
"7. c #BDC0C1",
"8. c #C5C5C6",
"9. c #C5C7C8",
"0. c #C6C8C9",
"q. c #CACBCB",
"w. c None",
/* pixels */
"w.w.w.w.w.w.w.w.w.w.w.w.w.w.w.w.w.w.w.w.w.w.w.w.w.w.w.w.w.w.w.w.",
"w.w.w.w.w.w.w.w.w.w.w.w.w.w.w.w.w.w.w.w.w.w.w.w.w.w.w.w.w.w.w.w.",
"w.w.w.w.w.w.w.w.w.w.w.w.w.w.w.w.w.w.w.w.w.w.w.w.w.w.w.w.w.w.w.w.",
"w.w.w.w.w.w.w.w.@ w.w.w.w.w.w.w.w.w.w.w.w.w.w.w.w.w.w.w.w.w.w.w.",
"w.w.w.w.w.+ e g v v p 9 O w.w.w.w.w.w.w.w.w.w.w.w.w.w.w.w.w.w.w.",
"w.w.w.w.+ f N M M N N n q ; w.w.w.w.w.w.w.w.w.w.w.w.w.w.w.w.w.w.",
"w.w.w.w.i N M N M M n y $.8.6 w.w.w.w.w.w.w.w.w.w.w.w.w.w.w.w.w.",
"w.w.w.@ m N N N M n y +.q.q.8.6 w.w.w.w.w.w.w.w.w.w.w.w.w.w.w.w.",
"w.w.w.$ n M M M M u +.q.q.q.q.8.o.w.w.w.w.w.w.w.w.w.w.w.w.w.w.w.",
"w.w.w.$ n M M M u X.q.q.0.q.q.q.9.o.w.w.w.w.w.w.w.w.w.w.w.w.w.w.",
"w.w.w.O c M M a / 0.O.E T ! 6.q.q.9.o.w.w.w.w.w.w.w.w.w.w.. . w.",
"w.w.w.w.i N a / 0.0.U g b s I 6.q.q.q.O.w.w.w.w.w.w.w.3 %.1.;.- ",
"w.w.w.w.8 u ~ 9.q.0.Y b M N d K 6.q.q.q.O.w.w.w., O.1.9.q.q.8.%.",
"w.w.w.w.w., 9.q.q.0.E d N N N d k 5.q.q.q.o.- ;.9.q.q.q.0.-.U % ",
"w.w.w.w.w.w.=.q.q.q.4.z f N N N d k 4.q.q.9.O.o.9.q.0.;.W r $ w.",
"w.w.w.w.w.w.w.=.q.q.q.5.K f N N M g j 1.q.q.0.O.o.7.^ t w O w.w.",
"w.w.w.w.w.w.w.w.*.q.q.q.6.P s M M M c j 1.q.q.q.%.o.1 + w.w.w.w.",
"w.w.w.w.w.w.w.w.w.%.q.q.q.5.P s M M N v P 9.0.q.q.^ * w.w.w.w.w.",
"w.w.w.w.w.w.w.w.w.w.%.q.q.q.5.: s n N n l 7.q.q.:.D b w.w.w.w.w.",
"w.w.w.w.w.w.w.w.w.w.w.O.q.q.q.6.> p n b h 7.q.>.F n M w.w.w.w.w.",
"w.w.w.w.w.w.w.w.w.w.w.w.O.q.q.q.6.R j k 2 8.,.G Z N M w.w.w.w.w.",
"w.w.w.w.w.w.w.w.w.w.w.w.w.o.9.q.q.8.8.9.0.<. .[ _ N M w.w.w.w.w.",
"w.w.w.w.w.w.w.w.w.w.w.w.w.= o.9.q.q.q.q.<...[ | ] V M w.w.w.w.w.",
"w.w.w.w.w.w.w.w.w.w.w.w.w.=.O.6 9.q.q.2.H ` | } { A M w.w.w.w.w.",
"w.w.w.w.w.w.w.w.w.w.w.w.= 6.q.O.6 8.3.( B S ) ] ] S M w.w.w.w.w.",
"w.w.w.w.w.w.w.w.w.w.w.w.4 q.q.q.O.5 Q n M M N V C V M w.w.w.w.w.",
"w.w.w.w.w.w.w.w.w.w.w.w.%.q.q.&.1 & c M M N M M M M w.w.w.w.w.w.",
"w.w.w.w.w.w.w.w.w.w.w.= 4.q.8.x 7 w.w.w.w.w.w.w.w.w.w.w.w.w.w.w.",
"w.w.w.w.w.w.w.w.w.w.w.3 q.q.$.0 X w.w.w.w.w.w.w.w.w.w.w.w.w.w.w.",
"w.w.w.w.w.w.w.w.w.w.w.O.q.6.j # w.w.w.w.w.w.w.w.w.w.w.w.w.w.w.w.",
"w.w.w.w.w.w.w.w.w.w.w.O.q.#.8 w.w.w.w.w.w.w.w.w.w.w.w.w.w.w.w.w.",
"w.w.w.w.w.w.w.w.w.w.w.  *.J O w.w.w.w.w.w.w.w.w.w.w.w.w.w.w.w.w."
};
