/* XPM */
static char *_1[] = {
/* columns rows colors chars-per-pixel */
"32 32 139 2 ",
"   c #36221B",
".  c #3D3D3D",
"X  c #353535",
"o  c #521501",
"O  c #551803",
"+  c #6C1D01",
"@  c #722003",
"#  c #7E2405",
"$  c #712B12",
"%  c #5D3A2E",
"&  c #603323",
"*  c #6E3420",
"=  c #4C4C4C",
"-  c #5B4B45",
";  c #545353",
":  c #5B5B5B",
">  c #7F5040",
",  c #6D5F5A",
"<  c #666666",
"1  c #6B6B6B",
"2  c #6F7071",
"3  c #727272",
"4  c #7B7B7B",
"5  c #842402",
"6  c #8B2704",
"7  c #8C2805",
"8  c #922702",
"9  c #912904",
"0  c #9B2C05",
"q  c #993513",
"w  c #9F3D1C",
"e  c #A32D04",
"r  c #B73406",
"t  c #BF3607",
"y  c #BA390C",
"u  c #A23B17",
"i  c #AA3C16",
"p  c #A13D1A",
"a  c #B13C13",
"s  c #C63706",
"d  c #CA3C0A",
"f  c #D33B07",
"g  c #DB3D06",
"h  c #D63D08",
"j  c #DC3E08",
"k  c #C23E10",
"l  c #E33F06",
"z  c #E83F05",
"x  c #AF421C",
"c  c #8D452C",
"v  c #9E4121",
"b  c #994528",
"n  c #874C37",
"m  c #8F4E37",
"M  c #8F533F",
"N  c #9B5035",
"B  c #A64321",
"V  c #A94624",
"C  c #A24B2D",
"Z  c #BF4E27",
"A  c #D1410F",
"S  c #DF4B19",
"D  c #EE4105",
"F  c #E54108",
"G  c #EE4408",
"H  c #EE4A0B",
"J  c #F24205",
"K  c #FD4607",
"L  c #F34509",
"P  c #FE4709",
"I  c #FF4809",
"U  c #FF5409",
"Y  c #FF5909",
"T  c #FC6906",
"R  c #F87906",
"E  c #FF7709",
"W  c #D84F20",
"Q  c #C7603B",
"!  c #83594B",
"~  c #8D5A49",
"^  c #945F4C",
"/  c #8A5F50",
"(  c #8C685C",
")  c #926656",
"_  c #926C5F",
"`  c #BB7E5C",
"'  c #8E6F65",
"]  c #8E7065",
"[  c #88766F",
"{  c #987062",
"}  c #92776E",
"|  c #877671",
" . c #807F7F",
".. c #957A71",
"X. c #DF9413",
"o. c #FF8209",
"O. c #FF8A09",
"+. c #EE9209",
"@. c #FF9009",
"#. c #FF9D09",
"$. c #FEA906",
"%. c #FFAA09",
"&. c #FFB607",
"*. c #FFB508",
"=. c #D18B27",
"-. c #94827B",
";. c #98847D",
":. c #B78A67",
">. c #C38644",
",. c #7F8080",
"<. c #848484",
"1. c #8B8B8B",
"2. c #958782",
"3. c #978984",
"4. c #958E8C",
"5. c #9D908B",
"6. c #929292",
"7. c #9C9593",
"8. c #9F9997",
"9. c #9B9A9A",
"0. c #B49580",
"q. c #B6978A",
"w. c #A39E9C",
"e. c #A6A09E",
"r. c #A4A3A3",
"t. c #A8A7A6",
"y. c #ACABAB",
"u. c #B6A8A0",
"i. c #BAADA9",
"p. c #B7B0AD",
"a. c #B3B3B3",
"s. c #BBBBBB",
"d. c #BDC1C2",
"f. c #C3C4C4",
"g. c #C5C6C8",
"h. c #C6C9CA",
"j. c #CBCBCC",
"k. c #CFD0D0",
"l. c None",
/* pixels */
"l.l.l.l.l.l.l.l.l.l.l.l.l.l.l.l.l.l.l.l.l.l.l.l.l.l.l.l.l.l.l.l.",
"l.l.l.l.l.l.l.l.l.l.l.l.l.l.l.l.l.l.l.l.l.l.l.l.l.l.l.l.l.l.l.l.",
"l.l.l.l.l.l.l.l.l.l.l.l.l.l.l.l.P P P I l.l.l.l.l.l.l.l.l.l.l.l.",
"l.l.l.l..   l.l.l.l.l.l.l.l.l.P P Y E Y P l.l.l.l.l.l.l.l.l.l.l.",
"l.l.l.l.1 ! 6 + l.l.l.l.l.l.P P U O.%.E P P l.l.l.l.l.l.l.l.l.l.",
"l.l.l.l.9.s...w e @ l.l.l.P P U o.%.%.@.I P l.l.l.l.l.l.l.l.l.l.",
"l.l.l.l.t.j.j.a.{ u * - W S H R $.&.&.#.Y P I l.l.l.l.l.l.l.l.l.",
"l.l.l.l.; t.j.j.h.r.6.,.y.y.q.:.>.=.X.+.T I P l.l.l.l.l.l.l.l.l.",
"l.l.l.l.l.. 6.h.j.j.f.4 f.j.j.j.g.s.p.:.:.Q S A l.l.l.l.l.l.l.l.",
"l.l.l.l.l.l.l.<.f.j.a.4 j.h.j.j.t.6.j.j.g.d.p., - 5 8 5 5 # % = ",
"l.l.l.l.l.l.l.l.1 s.w.1.j.j.d.-.p q w.g.j.j.s.4 4./ _ } -.6.e.; ",
"l.l.l.l.l.l.l.l.l.: 1 t.j.j.-.y P z n s.j.j.r.<.j.h.j.j.j.k.s.% ",
"l.l.l.l.l.l.l.l.l.l.% s.d.d.~ L P P u t.j.k.1.9.k.j.j.h.d.y.4 l.",
"l.l.l.l.l.l.l.l.l.l.3 h.k.d.b P P P c s.j.h. .a.f.y.6.3 = l.l.l.",
"l.l.l.l.l.l.l.l.l.l.1.j.k.y.i I P D ! h.j.f.: 3 : l.l.l.l.l.l.l.",
"l.l.l.l.l.l.l.l.l.l.9.j.k.6.d I P h | j.j.a.X l.l.l.l.l.l.l.l.l.",
"l.l.l.l.l.l.l.l.l.l.a.j.j.] l I P y 7.j.j.w.l.l.l.l.l.l.l.l.l.l.",
"l.l.l.l.l.l.l.l.l.: f.j.g.M J I P p a.j.j.1.l.l.l.l.l.l.l.l.l.l.",
"l.l.l.l.l.l.l.l.l.4 j.j.s.v I I L m d.j.g.3 l.l.l.l.l.l.l.l.l.l.",
"l.l.l.l.l.l.l.l.l.1.j.j.r.y I I F ( j.j.d.; l.l.l.l.l.l.l.l.l.l.",
"l.l.l.l.l.l.l.l.l.t.h.j.2.f P I f 3.k.j.y.l.l.l.l.l.l.l.l.l.l.l.",
"l.l.l.l.l.l.l.l.= s.j.j.8.a I I i t.j.j.9.l.l.l.l.l.l.l.l.l.l.l.",
"l.l.l.l.l.l.l.l.< g.j.h.g.] s V ;.g.h.j.<.l.l.l.l.l.l.l.l.l.l.l.",
"l.l.l.l.l.l.l.l.1 s.h.j.k.s.| t.j.j.j.g.< l.l.l.l.l.l.l.l.l.l.l.",
"l.l.l.l.l.l.l.l.$ C ^ } 7.p.d.j.j.j.j.s.= l.l.l.l.l.l.l.l.l.l.l.",
"l.l.l.l.l.l.l.l.7 P L F d x N ) ;.w.a.r.l.l.l.l.l.l.l.l.l.l.l.l.",
"l.l.l.l.l.l.l.l.@ L I I P P P G j k V % l.l.l.l.l.l.l.l.l.l.l.l.",
"l.l.l.l.l.l.l.l.l.h I I I I P P P P g O l.l.l.l.l.l.l.l.l.l.l.l.",
"l.l.l.l.l.l.l.l.l.0 I I P I P P P L # l.l.l.l.l.l.l.l.l.l.l.l.l.",
"l.l.l.l.l.l.l.l.l.l.r I I I P P G 7 l.l.l.l.l.l.l.l.l.l.l.l.l.l.",
"l.l.l.l.l.l.l.l.l.l.l.0 h F F t @ l.l.l.l.l.l.l.l.l.l.l.l.l.l.l.",
"l.l.l.l.l.l.l.l.l.l.l.l.l.O O l.l.l.l.l.l.l.l.l.l.l.l.l.l.l.l.l."
};
