/* XPM */
static char *_7[] = {
/* columns rows colors chars-per-pixel */
"32 32 138 2 ",
"   c #301106",
".  c #36180E",
"X  c #3F3D3D",
"o  c #441201",
"O  c #5A1701",
"+  c #5D1A03",
"@  c #631C03",
"#  c #6E1F04",
"$  c #701D01",
"%  c #5A2614",
"&  c #782204",
"*  c #742409",
"=  c #682D18",
"-  c #42332D",
";  c #7C3E28",
":  c #464646",
">  c #474849",
",  c #4E4E4E",
"<  c #515151",
"1  c #5A5A5A",
"2  c #6B5D59",
"3  c #656565",
"4  c #6A6969",
"5  c #746F6D",
"6  c #757575",
"7  c #777878",
"8  c #7A7A7A",
"9  c #842403",
"0  c #8D2501",
"q  c #8E2D0C",
"w  c #932A05",
"e  c #8F3211",
"r  c #963614",
"t  c #9A3E1E",
"y  c #AA3006",
"u  c #B03206",
"i  c #BB3406",
"p  c #BB390B",
"a  c #A23814",
"s  c #AE3A11",
"d  c #A23E1B",
"f  c #BB3E13",
"g  c #C83907",
"h  c #C13C0E",
"j  c #C93B09",
"k  c #D43B06",
"l  c #D83C06",
"z  c #D63D09",
"x  c #DF3F08",
"c  c #E23E06",
"v  c #E23F08",
"b  c #AD421C",
"n  c #8F4024",
"m  c #974326",
"M  c #864732",
"N  c #8F4C34",
"B  c #994F35",
"V  c #8C523E",
"C  c #A14728",
"Z  c #A04A2C",
"A  c #B1502E",
"S  c #EE4105",
"D  c #ED4309",
"F  c #E84D0F",
"G  c #F54306",
"H  c #FD4606",
"J  c #F44509",
"K  c #FE4709",
"L  c #FF4909",
"P  c #FF5D07",
"I  c #FF5609",
"U  c #FF5F09",
"Y  c #FF6709",
"T  c #FD7206",
"R  c #FF7209",
"E  c #CE5D2B",
"W  c #C75E3A",
"Q  c #875645",
"!  c #8C5947",
"~  c #8E5E4E",
"^  c #935945",
"/  c #9F5840",
"(  c #845E51",
")  c #8F6354",
"_  c #8A6659",
"`  c #936859",
"'  c #846F68",
"]  c #8E7167",
"[  c #8E766E",
"{  c #907166",
"}  c #917369",
"|  c #817672",
" . c #897C77",
".. c #907D76",
"X. c #DA8B16",
"o. c #D78B1F",
"O. c #FF8009",
"+. c #FF8E09",
"@. c #F49108",
"#. c #FF9B09",
"$. c #F9AD06",
"%. c #FFAD09",
"&. c #FFB308",
"*. c #BD804A",
"=. c #B98B5B",
"-. c #8F837F",
";. c #94827B",
":. c #B58A6D",
">. c #A98173",
",. c #B68D7E",
"<. c #838383",
"1. c #8E8E8E",
"2. c #958782",
"3. c #908986",
"4. c #948E8C",
"5. c #9A908D",
"6. c #929292",
"7. c #9D9593",
"8. c #9F9896",
"9. c #9A9B9B",
"0. c #A39E9D",
"q. c #B59C90",
"w. c #A5A4A4",
"e. c #AAA6A5",
"r. c #ADADAD",
"t. c #B7A9A1",
"y. c #BAB0AD",
"u. c #B2B3B3",
"i. c #BDB8B7",
"p. c #B4B6B8",
"a. c #B6B8B8",
"s. c #BABCBC",
"d. c #C3C4C4",
"f. c #C5C7C8",
"g. c #C7C9C9",
"h. c #CBCBCB",
"j. c #CFD0D0",
"k. c None",
/* pixels */
"k.k.k.k.k.k.k.k.k.k.k.k.k.k.k.k.k.k.k.k.k.k.k.k.k.k.k.k.k.k.k.k.",
"k.k.k.k.k.k.k.k.k.k.& w 9 + k.k.k.k.k.k.k.k.k.k.k.k.k.k.k.k.k.k.",
"k.k.k.k.k.k.k.k.# g J K K D y k.k.k.k.k.k.k.k.k.k.k.k.k.k.k.k.k.",
"k.k.k.k.k.k.k.@ v L L L L L K g + k.k.k.k.k.k.k.k.k.k.k.k.k.k.k.",
"k.k.k.k.k.k.k.u L L L K K L L H i   k.k.k.k.k.k.k.k.k.k.k.k.k.k.",
"k.k.k.k.k.k.k.x L L K L L H v b ` 5 k.k.k.k.k.k.k.k.k.k.k.k.k.k.",
"k.k.k.k.k.k.@ J L L L H z C } r.g.s., k.k.k.k.k.k.k.k.k.k.k.k.k.",
"k.k.k.k.k.k.# J L G j B ;.p.h.h.h.h.<.k.k.k.k.k.k.k.k.k.k.k.k.k.",
"k.k.k.k.k.k.# v f ^ 5.s.s.p.g.h.h.h.r.k.k.k.k.k.k.k.k.k.k.k.k.k.",
"k.k.k.k.k.k.. ( 0.d.h.h.] t ~ 7.g.h.g.7 k.k.k.k.k.k.k.k.k.k.k.k.",
"k.k.k.k.k.k.k.9.j.h.h.a.C H G a e.h.h.w.k.k.k.k.k.k.k.k.k.k.k.k.",
"k.k.k.k.k.k.k.4 f.h.h.8.h L K c _ g.g.f.4 k.k.k.k.k.k.k.k.k.k.k.",
"k.k.k.k.k.k.k.k.w.h.h.u.d H L K d p.g.h.9.k.k.k.k.k.k.k.k.k.k.k.",
"k.k.k.k.k.k.k.k.7 g.h.g.) c L L l } h.h.d.1 k.k.k.k.k.k.k.k.k.k.",
"k.k.k.k.k.k.k.k.k.u.g.h.w.s H L K m s.h.h.6.k.k.k.k.k.k.k.k.k.k.",
"k.k.k.k.k.k.k.k.k.<.h.h.f.Q S L L j 2.h.h.a.X k.k.k.k.k.k.k.k.k.",
"k.k.k.k.k.k.k.k.k., a.h.h.4.p L L G N d.h.h.6 6.r.w.0.9.6.1.<.> ",
"k.k.k.k.k.k.k.k.k.k.6.h.h.s.M G L L p 7.h.h.w.<.h.h.h.j.h.j.h.9.",
"k.k.k.k.k.k.k.k.k.k.1 d.g.h. .g L L S ! f.g.f.6 p.g.g.g.s.u.e.e.",
"k.k.k.k.k.k.k.k.k.k.k.9.h.h.u.m H L H V d.h.g.9.1.0.) B Z t r % ",
"k.k.k.k.k.k.k.k.k.k.k.1 g.h.g.' i G k  .h.h.h.f.7 2 9 0 $ O k.k.",
"k.k.k.k.k.k.k.k.k.k., 4 w.h.h.i.3.V ; r.j.g.i.,.A k.k.k.k.k.k.k.",
"k.k.k.k.k.k.k.k.k.k.w.r.8 h.h.g.g.d.p.f.y.:.E J H k.k.k.k.k.k.k.",
"k.k.k.k.k.k.k.k.k.1.h.g.7 r.h.g.h.f.t.=.o.@.P K L k.k.k.k.k.k.k.",
"k.k.k.k.k.k.k.k.7 f.h.h.w.<.h.d.q.*.X.$.&.#.I K k.k.k.k.k.k.k.k.",
"k.k.k.k.k.k.k.3 d.h.h.0.3.4 >.W F T #.%.&.+.L L k.k.k.k.k.k.k.k.",
"k.k.k.k.k.k.< p.h.g.5.t = - D H L L Y #.%.+.L L k.k.k.k.k.k.k.k.",
"k.k.k.k.k.k.8.h.f.;.r 9 k.k.k.k.L L L U O.R L L k.k.k.k.k.k.k.k.",
"k.k.k.k.k.k.8 f.{ q @ k.k.k.k.k.k.k.L L L I K k.k.k.k.k.k.k.k.k.",
"k.k.k.k.k.k.> | * o k.k.k.k.k.k.k.k.k.k.K K k.k.k.k.k.k.k.k.k.k.",
"k.k.k.k.k.k.k.X k.k.k.k.k.k.k.k.k.k.k.k.k.k.k.k.k.k.k.k.k.k.k.k.",
"k.k.k.k.k.k.k.k.k.k.k.k.k.k.k.k.k.k.k.k.k.k.k.k.k.k.k.k.k.k.k.k."
};
