/* XPM */
static char *_7[] = {
/* columns rows colors chars-per-pixel */
"32 32 128 2 ",
"   c #343433",
".  c #393939",
"X  c #421000",
"o  c #4B1402",
"O  c #481808",
"+  c #521703",
"@  c #561803",
"#  c #641C04",
"$  c #6B1D02",
"%  c #7C2101",
"&  c #7D331A",
"*  c #453834",
"=  c #513E37",
"-  c #3D3F40",
";  c #4B4B4B",
":  c #504440",
">  c #555353",
",  c #5C5C5C",
"<  c #636363",
"1  c #696969",
"2  c #757575",
"3  c #7A7270",
"4  c #7D7D7D",
"5  c #802201",
"6  c #8D2602",
"7  c #992B05",
"8  c #9E310B",
"9  c #88381D",
"0  c #953210",
"q  c #973E1F",
"w  c #9F3B18",
"e  c #A32E06",
"r  c #A3350F",
"t  c #B53103",
"y  c #B93406",
"u  c #BB390C",
"i  c #AA3C16",
"p  c #BF3D10",
"a  c #C63706",
"s  c #CD3C09",
"d  c #D23B07",
"f  c #DC3D06",
"g  c #D43C08",
"h  c #E73F05",
"j  c #B1421B",
"k  c #9D4120",
"l  c #914429",
"z  c #98472B",
"x  c #94492F",
"c  c #894731",
"v  c #924C34",
"b  c #984F36",
"n  c #84513F",
"m  c #9E5136",
"M  c #935039",
"N  c #9B533B",
"B  c #EB4006",
"V  c #E34008",
"C  c #EE4309",
"Z  c #F44306",
"A  c #FB4506",
"S  c #FF4C07",
"D  c #F04408",
"F  c #FE4709",
"G  c #FF4809",
"H  c #FF5809",
"J  c #E44812",
"K  c #F46208",
"L  c #FF6309",
"P  c #FF6C09",
"I  c #FF7709",
"U  c #D2552A",
"Y  c #D05829",
"T  c #8B5643",
"R  c #975944",
"E  c #945F4C",
"W  c #8B6152",
"Q  c #8C695D",
"!  c #BE7C4C",
"~  c #856F67",
"^  c #8D6E63",
"/  c #926D61",
"(  c #8A746D",
")  c #8C7F7B",
"_  c #FD8406",
"`  c #FF8E09",
"'  c #FD9606",
"]  c #FF9D09",
"[  c #E49712",
"{  c #F4A008",
"}  c #FFA209",
"|  c #FFAB09",
" . c #FFB407",
".. c #FFB508",
"X. c #CD8A29",
"o. c #BB834C",
"O. c #938079",
"+. c #B68E75",
"@. c #B69276",
"#. c #7D7F80",
"$. c #868686",
"%. c #8F8987",
"&. c #8A8B8B",
"*. c #938682",
"=. c #978A86",
"-. c #958E8B",
";. c #9A8F8B",
":. c #949494",
">. c #9B9592",
",. c #9D9896",
"<. c #9D9C9C",
"1. c #A29D9C",
"2. c #B7A59D",
"3. c #B8A49D",
"4. c #A2A2A2",
"5. c #ADADAD",
"6. c #B1AFAE",
"7. c #AFB1B1",
"8. c #B3B4B4",
"9. c #B6B8B9",
"0. c #BABABA",
"q. c #C0BCBB",
"w. c #BEC1C2",
"e. c #C4C5C5",
"r. c #C5C7C8",
"t. c #C7C9C9",
"y. c #CBCCCC",
"u. c None",
/* pixels */
"u.u.u.u.u.u.u.u.u.u.u.u.u.u.u.u.u.u.u.  > <   u.u.u.u.u.u.u.u.u.",
"u.u.u.u.u.u.u.u.u.u.u.u.u.u.u.u.u.u.u.4.e.^ O u.u.u.u.u.u.u.u.u.",
"u.u.u.u.u.u.u.u.u.u.u.u.u.u.u.u.u.u., e.r.E $ u.u.u.u.u.u.u.u.u.",
"u.u.u.u.u.u.u.u.u.u.u.u.u.u.u.u.u.u.2 y.r.R % u.u.u.u.u.u.u.u.u.",
"u.u.u.u.u.u.u.u.u.u.u.u.u.u.u.u.u.u.:.y.r.N % u.u.u.u.u.u.u.u.u.",
"u.u.u.u.u.u.u.u.u.u.u.u.u.u.u.u.u.u.5.y.e.m 5 u.u.u.u.u.u.u.u.u.",
"u.u.u.u.u.u.u.u.u.u.u.u.u.u.u.u.u.; 0.y.w.c $ u.u.u.u.u.u.u.u.u.",
"u.u.u.u.u.u.u.u.u.u.u.u.u.u.u.u.u.2 y.y.r.%.: u.u.u.u.u.u.u.u.u.",
"u.u.u.u.u.u.u.u.u.u.u.u.u.u.u.u.u.#.7.:.#.#.W C u.u.u.u.u.u.u.u.",
"u.u.u.u.u.u.u.u.u.u.u.u.u.u.u.u.. < ) :.7.r.3.J G G u.u.u.u.u.u.",
"u.u.u.u.u.u.u.u.u.u.u.u.; 1 $.4.9.e.y.y.y.y.0.Y S G G G u.u.u.u.",
"u.u.u.u.u.u.u.u.; 1 $.4.0.t.y.y.y.y.y.y.y.y.r.! _ P H S G G u.u.",
"u.u.u.u.u.* $.4.0.r.y.y.y.y.y.y.y.w.5.,.9.y.y.@.{ | ] ` L G u.u.",
"u.u.u.+ t M e.y.y.y.y.y.y.e.5.-.Q v i u x -.e.2.[ ..| } P G u.u.",
"u.u.# d G j 5.y.y.r.6.-.Q v i s h A F F A 8 :.0.X...} I S G u.u.",
"u.u.d G G d ;.y.y.=.w s h A A G G F G G A l 8.t.o.' P G G u.u.u.",
"u.e G G F B / y.9.v A S G G G G G F Z f r *.y.y.+.K G G G u.u.u.",
"u.g G G G F M e.) a G G G A Z f u q n ~ >.e.y.y.2.J F G u.u.u.u.",
"u.V G F F G j 5.6.E a f u k T ( :.7.e.y.y.y.y.y.0.Y F u.u.u.u.u.",
"u.d G G F G s ;.y.e.>.O.1.9.r.y.y.y.y.y.y.y.r.0.<.m u.u.u.u.u.u.",
"u.e G G F G B / t.y.y.y.y.y.y.y.y.y.r.0.1.$.2 2 $.> u.u.u.u.u.u.",
"u.@ d G G G A N w.y.y.y.y.y.t.0.4.$.1 . < 4.0.y.,.& o u.u.u.u.u.",
"u.u.@ y D G F j 8.y.r.9.4.$.< ; u.u.u.u.; 5.y.y.0.v 6 u.u.u.u.u.",
"u.u.u.u.$ 7 y 8 3 &.1 u.u.u.u.u.u.u.u.u.u.; 9.y.y.,.0 o u.u.u.u.",
"u.u.u.u.u.u.u.u.u.u.u.u.u.u.u.u.u.u.u.u.u.u.< 0.y.r.W % u.u.u.u.",
"u.u.u.u.u.u.u.u.u.u.u.u.u.u.u.u.u.u.u.u.u.u.u.1 e.y.5.9 X u.u.u.",
"u.u.u.u.u.u.u.u.u.u.u.u.u.u.u.u.u.u.u.u.u.u.u.u.4 r.y.O.= u.u.u.",
"u.u.u.u.u.u.u.u.u.u.u.u.u.u.u.u.u.u.u.u.u.u.u.u.u.4 $.< - u.u.u.",
"u.u.u.u.u.u.u.u.u.u.u.u.u.u.u.u.u.u.u.u.u.u.u.u.u.u.u.u.u.u.u.u.",
"u.u.u.u.u.u.u.u.u.u.u.u.u.u.u.u.u.u.u.u.u.u.u.u.u.u.u.u.u.u.u.u.",
"u.u.u.u.u.u.u.u.u.u.u.u.u.u.u.u.u.u.u.u.u.u.u.u.u.u.u.u.u.u.u.u.",
"u.u.u.u.u.u.u.u.u.u.u.u.u.u.u.u.u.u.u.u.u.u.u.u.u.u.u.u.u.u.u.u."
};
