/* XPM */
static char *_02[] = {
/* columns rows colors chars-per-pixel */
"48 48 78 1 ",
"  c #030303",
". c #080808",
"X c #161616",
"o c #1B1B1B",
"O c #252525",
"+ c #2B2B2B",
"@ c #343434",
"# c #3C3C3C",
"$ c #3A4347",
"% c #444444",
"& c #4B4B4B",
"* c #545454",
"= c #505659",
"- c #5B5C5C",
"; c #5F6364",
": c #5C6569",
"> c #5A6F77",
", c #5D737C",
"< c #636363",
"1 c #6B6B6B",
"2 c #636D72",
"3 c #737373",
"4 c #777B7C",
"5 c #7C7D7D",
"6 c #617780",
"7 c #7C7F81",
"8 c #68818B",
"9 c #7E8081",
"0 c #7E888C",
"q c #708C97",
"w c #7F8C92",
"e c #7F929A",
"r c #7F9DA9",
"t c #838384",
"y c #858A8C",
"u c #8C8C8C",
"i c #828E94",
"p c #8A8F90",
"a c #8F9395",
"s c #849399",
"d c #929292",
"f c #909598",
"g c #93989B",
"h c #9A9B9B",
"j c #84A0AD",
"k c #8BA2AC",
"l c #9FA0A0",
"z c #90B1BF",
"x c #A3A4A4",
"c c #ABACAC",
"v c #B3B3B3",
"b c #BDBDBD",
"n c #95B6C3",
"m c #9CB6C1",
"M c #9DB8C4",
"N c #99BDCD",
"B c #A2C7D6",
"V c #A8C5D1",
"C c #A7CAD9",
"Z c #B0CCD7",
"A c #B4D1DE",
"S c #B9D7E4",
"D c #B7DFF0",
"F c #BDE2F1",
"G c #C3C3C3",
"H c #CBCBCB",
"J c #D5D5D5",
"K c #DBDBDB",
"L c #C2E2EF",
"P c #C2E4F2",
"I c #C8E8F5",
"U c #C7E9F8",
"Y c #E4E4E4",
"T c #ECECEC",
"R c #F0F0EF",
"E c #F4F4F4",
"W c #FFFFFF",
"Q c None",
/* pixels */
"QQQQQQQQQQQQQQQQQQQQQQQQQQQQQQQQQQQQQQQQQQQQQQQQ",
"QQQQQQQQQQQQQQQQQQQQQQQQQQQQQQQQQQ QQQQQQQQQQQQQ",
"QQQQQQQQQQQQQQQQQQQQQQQQX@&&&#+QQQ-%QQQQQQQQQQQQ",
"QQQQQQQQQQQQQQQQQQQQQ#3cJYEEEEYHdOHJ+QQQQQQQQQQQ",
"QQQQQQQQQQQQQQQQQQQ&hYWWWWWWWWWWK<WWcoQQQQQQQQQQ",
"QQQQQQQQQQQQQQQQQ+hTWWWWWWWWWWWWuvWWWgQQQQQQQQQQ",
"QQQQQQQQQQQQQQQQ*JWWWWWWWWWWWWWE-YWWWE1QQQQQQQQQ",
"QQQQQQQQQQQQQQQ1TWWWWWWWWWWWWWWvtWWWWWK#QQQQQQQQ",
"QQQQQQQQQQQQQQ3EWWWWWWWWWWWWWWW<HWWWWWWcQQQQQQQQ",
"QQQQQQQQQQQQQ*TWWWWWWWWWWWWWWWJ<WWWWWWWW<QQQQQQQ",
"QQQQQQQQQQQQ+KWWWWWWWWWWWWWWWWdxWWWWWWWWJ+QQQQQQ",
"QQQQQQQQQQQ.xWWWWWWWWWWWWWWWWE<YWWWWWWWWWtQQQQQQ",
"QQQQQQQQQQQ*EWWWWWWWWWWWTvt11&#HWWWWWWWWWK#QQQQQ",
"QQQQQQQQQQ.vWWWWWWWWWWEx<tGG41l<3YWWWWWWWWuQQQQQ",
"QQQQQQQQQ#&EWWWWWWWWWE9$bWHuGEWWc*HWWWWWWWK+QQQQ",
"QQQQQQQQ1duWWWWWWWWWW9qjvchYWWWWWH*KWWWWWWW3QQQQ",
"QQQQQQQ<T3GWWWWWWWWWv,DM-cEWWWWWWWb1WWWWWWWbQQQQ",
"QQQQQQ*YE-YWWWWWWWWE2BFelWWWWWWWWWW3bWWWWWWE%QQQ",
"QQQQQ%YWK<EWWWWWWWWH,FMgWWWWWWWWWWWb5WWWWWWWtQQQ",
"QQQQ%KWWH1WWWWWWWWWhjPwYWWWWWWWWWWWY<WWWWWWWGQQQ",
"QQQ@HWWWb3WWWWWWWWWtnAfWWWWWWWWWWWWE<TWWWWWWT@QQ",
"QQ+GWWWWG3WWWWWWWWWtnZlWWWWWWWWWWWWT<TWWWWWWW<QQ",
"QObWWWWWH1WWWWWWWWWhrSgWWWWWWWWWWWWK<WWWWWWWWuQQ",
"ocWWWWWWJ<WWWWWWWWWG,FsKWWWWWWWWWWWvtWWWWWWWWbQQ",
"bWWWWWWWR-TWWWWWWWWE<BVuTWWWWWWWWWJ*GWWWWWWWWKoQ",
"JWWWWWWYp+HWWWWWWWWWv,FzybYEEEYHcu#@<dJWWWWWWYOQ",
"3EWWWJ4OQQhWWWWWWWWWW48FSki0<tdcHh-KYc1<hKWWWE&Q",
"+HWb<oQQQQ-WWWWWWWWWWE4>BUILjaEEh<KWWWWKh-1cKW<Q",
"Q**QQQQQQQXHWWWWWWWWWWWx=,jnN6<-dTWWWWWWWEHd&<%Q",
"QQQQQQQQQQQ3WWWWWWWWWWWWEby34acYWWWWWWWWWWWW1QQQ",
"QQQQQQQQQQQoHWWWWWWWWWWWWWWWWWWWWWWWWWWWWWWHoQQQ",
"QQQQQQQQQQQQ*EWWWWWWWWWWWWWWWWWWWWWWWWWWWWE*QQQQ",
"QQQQQQQQQQQ*<uWWWWWWWWWWWWWWWWWWWWWWWWWWWWuQQQQQ",
"QQQQQQQQX<GEE1xWWWWWWWWWWWWWWWWWWWWWWWWWWxXQQQQQ",
"QQQQQQO4JWWWWY-cWWWWWWWWWWWWWWWWWWWWWWWWcOQQQQQQ",
"QQQQXuYWWWWWWWY<dEWWWWWWWWWWWWWWWWWWWWWdoQQQQQQQ",
"QQQQOHWWWWWWWWWTt<KWWWWWWWWWWWWWWWWWWK<QQQQQQQQQ",
"QQQQQtWWWWWWWWWWWv*dYWWWWWWWWWWWWWWYd+QQQQQQQQQQ",
"QQQQQ#JWWWWWWWWWWWTh*tGTWWWWWWWWTH4+QQQQQQQQQQQQ",
"QQQQQQ-tt33131111<1<# .O*5hxxht-@QQQQQQQQQQQQQQQ",
"QQQQQQQQQQQQQQQQQQQQQQQQQQQQQQQQQQQQQQQQQQQQQQQQ",
"QQQQQQQQQQQQQQQQQQQQQQQQQQQQQQQQQQQQQQQQQQQQQQQQ",
"QQQQQQQQQQQQQQQQQQQQQQQQQQQQQQQQQQQQQQQQQQQQQQQQ",
"QQQQQQQQQQQQQQQQQQQQQQQQQQQQQQQQQQQQQQQQQQQQQQQQ",
"QQQQQQQQQQQQQQQQQQQQQQQQQQQQQQQQQQQQQQQQQQQQQQQQ",
"QQQQQQQQQQQQQQQQQQQQQQQQQQQQQQQQQQQQQQQQQQQQQQQQ",
"QQQQQQQQQQQQQQQQQQQQQQQQQQQQQQQQQQQQQQQQQQQQQQQQ",
"QQQQQQQQQQQQQQQQQQQQQQQQQQQQQQQQQQQQQQQQQQQQQQQQ"
};
