/* XPM */
static char *_03[] = {
/* columns rows colors chars-per-pixel */
"48 48 83 1 ",
"  c #020202",
". c #0A0A0A",
"X c #151515",
"o c #1C1C1C",
"O c #232323",
"+ c #2C2C2C",
"@ c #333333",
"# c #3C3C3C",
"$ c #444444",
"% c #47494A",
"& c #4C4C4C",
"* c #535353",
"= c #505558",
"- c #555C5F",
"; c #5D5D5D",
": c #5A5F60",
"> c #5B6366",
", c #54666D",
"< c #5D6D74",
"1 c #646464",
"2 c #6B6B6B",
"3 c #60767F",
"4 c #737373",
"5 c #747A7C",
"6 c #7B7B7B",
"7 c #647D87",
"8 c #667F89",
"9 c #687E88",
"0 c #717E84",
"q c #7E888C",
"w c #6C8691",
"e c #6D8995",
"r c #7C8E96",
"t c #748E99",
"y c #7D939C",
"u c #838383",
"i c #858B8E",
"p c #8B8C8C",
"a c #808D92",
"s c #839197",
"d c #8E9192",
"f c #86959B",
"g c #939393",
"h c #9B9C9C",
"j c #85A2AF",
"k c #9CA0A1",
"l c #91A6AF",
"z c #83A5B3",
"x c #89A8B5",
"c c #8AABB9",
"v c #95ABB4",
"b c #92B2BF",
"n c #A4A4A4",
"m c #ABABAB",
"M c #AFB0B1",
"N c #B3B3B3",
"B c #BBBBBB",
"V c #9EB8C4",
"C c #9DBFCD",
"Z c #A4C2CF",
"A c #A9C2CD",
"S c #A3C5D3",
"D c #ABC5D1",
"F c #A6CAD9",
"G c #B5D1DE",
"H c #ADD5E6",
"J c #B7D7E4",
"K c #BCDEEC",
"L c #BFE6F7",
"P c #C3C3C3",
"I c #CBCBCB",
"U c #D2D2D2",
"Y c #DCDCDC",
"T c #C1E4F2",
"R c #C9E9F7",
"E c #C3E8F8",
"W c #CAEAF8",
"Q c #E4E4E4",
"! c #EAEAEA",
"~ c #F0EFEF",
"^ c #F4F4F4",
"/ c #FFFFFF",
"( c None",
/* pixels */
"((((((((((((((((((((((((((((((((((((((((((((((((",
"(((((((((((((((((((((((((((((((((.X(((((((((((((",
"((((((((((((((((((((((((@*;12*$O 1hX((((((((((((",
"((((((((((((((((((((o*gI!^^//^^Y*M/g.(((((((((((",
"((((((((((((((((((o2P^/////////^;!/^6(((((((((((",
"(((((((((((((((((&P^///////////Bu///^1((((((((((",
"((((((((((((((((6!/////////////6P////Q$(((((((((",
"(((((((((((((((g^/////////////Q;^/////Po((((((((",
"((((((((((((((g///////////////mp///////p((((((((",
"(((((((((((((6///////////////^2I///////!*(((((((",
"((((((((((((&!///////////////Q1^////////PX((((((",
"(((((((((((XI//////////////^^hg//////////4((((((",
"(((((((((((4///////////^Yg22*X1P^////////UO(((((",
"((((((((((XU//////////!u2nYm4NB41Y////////u(((((",
"(((((((((.1//////////Q:=!^nh!///B;P///////YO((((",
"((((((((&;n/////////~>zrIpB^////^Y;Y///////4((((",
"(((((((#I;Y/////////peLy1U////////B4^//////P((((",
"((((((+PQ;^////////Q<HK0P/////////^6I//////^&(((",
"(((((Xm/I2/////////mwElM///////////Ng///////p(((",
"(((((h//Bu/////////ibKa~///////////Y2///////IX((",
"((((u^//nu/////////5SDk////////////!2^//////^$((",
"(((1^///mu/////////5CAm////////////Q2^///////4((",
"((*!////B6/////////pxGh////////////I4////////m((",
"($Y/////I4/////////B9TsY///////////hn////////U((",
"+I//////Q1^////////~>FSi!///////^Yh+hQ///////!O(",
"P///////Q&Y^////////m3KVqNYQQYPmgp#4u;4mY////^$(",
"N/////!n#.m//////////q7KJvfa-6mIQg6^/^Pp12nY^/2(",
"*!//!h#(((1//////////^6,CEWWZqQQ66^/////^Ig11g1(",
"(nQh@(((((oU///////////B-,tzc7%1N///////////g .(",
"(+@((((((((4////////////^UnpdmU^///////////^&(((",
"(((((((((((oU//////////////////////////////m((((",
"((((((((((((*^////////////////////////////Q@((((",
"((((((((((((Op^//////////////////////////^1(((((",
"(((((((((($nQ4n/////////////////////////^u((((((",
"(((((((($m~//!2n///////////////////////^p(((((((",
"((((((&M^/////!2u^////////////////////!2((((((((",
"(((((6^////////^p1I//////////////////P$(((((((((",
"(((((1^//////////P;uY//////////////P1(((((((((((",
"((((((B///////////^N12mY^//////^Yn;X((((((((((((",
"((((((1QQYYIPBNmhhgu1X.X#26pp41$o(((((((((((((((",
"(((((((++Oo(((((((((((((((((((((((((((((((((((((",
"((((((((((((((((((((((((((((((((((((((((((((((((",
"((((((((((((((((((((((((((((((((((((((((((((((((",
"((((((((((((((((((((((((((((((((((((((((((((((((",
"((((((((((((((((((((((((((((((((((((((((((((((((",
"((((((((((((((((((((((((((((((((((((((((((((((((",
"((((((((((((((((((((((((((((((((((((((((((((((((",
"(((((((((((((((((((((((((((((((((((((((((((((((("
};
