/* XPM */
static char *_13[] = {
/* columns rows colors chars-per-pixel */
"48 48 105 2 ",
"   c #1A0003",
".  c #2D0005",
"X  c #340006",
"o  c #3B0007",
"O  c #3F0008",
"+  c #430008",
"@  c #4E020B",
"#  c #54000A",
"$  c #5B000B",
"%  c #64000C",
"&  c #6B000D",
"*  c #74000E",
"=  c #7B000F",
"-  c #792D3B",
";  c #7F313F",
":  c #75404C",
">  c #784A56",
",  c #7F505E",
"<  c #756470",
"1  c #6E737E",
"2  c #82000F",
"3  c #830010",
"4  c #8A0011",
"5  c #810C1B",
"6  c #950012",
"7  c #9B0013",
"8  c #A40014",
"9  c #AC0015",
"0  c #AF0418",
"q  c #A40B1F",
"w  c #B40016",
"e  c #BB0017",
"r  c #B50418",
"t  c #BF0218",
"y  c #B1081B",
"u  c #861626",
"i  c #891423",
"p  c #8C1C2C",
"a  c #9E1527",
"s  c #9E1628",
"d  c #BB0B22",
"f  c #AB1427",
"g  c #B61127",
"h  c #B41B30",
"j  c #842736",
"k  c #842938",
"l  c #B82639",
"z  c #BD283D",
"x  c #C00017",
"c  c #C40118",
"v  c #CC011A",
"b  c #D10014",
"n  c #DC0016",
"m  c #D4001A",
"M  c #DB011B",
"N  c #E60017",
"B  c #E3001C",
"V  c #EC001C",
"C  c #F4001E",
"Z  c #FF001F",
"A  c #CE0B23",
"S  c #C51026",
"D  c #FF0020",
"F  c #CD2138",
"G  c #8A3D4C",
"H  c #923949",
"J  c #AE2F41",
"K  c #A83041",
"L  c #834955",
"P  c #864A58",
"I  c #AD4B5C",
"U  c #805E6C",
"Y  c #966975",
"T  c #9D707D",
"R  c #6D7984",
"E  c #7E7A85",
"W  c #887483",
"Q  c #7E828D",
"!  c #728792",
"~  c #91838E",
"^  c #958B9B",
"/  c #8C9AA6",
"(  c #9395A4",
")  c #969BA9",
"_  c #89ADB9",
"`  c #99A6B2",
"'  c #A5A2AF",
"]  c #A0A5B1",
"[  c #9AB7C6",
"{  c #ADB5C0",
"}  c #A8BBC7",
"|  c #9FCAD7",
" . c #9CCEDA",
".. c #A1CAD8",
"X. c #B0CAD7",
"o. c #B7CDDA",
"O. c #A1D0DD",
"+. c #A4D3E1",
"@. c #ADD9E6",
"#. c #B0D9E7",
"$. c #B4DDEB",
"%. c #BCDCEA",
"&. c #BBE5F2",
"*. c #C2EAF7",
"=. c None",
/* pixels */
"=.=.=.=.=.=.=.=.=.=.=.=.=.=.=.=.=.=.=.=.=.=.=.=.  $ m = =.=.=.=.=.=.=.=.=.=.=.=.=.=.=.=.=.=.=.=.",
"=.=.=.=.=.=.=.=.=.=.=.=.=.=.=.=.=.=.=.=.=.=.$ 3 & 4 D C t 2 o =.=.=.=.=.=.=.=.=.=.=.=.=.=.=.=.=.",
"=.=.=.=.=.=.=.=.=.=.=.=.=.=.=.=.=.=.+ =.3 c m C M 7 C D D C 9 3 =.=.=.=.=.=.=.=.=.=.=.=.=.=.=.=.",
"=.=.=.=.=.=.=.=.=.=.=.=.=.=.=.=.=.6 6 B C D Z D m 8 Z Z Z D D m w =.=.=.=.=.=.=.=.=.=.=.=.=.=.=.",
"=.=.=.=.=.=.=.=.=.=.=.=.=.=.=.+ 7 m D Z D Z Z Z m 8 C Z Z Z Z D B t + =.=.=.=.=.=.=.=.=.=.=.=.=.",
"=.=.=.=.=.=.=.=.=.=.=.=.=.=.% 8 C Z Z Z Z Z Z D B 7 V Z Z Z Z Z D C M % + =.=.=.=.=.=.=.=.=.=.=.",
"=.=.=.=.=.=.=.=.=.=.=.=.=.3 t Z Z Z Z Z Z Z Z Z m 7 C D Z Z Z Z Z Z Z B = $ =.=.=.=.=.=.=.=.=.=.",
"=.=.=.=.=.=.=.=.=.=.=.=.4 x D Z Z Z Z Z Z Z Z Z M 8 C Z Z Z Z Z Z Z Z D C 4 $ =.=.=.=.=.=.=.=.=.",
"=.=.=.=.=.=.=.=.=.=.=.& t Z Z Z Z Z Z Z Z Z D D B 9 D D D D D Z Z Z Z Z Z Z 4 $ =.=.=.=.=.=.=.=.",
"=.=.=.=.=.=.=.=.=.=.X 7 D Z Z Z Z Z Z Z Z D D D B 8 V D D C Z Z Z Z Z Z Z Z C = + =.=.=.=.=.=.=.",
"=.=.=.=.=.=.=.=.=.=.* V D Z Z Z Z Z Z Z Z D D D c 4 m M B C C D Z Z Z Z Z Z Z C * X =.=.=.=.=.=.",
"=.=.=.=.=.=.=.=.=.=.e C Z Z Z Z Z Z Z Z Z D m e 3 % 9 6 9 8 v V D Z Z Z Z Z Z Z B = =.=.=.=.=.=.",
"=.=.=.=.=.=.=.=.=.% V D Z Z Z Z Z Z Z Z Z 9 8 6 4 c C C C x w 8 B D Z Z Z Z Z Z C M =.=.=.=.=.=.",
"=.=.=.=.=.=.=.=.=.9 D Z Z Z Z Z Z Z D Z 8 0 M y v D D Z D D V m 7 M D Z Z Z Z Z D C 9 =.=.=.=.=.",
"=.=.=.=.=.=.=.=.$ m D Z Z Z Z Z Z Z Z 9 7 V v v C Z Z Z Z Z D C M 7 B D Z Z Z Z Z D C = =.=.=.=.",
"=.=.=.=.=.=.=.=.= C Z Z Z Z Z Z Z Z n k ; B v M Z Z Z Z Z Z Z D C x x C Z Z Z Z Z Z D M $ =.=.=.",
"=.=.=.=.=.=.=.=.7 C Z Z Z Z Z Z Z Z g ! ( i t Z Z Z Z Z Z Z Z Z D m 7 C Z Z Z Z Z Z Z C x =.=.=.",
"=.=.=.=.=.=.=.  9 Z Z Z Z Z Z Z Z C p [ +.L n Z Z Z Z Z Z Z Z Z Z Z 9 c Z Z Z Z Z Z Z D M = =.=.",
"=.=.=.=.=.=.=.  w D Z Z Z Z Z Z D V L O.%.l V Z Z Z Z Z Z Z Z Z Z Z 9 e Z D D D Z D Z Z D w X =.",
"=.=.=.=.=.=.=.o c Z Z Z Z Z Z Z D B P @.] F Z Z Z Z Z Z Z Z Z Z Z Z x e C C C C C C B B V v * =.",
"=.=.=.=.=.=.=.* c D Z Z Z Z Z Z D B G #.' r Z Z Z Z Z Z Z Z Z Z C C 3 * 9 8 9 0 8 8 7 7 7 # X =.",
"=.=.=.=.=.=.& 7 c D Z Z Z Z Z Z Z C L ..| F Z Z Z Z Z Z Z Z Z Z V 9 % 7 m m M B B B B C t # =.=.",
"=.=.=.=.=.=.e w e Z Z Z Z Z Z Z Z Z s / %.I N Z Z Z Z Z Z Z C b v 8 4 B D Z Z Z D Z Z D v # =.=.",
"=.=.=.=.=.# v v 6 C Z Z Z Z Z Z Z Z M < | ' z B Z Z Z Z Z C y c c e t C Z Z Z Z Z Z Z Z r =.=.=.",
"=.=.=.=.=.w C M 6 V Z Z Z Z Z Z Z Z V q ( O.` I S N n A f 5 y N m 0 m Z Z Z Z Z Z Z Z D 9 =.=.=.",
"=.=.=.=.% w Z C 6 x Z Z Z Z Z Z Z Z Z B u )  .$.~ T Y ~ ` / L f 7 t Z Z Z Z Z Z Z Z Z B 3 =.=.=.",
"=.=.=.=.# C D C 9 w Z Z Z Z Z Z Z Z Z Z B i T ! $.$.&.*.&. .1 p e Z Z Z Z Z Z Z Z Z D m O =.=.=.",
"=.=.=.=.8 C D D B 2 m Z Z Z Z Z Z Z Z Z Z N e k > 1 Q E < k h n D Z Z Z Z Z Z Z Z D C 6 =.=.=.=.",
"=.=.=.+ c D D Z C r r C Z Z Z Z Z Z Z Z Z Z Z C b c r r M B Z Z Z Z Z Z Z Z Z Z Z Z M =.=.=.=.=.",
"=.=.=.9 C D Z Z Z v 2 N Z Z Z Z Z Z Z Z Z Z Z Z Z Z Z Z Z Z Z Z Z Z Z Z Z Z Z Z Z Z 3 . =.=.=.=.",
"=.=.=.8 D D Z Z Z Z 6 = C Z Z Z Z Z Z Z Z Z Z Z Z Z Z Z Z Z Z Z Z Z Z Z Z Z Z Z D 9 % =.=.=.=.=.",
"=.=.=.B D Z Z Z Z c @ % 7 C Z Z Z Z Z Z Z Z Z Z Z Z Z Z Z Z Z Z Z Z Z Z Z Z D D e 3 =.=.=.=.=.=.",
"=.=.7 V D D D D m $ =.=.=.w D D Z Z Z Z Z Z Z Z Z Z Z Z Z Z Z Z Z Z Z Z Z Z D x 4 =.=.=.=.=.=.=.",
"=.X w D D D D m $ =.=.=.=.=.w V D Z Z Z Z Z Z Z Z Z Z Z Z Z Z Z Z Z Z Z Z D x 4 =.=.=.=.=.=.=.=.",
"=.=.6 B D D m % =.=.=.=.=.=.=.7 B D Z Z Z Z Z Z Z Z Z Z Z Z D D Z Z Z Z Z w 3 =.=.=.=.=.=.=.=.=.",
"=.=.=.6 B B % =.=.=.=.=.=.=.=.$ 3 M C D D Z Z Z Z Z Z Z Z D D D Z Z Z B 7 # =.=.=.=.=.=.=.=.=.=.",
"=.=.=.=.= # =.=.=.=.=.=.=.=.=.# w 7 x c C C D D Z Z Z Z D Z D D C M 7 9 =.=.=.=.=.=.=.=.=.=.=.=.",
"=.=.=.=.=.=.=.=.=.=.=.=.=.=.# v Z V v 8 9 e M B C C C C C V m w 3 = + =.=.=.=.=.=.=.=.=.=.=.=.=.",
"=.=.=.=.=.=.=.=.=.=.=.=.=.@ v Z Z D D C m v 8 9 9 8 7 6 & $ @ =.=.=.=.=.=.=.=.=.=.=.=.=.=.=.=.=.",
"=.=.=.=.=.=.=.=.=.=.=.=.# x Z Z Z Z Z Z D D C C m 9 3 . =.=.=.=.=.=.=.=.=.=.=.=.=.=.=.=.=.=.=.=.",
"=.=.=.=.=.=.=.=.=.=.=.# t Z Z Z Z Z Z Z D C C 9 w % =.=.=.=.=.=.=.=.=.=.=.=.=.=.=.=.=.=.=.=.=.=.",
"=.=.=.=.=.=.=.=.=.=.o t C Z Z Z Z Z D C B 9 & O =.=.=.=.=.=.=.=.=.=.=.=.=.=.=.=.=.=.=.=.=.=.=.=.",
"=.=.=.=.=.=.=.=.=.=.+ w D Z Z Z Z V c 9 $ =.=.=.=.=.=.=.=.=.=.=.=.=.=.=.=.=.=.=.=.=.=.=.=.=.=.=.",
"=.=.=.=.=.=.=.=.=.=.=.& w D C V 9 9 $ =.=.=.=.=.=.=.=.=.=.=.=.=.=.=.=.=.=.=.=.=.=.=.=.=.=.=.=.=.",
"=.=.=.=.=.=.=.=.=.=.=.=.% 7 6 $ + =.=.=.=.=.=.=.=.=.=.=.=.=.=.=.=.=.=.=.=.=.=.=.=.=.=.=.=.=.=.=.",
"=.=.=.=.=.=.=.=.=.=.=.=.=.. =.=.=.=.=.=.=.=.=.=.=.=.=.=.=.=.=.=.=.=.=.=.=.=.=.=.=.=.=.=.=.=.=.=.",
"=.=.=.=.=.=.=.=.=.=.=.=.=.=.=.=.=.=.=.=.=.=.=.=.=.=.=.=.=.=.=.=.=.=.=.=.=.=.=.=.=.=.=.=.=.=.=.=.",
"=.=.=.=.=.=.=.=.=.=.=.=.=.=.=.=.=.=.=.=.=.=.=.=.=.=.=.=.=.=.=.=.=.=.=.=.=.=.=.=.=.=.=.=.=.=.=.=."
};
