/* XPM */
static char *_16[] = {
/* columns rows colors chars-per-pixel */
"48 48 98 2 ",
"   c #0C0C0C",
".  c #121212",
"X  c #1A1A1B",
"o  c #232323",
"O  c #2B2B2B",
"+  c #353535",
"@  c #3C3C3C",
"#  c #3F4041",
"$  c #434343",
"%  c #464849",
"&  c #4B4C4B",
"*  c #4D4F50",
"=  c #555555",
"-  c #5A5A5A",
";  c #596368",
":  c #656565",
">  c #63696C",
",  c #6B6C6C",
"<  c #616B70",
"1  c #6E6F70",
"2  c #6D7071",
"3  c #64747B",
"4  c #68757B",
"5  c #747474",
"6  c #7B7C7C",
"7  c #6E8087",
"8  c #748085",
"9  c #7D8183",
"0  c #7C878B",
"q  c #7A8C94",
"w  c #748F9B",
"e  c #7A909A",
"r  c #7A97A4",
"t  c #7F9BA7",
"y  c #848485",
"u  c #868789",
"i  c #878989",
"p  c #8B8B8C",
"a  c #888F92",
"s  c #859095",
"d  c #8D9092",
"f  c #8F9699",
"g  c #8B9A9F",
"h  c #949494",
"j  c #959C9F",
"k  c #9B9B9B",
"l  c #A09F9F",
"z  c #8298A1",
"x  c #819DA9",
"c  c #959DA1",
"v  c #9E9FA0",
"b  c #88A0AA",
"n  c #97A1A5",
"m  c #9EA3A6",
"M  c #97A5AC",
"N  c #8AA5B1",
"B  c #98AEB7",
"V  c #92B1BF",
"C  c #A4A4A4",
"Z  c #A5AAAC",
"A  c #ABACAC",
"S  c #AEAFB0",
"D  c #ACB1B3",
"F  c #B4B4B4",
"G  c #B8B7B7",
"H  c #B9B8B7",
"J  c #B5B7B8",
"K  c #BCBCBC",
"L  c #94B2C0",
"P  c #9AB4C0",
"I  c #9DBAC6",
"U  c #9BBDCB",
"Y  c #A4BAC3",
"T  c #A2C0CC",
"R  c #A4C4D2",
"E  c #AFCBD7",
"W  c #A6CBDB",
"Q  c #B3D0DD",
"!  c #AED1E0",
"~  c #B2D6E5",
"^  c #B6D8E6",
"/  c #B8DFEF",
"(  c #C3C3C3",
")  c #C6C8C9",
"_  c #CBCCCC",
"`  c #D4D4D4",
"'  c #D8D8D7",
"]  c #D6D7D8",
"[  c #D7D8D8",
"{  c #DCDCDC",
"}  c #E4E3E3",
"|  c #E8E8E7",
" . c #EBEBEB",
".. c #F0F0EF",
"X. c #F4F4F4",
"o. c #F8F7F7",
"O. c #FFFFFF",
"+. c None",
/* pixels */
"+.+.+.+.+.+.+.+.+.+.+.+.+.+.+.+.+.+.+.+.+.+.+.+.+.+.+.+.+.+.+.+.+.+.+.+.+.+.+.+.+.+.+.+.+.+.+.+.",
"+.+.+.+.+.+.+.+.+.+.+.+.+.+.+.: 6 K i +.+.+.+.+.+.+.+.+.+.+.+.+.+.+.+.+.+.+.+.+.+.+.+.+.+.+.+.+.",
"+.+.+.+.+.+.+.+.+.+.+.+.+.+., k o.O.| ) , +.+.+.+.+.+.+.+.+.+.+.+.+.+.+.+.+.+.+.+.+.+.+.+.+.+.+.",
"+.+.+.+.+.+.+.+.+.+.+.+.+.  5 O.O.O.O.O.} G - +.+.+.+.+.+.+.+.+.+.+.+.+.+.+.+.+.+.+.+.+.+.+.+.+.",
"+.+.+.+.+.+.+.+.+.+.+.+.+.+.$ _ O.O.O.O.O.O.} A % +.+.+.+.+.+.+.+.+.+.+.+.+.+.+.+.+.+.+.+.+.+.+.",
"+.+.+.+.+.+.+.+.+.+.+.+.+.+.+.= | O.O.O.O.O.O.o.] A , +.+.+.+.+.+.+.+.+.+.+.+.+.+.+.+.+.+.+.+.+.",
"+.+.+.+.+.+.+.+.+.+.+.+.+.+.+.O 5 o.O.O.O.O.O.O.O.o.` k - +.+.+.+.+.+.+.+.+.+.+.+.+.+.+.+.+.+.+.",
"+.+.+.+.+.+.+.+.  +.+.+.+.+.+.+.O h O.O.O.O.O.o. .] { J h @   +.+.+.+.+.+.+.+.+.+.+.+.+.+.+.+.+.",
"+.+.+.+.+.+.: , $ +.+.+.+.+.+.+.+.+ K O.o._ J y y 5 5 i y , + X X +.+.+.+.+.+.+.+.+.+.+.+.+.+.+.",
"+.+.+.+.+.- h X.) + +.+.+.+.+.+.+.+.$ A 6 p 6 K K } { | | { ] J h - $ X +.+.+.+.+.+.+.+.+.+.+.+.",
"+.+.+.+.+ A O.O.o.k O +.+.+.+.+.+.+.# = K ` o.O.O.O.O.O.O.O.O.O.O.| ) 9 = X +.+.+.+.+.+.+.+.+.+.",
"+.+.+.+.& ` O.O.O.X.6 o +.+.+.+.+.y k ..O.O.O.O.O.O.O.O.O.O.O.O.O.O.O.X.` , +.+.+.+.+.+.+.+.+.+.",
"+.+.+.+.+.( O.O.O.O.| - +.+.+.+.h K O.O.O.O.O.O.O.O.O.O.O.O.O.O.O.O.O.O.O.| A + +.+.+.+.+.+.+.+.",
"+.+.+.+.+.p O.O.O.O.o.] @ +.+.h ] O.O.O.O.O.O.O.O.O.O.O.O.O.O.O.O.O.O.O.O.O.X.) & +.+.+.+.+.+.+.",
"+.+.+.+.+.y { O.O.O.O.O.A @ u | O.O.O.O.O.O.O.O.O.O.O.O.O.O.O.O.O.O.O.O.O.O.O.O.( = +.+.+.+.+.+.",
"+.+.+.+.+.+.] O.O.O.O.o.i y o.O.O.O.O.O.O.O.O.O.O.O.O.O.O.O.O.O.O.O.O.O.O.O.O.O.O.F : +.+.+.+.+.",
"+.+.+.+.+.@ C O.O.O.X.S k | O.O.O.O.O.O.O.O.O.O.O.O.O.O.O.O.O.O.O.O.O.O.O.O.O.O.O.O.h = +.+.+.+.",
"+.+.+.+.+.+.h o.O.O.} y J O.O.O.O.O.O.O.O.O.O.O.O.O.O.o.O.O.O.O.O.O.O.O.O.O.O.O.O.O.X.: +.+.+.+.",
"+.+.+.+.+.+.&  .O.X.h l O.O.O.O.O.O.O.O.O.O.O.O.} ` Z Z v F ` ..O.O.O.O.O.O.O.O.O.O.O.) + +.+.+.",
"+.+.+.+.+.+.+.( O.} u ) O.O.O.O.O.O.O.O.O.O.O.A f 7 g t t q q 9 _ X.O.O.O.O.O.O.O.O.O. .k +.+.+.",
"+.+.+.+.+.+.+.( O.C h o.O.O.O.O.O.O.O.O.O.| 9 e L W ^ ! ~ / W r q d X.O.O.O.O.O.O.O.O.O.F +.+.+.",
"+.+.+.+.+.+.+.5 | d S O.O.O.O.O.O.O.O.O.} i b R U D c n M B Y R 3 , h O.O.O.O.O.O.O.O.O.| & +.+.",
"+.+.+.+.+.+.+.+.K i } O.O.O.O.O.O.O.O.o.J e U I D Y | | ' A s < J ] y S O.O.O.O.O.O.O.O.o.C +.+.",
"+.+.+.+.+.+.+.@ 5 p X.O.O.O.O.O.O.O.O.] < L E m ` O.O.O.O.O.{ m G ` ` 9 { O.O.O.O.O.O.O.O.k +.+.",
"+.+.+.+.+.+.+.+.# h O.O.O.O.O.O.O.O.O.A w Q g ) O.O.O.O.O.O.O.o.G F S k K O.O.O.O.O.O.O.O.( +.+.",
"+.+.+.+.+.+.+.+.. C O.O.O.O.O.O.O.O.X.y N Q m | O.O.O.O.O.O.O.O...` l , k O.O.O.O.O.O.O.O.) & +.",
"+.+.+.+.+.+.+.+.. C O.O.O.O.O.O.O.O. .0 V E Z X.O.O.O.O.O.O.O.O.O.o.` : : K ' }  .X.o.O.O.{ & +.",
"+.+.+.+.+.+.+.+.X C O.O.O.O.O.O.O.O...8 I Q c o.O.O.O.O.O.O.O.O.O.O.O.l # 6 y i p i k F K C + +.",
"+.+.+.+.+.+.+.+.O k O.O.O.O.O.O.O.O. .a U R s [ O.O.O.O.O.O.O.O.O.O.O.E h {  .` ( G C d y 6 % o ",
"+.+.+.+.+.+.+.+.+.k O.O.O.O.O.O.O.O.O.c w P ; _ O.O.O.O.O.O.O.O.O.O.o.C C O.O.O.O.O.O.o.X. .] 6 ",
"+.+.+.+.+.+.+.+.+.y o.O.O.O.O.O.O.O.O._ 4 9 K C o.O.O.O.O.O.O.O.O.O.| y K O.O.O.O.O.O.O.O.O.A @ ",
"+.+.+.+.+.+.+.+.+.6 | O.O.O.O.O.O.O.O.| y C { K ) O.O.O.O.O.O.O.O.o.C h X.O.O.O.O.O.O.O.O.( 5 +.",
"+.+.+.+.+.+.+.+.+.@ ) O.O.O.O.O.O.O.O.O.K y ( J K X.O.O.O.O.O.O.o.] i ( O.O.O.O.O.O.O.O. .y +.+.",
"+.+.+.+.+.+.+.+.+.+.C o.O.O.O.O.O.O.O.O.O.C C h p ' O.O.O.O.O. ._ 5 C O.O.O.O.O.O.O.O.O.y o +.+.",
"+.+.+.+.+.+.+.+.+.+.6  .O.O.O.O.O.O.O.O.O.o.( p - : ] | | } F C 5 ) O.O.O.O.O.O.O.O.o.k = +.+.+.",
"+.+.+.+.+.+.+.+.+.+.O C O.O.O.O.O.O.O.O.O.O.o.| h $ , y h 5 h C | O.O.O.O.O.O.O.O. .J +.+.+.+.+.",
"+.+.+.+.+.+.+.+.+.+.+.: } O.O.O.O.O.O.O.O.O.O.O.{ 5 K _ _ { | O.O.O.O.O.O.O.O.O.o.) +.+.+.+.+.+.",
"+.+.+.+.+.+.+.+.+.+.+.+.y o.O.O.O.O.O.O.O.O.O.O.` p } O.O.O.O.O.O.O.O.O.O.O.O.o.S @ +.+.+.+.+.+.",
"+.+.+.+.+.+.+.+.+.+.+.+.5 k O.O.O.O.O.O.O.O.O.O.) d | O.O.O.O.O.O.O.O.O.O.O.O.k + +.+.+.+.+.+.+.",
"+.+.+.+.+.+.+.+.+.+.+.+.+., J O.O.O.O.O.O.O.O.O.K p o.O.O.O.O.O.O.O.O.O.O.X.6 @ +.+.+.+.+.+.+.+.",
"+.+.+.+.+.+.+.+.+.+.+.+.+.+.: ) O.O.O.O.O.O.O.O.C h o.O.O.O.O.O.O.O.O.O.' : @ +.+.+.+.+.+.+.+.+.",
"+.+.+.+.+.+.+.+.+.+.+.+.+.+.+.$ G  .O.O.O.O.O.o.C C O.O.O.O.O.O.O.O.X.A & +.+.+.+.+.+.+.+.+.+.+.",
"+.+.+.+.+.+.+.+.+.+.+.+.+.+.+.+.@ h [ o.O.O.O.o.k S O.O.O.O.O.O.| ` 5 O +.+.+.+.+.+.+.+.+.+.+.+.",
"+.+.+.+.+.+.+.+.+.+.+.+.+.+.+.+.+.+., D ] o.O.o.i K O.O.O.O.O.) Z +.  +.+.+.+.+.+.+.+.+.+.+.+.+.",
"+.+.+.+.+.+.+.+.+.+.+.+.+.+.+.+.+.+.+.+.5 k J ( y ( O.O. .} y , +.+.+.+.+.+.+.+.+.+.+.+.+.+.+.+.",
"+.+.+.+.+.+.+.+.+.+.+.+.+.+.+.+.+.+.+.+.+.+.% % & ) o.A F & O +.+.+.+.+.+.+.+.+.+.+.+.+.+.+.+.+.",
"+.+.+.+.+.+.+.+.+.+.+.+.+.+.+.+.+.+.+.+.+.+.+.+.o h - * +.+.+.+.+.+.+.+.+.+.+.+.+.+.+.+.+.+.+.+.",
"+.+.+.+.+.+.+.+.+.+.+.+.+.+.+.+.+.+.+.+.+.+.+.+.+.+.+.+.+.+.+.+.+.+.+.+.+.+.+.+.+.+.+.+.+.+.+.+."
};
