/* XPM */
static char *_23[] = {
/* columns rows colors chars-per-pixel */
"48 48 111 2 ",
"   c #120002",
".  c #1D0003",
"X  c #210004",
"o  c #280005",
"O  c #320006",
"+  c #3B0007",
"@  c #3F0008",
"#  c #450008",
"$  c #4B0009",
"%  c #52010A",
"&  c #5C000B",
"*  c #61000C",
"=  c #6C000D",
"-  c #74000E",
";  c #7C000F",
":  c #7C0614",
">  c #7F2B38",
",  c #673842",
"<  c #7A3542",
"1  c #7D3C4A",
"2  c #654853",
"3  c #81000F",
"4  c #850010",
"5  c #8B0011",
"6  c #950012",
"7  c #9C0013",
"8  c #9D081A",
"9  c #A40114",
"0  c #AB0015",
"q  c #A20519",
"w  c #AF0418",
"e  c #A3091C",
"r  c #B30016",
"t  c #BB0017",
"y  c #B80218",
"u  c #BD081F",
"i  c #811525",
"p  c #8D1627",
"a  c #871F2E",
"s  c #BA0D23",
"d  c #A11023",
"f  c #AF1025",
"g  c #A01529",
"h  c #AC1A2C",
"j  c #B01227",
"k  c #B71A2F",
"l  c #922132",
"z  c #9A2233",
"x  c #942738",
"c  c #A22336",
"v  c #A22538",
"b  c #AF2538",
"n  c #B8263A",
"m  c #B92C3F",
"M  c #C10017",
"N  c #C50119",
"B  c #CB0119",
"V  c #D3001A",
"C  c #DC001B",
"Z  c #E00017",
"A  c #E4001B",
"S  c #EA001C",
"D  c #F3001D",
"F  c #FF001F",
"G  c #EE0420",
"H  c #F10320",
"J  c #FF0020",
"K  c #803544",
"L  c #9E3244",
"P  c #934452",
"I  c #AC4759",
"U  c #8C5866",
"Y  c #A05665",
"T  c #8C6F7D",
"R  c #A56E7C",
"E  c #A96C7B",
"W  c #7E7683",
"Q  c #7B7883",
"!  c #7D838F",
"~  c #798893",
"^  c #7E94A1",
"/  c #8C8593",
"(  c #908694",
")  c #82939F",
"_  c #9D98A4",
"`  c #A194A0",
"'  c #83A2AD",
"]  c #80AAB6",
"[  c #8BAEBA",
"{  c #9EA4B3",
"}  c #8DB1BD",
"|  c #97B0BF",
" . c #ABA2AF",
".. c #9EBFCD",
"X. c #A2B6C2",
"o. c #ADB8C4",
"O. c #ACBDC8",
"+. c #9FCEDA",
"@. c #A3C5D1",
"#. c #A0CDDA",
"$. c #ABCDDA",
"%. c #B0CDD9",
"&. c #A7D7E3",
"*. c #AEDEEC",
"=. c #B9D9E5",
"-. c #BFDDE9",
";. c #B0E1EF",
":. c #B3E2F0",
">. c #B9E4F2",
",. c #C2E7F4",
"<. c None",
/* pixels */
"<.<.<.<.<.<.<.<.<.<.<.<.<.<.<.<.<.- - = <.+ + <.<.<.<.<.<.<.<.<.<.<.<.<.<.<.<.<.<.<.<.<.<.<.<.<.",
"<.<.<.<.<.<.<.<.<.<.<.<.<.<.<.<.<.= D S B V 0 6 7 <.o X <.<.<.<.<.<.<.<.<.<.<.<.<.<.<.<.<.<.<.<.",
"<.<.<.<.<.<.<.<.<.<.<.<.<.<.<.<.& ; A J J J J J S B y : $ # <.<.<.<.<.<.<.<.<.<.<.<.<.<.<.<.<.<.",
"<.<.<.<.<.<.<.<.<.<.<.<.<.<.<.5 C r y J F J F F J F F D S 0 ; & <.<.<.<.<.<.<.<.<.<.<.<.<.<.<.<.",
"<.<.<.<.<.<.<.<.<.<.<.<.<.& B D F B 9 S F F F F F F F F F F D B ; & <.<.<.<.<.<.<.<.<.<.<.<.<.<.",
"<.<.<.<.<.<.<.<.<.<.<.<.9 N J F F D 7 B J F F F F F F F F F F J F V ; + <.<.<.<.<.<.<.<.<.<.<.<.",
"<.<.<.<.<.<.<.<.<.<.<.- C F J F F F t 0 F F F F F F F F F F F F F F F N y <.<.<.<.<.<.<.<.<.<.<.",
"<.<.<.<.<.<.<.<.<.<.<.N J F F F F F C 9 S F F F F J F F F F F F F F F D C w 5 <.<.<.<.<.<.<.<.<.",
"<.<.<.<.<.<.<.<.<.# B D F F F F F J D 0 B F F F F F J J F F F F F F F F J D y & <.<.<.<.<.<.<.<.",
"<.<.<.<.<.<.<.<.<.4 F F F F F F F J J N 9 D F D D D S J J F F F F F F F F J J S r <.<.<.<.<.<.<.",
"<.<.<.<.<.<.<.<.; A J F F F F F F J J D 7 N r w 7 0 0 0 C F J F F F F F F F F F C 6 & <.<.<.<.<.",
"<.<.<.<.<.<.<.<.9 J F F F F F F J J J A ; ; t B S V C B 9 9 C F F F F F F F F F J D 9 + <.<.<.<.",
"<.<.<.<.<.<.<.5 C F F F F F F F F J C 7 - t F F F J F D D B w C F F F F F F F F F F V - <.<.<.<.",
"<.<.<.<.<.<.<.6 F F F F F F F F J S 9 9 8 S F F F F F F F D t 6 C J F F F F F S B w 3 . <.<.<.<.",
"<.<.<.<.<.<.# y J F F F F F F F J 0 t N B J F F F F F F F F F M r D J J F S M 9 7 B 0 * <.<.<.<.",
"<.<.<.<.<.<.+ A F F F F F F F F G 6 S N C D F F F F F F F F F S 7 C D V y 0 r V D F S * <.<.<.<.",
"<.<.<.<.<.<.6 C F F F F F F F F w 8 A V V F F F F F F F F F F F r 3 q 7 N S D F F F S 6 <.<.<.<.",
"<.<.<.<.<.<.; S F F F F F F F F e 2 z q S F F F F F F F F F F F 5 = t D F F F F F F F q <.<.<.<.",
"<.<.<.<.<.<.= F F F F F F F F D x ^ { a A F F F F F F F F F F C ; 5 D F F F F F F F D 9 <.<.<.<.",
"<.<.<.<.<.<.6 S F F F F F F F F l ..;.Y A F F F F F F F F F S B 9 9 D F F F F F F F F 6 o <.<.<.",
"<.<.<.<.<.<.- F F F F F F F F F j ' ,.R D F F F F F F F F F u N M t D F F F F F F F F 6 <.<.<.<.",
"<.<.<.<.<.<.: D F F F F F F F F s W ;.` N F F F F F F F F B M C N w F F F F F F F F D r <.<.<.<.",
"<.<.<.<.<.<.& A F F F F F F F F S > #.%.I G J F F F F F N : s N 7 V F F F F F F F F D = <.<.<.<.",
"<.<.<.<.<.<.O N F F F F F F F F F s / ;. .m V D F F A b U ^ T > 9 F F F F F F F F F S * <.<.<.<.",
"<.<.<.<.<.<.  7 F F F F F F F F F Z l ^ &.O.E b h n P _ -.:.^ v C F F F F F F F F J r <.<.<.<.<.",
"<.<.<.<.<.<.. ; S F F F F F F F F F Z v ( +.+.@.O.| =.>.$.! a A F F F F F F F F J D 6 <.<.<.<.<.",
"<.<.<.<.<.<.; 4 V F F F F F F F F F F Z 9 x ( [ } @.' Q 2 h Z F F F F F F F F F J N 5 <.<.<.<.<.",
"<.<.<.<.<.<.& q 0 D F F F F F F F F F F F V 9 e x i d 0 D F F F F F F F F F F F F 6 <.<.<.<.<.<.",
"<.<.<.<.<.<.<.B 6 t F F F F F F F F F F F F F D D D D F F F F F F F F F F F F J V 5 <.<.<.<.<.<.",
"<.<.<.<.<.<.= A V 7 S F F F F F F F F F F F F F F F F F F F F F F F F F F F F F 4 <.<.<.<.<.<.<.",
"<.<.<.<.<.<.- S D 7 6 S F F F F F F F F F F F F F F F F F F F F F F F F F F D t $ <.<.<.<.<.<.<.",
"<.<.<.<.<.<.6 C F S 7 w F F F F F F F F F F F F F F F F F F F F F F F F F J t <.<.<.<.<.<.<.<.<.",
"<.<.<.<.<.<.& H J J A 6 9 S F F F F F F F F F F F F F F F F F F F F F F D M = <.<.<.<.<.<.<.<.<.",
"<.<.<.<.<.<.& S J J J V 6 r D J J J F F F F F F F F F F F F F F F F F D w <.<.<.<.<.<.<.<.<.<.<.",
"<.<.<.<.<.<.- A J F J J S 5 = t D J J F F F F F F F F F F F F F J J C 0 $ <.<.<.<.<.<.<.<.<.<.<.",
"<.<.<.<.<.<.& D J F F J F 5 # 6 9 B D F J F F F F F F J F F F F S w $ <.<.<.<.<.<.<.<.<.<.<.<.<.",
"<.<.<.<.<.<.0 S J F F F S & <.<.<.<.r r C J D F J F F D F S V w - o <.<.<.<.<.<.<.<.<.<.<.<.<.<.",
"<.<.<.<.<.<.= D F F F J 9 $ <.<.<.<.<.<.= 7 M t y B y t 9 0 7 4 O <.<.<.<.<.<.<.<.<.<.<.<.<.<.<.",
"<.<.<.<.<.<.<.S J F J D * <.<.<.<.<.<.<.& V t B t t B t A C t = <.<.<.<.<.<.<.<.<.<.<.<.<.<.<.<.",
"<.<.<.<.<.<.4 S J J F y $ <.<.<.<.<.<.# r F F F F F F J J 9 <.<.<.<.<.<.<.<.<.<.<.<.<.<.<.<.<.<.",
"<.<.<.<.<.<.% S J J D - <.<.<.<.<.<.<.& D F F F F F J S 9 $ <.<.<.<.<.<.<.<.<.<.<.<.<.<.<.<.<.<.",
"<.<.<.<.<.<.<.5 9 C B % <.<.<.<.<.<.+ 6 F F F F F J D 7 <.<.<.<.<.<.<.<.<.<.<.<.<.<.<.<.<.<.<.<.",
"<.<.<.<.<.<.<.<.<.4 $ <.<.<.<.<.<.<.$ A F F F F J S w + <.<.<.<.<.<.<.<.<.<.<.<.<.<.<.<.<.<.<.<.",
"<.<.<.<.<.<.<.<.<.<.<.<.<.<.<.<.<.<.5 F F F F F S 5 <.<.<.<.<.<.<.<.<.<.<.<.<.<.<.<.<.<.<.<.<.<.",
"<.<.<.<.<.<.<.<.<.<.<.<.<.<.<.<.<.$ C F F J F C 9 <.<.<.<.<.<.<.<.<.<.<.<.<.<.<.<.<.<.<.<.<.<.<.",
"<.<.<.<.<.<.<.<.<.<.<.<.<.<.<.<.<.# M F J J C - <.<.<.<.<.<.<.<.<.<.<.<.<.<.<.<.<.<.<.<.<.<.<.<.",
"<.<.<.<.<.<.<.<.<.<.<.<.<.<.<.<.<.<.* ; t N 4 . <.<.<.<.<.<.<.<.<.<.<.<.<.<.<.<.<.<.<.<.<.<.<.<.",
"<.<.<.<.<.<.<.<.<.<.<.<.<.<.<.<.<.<.<.<.* + <.<.<.<.<.<.<.<.<.<.<.<.<.<.<.<.<.<.<.<.<.<.<.<.<.<."
};
