/* XPM */
static char *_28[] = {
/* columns rows colors chars-per-pixel */
"48 48 92 1 ",
"  c #020202",
". c #0B0B0B",
"X c #141414",
"o c #1B1B1B",
"O c #242424",
"+ c #2B2B2B",
"@ c #343434",
"# c #3B3B3B",
"$ c #434343",
"% c #4B4B4B",
"& c #4F5050",
"* c #525252",
"= c #5B5C5C",
"- c #5F5F60",
"; c #5C6468",
": c #5C6C73",
"> c #626363",
", c #676869",
"< c #6C6D6D",
"1 c #6B7073",
"2 c #60727A",
"3 c #69757B",
"4 c #6B797F",
"5 c #747475",
"6 c #757A7C",
"7 c #7B7C7C",
"8 c #807F7F",
"9 c #717F85",
"0 c #7D868B",
"q c #748C96",
"w c #7C8990",
"e c #7F9097",
"r c #7D939C",
"t c #7D99A4",
"y c #848485",
"u c #838688",
"i c #87898B",
"p c #8B8B8C",
"a c #8E9092",
"s c #81939A",
"d c #8D979B",
"f c #949494",
"g c #989797",
"h c #979798",
"j c #969B9D",
"k c #9C9C9C",
"l c #809FAC",
"z c #989EA0",
"x c #9CA2A5",
"c c #93A6AD",
"v c #97A8AF",
"b c #9EAAAF",
"n c #95A9B1",
"m c #9AB0B9",
"M c #A3A4A4",
"N c #A4A7A8",
"B c #ABABAB",
"V c #AEAFB0",
"C c #B0AFB0",
"Z c #ADB1B3",
"A c #A1B6BE",
"S c #B3B3B4",
"D c #B8B7B7",
"F c #B5B8B9",
"G c #BBBCBC",
"H c #97B7C5",
"J c #9EBFCD",
"K c #9EC1D0",
"L c #A3C1CE",
"P c #A3C5D4",
"I c #A8C4D0",
"U c #A8C8D5",
"Y c #A4CBDB",
"T c #A9CBDA",
"R c #B2CEDB",
"E c #AED0DE",
"W c #B5D8E6",
"Q c #B5D9E8",
"! c #BBDEED",
"~ c #C4C4C4",
"^ c #CBCBCC",
"/ c #D0CFCF",
"( c #D0D0CF",
") c #D2D3D3",
"_ c #D7D8D8",
"` c #DCDBDB",
"' c #DFE0E0",
"] c #E4E4E4",
"[ c #EBEBEB",
"{ c #F4F4F4",
"} c #FFFFFF",
"| c None",
/* pixels */
"|||||||||||||||||||||||%<6pp||||||||||||||||||||",
"||||||||||||||||||||||X=]}}_k|||||||||||||||||||",
"|||||||||||||||@.||||||={}}}_%||||||||||||||||||",
"|||||||||||O>5hfO||||||#]}}}}B||||||||||||||||||",
"|||||||||||*_}}[#||||||+G}}}}[i#||||||||||||||||",
"|||||||||||k{}}{=|||||||y}}}}}]a||||||||||||||||",
"|||||||||||S{}}}fO||||||*}}}}}})%|||||||||||||||",
"|||||||||||k}}}}~O||||||#]}}}}}}B|||||||||||||||",
"|||||||||||^}}}}]#||||||OS{][}}}{M%|||||||||||||",
"||||||||||$`}}}}{-||||||$*5pfpB)]]k|||||||||||||",
"||||||||||p]}}}}}pO|iakMF__GSSi5yNS$||||||||||||",
"||||||||||<}}}}[B,=k~[}}}}}}}{}'Bg8%X|||||||||||",
"||||||||||i}}}`kk^}}}}}}}}}}}}}}}[^6+ ||||||||||",
"||||||||||G}{S5a_}}}}}}}}}}}}}}}}}}{N% |||||||||",
"|||||||||$^}Sy~}}}}}}}}}}}}}}}}}}}}}}~*|||||||||",
"||||||||||^~p^}}}}}}}}}}}}}}}}}}}}}}}}^-||||||||",
"|||||||||>SiS}}}}}}}}}}}}}}}}}}}}}}}}}}~7|||||||",
"|||||||||%5C}}}}}}}}}}}}}}}}}}}}}}}}}}}}~@||||||",
"|||||||||+p[}}}}}}}}}}}}}}}}}}}}}}}}}}}}}i||||||",
"|||||||| $)}}}}}}}}}}}}}'~~_[{}}}}}}}}}}}),|||||",
"||||||||oy}}}}}}}}}}}`N64eq90x^{}}}}}}}}}{B+||||",
"||||||||@^}}}}}}}}}})hsHPPTWJtwB[}}}}}}}}}[%||||",
"||||||||i[}}}}}}}}}~9tPLAAbcIQJqf{}}}}}}}}}7||||",
"|||||||@k}}}}}}}}}_7tTnzG/`(jm!Y2G{}}}}}}}}B||||",
"||||||||~}}}}}}}}{jq!mV]}}}}]NnUl0/}}}}}}}}_>|||",
"|||||||$]}}}}}}}}`0JRx_}}}}}}`h30<f}}}}}}}}}=|||",
"|||||||5{}}}}}}}}FrWAZ}}}}}}}}`a_^6}}}}}}}}}>|||",
"|||||||B]}}}}}}}}FqPeG}}}}}}}}}N~]6[}}}}}}}}5|||",
"|||||||5{}}}}}}}{B:d;_}}}}}}}}})SGf^}}}}}}}[S|||",
"|||||||=}}}}}}}}}ku(M[}}}}}}}}}{~pa)}}}}}}}}p|||",
"|||||||,{}}}}}}}}Nk)S_}}}}}}}}}}_<5{}}}}}}}}>|||",
"|||||||<)}}}}}}}}(fGS_}}}}}}}}}}}=,[}}}}}}}`p|||",
"||||||||B}}}}}}}}{Mhk`}}}}}}}}}}'>>h~{}}}}}~*|||",
"||||||||p}}}}}}}}})6>(}}}}}}}}}[hh)Sik_}}}}G||||",
"||||||||5{}}}}}}}}}B*g{}}}}}}}]ka`}}_h7S[}}<||||",
"||||||||=~}}}}}}}}}^&-B/{}}{{)kh_}}}}{Syf)~%||||",
"|||||||||7{}}}}}}}{Mh^fpifSM7<k]}}}}}}}_M6*O||||",
"|||||||||@~}}}}}}}^i_}{(~ChB){}}}}}}}}}}{(5X||||",
"||||||||||y[}}}}}[fB{}}}}{}}}}}}}}}}}}}}}})=||||",
"|||||||||||S[}}}}Si_}}}}}}}}}}}}}}}}}}}})p%|||||",
"||||||||||||k}}}]yC}}}}}}}}}}}}}}}}}}}{S7|||||||",
"|||||||||||||S}}Ma{}}}}}}}}}}}}}}}}{)k>+||||||||",
"|||||||||||||%N~0~}}}}}}}}}}}}}}}{)^N|||||||||||",
"||||||||||||||$%k{}}}}}}}}}}}}{^f=@|||||||||||||",
"|||||||||||||||+G}}{{}}[`[]~M5%$@|||||||||||||||",
"|||||||||||||||#,,5Sy56k|*@+@|||||||||||||||||||",
"||||||||||||||||||||||||||||||||||||||||||||||||",
"||||||||||||||||||||||||||||||||||||||||||||||||"
};
