/* XPM */
static char *_30[] = {
/* columns rows colors chars-per-pixel */
"48 48 112 2 ",
"   c #140002",
".  c #1F0004",
"X  c #230004",
"o  c #2B0005",
"O  c #320006",
"+  c #3A0007",
"@  c #3F040B",
"#  c #430008",
"$  c #4A0009",
"%  c #53000A",
"&  c #5C000B",
"*  c #64000C",
"=  c #6C000D",
"-  c #74000E",
";  c #7C000F",
":  c #7D0010",
">  c #7E2734",
",  c #75505D",
"<  c #795A66",
"1  c #7E5C68",
"2  c #716773",
"3  c #716A75",
"4  c #840111",
"5  c #8B0011",
"6  c #930012",
"7  c #9D0013",
"8  c #920C1D",
"9  c #9F0C1F",
"0  c #A40014",
"q  c #AB0015",
"w  c #AE0519",
"e  c #A3081B",
"r  c #AE0B1E",
"t  c #B30016",
"y  c #BB0016",
"u  c #B20419",
"i  c #BC0218",
"p  c #8C0F20",
"a  c #821E2C",
"s  c #9E1224",
"d  c #B60F24",
"f  c #A41226",
"g  c #A01729",
"h  c #AC1C2F",
"j  c #B31328",
"k  c #BB1229",
"l  c #B5182B",
"z  c #AA1E31",
"x  c #842736",
"c  c #912535",
"v  c #A22132",
"b  c #A0283A",
"n  c #C40017",
"m  c #C40018",
"M  c #CC0019",
"N  c #D80017",
"B  c #D4011A",
"V  c #DC001B",
"C  c #EB0016",
"Z  c #E3001B",
"A  c #EB001C",
"S  c #F4001E",
"D  c #FF001F",
"F  c #C60920",
"G  c #D20922",
"H  c #D9142D",
"J  c #E10A24",
"K  c #FF0020",
"L  c #803441",
"P  c #933242",
"I  c #A23A4B",
"U  c #B53244",
"Y  c #B1394C",
"T  c #8B414F",
"R  c #914455",
"E  c #9A505F",
"W  c #9B5361",
"Q  c #B56878",
"!  c #7A7C88",
"~  c #76828D",
"^  c #7D98A4",
"/  c #8B828E",
"(  c #918392",
")  c #988591",
"_  c #82929F",
"`  c #A78C99",
"'  c #8C96A5",
"]  c #A09DA8",
"[  c #84A6B3",
"{  c #88A5B1",
"}  c #94AFBB",
"|  c #9CAFBD",
" . c #A6AAB7",
".. c #8CB7C5",
"X. c #99BAC7",
"o. c #A0BCC8",
"O. c #B2B5C3",
"+. c #95C4CF",
"@. c #9EC3CE",
"#. c #9DC8D6",
"$. c #9FCDDA",
"%. c #B1C9D6",
"&. c #B0CFDB",
"*. c #A5D4DF",
"=. c #ACD5E2",
"-. c #ABD9E6",
";. c #B4D6E4",
":. c #BBE1ED",
">. c #BAE5F3",
",. c #BBE8F7",
"<. c #C3E3F0",
"1. c None",
/* pixels */
"1.1.1.1.1.1.1.1.1.1.1.1.1.1.1.1.1.1.1.1.1.1.1.1.1.1.1.1.1.1.1.1.1.1.1.1.1.1.1.1.1.1.1.1.1.1.1.1.",
"1.1.1.1.1.1.1.1.1.1.1.1.1.1.1.1.o 1.1.1.1.. o 1.1.1.1.1.1.1.1.1.1.1.1.1.1.1.1.1.1.1.1.1.1.1.1.1.",
"1.1.1.1.1.1.1.1.1.1.1.1.- = 6 t 0 0 q y m q 0 5 : - * & & 1.1.1.1.1.1.1.1.1.1.1.1.1.1.1.1.1.1.1.",
"1.1.1.1.1.1.1.1.1.1.1.+ 0 D D S K K K K D D S D K S S B q 4 & + 1.1.1.1.1.1.1.1.1.1.1.1.1.1.1.1.",
"1.1.1.1.1.1.1.1.1.1.1.+ ; Z K D K K D D D D D D D D D K D D S V m 0 1.1.1.1.1.1.1.1.1.1.1.1.1.1.",
"1.1.1.1.1.1.1.1.1.1.# 7 0 q S K D K D D D D D D D D D D D D D D S V t - 1.1.1.1.1.1.1.1.1.1.1.1.",
"1.1.1.1.1.1.1.1.1.1.5 S S 0 m D D D D D D D D D D D D D D D D D D D K D B 7 * o 1.1.1.1.1.1.1.1.",
"1.1.1.1.1.1.1.1.1.5 Z K K B 6 M K D D D D D D D D D D D D D D D D D D K D S B 5 1.1.1.1.1.1.1.1.",
"1.1.1.1.1.1.1.1.0 M K D D D i 0 A K D D K K K K D D D D D D D D D D D D D K S q + 1.1.1.1.1.1.1.",
"1.1.1.1.1.1.1.$ i D D D D D S q m S K K K S A Z S D K K D D D D D D D D D Z t ; o 1.1.1.1.1.1.1.",
"1.1.1.1.1.1.1.6 S D D D D D K V 0 B K S m q q q 7 7 q M S D D D D D K D B 7 u M 5 1.1.1.1.1.1.1.",
"1.1.1.1.1.1.1.M K D D D K K K K m 0 M 6 q M B A S Z M t i A D D D K S m 0 m S K 0 1.1.1.1.1.1.1.",
"1.1.1.1.1.1.= A K D D D D D K K K 4 - B S K K D D D S V q 0 Z D K Z u 0 A D D K V 1.1.1.1.1.1.1.",
"1.1.1.1.1.1.6 K D D D D D K K K B : 5 K K D D D D D K K S i 7 A M 0 m S D D D D K 6 1.1.1.1.1.1.",
"1.1.1.1.1.- M D D D D D D D K Z u 5 i K D D D D D D D D D S q ; 7 M D K D D D D D i O 1.1.1.1.1.",
"1.1.1.1.1.4 A D D D D D D D K t t u B S D D D D D D D D D D q * m K D D D D D D K Z * 1.1.1.1.1.",
"1.1.1.1.1.6 D D D D D D D D K 7 V m G D D D D D D D D D D S w - M D D D D D D D K Z 0 1.1.1.1.1.",
"1.1.1.1.1.6 K D D D D D D D D 6 Z N M D D D D D D D D D D A i 6 m S D D D D D D D S : 1.1.1.1.1.",
"1.1.1.1.1.6 K D D D D D D D A 4 l B m D D D D D D D D D D B n n i D D D D D D D D D ; 1.1.1.1.1.",
"1.1.1.1.O 6 K D D D D D D D Z x 3 T 8 S D D D D D D D D S u B M 0 D D D D D D D D K : 1.1.1.1.1.",
"1.1.1.1.1.7 S D D D D D D D C P ..$.E Z D D D D D D D D V w Z y 0 D D D D D D D D S 5 1.1.1.1.1.",
"1.1.1.1.1.7 S K D D D D D D D 9 ' ,.` H D D D D D D D C g > x a M D D D D K D D K Z 5 1.1.1.1.1.",
"1.1.1.1.1.* D D D D D K D D D N 1 =.&.I Z D D D D D C h / $.^ b A D D D D D D D K M 5 1.1.1.1.1.",
"1.1.1.1.1.$ B D D D D D D D D S s ^ ,. .Y Z S D D C h ) >.-., G D D D D D D D D K t 1.1.1.1.1.1.",
"1.1.1.1.1.1.w D D D D D D D D D C x { :. .Q b l v E ] :.;.3 r S D D D D D D D D K 7 1.1.1.1.1.1.",
"1.1.1.1.1.1.4 D D D D D D D D D S N c ~ #.*.%.@.%.;.-.} < e D D D D D D D D D D K = 1.1.1.1.1.1.",
"1.1.1.1.1.1.- B D D D D D D D D D D S k R ) | | [ ~ 1 x y S D D D D D D K D D S M # 1.1.1.1.1.1.",
"1.1.1.1.1.1.  6 D D D D D D D D D D D S N r 8 p g d n C D D D D D D D D D D K A m 1.1.1.1.1.1.1.",
"1.1.1.1.1.1.1.+ B D D D D D D D D D D D D D D D S S D D D D D D D D D D D D K t 1.1.1.1.1.1.1.1.",
"1.1.1.1.1.1.1.X 5 A D D D D D D D D D D D D D D D D D D D D D D D D D D D K V = 1.1.1.1.1.1.1.1.",
"1.1.1.1.1.1.1.* 4 u S D D D D D D D D D D D D D D D D D D D D D D D D K D S 5 1.1.1.1.1.1.1.1.1.",
"1.1.1.1.1.1.1.% 6 q n S D D D D D D D D D D D D D D D D D D D D D D D K S w # 1.1.1.1.1.1.1.1.1.",
"1.1.1.1.1.1.1.1.u M 6 i S D D D D D D D D D D D D D D D D D D D D D K S 7 # 1.1.1.1.1.1.1.1.1.1.",
"1.1.1.1.1.1.1.1.- S B 5 7 Z D D D D D D D D D D D D D D D K D D D D A 5 # 1.1.1.1.1.1.1.1.1.1.1.",
"1.1.1.1.1.1.1.1.1.Z D Z 0 6 n A D D D D D D D D D D D D S K K K S B 6 + 1.1.1.1.1.1.1.1.1.1.1.1.",
"1.1.1.1.1.1.1.1.1.i K D S m 7 t Z D K K K D D D D D K K K K K B t 0 4 1.1.1.1.1.1.1.1.1.1.1.1.1.",
"1.1.1.1.1.1.1.1.1.5 K D K S V 0 - - 0 M V S D K K D S A Z i 0 q n B = 1.1.1.1.1.1.1.1.1.1.1.1.1.",
"1.1.1.1.1.1.1.1.1.4 A K D D K K 0 # 1.1.t q 0 6 0 t i 0 7 n B A S q 1.1.1.1.1.1.1.1.1.1.1.1.1.1.",
"1.1.1.1.1.1.1.1.1.= V K D D K K 5 1.1.1.1.1.1.# 5 M M Z S S K K t % 1.1.1.1.1.1.1.1.1.1.1.1.1.1.",
"1.1.1.1.1.1.1.1.1.+ B K D K K S - 1.1.1.1.1.1.# i D D D D K K B = 1.1.1.1.1.1.1.1.1.1.1.1.1.1.1.",
"1.1.1.1.1.1.1.1.1.1.t K K D K S % 1.1.1.1.1.1.$ V D D D D K S 4 1.1.1.1.1.1.1.1.1.1.1.1.1.1.1.1.",
"1.1.1.1.1.1.1.1.1.1.4 S D D K V % 1.1.1.1.1.1.% S D D D K K M $ 1.1.1.1.1.1.1.1.1.1.1.1.1.1.1.1.",
"1.1.1.1.1.1.1.1.1.1.1.V K K K i # 1.1.1.1.1.1.= S D D D D Z ; 1.1.1.1.1.1.1.1.1.1.1.1.1.1.1.1.1.",
"1.1.1.1.1.1.1.1.1.1.= M K K K 0 1.1.1.1.1.1.1.4 D D D D A t 1.1.1.1.1.1.1.1.1.1.1.1.1.1.1.1.1.1.",
"1.1.1.1.1.1.1.1.1.1.o 4 q m V - 1.1.1.1.1.1.# q D D D K y : 1.1.1.1.1.1.1.1.1.1.1.1.1.1.1.1.1.1.",
"1.1.1.1.1.1.1.1.1.1.1.1.1.5 4 + 1.1.1.1.1.1.# M D K K V * 1.1.1.1.1.1.1.1.1.1.1.1.1.1.1.1.1.1.1.",
"1.1.1.1.1.1.1.1.1.1.1.1.1.1.1.1.1.1.1.1.1.1.X ; q m Z 5 1.1.1.1.1.1.1.1.1.1.1.1.1.1.1.1.1.1.1.1.",
"1.1.1.1.1.1.1.1.1.1.1.1.1.1.1.1.1.1.1.1.1.1.1.1.1.& * o 1.1.1.1.1.1.1.1.1.1.1.1.1.1.1.1.1.1.1.1."
};
