/* XPM */
static char *_38[] = {
/* columns rows colors chars-per-pixel */
"48 48 108 2 ",
"   c #1D0003",
".  c #230004",
"X  c #290005",
"o  c #340006",
"O  c #390007",
"+  c #310409",
"@  c #430008",
"#  c #4C0009",
"$  c #54000A",
"%  c #5C000B",
"&  c #63000C",
"*  c #6B000D",
"=  c #73000E",
"-  c #7D000F",
";  c #751724",
":  c #7F2332",
">  c #792836",
",  c #7C323F",
"<  c #6F4450",
"1  c #6F4854",
"2  c #7F4D5B",
"3  c #77515E",
"4  c #7A5360",
"5  c #795F6A",
"6  c #7D6C79",
"7  c #80000F",
"8  c #850111",
"9  c #8B0011",
"0  c #930012",
"q  c #9C0113",
"w  c #A40014",
"e  c #AB0015",
"r  c #AD061A",
"t  c #AC081C",
"y  c #B40016",
"u  c #BB0017",
"i  c #B40418",
"p  c #BF091E",
"a  c #8C0F20",
"s  c #821E2B",
"d  c #9F1D2F",
"f  c #BA0F25",
"g  c #A01426",
"h  c #A91326",
"j  c #A71E31",
"k  c #B61F32",
"l  c #BB1E32",
"z  c #8B2534",
"x  c #872C3C",
"c  c #962E3F",
"v  c #9E2939",
"b  c #A52437",
"n  c #C20017",
"m  c #C40118",
"M  c #CB0119",
"N  c #CB081F",
"B  c #DD0017",
"V  c #D4001A",
"C  c #DC011B",
"Z  c #E90017",
"A  c #E4001C",
"S  c #EC001D",
"D  c #F4001D",
"F  c #FF001F",
"G  c #C20E26",
"H  c #D90620",
"J  c #C91229",
"K  c #E00520",
"L  c #FF0020",
"P  c #833040",
"I  c #AF3B4D",
"U  c #8B4554",
"Y  c #8E505D",
"T  c #93727D",
"R  c #7D7783",
"E  c #797885",
"W  c #8E7B86",
"Q  c #789DA9",
"!  c #8B828F",
"~  c #808995",
"^  c #8C8E9C",
"/  c #9E8390",
"(  c #A6808E",
")  c #999AA5",
"_  c #9CA2AD",
"`  c #89AAB5",
"'  c #9FAAB7",
"]  c #A7A2AE",
"[  c #B7ADBA",
"{  c #92B3C1",
"}  c #9AB6C4",
"|  c #9ABBC7",
" . c #9EC1CE",
".. c #94C4D0",
"X. c #A0C5D2",
"o. c #A9CAD6",
"O. c #A1CDDB",
"+. c #B4C6D3",
"@. c #A4D0DD",
"#. c #A6D2E1",
"$. c #ACD5E2",
"%. c #ACDEEE",
"&. c #B0D7E3",
"*. c #B5DEEB",
"=. c #BBE0ED",
"-. c #C1E2EF",
";. c #C4EBF8",
":. c None",
/* pixels */
":.:.:.:.:.:.:.:.:.:.:.:.:.:.:.:.:.:.:.:.:.:.:.:.:.:.:.:.:.:.:.:.:.:.:.:.:.:.:.:.:.:.:.:.:.:.:.:.",
":.:.:.:.:.:.:.:.:.:.:.:.:.:.:.:.:.:.:.:.:.:.:.:.:.:.:.:.:.:.:.:.:.:.:.:.:.:.:.:.:.:.:.:.:.:.:.:.",
":.:.:.:.:.:.:.:.:.:.:.:.:.:.:.:.:.:.$ % & % & % % * :.:.8 $ o :.:.:.:.:.:.:.:.:.:.:.:.:.:.:.:.:.",
":.:.:.:.:.:.:.:.:.:.:.:.:.:.:.# * 9 e m C S S D D S A V V V m m 9 * # :.:.:.:.:.:.:.:.:.:.:.:.:.",
":.:.:.:.:.:.:.:.:.:.X $ 9 e M A D L L F F F F F F F F L F F F D L F m @ :.:.:.:.:.:.:.:.:.:.:.:.",
":.:.:.:.:.:.:.:.:.w w C D L L F F L F F F F F F F F F F F F F F L D q O :.:.:.:.:.:.:.:.:.:.:.:.",
":.:.:.:.:.:.:.8 y C D L L L F F F F F F F F F F F F F F F F F F D e e q * :.:.:.:.:.:.:.:.:.:.:.",
":.:.:.:.:.:.$ u L L L F F F F F F F F F F F F F F F F F F F F L m q A F q :.:.:.:.:.:.:.:.:.:.:.",
":.:.:.:.:.:.. = m D L F F F F F F F F F F F F F F F F F F F L C e V F F S y :.:.:.:.:.:.:.:.:.:.",
":.:.:.:.:.:.- w w y D L F F F F F F F L F F F F F F L F F F S e m L F F L V - :.:.:.:.:.:.:.:.:.",
":.:.:.:.:.@ q F A e w C L F D L F L S m e w q r m A D L L L y u D L F F L F u $ :.:.:.:.:.:.:.:.",
":.:.:.:.:.:.V L L S y q V L L L D V e u M B A M e q e V D m w S F F F F F F S q :.:.:.:.:.:.:.:.",
":.:.:.:.:.9 F F F F D M w M L L n w m S F F F F L S u q w q A L F F F F F F F m O :.:.:.:.:.:.:.",
":.:.:.:.:.M L F F F L D V q y m q C L L F F F F F L L M $ q L L F F F F F F F S % :.:.:.:.:.:.:.",
":.:.:.:.& S F F F F F L L A 9 = A L L F F F F F F F F D * 9 S F F F F F F F L L - :.:.:.:.:.:.:.",
":.:.:.:.0 L F F F F F L L L 0 = D F F F F F F F F F L D w 0 M D F F F F F L L L w :.:.:.:.:.:.:.",
":.:.:.:.n D F F F F F F F Z 0 0 A F L F F F F F F F F Z m u i S F F F F F F F L e :.:.:.:.:.:.:.",
":.:.:.o n F F F F F F F L n e t C F F F F F F F F F F V m V r C F F F F F F F L u :.:.:.:.:.:.:.",
":.:.:.@ n F F F F F F F L i u N N D F F F F F F F F F V M A w M F F F F F F F L m 9 :.:.:.:.:.:.",
":.:.:.& m L F F F F F F F n u A M A L F F F F F F F F m q d s M L F F F F F F L V 8 :.:.:.:.:.:.",
":.:.:.:.u F F F F F F F F N w C m m F F F F F F F F D h 5 ^ 2 B L F F F F F F L B * :.:.:.:.:.:.",
":.:.:.:.r L F F F F F F F B ; 1 U z A F F F F F F F A Y @. .x D F F F F F F F F V @ :.:.:.:.:.:.",
":.:.:.:.e L F F F F F F F D j Q %.) l F F F F F F D k ' -.Q t F F F F F F F D L C :.:.:.:.:.:.:.",
":.:.:.:.9 L F F F F F F F F V < #.-.( G Z F F F D J T =.' , Z F F F F F F F L L q :.:.:.:.:.:.:.",
":.:.:.:.% D F F F F F F F F F t 6 @.=./ I J m p v ! &. .3 N F F F F F F F F L L * :.:.:.:.:.:.:.",
":.:.:.:.+ m F F F F F F F F F D g 6 ..=.+.[ ] ' o.=.' 2 t D F F F F F F F F L M :.:.:.:.:.:.:.:.",
":.:.:.:.:.w D F F F F F F F F F F t U ! ` ..@.@.` Q ; u D F F F F F F F F F F 9 :.:.:.:.:.:.:.:.",
":.:.:.:.:.% V F F F F F F F F F F F B f b c x : a u Z F F F F F F F F F F L C 8 :.:.:.:.:.:.:.:.",
":.:.:.:.:.. 0 S F F F F F F F F F F F F Z D D D F F F F F F F F F F F F L L q + :.:.:.:.:.:.:.:.",
":.:.:.:.:.:.- y F F F F F F F F F F F F F F F F F F F F F F F F F F F F L M % :.:.:.:.:.:.:.:.:.",
":.:.:.:.:.:.:.= V F F F F F F F F F F F F F F F F F F F F F F F F F F F A 9 . :.:.:.:.:.:.:.:.:.",
":.:.:.:.:.:.:.:.= Z F F F F F F F F F F F F F F F F F F F F F F F F L S e * :.:.:.:.:.:.:.:.:.:.",
":.:.:.:.:.:.:.:.  = A L L F F F F F F F F F F F F F F F F F F F F L D y w - :.:.:.:.:.:.:.:.:.:.",
":.:.:.:.:.:.:.:.:.  8 C F L F F F F F F F F F F F F F F F F F F L S e y V = :.:.:.:.:.:.:.:.:.:.",
":.:.:.:.:.:.:.:.:.  = 0 m D F F F F L L F F F F F F F F L L L D M 0 y F y :.:.:.:.:.:.:.:.:.:.:.",
":.:.:.:.:.:.:.:.:.:.* y w 0 M D F L L L F F F F F F F F L D M w y B L L - :.:.:.:.:.:.:.:.:.:.:.",
":.:.:.:.:.:.:.:.:.:.:.y B m 9 0 m A A D L L L L L D D C M u y V L L L C & :.:.:.:.:.:.:.:.:.:.:.",
":.:.:.:.:.:.:.:.:.:.:.* M L S m 0 9 w e w w e y u y q = 9 M S D L L L u :.:.:.:.:.:.:.:.:.:.:.:.",
":.:.:.:.:.:.:.:.:.:.:.:.y S L L L A m y - $ :.:.:.:.:.:.9 L L F D L D q :.:.:.:.:.:.:.:.:.:.:.:.",
":.:.:.:.:.:.:.:.:.:.:.:.:.u L L L L L L y @ :.:.:.:.:.:.- D L F L L A q :.:.:.:.:.:.:.:.:.:.:.:.",
":.:.:.:.:.:.:.:.:.:.:.:.:.* A L F F L F M # :.:.:.:.:.:.* F F F F F M % :.:.:.:.:.:.:.:.:.:.:.:.",
":.:.:.:.:.:.:.:.:.:.:.:.:.:.e L L F F F B # :.:.:.:.:.:.% D L F F L y :.:.:.:.:.:.:.:.:.:.:.:.:.",
":.:.:.:.:.:.:.:.:.:.:.:.:.:.% S L F L L S # :.:.:.:.:.:.$ S F F F D = :.:.:.:.:.:.:.:.:.:.:.:.:.",
":.:.:.:.:.:.:.:.:.:.:.:.:.:.:.y L F F L L $ :.:.:.:.:.:.$ A L L L V O :.:.:.:.:.:.:.:.:.:.:.:.:.",
":.:.:.:.:.:.:.:.:.:.:.:.:.:.:.* C L L L D * :.:.:.:.:.:.# B L L L q :.:.:.:.:.:.:.:.:.:.:.:.:.:.",
":.:.:.:.:.:.:.:.:.:.:.:.:.:.:.:.y D L L L = :.:.:.:.:.:.O 9 e 0 9 @ :.:.:.:.:.:.:.:.:.:.:.:.:.:.",
":.:.:.:.:.:.:.:.:.:.:.:.:.:.:.:.* m A V m % :.:.:.:.:.:.:.@ :.:.:.:.:.:.:.:.:.:.:.:.:.:.:.:.:.:.",
":.:.:.:.:.:.:.:.:.:.:.:.:.:.:.:.X % 9 9 :.:.:.:.:.:.:.:.:.:.:.:.:.:.:.:.:.:.:.:.:.:.:.:.:.:.:.:."
};
