/* XPM */
static char *_4[] = {
/* columns rows colors chars-per-pixel */
"48 48 84 1 ",
"  c #020202",
". c #090909",
"X c #141414",
"o c #1D1D1D",
"O c #232323",
"+ c #2B2B2B",
"@ c #323232",
"# c #3B3B3B",
"$ c #3C4447",
"% c #424242",
"& c #44484A",
"* c #4B4B4B",
"= c #535353",
"- c #5D5D5D",
"; c #4E5D64",
": c #505C60",
"> c #536066",
", c #586367",
"< c #586469",
"1 c #636363",
"2 c #6B6B6B",
"3 c #647177",
"4 c #6B7072",
"5 c #60767F",
"6 c #6C7579",
"7 c #737373",
"8 c #70777A",
"9 c #7B7B7B",
"0 c #657C86",
"q c #667E88",
"w c #7D7F80",
"e c #7D8182",
"r c #7D878C",
"t c #6E8791",
"y c #7A8C94",
"u c #748E99",
"i c #77949F",
"p c #7F9EAB",
"a c #838383",
"s c #868C8E",
"d c #8C8C8C",
"f c #838F95",
"g c #8D8F90",
"h c #899194",
"j c #86969D",
"k c #949494",
"l c #9C9C9C",
"z c #8C9DA4",
"x c #9FA2A3",
"c c #84A5B2",
"v c #8AADBC",
"b c #9CB4BE",
"n c #A4A4A4",
"m c #ABABAB",
"M c #AFB0B0",
"N c #B3B3B3",
"B c #BCBCBC",
"V c #93B3C1",
"C c #A0B7C1",
"Z c #A0BAC5",
"A c #A5C1CD",
"S c #A0C2D1",
"D c #A9CDDC",
"F c #B0CAD6",
"G c #B3D1DE",
"H c #B0D2E1",
"J c #B5D8E7",
"K c #B6DBEA",
"L c #BBDBE9",
"P c #B7DFF0",
"I c #BCE0EF",
"U c #BDE3F3",
"Y c #C4C4C4",
"T c #CDCDCD",
"R c #D4D4D4",
"E c #DBDBDB",
"W c #C1E4F3",
"Q c #CAEBF9",
"! c #E3E3E3",
"~ c #E8E7E7",
"^ c #EBEBEB",
"/ c #F4F4F4",
"( c #FFFFFF",
") c None",
/* pixels */
"))))))))))))))))))))))))))))))))))))))))))))))))",
"))))))))))))))))))))))))))))))))))))))))))))))))",
"))))))))))))))))))))))))))))))))))))))))))))))))",
"))))))))))))))))))))))))))))))))))))))))))))))))",
"))))))))))))))))))))))))))))))))))))))))))))))))",
"))))))))))))))))))))))))))))))))))))))))))))))))",
"))))))))))))))))))))))))))))))))))))))))))))))))",
")))))))))))))))))))))))))))))))o+#%=17dl2)))))))",
"))))))))))))))))+*-221*O. *kNBTR~^//((((E%))))))",
")))))))))))))%9Y~//(((/^Tl12Y/(((((((((((l))))))",
")))))))))))#m^((((((((((((/T22R((((((((((!#)))))",
")))))))))Ol/(((((((((((((((((B-k/(((((((R2X)))))",
"))))))))*R((((((((((((((((((((^97^((((E9o)))))))",
")))))))1~(((((((((((((((((((((((l2^(~a+)))))))))",
"))))))-^(((((((((((((((((((((((((l2k+)))))))))))",
")))))%~(((((((((((((((((((((((((((a ))))))))))))",
"))))OY((((((((((((((((((((((((((((/-))))))))))))",
"))))a((((((((((((((((((((((((((((((Ro))))))))X))",
")))@~((((((((((((~YmmB!(((((((((((((9))))))o2R7)",
")))d(((((((((((R7&0iuq:2Y(((((((((((E+))))-T((T+",
")oXd!/((((((((n-BByLQQIv;a/((((((((((7))=B/(((/d",
")9Yd11dY^((((n7~^Y7,jzbLK0a/(((((((((NON/((((((T",
")9((/!m7-7nEm%nkhmYTETmrZU0n(((((((((~-/((((((E#",
")#/(((((/Tk-O-N~(((((((~fAD,^((((((((/2R(((((/-)",
")OE((((((((B2/((((((((((EhWtM(((((((((9B((((/9))",
"))Y((((((((dN((((((((((((xFVa(((((((((kn((((n)))",
"))d((((((((7R((((((((((((BVD6(((((((((ll(((Bo)))",
"))=/(((((((2R((((((((((((mCH6/((((((((lk((E#))))",
"))oE(((((((7T(((((((((((/hGS8(((((((((kn(/=)))))",
")))k(((((((ln(((((((((((TjWpd(((((((((9m(7))))))",
")))=/((((((R2/(((((((((E6GP0T(((((((((2Tl)))))))",
")))XY(((((((9N((((((((^a3Uc4(((((((((^-mO)))))))",
"))))2(((((((E=E((((((EdYhv:E(((((((((Y++))))))))",
"))))+T(((((((Y=Y((((YdR(a$Y((((((((((a )))))))))",
")))))9((((((((T19T!ldETa1R((((((((((^@))))))))))",
")))))OR((((((((/N2+@124N/(((((((((((k ))))))))))",
"))))))2/(((((((((~=R!/(((((((((((((~+)))))))))))",
")))))))m(((((((((Na(((((((((((((((/7))))))))))))",
")))))))#!((((((((aB(((((((((((((((n)))))))))))))",
"))))))))2/((((((^-^((((((((((((((B+)))))))))))))",
")))))))))n((((((Y7((((((((((((((N+))))))))))))))",
")))))))))+Y(((((aN((((((((((((/lO)))))))))))))))",
"))))))))))#E(((/-^(((((((((((E2)))))))))))))))))",
")))))))))))=~((R7((((((((((Ed@))))))))))))))))))",
"))))))))))))*~(dk((((((/!N2@))))))))))))))))))))",
")))))))))))))1!%O=27971*+)))))))))))))))))))))))",
"))))))))))))))%o))))))))))))))))))))))))))))))))",
"))))))))))))))))))))))))))))))))))))))))))))))))"
};
