/* XPM */
static char *_41[] = {
/* columns rows colors chars-per-pixel */
"48 48 108 2 ",
"   c #140002",
".  c #250004",
"X  c #340006",
"o  c #380007",
"O  c #450008",
"+  c #4C0009",
"@  c #54000A",
"#  c #5C000B",
"$  c #63000C",
"%  c #6C000D",
"&  c #72000E",
"*  c #7B000F",
"=  c #700713",
"-  c #7F0010",
";  c #6F2531",
":  c #7A2532",
">  c #743A47",
",  c #794754",
"<  c #7C4856",
"1  c #61545D",
"2  c #7A5966",
"3  c #80000F",
"4  c #840010",
"5  c #8B0011",
"6  c #940012",
"7  c #9C0114",
"8  c #9D0C1E",
"9  c #A40014",
"0  c #AC0015",
"q  c #B40016",
"w  c #BB0017",
"e  c #B2071C",
"r  c #BC0219",
"t  c #861424",
"y  c #A70F22",
"u  c #A81326",
"i  c #BC162B",
"p  c #922131",
"a  c #912738",
"s  c #9F2C3D",
"d  c #83303F",
"f  c #8B303F",
"g  c #91303F",
"h  c #AF2035",
"j  c #BA2337",
"k  c #C10017",
"l  c #CB0017",
"z  c #C40119",
"x  c #CC0019",
"c  c #C4091F",
"v  c #D40012",
"b  c #D3001A",
"n  c #DB001B",
"m  c #E60016",
"M  c #E4001B",
"N  c #EC001D",
"B  c #F3001D",
"V  c #FF001F",
"C  c #C10B22",
"Z  c #CE0A23",
"A  c #DE0A24",
"S  c #CB162E",
"D  c #FF0020",
"F  c #803241",
"G  c #993A4A",
"H  c #B4384A",
"J  c #A0404F",
"K  c #815461",
"L  c #8C5160",
"P  c #895D6C",
"I  c #886B77",
"U  c #797782",
"Y  c #827886",
"T  c #B37C8B",
"R  c #7D8D98",
"E  c #7BA2AE",
"W  c #89818E",
"Q  c #948B96",
"!  c #AC8693",
"~  c #889AA6",
"^  c #819DAA",
"/  c #9A94A0",
"(  c #9F99A4",
")  c #A197A3",
"_  c #A09FAC",
"`  c #83A4AF",
"'  c #A9ADBA",
"]  c #A9B3BF",
"[  c #93B3C0",
"{  c #98B9C6",
"}  c #9DBFCC",
"|  c #9AC1CF",
" . c #9AC1D0",
".. c #A6C6D2",
"X. c #A3CFDD",
"o. c #B0CFDB",
"O. c #A0D2DE",
"+. c #B1D1DD",
"@. c #A4D5E0",
"#. c #AED3E0",
"$. c #ADD9E6",
"%. c #B1D7E5",
"&. c #B1DCE9",
"*. c #AFE3F3",
"=. c #B7E5F2",
"-. c #BDE8F5",
";. c #C2E8F6",
":. c None",
/* pixels */
":.:.:.:.:.:.:.:.:.:.:.:.:.:.:.:.:.:.:.:.:.:.:.:.:.:.:.:.:.:.:.:.:.:.:.:.:.:.:.:.:.:.:.:.:.:.:.:.",
":.:.:.:.:.:.:.:.:.:.:.:.:.:.:.:.:.:.:.:.:.:.:.:.:.:.:.:.:.:.:.:.:.:.:.:.:.:.:.:.:.:.:.:.:.:.:.:.",
":.:.:.:.:.:.:.:.:.:.:.:.:.:.:.:.:.:.:.# @ + @ 4 l 9 5 & 4 q - @ O :.:.:.:.:.:.:.:.:.:.:.:.:.:.:.",
":.:.:.:.:.:.:.:.:.:.:.:.:.:.:.O # & 5 q x N B N M N D D B M N B w o :.:.:.:.:.:.:.:.:.:.:.:.:.:.",
":.:.:.:.:.:.:.:.:.:.:.:.:.+ 4 w M D D D D V V D V V V V D D V V 9 O :.:.:.:.:.:.:.:.:.:.:.:.:.:.",
":.:.:.:.:.:.:.:.:.:.4 0 z M B V V V V V V V V V V V V V V V V r 9 0 - :.:.:.:.:.:.:.:.:.:.:.:.:.",
":.:.:.:.:.:.:.:.+ 5 l B D D V V V V V V V V V V V V V V V V n 7 x D l 7 :.:.:.:.:.:.:.:.:.:.:.:.",
":.:.:.:.:.:.$ 9 b D D V V V V V V V V V V V V V V V V V V V q q D D D n * :.:.:.:.:.:.:.:.:.:.:.",
":.:.:.:.:.6 b V D D D V V V V V V V V V V V V V V V V V V n 9 B D V V V z O :.:.:.:.:.:.:.:.:.:.",
":.:.:.:.:.& n D V V V V V V V V V V V V D V V V V D V V B 0 x D V V V V V 7 :.:.:.:.:.:.:.:.:.:.",
":.:.:.:.:.O 6 k V D V V V V V V V V B n w 0 r b n B V D r q B D V V V V V n 7 :.:.:.:.:.:.:.:.:.",
":.:.:.:.:.7 b 7 0 M V V V V V D B k 9 0 r b k 7 9 0 x b 9 n D D V V V V V V w O :.:.:.:.:.:.:.:.",
":.:.:.:.+ b D N 0 6 z B V V V M 0 9 b B V V V V N l 7 & 0 V V V V V V V V V B % :.:.:.:.:.:.:.:.",
":.:.:.:.9 N V D D x 0 0 n D N 0 r B V V V V V V V V b @ 9 V V V V V V D V V D 6 :.:.:.:.:.:.:.:.",
":.:.:.:.7 D V V V D N r 7 r r 0 N V V V V V V V V V B 3 4 b V V V V V V V V D q :.:.:.:.:.:.:.:.",
":.:.:.:.l D V V V V D V n 5 % M D V V V V V V V V V B c 9 q M V V V V V V V D b 5 :.:.:.:.:.:.:.",
":.:.:.@ M V V V V V D D V 9 % M V V V V V V V V V V N l l r z V V V V V V V V N 5 :.:.:.:.:.:.:.",
":.:.:.4 N V V V V V D D V 0 5 l V V V V V V V V V V N w v z 9 V V V V V V V V V 6 :.:.:.:.:.:.:.",
":.:.:.w M D V V V V V D M 9 e c B D V V V V V V V V V 0 M u 7 V V V V V V V V D 5 :.:.:.:.:.:.:.",
":.:.:.* B D V V V V V V N 7 n C n V V V V V V V V V B 3 g 1 u B V V V V V V D D 6 :.:.:.:.:.:.:.",
":.:.:.$ V V V V V V V V V 6 M v z V V V V V V V V V v K | ` h V V V V V V V V V r :.:.:.:.:.:.:.",
":.:.:.% V V V V V V V V V 7 c Z 7 l V V V V V V V V i / -.W e V V V V V V V V B 0 :.:.:.:.:.:.:.",
":.:.:.* M V V V V V V V D r ; 2 I G n V V V V V V m J o.o., n V V V V V V V D V & :.:.:.:.:.:.:.",
":.:.:.4 z D V V V V V V D M h E *.] H B V V V V B j ( -.R 8 V V V V V V V V D n % :.:.:.:.:.:.:.",
":.:.:.:.q D V V V V V V V V b >  .=.] G S A v c s Q &.` : m V V V V V V V V D w :.:.:.:.:.:.:.:.",
":.:.:.:.4 V V V V V V V V V V w 2 ] =.+.) T ! _ ..$.~ d x V V V V V V V V V D 9 :.:.:.:.:.:.:.:.",
":.:.:.:.+ M V V V V V V V V V V z F U | %.@.@.O.{ Y a b V V V V V V V V V V N = :.:.:.:.:.:.:.:.",
":.:.:.:.. 7 B D V V V V V V V V V N C p < P L F t q m V V V V V V V V V V D q . :.:.:.:.:.:.:.:.",
":.:.:.:.:.:.z D V V V V V V V V V V V V N v v N V V V V V V V V V V V V V N $ :.:.:.:.:.:.:.:.:.",
":.:.:.:.:.:.& V V V V V V V V V V V V V V V D D V V V V V V V V V V V D V 0 O :.:.:.:.:.:.:.:.:.",
":.:.:.:.:.:.o q V V V V V V V V V V V V V V V V V V V V V V V V V V D V x 6 * :.:.:.:.:.:.:.:.:.",
":.:.:.:.:.:.:.$ l V V V V V V V V V V V V V V V V V V V V V V V V V D M 0 q % :.:.:.:.:.:.:.:.:.",
":.:.:.:.:.:.:.:.4 l V V V V V V V V V D V V V V V V V V V V V V D V M 9 z b :.:.:.:.:.:.:.:.:.:.",
":.:.:.:.:.:.:.:.:.+ r D D V V V V V V V V V V V V V V V V V V D V x 7 r V 0 :.:.:.:.:.:.:.:.:.:.",
":.:.:.:.:.:.:.:.:.:.X 0 N D V V V V V V V V V V V V V V V V D N w 0 n V D 4 . :.:.:.:.:.:.:.:.:.",
":.:.:.:.:.:.:.:.:.:.  @ 7 l B V V V V V V V V V V V V D D V M w q M D V N 6 :.:.:.:.:.:.:.:.:.:.",
":.:.:.:.:.:.:.:.:.:.:.4 6 0 6 q M N D D D D D D D D N b q 5 7 k N D D V N $ :.:.:.:.:.:.:.:.:.:.",
":.:.:.:.:.:.:.:.:.:.:.:.5 x b 9 5 9 9 0 x n l w q q q 9 :.@ M D V V V D b @ :.:.:.:.:.:.:.:.:.:.",
":.:.:.:.:.:.:.:.:.:.:.:.:.6 D V M k q 0 6 4 @ :.:.:.:.:.:.+ b V V V V D 0 :.:.:.:.:.:.:.:.:.:.:.",
":.:.:.:.:.:.:.:.:.:.:.:.:.# x D D D D B D B % :.:.:.:.:.:.O q V V V V B 9 :.:.:.:.:.:.:.:.:.:.:.",
":.:.:.:.:.:.:.:.:.:.:.:.:.:.5 M D D V D D V 5 :.:.:.:.:.:.:.5 V V V D N 7 :.:.:.:.:.:.:.:.:.:.:.",
":.:.:.:.:.:.:.:.:.:.:.:.:.:.X 5 N D V V V V q + :.:.:.:.:.:.$ V V V V B $ :.:.:.:.:.:.:.:.:.:.:.",
":.:.:.:.:.:.:.:.:.:.:.:.:.:.:.:.0 D D V V V n + :.:.:.:.:.:.@ N V V D x o :.:.:.:.:.:.:.:.:.:.:.",
":.:.:.:.:.:.:.:.:.:.:.:.:.:.:.:.@ M D D V D B # :.:.:.:.:.:.O b V D D 9 :.:.:.:.:.:.:.:.:.:.:.:.",
":.:.:.:.:.:.:.:.:.:.:.:.:.:.:.:.:.9 B D V D D & :.:.:.:.:.:.O 7 b 0 5 @ :.:.:.:.:.:.:.:.:.:.:.:.",
":.:.:.:.:.:.:.:.:.:.:.:.:.:.:.:.:.@ r B D V D 7 :.:.:.:.:.:.:.o $ :.:.:.:.:.:.:.:.:.:.:.:.:.:.:.",
":.:.:.:.:.:.:.:.:.:.:.:.:.:.:.:.:.:.:.k D D N 9 X :.:.:.:.:.:.:.:.:.:.:.:.:.:.:.:.:.:.:.:.:.:.:.",
":.:.:.:.:.:.:.:.:.:.:.:.:.:.:.:.:.:.:.# 9 6 5 * :.:.:.:.:.:.:.:.:.:.:.:.:.:.:.:.:.:.:.:.:.:.:.:."
};
