/* XPM */
static char *_51[] = {
/* columns rows colors chars-per-pixel */
"48 48 112 2 ",
"   c #0C0001",
".  c #1D0003",
"X  c #250004",
"o  c #2A0005",
"O  c #330006",
"+  c #3A0007",
"@  c #450008",
"#  c #4A0009",
"$  c #55000A",
"%  c #5E000B",
"&  c #63000C",
"*  c #6D000D",
"=  c #74000E",
"-  c #7B000F",
";  c #7F0110",
":  c #78121E",
">  c #7B202D",
",  c #7F2F3D",
"<  c #6C333E",
"1  c #733E4B",
"2  c #744450",
"3  c #7B4653",
"4  c #794B57",
"5  c #7C5763",
"6  c #7A5A66",
"7  c #75616D",
"8  c #80000F",
"9  c #840110",
"0  c #8B0011",
"q  c #940012",
"w  c #9C0013",
"e  c #9B081A",
"r  c #A30014",
"t  c #AB0015",
"y  c #A5071B",
"u  c #B30016",
"i  c #BB0017",
"p  c #B50318",
"a  c #BB0218",
"s  c #9C0D20",
"d  c #9B1123",
"f  c #B60E23",
"g  c #A11527",
"h  c #AF1025",
"j  c #A61629",
"k  c #A9152A",
"l  c #B81227",
"z  c #B41529",
"x  c #BF152A",
"c  c #A92739",
"v  c #C30017",
"b  c #CE0013",
"n  c #C30018",
"m  c #CC0019",
"M  c #D30016",
"N  c #DA0017",
"B  c #D3011A",
"V  c #DC001B",
"C  c #E50017",
"Z  c #EF0017",
"A  c #E4001C",
"S  c #EB001D",
"D  c #F4001E",
"F  c #FF001F",
"G  c #C30B22",
"H  c #D10A23",
"J  c #DA0923",
"K  c #C8172F",
"L  c #C1182D",
"P  c #D61029",
"I  c #FF0020",
"U  c #813240",
"Y  c #8D3544",
"T  c #963748",
"R  c #A43243",
"E  c #834251",
"W  c #A94A5A",
"Q  c #815260",
"!  c #895B69",
"~  c #925F6C",
"^  c #AC606F",
"/  c #767885",
"(  c #8C7E8C",
")  c #73828E",
"_  c #7C939E",
"`  c #A28A96",
"'  c #A3939F",
"]  c #839CA7",
"[  c #8C9AA7",
"{  c #999AA5",
"}  c #9E9FAB",
"|  c #94A1AF",
" . c #9CADBC",
".. c #A6A8B5",
"X. c #A4AEBA",
"o. c #8FBCC8",
"O. c #9FB8C4",
"+. c #AFBDCA",
"@. c #B7BBC7",
"#. c #9EC5D3",
"$. c #9BCCD8",
"%. c #ADC1CC",
"&. c #A7CAD7",
"*. c #A3CEDC",
"=. c #AACDDB",
"-. c #ACDDEA",
";. c #B8D4E1",
":. c #B1DAE7",
">. c #B4DDEA",
",. c #BCE6F3",
"<. c #BBE8F7",
"1. c None",
/* pixels */
"1.1.1.1.1.1.1.1.1.1.1.1.1.1.1.1.1.1.1.1.1.1.1.1.. 1.1.1.1.1.1.1.1.1.1.1.1.1.1.1.1.1.1.1.1.1.1.1.",
"1.1.1.1.1.1.1.1.1.1.1.1.1.1.1.1.1.1.1.1.1.1.9 = r & 1.1.1.1.1.1.1.1.1.1.1.1.1.1.1.1.1.1.1.1.1.1.",
"1.1.1.1.1.1.1.1.1.1.1.1.1.1.1.1.1.1.1.& 8 m m F D 8 # 1.1.1.1.1.1.1.1.1.1.1.1.1.1.1.1.1.1.1.1.1.",
"1.1.1.1.1.1.1.1.1.1.1.1.1.1.1.X 1.u u A F F I I A r i t ; 1.1.1.1.1.1.1.1.1.1.1.1.1.1.1.1.1.1.1.",
"1.1.1.1.1.1.1.1.1.1.1.1.1.1.# 8 V A F I F F F F m r F F A i 9 o 1.1.1.1.1.1.1.1.1.1.1.1.1.1.1.1.",
"1.1.1.1.1.1.1.1.1.1.1.1.% - B F F I F F F F F F i u F F I I A 0 1.1.1.1.1.1.1.1.1.1.1.1.1.1.1.1.",
"1.1.1.1.1.1.1.1.1.1.& * i F I F F F F F F F F F t B I F F F F D v $ 1.1.1.1.1.1.1.1.1.1.1.1.1.1.",
"1.1.1.1.1.1.1.1.1.# q S I F F F F F F F F F I D r V F F F F F I D v % 1.1.1.1.1.1.1.1.1.1.1.1.1.",
"1.1.1.1.1.1.1.X $ i I F F F F F F F F F F F F A t D F F F F F F F I r - 1.1.1.1.1.1.1.1.1.1.1.1.",
"1.1.1.1.1.1.1.= A F F F F F F F F F F F F F F m t I F F F F F F F F F q 1.1.1.1.1.1.1.1.1.1.1.1.",
"1.1.1.1.1.1.a V F F F F F F F I F F F F F F F a u I I F F F F F F F I B 0 1.1.1.1.1.1.1.1.1.1.1.",
"1.1.1.1.* r A F F F F F F F F I F V B a u a B q n I F F F F F F F F F I t 1.1.1.1.1.1.1.1.1.1.1.",
"1.1.1.O q F I F F F F F F F I S r t u t v p w $ w S F I F I F F F F F F S 0 1.1.1.1.1.1.1.1.1.1.",
"1.1.1.t D I F F F F F F I F v w m S D I F F D 0 = w V I F F F F F F F F F p $ 1.1.1.1.1.1.1.1.1.",
"1.# q A I I F F F F F F F m t V F F F F F F I A t t p m I F F F F F F F F D & 1.1.1.1.1.1.1.1.1.",
"1.9 D I F F F F F F F I A w m F F F F F F F I D m n m w D F F F F F F F F D m 1.1.1.1.1.1.1.1.1.",
"1.0 m S F F I I F F F F p a I F F F F F F F F F m m N y u F F F F I F F F F t 1.1.1.1.1.1.1.1.1.",
"1.. = w r i v S D F F S q V F F F F F F F F F F A p H < g Z F F F F F F F I m # 1.1.1.1.1.1.1.1.",
"1.1.r D n t w w r p b v y D F F F F F F F F F F F w , [ Q S F F F F F F F F B 1.1.1.1.1.1.1.1.1.",
"1.+ u I I I F S B i t - = F F F F F F F F F F F F f _ -.5 B F F F F F F F F A $ 1.1.1.1.1.1.1.1.",
"1.1.i F F F F F I I F t = a F F F F F F F F F F F l | ,.7 V F F F F F F I I A 9 1.1.1.1.1.1.1.1.",
"1.1.u I F F F F I I I B 0 y N F F F F F F F F F F L X.>.4 N F F F F F F I I S @ 1.1.1.1.1.1.1.1.",
"1.1.t F F F F F F I I B t n n M F F F F F F F F Z c %.&.U D F F F F F I I I V $ 1.1.1.1.1.1.1.1.",
"1.1.w F I F F F F I I D e V V M m F F F F F F F A ~ :._ s D F F F F F I I I B + 1.1.1.1.1.1.1.1.",
"1.1.= D I F F F F F F F m r A l : l A F F F F M R %.=.2 b F F F F F F F F F i # 1.1.1.1.1.1.1.1.",
"1.1.1.B F F F F F F F F F w > 6  .{ W K m P L ^ +.$./ h D F F F F F F F F F t 0 1.1.1.1.1.1.1.1.",
"1.1.1.i F F F F F F F F F A d ) *.<.;...' ` @.$.$.` 0 C F F F F F F F F I A t u $ 1.1.1.1.1.1.1.",
"1.1.1.* F F F F F F F F F F C j E ] #.>.-.>.o.| E e A F F F F F F F F F I i t B 1.1.1.1.1.1.1.1.",
"1.1.1.$ v I I F F F F F F F F F M j Y 2 ! 4 T y M F F F F F F F F F F F D t V S & 1.1.1.1.1.1.1.",
"1.1.1.1.0 D F F F F F F F F F F F F Z A N S Z F F F F F F F F F F F F F a r F I = 1.1.1.1.1.1.1.",
"1.1.1.1.; u I F F F F F F F F F F F F F F F F F F F F F F F F F F F I S u V I D r 1.1.1.1.1.1.1.",
"1.1.1.1.1.0 V I F F F F F F F F F F F F F F F F F F F F F F F F I I A w v I I I w O 1.1.1.1.1.1.",
"1.1.1.1.1.1.- D F F F F F F F F F F F F F F F F F F F F F F F F F F n i D F F F m 1.1.1.1.1.1.1.",
"1.1.1.1.1.1.+ - V I F F F F F F F F F F F F F F F I F F F F F I F u r A F F F I m & 1.1.1.1.1.1.",
"1.1.1.1.1.1.1.1.w B I F F F F F F F F F F F F F F F F F I I I V w & m F F F F F A 1.1.1.1.1.1.1.",
"1.1.1.1.1.1.1.1.1.$ v D F F I F F F F F F F F F F F F F I D m t 1.1.= D F F F F A 0 1.1.1.1.1.1.",
"1.1.1.1.1.1.1.1.1.1.1.- V F F F F F F F F F F I I F F F m t 1.1.1.1.# u F F F F I = 1.1.1.1.1.1.",
"1.1.1.1.1.1.1.1.1.1.1.o - 9 a A F F F F F I F I D S B 0 0 1.1.1.1.1.1.$ S F F F F r 1.1.1.1.1.1.",
"1.1.1.1.1.1.1.1.1.1.1.1.1.  o & q i n v m n n t q w 9 & 1.1.1.1.1.1.1.+ 9 F F F I w + 1.1.1.1.1.",
"1.1.1.1.1.1.1.1.1.1.1.1.1.1.1.. - q u w r q r r m m D m $ 1.1.1.1.1.1.1.# n F F m * X 1.1.1.1.1.",
"1.1.1.1.1.1.1.1.1.1.1.1.1.1.1.1.1.= v F S F D I F I I F q @ 1.1.1.1.1.1.1.= V q & 1.1.1.1.1.1.1.",
"1.1.1.1.1.1.1.1.1.1.1.1.1.1.1.1.1.1.= w A I F I F F F F S & 1.1.1.1.1.1.1.o @ 1.1.1.1.1.1.1.1.1.",
"1.1.1.1.1.1.1.1.1.1.1.1.1.1.1.1.1.1.1.1.r m F I I F F F I i # 1.1.1.1.1.1.1.1.1.1.1.1.1.1.1.1.1.",
"1.1.1.1.1.1.1.1.1.1.1.1.1.1.1.1.1.1.1.1.1.@ u S I I I I I I ; 1.1.1.1.1.1.1.1.1.1.1.1.1.1.1.1.1.",
"1.1.1.1.1.1.1.1.1.1.1.1.1.1.1.1.1.1.1.1.1.1.1.= A I F F I I A $ 1.1.1.1.1.1.1.1.1.1.1.1.1.1.1.1.",
"1.1.1.1.1.1.1.1.1.1.1.1.1.1.1.1.1.1.1.1.1.1.1.1.r t D I I I D * o 1.1.1.1.1.1.1.1.1.1.1.1.1.1.1.",
"1.1.1.1.1.1.1.1.1.1.1.1.1.1.1.1.1.1.1.1.1.1.1.1.1.$ v B I m q 1.1.1.1.1.1.1.1.1.1.1.1.1.1.1.1.1.",
"1.1.1.1.1.1.1.1.1.1.1.1.1.1.1.1.1.1.1.1.1.1.1.1.1.1.1.& 0 0 1.1.1.1.1.1.1.1.1.1.1.1.1.1.1.1.1.1."
};
