/* XPM */
static char *_52[] = {
/* columns rows colors chars-per-pixel */
"48 48 89 1 ",
"  c #010101",
". c #0C0C0D",
"X c #171717",
"o c #1C1C1C",
"O c #242424",
"+ c #2D2D2D",
"@ c #323232",
"# c #3C3C3C",
"$ c #434343",
"% c #4B4B4B",
"& c #535353",
"* c #5B5C5C",
"= c #5A6368",
"- c #5F6D73",
"; c #636364",
": c #676A6C",
"> c #6B6C6C",
", c #646D72",
"< c #6B7276",
"1 c #6F7478",
"2 c #6E787C",
"3 c #727273",
"4 c #707679",
"5 c #76797A",
"6 c #7C7C7D",
"7 c #7E7F80",
"8 c #758186",
"9 c #7F8081",
"0 c #7B8589",
"q c #6F8A95",
"w c #7A8E95",
"e c #7F939C",
"r c #7897A4",
"t c #848484",
"y c #858B8D",
"u c #8B8B8B",
"i c #848D91",
"p c #8E9091",
"a c #85949A",
"s c #939394",
"d c #909698",
"f c #929A9E",
"g c #9C9C9C",
"h c #839BA5",
"j c #8E9EA5",
"k c #829EAA",
"l c #999FA2",
"z c #97A2A7",
"x c #9CA4A7",
"c c #9DA5A9",
"v c #96AAB3",
"b c #91B1BF",
"n c #9BB1BB",
"m c #A4A4A4",
"M c #A4A9AB",
"N c #ACACAC",
"B c #B0AFAF",
"V c #ADAFB0",
"C c #AFB1B2",
"Z c #A2B4BC",
"A c #B3B3B3",
"S c #B7B8B8",
"D c #BABABA",
"F c #C0BFBF",
"G c #94B6C5",
"H c #98B7C4",
"J c #99BBCA",
"K c #9FC1CF",
"L c #9CC1D0",
"P c #A2C1CE",
"I c #A4C7D6",
"U c #ADC9D5",
"Y c #ABCDDB",
"T c #B3D5E3",
"R c #C3C3C3",
"E c #CCCCCC",
"W c #D0CFCF",
"Q c #D4D4D4",
"! c #D8D8D7",
"~ c #D7D8D8",
"^ c #DCDCDC",
"/ c #C2E1EF",
"( c #E4E4E4",
") c #E8E7E6",
"_ c #E7E8E8",
"` c #ECECEC",
"' c #F4F4F4",
"] c #FFFFFF",
"[ c None",
/* pixels */
"[[[[[[[[[[[[[[[[[[[[[[[[[[[[[[[[[[[[[[[[[[[[[[[[",
"[[[[[[[[[[[[[[[[[[[[[[[[[[[[[[$*[[[[[[[[[[[[[[[[",
"[[[[[[[[[[[[[[[[[[[[[[[[[[[[[m)N>[[[[[[[[[[[[[[[",
"[[[[[[[[[[[[[[[[[[[[[[[[[[[6E']](6o[[[[[[[[[[[[[",
"[[[[[[[[[[[[[[[[[[[[[[[[[*m(]]]]]uX[[[[[[[[[[[[[",
"[[[[[[[[[[[[[[[[[[[[[[[@tE]]]]]]R@[[[[[[[[[[[[[[",
"[[[[[[[[[[[[[[[[[[[[[[[m]]]]]]])&[[[[[[[[[[[[[[[",
"[[[[[[[[[[[[[[[[[[[[[6`]]]]]]]]tO[[[[[[[.[[[[[[[",
"[[[[[[[[[[[[[[[[[[[&S(''']]]]]F+[[[[[[[+*>[[[[[[",
"[[[[[[[[[[[[[[[[[ @;suutgsEW](&[[[[[[[[*'!6*[[[[",
"[[[[[[[[[[[[[[[X$:uDDERRSmtpt3X[[[[[[[#E]]]s[[[[",
"[[[[[[[[[[[[[@tgQ']]]]]]]]`!D*;[[[[[[+s]]]]m[[[[",
"[[[[[[[[[[[OuN`]]]]]]]]]]]]]]'mu[[[[[*']]]'A[[[[",
"[[[[[[[[[[[u)]]]]]]]]]]]]]]]]]]Qg[[[#Q]]]]';[[[[",
"[[[[[[[[[$R']]]]]]]]]]]]]]]]]]]]'N<+s]]]]]!6[[[[",
"[[[[[[[[%R']]]]]]]]]]]]]]]]]]]]]]]R&m]]]]]E#[[[[",
"[[[[[[[>N]]]]]]]]]]]]]]]]]]]]]]]]]]!6N']]]m#[[[[",
"[[[[[[[u]]]]]]]]]]]]]]]]]]]]]]]]]]]'Au(]]]g[[[[[",
"[[[[[[5(]]]]]]]]]]]]]]]]]]]]]]]]]]]]]st`]];[[[[[",
"[[[[[:S]]]]]]]]]]]]')!Q_`]]]]]]]]]]]]!tE]!9[[[[[",
"[[[[[6]]]]]]]]]]]`Ry027-zm`]]]]]]]]]]]mt_![[[[[[",
"[[[[@Q]]]]]]]]]]!iwrHYIIkh1D]]]]]]]]]]Q5!A%[[[[[",
"[[[[>`]]]]]]]]]FiqY/UZnnUJH0N']]]]]]]]'ggN[[[[[[",
"[[[[g]]]]]]]]]!64akzcARCMZPbaE]]]]]]]]]S6&[[[[[[",
"[[[$D]]]]]]]]]uN!m<A_]]]_DZTh0_]]]]]]]]Q;@[[[[[[",
"[[[[!]]]]]]]]RgREm(']]]]]]AvTaR]]]]]]]]'; [[[[[[",
"[[[;(]]]]]]]]DuNSQ]]]]]]]](zTkd']]]]]]]]: [[[[[[",
"[[[m_]]]]]]]]t;B^]]]]]]]]]_cYGp`]]]]]]]'t.[[[[[[",
"[[[;`]]]]''^A;*)]]]]]]]]]]'lTJi_]]]]]]]]6[[[[[[[",
"[[[3_')ENgptt$N]]]]]]]]]]]^dPK5`]]]]]]]'u[[[[[[[",
"[[[#suutumR!^gC]]]]]]]]]]]!=nrj']]]]]]]]>[[[[[[[",
"[[O*gVE`']]]]Ss`]]]]]]]]]]NCy,N]]]]]]]]_t[[[[[[[",
"[[%R]]]]]]]]]!6E]]]]]]]]]^N!E>Q]]]]]]]](#[[[[[[[",
"[[X*!]]]]]]]]]Su!]]]]]]]]!B!gg]]]]]]]]]N&[[[[[[[",
"[[[[t^]]]]]]]](sm`]]]]]]'BgA6']]]]]]]]'g[[[[[[[[",
"[[[[[m']]]]]]]])ttQ_]]]]R:3g^]]]]]]]]]`#[[[[[[[[",
"[[[[[+t]]]]]]]]]]N>guSNN%;S)]]]]]]]]]]g@[[[[[[[[",
"[[[[[[;s(]]]]]]]]]_DApgm3u]]]]]]]]]]]^*[[[[[[[[[",
"[[[[[[[[S(]]]]]]]]]]]'']As']]]]]]]]]]t[[[[[[[[[[",
"[[[[[[[[[t`]]]]]]]]]]]]]Eu`]]]]]]]]]N;[[[[[[[[[[",
"[[[[[[[[[o*!]]]]]]]]]]]]^t!]]]]]]]]Q&[[[[[[[[[[[",
"[[[[[[[[[[[%N]]]]]]]]]]]`uD]]]]]]]E%[[[[[[[[[[[[",
"[[[[[[[[[[[[#3^]]]]]]]]]'sN]]]]]]N[[[[[[[[[[[[[[",
"[[[[[[[[[[[[[[%m_]]]]]]]]mg]]]]^g*[[[[[[[[[[[[[[",
"[[[[[[[[[[[[[[[O*E!]]]]]]Dt'](At[[[[[[[[[[[[[[[[",
"[[[[[[[[[[[[[[[[[[Nm^]]]]Q3CN3[[[[[[[[[[[[[[[[[[",
"[[[[[[[[[[[[[[[[[[[[;uQ^]_>@[[[[[[[[[[[[[[[[[[[[",
"[[[[[[[[[[[[[[[[[[[[[o#uuE&[[[[[[[[[[[[[[[[[[[[["
};
