/* XPM */
static char *_55[] = {
/* columns rows colors chars-per-pixel */
"48 48 74 1 ",
"  c black",
". c #0A0A0A",
"X c #141414",
"o c #1B1B1B",
"O c #242424",
"+ c #2C2C2C",
"@ c #333333",
"# c #3B3B3B",
"$ c #454545",
"% c #4C4C4C",
"& c #535353",
"* c #535A5C",
"= c #5C5C5C",
"- c #5A6165",
"; c #53666F",
": c #5E6669",
"> c #5E737C",
", c #636464",
"< c #676868",
"1 c #6B6B6B",
"2 c #606F75",
"3 c #737373",
"4 c #76797A",
"5 c #7C7D7D",
"6 c #617780",
"7 c #6D7B80",
"8 c #6F8087",
"9 c #7E8182",
"0 c #7C878C",
"q c #6D8792",
"w c #708A95",
"e c #7FA0AE",
"r c #848485",
"t c #878888",
"y c #8B8B8B",
"u c #848D91",
"i c #8A8E90",
"p c #8A9194",
"a c #819299",
"s c #939393",
"d c #9C9C9C",
"f c #8A9AA1",
"g c #829FAC",
"h c #88A1AC",
"j c #87A5B2",
"k c #88A8B6",
"l c #90AFBC",
"z c #9AB3BE",
"x c #A2A2A2",
"c c #ABABAB",
"v c #B3B3B4",
"b c #B7B7B8",
"n c #BCBCBC",
"m c #97B6C4",
"M c #9DB9C4",
"N c #9CC2D2",
"B c #A2C5D4",
"V c #A9C6D2",
"C c #B0CBD6",
"Z c #BBD9E6",
"A c #BEDEEC",
"S c #BDE0EF",
"D c #BBE1F1",
"F c #C4C4C4",
"G c #CACACA",
"H c #D5D5D5",
"J c #DBDBDB",
"K c #C2DFEC",
"L c #C2E5F4",
"P c #E4E4E4",
"I c #EBEBEB",
"U c #F3F3F3",
"Y c #FFFFFF",
"T c None",
/* pixels */
"TTTTTTTTTTTTTTTTTTTTTTTTTTTTTTTTTTTTTTTTTTTTTTTT",
"TTTTTTTTTTTTTTTTTTTT$t#TTTTTTTTTTTTTTTTTTTTTTTTT",
"TTTTTTTTTTTTTTTTTT&dIY%@oTTTTTTTTTTTTTTTTTTTTTTT",
"TTTTTTTTTTTTTTTT&vUYYU,JPc1OTTTTTTTTTTTTTTTTTTTT",
"TTTTTTTTTTTTTT#cUYYYYU=UYYYJt+TTTTTTTTTTTTTTTTTT",
"TTTTTTTTTTTTo5IYYYYYYU=UYYYYYJ1TTTTTTTTTTTTTTTTT",
"TTTTTTTTTTT#nYYYYYYYYP<YYYYYYYUdOTTTTTTTTTTTTTTT",
"TTTTTTTTTT<JYYYYYYYYYJ<UYYYYYYYYnOTTTTTTTTTTTTTT",
"TTTTTTTTXyUYYYYYYYYYYJ1YYYYYYYYYYnoTTTTTTTTTTTTT",
"TTTTTTTOdUYYYYYYYYYYYG4YYYYYYYYYYYdTTTTTTTTTTTTT",
"TTTTTTocYYYYYYYYYYYYYnrYYYYYYYYYYYY4TTTTTTTTTTTT",
"TTTTTXcYYYYYYYYYYYUIUxsYYYYYYYYYYYYP@TTTTTTTTTTT",
"TTTTXdYYYYYYYYYUn5,,,#&HYYYYYYYYYYYYxTTTTTTTTTTT",
"TTTTtUYYYYYYYYJ14nPUUF#=rIYYYYYYYYYYI#TTTTTTTTTT",
"TTT1UYYYYYYYYF=nYYYYYYccd<PYYYYYYYYYYtTTTTTTTTTT",
"TT$PYYYYYYYYJ=HYYYYYYYUyPv,UYYYYYYYYYFXTTTTTTTTT",
"ToFYYYYYYYYY1nYYYYYYYYYFxY1sYYYYYYYYYI#TTTTTTTTT",
"TrYYYYYYYYYG1UYYYYYYYYYUsn82IYYYYYYYYY<TTTTTTTTT",
"=IYYYYYYYYYycYYYYYYYYYYYv*BwvYYYYYYYYYtTTTTTTTTT",
"xJIUUYYYYYY3HYYYYYYYYYYYJ7LjrYYYYYYYYYsTTTTTTTTT",
".o==,15tdcn%PYYYYYYYYYYYUuKm5YYYYYYYYYd TTTTTTTT",
"T$IUIJFvxs5OsUYYYYYYYYYYYpZm4YYYYYYYYYd TTTTTTTT",
"T#IYYYYYYYY41dUYYYYYYYYYUtAgtYYYYYYYYYx.TTTTTTTT",
"TOPYYYYYYYYcsvsIYYYYYYYYHaD>nYYYYYYYYY53TTTTTTTT",
"TTGYYYYYYYYI,PGyGYYYYYYUuVB*UYYYYYYYYY<F@TTTTTTT",
"TTdYYYYYYYYYdrUJ,4GUYUHpzD6vYYYYYYYYYI,U3TTTTTTT",
"TT<YYYYYYYYYU530hmfuipfCAq9UYYYYYYYYYn4YcTTTTTTT",
"TT+JYYYYYYYYYU1;NDLAZALN>rUYYYYYYYYYY3nYJOTTTTTT",
"TTTdYYYYYYYYYYYc->eklh6:nUYYYYYYYYYYH=UYU=TTTTTT",
"TTT#IYYYYYYYYYYYUHxtidGUYYYYYYYYYYYYtxYYYsTTTTTT",
"TTTTtYYYYYYYYYYYYYYYYYYYYYYYYYYYYYYG,UYYYGoTTTTT",
"TTTTOGYYYYYYYYYYYYYYYYYYYYYYYYYYYYU1nYYYYU$TTTTT",
"TTTTT%PYYYYYYYYYYYYYYYYYYYYYYYYYYY55YYYYYY5TTTTT",
"TTTTTT,IYYYYYYYYYYYYYYYYYYYYYYYYYx.%IYYYYYFTTTTT",
"TTTTTTT,PYYYYYYYYYYYYYYYYYYYYYYUsoTT1UYYYYI@TTTT",
"TTTTTTTT&HYYYYYYYYYYYYYYYYYYYYU4TTTTTtYYYYY3TTTT",
"TTTTTTTTT+dIYYYYYYYYYYYYYYYYUF%TTTTTTTcYYYYtTTTT",
"TTTTTTTTTTT%cIYYYYYYYYYYYYUF1OTTTTTTTTOFYUd+TTTT",
"TTTTTTTTTTTTT#5nJUUYYUUIFy=1nvoTTTTTTTT@GtTTTTTT",
"TTTTTTTTTTTTTTT.O#,431==<dJUYYxTTTTTTTTToTTTTTTT",
"TTTTTTTTTTTTTTTTT XtFHPUYYYYYYUrTTTTTTTTTTTTTTTT",
"TTTTTTTTTTTTTTTTTTTT,FUYYYYYYYYU,TTTTTTTTTTTTTTT",
"TTTTTTTTTTTTTTTTTTTTTX,FUYYYYYYYI%TTTTTTTTTTTTTT",
"TTTTTTTTTTTTTTTTTTTTTTTo<GUYYYYYYH@TTTTTTTTTTTTT",
"TTTTTTTTTTTTTTTTTTTTTTTTTo<FUYYYYP&TTTTTTTTTTTTT",
"TTTTTTTTTTTTTTTTTTTTTTTTTTTX<GYYH=TTTTTTTTTTTTTT",
"TTTTTTTTTTTTTTTTTTTTTTTTTTTTTo1x%TTTTTTTTTTTTTTT",
"TTTTTTTTTTTTTTTTTTTTTTTTTTTTTTTTTTTTTTTTTTTTTTTT"
};
