/* XPM */
static char *_6[] = {
/* columns rows colors chars-per-pixel */
"48 48 112 2 ",
"   c #0C0001",
".  c #1D0003",
"X  c #250004",
"o  c #2A0005",
"O  c #330006",
"+  c #3A0007",
"@  c #450008",
"#  c #4A0009",
"$  c #55000A",
"%  c #5E000B",
"&  c #63000C",
"*  c #6D000D",
"=  c #74000E",
"-  c #7B000F",
";  c #7F0110",
":  c #78121E",
">  c #7B202D",
",  c #7F2F3D",
"<  c #6C333E",
"1  c #733E4B",
"2  c #744450",
"3  c #7B4653",
"4  c #794B57",
"5  c #7C5763",
"6  c #7A5A66",
"7  c #75616D",
"8  c #80000F",
"9  c #840110",
"0  c #8B0011",
"q  c #940012",
"w  c #9C0013",
"e  c #9B081A",
"r  c #A30014",
"t  c #AB0015",
"y  c #A5071B",
"u  c #B30016",
"i  c #BB0017",
"p  c #B50318",
"a  c #BB0218",
"s  c #9C0D20",
"d  c #9B1123",
"f  c #B60E23",
"g  c #A11527",
"h  c #AF1025",
"j  c #A61629",
"k  c #A9152A",
"l  c #B81227",
"z  c #B41529",
"x  c #BF152A",
"c  c #A92739",
"v  c #C30017",
"b  c #CE0013",
"n  c #C30018",
"m  c #CC0019",
"M  c #D30016",
"N  c #DA0017",
"B  c #D3011A",
"V  c #DC001B",
"C  c #E50017",
"Z  c #EF0017",
"A  c #E4001C",
"S  c #EB001D",
"D  c #F4001E",
"F  c #FF001F",
"G  c #C30B22",
"H  c #D10A23",
"J  c #DA0923",
"K  c #C8172F",
"L  c #C1182D",
"P  c #D61029",
"I  c #FF0020",
"U  c #813240",
"Y  c #8D3544",
"T  c #963748",
"R  c #A43243",
"E  c #834251",
"W  c #A94A5A",
"Q  c #815260",
"!  c #895B69",
"~  c #925F6C",
"^  c #AC606F",
"/  c #767885",
"(  c #8C7E8C",
")  c #73828E",
"_  c #7C939E",
"`  c #A28A96",
"'  c #A3939F",
"]  c #839CA7",
"[  c #8C9AA7",
"{  c #999AA5",
"}  c #9E9FAB",
"|  c #94A1AF",
" . c #9CADBC",
".. c #A6A8B5",
"X. c #A4AEBA",
"o. c #8FBCC8",
"O. c #9FB8C4",
"+. c #AFBDCA",
"@. c #B7BBC7",
"#. c #9EC5D3",
"$. c #9BCCD8",
"%. c #ADC1CC",
"&. c #A7CAD7",
"*. c #A3CEDC",
"=. c #AACDDB",
"-. c #ACDDEA",
";. c #B8D4E1",
":. c #B1DAE7",
">. c #B4DDEA",
",. c #BCE6F3",
"<. c #BBE8F7",
"1. c None",
/* pixels */
"1.1.1.1.1.1.1.1.1.1.1.1.1.1.1.1.1.1.1.1.1.1.1.1.1.1.1.1.1.1.1.1.1.1.1.1.1.1.1.1.1.1.1.1.1.1.1.1.",
"1.1.1.1.1.1.1.1.1.1.1.1.1.1.1.1.1.1.1.1.1.1.1.1.1.1.1.1.1.1.1.1.1.1.1.1.1.1.1.1.1.1.1.1.1.1.1.1.",
"1.1.1.1.1.1.1.1.1.1.1.1.1.1.1.1.1.1.1.1.1.1.1.1.1.1.1.1.1.1.1.1.1.1.1.1.1.1.1.1.1.1.1.1.1.1.1.1.",
"1.1.1.1.1.1.1.1.1.1.1.1.1.1.1.1.1.1.1.1.1.1.1.1.1.1.1.1.1.1.1.1.1.1.1.1.1.1.1.1.1.1.1.1.1.1.1.1.",
"1.1.1.1.1.1.1.1.1.1.1.1.1.1.1.1.1.1.1.1.1.1.1.1.1.1.1.1.1.1.1.1.1.1.1.1.1.1.1.1.1.1.1.1.1.1.1.1.",
"1.1.1.1.1.1.1.1.1.1.1.1.1.1.1.1.1.1.1.1.1.1.1.1.1.1.1.1.1.1.1.1.1.1.1.1.1.1.+ X 1.1.1.1.1.1.1.1.",
"1.1.1.1.1.1.1.1.1.1.1.1.1.1.1.1.1.1.1.1.1.1.1.1.1.1.1.1.1.1.1.O 1.& 1.0 = r w * 1.1.1.1.1.1.1.1.",
"1.1.1.1.1.1.1.1.1.1.1.1.1.1.1.1.1.1.1.1.1.1.1.1.1.1.% 1.& * r w m m A V I F I m & 1.1.1.1.1.1.1.",
"1.1.1.1.1.1.1.1.1.1.1.1.1.1.1.1.1.# 1.$ 9 # $ + # 0 u B S F D I F I F I F F F F q 1.1.1.1.1.1.1.",
"1.1.1.1.1.1.1.1.1.1.1.1.1.$ & m t m B A A S V B i t t u V F I I F F F F F F F F V @ 1.1.1.1.1.1.",
"1.1.1.1.1.1.1.1.1.1.1.1.0 u D D I F I I I I I F F F V i t t V I F F F F F F F n * O 1.1.1.1.1.1.",
"1.1.1.1.1.1.1.1.1.1.0 t S I F I F F I I I I F F F F I I D i t v D F F F I S 8 # 1.1.1.1.1.1.1.1.",
"1.1.1.1.1.1.1.1.; q B I I F F F F F F F F F F F F F F I I F A w i A F D u % + 1.1.1.1.1.1.1.1.1.",
"1.1.1.1.1.1.1.% r F I F F F F F F F F F F F F F F F F F I F I S m w m = @ 1.1.1.1.1.1.1.1.1.1.1.",
"1.1.1.1.1.1.$ i I F F F F F F F F F F F F F F F F F F F F F F I F u & 1.1.1.1.1.1.1.1.1.1.1.1.1.",
"1.1.1.1.1.1.i F F F F F F F F F F F F F F F F F F F F F F F F F F D w 1.1.1.1.1.1.1.1.1.1.o 1.1.",
"1.1.1.1.o 0 D I I F F F F F F F F F F F F F F F F F F F F F F F F I V t 1.1.1.1.1.1.1.1.$ = 1.1.",
"1.1.1.1.9 A I F F F F F F F F F F I F F F F F F F F F F F F F F F F I m 1.1.1.1.1.1.# ; A D q 1.",
"1.1.1.1.i F F F F F F F F F I F F S S B N N Z F F F F F F F F F F F I D t 1.1.1.@ & a F F I n 0 ",
"1.1.1.; A F F F F F F F F F I D a g Q 5 7 4 , d b F F F F F F F F F I I m 0 1.$ q S F I I I I q ",
"1.1.1.u F F F F F F F F F F B w r < [ -.,.>.&._ 2 h C F F F F F F F F F F 0 & m F F F F F I B & ",
"1.1.# i F F F F F F F F D V p m N H U _ | X.%.>.&./ d A F F F F F F F F F B - F I I F F I D v 1.",
"1.& ; r r u m V D F F I S r t n m p w f l L c ~ @.$.` 0 F F F F F F F F F S w m I F F I I t % 1.",
". r D A m p u r t u p n r = t m m A F F F F Z V R O.*.E B F F F F F F F F D w m F F I I A r 1.1.",
"1.= F F F I F D A m a q $ 0 A S F F F F F F F F M ^ $.| y D F F F F F F F I t r I F I S = 1.1.1.",
"1.9 m F F F F F F F F B r D F F F F F F F F F F D x @.#.T Z F F F F F F F F v r D F I u 1.1.1.1.",
"1.1.m F F F F F F F F a u F F F F F F F F F F F F P ` >.4 S F F F F F F F I v q F I m @ 1.1.1.1.",
"1.1.9 F F F F F F F F u v F F F F F F F F F F F F B ' -.! N F F F F F F F F m r D A r 1.1.1.1.1.",
"1.1.& A I F F F F F F a t F F F F F F F F F F F F K ..:.2 C F F F F F F F I v w F q 1.1.1.1.1.1.",
"1.1.1.t F F F F F F F B u D F F F F F F F F F F A W ;.#.Y Z F F F F F F F I n u v = 1.1.1.1.1.1.",
"1.1.1.u A I F F F F F V t S F F F F F F F F F D l { <.] j F F F F F F F F F a q = 1.1.1.1.1.1.1.",
"1.1.1.1.V F F F F F F F r m F F F F F F F F F B :  .*.3 M F F F F F F F F F q = 1.1.1.1.1.1.1.1.",
"1.1.1.X 9 F F F F F F F S w A F I F F F F D B B L 6 ) j F F F F F F F F F S % . 1.1.1.1.1.1.1.1.",
"1.1.1.1.# B F F F F F F F v t n I I I F D A n V A > d C F F F F F F F F F a o 1.1.1.1.1.1.1.1.1.",
"1.1.1.1.1.- F I F F F F F F m w i V F D i y n V r w A F F F F F F F F F F 8   1.1.1.1.1.1.1.1.1.",
"1.1.1.1.1.% i I F F F F F I F S u q r = = q t q n F F F F F F F F F F F V - 1.1.1.1.1.1.1.1.1.1.",
"1.1.1.1.1.1.* S I F F F F F F I F S v ; t B B D F F F F F F F F F F F D - o 1.1.1.1.1.1.1.1.1.1.",
"1.1.1.1.1.1.% q F F F F F F F F F I m t I I I I F F F F F F F F F F F v 1.1.1.1.1.1.1.1.1.1.1.1.",
"1.1.1.1.1.1.1.$ a F F F F F F F F F p i I I I F F F F F F F F F F F B $ 1.1.1.1.1.1.1.1.1.1.1.1.",
"1.1.1.1.1.1.1.1.$ A F F F F F F I D r B I I F F F F F F F F F F F V w 1.1.1.1.1.1.1.1.1.1.1.1.1.",
"1.1.1.1.1.1.1.1.X * V I F F F F I A w S F F F F F F F F F F F I D - 1.1.1.1.1.1.1.1.1.1.1.1.1.1.",
"1.1.1.1.1.1.1.1.1.1.p A I F F F F v r F F F F F F F F F F F I V - + 1.1.1.1.1.1.1.1.1.1.1.1.1.1.",
"1.1.1.1.1.1.1.1.1.1.1.r F I I F F i t F F F F F F F F F I D u 0 1.1.1.1.1.1.1.1.1.1.1.1.1.1.1.1.",
"1.1.1.1.1.1.1.1.1.1.1.* q D I F F r m I F F F I F I F F n 0 ; 1.1.1.1.1.1.1.1.1.1.1.1.1.1.1.1.1.",
"1.1.1.1.1.1.1.1.1.1.1.1.O t A I S w D F I I F F D B i * % 1.1.1.1.1.1.1.1.1.1.1.1.1.1.1.1.1.1.1.",
"1.1.1.1.1.1.1.1.1.1.1.1.1.1.0 D m = r u i u r r = 1.1.1.1.1.1.1.1.1.1.1.1.1.1.1.1.1.1.1.1.1.1.1.",
"1.1.1.1.1.1.1.1.1.1.1.1.1.1.# 9 0 . 1.+ 1.1.1.1.1.1.1.1.1.1.1.1.1.1.1.1.1.1.1.1.1.1.1.1.1.1.1.1.",
"1.1.1.1.1.1.1.1.1.1.1.1.1.1.1.1.1.1.1.1.1.1.1.1.1.1.1.1.1.1.1.1.1.1.1.1.1.1.1.1.1.1.1.1.1.1.1.1."
};
