/* XPM */
static char *_67[] = {
/* columns rows colors chars-per-pixel */
"48 48 113 2 ",
"   c #0D0001",
".  c #1B0003",
"X  c #260004",
"o  c #2A0005",
"O  c #340006",
"+  c #3C0007",
"@  c #420008",
"#  c #4C0009",
"$  c #55000A",
"%  c #5B000B",
"&  c #64000C",
"*  c #6C000D",
"=  c #75000E",
"-  c #7A000F",
";  c #700613",
":  c #7B0110",
">  c #722D39",
",  c #79303E",
"<  c #794A56",
"1  c #7C4F5A",
"2  c #6D5B67",
"3  c #7E606E",
"4  c #78707B",
"5  c #830010",
"6  c #8C0011",
"7  c #800F1D",
"8  c #930012",
"9  c #9D0013",
"0  c #940919",
"q  c #A50014",
"w  c #AC0015",
"e  c #A60519",
"r  c #AC0518",
"t  c #B40016",
"y  c #BB0017",
"u  c #BD0118",
"i  c #BC091E",
"p  c #811928",
"a  c #961D2F",
"s  c #B50F25",
"d  c #A41226",
"f  c #A9152A",
"g  c #A11C2E",
"h  c #AE192C",
"j  c #B11429",
"k  c #80202E",
"l  c #802E3D",
"z  c #8C2838",
"x  c #AE2739",
"c  c #BD2034",
"v  c #C20017",
"b  c #C40118",
"n  c #CB0119",
"m  c #D40017",
"M  c #D4011A",
"N  c #DB001B",
"B  c #EF0017",
"V  c #E4001C",
"C  c #EC001D",
"Z  c #F3001D",
"A  c #FF001F",
"S  c #C40A22",
"D  c #D90621",
"F  c #D10821",
"G  c #C31127",
"H  c #E70722",
"J  c #E70925",
"K  c #FF0020",
"L  c #873E4D",
"P  c #8B3C4B",
"I  c #973948",
"U  c #B7384A",
"Y  c #8E4351",
"T  c #8E4E5D",
"R  c #A65969",
"E  c #896A78",
"W  c #747C87",
"Q  c #907988",
"!  c #A07582",
"~  c #A87482",
"^  c #7E8893",
"/  c #76919D",
"(  c #8E8492",
")  c #808A95",
"_  c #988893",
"`  c #A58895",
"'  c #899AA7",
"]  c #8D99A8",
"[  c #85A5B1",
"{  c #87AAB5",
"}  c #89ACB9",
"|  c #A5A7B4",
" . c #A0B1BD",
".. c #93B4C0",
"X. c #ABB3C0",
"o. c #B1B3C0",
"O. c #9FCEDA",
"+. c #A9C2CD",
"@. c #A4C7D4",
"#. c #A0CBD8",
"$. c #A9CEDE",
"%. c #B7CFDB",
"&. c #A0D1DD",
"*. c #B6D3DF",
"=. c #ACDCE9",
"-. c #B1D5E1",
";. c #B3DAE7",
":. c #ADE1EF",
">. c #B7E0EE",
",. c #B7E6F4",
"<. c #BBE4F1",
"1. c #C0E9F6",
"2. c None",
/* pixels */
"2.2.2.2.2.2.2.2.2.2.2.2.2.2.2.2.2.2.2.2.2.2.2.2.2.2.2.2.2.2.2.2.2.2.2.2.2.2.2.2.2.2.2.2.2.2.2.2.",
"2.2.2.2.2.2.2.2.2.2.2.2.2.2.2.2.2.2.2.2.2.2.2.2.2.2.2.2.2.2.2.2.2.2.2.2.2.2.2.2.2.2.2.2.2.2.2.2.",
"2.2.2.2.2.2.2.2.2.2.2.2.2.2.2.2.2.2.2.2.2.2.2.2.2.2.2.2.2.2.2.2.2.2.2.2.2.2.2.2.2.2.2.2.2.2.2.2.",
"2.2.2.2.2.2.2.2.2.2.2.2.2.@ 2.2.2.2.2.+ + 2.2.2.2.2.2.2.2.2.2.2.2.2.2.2.2.2.2.2.2.2.2.2.2.2.2.2.",
"2.2.2.2.2.2.2.2.2.2.2.O 8 - @ 6 5 b w t w q q & & 2.2.2.2.2.2.2.2.2.2.2.2.2.2.2.2.2.2.2.2.2.2.2.",
"2.2.2.2.2.2.2.2.2.2.2.5 Z n 8 V A K K A K A Z A n q 6 2.2.2.2.2.2.2.2.2.2.2.2.2.2.2.2.2.2.2.2.2.",
"2.2.2.2.2.2.2.2.2.2.t M K C 9 N K A A A A A A A K K N w 6 2.2.2.2.2.2.2.2.2.2.2.2.2.2.2.2.2.2.2.",
"2.2.2.2.2.2.2.2.2.& V A A K w y A A A A A A A A A K K K V 9 % 2.2.2.2.2.2.2.2.2.2.2.2.2.2.2.2.2.",
"2.2.2.2.2.2.2.2.= n A A A K N q A A A A A A A A A A A A K K n - 2.2.2.2.2.2.2.2.2.2.2.2.2.2.2.2.",
"2.2.2.2.2.2.2.2.t K A A A A Z w n K A A A A A A A A A A A A A N 8 2.2.2.2.2.2.2.2.2.2.2.2.2.2.2.",
"2.2.2.2.2.2.2.b V K A A A A K b t A A A A A A A A A A A A A A A n & 2.2.2.2.2.2.2.2.2.2.2.2.2.2.",
"2.2.2.2.2.2.& V A A A A A A K V q C A A A A A A A A A A A A A A A n * 2.2.2.2.2.2.2.2.2.2.2.2.2.",
"2.2.2.2.2.@ v A A A A A A A A A w n K K A A A A A A A A A A A A A A q 2.2.2.2.2.2.2.2.2.2.2.2.2.",
"2.2.2.2.2.- A A A A A A A A A A b 6 M C C Z K A A A A A A A A A A A V ;   2.2.2.2.2.2.2.2.2.2.2.",
"2.2.2.2.& n A A A A A A A A C v 9 $ - 6 t r y C A A A A A A A A A A K v @ 2.2.2.2.2.2.2.2.2.2.2.",
"2.2.2.2.5 K A A A A A K A N q q n u 8 e y m w 9 n A A A A A A A A A K C * X 2.2.2.2.2.2.2.2.2.2.",
"2.2.2.& m K A A A A A A n 9 n C A A Z M b m N > Y N A A A A A A A A A A y & 2.2.2.2.2.2.2.2.2.2.",
"2.2.2.- K A A A A A A M r n K A A A A Z n t b T [ , m A A A A A A A A A N 8 6 2.2.2.2.2.2.2.2.2.",
"2.2.+ u K K A A A A A 9 M A A A A A A A A V 6 4 :.' g A A A A A A A A A C w M y 2.2.2.2.2.2.2.2.",
"2.2.$ C A A A A A A M q Z A A A A A A A A A N Y *.;.< m A A A A A A A A K w M V * . 2.2.2.2.2.2.",
"2.. 8 A A A A A A A w n A A A A A A A A A A A G _ <.) e A A A A A A A A A u u K N 8 2.2.2.2.2.2.",
"2.2.b A A A A A A Z t n A A A A A A A A A A A B I ;.} a B A A A A A A A A u t K K n $ 2.2.2.2.2.",
"2.q N K A A A A A A q N K A A A A A A A A A A A c  .O.; Z A A A A A A A A n v K K K n 6 2.2.2.2.",
"2.8 K K A A A A A Z q N A A A A A A A A A A A A h  . .z Z A A A A A A A A b w K A A A w 2.2.2.2.",
"@ q K A A A A A A A q b A A A A A A A A A A A Z x %.} d Z A A A A A A A K w n A A A A C w & 2.2.",
"+ M K K A A A A A A b r A A A A A A A A A A A M ~ #.( q A A A A A A A A A b v A A A A K Z 5 X 2.",
"2.M K A A A A A V M 9 & 6 M Z Z A A A A A A J U +.#.l V A A A A A A A A A q M A A A A A K V 6 2.",
"- Z K K A V n t e 9 b 9 - 9 i n n m N M J s R o.&.Q e A A A A A A A A A V - t A A A A A K K b + ",
"5 K Z m t 8 9 b N Z K A t w M m N 0 1 Q ` | *.<.W f C A A A A A A A A K w & @ * u A A A A K 8 2.",
"6 6 8 q t N A A A A K K V q q V M Y $.<.<.=.} E g B A A A A A A A A K Z q 2.2.2.@ * y C A V * 2.",
"2.. = Z A K A A A A A A A A b 8 7 2 / ] ) E > n Z A A A A A A A A A K n 2.2.2.2.2.2.@ * y 6 2.2.",
"2.2.& n K A A A A A A A A A A A n i j e b N B A A A A A A A A A K K Z w 2.2.2.2.2.2.2.2.@ o 2.2.",
"2.2.2.6 C K K A A A A A A A A A K A A A A A A A A A A A A A A A A K t 2.2.2.2.2.2.2.2.2.2.2.2.2.",
"2.2.2.2.9 Z K A A A A A A A A A A A A A A A A A A A A A A A A A A V = 2.2.2.2.2.2.2.2.2.2.2.2.2.",
"2.2.2.2.5 n A A A A A A A A A A A A A A A A A A A A A A A A A K C 9 * # 2.2.2.2.2.2.2.2.2.2.2.2.",
"2.2.2.2.2.% y A A A A A A A A A A A A A A A A A A A A A A A K C t 6 Z M 5 $ 2.2.2.2.2.2.2.2.2.2.",
"2.2.2.2.2.2.9 n Z A A A A A A A A A A A A A A A A A A A A A C 8 q N K K K N 6 $ # 2.2.2.2.2.2.2.",
"2.2.2.2.2.2.2.$ q Z K A A A A A A A A A A A A A A A A A A M q 8 C A A A A K K N 8 # o 2.2.2.2.2.",
"2.2.2.2.2.2.2.2.@ - n A A A A K A A A A A A K K A A A C w 6 y V K A A A A K K A K q # 2.2.2.2.2.",
"2.2.2.2.2.2.2.2.2.2.- 8 n A K A K K A A A K K K A V u q 9 m A A A A K A A A A K Z 8 2.2.2.2.2.2.",
"2.2.2.2.2.2.2.2.2.2.2.2.5 = 9 v n C C V Z V m w 6 - 8 b M A Z K K K K K K K K K u 6 2.2.2.2.2.2.",
"2.2.2.2.2.2.2.2.2.2.2.2.2.2.o 2.2.$ & - % = O X . # = - 6 = y 5 : 9 6 v q b y y 6 2.2.2.2.2.2.2.",
"2.2.2.2.2.2.2.2.2.2.2.2.2.2.2.2.2.2.2.2.2.2.2.2.2.2.2.2.2.2.2.2.2.2.2.2.2.2.2.@ O 2.2.2.2.2.2.2.",
"2.2.2.2.2.2.2.2.2.2.2.2.2.2.2.2.2.2.2.2.2.2.2.2.2.2.2.2.2.2.2.2.2.2.2.2.2.2.2.2.2.2.2.2.2.2.2.2.",
"2.2.2.2.2.2.2.2.2.2.2.2.2.2.2.2.2.2.2.2.2.2.2.2.2.2.2.2.2.2.2.2.2.2.2.2.2.2.2.2.2.2.2.2.2.2.2.2.",
"2.2.2.2.2.2.2.2.2.2.2.2.2.2.2.2.2.2.2.2.2.2.2.2.2.2.2.2.2.2.2.2.2.2.2.2.2.2.2.2.2.2.2.2.2.2.2.2.",
"2.2.2.2.2.2.2.2.2.2.2.2.2.2.2.2.2.2.2.2.2.2.2.2.2.2.2.2.2.2.2.2.2.2.2.2.2.2.2.2.2.2.2.2.2.2.2.2.",
"2.2.2.2.2.2.2.2.2.2.2.2.2.2.2.2.2.2.2.2.2.2.2.2.2.2.2.2.2.2.2.2.2.2.2.2.2.2.2.2.2.2.2.2.2.2.2.2."
};
