/* XPM */
static char *_7[] = {
/* columns rows colors chars-per-pixel */
"48 48 89 1 ",
"  c #010101",
". c #0C0C0D",
"X c #171717",
"o c #1C1C1C",
"O c #242424",
"+ c #2D2D2D",
"@ c #323232",
"# c #3C3C3C",
"$ c #434343",
"% c #4B4B4B",
"& c #535353",
"* c #5B5C5C",
"= c #5A6368",
"- c #5F6D73",
"; c #636364",
": c #676A6C",
"> c #6B6C6C",
", c #646D72",
"< c #6B7276",
"1 c #6F7478",
"2 c #6E787C",
"3 c #727273",
"4 c #707679",
"5 c #76797A",
"6 c #7C7C7D",
"7 c #7E7F80",
"8 c #758186",
"9 c #7F8081",
"0 c #7B8589",
"q c #6F8A95",
"w c #7A8E95",
"e c #7F939C",
"r c #7897A4",
"t c #848484",
"y c #858B8D",
"u c #8B8B8B",
"i c #848D91",
"p c #8E9091",
"a c #85949A",
"s c #939394",
"d c #909698",
"f c #929A9E",
"g c #9C9C9C",
"h c #839BA5",
"j c #8E9EA5",
"k c #829EAA",
"l c #999FA2",
"z c #97A2A7",
"x c #9CA4A7",
"c c #9DA5A9",
"v c #96AAB3",
"b c #91B1BF",
"n c #9BB1BB",
"m c #A4A4A4",
"M c #A4A9AB",
"N c #ACACAC",
"B c #B0AFAF",
"V c #ADAFB0",
"C c #AFB1B2",
"Z c #A2B4BC",
"A c #B3B3B3",
"S c #B7B8B8",
"D c #BABABA",
"F c #C0BFBF",
"G c #94B6C5",
"H c #98B7C4",
"J c #99BBCA",
"K c #9FC1CF",
"L c #9CC1D0",
"P c #A2C1CE",
"I c #A4C7D6",
"U c #ADC9D5",
"Y c #ABCDDB",
"T c #B3D5E3",
"R c #C3C3C3",
"E c #CCCCCC",
"W c #D0CFCF",
"Q c #D4D4D4",
"! c #D8D8D7",
"~ c #D7D8D8",
"^ c #DCDCDC",
"/ c #C2E1EF",
"( c #E4E4E4",
") c #E8E7E6",
"_ c #E7E8E8",
"` c #ECECEC",
"' c #F4F4F4",
"] c #FFFFFF",
"[ c None",
/* pixels */
"[[[[[[[[[[[[[[[[[[[[[[[[[[[[[[[[[[[[[[[[[[[[[[[[",
"[[[[[[[[[[[[[[[[[[[[[[[[[[[[[[[[[[[[[[[[[[[[[[[[",
"[[[[[[[[[[[[[[X%O[[[[[[[[[[[[[[[[[[[[[[[[[[[[[[[",
"[[[[[[[[[[[[[[*R&#5;m;[$[[[[[[[[[[[[[[[[[[[[[[[[",
"[[[[[[[[[[[[[tQ]mu_'_(~Sg>@[[[[[[[[[[[[[[[[[[[[[",
"[[[[[[[[[[[+M!]]Au']]]]]]'E6:[[[[[[[[[[[[[[[[[[[",
"[[[[[[[[[[*u]]]]Eu(]]]]]]]]]S5[[[[[[[[[[[[[[[[[[",
"[[[[[[[[[[s']]]]_uE]]]]]]]]]](u>[[[[[[[[[[[[[[[[",
"[[[[[[[[[S(]]]]]'pN]]]]]]]]]]]]N%[[[[[[[[[[[[[[[",
"[[[[[[[ot(]]]]]]'xg]]]]]]]]]]]]]R$[[[[[[[[[[[[[[",
"[[[[[[[*`]]]]]]]]Rp`]]]]]]]]]]]]]D[[[[[[[[[[[[[[",
"[[[[[[%!]]]]]]]]]^t(]]]]]]]]]]]]]'uO[[[[[[[[[[[[",
"[[[[[#m]]]]]]]]]]^tA]]]]]]]]]]]]]](u[[[[[[[[[[[[",
"[[[[[5]]]]]]]]]QSg$;uDR]]]]]]]]]]]]N#[[[[[[[[[[[",
"[[[[%^]]]]]]](A7uAN*;uguQ]]]]]]]]]]_t[[[[[[[[[[[",
"[[[Om]]]]]]]_suE`]](BNRN6F]]]]]]]]]]gX[[[[[[[[[[",
"[[[*`]]]]]]]tmQ]]]]]^SE~1y!]]]]]]]]]Q$[[[[[[[[[[",
"[[[E]]]]]]]Nu`]]]]]]]Qmmaqi`]]]]]]]]]; [[[[[[[[[",
"[[N!]]]]]])3Q]]]]]]]]](<kYwR]]]]]]]]]u@[[[[[[[[[",
"[[m]]]]]]]Dg(]]]]]]]]]'Aj/ky']]]]]]]]S;%[[[[[[[[",
"[*(]]]]]]]Bp]]]]]]]]]]]_cUH0(]]]]]]]]DsS[[[[[[[[",
"ou]]]]]]]'uS]]]]]]]]]]]]CZY2^]]]]]]]]Et(6[[[[[[[",
"#Q]]]]]]]'gB]]]]]]]]]]]]RnI8Q]]]]]]]]Rp'`[[[[[[[",
"u^]]]]]]]]mm]]]]]]]]]]]]AnP,_]]]]]]]]R6']g@[[[[[",
"u]]]]'`^RA>%R']]]]]]]]])MUkx`]]]]]]]]Sg']]t[[[[[",
"E_ERmsutusu::NQ(]]]]]]]SnKhm]]]]]]]]]mg]]]E*[[[[",
"&:56gND!`]]S5gBBB!^')(SZPJ4`]]]]]]]]_uR]]]]N[[[[",
"[@A']]]]]]](gB!QA=dfxzvTG8S]]]]]]]]]^uQ]]]](6[[[",
"[[N]]]]]]]]]^6gEinPTYTTkaN]]]]]]]]]]S6]]]]]]E[[[",
"[[3(]]]]]]]]]'g>,rLJGke0E']]]]]]]]]'*3(]]]]]'m[[",
"[[[A]]]]]]]]]]]ENj5iysR_]]]]]]]]]]]m;o&R']]]]_$[",
"[[[t^]]]]]]]]]]]]'`__]]]]]]]]]]]]]Qu[[[+u(]]]N*[",
"[[[[s]]]]]]]]]]]]]]]]]]]]]]]]]]]]'g[[[[[O&R](>[[",
"[[[[*A]]]]]]]]]]]]]]]]]]]]]]]]]]]N[[[[[[[[@u5[[[",
"[[[[[[Q]]]]]]]]]]]]]]]]]]]]]]]]]R3[[[[[[[[[Xo[[[",
"[[[[[[%E]]]]]]]]]]]]]]]]]]]]]]'!&+[[[[[[[[[[[[[[",
"[[[[[[[&N]]]]]]]]]]]]]]]]]]]]]N6ms#[[[[[[[[[[[[[",
"[[[[[[[[*u^]]]]]]]]]]]]]]]]]!puN]]W*+[[[[[[[[[[[",
"[[[[[[[[[[*g`']]]]]]]]]]]]Qgtt(]]]]'s#[[[[[[[[[[",
"[[[[[[[[[[[@#gN(`'']]''QSg5tE`]]]]]]]W*+[[[[[[[[",
"[[[[[[[[[[[[[[&#9>utt:;;6g!`]]]]]]]]]]'*X[[[[[[[",
"[[[[[[[[[[[[[[[[[[[[.  @&NA!!']]]]]]]]Q>[[[[[[[[",
"[[[[[[[[[[[[[[[[[[[[[[[[[[%[9;mmEQ'']]6[[[[[[[[[",
"[[[[[[[[[[[[[[[[[[[[[[[[[[[[[[[##6;Ams*[[[[[[[[[",
"[[[[[[[[[[[[[[[[[[[[[[[[[[[[[[[[[[[[[[[[[[[[[[[[",
"[[[[[[[[[[[[[[[[[[[[[[[[[[[[[[[[[[[[[[[[[[[[[[[[",
"[[[[[[[[[[[[[[[[[[[[[[[[[[[[[[[[[[[[[[[[[[[[[[[[",
"[[[[[[[[[[[[[[[[[[[[[[[[[[[[[[[[[[[[[[[[[[[[[[[["
};
