/* XPM */
static char *_3[] = {
/* columns rows colors chars-per-pixel */
"48 48 95 2 ",
"   c #020101",
".  c #0A0A0A",
"X  c #131313",
"o  c #1D1D1D",
"O  c #222222",
"+  c #2D2D2D",
"@  c #343434",
"#  c #3D3D3D",
"$  c #424242",
"%  c #4C4C4C",
"&  c #4E4F50",
"*  c #555555",
"=  c #5C5C5C",
"-  c #5F6162",
";  c #5C686E",
":  c #656565",
">  c #6D6D6D",
",  c #61747C",
"<  c #737373",
"1  c #737779",
"2  c #75797B",
"3  c #7B7B7C",
"4  c #657A83",
"5  c #697A80",
"6  c #727B80",
"7  c #7B7F81",
"8  c #768085",
"9  c #7F8385",
"0  c #718188",
"q  c #7D888D",
"w  c #748B94",
"e  c #798D96",
"r  c #778F99",
"t  c #7F99A3",
"y  c #848484",
"u  c #858789",
"i  c #818A8F",
"p  c #8C8C8D",
"a  c #8E8F90",
"s  c #819197",
"d  c #8D9193",
"f  c #81969F",
"g  c #8C9498",
"h  c #949494",
"j  c #939799",
"k  c #90999D",
"l  c #9B9B9B",
"z  c #8D9FA5",
"x  c #909DA3",
"c  c #8CA2AB",
"v  c #9CA1A3",
"b  c #9AA5AA",
"n  c #87A5B2",
"m  c #8DA7B2",
"M  c #89A8B5",
"N  c #A2A2A2",
"B  c #A4A7A8",
"V  c #AAABAB",
"C  c #A6ADB0",
"Z  c #A9AFB2",
"A  c #ACB1B4",
"S  c #B3B3B3",
"D  c #BBBBBB",
"F  c #C1C0BF",
"G  c #95B5C3",
"H  c #9FB7C2",
"J  c #95B8C7",
"K  c #9CBCCA",
"L  c #9DC2D1",
"P  c #A6C2CD",
"I  c #BEC0C1",
"U  c #A2C5D4",
"Y  c #AFCCD8",
"T  c #B0D1DF",
"R  c #AFD1E0",
"E  c #B5D6E4",
"W  c #BADCEB",
"Q  c #C3C3C3",
"!  c #C7C8C8",
"~  c #CCCCCC",
"^  c #D0D0CF",
"/  c #CECFD0",
"(  c #CFD0D1",
")  c #D4D4D4",
"_  c #D6D8D8",
"`  c #DBDBDB",
"'  c #E0DFDF",
"]  c #E4E4E4",
"[  c #E8E7E7",
"{  c #E7E8E8",
"}  c #EBEBEB",
"|  c #F4F4F4",
" . c #F8F7F7",
".. c #FFFFFF",
"X. c None",
/* pixels */
"X.X.X.X.X.X.X.X.X.X.X.X.X.X.X.X.X.X.X.X.X.X.X.X.X.X.X.X.X.X.X.X.X.X.X.X.X.X.X.X.X.X.X.X.X.X.X.X.",
"X.X.X.X.X.X.X.X.X.X.X.X.X.X.X.X.X.X.X.$ = . X.X.X.X.X.X.X.X.X.X.X.X.X.X.X.X.X.X.X.X.X.X.X.X.X.X.",
"X.X.X.X.X.X.X.X.X.X.X.X.X.X.X.X.X.7 3 ] l @ % # X.X.X.X.X.X.X.X.X.X.X.X.X.X.X.X.X.X.X.X.X.X.X.X.",
"X.X.X.X.X.X.X.X.X.X.X.X.X.X.X.@ h !  ...D 7 Q S S 2 X.X.X.X.X.X.X.X.X.X.X.X.X.X.X.X.X.X.X.X.X.X.",
"X.X.X.X.X.X.X.X.X.X.X.X.X.X.< S ........S d .... .| ( h < X.X.X.X.X.X.X.X.X.X.X.X.X.X.X.X.X.X.X.",
"X.X.X.X.X.X.X.X.X.X.X.X.X.B _ ..........S h | ..........^ h @ X.X.X.X.X.X.X.X.X.X.X.X.X.X.X.X.X.",
"X.X.X.X.X.X.X.X.X.X.O $ ! ] ............D a | ............| Q : X.X.X.X.X.X.X.X.X.X.X.X.X.X.X.X.",
"X.X.X.X.X.X.X.X.X.@ = ` ................D p | ................) 3 X.X.X.X.X.X.X.X.X.X.X.X.X.X.X.",
"X.X.X.X.X.X.X.X.# < { ..................S h | ..................~ 3 X.X.X.X.X.X.X.X.X.X.X.X.X.X.",
"X.X.X.X.X.X.X.# < | ....................D h | ....................~ < X.X.X.X.X.X.X.X.X.X.X.X.X.",
"X.X.X.X.X.X.@ 3 | ......................I p | ......................Q % X.X.X.X.X.X.X.X.X.X.X.X.",
"X.X.X.X.X.O > } ....................| | S d  .........................h o X.X.X.X.X.X.X.X.X.X.X.",
"X.X.X.X.X.: { ................} _ l l a = * S |  .....................] B X.X.X.X.X.X.X.X.X.X.X.",
"X.X.X.X.X.` ................) j y l V Q V % = h D | ....................N * X.X.X.X.X.X.X.X.X.X.",
"X.X.X.X.D | ..............! < S ^ ........Q y h N h | ..................{ & X.X.X.X.X.X.X.X.X.X.",
"X.X.X.h | ..............Q > ~ | ..........| ! S ! h h  .................| N X.X.X.X.X.X.X.X.X.X.",
"X.X.- } ..............` y Q | ..............` V ` S 1 D ..................S @ X.X.X.X.X.X.X.X.X.",
"X.$ ^ ................Q h ] ..................D N k , b | ................) > X.X.X.X.X.X.X.X.X.",
"X.N | ..............} y S .................... .9 e U 1 ~ ................] % X.X.X.X.X.X.X.X.X.",
"* ) ................] p _ ....................| Z c W r D ................| : X.X.X.X.X.X.X.X.X.",
"B .. ..... ........._ 9 { ......................_ z W t k  ............... .<   X.X.X.X.X.X.X.X.",
"= p h l j N B V B S h * ' ......................` v W t v ..................< O X.X.X.X.X.X.X.X.",
"  $ N x N B h l l l 3 % y }  ...................' b T 0 B ................| p * # X.X.X.X.X.X.X.",
"X.> [ .... ... .....| 3 > B ` | ................F c E 0 D ................{ p S < X.X.X.X.X.X.X.",
"X.$ _ ................D h B S V } ............_ B Y n 2 } ................` 7 ~ p X.X.X.X.X.X.X.",
"X.X.Q ................_ y ^ ) ! u D ` |  ...^ A H K t S  .................~ a | ~ X.X.X.X.X.X.X.",
"X.X.p ..................S 3 ) D 8 q k Z N A b P U M 9 ] ..................l h ..] p X.X.X.X.X.X.",
"X.X.l [ ..................S > ; G E E P P P W G c 1 ] ..................} h Q ....p o X.X.X.X.X.",
"X.X.@ D ....................S d 4 M J L U K e s h { ....................F 3 { ...._ = X.X.X.X.X.",
"X.X.X.p ] ....................] Q p i q 6 g v ) | ....................] h D  .....} < X.X.X.X.X.",
"X.X.X.X.! ........................| } ] ] } ..........................) y _ ........S X.X.X.X.X.",
"X.X.X.X.* | ........................................................] : S ..........) 3 X.X.X.X.",
"X.X.X.X.@ 3 ......................................................} y @ h  ...........p X.X.X.X.",
"X.X.X.X.X.* h ..................................................{ h X.X.+ N | ........~ X.X.X.X.",
"X.X.X.X.X.X.: h ..............................................] l X.X.X.X.+ N ........{ = X.X.X.",
"X.X.X.X.X.X.X.* y | ........................................` p X.X.X.X.X.X.+ B  ....._ * X.X.X.",
"X.X.X.X.X.X.X.X.@ : ~ | ................................| ~ - X.X.X.X.X.X.X.X.@ V ..) > X.X.X.X.",
"X.X.X.X.X.X.X.X.X.  X.y ` | ..........................D N : % X.X.X.X.X.X.X.X.X.# p > X.X.X.X.X.",
"X.X.X.X.X.X.X.X.X.X.X.X.# h B _ | | .... . . .{ _ S y y h ` ` * X.X.X.X.X.X.X.X.X.X X.X.X.X.X.X.",
"X.X.X.X.X.X.X.X.X.X.X.X.X.X.O = * 3 p l B l p y > h N ] | ....` % X.X.X.X.X.X.X.X.X.X.X.X.X.X.X.",
"X.X.X.X.X.X.X.X.X.X.X.X.X.X.X.X.  X.. O * l V ! ] } ............) % X.X.X.X.X.X.X.X.X.X.X.X.X.X.",
"X.X.X.X.X.X.X.X.X.X.X.X.X.X.X.X.X.X.X.X.# p S }  ............... .) % X.X.X.X.X.X.X.X.X.X.X.X.X.",
"X.X.X.X.X.X.X.X.X.X.X.X.X.X.X.X.X.X.X.X.X.X.* 3 V _  ...............~ % X.X.X.X.X.X.X.X.X.X.X.X.",
"X.X.X.X.X.X.X.X.X.X.X.X.X.X.X.X.X.X.X.X.X.X.X.X.X.$ h D | ............p X X.X.X.X.X.X.X.X.X.X.X.",
"X.X.X.X.X.X.X.X.X.X.X.X.X.X.X.X.X.X.X.X.X.X.X.X.X.X.X.$ y B ]  .....S > X.X.X.X.X.X.X.X.X.X.X.X.",
"X.X.X.X.X.X.X.X.X.X.X.X.X.X.X.X.X.X.X.X.X.X.X.X.X.X.X.X.X.% > B ~ N : X.X.X.X.X.X.X.X.X.X.X.X.X.",
"X.X.X.X.X.X.X.X.X.X.X.X.X.X.X.X.X.X.X.X.X.X.X.X.X.X.X.X.X.X.X.X.X.= X.X.X.X.X.X.X.X.X.X.X.X.X.X.",
"X.X.X.X.X.X.X.X.X.X.X.X.X.X.X.X.X.X.X.X.X.X.X.X.X.X.X.X.X.X.X.X.X.X.X.X.X.X.X.X.X.X.X.X.X.X.X.X."
};
