/* XPM */
static char *_6[] = {
/* columns rows colors chars-per-pixel */
"48 48 81 1 ",
"  c #030303",
". c #0B0B0B",
"X c #141414",
"o c #1B1B1B",
"O c #222222",
"+ c #2A2A2A",
"@ c #333333",
"# c #3D3D3D",
"$ c #444444",
"% c #4B4B4B",
"& c #4F5658",
"* c #4E595D",
"= c #545454",
"- c #5C5C5C",
"; c #4D5B60",
": c #526066",
"> c #57666C",
", c #5C6468",
"< c #5C686E",
"1 c #5E737C",
"2 c #636363",
"3 c #6B6B6B",
"4 c #626C70",
"5 c #687174",
"6 c #757575",
"7 c #75797A",
"8 c #7A7A7B",
"9 c #6B8691",
"0 c #6F8994",
"q c #7F8E94",
"w c #7A8F98",
"e c #76919D",
"r c #7D949D",
"t c #848484",
"y c #848788",
"u c #858B8D",
"i c #8B8B8B",
"p c #828D92",
"a c #8B9295",
"s c #859399",
"d c #949494",
"f c #979B9C",
"g c #9D9D9D",
"h c #83A0AC",
"j c #9EA1A3",
"k c #87A6B3",
"l c #8AA9B6",
"z c #8FAFBD",
"x c #91A7B0",
"c c #96A9B1",
"v c #9BB2BB",
"b c #A4A4A4",
"n c #A5A7A8",
"m c #ACACAC",
"M c #B5B5B5",
"N c #BCBCBC",
"B c #94B6C5",
"V c #9EBFCE",
"C c #A3BFCB",
"Z c #9FC6D6",
"A c #A4C4D1",
"S c #AEC7D2",
"D c #ACC8D4",
"F c #A6C9D8",
"G c #AFCEDB",
"H c #B3DBEC",
"J c #BBDEEC",
"K c #B8E0F0",
"L c #C5C5C5",
"P c #CBCBCB",
"I c #D3D3D3",
"U c #D8D7D7",
"Y c #DCDCDC",
"T c #C1E1EF",
"R c #C3E6F5",
"E c #CAEBF8",
"W c #E4E4E4",
"Q c #ECECEC",
"! c #F4F4F4",
"~ c #FFFFFF",
"^ c None",
/* pixels */
"^^^^^^^^^^^^^^^^^^^^^^^o=#^^^^^^^^^^^^^^^^^^^^^^",
"^^^^^^^^^^^^^^^^^^^^^^^i~Um3^^^^^^^^^^^^^^^^^^^^",
"^^^^^^^^^^^^^^^^^^^^^^6~~~~Io^^^^^^^^^^^^^^^^^^^",
"^^^^^^^^^^^^^^^^^^^^^2!~~~~d^^^^^^^^^^^^^^^^^^^^",
"^^^^^^^^^^^^^^^^^^^^=W~~~~~=^^^^^^^2t$^^^^^^^^^^",
"^^^^^^^^^^^^^^^^^^^#Y~~~~~Uo^^^^^^^P~QN$^^^^^^^^",
"^^^^^^^^^^^^^^^^^^+P~~~~~~g^^^^^^^$!~~~i^^^^^^^^",
"^^^^^^^^^^^^^^^^^ON~~~~~~~-^^^^^^^i~~~~f^^^^^^^^",
"^^^^^^^^^^^^^^^^Xb~~~~~~~UO^^^^^^^L~~~~m^^^^^^^^",
"^^^^^^^^^^^^^^^^i~~QINmmN8^^^^^^^$!~~~~N^^^^^^^^",
"^^^^^^^^^^^^^^^6Ub3-38ddi8-@^^^^^y~~~~~IX^^^^^^^",
"^^^^^^^^^^^^^^.-2dI!~~~~~~~QLt$^.L~~~~~UO^^^^^^^",
"^^^^^^^^^^^^^.=L!~~~~~~~~~~~~~!n#yQ~~~~Q@^^^^^^^",
"^^^^^^^^^^^^+m~~~~~~~~~~~~~~~~~~Qi2P~~~Q#^^^^^^^",
"^^^^^^^^^^^=U~~~~~~~~~~~~~~~~~~~~~N=M~~~=^^^^^^^",
"^^^^^^^^^^3Q~~~~~~~~~~~~~~~~~~~~~~~I=m~~2^^^^^^^",
"^^^^^^^^^-Q~~~~~~~~~~~~~~~~~~~~~~~~~U-L~8^^^^^^^",
"^^^^^^^^$Q~~~~~~~~~~~~~~~~~~~~~~~~~~~P%Wi^^^^^^^",
"^^^^^^^OP~~~~~~~~~~~~~~~~~~~~~~~~~~~~~f6d^^^^^^^",
"^^^^^^^y~~~~~~~~~~~~~~~~~~~~~~~~~~~~~~!3=^^^^^^^",
"^^^^^^@W~~~~~~~~~~~~Ubt8ynY~~~~~~~~~~~~Lo^^^^^^^",
"^^^^^^i~~~~~~~~~~~Y6*0lBze>8Y~~~~~~~~~~~= ^^^^^^",
"^^^^^oI~~~~~~~~~~N*hJRGAAJJk:N~~~~~~~~~~m.^^^^^^",
"^^^^^%!~~~~~~~~~L>AEDqanjpcTF<P~~~~~~~~~Q+^^^^^^",
"^^^^^i~~~~~~~~~Q4BJvuU~~~!MsRV,!~~~~~~~~~2^^^^^^",
"^^^^^M~~~~~~~~~g&p<7Q~~~~~~mxR9b~~~~~~~~~i^^^^^^",
"^^^^oI~~~~~~~~!2UYtW~~~~~~~QuJZ5~~~~~~~~~m^^^^^^",
"^^^^+Y~~~~~~~~Y3!fP~~~~~~~~~fDH>W~~~~~~~~L^^^^^^",
"^^^^+W~~~~~~~~LtPg~~~~~~~~~~geK1I~~~~~~~~P^^^^^^",
"^^^^+Y~~~~~~~~N8dY~~~~~~~~~~M3w:P~~~~~~~~L^^^^^^",
"^^^^OU~~~~~~~~P#d~~~~~~~~~~~MNP$W~~~~~~~~N^^^^^^",
"^^^^^L~~~~~~~~noP~~~~~~~~~~~mPW3!~~~~~~~~m^^^^^^",
"^^^^^b~~~~~~L33-N~~~~~~~~~~~gYbd~~~~~~~~~t^^^^^^",
"^^^^^3~~~~U62P~I-Q~~~~~~~~~~dP-W~~~~~~~~!=^^^^^^",
"^^^^^@Q~Yt-M~~~~i8!~~~~~~~~Q8-m~~~~~~~~~U+^^^^^^",
"^^^^^^gg-m!~~~~~~i6W~~~~~~~N+g~~~~~~~~~~g^^^^^^^",
"^^^^^^+dQ~~~~~~~~~b-dPQ!WPi=#W~~~~~~~~~Q$^^^^^^^",
"^^^^^+I~~~~~~~~~~~~Wb62-28mQgi~~~~~~~~~n^^^^^^^^",
"^^^^^^-U~~~~~~~~~~~~~~!!!~~~Q-W~~~~~~~W#^^^^^^^^",
"^^^^^^^of!~~~~~~~~~~~~~~~~~~~gi~~~~~~~8^^^^^^^^^",
"^^^^^^^^^2P~~~~~~~~~~~~~~~~~~Q-W~~~~~j^^^^^^^^^^",
"^^^^^^^^^^OtY~~~~~~~~~~~~~~~~~gd~~~~mO^^^^^^^^^^",
"^^^^^^^^^^^^+yU~~~~~~~~~~~~~~~Q-Q~~bO^^^^^^^^^^^",
"^^^^^^^^^^^^^^O6N!~~~~~~~~~~~~~gd!yX^^^^^^^^^^^^",
"^^^^^^^^^^^^^^^^^$iLW~~~~~~~~~~Q%#^^^^^^^^^^^^^^",
"^^^^^^^^^^^^^^^^^^^X#3fNY!~~~~~~d^^^^^^^^^^^^^^^",
"^^^^^^^^^^^^^^^^^^^^^^^^O#=3tyigt.^^^^^^^^^^^^^^",
"^^^^^^^^^^^^^^^^^^^^^^^^^^^^^^^^^^^^^^^^^^^^^^^^"
};
