/* XPM */
static char *_3[] = {
/* columns rows colors chars-per-pixel */
"48 48 90 1 ",
"  c #030303",
". c #0C0C0C",
"X c #111111",
"o c #1B1B1B",
"O c #242424",
"+ c #2C2C2C",
"@ c #30302F",
"# c #323232",
"$ c #3B3B3B",
"% c #444444",
"& c #4C4C4C",
"* c #565656",
"= c #5B5B5C",
"- c #636363",
"; c #676868",
": c #6C6C6C",
"> c #6B6E70",
", c #657076",
"< c #6D7579",
"1 c #727373",
"2 c #70787B",
"3 c #7C7C7C",
"4 c #807F7F",
"5 c #647880",
"6 c #6B7B82",
"7 c #767F83",
"8 c #69828D",
"9 c #7F8183",
"0 c #73848B",
"q c #75888F",
"w c #718791",
"e c #7C99A4",
"r c #838485",
"t c #86898A",
"y c #8B8B8B",
"u c #878D90",
"i c #8E8F91",
"p c #908F90",
"a c #8F9192",
"s c #8A9498",
"d c #949494",
"f c #979C9E",
"g c #9C9C9C",
"h c #8799A0",
"j c #8C9BA1",
"k c #949DA1",
"l c #8EA2AB",
"z c #9CA1A3",
"x c #97A8AF",
"c c #8AA8B3",
"v c #8EADBB",
"b c #99AEB7",
"n c #9BB3BD",
"m c #A4A4A4",
"M c #A5A7A8",
"N c #A4A8A9",
"B c #ABACAC",
"V c #AFB3B4",
"C c #B3B3B3",
"Z c #B6B7B8",
"A c #B7B9BA",
"S c #BABABB",
"D c #C1BFBF",
"F c #92B4C3",
"G c #9FB8C3",
"H c #9BBDCC",
"J c #A1B7C0",
"K c #A1B9C4",
"L c #9FC2D1",
"P c #BEC0C1",
"I c #A2C4D2",
"U c #ACC7D3",
"Y c #AAC8D5",
"T c #B3D1DE",
"R c #AFD4E4",
"E c #B2D4E2",
"W c #B5D8E7",
"Q c #BBE0EF",
"! c #C3C3C3",
"~ c #CACACB",
"^ c #D3D3D3",
"/ c #D8D7D7",
"( c #D6D7D8",
") c #DCDCDC",
"_ c #C1E2F0",
"` c #E4E4E4",
"' c #ECECEC",
"] c #F4F4F4",
"[ c #FFFFFF",
"{ c None",
/* pixels */
"{{{{{{{{{{{{{{{{{{{{{{{{{{{{{{{{{{{{{{{{{{{{{{{{",
"{{{{{{{{{{{{{{{{{{{{{{{{{{{{{{{{{{{{{{{{{{{{{{{{",
"{{{{{{{{{{{{{{{{{o+$%%&%%$*{{{#{{{{{{{{{{{{{{{{{",
"{{{{{{{{{{{{{{{{gdC~)`']''/!AMggk=+o{{{{{{{{{{{{",
"{{{{{{{{{{{%1g!/'[[[[[[[[[[[[[[]`(!rO{{{{{{{{{{{",
"{{{{{{{{&3C'[[[[[[[[[[[[[[[[[[[[[[/= {{{{{{{{{{{",
"{{{{{{{:)[[[[[[[[[[[[[[[[[[[[[[[[`d:&{{{{{{{{{{{",
"{{{{{{{Om][[[[[[[[[[[[[[[[[[[[[[]mt`C%{{{{{{{{{{",
"{{{{{{{$>g'[[[[[[[[[[[[[[[[[[[[[Cr^[]M{{{{{{{{{{",
"{{{{{{#C)ry`[[[[[[[[[[[[[[[[[[[Sr![[['1{{{{{{{{{",
"{{{{{{3][`tp)[[[[[`Cr113gD`[[[^rC][[[[!{{{{{{{{{",
"{{{{{%![[[`dy^[[]AtgA^/~m3rS])yM][[[[[]1{{{{{{{{",
"{{{{{t'[[[['mr^'BdC`[[[[[]Ztgtz'[[[[[[[C{{{{{{{{",
"{{{{+Z[[[[[[]Brtr~[[[[[[[[[^**/[[[[[[[[`&{{{{{{{",
"{{{{=^[[[[[[[[d$B[[[[[[[[[[[3=~[[[[[[[[[r{{{{{{{",
"{{{{m`[[[[[[[[z=S[[[[[[[[[[]m;M][[[[[[[[M{{{{{{{",
"{{{{p][[[[[[[`a3S[[[[[[[[[['Agg([[[[[[[[S>{{{{{{",
"{{{Oy[[[[[[[[~dNA'[[[[[[[[[`ZDmC[[[[[[[[~:{{{{{{",
"{{{{d[[[[[[[[!d^C^[[[[[[[[[)C/mg[[[[[[[[(1{{{{{{",
"{{{{d[[[[[[[[^t`!A[[[[[[[[[(dSrm[[[[[[[[)1{{{{{{",
"{{{{d[[[[[[[[)1BMy][[[[[[[]N,h,P[[[[[[[[`-{{{{{{",
"{{{{r[[[[[[[['15l7![[[[[[['snL6`[[[[[[[[)${{{{{{",
"{{{{;[[[[[[[[]V8RJk'[[[[[]AxQcu[[[[[[[[[^O{{{{{{",
"{{{{*][[[[[[[[`<FQbM`[[['!kTI<~[[[[[[[[[C{{{{{{{",
"{{{{O^[[[[[[[[[CqHWbzBACkjIIqz][[[[[[[[[3{{{{{{{",
"{{{{{B[[[[[[[[[]B0vRWUKGYWG0d'[[[[[[[[[(%{{{{{{{",
"{{{{{;`[[[[[[[[[]CsqeFLLvq,m'[[[[[[[[[[m{{{{{{{{",
"{{{{{OC[[[[[[[[[[[`Pmy<<rV`[[[[[[[[[[[`-{{{{{{{{",
"{{{{{{r/[[[[[[[[[[[[]'][[[[[[[[[[[[[[[d{{{{{{{{{",
"{{{{{{Od'[[[[[[[[[[[[[[[[[[[[[[[[[[[[~%{{{{{{{{{",
"{{{{{{{*C[[[[[[[[[[[[[[[[[[[[[[[[[[[`;X{{{{{{{{{",
"{{{{{{{.&![[[[[[[[[[[[[[[[[[[[[[[[['ro {{{{{{{{{",
"{{{{{{{{{&~[[[[[[[[[[[[[[[[[[[[[[[`g-${{{{{{{{{{",
"{{{{{{{{{.=K][[[[[[[[[[[[[[[[[[[[^ydd${{{{{{{{{{",
"{{{{{{{{{{&3m)[[[[[[[[[[[[[[[[['CrM/B{{{{{{{{{{{",
"{{{{{{{{{{=Cy3C/][[[[[[[[[[[['!gdS]`={{{{{{{{{{{",
"{{{{{{{{{{{B]CrrMS/[[[[[[[])!gaM/[[~{{{{{{{{{{{{",
"{{{{{{{{{{{-`['Agyty1iggdr1%4B/][[[4{{{{{{{{{{{{",
"{{{{{{{{{{{{B[[[[/~B${{{{{{+)[[[[[)${{{{{{{{{{{{",
"{{{{{{{{{{{{*`[[[[['%{{{{{{+/[[[[[B{{{{{{{{{{{{{",
"{{{{{{{{{{{{oB[[[[[]&{{{{{{+~[[[[];{{{{{{{{{{{{{",
"{{{{{{{{{{{{{;)[[[[]*{{{{{{OS[[[[^{{{{{{{{{{{{{{",
"{{{{{{{{{{{{{oM][[[[-{{{{{{OC[[[[d{{{{{{{{{{{{{{",
"{{{{{{{{{{{{{{3^[[[[1{{{{{{om[[['d{{{{{{{{{{{{{{",
"{{{{{{{{{{{{{{{B][[[3{{{{{{Od[[[!{{{{{{{{{{{{{{{",
"{{{{{{{{{{{{{{{d~[[[y{{{{{{{1^~C:+{{{{{{{{{{{{{{",
"{{{{{{{{{{{{{{{{dBBg=X{{{{{{+-;={{{{{{{{{{{{{{{{",
"{{{{{{{{{{{{{{{{{={{{{{{{{{{{{{{{{{{{{{{{{{{{{{{"
};
