/* XPM */
static char *_[] = {
/* columns rows colors chars-per-pixel */
"48 48 83 1 ",
"  c #030303",
". c #0C0C0C",
"X c #141414",
"o c #1B1B1B",
"O c #232323",
"+ c #2B2B2B",
"@ c #333333",
"# c #3D3D3D",
"$ c #363D40",
"% c #424242",
"& c #4C4C4C",
"* c #4E565A",
"= c #4D595E",
"- c #545454",
"; c #51575A",
": c #5B5B5B",
"> c #505D62",
", c #596063",
"< c #5C676C",
"1 c #5B696F",
"2 c #5E6D74",
"3 c #5E737C",
"4 c #646464",
"5 c #64686A",
"6 c #6C6C6C",
"7 c #686E71",
"8 c #6E7375",
"9 c #62767E",
"0 c #6F7678",
"q c #747474",
"w c #777B7D",
"e c #7C7C7C",
"r c #6A828D",
"t c #708188",
"y c #798E97",
"u c #75909B",
"i c #848484",
"p c #80878A",
"a c #848A8C",
"s c #8C8D8D",
"d c #8A8F91",
"f c #8D9193",
"g c #939393",
"h c #9D9D9D",
"j c #8C9BA1",
"k c #83A1AE",
"l c #8DA2AB",
"z c #9FA0A1",
"x c #89ABBA",
"c c #91A7B0",
"v c #95A9B2",
"b c #A4A4A4",
"n c #ABABAB",
"m c #B4B4B4",
"M c #BCBCBC",
"N c #93B4C2",
"B c #9FB8C3",
"V c #96BACA",
"C c #A0BAC4",
"Z c #9CC2D2",
"A c #A0C1CF",
"S c #A3C3D1",
"D c #ACCAD6",
"F c #B7D3DF",
"G c #B3D6E5",
"H c #B9D7E3",
"J c #B7DBEA",
"K c #BCDFEE",
"L c #BCE0EF",
"P c #BEE3F2",
"I c #C4C4C4",
"U c #CCCCCC",
"Y c #D2D2D2",
"T c #DCDCDB",
"R c #C2E6F5",
"E c #C7E9F8",
"W c #C9ECFA",
"Q c #E3E3E3",
"! c #ECECEC",
"~ c #F3F3F3",
"^ c #F8F7F7",
"/ c #FFFFFF",
"( c None",
/* pixels */
"((((((((((((((((((((((((((((((((((((((((((((((((",
"((((((((((((((((((((((((((((((((((((((((((((((((",
"((((((((((((((((((((((((((((((((((((((((((((((((",
"((((((((((((((((((((((((((((((((((((((((((((((((",
"((((((((((((((((((((((((((((((((((((((((((((((((",
"((((((((((((((((((((((((((((((((((((((((((((((((",
"((((((((((((((((((((((((((((((((((((((((((((((((",
"(((((((((((((((+-eagse:#o(((((((((((((((((((((((",
"((((((((((((%sU!///////!Us# ((((((((((((((((((((",
"((((((((((%n!/////////////~n# +@((((((((((((((((",
"((((((((Og!/////////////////~h&MYbe&+X((((((((((",
"(((((((#I/////////////////////I:M///!Ube-@o(((((",
"((((((%T///////////////////////T-m///////QUn&(((",
"(((((#T/////////////////////////T:I/////////h(((",
"(((oXI///////////////////////////Y-Q////////I(((",
"((+M46T///////////////////////////be////////Q#((",
"((%~/M:g!//////////////////////////6M/////!Yh+((",
"((%^//!s:I/////^YbisfmQ////////////U6!Tmi:@(((((",
"((://///Y4qT//U6qzg3xr>a!///////////4Oo(((((((((",
"((6///////n:hg-mQ!QySWHu;Y//////////M(((((((((((",
"((6////////Q%+8ggggq<cFEN*T/////////!#((((((((((",
"((q////////U4Q~/^//~TMacRk5^/////////4((((((((((",
"((6////////6M/////////~zjP3M/////////g((((((((((",
"((:///////T4///////////^fDNw/////////M((((((((((",
"((&///////ng////////////IlG<~////////UX(((o#6hbO",
"((%~//////gn////////////QjK2Q////////YO:sMT^//!-",
"((+Q//////gn////////////TjP2Q////////U6////////q",
"(((U//////nh////////////MvJ2!////////Iq////////b",
"(((m//////Uq///////////!yHS0/////////mi///////Y-",
"(((s//////~4Y/////////QfmRrn/////////gh//////b+(",
"(((:///////mq^///////I7VPV,^/////////6U////Q6(((",
"(((@T///////es////^UgirPZ1U/////////Q:!///M#((((",
"((((M///////~qeQQmshTTyx=M//////////ne//!io(((((",
"((((e/////////h+@eUQYh#8Y///////////4I/U&(((((((",
"((((#!////////M:be64qgU^///////////M4!b+((((((((",
"(((((m///////!:T//////////////////^:h4((((((((((",
"(((((6///////ih///////////////////gXO(((((((((((",
"(((((+T/////M4^//////////////////Mo ((((((((((((",
"((((((a////!:Y//////////////////Y+((((((((((((((",
"((((((@Q///ib//////////////////U@(((((((((((((((",
"(((((((e//I4//////////////////nO((((((((((((((((",
"(((((((+T!&Y////////////////TeX(((((((((((((((((",
"((((((((qe.eY/////////////Ta+(((((((((((((((((((",
"((((((((..((o-hU!^///^!Ub4+(((((((((((((((((((((",
"(((((((((((((((o@-444-%O((((((((((((((((((((((((",
"((((((((((((((((((((((((((((((((((((((((((((((((",
"((((((((((((((((((((((((((((((((((((((((((((((((",
"(((((((((((((((((((((((((((((((((((((((((((((((("
};
