/* XPM */
static char *_1[] = {
/* columns rows colors chars-per-pixel */
"48 48 98 2 ",
"   c #0C0C0C",
".  c #121212",
"X  c #1A1A1B",
"o  c #232323",
"O  c #2B2B2B",
"+  c #353535",
"@  c #3C3C3C",
"#  c #3F4041",
"$  c #434343",
"%  c #464849",
"&  c #4B4C4B",
"*  c #4D4F50",
"=  c #555555",
"-  c #5A5A5A",
";  c #596368",
":  c #656565",
">  c #63696C",
",  c #6B6C6C",
"<  c #616B70",
"1  c #6E6F70",
"2  c #6D7071",
"3  c #64747B",
"4  c #68757B",
"5  c #747474",
"6  c #7B7C7C",
"7  c #6E8087",
"8  c #748085",
"9  c #7D8183",
"0  c #7C878B",
"q  c #7A8C94",
"w  c #748F9B",
"e  c #7A909A",
"r  c #7A97A4",
"t  c #7F9BA7",
"y  c #848485",
"u  c #868789",
"i  c #878989",
"p  c #8B8B8C",
"a  c #888F92",
"s  c #859095",
"d  c #8D9092",
"f  c #8F9699",
"g  c #8B9A9F",
"h  c #949494",
"j  c #959C9F",
"k  c #9B9B9B",
"l  c #A09F9F",
"z  c #8298A1",
"x  c #819DA9",
"c  c #959DA1",
"v  c #9E9FA0",
"b  c #88A0AA",
"n  c #97A1A5",
"m  c #9EA3A6",
"M  c #97A5AC",
"N  c #8AA5B1",
"B  c #98AEB7",
"V  c #92B1BF",
"C  c #A4A4A4",
"Z  c #A5AAAC",
"A  c #ABACAC",
"S  c #AEAFB0",
"D  c #ACB1B3",
"F  c #B4B4B4",
"G  c #B8B7B7",
"H  c #B9B8B7",
"J  c #B5B7B8",
"K  c #BCBCBC",
"L  c #94B2C0",
"P  c #9AB4C0",
"I  c #9DBAC6",
"U  c #9BBDCB",
"Y  c #A4BAC3",
"T  c #A2C0CC",
"R  c #A4C4D2",
"E  c #AFCBD7",
"W  c #A6CBDB",
"Q  c #B3D0DD",
"!  c #AED1E0",
"~  c #B2D6E5",
"^  c #B6D8E6",
"/  c #B8DFEF",
"(  c #C3C3C3",
")  c #C6C8C9",
"_  c #CBCCCC",
"`  c #D4D4D4",
"'  c #D8D8D7",
"]  c #D6D7D8",
"[  c #D7D8D8",
"{  c #DCDCDC",
"}  c #E4E3E3",
"|  c #E8E8E7",
" . c #EBEBEB",
".. c #F0F0EF",
"X. c #F4F4F4",
"o. c #F8F7F7",
"O. c #FFFFFF",
"+. c None",
/* pixels */
"+.+.+.+.+.+.+.+.+.+.+.+.+.+.+.+.+.+.+.+.+.+.+.+.+.+.+.+.o 6 @ +.+.+.+.+.+.+.+.+.+.+.+.+.+.+.+.+.",
"+.+.+.+.+.+.+.+.+.+.+.+.+.+.+.+.+.+.+.+.+.+.+.+.+.& & + & ] A , +.+.+.+.+.+.+.+.+.+.+.+.+.+.+.+.",
"+.+.+.+.+.+.+.+.+.+.+.+.+.+.+.+.+.+.+.+.+.& C k ) ) { l 6  .O.) y o +.+.+.+.+.+.+.+.+.+.+.+.+.+.",
"+.+.+.+.+.+.+.+.+.+.+.+.+.+.+.+.+.+.+ k F | X.O.O.O.O.K u ..O.O. .u = +.+.+.+.+.+.+.+.+.+.+.+.+.",
"+.+.+.+.+.+.+.+.+.+.+.+.+.+.+.+.= : ) ..O.O.O.O.O.O.O.D p o.O.O.O.O.k +.+.+.+.+.+.+.+.+.+.+.+.+.",
"+.+.+.+.+.+.+.+.+.+.+.+.+.+.+., h X.O.O.O.O.O.O.O.O.o.k Z O.O.O.O.O.X.G +.+.+.+.+.+.+.+.+.+.+.+.",
"+.+.+.+.+.+.+.+.+.+.+.+.+.+.= A O.O.O.O.O.O.O.O.O.O.X.p G O.O.O.O.O.O. ._ + +.+.+.+.+.+.+.+.+.+.",
"+.+.+.+.+.+.+.+.+.+.+.+.+.& ( O.O.O.O.O.O.O.O.O.O.O. .p ( O.O.O.O.O.O.O.X.F + +.+.+.+.+.+.+.+.+.",
"+.+.+.+.+.+.+.+.+.+.+.+.+ _ O.O.O.O.O.O.O.O.O.O.O.O.} y ` O.O.O.O.O.O.O.O.o.k @ +.+.+.+.+.+.+.+.",
"+.+.+.+.+.+.+.+.+.+.+.+.A X.O.O.O.O.O.O.O.O.O.O.O.O.' y  .O.O.O.O.O.O.O.O.O.O.6 @ +.+.+.+.+.+.+.",
"+.+.+.+.+.+.+.+.+.+.X , | O.O.O.O.O.O.O.O.O.O.O.O.O.K 9 { O.O.O.O.O.O.O.O.O.O.X.: +.+.+.+.+.+.+.",
"+.+.+.+.+.+.+.+.+.+.= ` O.O.O.O.O.O.O.O.O.O.O.{ K k > # h C K ..O.O.O.O.O.O.O.O.] & +.+.+.+.+.+.",
"+.+.+.+.+.+.+.+.+.X 9 X.O.O.O.O.O.O.O.O.O.O.D y k 1 : C ( C y h ( O.O.O.O.O.O.O.O.Z O +.+.+.+.+.",
"+.+.+.+.+.+.+.+.+.% ) O.O.O.O.O.O.O.O.O.o.h y ` S k ] O.O.X.| C p C O.O.O.O.O.O.O.X.5   +.+.+.+.",
"+.+.+.+.+.+.+.+.+.- | O.O.O.O.O.O.O.O.X.p 2 { _ F ' o.O.O.O.O.X.` 5 ) O.O.O.O.O.O.O.` +.+.+.+.+.",
"+.+.+.+.+.+.+.+.X h O.O.O.O.O.O.O.O.O._ q 3 G G F X.O.O.O.O.O.O.o._ 5 | O.O.O.O.O.O.| Z +.+.+.+.",
"+.+.+.+.+.+.+.+.X G O.O.O.O.O.O.O.O.X.9 r R < m o.O.O.O.O.O.O.O.O. .C C O.O.O.O.O.O.O._ , +.+.+.",
"+.+.+.+.+.+.+.  + ] O.O.O.O.O.O.O.O._ q W Y s } O.O.O.O.O.O.O.O.O.O.F k | O.O.O.O.O.O.O.p O +.+.",
"+.+.+.+.+.+.+.@ : { O.O.O.O.O.O.O.O.F q / B S o.O.O.O.O.O.O.O.O.O.O.} 5 { O.O.O.O.O.O.O.} & +.+.",
"+.+.+.+.+.+.- h y | O.O.O.O.O.O.O.O.m t ~ M [ O.O.O.O.O.O.O.O.O.O.O.| p _ O.O.O.O.O.O.O. .S +.+.",
"+.+.+.+.+.+.k G i | O.O.O.O.O.O.O.o.Z x Q n } O.O.O.O.O.O.O.O.O.O.O.| u _ O.O.O.O.O.O.O.O.A * +.",
"+.+.+.+.+., ` { 5 { O.O.O.O.O.O.O.O.Z z ^ c | O.O.O.O.O.O.O.O.O.O.o.' , K | | X.O.o.O.O.O.o.= +.",
"+.+.+.+.+.Z X.{ 5 } O.O.O.O.O.O.O.O.` 7 W Y K O.O.O.O.O.O.O.O.O...` : $ 5 i a p k C S K ) ( h +.",
"+.+.+.+.% ] O. .y K O.O.O.O.O.O.O.O.} f V Y D ` O.O.O.O.O.O.o._ E p - h { ` _ K C k k p y & o +.",
"+.+.+.+.A o.O.X.u K O.O.O.O.O.O.O.O.O.Z e R I m ) | X.X.' _ C H G h p | O.O.O.O.O.o.o.o.( % +.+.",
"+.+.+.= } O.O.O.F 6 o.O.O.O.O.O.O.O.O.O.9 b U E z m Z j s ; K { ( k ( o.O.O.O.O.O.O.O.O.G % +.+.",
"+.+.+.K O.O.O.O._ p ` O.O.O.O.O.O.O.O.O.| p e L Q Q E Q R P 9 C y C o.O.O.O.O.O.O.O.O.X.k +.+.+.",
"+.+., } O.O.O.O.X.6 K O.O.O.O.O.O.O.O.O.O.} J > e N L I U w 4 u K O.O.O.O.O.O.O.O.O.O.] 5 +.+.+.",
"+.+.) O.O.O.O.O.O.Z - ..O.O.O.O.O.O.O.O.O.O.o.] A u 0 8 a c _ | O.O.O.O.O.O.O.O.O.O.o.D +.+.+.+.",
"+.u | O.O.O.O.O.K $ # k O.O.O.O.O.O.O.O.O.O.O.O.o.X.| X. .O.O.O.O.O.O.O.O.O.O.O.O.O.' , +.+.+.+.",
"+.( O.O.O.O.X.h + +.+.y K O.O.O.O.O.O.O.O.O.O.O.O.O.O.O.O.O.O.O.O.O.O.O.O.O.O.O.O. .h +.+.+.+.+.",
"+.6 o.O.O.| 5 O +.+.+.+.h ' O.O.O.O.O.O.O.O.O.O.O.O.O.O.O.O.O.O.O.O.O.O.O.O.O.O.O.G # +.+.+.+.+.",
"+.: k o._ = O +.+.+.+.+.+.h | O.O.O.O.O.O.O.O.O.O.O.O.O.O.O.O.O.O.O.O.O.O.O.O.O.( $ +.+.+.+.+.+.",
"+.+.: 6 $ +.+.+.+.+.+.+.+.+.p o.O.O.O.O.O.O.O.O.O.O.O.O.O.O.O.O.O.O.O.O.O.O.O.G : +.+.+.+.+.+.+.",
"+.+.+.  +.+.+.+.+.+.+.+.+.+.@ y | O.O.O.O.O.O.O.O.O.O.O.O.O.O.O.O.O.O.O.O.o.k 1 +.+.+.+.+.+.+.+.",
"+.+.+.+.+.+.+.+.+.+.+.+.+.@ Z u k F O.O.O.O.O.O.O.O.O.O.O.O.O.O.O.O.O.O.} u 5 +.+.+.+.+.+.+.+.+.",
"+.+.+.+.+.+.+.+.+.+.+.o - ' O.o.A u k _ o.O.O.O.O.O.O.O.O.O.O.O.O.X. .Z : +.+.+.+.+.+.+.+.+.+.+.",
"+.+.+.+.+.+.+.+.+.+.O 6 | o.O.O.X.} h i h A } X.o.O.O.o.O.O.o. ._ C 6 O +.+.+.+.+.+.+.+.+.+.+.+.",
"+.+.+.+.+.+.+.+.+.+ k X.O.O.O.O.O.O.X.} C h p p h C C Z k k 6 6 @ +.+.+.+.+.+.+.+.+.+.+.+.+.+.+.",
"+.+.+.+.+.+.+.  @ _ o.O.O.O.O.O.O.O.O.O.O.| K 5 $ . . X O +.+.+.+.+.+.+.+.+.+.+.+.+.+.+.+.+.+.+.",
"+.+.+.+.+.+.+.+., X.O.O.O.O.O.O.O.X.X.K ( 5 +.@ +.+.+.+.+.+.+.+.+.+.+.+.+.+.+.+.+.+.+.+.+.+.+.+.",
"+.+.+.+.+.+.+.+.: h O.O.o.O.} ] C h & +.+.+.+.+.+.+.+.+.+.+.+.+.+.+.+.+.+.+.+.+.+.+.+.+.+.+.+.+.",
"+.+.+.+.+.+.+.+.+.- A ` ( p 6 +.@ +.+.+.+.+.+.+.+.+.+.+.+.+.+.+.+.+.+.+.+.+.+.+.+.+.+.+.+.+.+.+.",
"+.+.+.+.+.+.+.+.+.+.@ & +.+.+.+.+.+.+.+.+.+.+.+.+.+.+.+.+.+.+.+.+.+.+.+.+.+.+.+.+.+.+.+.+.+.+.+.",
"+.+.+.+.+.+.+.+.+.+.+.+.+.+.+.+.+.+.+.+.+.+.+.+.+.+.+.+.+.+.+.+.+.+.+.+.+.+.+.+.+.+.+.+.+.+.+.+.",
"+.+.+.+.+.+.+.+.+.+.+.+.+.+.+.+.+.+.+.+.+.+.+.+.+.+.+.+.+.+.+.+.+.+.+.+.+.+.+.+.+.+.+.+.+.+.+.+.",
"+.+.+.+.+.+.+.+.+.+.+.+.+.+.+.+.+.+.+.+.+.+.+.+.+.+.+.+.+.+.+.+.+.+.+.+.+.+.+.+.+.+.+.+.+.+.+.+.",
"+.+.+.+.+.+.+.+.+.+.+.+.+.+.+.+.+.+.+.+.+.+.+.+.+.+.+.+.+.+.+.+.+.+.+.+.+.+.+.+.+.+.+.+.+.+.+.+."
};
