/* XPM */
static char *_1[] = {
/* columns rows colors chars-per-pixel */
"48 48 78 1 ",
"  c #020202",
". c #0C0C0C",
"X c #131313",
"o c #1A1A1B",
"O c #262626",
"+ c #2C2C2C",
"@ c #353535",
"# c #3B3B3B",
"$ c #3D464A",
"% c #434343",
"& c #4C4C4C",
"* c #525252",
"= c #505A5E",
"- c #5B5B5B",
"; c #536065",
": c #5A6367",
"> c #54646A",
", c #59656B",
"< c #5D6A6F",
"1 c #5D6D73",
"2 c #5F757E",
"3 c #646464",
"4 c #61686B",
"5 c #6C6C6C",
"6 c #626E73",
"7 c #6B7072",
"8 c #737474",
"9 c #777778",
"0 c #7C7C7C",
"q c #637A83",
"w c #747F84",
"e c #718B97",
"r c #748E99",
"t c #74919D",
"y c #7694A1",
"u c #848484",
"i c #8C8C8C",
"p c #829096",
"a c #8D9295",
"s c #83949B",
"d c #939393",
"f c #939799",
"g c #9B9B9B",
"h c #8799A1",
"j c #8B9FA8",
"k c #9C9FA0",
"l c #8FA0A7",
"z c #8EA3AC",
"x c #86A6B4",
"c c #8EAFBC",
"v c #A3A4A4",
"b c #AAAAAA",
"n c #B3B4B4",
"m c #B7B8B9",
"M c #BCBCBC",
"N c #92B3C1",
"B c #A5BDC7",
"V c #BFBFC0",
"C c #A8C1CC",
"Z c #A2C3D1",
"A c #ACCAD7",
"S c #B1D5E4",
"D c #B7DEEE",
"F c #BBDEEC",
"G c #BEE2F1",
"H c #C4C3C4",
"J c #CBCBCB",
"K c #D4D4D4",
"L c #DCDCDC",
"P c #C2E0EC",
"I c #C2E5F4",
"U c #C5E8F7",
"Y c #C4E9F9",
"T c #E3E3E3",
"R c #EBEBEB",
"E c #F4F4F4",
"W c #FFFFFF",
"Q c None",
/* pixels */
"QQQQQQQQQQQQQQQQQQQQQQQQQQQQQQQQQQQQQQQQQQQQQQQQ",
"QQQQQQQQQQQQQQQQQQQQQQQQQQQQQQQQQQQQQQQQQQQQQQQQ",
"QQQQQQQQQQQQQQQQQQQQQQQQQQQQQQQQQQQQQQQQQQQQQQQQ",
"QQQQQQQQQQQ3v5%XQQQQQQQQQQQQQQQQQQQQQQQQQQQQQQQQ",
"QQQQQQQQQQ*TWWRJg3@QQQQQQQQQQQQQQQQQQQQQQQQQQQQQ",
"QQQQQQQQQ@HWWWWWWWRHi-+QQQQQQQQQQQQQQQQQQQQQQQQQ",
"QQQQQQQQQ&EWWWWWWWWWWWTMu+ QQQQQQQQQQQQQQQQQQQQQ",
"QQQQQQQQQQ-LWWWWWWWWWEKd8%@%&%@oQQQQQQQQQQQQQQQQ",
"QQQQQQQQQQQ@HWWWWWWRb53iHTEEEEELni%QQQQQQQQQQQQQ",
"QQQQQQQQQQQQogEWWEn-0JEWWWWWWWWWWWEm3oQQQQQQQQQQ",
"QQQQQQQQQQQQQQ8RR85KWWWWWWWWWWWWWWWWEM&QQQQQQQQQ",
"QQQQQQQQQQQQQQQ#*kEWWWWWWWWWWWWWWWWWWWR0XQQQQQQQ",
"QQQQ#oQQQQQQQQQOMWWWWWWWWWWWWWWWWWWWWWWEvoQQQQQQ",
"QQQ*TnOQQQQQQQ@KWWWWWWWWWWWWWWWWWWWWWWWWWvoQQQQQ",
"QQ@JWWK&QQQQQoMWWWWWWWWWWWWWWWWWWWWWWWWWWWiQQQQQ",
"QQgWWWWR8QQQQdWWWWWWWWWWWWWWWWWWWWWWWWWWWWE5QQQQ",
"QQuWWWWWEgoQ-EWWWWWWWWWWWWWWWWWWWWWWWWWWWWWL+QQQ",
"QQ+KWWWWWWmOJWWWWWWWWWWWWRJvvvHRWWWWWWWWWWWWdQQQ",
"QQQ8WWWWWWH5WWWWWWWWWWWRf6qtxyq,wRWWWWWWWWWWT@QQ",
"QQQoHWWWWW0HWWWWWWWWWWL4eSUUIUDe33HWWWWWWWWWW0QQ",
"QQQQ3EWWWR3EWWWWWWWWWT:cIChsss1gEK-HWWWWWWWWWHQQ",
"QQQQXnWWWm0WWWWWWWWWE7xGlgKTTJkivTL-RWWWWWWWWE@Q",
"QQQQQ&EWWdvWWWWWWWWWm2GlnWWWWWWEHdbudWWWEETTJn@ ",
"QQQQQQvWW8JWWWWWWWWW9NAaEWWWWWWWWEM8+du833350dvn",
"QQQQQQ%RW5LWWWWWWWWE=SzMWWWWWWWWWWWR*5mKLEEWWWWR",
"QQQQQQQdE3RWWWWWWWWL1IhKWWWWWWWWWWWWinWWWWWWWWWu",
"QQQQQQQ@K3RWWWWWWWWK>IzHWWWWWWWWWWWWgvWWWWWWWWT@",
"QQQQQQQQ53TWWWWWWWWR;DBvWWWWWWWWWWWWinWWWWWWWWvQ",
"QQQQQQQQXOTWWWWWWWWE4ZPwTWWWWWWWWWWW5KWWWWWWWR&Q",
"QQQQQQQQQ MWWWWWWWWWgrD:gWWWWWWWWWWK3EWWWWWWWvQQ",
"QQQQQQQQQ dWWWWWWWWWT1xfdJWWWWWWWWE0nWWWWWWWR%QQ",
"QQQQQQQQQQ-WWWWWWWWWWm$HRuLWWWWWWWv0EWWWWWWWiQQQ",
"QQQQQQQQQQOLWWWWWWWWWWg3LLiTWWWWEg5RWWWWWWWL+QQQ",
"QQQQQQQQQQQdWWWWWWWWWWWM3ig5LETb3uRWWWWWWWE3QQQQ",
"QQQQQQQQQQQ%RWWWWWWWWWWWRb5@@53iKWWWWWWWWWgQQQQQ",
"QQQQQQQQQQQQgWWWWWWWWWWWWWWK&LEWWWWWWWWWWJOQQQQQ",
"QQQQQQQQQQQQOKWWWWWWWWWWWWWE3TWWWWWWWWWWT&QQQQQQ",
"QQQQQQQQQQQQQ-EWWWWWWWWWWWWW5LWWWWWWWWWR3QQQQQQQ",
"QQQQQQQQQQQQQQ8EWWWWWWWWWWWWuMWWWWWWWWE0QQQQQQQQ",
"QQQQQQQQQQQQQQQuEWWWWWWWWWWWbgWWWWWWWEuQQQQQQQQQ",
"QQQQQQQQQQQQQQQQ3TWWWWWWWWWWHuWWWWWWEuQQQQQQQQQQ",
"QQQQQQQQQQQQQQQQQ#HEWWWWWWWWK5WWWWWE0QQQQQQQQQQQ",
"QQQQQQQQQQQQQQQQQQo5JWWWWWWWR-EWWWL-QQQQQQQQQQQQ",
"QQQQQQQQQQQQQQQQQQQQo-bTEWWWW3TWWM%QQQQQQQQQQQQQ",
"QQQQQQQQQQQQQQQQQQQQQQQO*8igv@JEu.QQQQQQQQQQQQQQ",
"QQQQQQQQQQQQQQQQQQQQQQQQQQQQQ 0-QQQQQQQQQQQQQQQQ",
"QQQQQQQQQQQQQQQQQQQQQQQQQQQQQQ.QQQQQQQQQQQQQQQQQ",
"QQQQQQQQQQQQQQQQQQQQQQQQQQQQQQQQQQQQQQQQQQQQQQQQ"
};
