/* XPM */
static char *_7[] = {
/* columns rows colors chars-per-pixel */
"48 48 113 2 ",
"   c #0D0001",
".  c #1B0003",
"X  c #260004",
"o  c #2A0005",
"O  c #340006",
"+  c #3C0007",
"@  c #420008",
"#  c #4C0009",
"$  c #55000A",
"%  c #5B000B",
"&  c #64000C",
"*  c #6C000D",
"=  c #75000E",
"-  c #7A000F",
";  c #700613",
":  c #7B0110",
">  c #722D39",
",  c #79303E",
"<  c #794A56",
"1  c #7C4F5A",
"2  c #6D5B67",
"3  c #7E606E",
"4  c #78707B",
"5  c #830010",
"6  c #8C0011",
"7  c #800F1D",
"8  c #930012",
"9  c #9D0013",
"0  c #940919",
"q  c #A50014",
"w  c #AC0015",
"e  c #A60519",
"r  c #AC0518",
"t  c #B40016",
"y  c #BB0017",
"u  c #BD0118",
"i  c #BC091E",
"p  c #811928",
"a  c #961D2F",
"s  c #B50F25",
"d  c #A41226",
"f  c #A9152A",
"g  c #A11C2E",
"h  c #AE192C",
"j  c #B11429",
"k  c #80202E",
"l  c #802E3D",
"z  c #8C2838",
"x  c #AE2739",
"c  c #BD2034",
"v  c #C20017",
"b  c #C40118",
"n  c #CB0119",
"m  c #D40017",
"M  c #D4011A",
"N  c #DB001B",
"B  c #EF0017",
"V  c #E4001C",
"C  c #EC001D",
"Z  c #F3001D",
"A  c #FF001F",
"S  c #C40A22",
"D  c #D90621",
"F  c #D10821",
"G  c #C31127",
"H  c #E70722",
"J  c #E70925",
"K  c #FF0020",
"L  c #873E4D",
"P  c #8B3C4B",
"I  c #973948",
"U  c #B7384A",
"Y  c #8E4351",
"T  c #8E4E5D",
"R  c #A65969",
"E  c #896A78",
"W  c #747C87",
"Q  c #907988",
"!  c #A07582",
"~  c #A87482",
"^  c #7E8893",
"/  c #76919D",
"(  c #8E8492",
")  c #808A95",
"_  c #988893",
"`  c #A58895",
"'  c #899AA7",
"]  c #8D99A8",
"[  c #85A5B1",
"{  c #87AAB5",
"}  c #89ACB9",
"|  c #A5A7B4",
" . c #A0B1BD",
".. c #93B4C0",
"X. c #ABB3C0",
"o. c #B1B3C0",
"O. c #9FCEDA",
"+. c #A9C2CD",
"@. c #A4C7D4",
"#. c #A0CBD8",
"$. c #A9CEDE",
"%. c #B7CFDB",
"&. c #A0D1DD",
"*. c #B6D3DF",
"=. c #ACDCE9",
"-. c #B1D5E1",
";. c #B3DAE7",
":. c #ADE1EF",
">. c #B7E0EE",
",. c #B7E6F4",
"<. c #BBE4F1",
"1. c #C0E9F6",
"2. c None",
/* pixels */
"2.2.2.2.2.2.2.2.2.2.2.2.2.2.2.2.2.2.2.2.2.2.2.2.2.2.2.2.2.2.2.2.2.2.2.2.2.2.2.2.2.2.2.2.2.2.2.2.",
"2.2.2.2.2.2.2.2.2.2.2.2.2.2.2.2.2.2.2.2.2.2.2.2.2.2.2.2.2.2.2.2.2.2.2.2.2.2.2.2.2.2.2.2.2.2.2.2.",
"2.2.2.2.2.2.2.2.2.2.2.2.2.2.2.2.2.2.2.2.2.2.2.2.2.2.2.2.2.2.2.2.2.2.2.2.2.2.2.2.2.2.2.2.2.2.2.2.",
"2.2.2.2.2.2.2.2.2.2.2.2.2.2.2.2.2.2.2.2.2.2.2.2.2.2.2.2.2.2.2.2.2.2.2.2.2.2.2.2.2.2.2.2.2.2.2.2.",
"2.2.2.2.2.2.2.2.2.2.2.2.2.2.2.2.2.2.2.2.2.2.2.2.2.2.2.2.2.2.2.2.2.2.2.2.2.2.2.2.2.2.2.2.2.2.2.2.",
"2.2.2.2.2.2.2.O @ 2.2.2.2.2.2.2.2.2.2.2.2.2.2.2.2.2.2.2.2.2.2.2.2.2.2.2.2.2.2.2.2.2.2.2.2.2.2.2.",
"2.2.2.2.2.2.2.6 y y b q b 6 q 5 5 y = 8 = = # . X O - % : & $ 2.2.o 2.2.2.2.2.2.2.2.2.2.2.2.2.2.",
"2.2.2.2.2.2.6 u K K K K K K Z A K Z Z N n 6 : 6 w M V Z V C V n b 9 = 5 2.2.2.2.2.2.2.2.2.2.2.2.",
"2.2.2.2.2.2.8 Z K K K A K K A A A A M 9 q b V Z A A K A A A K K A K A n 8 - 2.2.2.2.2.2.2.2.2.2.",
"2.2.2.2.2.# q K K K K A A A A K V y 6 w C A A A A A A A A A A A A A A K Z n - @ 2.2.2.2.2.2.2.2.",
"2.2.2.2.2.o # 6 N K A A K A A C 8 q M A A A A A A A A A A A A A A A A A A K Z q % 2.2.2.2.2.2.2.",
"2.2.2.2.2.2.2.# $ 6 N K K K N w 8 C A A A A A A A A A A A A A A A A A A A A K Z n 8 2.2.2.2.2.2.",
"2.2.2.2.2.2.2.2.2.2.$ 5 M Z 6 t V A A A A A A A A A A A A A A A A A A A A A A A A u % 2.2.2.2.2.",
"2.2.2.2.2.2.2.2.2.2.2.2.# * 8 Z A A A A A A A A A A A A A A A A A A A A A A A A A A n 5 2.2.2.2.",
"2.2.2.2.2.2.2.2.2.2.2.2.2.= V A A A A A A A A A A A A A A A A A A A A A A A A A A K Z 9 2.2.2.2.",
"2.2.2.2.2.2.2.2.2.2.2.2.2.t K A A A A A A A A A A A A A A A A K A A A A A A A A A A K V 6 2.2.2.",
"2.2.o + 2.2.2.2.2.2.2.2.w Z A A A A A A A A A A A B m b e j i n A A A A A A K A A A A K n * 2.2.",
"2.2.6 y * @ 2.2.2.2.2.2.n K A A A A A A A A A Z n k E ) ' / 3 ; 8 b Z K K K K Z K A A A Z = . 2.",
"2.* V A Z u * @ 2.2.2.q C K A A A A A A A A Z g E  .:.,.,.$.Y S N r q V K K K K K Z M y q 8 6 6 ",
"2.8 A A A A Z u = + & t K K A A A A A A A C f W <.-.| _ ! 1 0 N M M w t Z K K N b 9 8 t n Z K 5 ",
"+ b K A A A A A Z y - V A A A A A A A A A e Q &. .R s J N m M n M i 9 : 9 b 9 e t M V A A K C : ",
"2.6 V A A A A A A M q A A A A A A A A A V l #.+.U H A A A A A A Z C M 6 & 9 M V A K A A A K N 2.",
"2.o 5 Z K A A A A b b Z A A A A A A A A q ( #.~ N A A A A A A A A A A A w n K A A A A A A K M + ",
"2.2.& w C K A A Z n t K A A A A A A K Z d } @.x Z A A A A A A A A A A A b q A K A A A A A K w + ",
"2.2.2.2.w K A A K t b A A A A A A A A B z  . .h A A A A A A A A A A A A N q Z K A A A A K A 8 2.",
"2.2.2.2.6 n A K A b n A A A A A A A A A > @. .c A A A A A A A A A A A A N 9 Z K A A A A K M q 2.",
"2.2.2.2.2.$ n K A t u A A A A A A A A B a [ *.I B A A A A A A A A A A A n t Z A A A A A A n 2.2.",
"2.2.2.2.2.2.8 N A u u A A A A A A A A A q ) <._ G A A A A A A A A A A A M w K A A A K K Z 8 . 2.",
"2.2.2.2.2.2.. * V M w K A A A A A A A A M 1 ;.%.Y N A A A A A A A A A Z q N K A A A A A Z $ 2.2.",
"2.2.2.2.2.2.2.2.t M w C A A A A A A A A A g ' :.4 6 V A A A A A A A Z M 9 A A A A A A A u + 2.2.",
"2.2.2.2.2.2.2.2.2.6 6 N A A A A A A A A A m , [ T b y n Z A A A K K n w M K A A A A A Z - 2.2.2.",
"2.2.2.2.2.2.2.2.2.2.* y A A A A A A A A A A M Y > N m b m Z A A Z n 9 n A A A A A K K M & 2.2.2.",
"2.2.2.2.2.2.2.2.2.2.X * C A A A A A A A A A Z m 9 w M y e 8 b n q q N Z A A A A A A A 5 2.2.2.2.",
"2.2.2.2.2.2.2.2.2.2.2.@ b K A A A A A A A A A A C u r t 6 = $ 9 b C A A A A A A A K M & 2.2.2.2.",
"2.2.2.2.2.2.2.2.2.2.2.  ; V A A A A A A A A A A A K Z V V N 8 b A A A A A A A A A Z - 2.2.2.2.2.",
"2.2.2.2.2.2.2.2.2.2.2.2.2.q A K A A A A A A A A A A A A K K n w A A A A A A A A A b @ 2.2.2.2.2.",
"2.2.2.2.2.2.2.2.2.2.2.2.2.* n A A A A A A A A A A A A A A A V w V A A A A A A A V & 2.2.2.2.2.2.",
"2.2.2.2.2.2.2.2.2.2.2.2.2.2.& n A A A A A A A A A A A A A A A t b A A A A A K V n 2.2.2.2.2.2.2.",
"2.2.2.2.2.2.2.2.2.2.2.2.2.2.2.8 N A A A A A A A A A A A A A K M w Z A A A A K t 2.2.2.2.2.2.2.2.",
"2.2.2.2.2.2.2.2.2.2.2.2.2.2.2.2.- n K K A A A A A A A A A A A Z q N A A A A n = 2.2.2.2.2.2.2.2.",
"2.2.2.2.2.2.2.2.2.2.2.2.2.2.2.2.2.% 9 V K K K A A A A A A A K Z y w A A A V & 2.2.2.2.2.2.2.2.2.",
"2.2.2.2.2.2.2.2.2.2.2.2.2.2.2.2.2.2.2.6 w N K K A A A A A A K K M q V K N t 2.2.2.2.2.2.2.2.2.2.",
"2.2.2.2.2.2.2.2.2.2.2.2.2.2.2.2.2.2.2.2.2.6 q n Z Z A K A K K A V 9 n Z 5 2.2.2.2.2.2.2.2.2.2.2.",
"2.2.2.2.2.2.2.2.2.2.2.2.2.2.2.2.2.2.2.2.2.2.2.& & w w w y w b 5 6 @ = 8 O 2.2.2.2.2.2.2.2.2.2.2.",
"2.2.2.2.2.2.2.2.2.2.2.2.2.2.2.2.2.2.2.2.2.2.2.2.2.2.2.+ O 2.2.2.2.2.@ 2.2.2.2.2.2.2.2.2.2.2.2.2.",
"2.2.2.2.2.2.2.2.2.2.2.2.2.2.2.2.2.2.2.2.2.2.2.2.2.2.2.2.2.2.2.2.2.2.2.2.2.2.2.2.2.2.2.2.2.2.2.2.",
"2.2.2.2.2.2.2.2.2.2.2.2.2.2.2.2.2.2.2.2.2.2.2.2.2.2.2.2.2.2.2.2.2.2.2.2.2.2.2.2.2.2.2.2.2.2.2.2.",
"2.2.2.2.2.2.2.2.2.2.2.2.2.2.2.2.2.2.2.2.2.2.2.2.2.2.2.2.2.2.2.2.2.2.2.2.2.2.2.2.2.2.2.2.2.2.2.2."
};
