/* XPM */
static char *_9[] = {
/* columns rows colors chars-per-pixel */
"48 48 75 1 ",
"  c #030303",
". c #151515",
"X c #1C1C1C",
"o c #242424",
"O c #2A2A2A",
"+ c #323232",
"@ c #3D3D3D",
"# c #444444",
"$ c #474848",
"% c #4C4C4C",
"& c #4C565A",
"* c #545454",
"= c #535A5D",
"- c #5B5B5B",
"; c #566166",
": c #5D6062",
"> c #51636B",
", c #5A686E",
"< c #646464",
"1 c #666B6D",
"2 c #6B6B6B",
"3 c #696E70",
"4 c #6D7273",
"5 c #66777E",
"6 c #757575",
"7 c #707678",
"8 c #7C7C7C",
"9 c #637A84",
"0 c #677E88",
"q c #69838D",
"w c #7D878C",
"e c #6D8690",
"r c #6E8995",
"t c #7C8C93",
"y c #7F9CA7",
"u c #848484",
"i c #80878B",
"p c #87898B",
"a c #8B8B8B",
"s c #8E9192",
"d c #85949A",
"f c #949494",
"g c #969A9C",
"h c #9B9C9C",
"j c #8BAAB7",
"k c #8CACB9",
"l c #A2A3A3",
"z c #ABABAB",
"x c #B3B3B3",
"c c #BCBCBC",
"v c #97B6C4",
"b c #9CB6C2",
"n c #9BBECD",
"m c #A2BBC6",
"M c #9DC0CF",
"N c #ADC7D2",
"B c #ACC9D5",
"V c #ACCFDE",
"C c #B5D1DD",
"Z c #AFD3E2",
"A c #B6D4E0",
"S c #B4D8E8",
"D c #BBE1F1",
"F c #C2C2C2",
"G c #CBCBCB",
"H c #D4D4D4",
"J c #DCDBDB",
"K c #C0DEEA",
"L c #C2E5F3",
"P c #C5E8F6",
"I c #E4E4E4",
"U c #EBEBEB",
"Y c #F3F3F3",
"T c #FFFFFF",
"R c None",
/* pixels */
"RRRRRRRRRRRRRRRRRRRRRRRRRRRRRRRRRRRRRRRRRRRRRRRR",
"RRRRRRRRRRRRRRRRRRRRRRRRRRRRRRRRRRRRRRRRRRRRRRRR",
"RRRRRRRRRRRRRRRRRRRRRRRRRRRRRRRRRRRRRRRRRRRRRRRR",
"RRRRRRRRRRRRRRRRRRRRRRRRRRRRRRRRRRRRRRRRRRRRRRRR",
"RRRRRRRRRRRRRRRRRRRRRRRRRo+@%%$oRRRRRRRRRRRRRRRR",
"RRRRRRRRRRRRRRRRRRRRRR@6zHUYYYUJFf<XRRRRRRRRRRRR",
"RRRRRRRRRRRRRRRRRRRR%xUTTTTTTTTTTTTH8ORRRRRRRRRR",
"RRRRRRRRRRRRRRRRR OhYTTTTTTTTTTTTTTTTJ6RRRRRRRRR",
"RRRRRRRRRRRRRRR  -JTTTTTTTTTTTTTTTTTTTTlORR RRRR",
"RRRRRRRRRRRR.$u+uYTTTTTTTTTTTTTTTTTTTTTTG.2*RRRR",
"RRRRRRRRRRO6GY8pTTTTTTTTTTTTTTTTTTTTTTTT8pThRRRR",
"RRRRRRR.-hITTf2YTTTTTTTTTTTTTTTTTTTTTTY2aTTG.RRR",
"RRRRR+8GTTTTG*ITTTTTTTTTTTTTTTTTTTTTTU<hTTTU@RRR",
"RRo<xUTTTTTY-cTTTTTTTTTTTTTTTTTTTTTTJ-zTTTTT2RRR",
"ROFTTTTTTTTz6TTTTTTTTTTTTYGf8ufFYTTJ*FTTTTTTpRRR",
"R@ITTTTTTTY<GTTTTTTTTTTTz=9>fGx8<lc*FTTTTTTTxRRR",
"R$UTTTTTTTG2TTTTTTTTTTYp9MDtJIGxp+.xTTTTTTTTH.RR",
"R$UTTTTTTTalTTTTTTTTTT8qDLb=agzcGJl<YTTTTTTTIoRR",
"RX<26paafl%JTTTTTTTTTl0LAtdFYTTTTTTaaTTTTTTTI+RR",
"RRRRRRRRRR#YTTTTTTTTU;VCwGTTTTTTTTTU-JTTTTTTY$RR",
"RRRRRRRRRR2TTTTTTTTTcqLdGTTTTTTTTTTThaTTTTTTT%RR",
"RRRRRRRRRRuTTTTTTTTTsjCgTTTTTTTTTTTTJ2TTTTTTY*RR",
"RRRRRRRRRRfTTTTTTTTT1nmxTTTTTTTTTTTTI2TTTTTTT*RR",
"RRRRRRRRRRfTTTTTTTTT7MbxTTTTTTTTTTTTI2YTTTTTY%RR",
"RRRRRRRRRRpTTTTTTTTTpkBgTTTTTTTTTTTTJ2TTTTTTY%RR",
"RRRRRRRRRR6TTTTTTTTTxqDtHTTTTTTTTTTTxpTTTTTTU#RR",
"R<GGFzzzl6<TTTTTTTTTI&SBiJTTTTTTTTTT2GTTTTTTIORR",
"RuTTTTTTTY<UTTTTTTTTTfrPNwzUTTTTTTTz8TTTTTTTH.RR",
"RaTTTTTTTT8GTTTTTTTTTY:dPK93lGIYTTG*JTTTTTTTcRRR",
"RfTTTTTTTTx8TTTTTTTTTTI1qSvhHzffu6*GTTTTTTTThRRR",
"R#xYTTTTTTU-UTTTTTTTTTTYf,r4JIHf$#-YTTTTTTTT6RRR",
"RRR%lYTTTTTuhTTTTTTTTTTTTJl6<22fJYh6YTTTTTTY$RRR",
"RRRRR#hITTTI-ITTTTTTTTTTTTTTTTTTTTTu8YTTTTTHXRRR",
"RRRRRRR+pITTl8TTTTTTTTTTTTTTTTTTTTTYf2YTTTTzRRRR",
"RRRRRRRRROpJY2xTTTTTTTTTTTTTTTTTTTTTTf8YTTT<RRRR",
"RRRRRRRRRRRO8x%HTTTTTTTTTTTTTTTTTTTTTYu8TTHXRRRR",
"RRRRRRRRRRRRRoooGTTTTTTTTTTTTTTTTTTTTTTu8TlRRRRR",
"RRRRRRRRRRRRRRR XxTTTTTTTTTTTTTTTTTTTTTU+2%RRRRR",
"RRRRRRRRRRRRRRRRRXuUTTTTTTTTTTTTTTTTTTG%RRRRRRRR",
"RRRRRRRRRRRRRRRRRRR$zYTTTTTTTTTTTTTTJ8XRRRRRRRRR",
"RRRRRRRRRRRRRRRRRRRRR#hHYTTTTTTTTIc6oRRRRRRRRRRR",
"RRRRRRRRRRRRRRRRRRRRRRRX#<hllllu-ORRRRRRRRRRRRRR",
"RRRRRRRRRRRRRRRRRRRRRRRRRRRRRRRRRRRRRRRRRRRRRRRR",
"RRRRRRRRRRRRRRRRRRRRRRRRRRRRRRRRRRRRRRRRRRRRRRRR",
"RRRRRRRRRRRRRRRRRRRRRRRRRRRRRRRRRRRRRRRRRRRRRRRR",
"RRRRRRRRRRRRRRRRRRRRRRRRRRRRRRRRRRRRRRRRRRRRRRRR",
"RRRRRRRRRRRRRRRRRRRRRRRRRRRRRRRRRRRRRRRRRRRRRRRR",
"RRRRRRRRRRRRRRRRRRRRRRRRRRRRRRRRRRRRRRRRRRRRRRRR"
};
