/* XPM */
static char *_2[] = {
/* columns rows colors chars-per-pixel */
"48 48 95 2 ",
"   c #070707",
".  c #0C0C0C",
"X  c #151515",
"o  c #1E1E1E",
"O  c #262626",
"+  c #2D2D2D",
"@  c #343434",
"#  c #3C3C3C",
"$  c #444444",
"%  c #4C4D4D",
"&  c #535353",
"*  c #565859",
"=  c #5C5C5C",
"-  c #5E6060",
";  c #626262",
":  c #656868",
">  c #6A6B6B",
",  c #6F6F70",
"<  c #647076",
"1  c #61737C",
"2  c #6B797F",
"3  c #747474",
"4  c #77797A",
"5  c #7A7B7B",
"6  c #667A82",
"7  c #687A81",
"8  c #777F81",
"9  c #7D7F80",
"0  c #69808A",
"q  c #7C8082",
"w  c #74838A",
"e  c #7D878B",
"r  c #758993",
"t  c #778F99",
"y  c #7D929A",
"u  c #838484",
"i  c #888787",
"p  c #848788",
"a  c #868A8B",
"s  c #8B8B8B",
"d  c #908F8F",
"f  c #898D90",
"g  c #8F9091",
"h  c #8E9B9F",
"j  c #939393",
"k  c #939698",
"l  c #94999B",
"z  c #9A9B9B",
"x  c #809DA8",
"c  c #93A0A6",
"v  c #9DA0A2",
"b  c #94A5AC",
"n  c #86A4B1",
"m  c #8BA5B1",
"M  c #8DACB9",
"N  c #94A9B1",
"B  c #95ADB8",
"V  c #A3A4A4",
"C  c #A8A8A7",
"Z  c #A6A7A8",
"A  c #A7A8A8",
"S  c #ABACAC",
"D  c #AEB0B1",
"F  c #B3B3B3",
"G  c #B8B7B7",
"H  c #B5B7B8",
"J  c #B6B9BA",
"K  c #BBBBBB",
"L  c #9CBAC6",
"P  c #9BBCCA",
"I  c #A2BBC6",
"U  c #A6BFCB",
"Y  c #BEC0C1",
"T  c #A2C6D5",
"R  c #AAC6D3",
"E  c #ACCAD7",
"W  c #A4CADA",
"Q  c #ABD0DE",
"!  c #B0D0DE",
"~  c #ADD1E0",
"^  c #B6D7E6",
"/  c #B9DAE9",
"(  c #BDE0EF",
")  c #C2C2C2",
"_  c #C5C7C8",
"`  c #CBCCCC",
"'  c #D1CFCF",
"]  c #D3D3D3",
"[  c #DDDDDD",
"{  c #E3E3E3",
"}  c #ECECEC",
"|  c #F0EFEF",
" . c #F3F3F3",
".. c #FFFFFF",
"X. c None",
/* pixels */
"X.X.X.X.X.X.X.X.X.X.X.X.X.X.X.X.X.X.X.X.X.X.X.X.X.X.X.X.X.X.X.X.X.X.X.X.X.X.X.X.X.X.X.X.X.X.X.X.",
"X.X.X.X.X.X.X.X.X.X.X.X.X.X.X.X.X.X.X.X.X.X.X.X.X.X.X.X.X.X.X.X.X.X.X.X.X.X.X.X.X.X.X.X.X.X.X.X.",
"X.X.X.X.X.X.X.X.X.X.X.X.X.X.X.X.X.X.X.X.X.X.X.X.X.X.X.X.X.X.X.X.X.X.X.X.X.X.X.X.X.X.X.X.X.X.X.X.",
"X.X.X.X.X.X.X.X.X.X.X.X.X.X.X.X.X.X.X.X.X.X.X.X.X.X.X.X.X.X.X.X.X.X.X.X.X.X.X.X.X.X.X.X.X.X.X.X.",
"X.X.X.X.X.X.X.X.X.X.X.X.X.X.X.X.X.X.X.X.X.X.X.X.X.. O $ & ; ; & X.X.X.X.X.X.X.X.X.X.X.X.X.X.X.X.",
"X.X.X.X.X.X.X.X.X.X.X.X.X.X.X.X.X.X.X.X.X.X.@ & s F ] ] ] ] _ F j > 5 X.X.X.X.X.X.X.X.X.X.X.X.X.",
"X.X.X.X.X.X.X.X.X.X.X.X.X.X.X.X.X.X.X.X.$ q _  ... ............... .] V ; X.X.X.X.X.X.X.X.X.X.X.",
"X.X.X.X.X.X.X.X.X.X.X.X.X.X.X.X.X.X.@ 5 `  .............................} K ; X.X.X.X.X.X.X.X.X.",
"X.X.X.X.X.X.X.X.X.X.X.X.X.X.@ # X % D  .....................................{ z @ X.X.X.X.X.X.X.",
"X.X.X.X.X.X.X.X.X.X.X.X.& V j = , ] .......................................... .F $ . # X.X.X.X.",
"X.X.X.X.X.X.X.X.X.+ > K ] { z s ] ..............................................{ ; : V # X.X.X.",
"X.X.X.X.X.X.X.& z ]  ... .S 5 ] ..............................................[ u s [  .% X.X.X.",
"X.X.X.X.z u ) } ........` 5 K ............................................ .` u j { .. .u X.X.X.",
"X.X.u F [ ............{ j l ............................................ .) u A | .... .V X.X.X.",
"X.X.z ................K u [ ...................... .] C d z V U [  ... .K u K  .........F O X.X.",
"X.X.S ..............{ j C .................... .) q 7 4 5 G S z z K [ D p )  ...........) % X.X.",
"X.: K ..............K s ] ..................} Z w M W m S { ` S 5 ; * 3 ' ..............` 4 X.X.",
"X.+ : z A G _ ] [ { g Z  .................} z r T ( U 7 u S F K D j ; u { ..............] z X.X.",
"X.X.X.+ + + @ @ @ @ # ) ..................D f T Q N l D ] [ {  . ...} j V  .............[ X.X.X.",
"X.X.X.X.X.X.X.X.X.X.> [ ................{ r P E c J {  ...............] a ` ............{ 5 X.X.",
"X.X.X.X.X.X.X.X.X.X.p } ................F y ~ b _  ................... .s F  ........... .& X.X.",
"X.X.X.X.X.X.X.X.X.X.j  .................f B W V  .......................Y j } .......... .= X.X.",
"X.X.X.X.X.X.X.X.X.X.j  .................4 P L D  .......................[ 3 } .......... .= X.X.",
"X.X.X.X.X.X.X.X.X.X.d ..................8 P L F ........................} , } ............& X.X.",
"X.. X.X.X.X.X.X.X.X.u ..................j n E l  .......................[ 3 ............ .% X.X.",
"X.% s 5 : = & $ # @ ; ................ .J 7 ^ h ] ......................K u ............| % X.X.",
"X.s .. . . . .| } ) 4 ..................] < T R z [ ..................| d F ............[ # X.X.",
"X.j ..............[ i ] ................| l t / U l F { ............ ._ 5 { ............` @ X.X.",
"X.z ..............} z S ..................` 8 n ( R w q G ` {  ... .` s F ..............F o X.X.",
"X.; `  ........... .A z  ...................Y 2 x ~ B V ` K K K F V s S  .............} S X.X.X.",
"X.X.X.F ]  .........` j ] ....................] a 6 1 s ' _ V > % $ 5 } ..............{ S X.X.X.",
"X.X.X.X.5 F [  .....| j A ...................... .` z 9 u j z z V z i _  .............` s X.X.X.",
"X.X.X.X.X.X.; S } ....) s ] ........................ .{ ] ] [ } ....F s _ ............V X.X.X.X.",
"X.X.X.X.X.X.X.X & A  . .z V  ....................................... .S p ' ..........4 X.X.X.X.",
"X.X.X.X.X.X.X.X.X.X.; V K p K ........................................ .V p ] ......[ 4 X.X.X.X.",
"X.X.X.X.X.X.X.X.X.X.X.X.- & * ` ........................................} z j [ ....V X.X.X.X.X.",
"X.X.X.X.X.X.X.X.X.X.X.X.X.X.. & )  .......................................} j s { .., X.X.X.X.X.",
"X.X.X.X.X.X.X.X.X.X.X.X.X.X.X.X.% F  .......................................| p s _ # X.X.X.X.X.",
"X.X.X.X.X.X.X.X.X.X.X.X.X.X.X.X.. ; z { ....................................] = o % X.X.X.X.X.X.",
"X.X.X.X.X.X.X.X.X.X.X.X.X.X.X.X.X.X.# j G | .......................... .[ V % X.X.X.X.X.X.X.X.X.",
"X.X.X.X.X.X.X.X.X.X.X.X.X.X.X.X.X.X.X.X.@ 9 Y {  ...............} { ` A ; X.X.X.X.X.X.X.X.X.X.X.",
"X.X.X.X.X.X.X.X.X.X.X.X.X.X.X.X.X.X.X.X.X.X.X.@ - p j z V A C z i p $ X.X.X.X.X.X.X.X.X.X.X.X.X.",
"X.X.X.X.X.X.X.X.X.X.X.X.X.X.X.X.X.X.X.X.X.X.X.X.X.X.X.X.X.X.X.O X.X.X.X.X.X.X.X.X.X.X.X.X.X.X.X.",
"X.X.X.X.X.X.X.X.X.X.X.X.X.X.X.X.X.X.X.X.X.X.X.X.X.X.X.X.X.X.X.X.X.X.X.X.X.X.X.X.X.X.X.X.X.X.X.X.",
"X.X.X.X.X.X.X.X.X.X.X.X.X.X.X.X.X.X.X.X.X.X.X.X.X.X.X.X.X.X.X.X.X.X.X.X.X.X.X.X.X.X.X.X.X.X.X.X.",
"X.X.X.X.X.X.X.X.X.X.X.X.X.X.X.X.X.X.X.X.X.X.X.X.X.X.X.X.X.X.X.X.X.X.X.X.X.X.X.X.X.X.X.X.X.X.X.X.",
"X.X.X.X.X.X.X.X.X.X.X.X.X.X.X.X.X.X.X.X.X.X.X.X.X.X.X.X.X.X.X.X.X.X.X.X.X.X.X.X.X.X.X.X.X.X.X.X.",
"X.X.X.X.X.X.X.X.X.X.X.X.X.X.X.X.X.X.X.X.X.X.X.X.X.X.X.X.X.X.X.X.X.X.X.X.X.X.X.X.X.X.X.X.X.X.X.X."
};
