/* XPM */
static char *_5[] = {
/* columns rows colors chars-per-pixel */
"48 48 100 2 ",
"   c #0A0A0A",
".  c #131313",
"X  c #1B1B1B",
"o  c #232323",
"O  c #2A2A2A",
"+  c #2F2F30",
"@  c #343434",
"#  c #3B3B3B",
"$  c #454545",
"%  c #4B4B4B",
"&  c #535353",
"*  c #575858",
"=  c #5D5D5D",
"-  c #5F6060",
";  c #646565",
":  c #6D6D6D",
">  c #6F6F70",
",  c #6E7071",
"<  c #6F787D",
"1  c #737373",
"2  c #737678",
"3  c #767A7B",
"4  c #7B7B7B",
"5  c #697C83",
"6  c #767E82",
"7  c #7B7F81",
"8  c #6C818A",
"9  c #7A8185",
"0  c #72848B",
"q  c #7D868A",
"w  c #6F8691",
"e  c #718790",
"r  c #768890",
"t  c #75909B",
"y  c #848485",
"u  c #878887",
"i  c #848788",
"p  c #87898B",
"a  c #8C8C8C",
"s  c #878D90",
"d  c #8F8F90",
"f  c #8D9193",
"g  c #859298",
"h  c #8C9498",
"j  c #939393",
"k  c #969798",
"l  c #95999B",
"z  c #9B9B9C",
"x  c #8B9DA5",
"c  c #839DA9",
"v  c #969EA1",
"b  c #9B9FA0",
"n  c #84A1AE",
"m  c #95A0A3",
"M  c #9FA0A0",
"N  c #99A8AF",
"B  c #87A5B1",
"V  c #87A8B7",
"C  c #95A9B1",
"Z  c #92AEBB",
"A  c #9DB1BA",
"S  c #A4A4A4",
"D  c #A6A7A8",
"F  c #A6ABAD",
"G  c #ABACAC",
"H  c #A3AFB4",
"J  c #ABAFB0",
"K  c #ABB1B4",
"L  c #B3B3B3",
"P  c #B7B8B9",
"I  c #BBBBBB",
"U  c #95B5C3",
"Y  c #9DBBC7",
"T  c #9FBFCC",
"R  c #A0B7C1",
"E  c #A1BDC9",
"W  c #A9C4CF",
"Q  c #BDC0C1",
"!  c #A2C3D1",
"~  c #A9C6D3",
"^  c #A7C9D8",
"/  c #AACCDA",
"(  c #B1D0DE",
")  c #B6D5E2",
"_  c #B5D8E6",
"`  c #B6DCEB",
"'  c #BFDCE9",
"]  c #C3C3C3",
"[  c #C7C8C8",
"{  c #CCCCCC",
"}  c #D4D4D4",
"|  c #DDDCDC",
" . c #DFE0E0",
".. c #E5E5E5",
"X. c #EBEBEB",
"o. c #F1F0EF",
"O. c #F4F4F4",
"+. c #F8F7F7",
"@. c #FFFFFF",
"#. c None",
/* pixels */
"#.#.#.#.#.#.#.#.#.#.#.#.#.#.#.#.#.#.#.#.#.#.#.#.#.#.#.#.#.#.#.#.#.#.#.#.#.#.#.#.#.#.#.#.#.#.#.#.",
"#.#.#.#.#.#.#.#.#.#.#.#.#.#.#.#.#.#.#.#.#.#.#.#.#.#.#.#.#.#.#.#.#.#.#.#.#.#.#.#.#.#.#.#.#.#.#.#.",
"#.#.#.#.#.#.#.#.#.#.#.#.#.#.#.#.#.#.#.#.#.#.#.#.#.#.#.#.#.#.#.#.#.#.#.#.#.#.#.#.#.#.#.#.#.#.#.#.",
"#.#.#.#.#.#.#.#.#.#.#.#.#.#.#.#.#.#.#.#.#.#.#.#.#.#.#.#.#.#.#.#.#.#.#.#.#.#.#.#.#.#.#.#.#.#.#.#.",
"#.#.#.#.#.#.#.#.#.#.#.#.#.#.#.#.#.#.#.#.#.#.#.#.#.#.#.#.. #.#.#.#.#.#.#.#.#.#.#.#.#.#.#.#.#.#.#.",
"#.#.#.#.#.#.#.#.#.#.#.#.#.#.#.#.#.#.#.#.#.#.#.#.# & y a y 4 1 > ; * #.#.#.#.#.#.#.#.#.#.#.#.#.#.",
"#.#.#.#.#.#.#.#.#.#.#.#.#.#.#.#.#.#.#.#.  % 1 M } O.X.O.@.@.@.@...] a * #.#.#.#.#.#.#.#.#.#.#.#.",
"#.#.#.#.#.#.#.#.#.#.#.#.#.#.#.#.@ O   O i [ X.@.@.@.@.@.@.@.@.@.@.@.@.X.I y @ #.#.#.#.#.#.#.#.#.",
"#.#.#.#.#.#.#.#.#.#.#.#.#.#.1 S : % ; ] O.@.@.@.@.@.@.@.@.@.@.@.@.@.@.@.@.O.L j #.#.#.#.#.#.#.#.",
"#.#.#.#.#.#.#.#.O ; 4 y G | X.P a S ..@.@.@.@.@.@.@.@.@.@.@.@.@.@.@.@.@.@.@.O.[ 4 #.#.#.#.#.#.#.",
"#.#.#.#.; #.: z Q | ..@.@.@.] 4 G X.@.@.@.@.@.@.@.@.@.@.@.@.@.@.@.@.@.@.@.@.@.@.| 1 O #.#.#.#.#.",
"#.#.#.1 I } O.@.@.@.@.@.@.| 1 D O.@.@.@.@.@.@.@.@.@.@.@.@.@.@.@.@.@.@.@.@.@.@.@.@.X.4 X o #.#.#.",
"#.#.#.j @.@.@.@.@.@.@.@.X.d a O.@.@.@.@.@.@.@.@.@.@.@.@.@.@.@.@.@.@.@.@.@.@.@.@.@.X.y - a = #.#.",
"#.#.; L @.@.@.@.@.@.@.+.L y  .@.@.@.@.@.@.@.@.@.@.@.@.@.@.@.@.@.@.@.@.@.@.@.@.O.[ y y } @.= #.#.",
"#.#.; [ @.@.@.@.@.@.@.{ a I @.@.@.@.@.@.@.@.@.@.@.@.@.X.| X.@.@.@.@.@.@.@.@...G 4 z X.@.@.4 #.#.",
"#.#.X ; a L } ..+.@.@.a M X.@.@.@.@.@.@.@.@.@.@.o.] f g 3 : 1 4 S | @.@.@.{ j a [ @.@.@.O.S #.#.",
"#.#.#.#.#.O @ # * 1 a = | @.@.@.@.@.@.@.@.@.@.} k r n V 5 F | [ S k { X.L y S  .@.@.@.@.@.k X #.",
"#.#.#.#.#.#.#.#.#.#.O = @.@.@.@.@.@.@.@.@.@.{ 6 c / ` T q [ { P M > ; ; u { O.@.@.@.@.@.@.j #.#.",
"#.#.#.#.#.#.#.#.#.#.#.l @.@.@.@.@.@.@.@.@...q B ` ~ C l 7 z D ] [ D 4 $ J @.@.@.@.@.@.@.@.z #.#.",
"#.#.#.#.#.#.#.#.#.#.#.L @.@.@.@.@.@.@.@.O.J e _ Y v I } o.@.@.O.O.@.@.I 7 ..@.@.@.@.@.@.@.S #.#.",
"#.#.#.#.#.#.#.#.#.#.a } @.@.@.@.@.@.@.@.{ g U W F | @.@.@.@.@.@.@.@.@.X.l G @.@.@.@.@.@.@.I #.#.",
"#.#.#.#.#.#.#.#.#.#.a X.@.@.@.@.@.@.@.@.S n ! H } @.@.@.@.@.@.@.@.@.@.@.L a O.@.@.@.@.@.O.[ #.#.",
"#.. O o #.#.#.#.#.#.y @.@.@.@.@.@.@.@.@.y U Y K X.@.@.@.@.@.@.@.@.@.@.@.[ z | @.@.@.@.@.@.j X #.",
"#.4 I j 1 % # O o o 4 @.@.@.@.@.@.@.@.@.y U E J @.@.@.@.@.@.@.@.@.@.@.@.| y | @.@.@.@.@.O.1 #.#.",
"#.D @.@.O.O...{ G 1 4 @.@.@.@.@.@.@.@.O.z c / v O.@.@.@.@.@.@.@.@.@.@.@.X.: ..@.@.@.@.@.@.; #.#.",
"= [ @.@.@.@.@.@.@.L k +.@.@.@.@.@.@.@.+.J e ( m  .@.@.@.@.@.@.@.@.@.@.@.| 1 @.@.@.@.@.@.O.* #.#.",
"* | @.@.@.@.@.@.@.I z ..@.@.@.@.@.@.@.@.I 0 ^ A G o.@.@.@.@.@.@.@.@.@.O.I u @.@.@.@.@.@...$ #.#.",
"X y { @.@.@.@.@.@.} 7 ..@.@.@.@.@.@.@.@.| q Z ) N F | @.@.@.@.@.@.@.@.} k P @.@.@.@.@.@.[ # #.#.",
"#.#.#.S ..@.@.@.@.O.2 } @.@.@.@.@.@.@.@.@.G 0 / ' x p } O.@.@.@.@.@.O.k z X.@.@.@.@.@.@.z # #.#.",
"#.#.#.* G } @.@.@.O.S z @.@.@.@.@.@.@.@.@.X.f 8 / T < S S ] | @.@.X.S y | @.@.@.@.@.@.@.: #.#.#.",
"#.#.#.#.#.* L O.@.@.] y X.@.@.@.@.@.@.@.@.@.o.v 5 t 9  .{ L S k S j i } @.@.@.@.@.@.@.X.$ #.#.#.",
"#.#.#.#.#.#.O ; I @...a I @.@.@.@.@.@.@.@.@.@.+.[ l 1 D I D 4 * % * } @.@.@.@.@.@.@.@.[ O #.#.#.",
"#.#.#.#.#.#.#.#.#.I X.S z X.@.@.@.@.@.@.@.@.@.@.@...I d a S L I D y I @.@.@.@.@.@.@.O.G #.#.#.#.",
"#.#.#.#.#.#.#.#.#.$ z P y I @.@.@.@.@.@.@.@.@.@.@.@.@.@.@.@.O.@.@.I i } @.@.@.@.@.@.| a #.#.#.#.",
"#.#.#.#.#.#.#.#.#.#.#.$ % = | @.@.@.@.@.@.@.@.@.@.@.@.@.@.@.@.@.@.O.b d ..@.@.@.@.@.S #.#.#.#.#.",
"#.#.#.#.#.#.#.#.#.#.#.#.#.. 1 X.@.@.@.@.@.@.@.@.@.@.@.@.@.@.@.@.@.@...a S O.@.@.@.@.; #.#.#.#.#.",
"#.#.#.#.#.#.#.#.#.#.#.#.#.#.O u X.@.@.@.@.@.@.@.@.@.@.@.@.@.@.@.@.@.@.[ y [ @.@.@.{ #.#.#.#.#.#.",
"#.#.#.#.#.#.#.#.#.#.#.#.#.#.#.O k X.@.@.@.@.@.@.@.@.@.@.@.@.@.@.@.@.@.@.L u } @.O.i #.#.#.#.#.#.",
"#.#.#.#.#.#.#.#.#.#.#.#.#.#.#.#.@ 4 } @.@.@.@.@.@.@.@.@.@.@.@.@.@.@.@.@.O.M j X.} % #.#.#.#.#.#.",
"#.#.#.#.#.#.#.#.#.#.#.#.#.#.#.#.#.#.* S | @.@.@.@.@.@.@.@.@.@.@.@.@.@.@.@.J = d 4 X #.#.#.#.#.#.",
"#.#.#.#.#.#.#.#.#.#.#.#.#.#.#.#.#.#.#.#.D ] o.@.@.@.@.@.@.@.@.@.@.@.O.} j : X o #.#.#.#.#.#.#.#.",
"#.#.#.#.#.#.#.#.#.#.#.#.#.#.#.#.#.#.#.#.#.O & y S I | O.@.@...} { I 4 #.#.#.#.#.#.#.#.#.#.#.#.#.",
"#.#.#.#.#.#.#.#.#.#.#.#.#.#.#.#.#.#.#.#.#.#.#.#.#.1 > , ; = ; u % #.#.#.#.#.#.#.#.#.#.#.#.#.#.#.",
"#.#.#.#.#.#.#.#.#.#.#.#.#.#.#.#.#.#.#.#.#.#.#.#.#.#.#.#.#.#.#.#.#.#.#.#.#.#.#.#.#.#.#.#.#.#.#.#.",
"#.#.#.#.#.#.#.#.#.#.#.#.#.#.#.#.#.#.#.#.#.#.#.#.#.#.#.#.#.#.#.#.#.#.#.#.#.#.#.#.#.#.#.#.#.#.#.#.",
"#.#.#.#.#.#.#.#.#.#.#.#.#.#.#.#.#.#.#.#.#.#.#.#.#.#.#.#.#.#.#.#.#.#.#.#.#.#.#.#.#.#.#.#.#.#.#.#.",
"#.#.#.#.#.#.#.#.#.#.#.#.#.#.#.#.#.#.#.#.#.#.#.#.#.#.#.#.#.#.#.#.#.#.#.#.#.#.#.#.#.#.#.#.#.#.#.#.",
"#.#.#.#.#.#.#.#.#.#.#.#.#.#.#.#.#.#.#.#.#.#.#.#.#.#.#.#.#.#.#.#.#.#.#.#.#.#.#.#.#.#.#.#.#.#.#.#."
};
