/* XPM */
static char *_00[] = {
/* columns rows colors chars-per-pixel */
"32 32 89 1 ",
"  c #534F11",
". c #5A5713",
"X c #645F15",
"o c #656215",
"O c #686416",
"+ c #6D6A17",
"@ c #706C17",
"# c #777419",
"$ c #7D7A1B",
"% c #807D1B",
"& c #85801C",
"* c #8B871E",
"= c #8D881D",
"- c #928E1F",
"; c #94901F",
": c #959220",
"> c #9A9621",
", c #9D9A22",
"< c #A29F23",
"1 c #A5A223",
"2 c #A8A424",
"3 c #ADAA25",
"4 c #B2AD26",
"5 c #B6B327",
"6 c #B8B427",
"7 c #B4B22F",
"8 c #B8B528",
"9 c #BEBA29",
"0 c #A7A637",
"q c #B2B43B",
"w c #C2BE2A",
"e c #C5C22B",
"r c #CAC52B",
"t c #CECA2C",
"y c #D1CD2D",
"u c #D6D22E",
"i c #DAD62E",
"p c #DCD92F",
"a c #CACB3E",
"s c #DEDB30",
"d c #DCDA3A",
"f c #E1DE2F",
"g c #E1DE31",
"h c #E6E22C",
"j c #EFEB2F",
"k c #E6E232",
"l c #EAE632",
"z c #EDEB34",
"x c #F1EE33",
"c c #F5F235",
"v c #F9F636",
"b c #FFFC37",
"n c #FFFE38",
"m c #8A904A",
"M c #92974E",
"N c #9EA14A",
"B c #A8AE4E",
"V c #B1B440",
"C c #BABB44",
"Z c #AEB659",
"A c #B8BD5B",
"S c #9AA361",
"D c #98A676",
"F c #98A87F",
"G c #ABB566",
"H c #A4B274",
"J c #A5B379",
"K c #BDC469",
"L c #D6D647",
"P c #DFDF40",
"I c #C3C652",
"U c #E0E04C",
"Y c #A4B182",
"T c #A3B58D",
"R c #ADBF9D",
"E c #849EA1",
"W c #9EB8A9",
"Q c #95AEB3",
"! c #99B2B4",
"~ c #98B4BE",
"^ c #A7BAA6",
"/ c #A0BCBF",
"( c #B8C383",
") c #9AB7C1",
"_ c #9FBDCA",
"` c #A3BFCC",
"' c #ACC4C2",
"] c #A6C5D0",
"[ c None",
/* pixels */
"[[[[[[[[[[[[[[[[[[[[[[[[[[[[[[[[",
"[[[[[[[[[[[[[[[[[[+[[[[[[[[[[[[[",
"[[[[[[[[[[[[[[[ureup9w-o1[[[[[[[",
"[[[[[[[[[[[[wikxbnnbnbtek%[[[[[[",
"[[[[[[[[[[[<sbbbbbbbbzwkny*[[[[[",
"[[[[[[[[[[svnbbbbbbbnuwbnb8[[[[[",
"[[[[[[[[[ezbbbbbbbbbceknbns[[[[[",
"[[[[[[[[:xnbbbbbnbcburvnbbcp[[[[",
"[[[[[[[=inbbbbncyww1-wbnbbnl$[[[",
"[[[[[o&4vnbbnnjq0iw8w9txbbbb4O[[",
"[[[[[ewibbbbbjBEMrixbxyrcnbbk+[[",
"[[[[4k4lbbbbbaW]Alnnbbvesbbbv*[[",
"[[-tbl5xbbbbxZ_(lbbbbbnuycbnvg[[",
"[[tvni9vbbbbxD'Lbbbbbbnlrcbbng[[",
"&tvbnl3bbbbbhT^Ubbbbbbbx8vbbng[[",
"9nnnny8xnbbnlG`Inbbbbbngrcbbnz4[",
"kvzut:%zbbbbbq)Ygcnbvbx7tnnbbb>[",
"[9r[[[[xbbbbbiJQ^KCrst<;4gcbbn,[",
"[[[[[[[ebbbbbvdS~`!Nw83ygrryzvu[",
"[[[[[[[[xbbbbbbgqHDm7ixbbvly5w>[",
"[[[[[[[ tbbbbbbbbzgzxcbbbbnng:[[",
"[[[[[[[9rfbbbbbbbbbbnnbbbbbb9$[[",
"[[[[kzccgwxbbbbbbbbbbbbbbbvr[[[[",
"[[[tbbbbbyrlbnbnbbbbbbbbnbg2[[[[",
"[[[ycnbnnvgrivnnbbnnnnnbs1%[[[[[",
"[[[[82t6eler1,rkcnvnnzt92[[[[[[[",
"[[[[[[[@[[[[O[.#81t2<2[[[[[[[[[[",
"[[[[[[[[[[[[[[[[[[[[[[[[[[[[[[[[",
"[[[[[[[[[[[[[[[[[[[[[[[[[[[[[[[[",
"[[[[[[[[[[[[[[[[[[[[[[[[[[[[[[[[",
"[[[[[[[[[[[[[[[[[[[[[[[[[[[[[[[[",
"[[[[[[[[[[[[[[[[[[[[[[[[[[[[[[[["
};
