/* XPM */
static char *_5[] = {
/* columns rows colors chars-per-pixel */
"32 32 91 1 ",
"  c #47450F",
". c #48450F",
"X c #4C4910",
"o c #5D5A14",
"O c #666316",
"+ c #6C6717",
"@ c #6D6917",
"# c #757219",
"$ c #7C781A",
"% c #817E1B",
"& c #86821C",
"* c #89861D",
"= c #8E8A1E",
"- c #918D1F",
"; c #94901F",
": c #969221",
"> c #999420",
", c #9D9A22",
"< c #8F8F34",
"1 c #A29F23",
"2 c #A7A424",
"3 c #A9A424",
"4 c #AFAB26",
"5 c #B3AF26",
"6 c #B5B227",
"7 c #B9B527",
"8 c #BFBB27",
"9 c #BBB628",
"0 c #BDBA2B",
"q c #ADAC36",
"w c #BCBA36",
"e c #B6B93D",
"r c #C2BE2A",
"t c #C4C12A",
"y c #CAC52B",
"u c #CDC92C",
"i c #D0CC2D",
"p c #D5D22E",
"a c #D9D52E",
"s c #DCD92E",
"d c #C7C73C",
"f c #D7D636",
"g c #D9D733",
"h c #DDDA31",
"j c #D9D83D",
"k c #E4DF2F",
"l c #E1DD31",
"z c #E8E42F",
"x c #F2ED2F",
"c c #E5E231",
"v c #E9E632",
"b c #EDEA33",
"n c #F1EE34",
"m c #F5F235",
"M c #F8F636",
"N c #FFFC37",
"B c #F3F03A",
"V c #FFFE38",
"C c #919752",
"Z c #A8AC4B",
"A c #AEB245",
"S c #B2B748",
"D c #BABE4A",
"F c #A1A856",
"G c #9FAB79",
"H c #A6B36D",
"J c #AAB671",
"K c #AFBA77",
"L c #C4C642",
"P c #CDCE4C",
"I c #D3D347",
"U c #D6D74B",
"Y c #869E94",
"T c #90A491",
"R c #90A799",
"E c #99AE99",
"W c #A3B181",
"Q c #A5B890",
"! c #8FA8AC",
"~ c #93ABA8",
"^ c #9FB7B0",
"/ c #9BB5B8",
"( c #A6BBA9",
") c #B3C194",
"_ c #B8C99E",
"` c #ACC3B7",
"' c #A8C1BB",
"] c #97B5C5",
"[ c #9BB9C7",
"{ c #A1C2D6",
"} c None",
/* pixels */
"}}}}}}}}}}}}}}}}}}}}}}}}}}}}}}}}",
"}}}}}}}}}}}}}}}}}}}}}}}}}}}}}}}}",
"}}}}}}}}}}}}}}}}}}}}}}}}}}}}}}}}",
"}}}}}}}}}}}}}}}}}}}}}}}}}}}}}}}}",
"}}}}}}}}}}}}}}}}}}}}}}$}:26}}}}}",
"}}}}}}}}}}O}=}%o@#t6cpsvvMp}}}}}",
"}}}}}}}}420lhbksrttpMVVVVVvt}}}}",
"}}}}}}}7iMVVVVVNVMvtulVVMvv}}}}}",
"}}}}}1tnVVNNNNNNNNVmkrlbb}}}}}}}",
"}}}}-pVVNNNNNNNNNNNNNkr%}}}}}}}}",
"}}}}cVNNNNNNNNNNNNNNNNl%}}}}}}}}",
"}}}rMNNNNNNNNMVVNNNNNVMv+}}}}}5}",
"}}4nVNNNNMbfSDefbVNNNNNny}}}tpa}",
"}}7VVVNNNvy<T[/EFlNNNNNMa 6uvVVu",
"}&7tpvnNa680ZG)'!JpVNNNVv4uVVVh*",
"}unhuyy7,3ivsncUW[AmVNNVM5cVVMp}",
"}yNVNMn9;cNNNNNNP(QaNNNNNyrVM6}}",
"}-VVNVVppNNNNNNNB)~jNNNNNuuVk}}}",
"},sVNNNykNNNNNNNv_^dNNNNVurc=}}}",
"}}uNNNNayNNNNNNNI`RfNNNNNiut}}}}",
"}}abVNNzybVNNNVvK{HbNNNNVt=O}}}}",
"}}}bNNNnpuVNVNvrCYdNNNNNm>}}}}}}",
"}}}1NNNVbtuvnhuaqwxVNNNNi#}}}}}}",
"}}}@aNNNNmur5-4rybVVNNNNu}}}}}}}",
"}}}}-mVNNVNl3ucbVNNNNNVu}}}}}}}}",
"}}}}ounVNNNkrMNVNNNNNVnp}}}}}}}}",
"}}}}}}aNNNVpiVNNNNVVVv1}}}}}}}}}",
"}}}}}}ygVNNrlVNNNNVMlt}}}}}}}}}}",
"}}}}}}}3vVb0nVVNVNvh}}}}}}}}}}}}",
"}}}}}}}}*nhrbMnmpru}}}}}}}}}}}}}",
"}}}}}}}}.t:@6=6%&}}}}}}}}}}}}}}}",
"}}}}}}}}}}X}}}}}}}}}}}}}}}}}}}}}"
};
