/* XPM */
static char *_60[] = {
/* columns rows colors chars-per-pixel */
"32 32 88 1 ",
"  c #504C10",
". c #5F5C14",
"X c #605D14",
"o c #626015",
"O c #6A6717",
"+ c #6F6C18",
"@ c #706C17",
"# c #726F18",
"$ c #7D781A",
"% c #847E1C",
"& c #85821C",
"* c #88841D",
"= c #8D8A1E",
"- c #918D1F",
"; c #94911F",
": c #938F20",
"> c #969320",
", c #9A9721",
"< c #9D9921",
"1 c #A09B22",
"2 c #A6A224",
"3 c #AAA624",
"4 c #ADAA25",
"5 c #ACAA2C",
"6 c #B2AE26",
"7 c #B5B127",
"8 c #B9B527",
"9 c #BBB628",
"0 c #BEBA29",
"q c #C1BD29",
"w c #C5C12A",
"e c #CAC62B",
"r c #CECA2D",
"t c #D1CD2D",
"y c #D5D22E",
"u c #DAD62F",
"i c #DCD92F",
"p c #C3C134",
"a c #CCCA35",
"s c #D3D134",
"d c #DEDB30",
"f c #D3D33A",
"g c #DAD83A",
"h c #E0DD2F",
"j c #E1DE31",
"k c #FFFC2F",
"l c #E5E232",
"z c #EAE632",
"x c #EDEB33",
"c c #E2E13D",
"v c #F1EE33",
"b c #F5F235",
"n c #F9F636",
"m c #FFFC37",
"M c #FFFE38",
"N c #9A9D41",
"B c #9EA656",
"V c #B1B240",
"C c #8C9760",
"Z c #9EAB7B",
"A c #ADB663",
"S c #A4B06D",
"D c #A4B171",
"F c #A6B37B",
"G c #B0B971",
"H c #BFC246",
"J c #B8C178",
"K c #C6C745",
"L c #C1C34D",
"P c #DBDB4B",
"I c #E2E141",
"U c #C3CA65",
"Y c #8BA086",
"T c #9FB089",
"R c #90A496",
"E c #90A99F",
"W c #A7B785",
"Q c #9FB8A8",
"! c #93AFB8",
"~ c #97B2B7",
"^ c #97B5BF",
"/ c #9BB4BA",
"( c #AEC2AC",
") c #ACC5BC",
"_ c #9EBCC6",
"` c #A2BFCA",
"' c #AEC6C1",
"] c None",
/* pixels */
"]]]]]]]]]]]]]]]]]]]]]]]]]]]]]]]]",
"]]]]]]]]]]]<$]]]]]]]]]]]]]]]]]]]",
"]]]]]]]]]#0d60qt3]]]]]]]]]]]]]]]",
"]]]]]]]]3eMmqdMMxx3<]]]]]]]]]]]]",
"]]]]]]]ruMMmrummMmMt7]]]]]]]]]]]",
"]]]]]]]lMMmmuummmmmMd9]]]]]]]]]]",
"]]]]X>vmmmmmitmmmmmmMx4]]]]]]]]]",
"]]]]*vmmmmmMiqmmMmmmMMx*]]]]]]]]",
"]]]#lmmmMmlu7<qbnmmmmmMd]]]]]]]]",
"]]]unmmMxu8ty<20hvmmmmMx>]]]]]]]",
"]]yzMmMvtevmmnrw5ammmmmMs]]]]]]]",
"]9uMmmmjexMmmmvrNCgmmmmMiX]]]]]]",
"]6mmmmmqdMmmmmntZ^Vmmmmmb-]]]]]]",
"#lMmmmxwvmmmmmmvG`Bbmmmmn1O]]]]]",
"0MMmmmz9bMmmmmmmH'Sbmmmmm06]]]]]",
"7utrrw9<tbMMmmmmU/Bbmmmmnre,]]]]",
" 7ttujj32yvMmMMIF!Lmmmmmv0bu]]]]",
"]wMMMMMl9yqpgcPJ_Dummmmmzrbj3]]]",
"]:bMmmmnrqNE)()~WpmmmmmMtrMM4]]]",
"]]ummmmmMt5YQETAummmmmmvexmmz]]]",
"]]<mMmmmmMvlsfjnnMmmmmnr>lmMm4]]",
"]]&0mMmmmmMmmmmmmMmmmmz]]]znMd]]",
"]]]]snMmmmmmmmmmmmmmmb1]]]]xxt]]",
"]]]]]jvmmmmmmmmmmmMMi=]]]]]]e]]]",
"]]]]]]ulMMmmmmmmMmne7O]]]]]]]]]]",
"]]]]]]]49xvmMMmnvrq7dye]]]]]]]]]",
"]]]]]]]]]]3d3q8q9qtnMMdw]]]]]]]]",
"]]]]]]]]]]]]]]%=rzMMMMMl0]]]]]]]",
"]]]]]]]]]]]]]]]X]>qrznMMt]]]]]]]",
"]]]]]]]]]]]]]]]]]]]]]t0y]]]]]]]]",
"]]]]]]]]]]]]]]]]]]]]]]#]]]]]]]]]",
"]]]]]]]]]]]]]]]]]]]]]]]]]]]]]]]]"
};
