/* XPM */
static char *_76[] = {
/* columns rows colors chars-per-pixel */
"32 32 90 1 ",
"  c #5D5914",
". c #625E15",
"X c #626015",
"o c #6B6616",
"O c #6D6A17",
"+ c #6F6C18",
"@ c #726E18",
"# c #7A751A",
"$ c #7D7A1B",
"% c #837F1C",
"& c #86821C",
"* c #89861D",
"= c #8C891E",
"- c #918D1F",
"; c #959120",
": c #9A9721",
"> c #9E9A22",
", c #A19D22",
"< c #A5A123",
"1 c #ABA624",
"2 c #AEAA25",
"3 c #AAA92D",
"4 c #B1AD26",
"5 c #B6B227",
"6 c #BAB628",
"7 c #BEBA29",
"8 c #A7A637",
"9 c #AAA832",
"0 c #B6B738",
"q c #C2BD2A",
"w c #C0BF33",
"e c #C6C12A",
"r c #CAC52B",
"t c #CDCA2C",
"y c #D2CD2D",
"u c #D5D22E",
"i c #DAD52E",
"p c #DDD92E",
"a c #C7C63A",
"s c #CBCB39",
"d c #D4D234",
"f c #D8D633",
"g c #DEDB30",
"h c #DCDA3A",
"j c #E2DE2F",
"k c #E1DD30",
"l c #F7F22F",
"z c #E4E131",
"x c #E9E632",
"c c #EDEA33",
"v c #ECEA38",
"b c #F0ED34",
"n c #F1EF3A",
"m c #F5F235",
"M c #F9F635",
"N c #FFFC37",
"B c #FFFE38",
"V c #868E53",
"C c #9BA65E",
"Z c #9EA85D",
"A c #B8BA47",
"S c #B5BB4D",
"D c #A9B15B",
"F c #95A575",
"G c #9AA875",
"H c #B0B867",
"J c #ACB87E",
"K c #BEC24C",
"L c #CAC942",
"P c #CACB49",
"I c #CACF64",
"U c #8EA089",
"Y c #9EAD81",
"T c #91A494",
"R c #A2B58D",
"E c #B3BE82",
"W c #95AEA1",
"Q c #9DB4A8",
"! c #91ACB4",
"~ c #9EBABA",
"^ c #ABBEA6",
"/ c #A3B9B3",
"( c #B8C380",
") c #A9C1B8",
"_ c #9BB9C6",
"` c #98B6C8",
"' c #9DBAC8",
"] c #AAC4C4",
"[ c #A1C3D6",
"{ c None",
/* pixels */
"{{{{{{{{{{{{{{{{{{{{{{{{{{{{{{{{",
"{{{{{{{{{{{{{{{{{{{{{{{{{{{{{{{{",
"{{{{{{{{{{{{{{{{{{{{{{{{{{{{{{{{",
"{{{{{{{{{{{&,{{{{{{{{{{{{{{{{{{{",
"{{{{{{{{47zkgftq2&{{{{{{{{{{{{{{",
"{{{{&#:rmNNBBBBBBct:{{{{{{{{{{{{",
"{{{{76qmBNNNNNNNNNMu6{{{{{{{{{{{",
"{{{okMryMNNNNNNNNNBBz*{{{{{{{{{{",
"{{{;MBbqkNNNBNNNNNNNBc-@{{{{{{{{",
"{{{7BNBcqjBNMmMNNNNNNBx4r:{{{{{{",
"{{{gBNNNg47qttdnNNNNNBMytzg{{{{{",
"{{gcBNBNk:-2q3VZfNNNNNNxrmme:{{{",
"{{xmBNBkegbxgwY`GdNNNNNmygBBc5*{",
"{XuNNNmqkNNNmjA^'DcNNNNNyiBBBBf{",
"{OxNNBkqMNNNNBMs)UhNNNNBiybMMBk{",
"{#mBNNgtBNNNNNBlJ!aMNNNBk%rxxxt{",
"{$mNNNkrBNNNNNNNH_0BNNNNc{{{{{{{",
"{{bBNBkeNNNNNNBnE~wBMNNNko{{{{{{",
"{{xBNNxexBBBNMvI/RpBNNBMb{{{{{{{",
"{qcBNNNt6fkkgP(]QKlBNNBM,{{{{{{{",
"{1bBNBme;;6u9T[TAcMBNNBj<;{{{{{{",
"{&bBBzqrbiqr8FCsmBNNNNBqrzziu7{{",
"{.cNi7uNBMbjujMNBNNNNBx1xBBBBx{{",
"{{yrekBNNNNBBBNNNNNNNM6rBBBMmu{{",
"{{ @tBBNNNNNNMNNNNBBMy6MMgtk1@{{",
"{{{{2yMNNBNNNNNNNBBbe4t7,{{{{{{{",
"{{{{{;rbBBBBBBNNBmr<&#+{{{{{{{{{",
"{{{{{{.=6uzcbmmcrr{{{{{{{{{{{{{{",
"{{{{{{{{{{{{f6;{{{{{{{{{{{{{{{{{",
"{{{{{{{{{{{{{{{{{{{{{{{{{{{{{{{{",
"{{{{{{{{{{{{{{{{{{{{{{{{{{{{{{{{",
"{{{{{{{{{{{{{{{{{{{{{{{{{{{{{{{{"
};
