/* XPM */
static char *_6[] = {
/* columns rows colors chars-per-pixel */
"32 32 80 1 ",
"  c #4B4910",
". c #5F5C14",
"X c #676216",
"o c #6A6617",
"O c #6D6A17",
"+ c #6F6C18",
"@ c #726F19",
"# c #787419",
"$ c #7D791A",
"% c #837F1C",
"& c #84811C",
"* c #8B861D",
"= c #938F1F",
"- c #94901F",
"; c #959120",
": c #999421",
"> c #9C9921",
", c #999A3F",
"< c #A19D22",
"1 c #A5A224",
"2 c #A8A424",
"3 c #AEAA25",
"4 c #B2AD26",
"5 c #B6B327",
"6 c #BAB727",
"7 c #B5B32A",
"8 c #BAB628",
"9 c #BDB928",
"0 c #B4B333",
"q c #B1B33C",
"w c #B9BC3D",
"e c #C2BD29",
"r c #C6C22A",
"t c #CAC62B",
"y c #CECA2C",
"u c #D1CD2D",
"i c #D5D12E",
"p c #D9D62E",
"a c #DDD92F",
"s c #DEDB30",
"d c #DCDA3C",
"f c #E2DE31",
"g c #E4E02E",
"h c #E5E232",
"j c #E9E632",
"k c #EDEA33",
"l c #F1EE34",
"z c #F5F235",
"x c #F9F636",
"c c #FFFB37",
"v c #FFFE38",
"b c #8F964F",
"n c #9BA35A",
"m c #B1B240",
"M c #B2B54E",
"N c #9DAB71",
"B c #96A67D",
"V c #A6B267",
"C c #AAB56E",
"Z c #A7B477",
"A c #BBC474",
"S c #C1C443",
"D c #C1C249",
"F c #DDDD42",
"G c #C5C751",
"H c #E4E348",
"J c #9EB395",
"K c #A3B182",
"L c #849EA0",
"P c #93ACB1",
"I c #97B3B9",
"U c #98B4BF",
"Y c #A9BBA2",
"T c #A1BDBA",
"R c #ACC0A4",
"E c #9AB8C2",
"W c #A2BECA",
"Q c #A5C1C5",
"! c #AEC6C1",
"~ c None",
/* pixels */
"~~~~~~~~~~~~~~ss=~~~~~~~~~~~~~~~",
"~~~~~~~~~~~~~4pvjy~~~~~~~~~~~~~~",
"~~~~~~~~~~~~~~ivvz2~~~~~~~~~~~~~",
"~~~~~~~ur~~~~~rlvvhy~~~~~~~~~~~~",
"~~~~~~tzk~~~~~~pvvvl2~~~~~~~~~~~",
"~~~~~$ivlj~~~~~3fpikp>o~~~~~~~~~",
"~~~~~~ivcj~~~~ >54r494%~~~~~~~~~",
"~~~~~#fvvl=~2ukkzvxxkh4*~~~~~~~~",
"~~~~~;ivvhetlccvcvccvcca8~~~~~~~",
"~~~~~~jxu9fxvcccccccccccxe~~~~~~",
"~~~~~~hhtlvcccccccccccccvzf&~~~~",
"~~~~~~trfccccccvvcccccccccc3~~~~",
"~~~~~~5iccccccvxggkkccccccvhu~~~",
"~~~~~o2zvccccxpqCJBVSkccccccs~~~",
"~~~~~~9vccccvdZERRRQTnjccccvj~~~",
"~~~~~.hvccccgnPKGHHKWLmjvcvvzy~~",
"~~~~~7kvccccwIYFvcckD,0tvccccr~~",
"~~~~~>ccccczVWAlHvvclupezcccvu&~",
"~~~~~9zvccvhNUMcccccvfeelvccch+~",
"~~~~~2ccccczbnexcvcccxe-xcccvp~~",
"~~~~~;cccccl07pxcccccvu-efzvvy+~",
"~~~~~2hvcccxf8rxccccvzrtfeeukr~~",
"~~~~~~tvccccz82svcvvztrxvxste%~~",
"~~~~~~5zccccvh><plhituzvcvvcj< ~",
"~~~~~~3ivvcccz4eteeialccccvvfe~~",
"~~~~~~~1zccccatcxxxzcvccvvl8+~~~",
"~~~~~~~$uzvvxufvcccvccvclpe~~~~~",
"~~~~~~~~~8xvjelccccccccjf~~~~~~~",
"~~~~~~~~~~iftycvvvvzxf3@~~~~~~~~",
"~~~~~~~~~~~-2kcvlffj;OX~~~~~~~~~",
"~~~~~~~~~~~~%re;2~~~~~~~~~~~~~~~",
"~~~~~~~~~~~~~~~~~~~~~~~~~~~~~~~~"
};
