/* XPM */
static char *_1[] = {
/* columns rows colors chars-per-pixel */
"32 32 90 1 ",
"  c #3C3A0C",
". c #545111",
"X c #5F5B14",
"o c #635F15",
"O c #696516",
"+ c #6C6817",
"@ c #767219",
"# c #79741A",
"$ c #807D1C",
"% c #85821D",
"& c #8A861D",
"* c #8C891E",
"= c #908D1F",
"- c #94901F",
"; c #969120",
": c #9A9521",
"> c #9D9821",
", c #A29E23",
"< c #A5A123",
"1 c #AAA424",
"2 c #ADA925",
"3 c #B0AD26",
"4 c #B6B227",
"5 c #B9B427",
"6 c #BBB827",
"7 c #B4B22D",
"8 c #BAB628",
"9 c #BDBA29",
"0 c #A2A233",
"q c #B5B333",
"w c #BDBD35",
"e c #B2B238",
"r c #C2BE2A",
"t c #C6C22A",
"y c #CAC62B",
"u c #CCC92C",
"i c #D1CD2D",
"p c #D5D22E",
"a c #D9D52F",
"s c #DDD92F",
"d c #CAC931",
"f c #C3C239",
"g c #D6D433",
"h c #DAD732",
"j c #DEDB31",
"k c #E1DD31",
"l c #EBE72F",
"z c #FBF72E",
"x c #FDF82E",
"c c #E5E232",
"v c #E9E632",
"b c #EDEA33",
"n c #E3E138",
"m c #F1EE34",
"M c #F5F335",
"N c #F9F636",
"B c #FFFB37",
"V c #F3F138",
"C c #FFFE38",
"Z c #AAB04E",
"A c #B2B643",
"S c #A2A653",
"D c #A8B15B",
"F c #B5BC59",
"G c #8A9873",
"H c #88997E",
"J c #9AA872",
"K c #ACB66F",
"L c #B1BA6D",
"P c #B2BD7A",
"I c #C2C344",
"U c #D1D24E",
"Y c #DEDE4E",
"T c #9BAC85",
"R c #9DB59F",
"E c #ACBD9A",
"W c #8FA8AC",
"Q c #96ACA4",
"! c #99B1AC",
"~ c #8FABB1",
"^ c #97B2B5",
"/ c #97B1B8",
"( c #A0B6A0",
") c #B7C79C",
"_ c #AEC1A1",
"` c #ABC3BC",
"' c #9AB7C1",
"] c #A4C2CF",
"[ c #A8C4CE",
"{ c None",
/* pixels */
"{{{{{{{{{{{{{{{{{{{{{{{{{{{{{{{{",
"{{{{{{{{{{{{{{{{{{{{{{{{{{{{{{{{",
"{{{{{{{{{{{{{{{{{{{{{{{{{{{{{{{{",
"{{{{{{{{{{{{{{{{{{{%{{{{{{{{{{{{",
"{{{{{{{{{{{+#{+-itcttgj{{{{{{{{{",
"{{{{&9a2ptuy><abCBBBBNbcu2{{{{{{",
"{{{jVMNBBBs8pBBBBBBBBBBBNa;{{{{{",
"{{{aBBBBBu6sNBBBBBBBBBBBBBMt#{{{",
"{{{4ujVCv1cBBBBBBBBBBBBBBBBV2{{{",
"{{{{{{y98tBBBBBBBBBMBBBBBBBBv& {",
"{{{{{{{ 1mBBBBBBMaII9hmBBBBcu8<{",
"{{{{{{{{cBBBBBBgDR~HeutvBbt9iMk@",
"{{{{{{{>MBBBBBcJ]`_Sri2-4rgbBBkO",
"{t{{{{{cNBBBBbF^)UnbVvh91bBBBBu&",
"{abvv{XaBBBBBd!_YxBBBBBbrbBBBBt{",
"8vBBMvtkBBBBBw/LMBBBBBBBipBBBNu{",
"{tMBBBycBBBBNIWPxBBBBBBBujBBBmk{",
"{&yMBBrvBBBBBfQ_jBBBBBBByjBBBV={",
"{{{<vNppBBBBBcT[LcBBBBBvucBBBcO{",
"{{{{pVspBBBBCzA^!qcNBBNtaMBBB9O{",
"{{{{{<ttVBBBBBlZG0yisburNBBBM&{{",
"{{{{{{{:sBBBBBBVf762-:uVBBBNb{{{",
"{{{{{{{O:MBBBBBBMblst2cBBBBVk{{{",
"{{{{{{{{.4NBBBBBBBBBBjuNBBBa{{{{",
"{{{{{{{{{{pBBBBBBBBBBmyvBBN4{{{{",
"{{{{{{{{{{&pBBBBBBBBBBhyNBy*{{{{",
"{{{{{{{{{{{%2bBBBBBBBBM8vb*{{{{{",
"{{{{{{{{{{{{{<9gbBBBBNv9;2{{{{{{",
"{{{{{{{{{{{{{{{{722s5r<{{{{{{{{{",
"{{{{{{{{{{{{{{{{{{{{{{{{{{{{{{{{",
"{{{{{{{{{{{{{{{{{{{{{{{{{{{{{{{{",
"{{{{{{{{{{{{{{{{{{{{{{{{{{{{{{{{"
};
