/* XPM */
static char *_25[] = {
/* columns rows colors chars-per-pixel */
"64 64 141 2 ",
"   c #040000",
".  c #0C0001",
"X  c #150002",
"o  c #1A0003",
"O  c #230004",
"+  c #2D0005",
"@  c #330006",
"#  c #3B0007",
"$  c #440008",
"%  c #4B0009",
"&  c #54000A",
"*  c #5C000B",
"=  c #500E18",
"-  c #5D101B",
";  c #63000C",
":  c #6C000D",
">  c #73000E",
",  c #7C000F",
"<  c #640511",
"1  c #7C0110",
"2  c #7D0816",
"3  c #7D0C1B",
"4  c #730613",
"5  c #65101D",
"6  c #5F1824",
"7  c #641520",
"8  c #771321",
"9  c #562C36",
"0  c #79202F",
"q  c #6D2E37",
"w  c #7B313E",
"e  c #523E46",
"r  c #623942",
"t  c #693F49",
"y  c #5E4D57",
"u  c #554C54",
"i  c #505159",
"p  c #5F515B",
"a  c #664752",
"s  c #794C57",
"d  c #67515C",
"f  c #72535E",
"g  c #596972",
"h  c #7B636E",
"j  c #60727C",
"k  c #78707D",
"l  c #80000E",
"z  c #8D000D",
"x  c #830010",
"c  c #8B0011",
"v  c #870818",
"b  c #940012",
"n  c #9B0013",
"m  c #980718",
"M  c #950A1C",
"N  c #A30014",
"B  c #AB0015",
"V  c #A20719",
"C  c #AB0519",
"Z  c #A50C1E",
"A  c #B40016",
"S  c #BC0016",
"D  c #B30419",
"F  c #BF0118",
"G  c #821E2C",
"H  c #931221",
"J  c #BC0D22",
"K  c #A51123",
"L  c #A4182A",
"P  c #B01629",
"I  c #A01D30",
"U  c #BE1E33",
"Y  c #802332",
"T  c #862A3A",
"R  c #922433",
"E  c #A42637",
"W  c #A4283A",
"Q  c #C40017",
"!  c #CE0015",
"~  c #C40018",
"^  c #CB0119",
"/  c #C60A1F",
"(  c #D30016",
")  c #D3001A",
"_  c #DB001B",
"`  c #E30016",
"'  c #E3001C",
"]  c #EC001C",
"[  c #F3001D",
"{  c #FF001F",
"}  c #D70A23",
"|  c #FF0020",
" . c #864B57",
".. c #855963",
"X. c #90606C",
"o. c #627E87",
"O. c #6C7C87",
"+. c #7B7D86",
"@. c #8C7B86",
"#. c #8B7F8A",
"$. c #947A86",
"%. c #6E868F",
"&. c #79828E",
"*. c #698792",
"=. c #6E8A93",
"-. c #778793",
";. c #728A95",
":. c #7E909C",
">. c #7999A6",
",. c #7B9DA9",
"<. c #7EA5B1",
"1. c #86808B",
"2. c #A08994",
"3. c #8E9FA9",
"4. c #929FAA",
"5. c #94A1AA",
"6. c #84ABB6",
"7. c #8FACBA",
"8. c #83A3B1",
"9. c #96AAB4",
"0. c #90ADBA",
"q. c #96B3BE",
"w. c #A5B0BC",
"e. c #9ABECC",
"r. c #A7CEDC",
"t. c #AACEDA",
"y. c #A8D0DF",
"u. c #B4D2DE",
"i. c #A4D1E0",
"p. c #AAD5E4",
"a. c #ADDCEA",
"s. c #B7DEEC",
"d. c #BCDFEC",
"f. c #BCE4F3",
"g. c #BEE8F7",
"h. c #BEECFD",
"j. c #C1E7F6",
"k. c #C4E8F7",
"l. c #C5EBFA",
"z. c #CBEDFA",
"x. c None",
/* pixels */
"x.x.x.x.x.x.x.x.x.x.x.x.x.x.x.x.x.x.x.x.  x.x.  x.x.x.x.x.x.x.x.x.x.x.x.x.x.x.x.x.x.x.x.x.x.x.x.x.x.x.x.x.x.x.x.x.x.x.x.x.x.x.x.",
"x.x.x.x.x.x.x.x.x.x.x.x.x.x.x.x.x.x.x.x.+ , b c > ; c % @ % x.x.x.x.x.x.x.x.x.x.x.x.x.x.x.x.x.x.x.x.x.x.x.x.x.x.x.x.x.x.x.x.x.x.",
"x.x.x.x.x.x.x.x.x.x.x.x.x.x.x.x.x.x.x.x.O A | { { [ ' ' ] Q N N > $ O + x.x.x.x.x.x.x.x.x.x.x.x.x.x.x.x.x.x.x.x.x.x.x.x.x.x.x.x.",
"x.x.x.x.x.x.x.x.x.x.x.x.x.x.x.x.x.x.x.x.o : ] | { { | { | | | { ] ] ) n ; & x.x.x.x.x.x.x.x.x.x.x.x.x.x.x.x.x.x.x.x.x.x.x.x.x.x.",
"x.x.x.x.x.x.x.x.x.x.x.x.x.x.x.x.x.x.x.& c > F | { { { { { { { { { { { { | ' B , ; x.x.x.x.x.x.x.x.x.x.x.x.x.x.x.x.x.x.x.x.x.x.x.",
"x.x.x.x.x.x.x.x.x.x.x.x.x.x.x.x.x.x.c ^ { B c [ { { { { { { { { { { { | | | | { _ b : % x.x.x.x.x.x.x.x.x.x.x.x.x.x.x.x.x.x.x.x.",
"x.x.x.x.x.x.x.x.x.x.x.x.x.x.x.x.+ x ] { { ' 1 ^ { { { { { { { { { { { { { { { { { | { A : @ o x.x.x.x.x.x.x.x.x.x.x.x.x.x.x.x.x.",
"x.x.x.x.x.x.x.x.x.x.x.x.x.x.x.$ n ] | { { { B b { { { { { { { { { { { { { { { { { { { { { ) x + x.x.x.x.x.x.x.x.x.x.x.x.x.x.x.x.",
"x.x.x.x.x.x.x.x.x.x.x.x.x.x.O N [ { { { { | ) x ^ | { { { { { { { { { { { { { { { { { { { { ] ~ n x.x.x.x.x.x.x.x.x.x.x.x.x.x.x.",
"x.x.x.x.x.x.x.x.x.x.x.x.x.x.c { | { { { { { [ b n { { { { { { { { { { { { { { { { { { { { { | | ' N % . x.x.x.x.x.x.x.x.x.x.x.x.",
"x.x.x.x.x.x.x.x.x.x.x.x.X n ' | { { { { { { { _ , _ | { { { { { { { { { { { { { { { { { { { { { | | ] x @ x.x.x.x.x.x.x.x.x.x.x.",
"x.x.x.x.x.x.x.x.x.x.x.x.& ' | | { { { { { { { [ n B | { { { { { { { { { { { { { { { { { { { { { | | | ] B & o x.x.x.x.x.x.x.x.x.",
"x.x.x.x.x.x.x.x.x.x.x.; B { { { { { { { { { { { ) c ' { { { { { { | { { { { | | { { { { { { { { { { { | | ) > x.x.x.x.x.x.x.x.x.",
"x.x.x.x.x.x.x.x.x.x.x.c [ { { { { { { { { { { { [ , A { { ] ~ Q B N ^ ^ ) [ | | { { { { { { { { { { { { { { ' b # x.x.x.x.x.x.x.",
"x.x.x.x.x.x.x.x.x.x.@ ~ | { { { { { { { { { { { { A , ~ B : c l N B c c N A ) | { { { { { { { { { { { { { { { { N @ x.x.x.x.x.x.",
"x.x.x.x.x.x.x.x.x.o b ] { { { { { { { { { { { { { _ & : N ) ] { { { | ] Q c x S [ | { { { { { { { { { | { { [ ~ : + x.x.x.x.x.x.",
"x.x.x.x.x.x.x.x.x.@ _ { { { { { { { { { { { { { ] b $ C { { { { { { { | | { _ b b ' { { { { { { { { | | ] F b * @ x.x.x.x.x.x.x.",
"x.x.x.x.x.x.x.x.x.: [ | { { { { { { { { { { | _ b > v ^ { { { { { { { { { { { _ c b ] | { { { { { { [ ~ , c A ) , x.x.x.x.x.x.x.",
"x.x.x.x.x.x.x.x.o A { { { { { { { { { { { { | b m S Z ' { { { { { { { { { { { | ] b A { { { { { [ ^ b x A ' | | n x.x.x.x.x.x.x.",
"x.x.x.x.x.x.x.x.@ ) { { { { { { { { { { { { ) > ^ _ n { { { { { { { { { { { { { { ^ , _ { { ] F b b A ] | | { { ~ @ x.x.x.x.x.x.",
"x.x.x.x.x.x.x.x.c _ | { { { { { { { { { { { c B [ / D { { { { { { { { { { { { { { { n b ' ~ l c Q ] { | { { { | _ % x.x.x.x.x.x.",
"x.x.x.x.x.x.x.x.c ] { { { { { { { { { { { ] > ' { Z _ { { { { { { { { { { { { { { | Q * > c F ' | | { { { { { { { ; x.x.x.x.x.x.",
"x.x.x.x.x.x.x.x.> { { { { { { { { { { { | S > ` [ C ` { { { { { { { { { { { { { | | Q + , [ { | | | | { { { { { [ c x.x.x.x.x.x.",
"x.x.x.x.x.x.x.X c { { { { { { { { { | | | z 9 L ) ~ _ { { { { { { { { { { | { { { ' m % B | { { | | | { { { { { | b O x.x.x.x.x.",
"x.x.x.x.x.x.x.x.A { { { { { { { { { { { [ m %.&.q : ` { { { { { { { { { { | | | | Q B 1 A { { { { { { { { { { { { N x.x.x.x.x.x.",
"x.x.x.x.x.x.x.x.n | { { { { { { { { { { [ H *.g.q.a ` { { { { { { { { { { | | | ] D Q A b { { { { { { { { { { { { A o x.x.x.x.x.",
"x.x.x.x.x.x.x.o n | { { { { { { { { { { { z ;.f.s.X.( { { { { { { { { { { { | { C A ] B n | { { { { { { { { { { | n x.x.x.x.x.x.",
"x.x.x.x.x.x.x.x.n [ { { { { { { { { { { { D g s.j.$.} { { { { { { { { { { { { ' v _ { , ^ { { { { { { { { { { { { N x.x.x.x.x.x.",
"x.x.x.x.x.x.x.x., { { { { { { { { { { { | ^ a y.j.w.P { { { { { { { { { { { ' D A { ' ; ] { { { { { { { { { { { [ B x.x.x.x.x.x.",
"x.x.x.x.x.x.x.x., ] | { { { { { { { { { { [ 0 8.l.t. .( { { { { { { { { { [ z 1 / _ z c ] | { { { { { { { { { { { : x.x.x.x.x.x.",
"x.x.x.x.x.x.x.x.; [ | { { { { { { { { { { { B i p.l.5.W ] { { { { { { { ] K u h f d = ) | { { { { { { { { { { { [ & x.x.x.x.x.x.",
"x.x.x.x.x.x.x.x.@ ) | | { { { { { { { { { { ] 8 ;.f.d.2.U ` [ [ { { [ ! R @.y.s.r.&.3 { { { { { { { { { { { { | ^ % x.x.x.x.x.x.",
"x.x.x.x.x.x.x.x.O N | { { { { { { { { { { { { ( w 9.g.d.4...W / S D L s 5.d.z.d.=.T ( { { { { { { { { { { { { | b x.x.x.x.x.x.x.",
"x.x.x.x.x.x.x.x.  > [ | { { { { { { { { { { { [ Q e =.y.l.u.3.+.1.1.9.u.z.l.y.O.7 _ { { { { { { { { { { { { { [ > x.x.x.x.x.x.x.",
"x.x.x.x.x.x.x.x.x.+ ) | { { { { { { { { { { { { { ! G k e.s.g.k.z.l.l.k.y.,.y 3 ( { { { { { { { { { { { { { | ~ * x.x.x.x.x.x.x.",
"x.x.x.x.x.x.x.x.o + b | { { { { { { { { { { { { { { _ b 6 y :.<.6.0.>.j u 5 A ] { { { { { { { { { { { { { { | x x.x.x.x.x.x.x.x.",
"x.x.x.x.x.x.x.x.x.> : _ { { { { { { { { { { { { { { { { ] D 4 8 G - 2 b A ` { { { { { { { { { { { { { { { { ] * x.x.x.x.x.x.x.x.",
"x.x.x.x.x.x.x.x.x., b n { { { { { { { { { { { { { { { { { { { [ ` [ [ { { { { { { { { { { { { { { { { { { { b # x.x.x.x.x.x.x.x.",
"x.x.x.x.x.x.x.x.x.b ~ 1 ) { { { { { { { { { { { { { { { { { { { { { { { { { { { { { { { { { { { { { { { { ' $ x.x.x.x.x.x.x.x.x.",
"x.x.x.x.x.x.x.x.x.1 [ N c ] { { { { { { { { { { { { { { { { { { { { { { { { { { { { { { { { { { { { { { ' z   x.x.x.x.x.x.x.x.x.",
"x.x.x.x.x.x.x.x.x.& { _ > c [ { { { { { { { { { { { { { { { { { { { { { { { { { { { { { { { { { { { { { b x.x.x.x.x.x.x.x.x.x.x.",
"x.x.x.x.x.x.x.x.x.; ] | ) > B { { { { { { { { { { { { { { { { { { { { { { { { { { { { { { { { { { | { ~ @ x.x.x.x.x.x.x.x.x.x.x.",
"x.x.x.x.x.x.x.x.x.; [ { | ~ > A { { { { { { { { { { { { { { { { { { { { { { { { { { { { { { { { { { A > x.x.x.x.x.x.x.x.x.x.x.x.",
"x.x.x.x.x.x.x.x.x.% ] { | [ N * N [ { { { { { { { { { { { { { { { { { { { { { { { { { { { { { | { F $ x.x.x.x.x.x.x.x.x.x.x.x.x.",
"x.x.x.x.x.x.x.x.x.> _ { { | | Q l A [ { { { { { { { { { { { { { { { { { { { { { { { { { { { { ] B * x.x.x.x.x.x.x.x.x.x.x.x.x.x.",
"x.x.x.x.x.x.x.x.x.@ ' { { { | [ A ; : ^ { { { { { { { { { { { { { { { { { { { { { { { { { { ] x $ x.x.x.x.x.x.x.x.x.x.x.x.x.x.x.",
"x.x.x.x.x.x.x.x.x.x.^ | { { { { | ' N , A ] { { { { { { { { { { { { { { { { { { { { { { [ ! * . x.x.x.x.x.x.x.x.x.x.x.x.x.x.x.x.",
"x.x.x.x.x.x.x.x.x.# F | { { { { { { _ & X ; F [ | { { { { { { { { { { { { { { { { { ] ! l #   x.x.x.x.x.x.x.x.x.x.x.x.x.x.x.x.x.",
"x.x.x.x.x.x.x.x.x.o ^ | | { { { | | ) n x.x.# * N ' { { { { { { { { { { { { | [ ] A b > $   x.x.x.x.x.x.x.x.x.x.x.x.x.x.x.x.x.x.",
"x.x.x.x.x.x.x.x.x.% S | | | { { | | V x.x.x.x.x.x.& ; b Q _ _ [ [ ' [ ' ^ ^ N n l N n c + x.x.x.x.x.x.x.x.x.x.x.x.x.x.x.x.x.x.x.",
"x.x.x.x.x.x.x.x.x.@ S | { { { { | ] b x.x.x.x.x.x.x.x.o O > N l c b , b b c N F ] ] c x.x.x.x.x.x.x.x.x.x.x.x.x.x.x.x.x.x.x.x.x.",
"x.x.x.x.x.x.x.x.x.x.A | { { { { | Q c x.x.x.x.x.x.x.x.x.$ Q ) ' ) ^ ' ' ] | | | | S @ x.x.x.x.x.x.x.x.x.x.x.x.x.x.x.x.x.x.x.x.x.",
"x.x.x.x.x.x.x.x.x.x.n | { { { { | n x.x.x.x.x.x.x.x.x.x.: { { { | | | | | | | [ n > x.x.x.x.x.x.x.x.x.x.x.x.x.x.x.x.x.x.x.x.x.x.",
"x.x.x.x.x.x.x.x.x.x.B | { { { | ' c x.x.x.x.x.x.x.x.x.# N { { { | { { { { | | B + x.x.x.x.x.x.x.x.x.x.x.x.x.x.x.x.x.x.x.x.x.x.x.",
"x.x.x.x.x.x.x.x.x.x.n | { { { | S x.x.x.x.x.x.x.x.x.x.% ] { { { { { { { | | ~ & x.x.x.x.x.x.x.x.x.x.x.x.x.x.x.x.x.x.x.x.x.x.x.x.",
"x.x.x.x.x.x.x.x.x.x.> [ { | | { n x.x.x.x.x.x.x.x.x.x.> { { { { { { { { | S ; x.x.x.x.x.x.x.x.x.x.x.x.x.x.x.x.x.x.x.x.x.x.x.x.x.",
"x.x.x.x.x.x.x.x.x.x.# > ~ ' | _ c x.x.x.x.x.x.x.x.x.$ A { { { { { { | | ) % x.x.x.x.x.x.x.x.x.x.x.x.x.x.x.x.x.x.x.x.x.x.x.x.x.x.",
"x.x.x.x.x.x.x.x.x.x.x.o O % b c x.x.x.x.x.x.x.x.x.x.& [ { { { { { | | Q N x.x.x.x.x.x.x.x.x.x.x.x.x.x.x.x.x.x.x.x.x.x.x.x.x.x.x.",
"x.x.x.x.x.x.x.x.x.x.x.x.x.x.o o x.x.x.x.x.x.x.x.x.x.x { { { { { { | ) & x.x.x.x.x.x.x.x.x.x.x.x.x.x.x.x.x.x.x.x.x.x.x.x.x.x.x.x.",
"x.x.x.x.x.x.x.x.x.x.x.x.x.x.x.x.x.x.x.x.x.x.x.x.x.$ ^ { { { { { { ) > . x.x.x.x.x.x.x.x.x.x.x.x.x.x.x.x.x.x.x.x.x.x.x.x.x.x.x.x.",
"x.x.x.x.x.x.x.x.x.x.x.x.x.x.x.x.x.x.x.x.x.x.x.x.x.& [ | | { { | _ ; x.x.x.x.x.x.x.x.x.x.x.x.x.x.x.x.x.x.x.x.x.x.x.x.x.x.x.x.x.x.",
"x.x.x.x.x.x.x.x.x.x.x.x.x.x.x.x.x.x.x.x.x.x.x.x.  $ A _ ] | | ' : x.x.x.x.x.x.x.x.x.x.x.x.x.x.x.x.x.x.x.x.x.x.x.x.x.x.x.x.x.x.x.",
"x.x.x.x.x.x.x.x.x.x.x.x.x.x.x.x.x.x.x.x.x.x.x.x.x.  . # l ~ F x O x.x.x.x.x.x.x.x.x.x.x.x.x.x.x.x.x.x.x.x.x.x.x.x.x.x.x.x.x.x.x.",
"x.x.x.x.x.x.x.x.x.x.x.x.x.x.x.x.x.x.x.x.x.x.x.x.x.x.x.x.  X + x.x.x.x.x.x.x.x.x.x.x.x.x.x.x.x.x.x.x.x.x.x.x.x.x.x.x.x.x.x.x.x.x."
};
