/* XPM */
static char *_29[] = {
/* columns rows colors chars-per-pixel */
"64 64 138 2 ",
"   c #020000",
".  c #0C0001",
"X  c #130002",
"o  c #1D0003",
"O  c #230004",
"+  c #2B0005",
"@  c #340006",
"#  c #3B0007",
"$  c #3F0008",
"%  c #400007",
"&  c #430008",
"*  c #4B0009",
"=  c #54000A",
"-  c #5C000B",
";  c #5E0F1A",
":  c #65000C",
">  c #6B000D",
",  c #73000E",
"<  c #7B000F",
"1  c #6B0A17",
"2  c #7D0211",
"3  c #720A18",
"4  c #7F0D1C",
"5  c #68111C",
"6  c #6B1420",
"7  c #771725",
"8  c #791220",
"9  c #741926",
"0  c #7D1E2B",
"q  c #6F202C",
"w  c #72252F",
"e  c #7D2836",
"r  c #6D3B48",
"t  c #54404A",
"y  c #5A4E56",
"u  c #58525B",
"i  c #6C4955",
"p  c #61525B",
"a  c #575760",
"s  c #505D65",
"d  c #625E66",
"f  c #675F69",
"g  c #7D5C6A",
"h  c #5C757E",
"j  c #706F79",
"k  c #7F6C78",
"l  c #637078",
"z  c #6B717D",
"x  c #83000F",
"c  c #8B000D",
"v  c #820010",
"b  c #8B0011",
"n  c #820A19",
"m  c #940112",
"M  c #9C0113",
"N  c #9A0A1C",
"B  c #A30014",
"V  c #AC0015",
"C  c #AB0418",
"Z  c #A00C1E",
"A  c #AE091E",
"S  c #B40016",
"D  c #BC0017",
"F  c #B30418",
"G  c #BD0319",
"H  c #841828",
"J  c #8B1424",
"K  c #9D1526",
"L  c #991629",
"P  c #971929",
"I  c #A40F21",
"U  c #BC172C",
"Y  c #962F3E",
"T  c #C30016",
"R  c #C40018",
"E  c #CC0119",
"W  c #D20014",
"Q  c #D80013",
"!  c #D3001A",
"~  c #DC001B",
"^  c #EE0017",
"/  c #E3001C",
"(  c #EC001C",
")  c #F00017",
"_  c #F4001E",
"`  c #FF001F",
"'  c #CB0B22",
"]  c #FF0020",
"[  c #8D3644",
"{  c #A73445",
"}  c #8F4250",
"|  c #806F79",
" . c #966E7A",
".. c #A16C79",
"X. c #667782",
"o. c #657F8A",
"O. c #787780",
"+. c #767A86",
"@. c #8A7480",
"#. c #6A818B",
"$. c #6E8B95",
"%. c #7F8790",
"&. c #768F9A",
"*. c #7896A2",
"=. c #7DA5B1",
"-. c #88848E",
";. c #858A94",
":. c #83929E",
">. c #809CA9",
",. c #9897A2",
"<. c #90A1AB",
"1. c #98A2AD",
"2. c #81A4B0",
"3. c #8BA3B0",
"4. c #86ACB9",
"5. c #9BAFB9",
"6. c #9CB6C3",
"7. c #9CB9C4",
"8. c #92BDCB",
"9. c #ACBDC8",
"0. c #98C8D5",
"q. c #A6C5D0",
"w. c #A5C9D5",
"e. c #A3CEDD",
"r. c #A8CEDC",
"t. c #B5D0DC",
"y. c #ABD7E6",
"u. c #BADAE6",
"i. c #B5DEED",
"p. c #BAE0EF",
"a. c #B5E0F0",
"s. c #BBE4F3",
"d. c #BAE8F6",
"f. c #C3E7F6",
"g. c #C4E9F7",
"h. c #C5ECFB",
"j. c #CDEDFA",
"k. c None",
/* pixels */
"k.k.k.k.k.k.k.k.k.k.k.k.k.k.k.k.k.k.k.k.k.k.k.k.k.k.k.k.k.k.k.k.k.k.k.k.k.k.k.k.k.k.k.k.k.k.k.k.k.k.k.k.k.k.k.k.k.k.k.k.k.k.k.k.",
"k.k.k.k.k.k.k.k.k.k.k.k.k.k.k.k.k.k.k.k.k.k.k.k.k.k.k.k.k.k.k.k.k.k.k.k.k.k.k.k.k.k.k.k.k.k.k.k.k.k.k.k.k.k.k.k.k.k.k.k.k.k.k.k.",
"k.k.k.k.k.k.k.k.k.k.k.k.k.k.k.k.. & > # # - b = = : v M & # O @ # k.k.k.k.k.k.k.k.k.k.k.k.k.k.k.k.k.k.k.k.k.k.k.k.k.k.k.k.k.k.k.",
"k.k.k.k.k.k.k.k.k.k.k.k.k.k.k.k.& B R ~ ( / ~ / ] ] ( ~ ~ / ~ E M b < > : k.k.k.k.k.k.k.k.k.k.k.k.k.k.k.k.k.k.k.k.k.k.k.k.k.k.k.",
"k.k.k.k.k.k.k.k.k.k.k.k.k.k.k.k.o m ` ] ` ` ] ` ] _ ] ] ` ` ` ` ` ] ] _ ! V v : # @ k.k.k.k.k.k.k.k.k.k.k.k.k.k.k.k.k.k.k.k.k.k.",
"k.k.k.k.k.k.k.k.k.k.k.k.k.k.k.k.o = E ` ` ` ` ` ] ] ` ` ` ` ` ` ` ` ` ` ` ] ] _ ~ V > # X k.k.k.k.k.k.k.k.k.k.k.k.k.k.k.k.k.k.k.",
"k.k.k.k.k.k.k.k.k.k.k.k.k.k.k.@ m B b _ ` ` ` ` ` ` ` ` ` ` ` ` ` ` ` ` ` ` ` ` ` ` _ ! V b : k.k.k.k.k.k.k.k.k.k.k.k.k.k.k.k.k.",
"k.k.k.k.k.k.k.k.k.k.k.k.k.k.k.m ` ( v V ` ` ` ` ` ` ` ` ` ` ` ` ` ` ` ` ` ` ` ` ` ] ] ] ` / S : o k.k.k.k.k.k.k.k.k.k.k.k.k.k.k.",
"k.k.k.k.k.k.k.k.k.k.k.k.k.& M _ ] ` R v ! ] ` ` ` ` ` ` ` ` ` ` ` ` ` ` ` ` ` ` ` ` ` ` ` ] ] _ E b * k.k.k.k.k.k.k.k.k.k.k.k.k.",
"k.k.k.k.k.k.k.k.k.k.k.k.O m _ ` ` ` _ M b ( ] ] ` ` ` ` ` ` ` ` ` ` ` ` ` ` ` ` ` ` ` ` ` ` ` ` ] _ D : k.k.k.k.k.k.k.k.k.k.k.k.",
"k.k.k.k.k.k.k.k.k.k.k.. < _ ` ` ` ` ] / < S _ ] ` ` ` ` ` ` ` ` ` ` ` ` ` ` ` ` ` ` ` ` ` ` ` ` ] ] ` ( V = o k.k.k.k.k.k.k.k.k.",
"k.k.k.k.k.k.k.k.k.k.k.* ~ ] ` ` ` ` ` ` E x ~ ] ` ` ` ` ` ` ` ` ` ` ` ] ` ` ` ` ` ` ` ` ` ` ` ` ` ` ] ] ] / > k.k.k.k.k.k.k.k.k.",
"k.k.k.k.k.k.k.k.k.k.k.B ] ] ] ` ` ` ` ` _ B M _ ` ` ` ` ` ` ` ` _ _ ] ] ] ] ` ` ` ` ` ` ` ` ` ` ` ` ] ` ~ < + k.k.k.k.k.k.k.k.k.",
"k.k.k.k.k.k.k.k.k.X x ( ] ] ` ` ` ` ` ` ] ~ m R ` ` ` _ ( ! M V S D R ! ( ] ` ` ` ` ` ` ` ` ` ` ] ] ( S v * k.k.k.k.k.k.k.k.k.k.",
"k.k.k.k.k.k.k.k.k.# E _ ` ` ` ` ` ` ` ` ` ] V v / ` E B < x V C M m m b V ~ ` ` ` ` ` ` ` ` ` ` ] ~ b x E ~ > k.k.k.k.k.k.k.k.k.",
"k.k.k.k.k.k.k.k.k., ` ` ` ` ` ` ` ` ` ` ` ` ( c m m b m ~ _ _ ` ] ] _ ! V 2 B ( ` ` ` ` ` ` ` _ R b m ~ ] _ B k.k.k.k.k.k.k.k.k.",
"k.k.k.k.k.k.k.k.k.V ] ` ` ` ` ` ` ` ` ` ` ` ] T # n ~ ` ` ` ` ` ` ` ` ] ` ! b b ~ ` ` ` ` ] / V b T _ ] ` ` ! * k.k.k.k.k.k.k.k.",
"k.k.k.k.k.k.k.  * ~ ] ` ` ` ` ` ` ` ` ` ` ` ( m * R ` ` ` ` ` ` ` ` ` ` ` ] ( B m ( ] ] _ G M B ~ ` ] ] ` ] _ , . k.k.k.k.k.k.k.",
"k.k.k.k.k.k.k.X m _ ` ` ` ` ` ` ` ` ` ` ] _ V , b R ` ` ` ` ` ` ` ` ` ` ` ` ` / m V _ _ m b R _ ] ` ` ` ` ` ] B k.k.k.k.k.k.k.k.",
"k.k.k.k.k.k.k.+ ! ` ` ` ` ` ` ` ` ` ` ` ] S b V A ! ` ` ` ` ` ` ` ` ` ` ` ` ` ` ! , M v m ~ ] ` ` ` ` ` ` ` ` / # k.k.k.k.k.k.k.",
"k.k.k.k.k.k.k.# / ] ] ` ` ` ` ` ` ` ` ` ] v C / B ( ` ` ` ` ` ` ` ` ` ` ` ` ` ] _ 2 @ B _ ] ` ` ` ` ` ` ` ` ` _ > k.k.k.k.k.k.k.",
"k.k.k.k.k.k.k.: _ ] ` ` ` ` ` ` ` ` ` ` ( > ~ _ N _ ` ` ` ` ` ` ` ` ` ` ` ` ` ` ( , = ! ] ` ` ` ` ` ` ` ` ` ` _ b . k.k.k.k.k.k.",
"k.k.k.k.k.k.X v _ ` ` ` ` ` ` ` ` ` ` ` E x _ ( Z _ ` ` ` ` ` ` ` ` ` ` ] ` ] ] E b : E ` ` ` ` ` ` ` ` ` ` ` ` m O k.k.k.k.k.k.",
"k.k.k.k.k.k.k.B _ ` ` ` ` ` ` ` ` ` ` ` B m ` ~ F ^ ` ` ` ` ` ` ` ` ` ` ] ] ] _ G S m V ` ` ` ` ` ` ` ` ` ` ` ] V k.k.k.k.k.k.k.",
"k.k.k.k.k.k.k.B ` ` ` ` ` ` ` ` ` ` ` ] x 8 ' ~ G ( ] ] ` ` ` ` ` ` ` ` ] ] ] ( F W D b ] ` ` ` ` ` ` ` ` ` ` ` D k.k.k.k.k.k.k.",
"k.k.k.k.k.k.k.b ] ` ` ` ` ` ` ` ` ` ` ` x s d w : / ` ` ` ` ` ` ` ` ` ` ` ` ] G C ( S M ` ` ` ` ` ` ` ` ` ` ` ` D o k.k.k.k.k.k.",
"k.k.k.k.k.k.k.< ` ` ` ` ` ` ` ` ` ` ` _ C #.d.5.p E ` ` ` ` ` ` ` ` ` ` ` ] ( N ! ` b S ` ` ` ` ` ` ` ` ` ` ` ` D @ k.k.k.k.k.k.",
"k.k.k.k.k.k.k.m _ ` ` ` ` ` ` ` ` ` ` ` G u a.f.,.A ` ] ` ` ` ` ` ` ` ` ` ] G B _ _ > E _ ] ` ` ` ` ` ` ` ` ` ] M k.k.k.k.k.k.k.",
"k.k.k.k.k.k.k.m _ ` ` ` ` ` ` ` ` ` ` ] W r 0.g.q.{ _ ` ` ` ` ` ` ` ` ` ` ( , b ' I - / ` ` ` ` ` ` ` ` ` ` ` ] b k.k.k.k.k.k.k.",
"k.k.k.k.k.k.k.= _ ` ` ` ` ` ` ` ` ` ` ` _ 7 *.s.p. .E ` ` ` ` ` ` ` ` ` ( K y | j u 3 ` ` ` ` ` ` ` ` ` ` ` ` ` < k.k.k.k.k.k.k.",
"k.k.k.k.k.k.k.# ~ ` ` ` ` ` ` ` ` ` ` ` ` D p e.j.7.[ / ` ` ` ` ` ` ` ) I | w.p.0.g S ` ` ` ` ` ` ` ` ` ` ` ` ( : k.k.k.k.k.k.k.",
"k.k.k.k.k.k.k.k.S ] ` ` ` ` ` ` ` ` ` ` ` _ n h i.h.<.Y Q ) _ ` ` ` / P | t.j.p.l L ( ` ` ` ` ` ` ` ` ` ` ` ] E - k.k.k.k.k.k.k.",
"k.k.k.k.k.k.k.X b _ ] ` ` ` ` ` ` ` ` ` ` ` ~ q &.p.g.9. .{ U E S K } ;.p.j.p.#.9 / ` ` ` ` ` ` ` ` ` ` ` ` ] B k.k.k.k.k.k.k.k.",
"k.k.k.k.k.k.k.k.2 _ ` ` ` ` ` ` ` ` ` ` ` ` ` E e :.y.g.u.5.%.O.-.1.q.g.g.r.z 5 W ` ` ` ` ` ` ` ` ` ` ` ` ` ] < k.k.k.k.k.k.k.k.",
"k.k.k.k.k.k.k.k.+ E ` ` ` ` ` ` ` ` ` ` ` ` ` ` W 0 d 2.y.d.h.g.g.h.s.r.*.t 8 W ` ` ` ` ` ` ` ` ` ` ` ` ` ` ( & k.k.k.k.k.k.k.k.",
"k.k.k.k.k.k.k.k.k., ` ` ` ` ` ` ` ` ` ` ` ` ` ` ` ^ V 7 i +.3.4.=.$.z t 5 S ^ ` ` ` ` ` ` ` ` ` ` ` ` ` ] _ S O k.k.k.k.k.k.k.k.",
"k.k.k.k.k.k.k.k.k.# ! ] ` ` ` ` ` ` ` ` ` ` ` ` ` _ ` ( R m 1 ; H J c T ) _ ` ` ` ` ` ` ` ` ` ` ` ` ` ` ` ~ >   k.k.k.k.k.k.k.k.",
"k.k.k.k.k.k.k.k.k.. 2 _ ` ` ` ` ` ` ` ` ` ` ` ` ` ` ` ` ` ` ` ` ^ ) ` ` ` ` ` ` ` ` ` ` ` ` ` ` ` ` ` ` ` m k.k.k.k.k.k.k.k.k.k.",
"k.k.k.k.k.k.k.k.k.. & R ] ] ` ` ` ` ` ` ` ` ` ` ` ` ` ` ` ` ` ` ` ` ` ` ` ` ` ` ` ` ` ` ` ` ` ` ` ` ` ` ~ % k.k.k.k.k.k.k.k.k.k.",
"k.k.k.k.k.k.k.k.k.@ > , / ` ` ` ` ` ` ` ` ` ` ` ` ` ` ` ` ` ` ` ` ` ` ` ` ` ` ` ` ` ` ` ` ` ` ` ` ` ` _ m . k.k.k.k.k.k.k.k.k.k.",
"k.k.k.k.k.k.k.k.k.k.2 m m _ ` ` ` ` ` ` ` ` ` ` ` ` ` ` ` ` ` ` ` ` ` ` ` ` ` ` ` ` ` ` ` ` ` ` ` ` _ B # k.k.k.k.k.k.k.k.k.k.k.",
"k.k.k.k.k.k.k.k.k.k.< E v M _ ` ` ` ` ` ` ` ` ` ` ` ` ` ` ` ` ` ` ` ` ` ` ` ` ` ` ` ` ` ` ` ` ` ` ] S > k.k.k.k.k.k.k.k.k.k.k.k.",
"k.k.k.k.k.k.k.k.k.k.2 ~ ! 2 V _ ` ` ` ` ` ` ` ` ` ` ` ` ` ` ` ` ` ` ` ` ` ` ` ` ` ` ` ` ` ` ` ] ] D & k.k.k.k.k.k.k.k.k.k.k.k.k.",
"k.k.k.k.k.k.k.k.k.k.O E _ R , V ` ` ` ` ` ` ` ` ` ` ` ` ` ` ` ` ` ` ` ` ` ` ` ` ` ` ` ` ` ` ] ] R & k.k.k.k.k.k.k.k.k.k.k.k.k.k.",
"k.k.k.k.k.k.k.k.k.k.. S ] _ R : c / ] ] ` ` ` ` ` ` ` ` ` ` ` ` ` ` ` ` ` ` ` ` ` ` ` ` ` ` _ D &   k.k.k.k.k.k.k.k.k.k.k.k.k.k.",
"k.k.k.k.k.k.k.k.k.k.k.b ] ` ` ! 2 , D _ ` ` ` ` ` ` ` ` ` ` ` ` ` ` ` ` ` ` ` ` ` ` ` ` ` / m @   k.k.k.k.k.k.k.k.k.k.k.k.k.k.k.",
"k.k.k.k.k.k.k.k.k.k.k.> _ ] ` ` ( B v V ( ` ` ` ` ` ` ` ` ` ` ` ` ` ` ` ` ` ` ` ` ` ` _ D v * X k.k.k.k.k.k.k.k.k.k.k.k.k.k.k.k.",
"k.k.k.k.k.k.k.k.k.k.k., ~ ] ` ` ] _ S > : m W _ ` ` ` ` ` ` ` ` ` ` ` ` ` ` ` ` ` _ R M < B # k.k.k.k.k.k.k.k.k.k.k.k.k.k.k.k.k.",
"k.k.k.k.k.k.k.k.k.k.k.+ ! ` ` ` ` ` ] ( G > = b ! _ ` ] ] ` ` ` ] ] ` ] ] ] ( ~ V m m V ~ b k.k.k.k.k.k.k.k.k.k.k.k.k.k.k.k.k.k.",
"k.k.k.k.k.k.k.k.k.k.k.k.V ] ` ` ` ` ` ] ] m k.X @ = < B T / ( ( / / ( E V V B 2 B R ( _ M @ k.k.k.k.k.k.k.k.k.k.k.k.k.k.k.k.k.k.",
"k.k.k.k.k.k.k.k.k.k.k.k., ] ` ` ` ` ` ` _ M k.k.k.k.k.k.& # @ - m m 2 b B V T _ _ ] ] G k.k.k.k.k.k.k.k.k.k.k.k.k.k.k.k.k.k.k.k.",
"k.k.k.k.k.k.k.k.k.k.k.. : _ ` ` ` ` ` ] / b k.k.k.k.k.k.k.k.k.* E ~ _ _ ( ` ` ] ] ] / - k.k.k.k.k.k.k.k.k.k.k.k.k.k.k.k.k.k.k.k.",
"k.k.k.k.k.k.k.k.k.k.k.k., / ] ] ` ` ` ] R m k.k.k.k.k.k.k.k.k.> ` ` ` ` ` ` ` ` ` _ m . k.k.k.k.k.k.k.k.k.k.k.k.k.k.k.k.k.k.k.k.",
"k.k.k.k.k.k.k.k.k.k.k.k.# ~ ] ` ` ` ` ] V k.k.k.k.k.k.k.k.k.# m ` ` ` ` ` ` ` ` ` R & k.k.k.k.k.k.k.k.k.k.k.k.k.k.k.k.k.k.k.k.k.",
"k.k.k.k.k.k.k.k.k.k.k.k.k.S ` ` ` ` ] ] M k.k.k.k.k.k.k.k.k.$ T ` ` ` ` ` ` ] ] E v k.k.k.k.k.k.k.k.k.k.k.k.k.k.k.k.k.k.k.k.k.k.",
"k.k.k.k.k.k.k.k.k.k.k.k.k.b ] ` ` ] ] _ b k.k.k.k.k.k.k.k.k.& ( ` ` ` ` ` ` ] _ , k.k.k.k.k.k.k.k.k.k.k.k.k.k.k.k.k.k.k.k.k.k.k.",
"k.k.k.k.k.k.k.k.k.k.k.k.k.b _ ] ` ` ] ~ b k.k.k.k.k.k.k.k.k.- _ ` ` ` ` ` ` ] D k.k.k.k.k.k.k.k.k.k.k.k.k.k.k.k.k.k.k.k.k.k.k.k.",
"k.k.k.k.k.k.k.k.k.k.k.k.k., ~ ] ] ] ] R k.k.k.k.k.k.k.k.k.k.< ` ` ` ` ` ] ] E = k.k.k.k.k.k.k.k.k.k.k.k.k.k.k.k.k.k.k.k.k.k.k.k.",
"k.k.k.k.k.k.k.k.k.k.k.k.k.% G / _ _ ] B k.k.k.k.k.k.k.k.k.# B ` ` ` ` ` ] / , . k.k.k.k.k.k.k.k.k.k.k.k.k.k.k.k.k.k.k.k.k.k.k.k.",
"k.k.k.k.k.k.k.k.k.k.k.k.k.k.+ & : m R v k.k.k.k.k.k.k.k.k.# ! ] ` ` ` ` ` b k.k.k.k.k.k.k.k.k.k.k.k.k.k.k.k.k.k.k.k.k.k.k.k.k.k.",
"k.k.k.k.k.k.k.k.k.k.k.k.k.k.k.k.k.O O o k.k.k.k.k.k.k.k.k.* _ ] ` ` ` ] S $ k.k.k.k.k.k.k.k.k.k.k.k.k.k.k.k.k.k.k.k.k.k.k.k.k.k.",
"k.k.k.k.k.k.k.k.k.k.k.k.k.k.k.k.k.k.k.k.k.k.k.k.k.k.k.k.k.= ~ ( _ ] ] / = k.k.k.k.k.k.k.k.k.k.k.k.k.k.k.k.k.k.k.k.k.k.k.k.k.k.k.",
"k.k.k.k.k.k.k.k.k.k.k.k.k.k.k.k.k.k.k.k.k.k.k.k.k.k.k.k.k.X & > M D R m k.k.k.k.k.k.k.k.k.k.k.k.k.k.k.k.k.k.k.k.k.k.k.k.k.k.k.k.",
"k.k.k.k.k.k.k.k.k.k.k.k.k.k.k.k.k.k.k.k.k.k.k.k.k.k.k.k.k.k.k.  . X o + k.k.k.k.k.k.k.k.k.k.k.k.k.k.k.k.k.k.k.k.k.k.k.k.k.k.k.k."
};
