/* XPM */
static char *_45[] = {
/* columns rows colors chars-per-pixel */
"64 64 141 2 ",
"   c #000000",
".  c #0B0001",
"X  c #130002",
"o  c #1C0003",
"O  c #220004",
"+  c #2B0005",
"@  c #340006",
"#  c #3C0007",
"$  c #400007",
"%  c #450008",
"&  c #4A0009",
"*  c #54000A",
"=  c #5C000B",
"-  c #63000C",
";  c #6B000D",
":  c #73000E",
">  c #7B000F",
",  c #6A0410",
"<  c #600F1A",
"1  c #7F0211",
"2  c #710815",
"3  c #700D19",
"4  c #621621",
"5  c #761724",
"6  c #7E1624",
"7  c #59232C",
"8  c #542630",
"9  c #59333D",
"0  c #7B2D3C",
"q  c #72313E",
"w  c #4A3C44",
"e  c #543841",
"r  c #5C3943",
"t  c #6C3D49",
"y  c #773442",
"u  c #50555D",
"i  c #63444F",
"p  c #68404B",
"a  c #674B56",
"s  c #7B4550",
"d  c #675D66",
"f  c #765E6A",
"g  c #5A6E77",
"h  c #65616C",
"j  c #6D606C",
"k  c #656873",
"l  c #6A747D",
"z  c #84000E",
"x  c #8D000C",
"c  c #840010",
"v  c #8B0011",
"b  c #820C1B",
"n  c #920012",
"m  c #9C0113",
"M  c #9B0C1D",
"N  c #A1000D",
"B  c #A40014",
"V  c #AC0015",
"C  c #A10618",
"Z  c #A30B1D",
"A  c #B40016",
"S  c #BB0017",
"D  c #B4051A",
"F  c #BE0219",
"G  c #B10A1F",
"H  c #8D1021",
"J  c #841624",
"K  c #A10F21",
"L  c #B00F23",
"P  c #BE1429",
"I  c #812B37",
"U  c #8C2C3B",
"Y  c #932534",
"T  c #962B3B",
"R  c #B32034",
"E  c #C40116",
"W  c #CB0016",
"Q  c #C50018",
"!  c #CC0119",
"~  c #D30016",
"^  c #D3001A",
"/  c #DC001B",
"(  c #E40015",
")  c #EB0017",
"_  c #E3001C",
"`  c #EB001D",
"'  c #F3001D",
"]  c #FF001F",
"[  c #D40822",
"{  c #C31128",
"}  c #FF0020",
"|  c #834753",
" . c #9D4151",
".. c #87616D",
"X. c #896A75",
"o. c #81747E",
"O. c #707B84",
"+. c #7A7B84",
"@. c #877983",
"#. c #748490",
"$. c #718F9A",
"%. c #799AA5",
"&. c #789FAA",
"*. c #7EA2AD",
"=. c #918F9A",
"-. c #95909A",
";. c #A48C98",
":. c #8E9CA4",
">. c #899EAB",
",. c #83A5B1",
"<. c #81A9B5",
"1. c #94A8B2",
"2. c #A5A1AC",
"3. c #97B7C4",
"4. c #9AB8C4",
"5. c #92BCCA",
"6. c #9ABCCB",
"7. c #A5BFCB",
"8. c #9FC4CF",
"9. c #9CC5D3",
"0. c #9FC9D7",
"q. c #A9C2CE",
"w. c #A6C7D3",
"e. c #A0CBDA",
"r. c #ACC4D1",
"t. c #B0CDDB",
"y. c #ADD8E6",
"u. c #B4DBE7",
"i. c #BDDBE7",
"p. c #B9DEEB",
"a. c #B4DCEB",
"s. c #B1E0EF",
"d. c #BFE3EF",
"f. c #BBE3F3",
"g. c #BEECFC",
"h. c #C2E3EF",
"j. c #C2E7F6",
"k. c #C3E8F7",
"l. c #C4EBFA",
"z. c #CBEDFB",
"x. c None",
/* pixels */
"x.x.x.x.x.x.x.x.x.x.x.x.x.x.x.x.x.x.x.x.x.x.x.x.x.x.x.x.x.x.x.x.x.x.x.x.x.x.x.x.x.x.x.x.x.x.x.x.x.x.x.x.x.x.x.x.x.x.x.x.x.x.x.x.",
"x.x.x.x.x.x.x.x.x.x.x.x.x.x.x.x.x.x.x.x.x.x.x.x.x.x.x.x.x.x.x.x.x.x.x.x.x.x.x.x.x.x.x.x.x.x.x.x.x.x.x.x.x.x.x.x.x.x.x.x.x.x.x.x.",
"x.x.x.x.x.x.x.x.x.x.x.x.x.x.x.x.x.x.x.x.x.x.x.x.x.x.x.x.x.x.x.# o @ : & * m : = % x.x.x.x.x.x.x.x.x.x.x.x.x.x.x.x.x.x.x.x.x.x.x.",
"x.x.x.x.x.x.x.x.x.x.x.x.x.x.x.x.x.x.x.x.x.x.x.x.x.x.O $ - m m A / / / ' ' ` ] / & x.x.x.x.x.x.x.x.x.x.x.x.x.x.x.x.x.x.x.x.x.x.x.",
"x.x.x.x.x.x.x.x.x.x.x.x.x.x.x.x.x.x.x.x.x.x.x.* = v Q ` ` ' } } ] } } ] } ] ] V # x.x.x.x.x.x.x.x.x.x.x.x.x.x.x.x.x.x.x.x.x.x.x.",
"x.x.x.x.x.x.x.x.x.x.x.x.x.x.x.x.x.x.x.x.- : n ^ ' ] ] ] ] } ] ] ] ] ] ] } } ` c m m - x.x.x.x.x.x.x.x.x.x.x.x.x.x.x.x.x.x.x.x.x.",
"x.x.x.x.x.x.x.x.x.x.x.x.x.x.x.x.x.% - n ! ' } } ] ] ] ] ] ] ] ] ] ] ] ] ] ] A z ' ' Q - X x.x.x.x.x.x.x.x.x.x.x.x.x.x.x.x.x.x.x.",
"x.x.x.x.x.x.x.x.x.x.x.x.x.x.x.+ = B ` } } ] ] ] ] ] ] ] ] ] ] ] ] ] ] ] } ` > S } ] } / : x.x.x.x.x.x.x.x.x.x.x.x.x.x.x.x.x.x.x.",
"x.x.x.x.x.x.x.x.x.x.x.x.x.o ; S ] ] ] ] ] ] ] ] ] ] ] ] ] ] ] ] ] ] ] ] } E v _ } } } } ` n + x.x.x.x.x.x.x.x.x.x.x.x.x.x.x.x.x.",
"x.x.x.x.x.x.x.x.x.x.x.x.m A ` } ] ] ] ] ] ] ] ] ] ] ] ] ] ] ] ] ] ] ] ] } m V } } } ] ] ] } n @ x.x.x.x.x.x.x.x.x.x.x.x.x.x.x.x.",
"x.x.x.x.x.x.x.x.x.O * m / } } ] ] ] ] ] ] ] ] ] ] ] ] ] ] ] ] ] ] ] ] ] / c / ] ] ] ] ] ] } ` v + x.x.x.x.x.x.x.x.x.x.x.x.x.x.x.",
"x.x.x.x.x.x.x.x.# : _ } } ] ] ] ] ] ] ] ] ] ] ] ] ] ] ] ] ] ] ] ] ] ] ] V V ' ] ] ] ] ] ] ] ] ` > x.x.x.x.x.x.x.x.x.x.x.x.x.x.x.",
"x.x.x.x.x.x.x.= B _ ] ] ] ] ] ] ] ] ] ] ] ] ] ] } ] ] ] ] ] ] ] ] ] } / n ^ } ] ] ] ] ] ] ] ] } E x.x.x.x.x.x.x.x.x.x.x.x.x.x.x.",
"x.x.x.x.x.o ; ! } } ] ] ] ] ] ] ] ] ] ] ] ] ] } } } ] } } } } } ] } } A m ' } ] ] ] ] ] ] ] ] ] ' B + x.x.x.x.x.x.x.x.x.x.x.x.x.",
"x.x.x.x.- m ` ] ] ] ] ] ] ] ] ] ] ] ] ] ] ] ] ' _ ! ! V m S F _ ' } ' c Q } ] ] ] ] ] ] ] ] ] ] } ' = x.x.x.x.x.x.x.x.x.x.x.x.x.",
"x.x.x.o m } } } ] ] ] ] ] ] ] ] ] ] ] ] ] ] / S B c v B V x v 1 B E B v ` } ] ] ] ] ] ] ] ] ] ] } } B * x.x.x.x.x.x.x.x.x.x.x.x.",
"x.x.x.o * m _ ] } ] ] ] ] ] ] ] ] ] } } ] Q n v D _ ] ] ' ] ` / V > $ v ] ] ] ] ] ] ] ] ] ] ] ] } ] ` ; x.x.x.x.x.x.x.x.x.x.x.x.",
"x.x.x.x.. @ > B / ' } ] ] ] ] ] ] ] } ' V c Q ] } } ] ] ] ] ] ] ] ^ # - ^ ] ] ] ] ] ] ] ] ] ] ] ] ] } c x.x.x.x.x.x.x.x.x.x.x.x.",
"x.x.x.x.# B ^ n > B ^ ' ] } } ] ] ] ' V c Q ] ] ] ] ] ] ] ] ] ] ] ' n , x Q ] ] ] ] ] ] ] ] ] ] ] ] } F = x.x.x.x.x.x.x.x.x.x.x.",
"x.x.x.x.# / } ' ^ n c v ! ' } ] ] } ^ v / ] ] ] ] ] ] ] ] ] ] ] ] ' F B B 1 ' ] ] ] ] ] ] ] ] ] ] ] ] ' ; x.x.x.x.x.x.x.x.x.x.x.",
"x.x.x.x.c ` ] ] ] ' / V > m ! ' } ' > V ' ] ] ] ] ] ] ] ] ] ] ] ] } Q Q _ n A ] } ] ] ] ] ] ] ] ] ] ] } v x.x.x.x.x.x.x.x.x.x.x.",
"x.x.x.x.> ] ] ] ] ] } ] / V z v E V n ` ] ] ] ] ] ] ] ] ] ] ] ] } } / V ` ~ : ` ] ] ] ] ] ] ] ] ] ] ] ] E @ x.x.x.x.x.x.x.x.x.x.",
"x.x.x.X B ] ] ] ] ] ] ] ] ] _ V : * C } ] ] ] ] ] ] ] ] ] ] ] ] } } } 3 ` ' ; Q ' ] ] ] ] ] ] ] ] ] ] ] _ # x.x.x.x.x.x.x.x.x.x.",
"x.x.x.+ A } ] ] ] ] ] ] ] ] ] ] ^ % n ` ] ] ] ] ] ] ] ] ] ] ] ] } } ' m / ] z n ] ] ] ] ] ] ] ] ] ] ] ] ` & x.x.x.x.x.x.x.x.x.x.",
"x.x.x.+ E } } ] ] ] ] ] ] ] ] } ^ : v F ] ] ] ] ] ] ] ] ] ] ] ] } } ' D F { p < ' ] ] ] ] ] ] ] ] ] ] ] ` v x.x.x.x.x.x.x.x.x.x.",
"x.x.x.+ / } } ] ] ] ] ] ] ] ] ] ^ ; S Z ' ] ] ] ] ] ] ] ] ] ] ] ] ] ' z 3 f *.0 _ ] ] ] ] ] ] ] ] ] ] ] } - x.x.x.x.x.x.x.x.x.x.",
"x.x.x.- Q } ] ] ] ] ] ] ] ] ] ] F v ! D ^ ] ] ] ] ] ] ] ] ] ] ] ] ] ] 6 O.y.5.q ( ] ] ] ] ] ] ] ] ] ] } ' - x.x.x.x.x.x.x.x.x.x.",
"x.x.x.& ! } ] ] ] ] ] ] ] ] ] } E v / / K ' ] ] ] ] ] ] ] ] ] ] ] ] ` U w.z.4.4 ' ] ] ] ] ] ] ] ] ] ] } ` c x.x.x.x.x.x.x.x.x.x.",
"x.x.x.+ ^ ] ] ] ] ] ] ] } ] ] ] ` ; / ] Z ^ ' ] ] ] ] ] ] ] ] ] ] ] _ s i.z.$.H ' ] ] ] ] ] ] ] ] ] ] ] ' * x.x.x.x.x.x.x.x.x.x.",
"x.x.x.% V ] ] ] ] ] ] ] ] ] ] ] } c E ] ^ F ! ] ] ] ] ] ] ] ] ] ] ] D @.h.s.k N ] ] ] ] ] ] ] ] ] ] ] } / ; x.x.x.x.x.x.x.x.x.x.",
"x.x.x.x.n } ] ] ] ] ] ] ] ] ] ] } S > ~ [ M ; _ ] ] ] ] ] ] ] ] ] ) Y 1.z.9.9 ~ } ] ] ] ] ] ] ] ] ] ] } ^ % x.x.x.x.x.x.x.x.x.x.",
"x.x.x.x.v ' ] ] ] ] ] ] ] ] ] ] ] ` - r d o.l T / ] ] ] ] ] ] ] ' L o.d.f.g z ' ] ] ] ] ] ] ] ] ] ] ] ] A + x.x.x.x.x.x.x.x.x.x.",
"x.x.x.  * _ ] ] ] ] ] ] ] ] ] ] ] ] N a 5.g.u.2. .! ' ] ] } ' ( G ..t.k.,.7 W ] ] ] ] ] ] ] ] ] ] ] ] } v x.x.x.x.x.x.x.x.x.x.x.",
"x.x.x.x.@ _ } } ] ] ] ] ] ] ] ] ] ] ` K u e.k.f.q.X.Y P W ^ R | +.w.l.6.i A ] ] ] ] ] ] ] ] ] ] ] ] } ' =   x.x.x.x.x.x.x.x.x.x.",
"x.x.x.x.O A ' } ] ] ] ] ] ] ] ] ] ] ] ' c h 8.s.l.d.q.=.;.-.:.r.k.s.<.w x ) ] ] ] ] ] ] ] ] ] ] ] ] } / + x.x.x.x.x.x.x.x.x.x.x.",
"x.x.x.x.x.; ' ] ] ] ] ] ] ] ] ] ] ] ] ] _ M p $.9.f.z.l.f.l.l.s.w.#.q A ' ] ] ] ] ] ] ] ] ] ] ] ] ] } m o x.x.x.x.x.x.x.x.x.x.x.",
"x.x.x.x.x.@ / ] ] ] ] ] ] ] ] ] ] ] ] ] ] ' ~ b e l %.3.,.,.>.j 8 2 W ' ] ] ] ] ] ] ] ] ] ] ] ] ] } _ : # x.x.x.x.x.x.x.x.x.x.x.",
"x.x.x.x.x.X v ` } ] ] ] ] ] ] ] ] ] ] ] ] ] ] ' W C M 5 I J c V _ ] ] ] ] ] ] ] ] ] ] ] ] ] ] ] ] ] A > # x.x.x.x.x.x.x.x.x.x.x.",
"x.x.x.x.x.x.x.S } ] ] ] ] ] ] ] ] ] ] ] ] ] ] ] ] ] ' ] ) ) ] } ] ] ] ] ] ] ] ] ] ] ] ] ] ] ] ] } _ c B : x.x.x.x.x.x.x.x.x.x.x.",
"x.x.x.x.x.x.x.: ` ] ] ] ] ] ] ] ] ] ] ] ] ] ] ] ] ] ] ] } ] ] ] ] ] ] ] ] ] ] ] ] ] ] ] ] ] ] ] ' B B ^ & x.x.x.x.x.x.x.x.x.x.x.",
"x.x.x.x.x.x.x.# n ' ] ] ] ] ] ] ] ] ] ] ] ] ] ] ] ] ] ] ] ] ] ] ] ] ] ] ] ] ] ] ] ] ] ] ] ] } ] ^ v _ / & x.x.x.x.x.x.x.x.x.x.x.",
"x.x.x.x.x.x.x.x.# F ] ] ] ] ] ] ] ] ] ] ] ] ] ] ] ] ] ] ] ] ] ] ] ] ] ] ] ] ] ] ] ] ] ] ] ] ] / c S } E x.x.x.x.x.x.x.x.x.x.x.x.",
"x.x.x.x.x.x.x.x.x.; ^ ] ] ] ] ] ] ] ] ] ] ] ] ] ] ] ] ] ] ] ] ] ] ] ] ] ] ] ] ] ] ] ] ] ] ] _ v B ' } Q + x.x.x.x.x.x.x.x.x.x.x.",
"x.x.x.x.x.x.x.x.x.x.* Q } } ] ] ] ] ] ] ] ] ] ] ] ] ] ] ] ] ] ] ] ] ] ] ] ] ] ] ] ] ] ] } ' V V } } } S O x.x.x.x.x.x.x.x.x.x.x.",
"x.x.x.x.x.x.x.x.x.x.x.- ^ ] ] ] ] ] ] ] ] ] ] ] ] ] ] ] ] ] ] ] ] ] ] ] ] ] ] ] ] ] ] ] ^ c m _ } } } V x.x.x.x.x.x.x.x.x.x.x.x.",
"x.x.x.x.x.x.x.x.x.x.x.X : S ] } ] ] ] ] ] ] ] ] ] ] ] ] ] ] ] ] ] ] ] ] ] ] ] ] ] ] } _ m V ` } } ' } S O x.x.x.x.x.x.x.x.x.x.x.",
"x.x.x.x.x.x.x.x.x.x.x.x.x.@ B ' } ] ] ] ] ] ] ] ] ] ] ] ] ] ] ] ] ] ] ] ] ] ] ] ] ` A z B ` } ] ] ] } B x.x.x.x.x.x.x.x.x.x.x.x.",
"x.x.x.x.x.x.x.x.x.x.x.x.x.x.O : Q ' ] ] ] ] ] ] ] ] ] ] ] ] ] ] ] ] ] ] ] ] ] ] / B m W ] } ] ] ] ] } n x.x.x.x.x.x.x.x.x.x.x.x.",
"x.x.x.x.x.x.x.x.x.x.x.x.x.x.x.. O 1 Q ' ] } } ] ] ] ] ] ] ] ] ] ] ] ] ] } ] ^ v @ O V ] ] ] ] ] ] ] ' S x.x.x.x.x.x.x.x.x.x.x.x.",
"x.x.x.x.x.x.x.x.x.x.x.x.x.x.x.x.X = : v F ^ ` ] ] } ] } } ] ] } ' ] ] _ V : * x.x.x.z ] ] ] ] ] ] ] } c x.x.x.x.x.x.x.x.x.x.x.x.",
"x.x.x.x.x.x.x.x.x.x.x.x.x.x.x.x.x.c n A c : > c A A ^ ^ ^ / Q V A n = & & x.x.x.x.x.& ' ] ] ] ] ] } } : . x.x.x.x.x.x.x.x.x.x.x.",
"x.x.x.x.x.x.x.x.x.x.x.x.x.x.x.x.x.x.& S ' / A B : z - : 1 = : c #   x.x.x.x.x.x.x.x.# S ] ] ] ] ] } ' 1 x.x.x.x.x.x.x.x.x.x.x.x.",
"x.x.x.x.x.x.x.x.x.x.x.x.x.x.x.x.x.x.x.- S ] ] ' ' ` ` / ^ ` _ / n x.x.x.x.x.x.x.x.x.x.: ] ] ] ] ] ] } = x.x.x.x.x.x.x.x.x.x.x.x.",
"x.x.x.x.x.x.x.x.x.x.x.x.x.x.x.x.x.x.x.x.% Q } ] ] ] ] } } ] ] } F x.x.x.x.x.x.x.x.x.x.& _ ] ] ] ] ] ` : x.x.x.x.x.x.x.x.x.x.x.x.",
"x.x.x.x.x.x.x.x.x.x.x.x.x.x.x.x.x.x.x.x.x.= / ] ] ] ] ] ] ] ] } _ v x.x.x.x.x.x.x.x.x.# B ] } ] ] ] _ * x.x.x.x.x.x.x.x.x.x.x.x.",
"x.x.x.x.x.x.x.x.x.x.x.x.x.x.x.x.x.x.x.x.x.. : Q } ] ] ] ] ] ] ] } B x.x.x.x.x.x.x.x.x.x.- ] ] ] ] } _ & x.x.x.x.x.x.x.x.x.x.x.x.",
"x.x.x.x.x.x.x.x.x.x.x.x.x.x.x.x.x.x.x.x.x.x.x.* / } ] ] ] ] ] ] } Q v x.x.x.x.x.x.x.x.x.% / } } } ` V - x.x.x.x.x.x.x.x.x.x.x.x.",
"x.x.x.x.x.x.x.x.x.x.x.x.x.x.x.x.x.x.x.x.x.x.x.x.v ^ } } ] ] ] ] } ` n x.x.x.x.x.x.x.x.x.# v ' / A ; +   x.x.x.x.x.x.x.x.x.x.x.x.",
"x.x.x.x.x.x.x.x.x.x.x.x.x.x.x.x.x.x.x.x.x.x.x.x.x.- _ } ] ] ] ] } } B x.x.x.x.x.x.x.x.x.x.% > # .   x.x.x.x.x.x.x.x.x.x.x.x.x.x.",
"x.x.x.x.x.x.x.x.x.x.x.x.x.x.x.x.x.x.x.x.x.x.x.x.x.. v ' ] ] } ] } } ^ v x.x.x.x.x.x.x.x.x.    x.x.x.x.x.x.x.x.x.x.x.x.x.x.x.x.x.",
"x.x.x.x.x.x.x.x.x.x.x.x.x.x.x.x.x.x.x.x.x.x.x.x.x.x.% c _ } } ] } } } n x.x.x.x.x.x.x.x.x.x.x.x.x.x.x.x.x.x.x.x.x.x.x.x.x.x.x.x.",
"x.x.x.x.x.x.x.x.x.x.x.x.x.x.x.x.x.x.x.x.x.x.x.x.x.x.x.x.v } } ] } } } V x.x.x.x.x.x.x.x.x.x.x.x.x.x.x.x.x.x.x.x.x.x.x.x.x.x.x.x.",
"x.x.x.x.x.x.x.x.x.x.x.x.x.x.x.x.x.x.x.x.x.x.x.x.x.x.x.x.@ A ` } ' ' _ v @ x.x.x.x.x.x.x.x.x.x.x.x.x.x.x.x.x.x.x.x.x.x.x.x.x.x.x.",
"x.x.x.x.x.x.x.x.x.x.x.x.x.x.x.x.x.x.x.x.x.x.x.x.x.x.x.x.x.x.c / V ; @ o x.x.x.x.x.x.x.x.x.x.x.x.x.x.x.x.x.x.x.x.x.x.x.x.x.x.x.x."
};
