/* XPM */
static char *_5[] = {
/* columns rows colors chars-per-pixel */
"64 64 139 2 ",
"   c #030000",
".  c #0B0001",
"X  c #120002",
"o  c #1C0003",
"O  c #230004",
"+  c #2B0005",
"@  c #340006",
"#  c #3B0007",
"$  c #3F0008",
"%  c #430008",
"&  c #4B0009",
"*  c #55000A",
"=  c #5C000B",
"-  c #55111B",
";  c #63000C",
":  c #6C000D",
">  c #74000E",
",  c #7C000F",
"<  c #700512",
"1  c #7D0110",
"2  c #700D1B",
"3  c #7D0D1B",
"4  c #60101C",
"5  c #591922",
"6  c #6B1822",
"7  c #771422",
"8  c #5C242D",
"9  c #5A2C36",
"0  c #7F202F",
"q  c #682733",
"w  c #722936",
"e  c #742D3A",
"r  c #5A3640",
"t  c #513840",
"y  c #623E4A",
"u  c #713F4C",
"i  c #50565E",
"p  c #74434F",
"a  c #634F59",
"s  c #535D66",
"d  c #645861",
"f  c #5F656C",
"g  c #75646F",
"h  c #686F7B",
"j  c #726570",
"k  c #77727B",
"l  c #80000F",
"z  c #840010",
"x  c #8B0011",
"c  c #830E1B",
"v  c #940113",
"b  c #9C0013",
"n  c #990618",
"m  c #9A0B1C",
"M  c #A6000E",
"N  c #A30014",
"B  c #AB0015",
"V  c #AA061A",
"C  c #A4081A",
"Z  c #B40016",
"A  c #BB0017",
"S  c #BC0319",
"D  c #8F1423",
"F  c #8D1A2A",
"G  c #921D2D",
"H  c #B20E22",
"J  c #A21D2F",
"K  c #A81E32",
"L  c #932736",
"P  c #9C2D3D",
"I  c #A42334",
"U  c #C30016",
"Y  c #CD0015",
"T  c #C40118",
"R  c #CB0019",
"E  c #C4081C",
"W  c #D10012",
"Q  c #D4011A",
"!  c #DB001B",
"~  c #E50016",
"^  c #EC0014",
"/  c #E3001C",
"(  c #EC001C",
")  c #F4001E",
"_  c #FF001F",
"`  c #D10822",
"'  c #FF0020",
"]  c #803743",
"[  c #8A3F4C",
"{  c #B33B4E",
"}  c #8A626E",
"|  c #866D76",
" . c #966F7B",
".. c #6F7D88",
"X. c #8B7985",
"o. c #907580",
"O. c #76828D",
"+. c #768C98",
"@. c #75919C",
"#. c #7C93A0",
"$. c #7C9EAA",
"%. c #79A2AD",
"&. c #7DA3B0",
"*. c #8D919D",
"=. c #8497A4",
"-. c #8E9FA9",
";. c #82A2AB",
":. c #85A7B0",
">. c #8CAEBB",
",. c #91ACB9",
"<. c #9AB2BC",
"1. c #A0B1BC",
"2. c #8EB5C2",
"3. c #92B7C4",
"4. c #93B9C6",
"5. c #9DBAC5",
"6. c #A6BBC7",
"7. c #9CCAD8",
"8. c #AFC0CC",
"9. c #A4C7D3",
"0. c #A9C6D2",
"q. c #AECBD6",
"w. c #A1CCDC",
"e. c #AAD6E5",
"r. c #B5DBEB",
"t. c #BCDFED",
"y. c #B2D3E0",
"u. c #B4E0EF",
"i. c #BFE2EE",
"p. c #B7E3F2",
"a. c #BEE4F2",
"s. c #BCEAFB",
"d. c #C0DEEB",
"f. c #C1E6F6",
"g. c #C3E8F6",
"h. c #CAEAF7",
"j. c #C2EBFB",
"k. c #CBEDFB",
"l. c None",
/* pixels */
"l.l.l.l.l.l.l.l.l.l.l.l.l.l.l.l.l.l.l.l.l.l.l.l.l.l.l.l.l.l.l.l.l.l.l.l.l.l.l.l.l.l.l.l.l.l.l.l.l.l.l.l.l.l.l.l.l.l.l.l.l.l.l.l.",
"l.l.l.l.l.l.l.l.l.l.l.l.l.l.l.l.l.l.l.l.l.l.l.l.l.l.l.l.l.l.l.l.l.l.l.l.l.l.l.l.l.l.l.l.l.l.l.l.l.l.l.l.l.l.l.l.l.l.l.l.l.l.l.l.",
"l.l.l.l.l.l.l.l.l.l.l.l.l.l.l.l.l.l.l.l.l.l.l.l.l.l.l.l.l.l.l.l.l.l.l.l.l.l.l.l.l.l.l.l.l.l.l.l.l.l.l.l.l.l.l.l.l.l.l.l.l.l.l.l.",
"l.l.l.l.l.l.l.l.l.l.l.l.l.l.l.l.l.l.l.l.l.l.l.l.l.l.l.l.l.l.l.l.l.l.l.l.l.l.l.l.l.l.l.l.l.l.l.l.l.l.l.l.l.l.l.l.l.l.l.l.l.l.l.l.",
"l.l.l.l.l.l.l.l.l.l.l.l.l.l.l.l.l.l.l.l.l.l.l.l.l.l.l.l.l.l.l.l.l.l.l.l.l.l.l.l.l.l.l.l.l.l.l.l.l.l.l.l.l.l.l.l.l.l.l.l.l.l.l.l.",
"l.l.l.l.l.l.l.l.l.l.l.l.l.l.l.l.l.l.l.l.l.l.l.l.l.l.l.l.l.l.l.l.l.l.l.l.l.l.l.l.l.l.l.l.l.l.l.l.l.l.l.l.l.l.l.l.l.l.l.l.l.l.l.l.",
"l.l.l.l.l.l.l.l.l.l.l.l.l.l.l.l.l.l.l.l.l.l.l.l.l.l.l.l.l.l.l.l.l.l.l.l.l.l.l.l.l.l.l.l.l.l.l.l.l.l.l.l.l.l.l.l.l.l.l.l.l.l.l.l.",
"l.l.l.l.l.l.l.l.l.l.l.l.l.l.l.l.l.l.l.l.l.l.l.l.l.l.l.l.l.l.l.l.l.l.l.l.l.l.l.l.l.l.l.l.l.l.l.l.l.l.l.l.l.l.l.l.l.l.l.l.l.l.l.l.",
"l.l.l.l.l.l.l.l.l.l.l.l.l.l.l.l.l.l.l.l.l.l.l.l.l.l.l.l.l.l.l.l.l.l.l.l.l.l.l.l.l.l.l.l.l.l.l.l.l.o l.O l.X l.l.l.l.l.l.l.l.l.l.",
"l.l.l.l.l.l.l.l.l.l.l.l.l.l.l.l.l.l.l.l.l.l.l.l.l.l.l.l.l.l.l.l.l.l.l.l.l.l.l.  l.O l.$ ; 1 = z z B N T T >   l.l.l.l.l.l.l.l.l.",
"l.l.l.l.l.l.l.l.l.l.l.l.l.l.l.l.l.l.l.l.l.l.l.l.l.l.l.l.l.  l.  l.@ # ; % b : z x Z T R ( / ) ) ' _ ' ' ' R @ l.l.l.l.l.l.l.l.l.",
"l.l.l.l.l.l.l.l.l.l.l.l.l.l.l.l.l.l.l.l.l.l.@ ; ; > z > : * & % @ * b Z ! ( ) ) ' ' _ ' ' ' ' ' _ _ _ _ ' ) b   l.l.l.l.l.l.l.l.",
"l.l.l.l.l.l.l.l.l.l.l.l.l.l.l.l.l.l.@ * b B ! / ) _ ) _ ) ) ) / S N x x N / _ _ ' ' _ _ _ _ _ _ _ _ _ _ _ ' ! &   l.l.l.l.l.l.l.",
"l.l.l.l.l.l.l.l.l.l.l.l.l.l.l.l.= , T ) ) ' _ ' ' _ _ _ _ _ _ _ _ _ ) R b v b R ' _ _ _ _ _ _ _ _ _ _ _ _ _ _ v   l.l.l.l.l.l.l.",
"l.l.l.l.l.l.l.l.l.l.l.l.l.l.= > T ' _ _ ' _ _ _ _ _ _ _ _ _ _ _ _ _ _ _ _ / N x Z ! ' ' _ _ _ _ _ _ ' _ _ ( x % l.l.l.l.l.l.l.l.",
"l.l.l.l.l.l.l.l.l.l.l.l.l.> B _ ' _ _ _ _ _ _ _ _ _ _ _ _ _ _ _ _ _ _ _ _ _ ) Q N v ! ) ' _ _ _ _ _ _ ) N & # l.l.l.l.l.l.l.l.l.",
"l.l.l.l.l.l.l.l.l.l.l.& z ( ' ' _ _ _ _ _ _ _ _ _ _ _ _ _ _ _ _ _ _ _ _ _ _ _ ' ) Z x B _ _ _ _ _ _ A ; # l.l.l.l.l.l.l.l.l.l.l.",
"l.l.l.l.l.l.l.l.l.l.% A ' ' _ _ _ _ _ _ _ _ _ _ _ _ _ _ _ _ _ _ _ _ _ _ _ _ _ _ _ _ U x Z ( _ _ ! > % l.l.l.l.l.l.l.l.l.l.l.l.l.",
"l.l.l.l.l.l.l.l.l.N T _ _ _ _ _ _ _ _ _ _ _ _ _ _ _ _ _ _ _ _ _ _ _ _ _ _ _ _ _ _ _ _ / x Z ! v & l.l.l.l.l.l.l.l.l.l.l.l.l.l.l.",
"l.l.l.l.l.l.l.l.* A _ ' _ _ _ _ _ _ _ _ _ _ _ _ _ _ _ _ _ _ _ _ _ _ _ _ _ _ _ _ _ _ _ _ Q v # # l.l.l.l.l.l.l.l.l.l.l.l.l.l.l.l.",
"l.l.l.l.l.l.l.# T ' _ _ _ _ _ _ _ _ _ _ _ _ _ _ _ _ _ _ _ _ _ _ _ _ _ _ _ _ _ _ _ _ _ _ _ Q # l.l.l.l.l.l.l.l.l.l.l.l.l.l.l.l.l.",
"l.l.l.l.l.l.# b ) _ _ _ _ _ _ _ _ _ _ _ _ _ _ _ _ _ _ _ _ _ _ _ _ _ _ _ _ _ _ _ _ _ _ _ _ _ A # l.l.l.l.l.l.l.l.l.l.l.l.l.l.l.l.",
"l.l.l.l.l.l.> _ _ _ _ _ _ _ _ _ _ _ _ _ _ _ _ _ _ _ _ _ _ _ _ _ _ _ _ _ _ _ _ _ _ _ _ _ _ _ _ 1 l.l.l.l.l.l.l.l.l.l.l.l.1 + l.l.",
"l.l.l.l.l.$ U _ _ _ _ _ _ _ _ _ _ _ _ _ _ _ _ _ _ _ _ _ _ _ _ _ _ _ _ _ _ _ _ _ _ _ _ _ _ _ _ ( ; l.l.l.l.l.l.l.l.l.l.v Z N + l.",
"l.l.l.l.O x _ _ _ _ _ _ _ _ _ _ _ _ _ _ _ _ _ _ ( ( ~ ~ ( _ _ _ _ _ _ _ _ _ _ _ _ _ _ _ _ _ _ ' N % l.l.l.l.l.l.l.v B ( ' ( = l.",
"l.l.l.l.% Q _ _ _ _ _ _ _ _ _ _ _ _ _ ' _ _ ! n F e 8 q 6 3 M Y _ _ _ _ _ _ _ _ _ _ _ _ _ _ _ _ ) * l.l.l.l.l.x b Q ' ' ' ' T + ",
"l.l.l.l.x _ _ _ _ _ _ _ _ _ _ _ _ _ _ _ / v * 9 $.3.9.4.3.@.i 8 m W _ _ _ _ _ _ _ _ _ _ _ _ _ _ ' N o l.l.l.b T ' ' _ _ ' ' ) > ",
"l.l.l.l.R ' ' ' _ _ _ _ _ _ _ _ _ _ _ T : x E K g e.h.k.k.k.r.4.h - U ) _ _ _ _ _ _ _ _ _ _ _ _ ' / @ % b Z ) ' ' _ _ _ _ ' ' b ",
"l.@ # % x T ! ) ' ' ' ' ' _ _ _ _ ) b , R _ _ ( 3 g ;.6.<.q.d.h.u.@.p N _ _ _ _ _ _ _ _ _ _ _ _ ' ( x ; / ' ' _ _ _ _ _ _ _ R = ",
"l.& Q A N , l x N R Q ' _ _ ' ' ' R v Y ( ! V n n < G D L ] } ;.u.h.%.9 U _ _ _ _ _ _ _ _ _ _ _ ' ' b v ( ' _ _ _ _ _ _ ' ) 1 l.",
"l.& / ' _ ( Q T N x x b B U ! _ R > z A S v V ! Q _ ) ) ) ) W F X.0.p.=.4 ) _ _ _ _ _ _ _ _ _ _ _ ' Q * / _ _ _ _ _ _ ' ( b $ l.",
"l.l.T ' _ _ _ ' _ ) / Q b x z 1 * # x S R ) ' ' _ _ _ _ _ _ _ ( V k d.e.a B _ _ _ _ _ _ _ _ _ _ _ _ ) , A ' _ _ _ _ ' ' A # l.l.",
"l.. N _ _ _ _ _ _ ' _ _ ' ) ~ B % b ! ) ' ' ' _ _ _ _ _ _ _ _ _ ^ { -.h.,.2 ) _ _ _ _ _ _ _ _ _ _ ' ) x B _ _ _ _ _ ' R : l.l.l.",
"l.l.; ' _ _ _ _ _ _ _ _ ' ' ' S 1 ( _ _ _ ' ' _ _ _ _ _ _ _ _ _ ) Q | d.7.p U _ _ _ _ _ _ _ _ _ _ _ ' z v ' _ _ _ ' ( ;   l.l.l.",
"l.l.> Q ' _ _ _ _ _ _ _ _ ' _ N B _ _ _ _ _ _ _ _ _ _ _ _ _ _ _ _ ^ { q.r.f E _ _ _ _ _ _ _ _ _ _ _ _ B z ) _ _ _ ( z + l.l.l.l.",
"l.l.O T _ _ _ _ _ _ _ _ _ _ _ b Z ' _ _ _ _ _ _ _ _ _ _ _ _ _ _ _ ) J 8.s.O.M _ _ _ _ _ _ _ _ _ _ _ _ b x ) _ ' ' B l.l.l.l.l.l.",
"l.l.. x _ _ _ _ _ _ _ _ _ _ ) z T _ _ _ _ _ _ _ _ _ _ _ _ _ _ _ _ ) P 5.g.+.V ) _ _ _ _ _ _ _ _ _ _ _ S , ) ' _ R * l.l.l.l.l.l.",
"l.l.l.= _ ' _ _ _ _ _ _ _ _ ) b B ' _ _ _ _ _ _ _ _ _ _ _ _ _ _ _ ) [ y.j...n _ _ _ _ _ _ _ _ _ _ _ _ N l _ ' ) : l.l.l.l.l.l.l.",
"l.l.l.> A ' _ _ _ _ _ _ _ _ _ v A _ _ _ _ _ _ _ _ _ _ _ _ _ _ _ _ W  .i.u.i Z _ _ _ _ _ _ _ _ _ _ _ _ N x _ ) x @ l.l.l.l.l.l.l.",
"l.l.l.l.N ) ' _ _ _ _ _ _ _ _ Z v ' _ _ _ _ _ _ _ _ _ _ _ _ _ _ ( I <.s.7.p Y _ _ _ _ _ _ _ _ _ _ _ _ v b _ Z + l.l.l.l.l.l.l.l.",
"l.l.l.l.* / ' _ _ _ _ _ _ _ _ / z ! ' _ ' _ _ _ _ _ _ _ _ _ _ _ S o.f.j.>.7 ' ' ' _ _ _ _ _ _ _ _ _ ) v B T & l.l.l.l.l.l.l.l.l.",
"l.l.l.l.O T _ _ _ _ _ _ _ _ ' ( N b ' _ _ _ _ _ _ _ _ _ _ _ _ E 5 :.g.w.s V ' ' ' _ _ _ _ _ _ _ _ _ ) z S x l.l.l.l.l.l.l.l.l.l.",
"l.l.l.l.l.; _ _ _ _ _ _ _ _ ' ' R v R ' _ _ _ _ _ _ _ ' _ ' ! Z c =.s.@.7 ^ _ _ _ _ _ _ _ _ _ _ _ ' Q : z @ l.l.l.l.l.l.l.l.l.l.",
"l.l.l.l.l.# A _ _ _ _ _ _ _ ' ' ( Z x ) _ _ _ _ _ _ _ ' _ ! V E ` d &.9 E _ _ _ _ _ _ _ _ _ _ _ _ _ b % & l.l.l.l.l.l.l.l.l.l.l.",
"l.l.l.l.l.l.: _ _ _ _ _ _ _ _ _ _ / b b ! ' _ _ _ _ _ ' S m Q _ ^ w 9 B ) _ _ _ _ _ _ _ _ _ _ _ ' ) :   l.l.l.l.l.l.l.l.l.l.l.l.",
"l.l.l.l.l.l.* Z ' _ _ _ _ _ _ _ _ _ ) v x U ( ' _ _ Q C Z ( _ ( B ; M _ _ _ _ _ _ _ _ _ _ _ _ _ _ / @ l.l.l.l.l.l.l.l.l.l.l.l.l.",
"l.l.l.l.l.l.l.> ) ' _ _ _ _ _ _ _ _ _ ( R l z S ! E n N S E Z > l ! _ _ _ _ _ _ _ _ _ _ _ _ _ _ _ x X l.l.l.l.l.l.l.l.l.l.l.l.l.",
"l.l.l.l.l.l.l.; N ' _ _ _ _ _ _ _ _ _ _ _ / B b 1 % & : 1 x l R _ _ _ _ _ _ _ _ _ _ _ _ _ _ _ ' / & l.l.l.l.l.l.l.l.l.l.l.l.l.l.",
"l.l.l.l.l.l.l.l.: / _ _ _ _ _ _ _ _ _ _ _ _ _ _ B > U R ! ! _ ' _ _ _ _ _ _ _ _ _ _ _ _ _ _ _ ) n l.l.l.l.l.l.l.l.l.l.l.l.l.l.l.",
"l.l.l.l.l.l.l.l.l.x _ _ _ _ _ _ _ _ _ _ _ _ ' _ N v _ _ _ _ _ _ _ _ _ _ _ _ _ _ _ _ _ _ _ _ _ A @ l.l.l.l.l.l.l.l.l.l.l.l.l.l.l.",
"l.l.l.l.l.l.l.l.l.& A _ _ _ _ _ _ _ _ _ _ _ _ ) , Z _ _ _ _ _ _ _ _ _ _ _ _ _ _ _ _ _ _ _ _ / , l.l.l.l.l.l.l.l.l.l.l.l.l.l.l.l.",
"l.l.l.l.l.l.l.l.l.l.* ) _ _ _ _ _ _ _ _ _ _ ' ! x ( _ _ _ _ _ _ _ _ _ _ _ _ _ _ _ _ _ _ ' ) , X l.l.l.l.l.l.l.l.l.l.l.l.l.l.l.l.",
"l.l.l.l.l.l.l.l.l.l.O z ) ' _ _ _ _ _ _ _ _ _ A b ) _ _ _ _ _ _ _ _ _ _ _ _ _ _ _ _ _ _ ) N l.l.l.l.l.l.l.l.l.l.l.l.l.l.l.l.l.l.",
"l.l.l.l.l.l.l.l.l.l.l.O Z ) ' _ _ _ _ _ _ ' ) v N _ _ _ _ _ _ _ _ _ _ _ _ _ _ _ _ _ _ _ N # l.l.l.l.l.l.l.l.l.l.l.l.l.l.l.l.l.l.",
"l.l.l.l.l.l.l.l.l.l.l.  & S ' _ _ _ _ _ _ _ ( > Q _ _ _ _ _ _ _ _ _ _ _ _ _ _ _ _ _ ( v % l.l.l.l.l.l.l.l.l.l.l.l.l.l.l.l.l.l.l.",
"l.l.l.l.l.l.l.l.l.l.l.l.l.v R ' _ _ _ _ _ ' R l ( _ _ _ _ _ _ _ _ _ _ _ _ _ _ _ _ / Z l.l.l.l.l.l.l.l.l.l.l.l.l.l.l.l.l.l.l.l.l.",
"l.l.l.l.l.l.l.l.l.l.l.l.l.l.: ) _ _ _ _ _ _ B v _ _ _ _ _ _ _ _ _ _ _ _ _ _ ' ) ! , O l.l.l.l.l.l.l.l.l.l.l.l.l.l.l.l.l.l.l.l.l.",
"l.l.l.l.l.l.l.l.l.l.l.l.l.l.@ > ! ' _ _ _ ) x Z _ _ _ _ _ _ _ _ _ _ _ ' ' ) ( N % o l.l.l.l.l.l.l.l.l.l.l.l.l.l.l.l.l.l.l.l.l.l.",
"l.l.l.l.l.l.l.l.l.l.l.l.l.l.l.X b ! _ _ ' / > Q _ _ _ _ ' ' ' ' ' _ ' ) Q N * O l.l.l.l.l.l.l.l.l.l.l.l.l.l.l.l.l.l.l.l.l.l.l.l.",
"l.l.l.l.l.l.l.l.l.l.l.l.l.l.l.l.l.: ) _ ' T x _ ' _ ' _ _ ' ' ' ( / N z &   l.l.l.l.l.l.l.l.l.l.l.l.l.l.l.l.l.l.l.l.l.l.l.l.l.l.",
"l.l.l.l.l.l.l.l.l.l.l.l.l.l.l.l.l.o z / ' v % B Z T A R A Z b z , # % l.l.l.l.l.l.l.l.l.l.l.l.l.l.l.l.l.l.l.l.l.l.l.l.l.l.l.l.l.",
"l.l.l.l.l.l.l.l.l.l.l.l.l.l.l.l.l.l.o x ! * . l.+ l.# + + O X l.l.l.l.l.l.l.l.l.l.l.l.l.l.l.l.l.l.l.l.l.l.l.l.l.l.l.l.l.l.l.l.l.",
"l.l.l.l.l.l.l.l.l.l.l.l.l.l.l.l.l.l.l.l.& # l.l.l.l.l.l.l.l.l.l.l.l.l.l.l.l.l.l.l.l.l.l.l.l.l.l.l.l.l.l.l.l.l.l.l.l.l.l.l.l.l.l.",
"l.l.l.l.l.l.l.l.l.l.l.l.l.l.l.l.l.l.l.l.    l.l.l.l.l.l.l.l.l.l.l.l.l.l.l.l.l.l.l.l.l.l.l.l.l.l.l.l.l.l.l.l.l.l.l.l.l.l.l.l.l.l."
};
