/* XPM */
static char *_52[] = {
/* columns rows colors chars-per-pixel */
"64 64 133 2 ",
"   c #020000",
".  c #0B0001",
"X  c #140002",
"o  c #1B0003",
"O  c #240004",
"+  c #2B0005",
"@  c #340006",
"#  c #3C0007",
"$  c #3B0108",
"%  c #440008",
"&  c #4C0009",
"*  c #54000A",
"=  c #5B000B",
"-  c #59131E",
";  c #64000C",
":  c #6B000D",
">  c #74000E",
",  c #7B000F",
"<  c #730614",
"1  c #7B0110",
"2  c #62131E",
"3  c #69101D",
"4  c #771220",
"5  c #721D28",
"6  c #572D36",
"7  c #74222F",
"8  c #662631",
"9  c #6E2835",
"0  c #732531",
"q  c #553841",
"w  c #7D3B47",
"e  c #783B49",
"r  c #584047",
"t  c #574A53",
"y  c #744955",
"u  c #784E59",
"i  c #78525D",
"p  c #5E5E67",
"a  c #635661",
"s  c #5D636C",
"d  c #6E646E",
"f  c #746C76",
"g  c #81000F",
"h  c #9D000F",
"j  c #840010",
"k  c #8C0111",
"l  c #840817",
"z  c #840C1B",
"x  c #930012",
"c  c #9C0013",
"v  c #910718",
"b  c #9E0719",
"n  c #9A0B1D",
"m  c #A5000F",
"M  c #A20014",
"N  c #AB0015",
"B  c #A90619",
"V  c #B40016",
"C  c #BB0016",
"Z  c #B4051A",
"A  c #BD0219",
"S  c #B8081D",
"D  c #871928",
"F  c #961929",
"G  c #B40E22",
"H  c #BB0D23",
"J  c #AC192C",
"K  c #BC1329",
"L  c #842230",
"P  c #922D3D",
"I  c #A62638",
"U  c #C40015",
"Y  c #CA0016",
"T  c #C40118",
"R  c #CB0019",
"E  c #D40017",
"W  c #DC0017",
"Q  c #D3001A",
"!  c #DC001B",
"~  c #ED0014",
"^  c #E3001B",
"/  c #EB001C",
"(  c #F4001D",
")  c #FF001F",
"_  c #C1162D",
"`  c #FF0020",
"'  c #A53747",
"]  c #844754",
"[  c #935864",
"{  c #936A76",
"}  c #667780",
"|  c #787581",
" . c #8B7F8B",
".. c #69848E",
"X. c #698590",
"o. c #6E8993",
"O. c #7C949F",
"+. c #7698A3",
"@. c #7B9DA9",
"#. c #7DA5B1",
"$. c #8E808A",
"%. c #848D96",
"&. c #9A919D",
"*. c #9096A1",
"=. c #8AA2AF",
"-. c #92A6B1",
";. c #99AEBA",
":. c #8DB3BF",
">. c #94B6C2",
",. c #95BCCA",
"<. c #A0B7C5",
"1. c #A5BAC4",
"2. c #A9B9C3",
"3. c #AAC7D3",
"4. c #A4CCD9",
"5. c #B1CDD9",
"6. c #A6D1DF",
"7. c #B2D1DC",
"8. c #ACD5E5",
"9. c #AEDDEC",
"0. c #B1D6E2",
"q. c #BBDAE6",
"w. c #B1DCEC",
"e. c #BBDBEA",
"r. c #B7E1F2",
"t. c #BCE4F3",
"y. c #BFE8F8",
"u. c #C3E7F5",
"i. c #C5E9F6",
"p. c #C8E9F6",
"a. c #C5ECFB",
"s. c #C9ECFB",
"d. c None",
/* pixels */
"d.d.d.d.d.d.d.d.d.d.d.d.d.d.d.d.d.d.d.d.d.d.d.d.d.d.d.d.d.d.d.d.d.d.d.d.d.d.d.d.d.d.d.d.d.d.d.d.d.d.d.d.d.d.d.d.d.d.d.d.d.d.d.d.",
"d.d.d.d.d.d.d.d.d.d.d.d.d.d.d.d.d.d.d.d.d.d.d.d.d.d.d.d.d.d.d.& ; + d.d.d.d.d.d.d.d.d.d.d.d.d.d.d.d.d.d.d.d.d.d.d.d.d.d.d.d.d.d.",
"d.d.d.d.d.d.d.d.d.d.d.d.d.d.d.d.d.d.d.d.d.d.d.d.d.d.  : & x A / R + d.d.d.d.d.d.d.d.d.d.d.d.d.d.d.d.d.d.d.d.d.d.d.d.d.d.d.d.d.d.",
"d.d.d.d.d.d.d.d.d.d.d.d.d.d.d.d.d.d.d.d.d.d.d.d.# % x C ( ) ) ` C & > * d.d.d.d.d.d.d.d.d.d.d.d.d.d.d.d.d.d.d.d.d.d.d.d.d.d.d.d.",
"d.d.d.d.d.d.d.d.d.d.d.d.d.d.d.d.d.d.d.d.d.. d.j V ( ( ` ` ` ` ) N x ^ C , & X d.d.d.d.d.d.d.d.d.d.d.d.d.d.d.d.d.d.d.d.d.d.d.d.d.",
"d.d.d.d.d.d.d.d.d.d.d.d.d.d.d.d.d.d.d.o @ k A / ` ` ) ) ) ) ` ( k V ` ` ) ! k * o d.d.d.d.d.d.d.d.d.d.d.d.d.d.d.d.d.d.d.d.d.d.d.",
"d.d.d.d.d.d.d.d.d.d.d.d.d.d.d.d.d.d.# > ! ( ` ) ) ) ) ) ) ) ` / , R ) ) ) ` ) ^ j % . d.d.d.d.d.d.d.d.d.d.d.d.d.d.d.d.d.d.d.d.d.",
"d.d.d.d.d.d.d.d.d.d.d.d.d.d.d.d.= ; V ) ) ) ) ) ) ) ) ) ) ) ` ^ j ^ ` ) ) ) ) ) ( T & d.d.d.d.d.d.d.d.d.d.d.d.d.d.d.d.d.d.d.d.d.",
"d.d.d.d.d.d.d.d.d.d.d.d.d.d.d.; c ( ` ) ) ) ) ) ) ) ) ) ) ) ) R k ( ` ) ) ) ) ) ` ` Q x d.d.d.d.d.d.d.d.d.d.d.d.d.d.d.d.d.d.d.d.",
"d.d.d.d.d.d.d.d.d.d.d.d.d.; , R ` ) ) ) ) ) ) ) ) ) ) ) ) ) ) C c ( ) ) ) ) ) ) ) ) ) ! j O d.d.d.d.d.d.d.d.d.d.d.d.d.d.d.d.d.d.",
"d.d.d.d.d.d.d.d.d.d.d.d.= c ( ` ) ) ) ) ) ) ) ) ) ) ) ) ) ) ) B N ) ) ) ) ) ) ) ) ) ) ) / > d.d.d.d.d.d.d.d.d.d.d.d.d.d.d.d.d.d.",
"d.d.d.d.d.d.d.d.d.d.d.& C ` ` ) ) ) ) ) ) ) ) ) ) ) ) ) ) ) ` M T ` ) ) ) ) ) ) ) ) ) ) ` / ; d.d.d.d.d.d.d.d.d.d.d.d.d.d.d.d.d.",
"d.d.d.d.d.d.d.d.d.o ; ^ ) ) ) ) ) ) ) ) ) ) ) ) ) ) ) ) ) ) / j ! ` ) ) ) ) ) ) ) ) ) ) ) ` T ; d.d.d.d.d.d.d.d.d.d.d.d.d.d.d.d.",
"d.d.d.d.d.d.d.d.o k ( ) ) ) ) ) ) ) ) ) ) ) ) ) ) ) ) ) ) ) Q j ^ ) ) ) ) ) ) ) ) ) ) ) ) ) ` x d.d.d.d.d.d.d.d.d.d.d.d.d.d.d.d.",
"d.d.d.d.d.d.d.d.c / ) ) ) ) ) ) ) ) ) ) ) ) ) ) ` ` ) ) ) ` R k ( ) ) ) ) ) ) ) ) ) ) ) ) ) ) ( > d.d.d.d.d.d.d.d.d.d.d.d.d.d.d.",
"d.d.d.d.d.d.> c ^ ` ) ) ) ) ) ) ) ) ) ` ` ) ) ( T R N C R Q c k ` ) ) ) ) ) ) ) ) ) ) ) ) ) ) ` T = d.d.d.d.d.d.d.d.d.d.d.d.d.d.",
"d.d.d.d.d.# c ` ` ) ) ) ) ) ) ) ) ) ) ` ( Q A 1 x j c k x > % ; Q ` ) ) ) ) ) ) ) ) ) ) ) ) ) ) ` , d.d.d.d.d.d.d.d.d.d.d.d.d.d.",
"d.d.d.d.O M ) ` ) ) ) ) ) ) ) ) ) ) ) ^ C k k ! ^ ( ) ) ( ! x $ : C ^ ) ) ) ) ) ) ) ) ) ) ) ) ) ) ^ # d.d.d.d.d.d.d.d.d.d.d.d.d.",
"d.d.d.d.c ^ ) ) ) ) ) ) ) ) ) ) ) ) ^ N x A ) ) ) ` ) ) ` ) ^ k j c j ) ) ) ) ) ) ) ) ) ) ) ) ) ` ( j   d.d.d.d.d.d.d.d.d.d.d.d.",
"d.d.o : ^ ` ) ) ) ) ) ) ) ) ) ) ) ( c k ^ ` ) ) ) ) ) ) ) ` ( A C Q x c ( ) ) ) ) ) ) ) ) ) ) ) ) ) V d.d.d.d.d.d.d.d.d.d.d.d.d.",
"d.. : / ` ) ) ) ) ) ) ) ) ) ) ) ( c x ( ` ) ) ) ) ) ) ) ) ) ` ! V ! / > V ( ) ) ) ) ) ) ) ) ) ) ) ` ! & d.d.d.d.d.d.d.d.d.d.d.d.",
"d.1 R ) ` ) ) ) ) ) ) ) ) ) ) ) ^ k R ) ) ) ) ) ) ) ) ) ) ` ` ` M A ) Q ; ^ ) ) ) ) ) ) ) ) ) ) ) ) ) ; d.d.d.d.d.d.d.d.d.d.d.d.",
"+ N ) ` ) ` ) ) ) ) ) ) ) ) ) ) x M ) ) ) ) ) ) ) ) ) ) ` ` ) ) ! v ( / < l ) ) ) ) ) ) ) ) ) ) ) ) ) M d.d.d.d.d.d.d.d.d.d.d.d.",
"O : j V R ! ( ) ) ) ) ) ) ) ) ^ , R ) ) ) ) ) ) ) ) ) ) ) ` ) ) ( B T K p 8 Q ` ) ) ) ) ) ) ) ) ) ) ` N O d.d.d.d.d.d.d.d.d.d.d.",
"d.d.O 1 > j k x V T ^ ( ) ) ) R x ( ` ) ) ) ) ) ) ) ) ) ) ) ) ) ( B , y ,.| Z ( ) ) ) ) ) ) ) ) ) ) ) R d.d.d.d.d.d.d.d.d.d.d.d.",
"d.d.: / / ! R c k k , k M N R c c ) ) ) ) ) ) ) ) ) ) ) ) ) ) ) ) Y 6 >.u.f b ) ) ) ) ) ) ) ) ) ) ) ) Q # d.d.d.d.d.d.d.d.d.d.d.",
"d.d.* ) ` ) ) ) ( ( ! T N x > & 1 ^ ) ) ) ) ) ) ) ) ) ) ) ) ) ) ) W i 7.s.%.v ( ) ) ) ) ) ) ) ) ) ) ` ! & d.d.d.d.d.d.d.d.d.d.d.",
"d.d.j / ) ) ) ) ` ) ) ) ) ( / k = B ( ) ) ) ) ) ) ) ) ) ) ) ) ) ) ^ w q.s.o.z ) ) ) ) ) ) ) ) ) ) ) ` ^ # d.d.d.d.d.d.d.d.d.d.d.",
"d.d.* / ) ) ) ) ` ) ) ) ) ) ) M 1 B Z ) ) ) ) ) ) ) ) ) ) ) ) ) ) ^ ] 7.i...v ) ) ) ) ) ) ) ) ) ) ) ` ! # d.d.d.d.d.d.d.d.d.d.d.",
"d.d.* ^ ) ) ) ) ) ) ) ) ) ) ) T < R N R ) ) ) ) ) ) ) ) ) ) ) ) ) ! i q.y.s h ) ) ) ) ) ) ) ) ) ) ) ) ^ + d.d.d.d.d.d.d.d.d.d.d.",
"d.d.@ Q ` ) ) ) ) ) ) ) ) ) ` R x R ^ F ! ) ) ) ) ) ) ) ) ) ) ) ) T $.i.6.q Y ) ) ) ) ) ) ) ) ) ) ) ` R +   d.d.d.d.d.d.d.d.d.d.",
"d.d.@ T ` ` ) ) ) ) ) ) ) ) ) ( 1 C ) Q B R ) ) ) ) ) ) ) ) ) ) ^ L ;.s.+.- ~ ) ) ) ) ) ) ) ) ) ) ` ` C & d.d.d.d.d.d.d.d.d.d.d.",
"d.d.X M ` ` ) ) ) ) ) ) ) ) ) ` U > / ) Q Z c ~ ) ) ) ` ) ) ) ~ G $.e.9.a N ) ) ) ) ) ) ) ) ) ) ) ) ) c > O d.d.d.d.d.d.d.d.d.d.",
"d.d.d.g ( ` ) ) ) ) ) ) ) ) ) ) ) x c W K 5 r P T ( ) ( ) ( W I f 3.u...2 ^ ) ) ) ) ) ) ) ) ) ) ) ) ( k M 1 d.d.d.d.d.d.d.d.d.d.",
"d.d.d.: ^ ` ) ) ) ) ) ) ) ) ) ) ) ^ : 8 s >.4.1.{ ' J S S _ [ %.e.t.#.y U ) ) ) ) ) ) ) ) ) ) ) ) ` ! x ! = d.d.d.d.d.d.d.d.d.d.",
"d.d.d.+ T ` ) ) ) ) ) ) ) ) ) ) ) ) R 3 ..8.t.a.e.7.-.&.&.2.7.s.9.=.6 m ) ) ) ) ) ) ) ) ) ) ) ) ) ) N x ( c d.d.d.d.d.d.d.d.d.d.",
"d.d.d.d., ) ) ) ) ) ) ) ) ) ) ) ) ) ) Y D t #.8.t.a.a.a.a.y.8.,.f - C ) ) ) ) ) ) ) ) ) ) ) ) ) ) ( x T ` c d.d.d.d.d.d.d.d.d.d.",
"d.d.d.d., T ` ) ) ) ) ) ) ) ) ) ) ) ) ) ( m 7 a o.@.,.:.>.o.d 9 x ~ ) ) ) ) ) ) ) ) ) ) ) ) ) ) ) R x ^ ` T O d.d.d.d.d.d.d.d.d.",
"d.d.d.d.. c ( ) ) ) ) ) ) ) ) ) ) ) ) ) ) ) ~ C n 4 5 7 z F V E ) ) ) ) ) ) ) ) ) ) ) ) ) ) ) ) ( x M ` ` Q * d.d.d.d.d.d.d.d.d.",
"d.d.d.d.  % ! ) ) ) ) ) ) ) ) ) ) ) ) ) ) ) ) ) ) ) / ~ ( ) ) ) ) ) ) ) ) ) ) ) ) ) ) ) ) ) ) ` R c ( ` ` ( * d.d.d.d.d.d.d.d.d.",
"d.d.d.d.d.o c ( ` ) ) ) ) ) ) ) ) ) ) ) ) ) ) ) ) ) ) ) ) ) ) ) ) ) ) ) ) ) ) ) ) ) ) ) ) ) ` / j C ) ) ) ) k d.d.d.d.d.d.d.d.d.",
"d.d.d.d.d.d.@ R ) ) ) ) ) ) ) ) ) ) ) ) ) ) ) ) ) ) ) ) ) ) ) ) ) ) ) ) ) ) ) ) ) ) ) ) ) ) ( N M ( ) ) ) ) c d.d.d.d.d.d.d.d.d.",
"d.d.d.d.d.d.d.* ^ ) ) ) ) ) ) ) ) ) ) ) ) ) ) ) ) ) ) ) ) ) ) ) ) ) ) ) ) ) ) ) ) ) ) ) ) ` Q j R ` ) ) ) ` A + d.d.d.d.d.d.d.d.",
"d.d.d.d.d.d.d.o , ! ` ) ) ) ) ) ) ) ) ) ) ) ) ) ) ) ) ) ) ) ) ) ) ) ) ) ) ) ) ) ) ) ) ) ) T k R ` ` ) ) ) ) Q d.d.d.d.d.d.d.d.d.",
"d.d.d.d.d.d.d.d.d.M ! ) ) ) ) ) ) ) ) ) ) ) ) ) ) ) ) ) ) ) ) ) ) ) ) ) ) ) ) ) ) ) ) ) ! c V ( ) ) ) ) ) ` / * d.d.d.d.d.d.d.d.",
"d.d.d.d.d.d.d.d.d.d.> ^ ) ) ) ) ) ) ) ) ) ) ) ) ) ) ) ) ) ) ) ) ) ) ) ) ) ) ) ) ) ) ) Q * # ! ) ) ) ) ) ) ` ( > d.d.d.d.d.d.d.d.",
"d.d.d.d.d.d.d.d.d.d.+ ; Y ) ) ) ) ) ) ) ) ) ) ) ) ) ) ) ) ) ) ) ) ) ) ) ) ) ) ) ) ) V & d.# k ) ) ) ) ) ) ` ` k d.d.d.d.d.d.d.d.",
"d.d.d.d.d.d.d.d.d.d.d.d., N ( ) ) ) ) ) ) ) ) ) ) ) ) ) ) ) ) ) ) ) ) ) ) ) ) ) ( k * d.d.d.% U ) ) ) ) ) ` ` C o d.d.d.d.d.d.d.",
"d.d.d.d.d.d.d.d.d.d.d.d.d.O k R ) ` ) ) ) ) ) ) ) ) ) ) ) ) ) ) ) ) ) ) ` ` ) V ; * d.d.d.d.d.= / ) ) ) ) ) ) T d.d.d.d.d.d.d.d.",
"d.d.d.d.d.d.d.d.d.d.d.d.d.d.d.# c ! ( ` ` ` ) ` ) ) ) ) ) ) ) ) ) ) ` ) ! U : @ d.d.d.d.d.d.d.# j ) ) ) ) ) ` ! # d.d.d.d.d.d.d.",
"d.d.d.d.d.d.d.d.d.d.d.d.d.d.d.d.d.# g T ^ ` ` ` ) ) ` ` ) ) ) ` ) ^ Q k 1 O . d.d.d.d.d.d.d.d.d.# U ) ) ) ) ` / j d.d.d.d.d.d.d.",
"d.d.d.d.d.d.d.d.d.d.d.d.d.d.d.d.d.d.d.o # ; c C R ^ Q ^ Q Q V N j j = x c 1 d.d.d.d.d.d.d.d.d.d.d.* / ) ` ` ` Q & d.d.d.d.d.d.d.",
"d.d.d.d.d.d.d.d.d.d.d.d.d.d.d.d.d.d.d.d.  O : j , > 1 ; 1 ; j > N N / / ` A x d.d.d.d.d.d.d.d.d.d.# j ) ` ^ V &   d.d.d.d.d.d.d.",
"d.d.d.d.d.d.d.d.d.d.d.d.d.d.d.d.d.d.d.d.d.d.j j R ^ ! ! ! / ^ ) ) ` ` ` ) ` c d.d.d.d.d.d.d.d.d.d.d.% V ! j o   d.d.d.d.d.d.d.d.",
"d.d.d.d.d.d.d.d.d.d.d.d.d.d.d.d.d.d.d.d.d.d.d.+ x V ` ` ` ` ` ) ` ) ) ) ) ` ^ x d.d.d.d.d.d.d.d.d.d.d.# %   d.d.d.d.d.d.d.d.d.d.",
"d.d.d.d.d.d.d.d.d.d.d.d.d.d.d.d.d.d.d.d.d.d.d.d.d.O x ! ` ` ) ) ) ) ) ) ` ` ` A k d.d.d.d.d.d.d.d.d.d..   d.d.d.d.d.d.d.d.d.d.d.",
"d.d.d.d.d.d.d.d.d.d.d.d.d.d.d.d.d.d.d.d.d.d.d.d.d.d.d.* C / ` ` ) ) ) ) ) ) ) ` M d.d.d.d.d.d.d.d.d.d.d.d.d.d.d.d.d.d.d.d.d.d.d.",
"d.d.d.d.d.d.d.d.d.d.d.d.d.d.d.d.d.d.d.d.d.d.d.d.d.d.d.d.= > ! ) ` ) ) ) ) ) ) ` ^ k d.d.d.d.d.d.d.d.d.d.d.d.d.d.d.d.d.d.d.d.d.d.",
"d.d.d.d.d.d.d.d.d.d.d.d.d.d.d.d.d.d.d.d.d.d.d.d.d.d.d.d.d.o > c ( ` ` ) ) ) ) ) ` T x d.d.d.d.d.d.d.d.d.d.d.d.d.d.d.d.d.d.d.d.d.",
"d.d.d.d.d.d.d.d.d.d.d.d.d.d.d.d.d.d.d.d.d.d.d.d.d.d.d.d.d.d.d.+ > R ` ) ) ) ) ) ) ` M d.d.d.d.d.d.d.d.d.d.d.d.d.d.d.d.d.d.d.d.d.",
"d.d.d.d.d.d.d.d.d.d.d.d.d.d.d.d.d.d.d.d.d.d.d.d.d.d.d.d.d.d.d.d.. : N ^ ` ) ) ) ` ` R % d.d.d.d.d.d.d.d.d.d.d.d.d.d.d.d.d.d.d.d.",
"d.d.d.d.d.d.d.d.d.d.d.d.d.d.d.d.d.d.d.d.d.d.d.d.d.d.d.d.d.d.d.d.d.d.+ k Q ) ` ) / V % X d.d.d.d.d.d.d.d.d.d.d.d.d.d.d.d.d.d.d.d.",
"d.d.d.d.d.d.d.d.d.d.d.d.d.d.d.d.d.d.d.d.d.d.d.d.d.d.d.d.d.d.d.d.d.d.d.d.* M ! ! > + d.d.d.d.d.d.d.d.d.d.d.d.d.d.d.d.d.d.d.d.d.d.",
"d.d.d.d.d.d.d.d.d.d.d.d.d.d.d.d.d.d.d.d.d.d.d.d.d.d.d.d.d.d.d.d.d.d.d.d.d.d.; % o d.d.d.d.d.d.d.d.d.d.d.d.d.d.d.d.d.d.d.d.d.d.d."
};
