/* XPM */
static char *_60[] = {
/* columns rows colors chars-per-pixel */
"64 64 134 2 ",
"   c #020000",
".  c #0B0001",
"X  c #140002",
"o  c #1C0003",
"O  c #230004",
"+  c #2D0005",
"@  c #340006",
"#  c #3B0007",
"$  c #3F0008",
"%  c #430008",
"&  c #4B0009",
"*  c #54000A",
"=  c #5D000B",
"-  c #570711",
";  c #63000C",
":  c #6D000D",
">  c #73000E",
",  c #7C000F",
"<  c #6E0512",
"1  c #600B16",
"2  c #680E19",
"3  c #7C0312",
"4  c #6F1B28",
"5  c #5E232D",
"6  c #572C35",
"7  c #77212E",
"8  c #682833",
"9  c #662E3A",
"0  c #64343F",
"q  c #633C47",
"w  c #6D3841",
"e  c #5A414B",
"r  c #5D4D57",
"t  c #52515A",
"y  c #5C545D",
"u  c #72535E",
"i  c #7B535E",
"p  c #575A63",
"a  c #5B5A63",
"s  c #6B5662",
"d  c #745A66",
"f  c #7B5D67",
"g  c #57636C",
"h  c #5F636D",
"j  c #5B6C76",
"k  c #5F727B",
"l  c #73626E",
"z  c #626C77",
"x  c #6D717C",
"c  c #73737E",
"v  c #81000F",
"b  c #8F000E",
"n  c #840010",
"m  c #8B0011",
"M  c #8C0B1C",
"N  c #940112",
"B  c #9C0013",
"V  c #9B081A",
"C  c #80111F",
"Z  c #A1000E",
"A  c #B5000E",
"S  c #A40014",
"D  c #AB0015",
"F  c #A40518",
"G  c #AA0619",
"H  c #A30A1C",
"J  c #AD091D",
"K  c #B30016",
"L  c #BC0017",
"P  c #B00418",
"I  c #BB0219",
"U  c #B2081C",
"Y  c #BF091F",
"T  c #960F21",
"R  c #BA0E23",
"E  c #A7182A",
"W  c #BB1027",
"Q  c #8C2F3F",
"!  c #902E3C",
"~  c #C40016",
"^  c #CE0014",
"/  c #C40118",
"(  c #CB0119",
")  c #D20016",
"_  c #D3011A",
"`  c #DC001B",
"'  c #E4001C",
"]  c #EB001D",
"[  c #F4001D",
"{  c #FF001F",
"}  c #FF0020",
"|  c #823D49",
" . c #893A48",
".. c #824D59",
"X. c #8E4D59",
"o. c #826771",
"O. c #9C6875",
"+. c #936F7B",
"@. c #A96574",
"#. c #6B7B85",
"$. c #71838F",
"%. c #788B94",
"&. c #778F98",
"*. c #7FA0AB",
"=. c #7CA4B0",
"-. c #82848E",
";. c #8D808B",
":. c #9796A0",
">. c #9699A4",
",. c #90A2AE",
"<. c #87AEBA",
"1. c #8AAEB8",
"2. c #9DA5B0",
"3. c #97A9B4",
"4. c #8BB0BC",
"5. c #9EB3BD",
"6. c #96BDCA",
"7. c #94C0CD",
"8. c #9CCBD8",
"9. c #A8C3CF",
"0. c #A6C4D1",
"q. c #ADCAD5",
"w. c #A3CEDD",
"e. c #B2D0DB",
"r. c #AAD4E3",
"t. c #BBDBE6",
"y. c #B4DCEB",
"u. c #BCE1EF",
"i. c #B7E3F4",
"p. c #BDE4F3",
"a. c #C3E7F6",
"s. c #C4EAF9",
"d. c #CCEDFA",
"f. c None",
/* pixels */
"f.f.f.f.f.f.f.f.f.f.f.f.f.f.f.f.f.f.f.f.f.f.f.f.f.f.f.f.f.f.f.f.f.f.f.f.f.f.f.f.f.f.f.f.f.f.f.f.f.f.f.f.f.f.f.f.f.f.f.f.f.f.f.f.",
"f.f.f.f.f.f.f.f.f.f.f.f.f.f.f.f.f.f.f.f.f.f.f.f.f.f.f.f.f.f.f.f.f.f.f.f.f.f.f.f.f.f.f.f.f.f.f.f.f.f.f.f.f.f.f.f.f.f.f.f.f.f.f.f.",
"f.f.f.f.f.f.f.f.f.f.f.f.f.f.f.f.f.f.f.f.f.f.f.# ; o f.f.f.f.f.f.f.f.f.f.f.f.f.f.f.f.f.f.f.f.f.f.f.f.f.f.f.f.f.f.f.f.f.f.f.f.f.f.",
"f.f.f.f.f.f.f.f.f.f.f.f.f.f.f.f.f.f.f.f.f.f.N ( K + f.f.f.f.  f.f.f.f.f.f.f.f.f.f.f.f.f.f.f.f.f.f.f.f.f.f.f.f.f.f.f.f.f.f.f.f.f.",
"f.f.f.f.f.f.f.f.f.f.f.f.f.f.f.f.f.f.f.f.% K ' } ( * D D S N > : # f.. f.f.f.f.f.f.f.f.f.f.f.f.f.f.f.f.f.f.f.f.f.f.f.f.f.f.f.f.f.",
"f.f.f.f.f.f.f.f.f.f.f.f.f.f.f.f.f.f.X m ( { } { ` m ] } { { { ' ' D v % f.f.f.f.f.f.f.f.f.f.f.f.f.f.f.f.f.f.f.f.f.f.f.f.f.f.f.f.",
"f.f.f.f.f.f.f.f.f.f.f.f.f.f.f.f.f.@ D ' } } { { ' , ` { { { { { } { { _ S m o f.f.f.f.f.f.f.f.f.f.f.f.f.f.f.f.f.f.f.f.f.f.f.f.f.",
"f.f.f.f.f.f.f.f.f.f.f.f.f.f.f.f.: / } } { { { } ' > _ { { { { { { { } } [ ` B & f.f.f.f.f.f.f.f.f.f.f.f.f.f.f.f.f.f.f.f.f.f.f.f.",
"f.f.f.f.f.f.f.f.f.f.f.f.f.f.X N / } { { { { { } [ N ( } { { { { { { { { { { } ( : f.f.f.f.f.f.f.f.f.f.f.f.f.f.f.f.f.f.f.f.f.f.f.",
"f.f.f.f.f.f.f.f.f.f.f.f.f.O n ` } { { { { { { } { N L } { { { { { { { { { { { } ] v = f.f.f.f.f.f.f.f.f.f.f.f.f.f.f.f.f.f.f.f.f.",
"f.f.f.f.f.f.f.f.f.f.f.f.+ n ] } } { { { { { { { { B D { { { { { { { { { { { { { } [ m ; f.f.f.f.f.f.f.f.f.f.f.f.f.f.f.f.f.f.f.f.",
"f.f.f.f.f.f.f.f.f.f.f.# v { { { { { { { { { { { { I S } { { { { { { { { { { { { { { { S * f.f.f.f.f.f.f.f.f.f.f.f.f.f.f.f.f.f.f.",
"f.f.f.f.f.f.f.f.f.f.f., [ { { { { { { { { { { { { ( S { { { { { { { { { { { { { { { } } D @ f.f.f.f.f.f.f.f.f.f.f.f.f.f.f.f.f.f.",
"f.f.f.f.f.f.f.f.f.f., [ { { { { { { { { { { { { { / n [ { { { { { { { { { { { { { { { { { S o f.f.f.f.f.f.f.f.f.f.f.f.f.f.f.f.f.",
"f.f.f.f.f.f.f.f.f.> ' } { { { { { { { { { { { { } _ n ] } { { { { { { { { { { { { { { { { ] m f.f.f.f.f.f.f.f.f.f.f.f.f.f.f.f.f.",
"f.f.f.f.f.f.f.f.: _ } { { { { { { { { { { { { { } ] m ` { { { { { { } { { { { { { { { { { } ( * f.f.f.f.f.f.f.f.f.f.f.f.f.f.f.f.",
"f.f.f.f.f.f.f.; L } } { { { { { { { { { { } { { { _ > L { { } { { { { { { { { { { { { { { { } S o f.f.f.f.f.f.f.f.f.f.f.f.f.f.f.",
"f.f.f.f.f.f.$ N } { { { { { { { { { { { [ ] L N N , @ ; S ( ` } { { { { { { { { { { { { { { { ` 3 f.f.f.f.f.f.f.f.f.f.f.f.f.f.f.",
"f.f.f.f.f.+ : { { { { { { { { { { } { ' S n N S / / B & ; N , K { { { { { { { { { { { { { { } } S o f.f.f.f.f.f.f.f.f.f.f.f.f.f.",
"f.f.f.f.f.% ' { { { { { { { { } } [ _ , S / [ { { } ] I F ~ ) v m ` { { { { { { { { { { { { { { ` , f.f.f.f.f.f.f.f.f.f.f.f.f.f.",
"f.f.f.f.O L [ } { { { { { { { } [ L m L [ } { { { { } ] I / ' [ n > ' { { { { { { { { { { { { { } v . f.f.f.f.f.f.f.f.f.f.f.f.f.",
"f.f.f.f.n ] { { { { { { { { { { / B K } { { { { { { { } ] B I [ [ v - ' } { { { { { { { { { { { { L % f.f.f.f.f.f.f.f.f.f.f.f.f.",
"f.f.f.N / { { { { { { { { { { ` N D } { { { { { { { { } } ] M ~ { Q a M ] { { { { { { { { { { { } ] % f.f.f.f.f.f.f.f.f.f.f.f.f.",
"f.f.f.N } } { { { { { { { { { L m } } { { { { { { { } } } { ` D F d 7.s ( { { { { { { { { { { { } [ > f.f.f.f.f.f.f.f.f.f.f.f.f.",
"f.f.* ] } { { { { { { { { { ' , ` } } { { { { { { { } } { { [ V 2 ,.p.%.3 [ { { { { { { { { { { { { D X f.f.f.f.f.f.f.f.f.f.f.f.",
"f.X S { { { { { { { { { { { ( N ' } { { { } { { { { { { { { { ] 8 1.d.7.0 ' { { { { { { { { { { { } L @ f.f.f.f.f.f.f.f.f.f.f.f.",
"f.m _ { { { { { { { { { { } S N { { { { { { { { { { { { { { { { H :.d.u.r A { { { { { { { { { { { { ( ; # f.f.f.f.f.f.f.f.f.f.f.",
"f.m { { { { { { { { { { { { B K { { { { { { { { { { { { { { { { _ l t.u.j Z { { { { { { { { { { { } _ m B f.f.f.f.f.f.f.f.f.f.f.",
"# ' { { { { { { { { } { { { , L } { { { { { { { { { { { { { { { ' | e.s.k N { { { { { { { { { { { { _ m / & f.f.f.f.f.f.f.f.f.f.",
"N { { { { { { { } { } } { { S L } { { { { { { { { { { { { { { { [ ! q.s.#.b { { { { { { { { { { { } ' n ] D f.f.f.f.f.f.f.f.f.f.",
"/ } { } } { { { [ [ ] ' _ _ n B [ } } { { { { { { { { { { { { { {  .0.u.g P { { { { { { { { { { { { / N { _ ; f.f.f.f.f.f.f.f.f.",
"` ( / L K D N m m m n m , > = % G _ } } { { { { { { { { { { { } ^ ..y.y.e A { { { { { { { { { { { { ( m [ } B X f.f.f.f.f.f.f.f.",
"@ @ > 3 N S B D / ~ _ ' ` ' ( : b H ~ { { { { { { { { { { { { [ R -.p.1.5 ' { { { { { { { { { { { { K S [ } _ : f.f.f.f.f.f.f.f.",
"f.@ ~ { { { } { { { { { { { { m v ) G E ] [ { { { { { { { { [ _ i 9.u.$.V ] { { { { { { { { { { { { V D } } } B O f.f.f.f.f.f.f.",
"f.O S } { { { { { { { { { { { ( M ~ [ / H ~ _ { { { { { { [ ` X.3.s.7.6 ~ { { { { { { { { { { { { ] S ) { { { ' n f.f.f.f.f.f.f.",
"f.f.m [ { { { { { { { { { { { [ N N ' { ` ( n C J _ ` ` ( E @.5.a.w.r N { { { { { { { { { { { { { ] v ' } { { } N O f.f.f.f.f.f.",
"f.f.* ` } { { { { { { { { { { { [ v b [ [ W 0 &.>.+.O.o.;.2.t.a.8.l v [ { { { { { { { { { { { { { D B { { { { { ] S f.f.f.f.f.f.",
"f.f.@ K { } { { { { { { { { { { { [ N > T y 9.p.d.p.p.u.d.s.i.*.l v { { { { { { { { { { { { { { { S D } { { { { } B + f.f.f.f.f.",
"f.f.. = ] } } { { { { { { { { { { { [ D - h =.w.r.i.u.y.r.4.c 0 Z [ { { { { { { { { { { { { { { _ , ] { { { { { } ' * f.f.f.f.f.",
"f.f.f.% ~ } } { { { { { { { { { { { { { ) F 4 0 y x j t q 7 Z ] [ { { { { { { { { { { { { { { [ S K { { { { { { } } B # f.f.f.f.",
"f.f.f.  : [ } { { { { { { { { { { { { { { [ [ ) / K I ~ / [ [ { { { { { { { { { { { { { { { { ` b / { { { { { { { } [ * f.f.f.f.",
"f.f.f.f.; K { } { { { { { { { { { { { { { { { { { { { { { { { { { { { { { { { { { { { { { { [ v O N { { { { { { { { } B f.f.f.f.",
"f.f.f.f.f.= ' { { { { { { { { { { { { { { { { { { { { { { { { { { { { { { { { { { { { { { { I + f.$ , [ { { { { { { } ' & f.f.f.",
"f.f.f.f.f.O 3 [ { { { { { { { { { { { { { { { { { { { { { { { { { { { { { { { { { { { { { ` * f.f.f.@ : ' { { { { { { [ B f.f.f.",
"f.f.f.f.f.f.= B [ { { { { { { { { { { { { { { { { { { { { { { { { { { { { { { { { { { { [ : f.f.f.f.f.f.* ( { { } } } ' >   f.f.",
"f.f.f.f.f.f.f.* D [ { { { { { { { { { { { { { { { { { { { { { { { { { { { { { { { { { [ > f.f.f.f.f.f.f.f.& K { } } ] B X f.f.f.",
"f.f.f.f.f.f.f.  # ( { { { { { { { { { { { { { { { { { { { { { { { { { { { { { { { { [ , # f.f.f.f.f.f.f.f.f.% B { [ K o f.f.f.f.",
"f.f.f.f.f.f.f.f.. % I [ { { { { { { { { { { { { { { { { { { { { { { { { { { { { { ) > o f.f.f.f.f.f.f.f.f.f.f.$ 3 L + f.f.f.f.f.",
"f.f.f.f.f.f.f.f.f.f.@ S [ { { { { { { { { { { { { { { { { { { { { { { { { { { { D 3 O f.f.f.f.f.f.f.f.f.f.f.f.f.@ o   f.f.f.f.f.",
"f.f.f.f.f.f.f.f.f.f.f.O > ( [ } { { { { { { { { { { { { { { { { { { { { { } ' N : B N f.f.f.f.f.f.f.f.f.f.f.f.f.f.f.f.f.f.f.f.f.",
"f.f.f.f.f.f.f.f.f.f.f.f.f.f.m ( { { { { { { { { { { { { { { { { { { { { ] S m : _ [ } K m f.f.f.f.f.f.f.f.f.f.f.f.f.f.f.f.f.f.f.",
"f.f.f.f.f.f.f.f.f.f.f.f.f.f.f.$ N L [ { { { { { { { { { } { { { { [ ' B v : D ] { { } } I N f.f.f.f.f.f.f.f.f.f.f.f.f.f.f.f.f.f.",
"f.f.f.f.f.f.f.f.f.f.f.f.f.f.f.f.f.f.* N K ` ] { { } } { { [ ] _ D , > , S ] { } { { { { } ( N f.f.f.f.f.f.f.f.f.f.f.f.f.f.f.f.f.",
"f.f.f.f.f.f.f.f.f.f.f.f.f.f.f.f.f.f.f.f.# & < > , N m , n m 3 > N B ( [ { { { { { { { { } } ` N f.f.f.f.f.f.f.f.f.f.f.f.f.f.f.f.",
"f.f.f.f.f.f.f.f.f.f.f.f.f.f.f.f.f.f.f.f.f.f.f.f.f..   O : N ( ` [ } } { { { { { { { { { { { } ] S f.f.f.f.f.f.f.f.f.f.f.f.f.f.f.",
"f.f.f.f.f.f.f.f.f.f.f.f.f.f.f.f.f.f.f.f.f.f.f.f.f.f.f.o f.& m N _ ] } { } { { { { { { { { { { } [ D n f.f.f.f.f.f.f.f.f.f.f.f.f.",
"f.f.f.f.f.f.f.f.f.f.f.f.f.f.f.f.f.f.f.f.f.f.f.f.f.f.f.f.f.f.f.f.o : n ~ ` { { } { { { { { { { { } [ : X f.f.f.f.f.f.f.f.f.f.f.f.",
"f.f.f.f.f.f.f.f.f.f.f.f.f.f.f.f.f.f.f.f.f.f.f.f.f.f.f.f.f.f.f.f.f.f.o # * n S _ [ } } { { { } } } D + f.f.f.f.f.f.f.f.f.f.f.f.f.",
"f.f.f.f.f.f.f.f.f.f.f.f.f.f.f.f.f.f.f.f.f.f.f.f.f.f.f.f.f.f.f.f.f.f.f.f.f.f.f.@ > S ` ' } { } [ L @ f.f.f.f.f.f.f.f.f.f.f.f.f.f.",
"f.f.f.f.f.f.f.f.f.f.f.f.f.f.f.f.f.f.f.f.f.f.f.f.f.f.f.f.f.f.f.f.f.f.f.f.f.f.f.f.f.# $ 3 N / ` _ % f.f.f.f.f.f.f.f.f.f.f.f.f.f.f.",
"f.f.f.f.f.f.f.f.f.f.f.f.f.f.f.f.f.f.f.f.f.f.f.f.f.f.f.f.f.f.f.f.f.f.f.f.f.f.f.f.f.f.f.f.f.f.* * o f.f.f.f.f.f.f.f.f.f.f.f.f.f.f.",
"f.f.f.f.f.f.f.f.f.f.f.f.f.f.f.f.f.f.f.f.f.f.f.f.f.f.f.f.f.f.f.f.f.f.f.f.f.f.f.f.f.f.f.f.f.f.f.f.f.f.f.f.f.f.f.f.f.f.f.f.f.f.f.f.",
"f.f.f.f.f.f.f.f.f.f.f.f.f.f.f.f.f.f.f.f.f.f.f.f.f.f.f.f.f.f.f.f.f.f.f.f.f.f.f.f.f.f.f.f.f.f.f.f.f.f.f.f.f.f.f.f.f.f.f.f.f.f.f.f.",
"f.f.f.f.f.f.f.f.f.f.f.f.f.f.f.f.f.f.f.f.f.f.f.f.f.f.f.f.f.f.f.f.f.f.f.f.f.f.f.f.f.f.f.f.f.f.f.f.f.f.f.f.f.f.f.f.f.f.f.f.f.f.f.f."
};
