/* XPM */
static char *_61[] = {
/* columns rows colors chars-per-pixel */
"64 64 138 2 ",
"   c #020000",
".  c #0D0001",
"X  c #130002",
"o  c #1C0003",
"O  c #230004",
"+  c #2C0005",
"@  c #340006",
"#  c #3B0007",
"$  c #400007",
"%  c #440008",
"&  c #4C0009",
"*  c #53000A",
"=  c #5C000B",
"-  c #5D0712",
";  c #64000C",
":  c #6B000D",
">  c #74000E",
",  c #7B000F",
"<  c #7C0211",
"1  c #750817",
"2  c #79131F",
"3  c #711A27",
"4  c #562C35",
"5  c #5E2F39",
"6  c #53343E",
"7  c #67242F",
"8  c #6B2A35",
"9  c #5E3741",
"0  c #613E48",
"q  c #703442",
"w  c #5B434B",
"e  c #57545E",
"r  c #5F585F",
"t  c #5D535D",
"y  c #7E4C58",
"u  c #64535D",
"i  c #6A535E",
"p  c #7D505B",
"a  c #4C5A61",
"s  c #5B5C66",
"d  c #525C64",
"f  c #625B65",
"g  c #606872",
"h  c #686973",
"j  c #736C77",
"k  c #7C737E",
"l  c #83000F",
"z  c #8A000F",
"x  c #9E000F",
"c  c #830010",
"v  c #8C0112",
"b  c #830C1C",
"n  c #8C0A1B",
"m  c #940012",
"M  c #9C0113",
"N  c #9F0718",
"B  c #8B101F",
"V  c #BD000F",
"C  c #A30014",
"Z  c #AC0015",
"A  c #A50719",
"S  c #A00C1E",
"D  c #AA081B",
"F  c #B30015",
"G  c #BB0017",
"H  c #BC0219",
"J  c #B7081D",
"K  c #9C0E21",
"L  c #951929",
"P  c #BB0E22",
"I  c #B41024",
"U  c #862E3D",
"Y  c #C30017",
"T  c #CB0015",
"R  c #C40018",
"E  c #CC0019",
"W  c #C0091F",
"Q  c #D70017",
"!  c #DF0015",
"~  c #D4011A",
"^  c #DC001B",
"/  c #E4001C",
"(  c #EC001C",
")  c #F4001D",
"_  c #FF001F",
"`  c #FF0020",
"'  c #8D3946",
"]  c #83414E",
"[  c #894D59",
"{  c #974452",
"}  c #924A57",
"|  c #84535F",
" . c #A14B5A",
".. c #AD4F60",
"X. c #8B636F",
"o. c #876E79",
"O. c #657580",
"+. c #677D88",
"@. c #71838F",
"#. c #6E8C98",
"$. c #76909C",
"%. c #81838D",
"&. c #808490",
"*. c #918E99",
"=. c #82929E",
"-. c #91A1AC",
";. c #81A6B1",
":. c #86ACB8",
">. c #98A8B1",
",. c #8DB0BC",
"<. c #A2B4BF",
"1. c #88B8C4",
"2. c #94BCCA",
"3. c #99C1CF",
"4. c #9FC4D1",
"5. c #A7C0CD",
"6. c #A4C9D4",
"7. c #ACCBD7",
"8. c #A2D1DF",
"9. c #B4D4DF",
"0. c #A6D3E1",
"q. c #ABD5E4",
"w. c #B3D5E2",
"e. c #B6D8E6",
"r. c #BAD9E5",
"t. c #B4DDEC",
"y. c #B8DEEC",
"u. c #BCE1EE",
"i. c #B5E1F1",
"p. c #BDE4F4",
"a. c #BFE9FA",
"s. c #C2E3EF",
"d. c #C3E7F6",
"f. c #C3E8F6",
"g. c #CBEBF7",
"h. c #C4EAF8",
"j. c #CEF0FD",
"k. c None",
/* pixels */
"k.k.k.k.k.k.k.k.k.k.k.k.k.k.k.k.k.k.k.k.k.k.k.k.k.k.k.k.k.k.k.k.k.k.k.k.k.k.k.k.k.k.k.k.k.k.k.k.k.k.k.k.k.k.k.k.k.k.k.k.k.k.k.k.",
"k.k.k.k.k.k.k.k.k.k.k.k.k.k.k.k.k.k.k.k.k.k.k.k.k.k.k.k.k.k.k.k.k.k.k.k.k.k.k.k.k.k.k.k.k.k.k.k.k.k.k.k.k.k.k.k.k.k.k.k.k.k.k.k.",
"k.k.k.k.k.k.k.k.k.k.k.k.k.k.k.k.k.k.k.k.k.k.O & X k.k.k.k.k.k.k.k.k.k.k.k.k.k.k.k.k.k.k.k.k.k.k.k.k.k.k.k.k.k.k.k.k.k.k.k.k.k.k.",
"k.k.k.k.k.k.k.k.k.k.k.k.k.k.k.k.k.k.k.k.k.> M C O k.k.k.k.  k.k.k.k.k.k.k.k.k.k.k.k.k.k.k.k.k.k.k.k.k.k.k.k.k.k.k.k.k.k.k.k.k.k.",
"k.k.k.k.k.k.k.k.k.k.k.k.k.k.k.k.k.k.k.O > E ` E & m m m < ; : # * . k.k.k.k.k.k.k.k.k.k.k.k.k.k.k.k.k.k.k.k.k.k.k.k.k.k.k.k.k.k.",
"k.k.k.k.k.k.k.k.k.k.k.k.k.k.k.k.k.k.> c ) _ _ ^ < / ` _ ) _ / ( F m * k.k.k.k.k.k.k.k.k.k.k.k.k.k.k.k.k.k.k.k.k.k.k.k.k.k.k.k.k.",
"k.k.k.k.k.k.k.k.k.k.k.k.k.k.k.k.X % F ` _ _ _ ( , ~ ` _ _ _ _ _ ` ) ( F C + k.k.k.k.k.k.k.k.k.k.k.k.k.k.k.k.k.k.k.k.k.k.k.k.k.k.",
"k.k.k.k.k.k.k.k.k.k.k.k.k.k.k.k.= ^ ` ` _ _ ` ) l Y ` _ _ _ _ _ _ ` ` ` ( E ; & k.k.k.k.k.k.k.k.k.k.k.k.k.k.k.k.k.k.k.k.k.k.k.k.",
"k.k.k.k.k.k.k.k.k.k.k.k.k.k.k.v ( ` _ _ _ _ ` ) M F _ _ _ _ _ _ _ _ _ _ ` _ _ M ; k.k.k.k.k.k.k.k.k.k.k.k.k.k.k.k.k.k.k.k.k.k.k.",
"k.k.k.k.k.k.k.k.k.k.k.k.k.O M ^ ` _ _ _ _ _ ` ` C C ` _ _ _ _ _ _ _ _ _ _ _ _ ` G : k.k.k.k.k.k.k.k.k.k.k.k.k.k.k.k.k.k.k.k.k.k.",
"k.k.k.k.k.k.k.k.k.k.k.k.O M ( ` _ _ _ _ _ _ _ _ H m ) _ _ _ _ _ _ _ _ _ _ _ _ _ ` ^ > k.k.k.k.k.k.k.k.k.k.k.k.k.k.k.k.k.k.k.k.k.",
"k.k.k.k.k.k.k.k.k.k.k.@ m ) _ _ _ _ _ _ _ _ _ _ ^ m ( _ _ _ _ _ _ _ _ _ _ _ _ _ _ ` ) c # k.k.k.k.k.k.k.k.k.k.k.k.k.k.k.k.k.k.k.",
"k.k.k.k.k.k.k.k.k.k.$ , _ _ _ _ _ _ _ _ _ _ _ ` / m ( ` _ _ _ _ _ _ _ _ _ _ _ _ _ _ _ _ l O k.k.k.k.k.k.k.k.k.k.k.k.k.k.k.k.k.k.",
"k.k.k.k.k.k.k.k.k.k.> ) _ _ _ _ _ _ _ _ _ _ _ _ ( l ^ ` _ _ _ _ _ _ _ _ _ _ _ _ _ _ _ _ ) < k.k.k.k.k.k.k.k.k.k.k.k.k.k.k.k.k.k.",
"k.k.k.k.k.k.k.k.k.: / ` _ _ _ _ _ _ _ _ _ _ _ _ ) v R ` _ _ _ _ _ _ _ _ _ _ _ _ _ _ _ _ _ E , k.k.k.k.k.k.k.k.k.k.k.k.k.k.k.k.k.",
"k.k.k.k.k.k.k.k.: E ` _ _ _ _ _ _ _ _ _ _ _ _ _ ` M Z _ _ _ _ _ _ _ _ _ _ _ _ _ _ _ _ _ _ ` F + k.k.k.k.k.k.k.k.k.k.k.k.k.k.k.k.",
"k.k.k.k.k.k.k.; Z ` _ _ _ _ _ _ _ _ _ _ _ ` _ _ _ M m _ _ _ _ _ _ _ _ _ _ _ _ _ _ _ _ _ _ _ ) v k.k.k.k.k.k.k.k.k.k.k.k.k.k.k.k.",
"k.k.k.k.k.k.k.m _ _ _ _ _ _ _ _ _ _ _ ` _ ( ~ G M > $ m E ~ _ _ _ _ _ _ _ _ _ _ _ _ _ _ _ _ ` E % k.k.k.k.k.k.k.k.k.k.k.k.k.k.k.",
"k.k.k.k.k.k.= ) ` _ _ _ _ _ _ _ _ _ ` / H c v m M C & * , m v / ) _ _ _ _ _ _ _ _ _ _ _ _ _ _ _ m k.k.k.k.k.k.k.k.k.k.k.k.k.k.k.",
"k.k.k.k.k.# R _ _ _ _ _ _ _ _ ` ` ) / , m F / _ ` ) ~ N C T Z > F ) _ _ _ _ _ _ _ _ _ _ _ _ _ ` R # k.k.k.k.k.k.k.k.k.k.k.k.k.k.",
"k.k.k.k.o v _ _ _ _ _ _ _ _ _ ` ) E v F ( _ _ _ _ ` ) E F ~ ) ~ ; m ) _ _ _ _ _ _ _ _ _ _ _ _ _ ) > k.k.k.k.k.k.k.k.k.k.k.k.k.k.",
"k.k.k.  = / _ _ _ _ _ _ _ _ _ _ E v Z ` _ _ _ _ _ _ _ ` E M ^ _ Q - b ) _ _ _ _ _ _ _ _ _ _ _ _ _ C X k.k.k.k.k.k.k.k.k.k.k.k.k.",
"k.k.k.@ F ) _ _ _ _ _ _ _ _ _ ^ C C _ _ _ _ _ _ _ _ _ ` ` J n / / i i C ) _ _ _ _ _ _ _ _ _ _ _ ` ~ # k.k.k.k.k.k.k.k.k.k.k.k.k.",
"k.k.k.M / _ _ _ _ _ _ _ _ _ ) H v ) ` _ _ _ _ _ _ _ ` _ _ _ R Z B %.1.q / _ _ _ _ _ _ _ _ _ _ _ ` ) =   k.k.k.k.k.k.k.k.k.k.k.k.",
"k.k.; F ` _ _ _ _ _ _ _ _ _ ) , ~ ` ` _ _ _ _ _ _ ` ` ` _ _ ^ v 8 6.y.h M _ _ _ _ _ _ _ _ _ _ _ _ _ v o k.k.k.k.k.k.k.k.k.k.k.k.",
"k.k.: ` ` _ _ _ _ _ _ _ _ ` F m ` _ _ _ _ _ _ _ _ _ _ _ _ _ ` E 9 6.g.;.3 ) _ _ _ _ _ _ _ _ _ _ _ _ C * + k.k.k.k.k.k.k.k.k.k.k.",
"k.O E ` _ _ _ _ _ _ _ _ _ _ F M ) _ _ _ _ _ _ _ _ _ _ _ _ _ _ ) L <.j.0.5 T _ _ _ _ _ _ _ _ _ _ _ ` G v > k.k.k.k.k.k.k.k.k.k.k.",
"k.v / ` _ _ _ _ _ _ _ _ _ ) c R ` _ _ _ _ _ _ _ _ _ _ _ _ _ _ _ P k d.t.e Z _ _ _ _ _ _ _ _ _ _ _ _ R c C % k.k.k.k.k.k.k.k.k.k.",
"% M ` _ _ _ _ _ _ _ _ _ _ ) v H ` _ _ _ _ _ _ _ _ _ _ _ _ _ _ _ Q y r.u.d Z _ _ _ _ _ _ _ _ _ _ _ _ E M ( c k.k.k.k.k.k.k.k.k.k.",
"% / _ _ _ _ _ _ _ _ _ _ ` ) c E ` _ _ _ _ _ _ _ _ _ _ _ _ _ _ _ ( ' 9.a.g x _ _ _ _ _ _ _ _ _ _ _ ` Y v _ R ; k.k.k.k.k.k.k.k.k.",
"M ` ` _ _ _ _ ` ` ` ` ` ` ) v H ` ` _ _ _ _ _ _ _ _ _ _ _ _ _ _ _ ] 6.e.s G _ _ _ _ _ _ _ _ _ _ _ _ ~ m ) ` c   k.k.k.k.k.k.k.k.",
"R ` _ ` _ _ ) ) / / ~ E F C : c ~ ` _ _ _ _ _ _ _ _ _ _ _ _ _ _ T | u.t.6 V _ _ _ _ _ _ _ _ _ _ _ ` F M ) ` E ; k.k.k.k.k.k.k.k.",
"/ ~ E R Z C v c c l c m l m z % m D ( ` _ _ _ _ _ _ _ _ _ _ _ ) P @.s.:.7 / _ _ _ _ _ _ _ _ _ _ _ _ F M ` ` ` v O k.k.k.k.k.k.k.",
"& # : c M C Z R ^ ^ ( ) ) _ / c m J N ~ _ _ _ _ _ _ _ _ _ _ _ ^ [ 5.i.@.N ( _ _ _ _ _ _ _ _ _ _ _ ) m R ` ` _ / c k.k.k.k.k.k.k.",
"k.+ G ) ) _ _ _ ` _ _ _ _ _ _ F 1 T ! N J Q ( _ _ _ _ _ _ _ / { -.h.3.4 Y _ _ _ _ _ _ _ _ _ _ _ _ ) N T _ _ _ _ M O k.k.k.k.k.k.",
"k.o m ` _ _ _ _ _ _ _ _ _ _ _ ^ m Z ( _ J G N A T / ( ( Q I  .>.g.8.u n _ _ _ _ _ _ _ _ _ _ _ _ ` E l ) ` _ _ _ ( C k.k.k.k.k.k.",
"k.k., ( _ _ _ _ _ _ _ _ _ _ _ ` E : F ) _ ^ 2 u o.}  .[ X.*.9.h.8.k 1 ) _ _ _ _ _ _ _ _ _ _ _ _ _ G C ( ` ` _ _ ` Z # k.k.k.k.k.",
"k.k.% R _ _ _ _ _ _ _ _ _ _ _ _ ` ^ , C T U @.e.u.9.r.9.f.h.a.,.j < ( _ _ _ _ _ _ _ _ _ _ _ _ _ _ v F ` _ ` _ _ ` ) : k.k.k.k.k.",
"k.k.k.m _ _ _ _ _ _ _ _ _ _ _ _ _ _ / l - a 1.i.i.a.p.p.i.2.=.w A / _ _ _ _ _ _ _ _ _ _ _ _ _ ` E m ) _ _ _ _ _ ` ` F & k.k.k.k.",
"k.k.k.# ~ ` ` _ _ _ _ _ _ _ _ _ _ _ _ _ Z B w e @.$.$.h s 5 N ~ ( _ _ _ _ _ _ _ _ _ _ _ _ _ _ ) Z Z ) _ _ _ _ _ _ ` ` , k.k.k.k.",
"k.k.k.k.m ) ` ` _ _ _ _ _ _ _ _ _ _ _ _ ` ( ! F A n K M G ! ) _ _ _ _ _ _ _ _ _ _ _ _ _ _ _ _ ^ * v _ _ _ _ _ _ _ _ _ R = k.k.k.",
"k.k.k.k.# ~ ` ` _ _ _ _ _ _ _ _ _ _ _ _ _ ` _ _ _ _ _ _ ` _ _ _ _ _ _ _ _ _ _ _ _ _ _ _ _ _ _ > X $ v ) _ _ _ _ _ _ ` ` , k.k.k.",
"k.k.k.k.k.v / ` _ _ _ _ _ _ _ _ _ _ _ _ _ _ _ _ _ _ _ _ _ _ _ _ _ _ _ _ _ _ _ _ _ _ _ _ _ _ F # k.k.# ; ^ _ _ _ _ _ _ ` R = k.k.",
"k.k.k.k.k.+ F ` _ _ _ _ _ _ _ _ _ _ _ _ _ _ _ _ _ _ _ _ _ _ _ _ _ _ _ _ _ _ _ _ _ _ _ _ ` / ; k.k.k.k.k.* Y _ _ _ _ ` ) H o k.k.",
"k.k.k.k.k.k.% H _ _ _ _ _ _ _ _ _ _ _ _ _ _ _ _ _ _ _ _ _ _ _ _ _ _ _ _ _ _ _ _ _ _ _ _ ) > k.k.k.k.k.k.k.% M _ _ ` _ E %   k.k.",
"k.k.k.k.k.k.k., H _ _ _ _ _ _ _ _ _ _ _ _ _ _ _ _ _ _ _ _ _ _ _ _ _ _ _ _ _ _ _ _ _ _ _ , % k.k.k.k.k.k.k.k.# , ( ` / :   k.k.k.",
"k.k.k.k.k.k.k.k.; ~ _ _ _ _ _ _ _ _ _ _ _ _ _ _ _ _ _ _ _ _ _ _ _ _ _ _ _ _ _ _ _ _ ( z + k.k.k.k.k.k.k.k.k.k.# = Y v   k.k.k.k.",
"k.k.k.k.k.k.k.k.  = / ) _ _ _ _ _ _ _ _ _ _ _ _ _ _ _ _ _ _ _ _ _ _ _ _ _ _ _ _ _ Q z X k.k.k.k.k.k.k.k.k.k.k.k.k.@ X k.k.k.k.k.",
"k.k.k.k.k.k.k.k.k.o * E ) _ _ _ _ _ _ _ _ _ _ _ _ _ _ _ _ _ _ _ _ _ _ _ _ _ _ _ E < & = k.k.k.k.k.k.k.k.k.k.k.k.k.k.k.k.k.k.k.k.",
"k.k.k.k.k.k.k.k.k.k.k.@ Z / _ ` _ _ _ _ _ _ _ _ _ _ _ _ _ _ _ _ _ _ _ _ _ ` / H * Z E Z m k.k.k.k.k.k.k.k.k.k.k.k.k.k.k.k.k.k.k.",
"k.k.k.k.k.k.k.k.k.k.k.k.o , F / ` _ _ _ _ _ _ _ _ _ _ _ _ _ _ ` _ _ _ ` ( E > , G ) ` ` G m k.k.k.k.k.k.k.k.k.k.k.k.k.k.k.k.k.k.",
"k.k.k.k.k.k.k.k.k.k.k.k.k.k.k.: C / ) ` _ ` _ _ _ _ _ _ _ ` _ ` _ ` / Y l : C ~ ` ` ` ` ` ~ m k.k.k.k.k.k.k.k.k.k.k.k.k.k.k.k.k.",
"k.k.k.k.k.k.k.k.k.k.k.k.k.k.k.k.o c c G ~ ) ) ` _ ` ` ` ` ` ) ( Y C : > C E _ _ _ _ _ _ _ ` / M k.k.k.k.k.k.k.k.k.k.k.k.k.k.k.k.",
"k.k.k.k.k.k.k.k.k.k.k.k.k.k.k.k.k.k.k.o : * v N Z Z F F m v v c : m H ^ _ _ _ _ _ _ _ _ _ _ ` ) Z m k.k.k.k.k.k.k.k.k.k.k.k.k.k.",
"k.k.k.k.k.k.k.k.k.k.k.k.k.k.k.k.k.k.k.k.k.k.k.o O X o . @ > C R / ` ` _ _ _ _ _ _ _ _ _ _ _ _ ` ` R m k.k.k.k.k.k.k.k.k.k.k.k.k.",
"k.k.k.k.k.k.k.k.k.k.k.k.k.k.k.k.k.k.k.k.k.k.k.k.k.k.k.k.o k.* C m ~ / ` _ ` _ _ _ _ _ _ _ _ _ _ _ ` ~ ; k.k.k.k.k.k.k.k.k.k.k.k.",
"k.k.k.k.k.k.k.k.k.k.k.k.k.k.k.k.k.k.k.k.k.k.k.k.k.k.k.k.k.k.k.k.+ O > > F E ) ) ` ` ` ` _ _ ` _ ` ` E @ k.k.k.k.k.k.k.k.k.k.k.k.",
"k.k.k.k.k.k.k.k.k.k.k.k.k.k.k.k.k.k.k.k.k.k.k.k.k.k.k.k.k.k.k.k.k.k.k.. k.% : v Z ^ ) ` _ ` ` ` ) ^ & k.k.k.k.k.k.k.k.k.k.k.k.k.",
"k.k.k.k.k.k.k.k.k.k.k.k.k.k.k.k.k.k.k.k.k.k.k.k.k.k.k.k.k.k.k.k.k.k.k.k.k.k.k.k.o * > M G ( ) ` ( ; o k.k.k.k.k.k.k.k.k.k.k.k.k.",
"k.k.k.k.k.k.k.k.k.k.k.k.k.k.k.k.k.k.k.k.k.k.k.k.k.k.k.k.k.k.k.k.k.k.k.k.k.k.k.k.k.k.k.k.; * M c c O k.k.k.k.k.k.k.k.k.k.k.k.k.k.",
"k.k.k.k.k.k.k.k.k.k.k.k.k.k.k.k.k.k.k.k.k.k.k.k.k.k.k.k.k.k.k.k.k.k.k.k.k.k.k.k.k.k.k.k.k.k.k.k.k.k.k.k.k.k.k.k.k.k.k.k.k.k.k.k.",
"k.k.k.k.k.k.k.k.k.k.k.k.k.k.k.k.k.k.k.k.k.k.k.k.k.k.k.k.k.k.k.k.k.k.k.k.k.k.k.k.k.k.k.k.k.k.k.k.k.k.k.k.k.k.k.k.k.k.k.k.k.k.k.k.",
"k.k.k.k.k.k.k.k.k.k.k.k.k.k.k.k.k.k.k.k.k.k.k.k.k.k.k.k.k.k.k.k.k.k.k.k.k.k.k.k.k.k.k.k.k.k.k.k.k.k.k.k.k.k.k.k.k.k.k.k.k.k.k.k.",
"k.k.k.k.k.k.k.k.k.k.k.k.k.k.k.k.k.k.k.k.k.k.k.k.k.k.k.k.k.k.k.k.k.k.k.k.k.k.k.k.k.k.k.k.k.k.k.k.k.k.k.k.k.k.k.k.k.k.k.k.k.k.k.k."
};
