/* XPM */
static char *_64[] = {
/* columns rows colors chars-per-pixel */
"64 64 144 2 ",
"   c #010000",
".  c #0C0001",
"X  c #140002",
"o  c #1C0003",
"O  c #260004",
"+  c #2B0005",
"@  c #340006",
"#  c #3B0007",
"$  c #400007",
"%  c #4B0007",
"&  c #420008",
"*  c #4C0009",
"=  c #53000A",
"-  c #5C000B",
";  c #5B0E19",
":  c #65000C",
">  c #6B000D",
",  c #72000E",
"<  c #7B000F",
"1  c #750412",
"2  c #7E0211",
"3  c #7A0816",
"4  c #730B19",
"5  c #65121F",
"6  c #68121D",
"7  c #5C1A25",
"8  c #601C27",
"9  c #691C28",
"0  c #781C2A",
"q  c #4D232C",
"w  c #56343D",
"e  c #5A323B",
"r  c #6F202C",
"t  c #752C3A",
"y  c #65343C",
"u  c #75333D",
"i  c #493840",
"p  c #5F3F4A",
"a  c #633C48",
"s  c #514D55",
"d  c #585059",
"f  c #62434D",
"g  c #6F434E",
"h  c #64545E",
"j  c #7A545F",
"k  c #5B5761",
"l  c #55737B",
"z  c #73737F",
"x  c #80000F",
"c  c #8B000C",
"v  c #830010",
"b  c #8C0011",
"n  c #830F1D",
"m  c #940012",
"M  c #9B0113",
"N  c #900718",
"B  c #9E0518",
"V  c #93091A",
"C  c #9C0A1B",
"Z  c #BC000F",
"A  c #A30014",
"S  c #AC0015",
"D  c #A10719",
"F  c #AD0418",
"G  c #AF081D",
"H  c #B30016",
"J  c #BB0016",
"K  c #B4051A",
"L  c #BC0218",
"P  c #B5091E",
"I  c #BF081E",
"U  c #831F2F",
"Y  c #9B1023",
"T  c #991B2C",
"R  c #AD0D22",
"E  c #BF0D22",
"W  c #B8152A",
"Q  c #822331",
"!  c #8E2938",
"~  c #B4273B",
"^  c #C30016",
"/  c #CC0014",
"(  c #C30018",
")  c #CB0019",
"_  c #D50017",
"`  c #D3001A",
"'  c #DB001A",
"]  c #E50017",
"[  c #ED0014",
"{  c #E3001B",
"}  c #EC001D",
"|  c #F4001E",
" . c #FF001F",
".. c #D10D25",
"X. c #FF0020",
"o. c #854551",
"O. c #8B5460",
"+. c #8A616D",
"@. c #876671",
"#. c #886470",
"$. c #7F7A86",
"%. c #707E8A",
"&. c #75818C",
"*. c #7E838C",
"=. c #768591",
"-. c #728C94",
";. c #72909A",
":. c #81838C",
">. c #968993",
",. c #978E9A",
"<. c #9E8E99",
"1. c #9C9CA8",
"2. c #A39DA8",
"3. c #81A1AA",
"4. c #8BA5B3",
"5. c #81A9B5",
"6. c #8DAAB6",
"7. c #92AEB9",
"8. c #9AB2BD",
"9. c #96BAC8",
"0. c #A1B8C4",
"q. c #A3BAC8",
"w. c #9CC6D4",
"e. c #97C8D5",
"r. c #9DC8D5",
"t. c #9FCBDB",
"y. c #A4C8D7",
"u. c #A2CCDB",
"i. c #ACD2E1",
"p. c #ACD8E8",
"a. c #B0D3E0",
"s. c #BDD9E6",
"d. c #B0DDED",
"f. c #B9DDEB",
"g. c #B5E0EF",
"h. c #B9E0EE",
"j. c #B7E2F1",
"k. c #B9E1F0",
"l. c #C1E1ED",
"z. c #C3E6F4",
"x. c #C5E8F5",
"c. c #C5EBFA",
"v. c #CCEEFB",
"b. c None",
/* pixels */
"b.b.b.b.b.b.b.b.b.b.b.b.b.b.b.b.b.b.b.b.b.b.b.b.b.b.b.b.b.b.b.b.b.b.b.b.b.b.b.b.b.b.b.b.b.b.b.b.b.b.b.b.b.b.b.b.b.b.b.b.b.b.b.b.",
"b.b.b.b.b.b.b.b.b.b.b.b.b.b.b.b.b.b.b.b.b.b.b.b.b.b.b.b.b.b.b.b.b.b.b.b.b.b.b.b.b.b.b.b.b.b.b.b.b.b.b.b.b.b.b.b.b.b.b.b.b.b.b.b.",
"b.b.b.b.b.b.b.b.b.b.b.b.b.b.b.b.b.b.b.b.b.b.b.b.b.b.b.b.b.b.b.b.b.b.b.b.b.b.b.b.b.b.b.b.b.b.b.b.b.b.b.b.b.b.b.b.b.b.b.b.b.b.b.b.",
"b.b.b.b.b.b.b.b.b.b.b.b.b.b.b.b.b.b.b.o & b.b.b.b.b.b.b.b.b.b.b.b.b.b.b.b.b.b.b.b.b.b.b.b.b.b.b.b.b.b.b.b.b.b.b.b.b.b.b.b.b.b.b.",
"b.b.b.b.b.b.b.b.b.b.b.b.b.b.b.b.b.b.b.2 S O b.b.& # O * O b.X b.b.b.b.b.b.b.b.b.b.b.b.b.b.b.b.b.b.b.b.b.b.b.b.b.b.b.b.b.b.b.b.b.",
"b.b.b.b.b.b.b.b.b.b.b.b.b.b.b.b.b.@ H | { - b J ) ) ' ( ) S M : , b.b.b.b.b.b.b.b.b.b.b.b.b.b.b.b.b.b.b.b.b.b.b.b.b.b.b.b.b.b.b.",
"b.b.b.b.b.b.b.b.b.b.b.b.b.b.b.b.& H } X.| b ( X.X. . .X. .X. . .' ( 2 % b.b.b.b.b.b.b.b.b.b.b.b.b.b.b.b.b.b.b.b.b.b.b.b.b.b.b.b.",
"b.b.b.b.b.b.b.b.b.b.b.b.b.b.  : S X. . . .M M X. . . . . . . . .X. . .{ b : b.b.b.b.b.b.b.b.b.b.b.b.b.b.b.b.b.b.b.b.b.b.b.b.b.b.",
"b.b.b.b.b.b.b.b.b.b.b.b.b.b.# (  .X. . . .L x |  . . . . . . . . . . . .X.` < - b.b.b.b.b.b.b.b.b.b.b.b.b.b.b.b.b.b.b.b.b.b.b.b.",
"b.b.b.b.b.b.b.b.b.b.b.b.b.- )  .X. . . . .' v {  . . . . . . . . . . . . .X. .S : b.b.b.b.b.b.b.b.b.b.b.b.b.b.b.b.b.b.b.b.b.b.b.",
"b.b.b.b.b.b.b.b.b.b.b.b.b H X. . . . . .X.| b (  . . . . . . . . . . . . . . .X.{ < @ b.b.b.b.b.b.b.b.b.b.b.b.b.b.b.b.b.b.b.b.b.",
"b.b.b.b.b.b.b.b.b.b.b.# S  . . . . . . . . .A A  . . . . . . . . . . . . . . . . . .M O b.b.b.b.b.b.b.b.b.b.b.b.b.b.b.b.b.b.b.b.",
"b.b.b.b.b.b.b.b.b.b.O H | X. . . . . . . .X.` m |  . . . . . . . . . . . . . . . . .| A b.b.b.b.b.b.b.b.b.b.b.b.b.b.b.b.b.b.b.b.",
"b.b.b.b.b.b.b.b.b.+ v | X. . . . . . . . .X.} M {  . . . . . . . . . . . . . . . . .X.} b @ b.b.b.b.b.b.b.b.b.b.b.b.b.b.b.b.b.b.",
"b.b.b.b.b.b.b.b.b.- |  . . . . . . . . . . .| v (  . . . . . . . . . . . . . . . . . .X. ., b.b.b.b.b.b.b.b.b.b.b.b.b.b.b.b.b.b.",
"b.b.b.b.b.b.b.b.= (  . . . . . . . . . . .X. .A M X. . . . . . . . . . . . . . . . . . . .) , b.b.b.b.b.b.b.b.b.b.b.b.b.b.b.b.b.",
"b.b.b.b.b.b.b.- M X. . . . . . . . . . . . . .) b |  . . . . . . . . . . . . . . . . . . .X.H @ b.b.b.b.b.b.b.b.b.b.b.b.b.b.b.b.",
"b.b.b.b.b.b.b., |  . . . . . . . . . . . . . .` > S | |  .X. . . . . . . . . . . . . . . . .} v b.b.b.b.b.b.b.b.b.b.b.b.b.b.b.b.",
"b.b.b.b.b.b.> ( X. . . . . . . . . . .X.} ( S v @ % , M b )  . . . . . . . . . . . . . . . .X.) & b.b.b.b.b.b.b.b.b.b.b.b.b.b.b.",
"b.b.b.b.b.b.b  . . . . . . . . . .X.} ) v v S J J > 1 M J < x ) |  . . . . . . . . . . . . .X.} ,   b.b.b.b.b.b.b.b.b.b.b.b.b.b.",
"b.b.b.b.b.- { X. . . . . . . . . .| b b J { X.X. .` H L ' | S : M |  . . . . . . . . . . . . .X.L O b.b.b.b.b.b.b.b.b.b.b.b.b.b.",
"b.b.b.b.# m X. . . . . . . .X.X.{ m M ` X.X.X. . . .{ K K }  ./ ; 4 {  . . . . . . . . . . . .X.} -   b.b.b.b.b.b.b.b.b.b.b.b.b.",
"b.b.b.b.= |  . . . . . . . .X.' S b  . . . . . . . . .| D N } { h z Y }  . . . . . . . . . . . . .M o b.b.b.b.b.b.b.b.b.b.b.b.b.",
"b.b.b.o S  . . . . . . . . . .L m ' X. . . . . . . . . . .L S V $.e.d S  . . . . . . . . . . . .X.( - @ b.b.b.b.b.b.b.b.b.b.b.b.",
"b.b.  = }  . . . . . . . . .` m J X.X. . . . . . .X.X. . .{ B 6 7.x.6.0 {  . . . . . . . . . . .X.' v m b.b.b.b.b.b.b.b.b.b.b.b.",
"b.b.b.A | X. . . . . . . . .) b | X. . . . . . . .X.X. . . .{ r 3.v.i.s S  . . . . . . . . . . . .| v H > b.b.b.b.b.b.b.b.b.b.b.",
"b.b.m ) X. . . . . . . .X. .b ( X. . . . . . . . . . . . . . .L #.l.v.;.n  . . . . . . . . . . . . .M ( ` m b.b.b.b.b.b.b.b.b.b.",
"b.b.v X. . . . . . . . .X.{ b '  . . . . . . . . . . . . . . .| ! 8.v.9.7 ]  . . . . . . . . . . . .m J  .A # b.b.b.b.b.b.b.b.b.",
"b.# ( X. . . . . . . . . .} 2 ' X. . . . . . . . . . . . . . . .P :.x.y.e /  . . . . . . . . . . . .S S X.| 2 b.b.b.b.b.b.b.b.b.",
"b.* |  . . . . . . . . .X.` v }  . . . . . . . . . . . . . . . ._ +.l.i.w /  . . . . . . . . . . . .A S  .X.) - b.b.b.b.b.b.b.b.",
"b.M | X. . . . . . . . . .{ 1 { X. . . . . . . . . . . . . . . .} j h.u.a /  . . . . . . . . . . . .S A X.X.X.( = b.b.b.b.b.b.b.",
"- H X.X. . . . . . . . . .{ c '  . . . . . . . . . . . . . . . .^ @.h.y.q '  . . . . . . . . . . .X.M ( X. . .| b + b.b.b.b.b.b.",
"& }  . . . . . . .X.X.X.X.| v H X.X. . . . . . . . . . . . . .| E *.x.;.! { X. . . . . . . . . . . .S J  . . . .} < b.b.b.b.b.b.",
"v  . . . . .X.X. .X.} ' L M : - P `  . . . . . . . . . . . . .] o.0.g.&.n X. . . . . . . . . . . .| < '  . . . . .( - b.b.b.b.b.",
"H X. . . .| } ) S m b b < M S - < D F {  . . . . . . . . . .[ ~ :.x.r.w ( X. . . . . . . . . . .X.` m `  . . . .X. .m o b.b.b.b.",
") } ' L A b , v b S / } |  . .A > ^ ) C P ' {  . . . . .| { W >.s.g.z 3  . . . . . . . . . . . .X.' v |  . . . . .X.{ , b.b.b.b.",
"v = - b M H ' }  .X. . . . . .} m C { | ( G P < R K ..E T O.2.f.g.4.5 }  . . . . . . . . . . . .X.A H  . . . . . .X.X.) & b.b.b.",
"b.X : |  .X. . . . . . . . . . .( v H [ X.[ P y -.<.,.1.8.i.c.j.;.u L  . . . . . . . . . . . . .} A (  . . . . . . . . .A & b.b.",
"b.b.= { X. . . . . . . . . . . .X.' , b ' ) g q.g.c.k.c.v.c.r.&.u Z  . . . . . . . . . . . . . .` - L  . . . . . . . .X.| > b.b.",
"b.b.@ A  . . . . . . . . . . . .X.X.| A : 8 l e.p.i.g.u.5.=.f b [ |  . . . . . . . . . . . . . .v o % m |  . . . . .X.X.X.J * b.",
"b.b.b.: { X. . . . . . . . . . . . . .| { c Q e f d h f 9 N ) |  . . . . . . . . . . . . . . .{ & b.b.# - (  .X. . . . . .( X b.",
"b.b.b.@ A X. . . . . . . . . . . . . . .X.X.] { ^ / ) ' [  . . . . . . . . . . . . . . . . .X.v b.b.b.b.b.& 2 {  . . . .' =   b.",
"b.b.b.b.# ) X.X. . . . . . . . . . . . . . . . .X. . .X.X. . . . . . . . . . . . . . . . .X.) - b.b.b.b.b.b.# = S  . .| M . b.b.",
"b.b.b.b.b.v | X. . . . . . . . . . . . . . . . . . . . . . . . . . . . . . . . . . . . . .| : b.b.b.b.b.b.b.b.b.# > ` ) + b.b.b.",
"b.b.b.b.b.O M X.X. . . . . . . . . . . . . . . . . . . . . . . . . . . . . . . . . . . . .c # b.b.b.b.b.b.b.b.b.b.b.& &   b.b.b.",
"b.b.b.b.b.b.< (  . . . . . . . . . . . . . . . . . . . . . . . . . . . . . . . . . . .| H O b.b.b.b.b.b.b.b.b.b.b.b.b.  b.b.b.b.",
"b.b.b.b.b.b.b.& ) X. . . . . . . . . . . . . . . . . . . . . . . . . . . . . . . . .| H @ b.b.b.b.b.b.b.b.b.b.b.b.b.b.b.b.b.b.b.",
"b.b.b.b.b.b.b.b.- H  . . . . . . . . . . . . . . . . . . . . . . . . . . . . . . . .D < - b.b.b.b.b.b.b.b.b.b.b.b.b.b.b.b.b.b.b.",
"b.b.b.b.b.b.b.b.b.< H |  . . . . . . . . . . . . . . . . . . . . . . . . . . . .} H - L } H m b.b.b.b.b.b.b.b.b.b.b.b.b.b.b.b.b.",
"b.b.b.b.b.b.b.b.b.  + H |  . . . . . . . . . . . . . . . . . . . . . . . . . .} b , ) | X.X.' A b b.b.b.b.b.b.b.b.b.b.b.b.b.b.b.",
"b.b.b.b.b.b.b.b.b.b.b.O < ' | X. . . . . . . . . . . . . . . . . . . . . .| S , b ( X.X.X.X.X. .J m b.b.b.b.b.b.b.b.b.b.b.b.b.b.",
"b.b.b.b.b.b.b.b.b.b.b.b.o & A ' }  . . . . . . . . . . . . . .X. . . . .H b > M |  . . . . . . .X.} S b b.b.b.b.b.b.b.b.b.b.b.b.",
"b.b.b.b.b.b.b.b.b.b.b.b.b.b.o - A H |  . . . .X. .X.X.X.X. .X.X. .} H b > M '  . . . . . . . . .X.X.X.` M b.b.b.b.b.b.b.b.b.b.b.",
"b.b.b.b.b.b.b.b.b.b.b.b.b.b.b.b.b.- & M A ` { } | | X.| | } ( S M < < S ' | X.X. . . . . . . . .X.X. .X.} m o b.b.b.b.b.b.b.b.b.",
"b.b.b.b.b.b.b.b.b.b.b.b.b.b.b.b.b.b.b.b.b.@ = - > 2 > : - # + : b ( ' X.X.X. . . .X. . . . . . .X. . .X.} : o b.b.b.b.b.b.b.b.b.",
"b.b.b.b.b.b.b.b.b.b.b.b.b.b.b.b.b.b.b.b.b.b.b.b.b.b.b.b.  b.X * > , b v H ( { {  .| X. .X.X.X. . . .X.| A O b.b.b.b.b.b.b.b.b.b.",
"b.b.b.b.b.b.b.b.b.b.b.b.b.b.b.b.b.b.b.b.b.b.b.b.b.b.b.b.b.b.b.b.b.b.b.. X * @ 2 - A b ( ) | }  .X.X.X.' # b.b.b.b.b.b.b.b.b.b.b.",
"b.b.b.b.b.b.b.b.b.b.b.b.b.b.b.b.b.b.b.b.b.b.b.b.b.b.b.b.b.b.b.b.b.b.b.b.b.b.b.b.b.b.b.X - * < v A F J , o b.b.b.b.b.b.b.b.b.b.b.",
"b.b.b.b.b.b.b.b.b.b.b.b.b.b.b.b.b.b.b.b.b.b.b.b.b.b.b.b.b.b.b.b.b.b.b.b.b.b.b.b.b.b.b.b.b.b.b.b.b.b.# b.b.b.b.b.b.b.b.b.b.b.b.b.",
"b.b.b.b.b.b.b.b.b.b.b.b.b.b.b.b.b.b.b.b.b.b.b.b.b.b.b.b.b.b.b.b.b.b.b.b.b.b.b.b.b.b.b.b.b.b.b.b.b.b.b.b.b.b.b.b.b.b.b.b.b.b.b.b.",
"b.b.b.b.b.b.b.b.b.b.b.b.b.b.b.b.b.b.b.b.b.b.b.b.b.b.b.b.b.b.b.b.b.b.b.b.b.b.b.b.b.b.b.b.b.b.b.b.b.b.b.b.b.b.b.b.b.b.b.b.b.b.b.b.",
"b.b.b.b.b.b.b.b.b.b.b.b.b.b.b.b.b.b.b.b.b.b.b.b.b.b.b.b.b.b.b.b.b.b.b.b.b.b.b.b.b.b.b.b.b.b.b.b.b.b.b.b.b.b.b.b.b.b.b.b.b.b.b.b.",
"b.b.b.b.b.b.b.b.b.b.b.b.b.b.b.b.b.b.b.b.b.b.b.b.b.b.b.b.b.b.b.b.b.b.b.b.b.b.b.b.b.b.b.b.b.b.b.b.b.b.b.b.b.b.b.b.b.b.b.b.b.b.b.b.",
"b.b.b.b.b.b.b.b.b.b.b.b.b.b.b.b.b.b.b.b.b.b.b.b.b.b.b.b.b.b.b.b.b.b.b.b.b.b.b.b.b.b.b.b.b.b.b.b.b.b.b.b.b.b.b.b.b.b.b.b.b.b.b.b."
};
