/* XPM */
static char *_79[] = {
/* columns rows colors chars-per-pixel */
"64 64 132 2 ",
"   c #030000",
".  c #0C0001",
"X  c #140002",
"o  c #1D0003",
"O  c #220004",
"+  c #2C0005",
"@  c #340006",
"#  c #3B0007",
"$  c #3E0008",
"%  c #430008",
"&  c #4B0009",
"*  c #54000A",
"=  c #5B000B",
"-  c #4D151E",
";  c #57151F",
":  c #63000C",
">  c #6B000D",
",  c #73000E",
"<  c #7C000F",
"1  c #650E19",
"2  c #690D1A",
"3  c #770411",
"4  c #7E0111",
"5  c #7D0815",
"6  c #740D19",
"7  c #69101D",
"8  c #571721",
"9  c #5A1C27",
"0  c #6F1F2D",
"q  c #7E1B2A",
"w  c #552D34",
"e  c #582D36",
"r  c #5F363F",
"t  c #66222E",
"y  c #682934",
"u  c #493F47",
"i  c #593842",
"p  c #633F47",
"a  c #633D48",
"s  c #4C444C",
"d  c #75424F",
"f  c #565B64",
"g  c #775963",
"h  c #55626B",
"j  c #5F6D77",
"k  c #60606A",
"l  c #786069",
"z  c #6C6A73",
"x  c #756A73",
"c  c #7C6A74",
"v  c #83000F",
"b  c #88000D",
"n  c #830010",
"m  c #8C0011",
"M  c #940112",
"N  c #9C0113",
"B  c #9C0618",
"V  c #950819",
"C  c #A2000F",
"Z  c #A30014",
"A  c #AB0015",
"S  c #AB0418",
"D  c #AC0A1D",
"F  c #B30016",
"G  c #BA0016",
"H  c #B5071C",
"J  c #BB0118",
"K  c #B6091E",
"L  c #891E2D",
"P  c #901322",
"I  c #A10C20",
"U  c #A01A2C",
"Y  c #AF182D",
"T  c #832431",
"R  c #942837",
"E  c #C20117",
"W  c #C80016",
"Q  c #C30018",
"!  c #CD0119",
"~  c #D50017",
"^  c #DA0015",
"/  c #D4001A",
"(  c #DB011B",
")  c #E00017",
"_  c #E5001C",
"`  c #EB001C",
"'  c #F4001E",
"]  c #FF001F",
"[  c #C30F26",
"{  c #FF0020",
"}  c #9F3241",
"|  c #924755",
" . c #925A67",
".. c #617882",
"X. c #817781",
"o. c #67818B",
"O. c #69848E",
"+. c #77848F",
"@. c #7B838F",
"#. c #7A9DA9",
"$. c #7EA5B1",
"%. c #828087",
"&. c #80848E",
"*. c #8C9BA5",
"=. c #849FAC",
"-. c #82A2AA",
";. c #92A3AE",
":. c #85A6B3",
">. c #8AA9B6",
",. c #87ACBA",
"<. c #9CAAB4",
"1. c #99AFBD",
"2. c #91B5C3",
"3. c #98BDCB",
"4. c #A6BBC7",
"5. c #A2BECA",
"6. c #99C0CC",
"7. c #A0C7D5",
"8. c #A3CEDD",
"9. c #B0CDD8",
"0. c #B2D0DB",
"q. c #AED8E8",
"w. c #B5D9E4",
"e. c #B2DCEB",
"r. c #BDDEEA",
"t. c #BAE0EE",
"y. c #BDE3F2",
"u. c #C3E7F6",
"i. c #C3E8F7",
"p. c #C5EBFA",
"a. c #CBEDFA",
"s. c None",
/* pixels */
"s.s.s.s.s.s.s.s.s.s.s.s.s.s.s.s.s.s.s.s.s.s.s.s.s.s.s.s.s.s.s.s.s.s.s.s.s.s.s.s.s.s.s.s.s.s.s.s.s.s.s.s.s.s.s.s.s.s.s.s.s.s.s.s.",
"s.s.s.s.s.s.s.s.s.s.s.s.s.s.s.s.s.s.s.s.s.s.s.s.s.s.s.s.s.s.s.s.s.s.s.s.s.s.s.s.s.s.s.s.s.s.s.s.s.s.s.s.s.s.s.s.s.s.s.s.s.s.s.s.",
"s.s.s.s.s.s.s.s.s.s.s.s.s.s.s.s.s.s.s.s.s.s.s.s.s.s.s.s.s.s.s.s.s.s.s.s.s.s.s.s.s.s.s.s.s.s.s.s.s.s.s.s.s.s.s.s.s.s.s.s.s.s.s.s.",
"s.s.s.s.s.s.s.s.s.s.s.s.s.s.s.s.s.s.s.s.s.s.s.s.s.s.s.s.s.s.s.s.s.s.s.s.s.s.s.s.s.s.s.s.s.s.s.s.s.s.s.s.s.s.s.s.s.s.s.s.s.s.s.s.",
"s.s.s.s.s.s.s.s.s.s.s.s.s.s.s.s.s.s.s.s.s.s.s.s.s.s.s.s.s.s.s.s.s.s.s.s.s.s.s.s.s.s.s.s.s.s.s.s.s.s.s.s.s.s.s.s.s.s.s.s.s.s.s.s.",
"s.s.s.s.s.s.s.s.s.s.s.s.s.s.s.s.s.s.s.s.s.s.s.s.s.s.s.s.s.s.s.s.s.s.s.s.s.s.s.s.s.s.s.s.s.s.s.s.s.s.s.s.s.s.s.s.s.s.s.s.s.s.s.s.",
"s.s.s.s.s.s.s.s.s.s.s.s.s.s.s.s.s.s.s.s.s.s.s.s.s.s.s.s.s.s.s.s.s.s.s.s.s.s.s.s.s.s.s.s.s.s.s.s.s.s.s.s.s.s.s.s.s.s.s.s.s.s.s.s.",
"s.s.s.s.s.s.s.s.s.s.s.s.s.s.s.s.s.s.s.s.s.s.s.s.s.s.s.s.s.s.s.s.s.s.s.s.s.s.s.s.s.s.s.s.s.s.s.s.s.s.s.s.s.s.s.s.s.s.s.s.s.s.s.s.",
"s.s.s.s.s.s.s.s.s.s.s.s.s.s.s.s.s.. s.s.M : < n m m v < , > & @ . s.s.s.s.s.s.s.s.s.s.s.s.s.s.s.s.s.s.s.s.s.s.s.s.s.s.s.s.s.s.s.",
"s.s.s.s.s.s.s.s.s.s.s.s.s.s.s.o = > M J ( ' ] { { { ] ] ] ] ' ( A n # . s.s.s.s.s.s.s.s.s.s.s.s.s.s.s.s.s.s.s.s.s.s.s.s.s.s.s.s.",
"s.s.s.s.s.s.s.s.s.s.s.s.s.. = n Q ` ] { ] ] ] ] ] ] ] ] ] ] ] ] ] ] ( N : X s.s.s.s.s.s.s.s.s.s.s.s.s.s.s.s.s.s.s.s.s.s.s.s.s.s.",
"s.s.s.s.s.s.s.s.s.s.s.s.$ 4 W ' { { ] ] ] ] ] ] ] ] ] ] ] ] ] ] ] ] ] ] _ Z * . s.s.s.s.s.s.s.s.s.s.s.s.s.s.s.s.s.s.s.s.s.s.s.s.",
"s.s.s.s.s.s.s.s.X s.s., G ` { { ] ] ] ] ] ] ] ] ] ] ] ] ] ] ] ] ] ] ] ] ] ' ! < O s.s.s.s.s.s.s.s.s.s.s.s.s.s.s.s.s.s.s.s.s.s.s.",
"s.s.s.s.s.s.s.& : + n ( { ] ] ] ] ] ] ] ] ] ] ] ] ] ] ] ] ] ] ] ] ] ] ] ] ] ] ` N #   s.s.s.s.s.s.s.s.s.s.s.s.s.s.s.s.s.s.s.s.s.",
"s.s.s.s.s.s.s.m _ < n ' { ] ] ] ] ] ] ] ] ] ] ] ] ] ] ] ] ] ] ] ] ] ] ] ] ] ] { ' J * O # s.s.s.s.s.s.s.s.s.s.s.s.s.s.s.s.s.s.s.",
"s.s.s.s.s.s.s.Q { ( m N ' { ] ] ] ] ] ] ] ] ] ] ] ] ] ] ] ] ] ] ] ] ] ] ] ] ] ] { ] E > : , s.s.s.s.s.s.s.s.s.s.s.s.s.s.s.s.s.s.",
"s.s.s.s.s.s.> ` ] ] ( v N ' { ] ] ] ] ] ] ] ] ] ] ] ] ] ] ] ] ] ] ] ] ] ] ] ] ] ] ] ] J n A Z n s.s.s.s.s.s.s.s.s.s.s.s.s.s.s.s.",
"s.s.s.s.s.# N ] { ] ] / m A ' { ] ] ] ] ] ] ] ] ] ] ] ] ] ] ] ] ] ] ] ] ] ] ] ] ] ] ] ] F M ( _ A : % s.s.s.s.s.s.s.s.s.s.s.s.s.",
"s.s.s.s.s., E { ] ] { { / M A ' { ] ] ] ] ] ] ] ] ] ] ] ] ] ] ] ] ] ] ] ] ] ] ] ] ] ] ] ' Z Z ] { ` F , = s.s.s.s.s.s.s.s.s.s.s.",
"s.s.s.s.  > _ { ] ] ] ] ] / M G ' { ] ] ] ] ] ] ] ] ] ] ] ] ] ] ] ] ] ] ] ] ] ] ] ] ] { { ( M E { { { { Q , = s.s.s.s.s.s.s.s.s.",
"s.s.s.s.. M ' { ] ] ] ] { { ( M F ' ] ] ] ] { ] ] ' ] ] ] ] ] ] ] ] ] ] ] ] ] ] ] ] ] ] ] ] G M _ { { ] { ] / m # s.s.s.s.s.s.s.",
"s.s.s.s.% E { ] ] ] ] ] ] { { W m A ] ] ] ` / / W E ! ( ` ' ] ] ] ] ] ] ] ] ] ] ] ] ] ] ] { ` M G { ] ] ] ] { ] / M % s.s.s.s.s.",
"s.s.s.s., ( { ] { ] ] ] ] ] ] ] Q m F / G N m n < , : - 0 I ( ] ] ] ] ] ] ] ] ] ] ] ] ] ] ] { G N ` { ] ] ] ] { { { _ N % s.s.s.",
"s.s.s.s.M _ ] ] ] ] ] ] ] ] ] ] ] F * & = m W ` ] ] ) d $.o.e N ` { ] ] ] ] ] ] ] ] ] ] ] ] ] ' M W { { ] ] ] ] ] ] ] ] ` N O s.",
"s.s.s.  m ' { ] ] ] ] ] ] ] ] ] ' Z > > n A J W ! _ ' L 1.t.6.h 6 ^ { ] ] ] ] ] ] ] ] ] ] ] ] { Z Z ` ] ] ] ] ] ] ] ] ] { ( @ s.",
"s.s.s.O F { { ] ] ] ] ] ] ] ] ] A m W ' _ ( / H V V S , &.w.a.w...7 ^ ] ] ] ] ] ] ] ] ] ] ] ] ] / m ) ] ] ] ] ] ] ] ] ] { ( @ s.",
"s.s.s.O ! { ] ] ] ] ] ] ] ] ] G n / { { { ] { { ] ` Q b r ;.t.a.e.h n ' ] ] ] ] ] ] ] ] ] ] ] ] { n / ] ] ] ] ] ] ] ] ] { ( + s.",
"s.s.s.# ) ] ] ] ] ] ] ] ] { _ < E ] { { ] { { { ] { { ] ^ P c 9.a.8.s K ] { ] ] ] ] ] ] ] ] ] ] { Z F ] ] ] ] ] ] ] ] ] { ( O s.",
"s.s.s.% _ ] ] ] ] ] ] ] ] { Z M ' { ] ] ] ] { { ] ] ] ] ] ' D g 0.a.#.1 _ ] ] ] ] ] ] ] ] ] ] ] { W 4 F Q ! / ( _ ` ` ` ' W O s.",
"s.s.s.= ' ] ] ] ] ] ] ] ] ] < ! ] ] ] ] ] ] { { ] ] ] ] ] ] ] H X.t.q.s E ] ] ] ] ] ] ] ] ] ] ] { ( @ # # $ % $ $ % % & & %   s.",
"s.s.s.> ] ] ] ] ] ] ] ] ] _ 4 ' ] ] ] ] ] ] ] ] ] ] ] ] ] ] ] ] T 6.a.O.V ] ] ] ] ] ] ] ] ] ] ] ] ` @ s.s.s.s.s.s.s.s.s.s.s.s.s.",
"s.s.s.> ] ] ] ] ] ] ] { ] E n ] ] ] ] ] ] ] ] ] ] ] ] ] ] ] ] ] F &.i.$.1 ] ] ] ] ] ] ] ] ] ] ] ] ' * s.s.s.s.s.s.s.s.s.s.s.s.s.",
"s.s.s., ] ] ] ] ] ] ] ] { G M { ] ] ] { ] ] ] ] ] ] ] ] ] ] ] ] ^ x u.6.8 ' ] ] ] ] ] ] ] ] ] ] ] ' = s.s.s.s.s.s.s.s.s.s.s.s.s.",
"s.s.s.< ] ] ] ] ] ] ] ] ] G M { ] ] ] ] ] ] ] ] ] ] ] ] ] ] ] ] ( x u.6.; ] ] ] ] ] ] ] ] ] ] ] ] ] : s.s.s.s.s.s.s.s.s.s.s.s.s.",
"s.s.s.< { ] ] ] ] ] ] ] ] E m { ] ] ] ] ] ] ] ] ] ] ] ] ] ] { ] / &.p.3.2 ] ] ] ] ] ] ] ] ] ] ] ] ' = s.s.s.s.s.s.s.s.s.s.s.s.s.",
"s.s.s.> { ] ] ] ] ] ] ] ] ( < ] ] ] ] ] ] ] ] ] ] ] ] ] ] ] { ] [ <.i.-.4 ] ] ] ] ] ] ] ] ] ] ] ] ` % s.s.s.s.s.s.s.s.s.s.s.s.s.",
"s.s.s.: ] ] ] ] ] ] ] ] ] ` n / ] ] ] ] ] ] ] ] ] ] ] ] { { { _ | w.w.x C ] ] ] ] ] ] ] ] ] ] ] ] ( @ s.s.s.s.s.s.s.s.s.s.s.s.s.",
"s.s.s.= ] ] ] ] ] ] ] ] ] ' A M ] ] ] ] ] ] ] ] ] ] ] ] { { _ R ;.p.7.s ^ ] ] ] ] ] ] ] ] ] ] ] ] E X s.s.s.s.s.s.s.s.s.s.s.s.s.",
"s.s.s.* ' { ] ] ] ] ] ] ] ] ( 4 / { ] ] ] ] ] ] { { ] ] { ( } *.p.t.@.M ] ] ] ] ] ] ] ] ] ] ] ] ' N o s.s.s.s.s.s.s.s.s.s.s.s.s.",
"s.s.s.& ` { ] ] ] ] ] ] ] ] ' Z n ` { { ] ] ] ] ] ' ` ! P  .5.i.u.>.y ^ ] ] ] ] ] ] ] ] ] ] ] ] ` 4 < F F A A Z N N N N M > X s.",
"s.s.s.$ / { { ] ] ] ] ] ] ] ] _ V C _ _ ( ( ( ( / J V w -.t.i.t.,.r F ] ] ] ] ] ] ] ] ] ] ] ] ] / , / { { { { { { { { { ] A o s.",
"s.s.s.s.Q { ] ] ] ] ] ] ] ] ] ] ~ 3 : b I S D I H W H l t.u.e.:.p A ] ] ] ] ] ] ] ] ] ] ] ] ] ] F , ' ] ] ] ] ] { { ] ] ' A O s.",
"s.s.s.s.F { ] ] ] ] ] ] ] ] ] ] J , : > b J ` ] ] ' Y +.q.1.j t E ] ] ] ] ] ] ] ] ] ] ] ] ] ] _ m N { ] ] ] ] ] ] ] ] ] ' Z o s.",
"s.s.s.s.Z { ] ] ] ] ] ] ] { ' F < J ` J m V C G ! W q h h 9 N _ ] ] ] ] ] ] ] ] ] ] ] ] ] ] ] J < / { ] { ] ] ] ] ] ] { ] M o s.",
"s.s.s.s.n { ] ] ] ] ] ] { ' A m E ] ] ] ` J M v v , , b G ` ] ] ] ] ] ] ] ] ] ] ] ] ] ] ] ] _ b M ] ] ] ] ] ] ] ] { { { ` n o s.",
"s.s.s.s.: ` ] ] ] ] ] { ` N M / ] ] ] ] ] ] ] ] ' ] ] ] ] ] ] ] ] ] ] ] ] ] ] ] ] ] ] ] ] ] A < / { ] ] { { ] ] ] ] ` Q , % s.s.",
"s.s.s.s.n ! { ] ] ] ] ` M m / ] ] ] ] ] ] ] ] ] ] ] ] ] ] ] ] ] ] ] ] ] ] ] ] ] ] ] ] ] ] ^ < A ] ] ] ] { { ] ' / Z = s.s.s.s.s.",
"s.s.s.s.* F ] ] ] { _ m m ( ] ] ] ] ] ] ] ] ] ] ] ] ] ] ] ] ] ] ] ] ] ] ] ] ] ] ] ] ] ] ` m m ` { ] { ] ` / A v $ s.s.s.s.s.s.s.",
"s.s.s.s.o N ] ] { ( m N ) { { ] ] ] ] ] ] ] ] ] ] ] ] ] ] ] ] ] ] ] ] ] ] ] ] ] ] ] ] { A n ! { { ] ) G N * X s.s.s.s.s.s.s.s.s.",
"s.s.s.s.  < ' { ( n N _ { { ] ] ] ] ] ] ] ] ] ] ] ] ] ] ] ] ] ] ] ] ] ] ] ] ] ] ] { { J 4 E { ' / N 4 # s.s.s.s.s.s.s.s.s.s.s.s.",
"s.s.s.s.s., ( / > A ` ] ] ] ] ] ] ] ] ] ] ] ] ] ] ] ] { ] ] ] ] ] ] ] ] ] ] ] ] ] ] J n F ! A , = O s.s.s.s.s.s.s.s.s.s.s.s.s.s.",
"s.s.s.s.s.% M & O N ] { ] ] ] ] ] ] ] ] ] ] ] ] ] ] ] ] ] ] ] ] ] ] ] ] ] ] { { { A > n n m %   s.s.s.s.s.s.s.s.s.s.s.s.s.s.s.s.",
"s.s.s.s.s.  o s.s.# 4 _ { ] ] ] { { { ] ] ] ] ] ] ] ] ] ] ] ] ] ] ] ] ] { { { { N + + > s.s.s.s.s.s.s.s.s.s.s.s.s.s.s.s.s.s.s.s.",
"s.s.s.s.s.s.s.s.s.s.s.> F ] { { { { { ] ] ] ] ] ] ] ] ] ] ] ] ] ] ] ] { { { / , O s.s.s.s.s.s.s.s.s.s.s.s.s.s.s.s.s.s.s.s.s.s.s.",
"s.s.s.s.s.s.s.s.s.s.s.s.# , E ' { { ] ] ] ] ] ] ] ] ] ] ] ] ] ] ] ] ] { ) Z % s.s.s.s.s.s.s.s.s.s.s.s.s.s.s.s.s.s.s.s.s.s.s.s.s.",
"s.s.s.s.s.s.s.s.s.s.s.s.s.s.% 4 G ) ] { { ] ] ] ] ] ] ] ] ] ] { ] ] / M % s.s.s.s.s.s.s.s.s.s.s.s.s.s.s.s.s.s.s.s.s.s.s.s.s.s.s.",
"s.s.s.s.s.s.s.s.s.s.s.s.s.s.s.s.s.> M J / _ ` ] ] ] ] ] ' ] ' ( F > @ s.s.s.s.s.s.s.s.s.s.s.s.s.s.s.s.s.s.s.s.s.s.s.s.s.s.s.s.s.",
"s.s.s.s.s.s.s.s.s.s.s.s.s.s.s.s.s.s.@ = v > m A F J J A A n * + s.s.s.s.s.s.s.s.s.s.s.s.s.s.s.s.s.s.s.s.s.s.s.s.s.s.s.s.s.s.s.s.",
"s.s.s.s.s.s.s.s.s.s.s.s.s.s.s.s.s.s.s.s.s.    o o o O X s.s.s.s.s.s.s.s.s.s.s.s.s.s.s.s.s.s.s.s.s.s.s.s.s.s.s.s.s.s.s.s.s.s.s.s.",
"s.s.s.s.s.s.s.s.s.s.s.s.s.s.s.s.s.s.s.s.s.s.s.s.s.s.s.s.s.s.s.s.s.s.s.s.s.s.s.s.s.s.s.s.s.s.s.s.s.s.s.s.s.s.s.s.s.s.s.s.s.s.s.s.",
"s.s.s.s.s.s.s.s.s.s.s.s.s.s.s.s.s.s.s.s.s.s.s.s.s.s.s.s.s.s.s.s.s.s.s.s.s.s.s.s.s.s.s.s.s.s.s.s.s.s.s.s.s.s.s.s.s.s.s.s.s.s.s.s.",
"s.s.s.s.s.s.s.s.s.s.s.s.s.s.s.s.s.s.s.s.s.s.s.s.s.s.s.s.s.s.s.s.s.s.s.s.s.s.s.s.s.s.s.s.s.s.s.s.s.s.s.s.s.s.s.s.s.s.s.s.s.s.s.s.",
"s.s.s.s.s.s.s.s.s.s.s.s.s.s.s.s.s.s.s.s.s.s.s.s.s.s.s.s.s.s.s.s.s.s.s.s.s.s.s.s.s.s.s.s.s.s.s.s.s.s.s.s.s.s.s.s.s.s.s.s.s.s.s.s.",
"s.s.s.s.s.s.s.s.s.s.s.s.s.s.s.s.s.s.s.s.s.s.s.s.s.s.s.s.s.s.s.s.s.s.s.s.s.s.s.s.s.s.s.s.s.s.s.s.s.s.s.s.s.s.s.s.s.s.s.s.s.s.s.s."
};
