/* XPM */
static char *_[] = {
/* columns rows colors chars-per-pixel */
"64 64 137 2 ",
"   c #020000",
".  c #0C0001",
"X  c #150002",
"o  c #1C0003",
"O  c #230004",
"+  c #2C0005",
"@  c #340006",
"#  c #3C0007",
"$  c #3D0008",
"%  c #430008",
"&  c #4C0009",
"*  c #54000A",
"=  c #5B000B",
"-  c #5C121C",
";  c #64000C",
":  c #6C000D",
">  c #73000E",
",  c #7C000F",
"<  c #7D0110",
"1  c #551720",
"2  c #661722",
"3  c #54202A",
"4  c #5A252E",
"5  c #582630",
"6  c #5E2933",
"7  c #57343D",
"8  c #60212C",
"9  c #69202C",
"0  c #672935",
"q  c #662F3A",
"w  c #732531",
"e  c #7E313E",
"r  c #4E3F47",
"t  c #543D46",
"y  c #673440",
"u  c #793A47",
"i  c #6D4E56",
"p  c #7C525D",
"a  c #795661",
"s  c #506870",
"d  c #76636C",
"f  c #616670",
"g  c #6D6671",
"h  c #7D6570",
"j  c #766E78",
"k  c #6D757F",
"l  c #81000F",
"z  c #99000F",
"x  c #840010",
"c  c #8B0011",
"v  c #810919",
"b  c #930112",
"n  c #9C0013",
"m  c #9D0719",
"M  c #920D1E",
"N  c #A30014",
"B  c #AC0015",
"V  c #A30618",
"C  c #A80518",
"Z  c #AD0B1F",
"A  c #B40016",
"S  c #BC0016",
"D  c #B10318",
"F  c #BB0319",
"G  c #BE091E",
"H  c #8F1828",
"J  c #901B2A",
"K  c #981B2B",
"L  c #AE0F22",
"P  c #B10F24",
"I  c #A01E2F",
"U  c #A91B2E",
"Y  c #892C3A",
"T  c #9E2335",
"R  c #C20016",
"E  c #CA0013",
"W  c #C40118",
"Q  c #CC0119",
"!  c #D40015",
"~  c #D90016",
"^  c #D4001A",
"/  c #DC001B",
"(  c #E40016",
")  c #E3001C",
"_  c #EC001D",
"`  c #F4001E",
"'  c #FF001F",
"]  c #C50C24",
"[  c #FF0020",
"{  c #8F4855",
"}  c #955B68",
"|  c #8B616C",
" . c #6E7782",
".. c #A37E8A",
"X. c #66828C",
"o. c #6F838F",
"O. c #73828F",
"+. c #7E838C",
"@. c #6F949F",
"#. c #76949D",
"$. c #7895A1",
"%. c #7A9BA7",
"&. c #838892",
"*. c #888892",
"=. c #85919A",
"-. c #8497A4",
";. c #84A5B3",
":. c #88A9B6",
">. c #85ACB9",
",. c #95A9B3",
"<. c #A7A7B2",
"1. c #8FBAC6",
"2. c #97B6C1",
"3. c #96BECA",
"4. c #A2BDC9",
"5. c #9FC9D7",
"6. c #ABC2CE",
"7. c #A4C6D1",
"8. c #A4CEDC",
"9. c #A2D0DE",
"0. c #AAD2DF",
"q. c #B1D1DE",
"w. c #B9D2DF",
"e. c #ACD5E3",
"r. c #B2D9E6",
"t. c #B4DBEA",
"y. c #BEDDEC",
"u. c #B6DFF0",
"i. c #BCE1EE",
"p. c #BAE6F5",
"a. c #BDECFD",
"s. c #C0DDEA",
"d. c #C2E5F3",
"f. c #C4E8F7",
"g. c #C3EAF9",
"h. c #CBEDFA",
"j. c None",
/* pixels */
"j.j.j.j.j.j.j.j.j.j.j.j.j.j.j.j.j.j.j.j.j.j.j.j.j.j.j.j.j.j.j.j.j.j.j.j.j.j.j.j.j.j.j.j.j.j.j.j.j.j.j.j.j.j.j.j.j.j.j.j.j.j.j.j.",
"j.j.j.j.j.j.j.j.j.j.j.j.j.j.j.j.j.j.j.j.j.j.j.j.j.j.j.j.j.j.j.j.j.j.j.j.j.j.j.j.j.j.j.j.j.j.j.j.j.j.j.j.j.j.j.j.j.j.j.j.j.j.j.j.",
"j.j.j.j.j.j.j.j.j.j.j.j.j.j.j.j.j.j.j.j.j.j.j.j.j.j.j.j.j.j.j.j.j.j.j.j.j.j.j.j.j.j.j.j.j.j.j.j.j.j.j.j.j.j.j.j.j.j.j.j.j.j.j.j.",
"j.j.j.j.j.j.j.j.j.j.j.j.j.j.j.j.j.j.j.j.j.j.j.j.j.j.j.j.j.j.j.j.j.j.j.j.j.j.j.j.j.j.j.j.j.j.j.j.j.j.j.j.j.j.j.j.j.j.j.j.j.j.j.j.",
"j.j.j.j.j.j.j.j.j.j.j.j.j.j.j.j.j.j.j.j.j.j.j.j.j.j.j.j.j.j.j.j.j.j.j.j.j.j.j.j.j.j.j.j.j.j.j.j.j.j.j.j.j.j.j.j.j.j.j.j.j.j.j.j.",
"j.j.j.j.j.j.j.j.j.j.j.j.j.j.j.j.j.j.j.j.j.j.j.j.j.j.j.j.j.j.j.j.j.j.j.j.j.j.j.j.j.j.j.j.j.j.j.j.j.j.j.j.j.j.j.j.j.j.j.j.j.j.j.j.",
"j.j.j.j.j.j.j.j.j.j.j.j.j.j.j.j.j.j.j.j.j.j.j.j.j.j.j.j.j.j.j.j.j.j.j.j.j.j.j.j.j.j.j.j.j.j.j.j.j.j.j.j.j.j.j.j.j.j.j.j.j.j.j.j.",
"j.j.j.j.j.j.j.j.j.j.j.j.j.j.j.j.j.j.j.j.j.j.j.j.j.j.j.j.j.j.j.j.j.j.j.j.j.j.j.j.j.j.j.j.j.j.j.j.j.j.j.j.j.j.j.j.j.j.j.j.j.j.j.j.",
"j.j.j.j.j.j.j.j.j.j.j.j.j.j.j.j.j.j.j.j.j.j.j.j.= = = % + X j.j.j.j.j.j.j.j.j.j.j.j.j.j.j.j.j.j.j.j.j.j.j.j.j.j.j.j.j.j.j.j.j.j.",
"j.j.j.j.j.j.j.j.j.j.j.j.j.j.j.j.j.j.@ * > c N B S W ^ ^ ^ S n ; @ + j.j.j.j.j.j.j.j.j.j.j.j.j.j.j.j.j.j.j.j.j.j.j.j.j.j.j.j.j.j.",
"j.j.j.j.j.j.j.j.j.j.j.j.j.j.j.O ; N Q _ ' [ [ [ ' ' [ ' ' ' ' ' / B ; * j.j.j.j.j.j.j.j.j.j.j.j.j.j.j.j.j.j.j.j.j.j.j.j.j.j.j.j.",
"j.j.j.j.j.j.j.j.j.j.j.j.j.@ < S ` ' ' [ ' ' ' ' ' ' ' ' ' ' ' ' ' [ ' Q , & j.j.j.j.j.j.j.j.j.j.j.j.j.j.j.j.j.j.j.j.j.j.j.j.j.j.",
"j.j.j.j.j.j.j.j.j.j.j.X ; A ` ' ' ' ' ' ' ' ' ' ' ' ' ' ' ' ' ' ' ' ' [ ' R > +   j.j.j.j.j.j.j.j.j.j.j.j.j.j.j.j.j.j.j.j.j.j.j.",
"j.j.j.j.j.j.j.j.j.j.@ , ^ ' ' ' ' ' ' ' ' ' ' ' ' ' ' ' ' ' ' ' ' ' ' ' [ [ ` A = O $ o j.j.j.j.j.j.j.j.j.j.j.j.j.j.j.j.j.j.j.j.",
"j.j.j.j.j.j.j.j.j.= n _ ' ' ' ' ' ' ' ' ' ' ' ' ' ' ' ' ' ' ' ' ' ' ' ' ' [ [ [ / < ; n > @ j.j.j.j.j.j.j.j.j.j.j.j.j.j.j.j.j.j.",
"j.j.j.j.j.j.@ j.; B ` ' ' ' ' ' ' ' ' ' ' ' ' ' ' ' ' ' ' ' ' ' ' ' ' ' ' ' ' ' [ ) n x ) Q N = O j.j.j.j.j.j.j.j.j.j.j.j.j.j.j.",
"j.j.j.j.j.$ B * ; _ [ ' ' ' ' ' ' ' ' ' ' ' ' ' ' ' ' ' ' ' ' ' ' ' ' ' ' ' ' ' ' ' _ N b ' [ _ R x ; j.j.j.j.j.j.j.j.j.j.j.j.j.",
"j.j.j.j.j.: [ ^ c n ) [ ' ' ' ' ' ' ' ' ' ' ' ' ' ' ' ' ' ' ' ' ' ' ' ' ' ' ' ' ' ' ' _ x B ' [ [ [ _ A x N & . j.j.j.j.j.j.j.j.",
"j.j.j.j.j.B [ [ ) c c / [ ' ' ' ' ' ' ' ' ' ' ' ' ' ' ' ' ' ' ' ' ' ' ' ' ' ' ' ' ' ' [ / x R [ [ ' [ [ ' / A < ; O j.j.j.j.j.j.",
"j.j.j.j.o Q ' ' ' ) n x Q ' [ ' ' ' ' ' ' ' ' ' ' ' ' ' ' ' ' ' ' ' ' ' ' ' ' ' ' ' [ [ [ R c ) ' [ [ [ ' [ [ ` / S x @ j.j.j.j.",
"j.j.j.j.& ) ' ' ' [ ` A c S ' ' ' ' ' ' ' ' ' ' ' ' ' ' ' ' ' ' ' ' ' ' ' ' ' ' ' ' ' ' ' ' b A ` ' ' ' ' ' [ [ [ ' ` / n o j.j.",
"j.j.j.j.x _ [ ' ' [ [ [ Q c A ` ' ' ' ' ' [ ' ' ` ' ' ' ' ' ' ' ' ' ' ' ' ' ' ' ' ' ' ' ' [ / b ^ ' ' ' ' ' ' ' ' ' [ [ ) % j.j.",
"j.j.j.  c ` [ ' ' ' ' ' [ / b n _ ' ' ' ` / W B z l v b S _ ' ' ' ' ' ' ' ' ' ' ' ' ' ' ' ' [ N N _ [ ' ' ' ' ' ' ' ' [ ) * j.j.",
"j.j.j.X N ' ' ' ' ' ' ' [ [ ) b c / ' ) N c c n V z q k g 8 n ( ' ' ' ' ' ' ' ' ' ' ' ' ' ' [ ^ b Q [ [ ' ' ' ' ' ' ' [ _ = j.j.",
"j.j.j.% S [ [ ' ' ' ' ' ' [ ' _ N > , ; < S ) ` ' ' T -.0.2.f 2 S ' ' ' ' ' ' ' ' ' ' ' ' ' ' ' B N ' ' ' ' ' ' ' ' ' ' _ :   j.",
"j.j.j., R [ [ ' ' ' ' ' ' ' ' [ ) : + = m S R F F Q m h w.h.i.%.7 z ` ' ' ' ' ' ' ' ' ' ' ' ' ' ^ n / ' ' ' ' ' ' ' ' ' ) :   j.",
"j.j.j.j.Q ' ' ' ' ' ' ' ' ' [ ` N x Q / Q Q W D D D c 4 #.i.h.f.:.7 N ' ' ' ' ' ' ' ' ' ' ' ' [ _ n c S N n c , : ; = * % +   j.",
"j.j.j.& / [ ' ' ' ' ' ' ' [ [ S x / [ ' [ [ [ [ ' _ / W K p ,.d.f.;.0 E ' ' ' ' ' ' ' ' ' ' ' ' ` B O $ # j.j.j.j.j.j.j.j.j.j.j.",
"j.j.j.* _ ' ' ' ' ' ' ' ' [ ) c A [ ' ' ' ' [ [ ' ' ' ' ` Q Y &.i.i.O.: ` ' ' ' ' ' ' ' ' ' ' ' ' R o j.j.j.j.j.j.j.j.j.j.j.j.j.",
"j.j.j.* ' ' ' ' ' ' ' ' ' ' R x ` ' ' ' ' ' [ [ ' ' ' ' ' ' ) T =.f.8.t E ' ' ' ' ' ' ' ' ' ' ' ' ) % j.j.j.j.j.j.j.j.j.j.j.j.j.",
"j.j.j.= ' ' ' ' ' ' ' ' ' ` c A [ ' ' ' ' ' [ [ ' ' ' ' ' ' ' _ e 7.f.o.c ' ' ' ' ' ' ' ' ' ' ' ' ` * j.j.j.j.j.j.j.j.j.j.j.j.j.",
"j.j.j.= ' ' ' ' ' ' ' ' ' _ , ) ' ' ' ' ' ' ' ' ' ' ' ' ' ' ' ' A &.f.:.- ` ' ' ' ' ' ' ' ' ' ' ' ' ; j.j.j.j.j.j.j.j.j.j.j.j.j.",
"j.j.j.; ' ' ' ' ' ' ' ' [ / x ' ' ' ' ' ' ' ' ' ' ' ' ' ' ' ' ' ! d f.7.3 _ ' ' ' ' ' ' ' ' ' ' ' ' ; j.j.j.j.j.j.j.j.j.j.j.j.j.",
"j.j.j.: ' ' ' ' ' ' ' [ [ R x ` ' ' ' ' ' ' ' ' ' ' ' ' ' ' ' ' ( p i.9.5 _ ' ' ' ' ' ' ' ' ' ' ' ' ; j.j.j.j.j.j.j.j.j.j.j.j.j.",
"j.j.j.; ` ' ' ' ' ' ' [ [ R b ' ' ' ' ' ' ' ' ' ' ' ' ' ' ' ' ' ( } s.e.0 _ ' ' ' ' ' ' ' ' ' ' ' ' = j.j.j.j.j.j.j.j.j.j.j.j.j.",
"j.j.j.; _ ' ' ' ' ' [ [ [ Q c _ ' ' ' ' ' ' ' ' ' ' ' ' ' ' ' ' ! *.d.,.w ) ' ' ' ' ' ' ' ' ' ' ' ' & j.j.j.j.j.j.j.j.j.j.j.j.j.",
"j.j.j.; ) ' ' ' ' ' ' ' ' / c ) ' ' ' ' ' ' ' ' ' ' ' ' ' ' ' ' U <.p.@.J ) ' ' ' ' ' ' ' ' ' ' ' / & $ j.j.c c c c c b m b % j.",
"j.j.j.; ^ [ ' ' ' ' ' ' ' ' c W ' ' ' ' ' ' ' ' ' ' ' ' ' ' ' R | q.p.k L ' ' ' ' ' ' ' ' ' ' ' [ W > b W W ^ / ) _ ` ' ' ` , j.",
"j.j.j.& R [ ' ' ' ' ' ' ' ' B n ( ' ' ' ' ' ' ' ' ' ' ' ' ' ^ { 6.h.7.u ! ' ' ' ' ' ' ' ' ' ' ' [ B x ) [ [ [ [ [ [ ' ' ' ` c O ",
"j.j.j.$ N ' ' ' ' ' ' ' ' [ ) n A ' ' ' ' ' ' ' ' ' ' ' / L } 6.g.r.k M ` ' ' ' ' ' ' ' ' ' ' ' ' n x ' [ ' ' ' [ [ ' ' ' ` b o ",
"j.j.j.j.b ' ' ' ' ' ' ' ' ' ' W l W ' ' ' [ [ [ [ _ / V w &.w.d.i.%.9 ! ' ' ' ' ' ' ' ' ' ' ' ' _ b n [ ' ' ' ' [ [ ' ' ' ' n o ",
"j.j.j.j.: ' ' ' ' ' ' ' ' ' [ ` A l ^ ' ` _ ) ^ W F G V i 0.g.i.%.y S [ ' ' ' ' ' ' ' ' ' ' ' ' ^ , W [ ' ' ' ' ' ' ' ' [ ` n O ",
"j.j.j.j.* _ ' ' ' ' ' ' ' ' ' [ ` A , n V m Z D G ^ ) ] j a.9.X.6 R ' ' ' ' ' ' ' ' ' ' ' ' ' ' A > ` [ ' ' ' ' ' [ [ ' / x % j.",
"j.j.j.j.@ Q ' ' ' ' ' ' ' ' ' ' ' _ < @ = b F / ` ' ' P s @.r v ~ ' ' ' ' ' ' ' ' ' ' ' ' ' ' _ , N [ ' ' ' ' [ [ [ Q x % j.j.j.",
"j.j.j.j.j.B [ [ ' ' ' ' ' ' [ [ ` N , Q B , c n n N b ; 1 H R ' ' ' ' ' ' ' ' ' ' ' ' ' ' ' ' W ; ) ' ' ' ' [ ' Q c $ j.j.j.j.j.",
"j.j.j.j.j.b [ [ ' ' ' ' ' [ [ [ S : ! ' ' ` R C n B A R / _ ' [ ' ' ' ' ' ' ' ' ' ' ' ' ' ' ` > N ' ' ' ' ` S < $ j.j.j.j.j.j.j.",
"j.j.j.j.j.; [ ' ' ' ' ' ' [ [ S x ^ ' ' ' ' ' ' ' ' ' ' ' ' ' ' ' ' ' ' ' ' ' ' ' ' ' ' ' ' B : ) ' ' ` Q c l j.j.j.j.j.j.j.j.j.",
"j.j.j.j.j.@ ) ' ' ' ' ' ' ' R , W ' ' ' ' ' ' ' ' ' ' ' ' ' ' ' ' ' ' ' ' ' ' ' ' ' ' ' ' _ > F ' ` ) b > O j.j.j.j.j.j.j.j.j.j.",
"j.j.j.j.j.. B ' ' ' ' ' [ Q , S ' ' ' ' ' ' ' ' ' ' ' ' ' ' ' ' ' ' ' ' ' ' ' ' ' ' [ [ ` b b ` ) n ; o j.j.j.j.j.j.j.j.j.j.j.j.",
"j.j.j.j.j.j.c _ ' ' ' [ / , B ` ' ' ' ' ' ' ' ' ' ' ' ' ' ' ' ' ' ' ' ' ' ' ' ' ' ' [ [ n x W B &   j.j.j.j.j.j.j.j.j.j.j.j.j.j.",
"j.j.j.j.j.j.& Q ' ' [ ) c N _ [ ' ' ' ' ' ' ' ' ' ' ' ' ' ' ' ' ' ' ' ' ' ' ' ' ' [ [ n ; x * j.j.j.j.j.j.j.j.j.j.j.j.j.j.j.j.j.",
"j.j.j.j.j.j.X B ' ' _ c b _ ' ' ' ' ' ' ' ' ' ' ' ' ' ' ' ' ' ' ' ' ' ' ' ' ' ' ' [ B + o j.j.j.j.j.j.j.j.j.j.j.j.j.j.j.j.j.j.j.",
"j.j.j.j.j.j.  , _ ` n b ) ' ' ' ' ' ' ' ' ' ' ' ' ' ' ' ' ' ' ' ' ' ' ' ' ' ' ' ` b +   j.j.j.j.j.j.j.j.j.j.j.j.j.j.j.j.j.j.j.j.",
"j.j.j.j.j.j.j.; A N @ c ' [ ' ' ' ' ' ' ' ' ' ' ' ' ' ' ' ' ' ' ' ' ' ' ' ' ' ^ < @ j.j.j.j.j.j.j.j.j.j.j.j.j.j.j.j.j.j.j.j.j.j.",
"j.j.j.j.j.j.j.j.& % . & l Q [ [ ' ' [ ' ' ' ' ' ' ' ' ' ' ' ' ' ' ' ' ' ' _ B > j.j.j.j.j.j.j.j.j.j.j.j.j.j.j.j.j.j.j.j.j.j.j.j.",
"j.j.j.j.j.j.j.j.  j.j.j.j.: c / ' [ [ [ ' ' ' ' ' ' ' ' ' ' ' ' ' ' ' _ W l & j.j.j.j.j.j.j.j.j.j.j.j.j.j.j.j.j.j.j.j.j.j.j.j.j.",
"j.j.j.j.j.j.j.j.j.j.j.j.j.j.@ # , Q ` [ ' ' ' [ [ [ [ [ ' [ [ [ ' ) S c %   j.j.j.j.j.j.j.j.j.j.j.j.j.j.j.j.j.j.j.j.j.j.j.j.j.j.",
"j.j.j.j.j.j.j.j.j.j.j.j.j.j.j.j.j.O * n S ^ / / _ _ ` ` ` _ Q B , % o j.j.j.j.j.j.j.j.j.j.j.j.j.j.j.j.j.j.j.j.j.j.j.j.j.j.j.j.j.",
"j.j.j.j.j.j.j.j.j.j.j.j.j.j.j.j.j.j.j.j.o $ ; x ; ; > ; * & @ j.j.j.j.j.j.j.j.j.j.j.j.j.j.j.j.j.j.j.j.j.j.j.j.j.j.j.j.j.j.j.j.j.",
"j.j.j.j.j.j.j.j.j.j.j.j.j.j.j.j.j.j.j.j.j.j.j.j.    j.j.j.j.j.j.j.j.j.j.j.j.j.j.j.j.j.j.j.j.j.j.j.j.j.j.j.j.j.j.j.j.j.j.j.j.j.j.",
"j.j.j.j.j.j.j.j.j.j.j.j.j.j.j.j.j.j.j.j.j.j.j.j.j.j.j.j.j.j.j.j.j.j.j.j.j.j.j.j.j.j.j.j.j.j.j.j.j.j.j.j.j.j.j.j.j.j.j.j.j.j.j.j.",
"j.j.j.j.j.j.j.j.j.j.j.j.j.j.j.j.j.j.j.j.j.j.j.j.j.j.j.j.j.j.j.j.j.j.j.j.j.j.j.j.j.j.j.j.j.j.j.j.j.j.j.j.j.j.j.j.j.j.j.j.j.j.j.j.",
"j.j.j.j.j.j.j.j.j.j.j.j.j.j.j.j.j.j.j.j.j.j.j.j.j.j.j.j.j.j.j.j.j.j.j.j.j.j.j.j.j.j.j.j.j.j.j.j.j.j.j.j.j.j.j.j.j.j.j.j.j.j.j.j.",
"j.j.j.j.j.j.j.j.j.j.j.j.j.j.j.j.j.j.j.j.j.j.j.j.j.j.j.j.j.j.j.j.j.j.j.j.j.j.j.j.j.j.j.j.j.j.j.j.j.j.j.j.j.j.j.j.j.j.j.j.j.j.j.j."
};
