/* XPM */
static char *_8[] = {
/* columns rows colors chars-per-pixel */
"64 64 146 2 ",
"   c #020000",
".  c #0E0001",
"X  c #150002",
"o  c #1B0003",
"O  c #250004",
"+  c #2C0005",
"@  c #340006",
"#  c #3B0007",
"$  c #3E0008",
"%  c #430008",
"&  c #4D0009",
"*  c #55000A",
"=  c #5B000B",
"-  c #5E0A13",
";  c #55111B",
":  c #63000C",
">  c #6B000D",
",  c #74000E",
"<  c #7B000F",
"1  c #690C1A",
"2  c #720311",
"3  c #7D0413",
"4  c #6C1823",
"5  c #711A26",
"6  c #741D2B",
"7  c #4C262E",
"8  c #502029",
"9  c #582A34",
"0  c #562F39",
"q  c #59353F",
"w  c #6D2532",
"e  c #702432",
"r  c #7A2432",
"t  c #762F3C",
"y  c #68323E",
"u  c #533C45",
"i  c #6E3340",
"p  c #4C454D",
"a  c #624954",
"s  c #724955",
"d  c #7C4F59",
"f  c #5A6871",
"g  c #64646E",
"h  c #646871",
"j  c #6C6974",
"k  c #7D6F79",
"l  c #60737C",
"z  c #6C737D",
"x  c #7D737C",
"c  c #87000F",
"v  c #840111",
"b  c #8B0011",
"n  c #810C1B",
"m  c #8B0E1F",
"M  c #930012",
"N  c #9B0013",
"B  c #960A1C",
"V  c #9F0C1E",
"C  c #A0000F",
"Z  c #A30014",
"A  c #AB0015",
"S  c #A70518",
"D  c #A10D1F",
"F  c #AB081B",
"G  c #B40016",
"H  c #BC0017",
"J  c #B30419",
"K  c #BC0319",
"L  c #B6091E",
"P  c #851D2B",
"I  c #9D1A2B",
"U  c #BD0E22",
"Y  c #A41426",
"T  c #BE1A2F",
"R  c #AA1E30",
"E  c #8A2433",
"W  c #8F2F3D",
"Q  c #932737",
"!  c #B42539",
"~  c #C30015",
"^  c #C80013",
"/  c #C30018",
"(  c #CB0119",
")  c #D20016",
"_  c #DD0017",
"`  c #D4001A",
"'  c #DC001B",
"]  c #E40017",
"[  c #EB0015",
"{  c #E4001C",
"}  c #EC001D",
"|  c #F3001D",
" . c #FF001F",
".. c #FF0020",
"X. c #883342",
"o. c #AA3142",
"O. c #834955",
"+. c #8A525E",
"@. c #875E6A",
"#. c #886772",
"$. c #667781",
"%. c #667F89",
"&. c #717F8B",
"*. c #6B8189",
"=. c #70848D",
"-. c #7F838C",
";. c #6C8E99",
":. c #83828E",
">. c #869099",
",. c #94959E",
"<. c #8797A4",
"1. c #8E9EA8",
"2. c #80A4B0",
"3. c #83A9B6",
"4. c #9FAFBA",
"5. c #8CB1BB",
"6. c #AAB0BB",
"7. c #90B8C6",
"8. c #94BDCB",
"9. c #A2B5C0",
"0. c #ABB4C0",
"q. c #A3BBC7",
"w. c #99C2D0",
"e. c #9EC8D6",
"r. c #9ECAD9",
"t. c #A2C2CE",
"y. c #ABC9D6",
"u. c #A2CAD9",
"i. c #A9CFDE",
"p. c #A9D1DF",
"a. c #ABD3E2",
"s. c #ADDCEA",
"d. c #B9D5E2",
"f. c #B6D8E5",
"g. c #B2DCEA",
"h. c #BADEEB",
"j. c #BBE1EE",
"k. c #B6E1F0",
"l. c #BCE4F3",
"z. c #C2E1EE",
"x. c #C3E6F5",
"c. c #C6E8F4",
"v. c #C4EBFB",
"b. c #CAECF8",
"n. c #CCF0FE",
"m. c None",
/* pixels */
"m.m.m.m.m.m.m.m.m.m.m.m.m.m.m.m.m.m.m.m.m.m.m.m.m.m.m.m.m.m.m.m.m.m.m.m.m.m.m.m.m.m.m.m.m.m.m.m.m.m.m.m.m.m.m.m.m.m.m.m.m.m.m.m.",
"m.m.m.m.m.m.m.m.m.m.m.m.m.m.m.m.m.m.m.m.m.m.m.m.m.m.m.m.m.m.m.m.m.m.m.m.m.m.m.m.m.  m.m.m.m.m.m.m.m.m.m.m.m.m.m.m.m.m.m.m.m.m.m.",
"m.m.m.m.m.m.m.m.m.m.m.m.m.m.m.m.m.m.m.m.m.m.m.m.m.m.m.m.m.m.m.m.m.m.m.m.m.m.m.& N b +   m.m.m.m.m.m.m.m.m.m.m.m.m.m.m.m.m.m.m.m.",
"m.m.m.m.m.m.m.m.m.m.m.m.m.m.m.m.m.m.m.m.m.m.m.m.m.m.m.m.m.m.m.m.m.m.m.m.m.@ b ` ..} / *   m.m.m.m.m.m.m.m.m.m.m.m.m.m.m.m.m.m.m.",
"m.m.m.m.m.m.m.m.m.m.m.m.m.m.m.m.m.m.m.m.m.m.m.m.m.m.m.m.m.m.m.m.m.m.m.X > H | .. ...| ' M o   m.m.m.m.m.m.m.m.m.m.m.m.m.m.m.m.m.",
"m.m.m.m.m.m.m.m.m.m.m.m.m.m.m.m.m.m.m.m.m.m.m.m.m.m.m.m.m.m.m.m.m.m.* M ' .. ... . .....' % m.m.m.m.m.m.m.m.m.m.m.m.m.m.m.m.m.m.",
"m.m.m.m.m.m.m.m.m.m.m.m.m.m.m.m.m.m.m.m.m.m.m.m.m.m.m.m.m.m.m.m.+ b / | .... . . . . . .b @ m.m.m.m.m.m.m.m.m.m.m.m.m.m.m.m.m.m.",
"m.m.m.m.m.m.m.m.m.m.m.m.m.m.m.m.m.m.m.m.m.m.m.m.m.m.m.m.m.m.O > M |  ... . . . . ... .~ % m.m.m.m.m.m.m.m.m.m.m.m.m.m.m.m.m.m.m.",
"m.m.m.m.m.m.m.m.m.m.m.m.m.m.m.m.m.m.m.m.m.m.m.m.m.m.m.m.m.# > ` | .. . . . . . . . .} * m.m.m.m.m.m.m.m.m.m.m.m.m.m.m.m.m.m.m.m.",
"m.m.m.m.m.m.m.m.m.m.m.m.m.m.m.m.m.m.m.m.m.m.m.m.m.m.m.m.% Z { ...... . . . . . . . .c @ m.m.m.m.m.m.m.m.m.m.m.m.m.m.m.m.m.m.m.m.",
"m.m.m.m.m.m.m.m.m.m.m.m.m.m.m.m.m.m.m.m.m.m.m.m.m.m.+ Z ( ...... . . . . . . . . .H % m.m.m.m.m.m.m.m.m.m.m.O o m.m.m.m.m.m.m.m.",
"m.m.m.m.m.m.m.m.m.m.m.m.m.m.m.m.m.m.m.m.m.m.m.m.o v N } ........ ... ... . . . .} * m.m.m.m.m.m.m.m.m.m.m.b H : + m.m.m.m.m.m.m.",
"m.m.m.m.m.m.m.m.m.m.m.m.m.m.m.m.m.m.m.m.m.m.m.$ * Z G Z A N A A ~ ( ' { .... . .< @ m.m.m.m.m.m.m.m.m.m.b / ..} N @ o m.m.m.m.m.",
"m.m.m.m.m.m.m.m.m.m.m.m.m.m.m.m.m.m.m.m.m.m.o % 2 M N G Z G G Z Z M v M N ` ' G % m.m.m.m.m.m.m.m.m.m.m.Z ......| ( : m.m.m.m.m.",
"m.m.m.m.m.m.m.m.m.m.m.m.m.m.m.m.m.m.m.m.+ > H ` { |  . . . . . .|  .' ` A M M @ m.m.m.m.m.m.m.m.m.m.m.M { .. . . ...2 m.m.m.m.m.",
"m.m.m.m.m.m.m.m.m.m.m.m.m.m.m.m.m.m.% M ` | ...... . . . . . . ... . . ...} ` M @ @ m.m.m.m.m.m.m.m.b / .. . . . .} M m.m.m.m.m.",
"m.m.m.m.m.m.m.m.m.m.m.m.m.m.m.m.$ Z '  . ... . . . . . . . . . . . . . . .....| { < * m.m.m.m.m.m.m.Z .. . . . . .| = m.m.m.m.m.",
"m.m.m.m.m.m.m.m.m.m.m.m.m.m.o v (  . . . . . . . . . . . . . . . . . . . . . . . ...~ : m.m.m.m.m.M { .. . . . .../ = m.m.m.m.m.",
"m.m.m.m.m.m.m.m.m.m.m.m.m.> M | .. . . . . . . . . . . . . . . . . . . . . . . . . . .} 3 @ m.m.M / .... . . . . .H + m.m.m.m.m.",
"m.m.m.m.m.m.m.m.m.m.m.X % G .. . . . . . . . . . . . . . . . . . . . . . . . . . . . . . .N O @ S ...... . . . ...M O m.m.m.m.m.",
"m.m.m.m.m.m.m.m.m.m.m.% ` | .. . . . . . . . . . . . . . . . . . . . . . . . . . . . . . .| A * A |  . . . . ...} v m.m.m.m.m.m.",
"m.m.m.m.m.m.m.m.m.m.* H  . . . . . . . . . . . . . . . . . . . . . . . . . . . . . . . . . .| M < ' .. . . . . .| % m.m.m.m.m.m.",
"m.m.m.m.m.m.m.m.m.: N .. . . . . . . . . . . . . . . . . . . . . . . . . . . . . . . . . . ...| b > {  . . . ...H % m.m.m.m.m.m.",
"m.m.m.m.m.m.m.m.m., |  . . . . . . . . . . . . . . . . . . . . . . . . . . . . . . . . . . ... .} M N |  . . . ./ m.m.m.m.m.m.m.",
"m.m.m.m.m.m.m.m.: ( .. . . . . . . . . . . . . . . . . . . . . . . . . . . . . . . . . . . . . ...~ : H .. . ...b o m.m.m.m.m.m.",
"m.m.m.m.m.m.m.: Z .. . . . . . . . . . . . . . . . . ... . . . ... . . . . . . . . . . . . . . ... .A < {  . .| M m.m.m.m.m.m.m.",
"m.m.m.m.m.m.m.> |  . . . . . . . . . . . . . ... . .| ) ^ ~ ^ ) ] | .. . . . . . . . . . . . . . ...' > A ....| & m.m.m.m.m.m.m.",
"m.m.m.m.m.m.% / .. . . . . . . . . . . . . . .| ) M 5 9 u p a 7 r M /  . . . . . . . . . . . . . . . .H v } ..` = m.m.m.m.m.m.m.",
"m.m.m.m.m.m.: | .. . . . . . . . . . . . ..._ B y f 3.u.p.h.a.p.2.&.0 n }  . . . . . . . . . . . . ...{ : G ../ o m.m.m.m.m.m.m.",
"m.m.m.m.m.m./ | .. . . . . . . . . . . . .( E l t.j.n.b.z.j.f.j.c.k.e.j 1 `  . . . . . . . . . . . . . .Z M ..M X m.m.m.m.m.m.m.",
"m.m.m.m.m., ( .. . . . . . . . . . . . .' ; $.r.l.c.d.1.k +.d @.-.q.c.s.<.6 ~  . . . . . . . . . . . . .' < ( N m.m.m.m.m.m.m.m.",
"m.m.m.m.m.:  . . . . . . . . . . . . .{ , 3 X.s :.*.O.I K ] } ^ U O.>.z.g.=.E [ .. . . . . . . . . . . .} 3 H : m.m.m.m.m.m.m.m.",
"m.m.m.m.X Z |  . . . . . . . . . . .| Z , }  .S > m )  . . . ...| ] o.,.l.a.h Z  . . . . . . . . . . . . .N v , m.m.m.m.m.m.m.m.",
"m.m.m.m.& G .. . . . . . . . . . . .} , _  .( S J |  . . . . . . . .[ ! 0.v.8.t ]  . . . . . . . . . . . .J = @ m.m.m.m.m.m.m.m.",
"m.m.m.m.+ ' .. . . . . . . . . . . .M A } ` n ' | .. . . . . . . . . .` #.g.j.g C  . . . . . . . . . . .../ O . m.m.m.m.m.m.m.m.",
"m.m.m.m.= `  . . . . . . . . . . .} M H ) S ( .. . . . . . . . . . . .[ W y.v.;.n  . . . . . . . . . . ...' @ m.m.m.m.m.m.m.m.m.",
"m.m.m.m.$ } .. . . . . . . . . . .} , M H ( ...... . . . . . . . . . . .R 6.v.7.e |  . . . . . . . . . . .} %   m.m.m.m.m.m.m.m.",
"m.m.m.m.* { .. . . . . ....... . .~ = 3 / | ........ . . . . . . . . . .T 4.l.r.y _  . . . . . . . . . . .{ * m.m.m.m.m.m.m.m.m.",
"m.m.m.m.= } .... ..... ...| ' ( G > O G |  . ..... . . . . . . . . . .| Y 6.v.e.q ]  . . . . . . . . . . .| % m.m.m.m.m.m.m.m.m.",
"m.m.m.m.= { ....| } ' H A N b < N M > ' .. . . . . . . . . . . . . . .| Q 5.l.w.w ]  . . . . . . . . . . .' 2 m.m.m.m.m.m.m.m.m.",
"m.m.m.m.m.G ( A v b b M A ` ' } ..{ , ` .. . . . . . . . . . . . . . .} - x l.;.e  . . . . . . . . . . . .' @ m.m.m.m.m.m.m.m.m.",
"m.m.m.m.@ : M M A ` } |  ... . ...| b H .... . . . . . . . . . . . . .( J P z *.Y |  . . . . . . . . . . .K * m.m.m.m.m.m.m.m.m.",
"m.m.m.> H { | | ........ . . . ... .G N |  . . . . . . . . . . . . .| ( ~ } E 8 A  . . . . . . . . . . . .A o m.m.m.m.m.m.m.m.m.",
"m.m.m.@ ~ .... . . . . . . . . . ...' < / .. . . . . . . . . . . . .| D {  .A >  . . . . . . . . . . . . .< m.m.m.m.m.m.m.m.m.m.",
"m.m.m.m.v ` .... . . . . . . . . . . .G Z }  . . . . . . . . . . . .K L  .{ , (  . . . . . . . . . . . .{ M m.m.m.m.m.m.m.m.m.m.",
"m.m.m.m.m., | .. . . . . . . . . . ...{ c Z  ... ... . . . . . . .{ N } ] c Z |  . . . . . . . . . . . .` @ m.m.m.m.m.m.m.m.m.m.",
"m.m.m.m.m.+ 3 } .. . . . . . . . . . ...} N b { .... . . . . . . .F G J N 3  . . . . . . . . . . . . . .b + m.m.m.m.m.m.m.m.m.m.",
"m.m.m.m.m.m.m.Z |  . . . . . . . . . . .| ` Z N H  ... . ... . .' m c , N {  . . . . . . . . . . . . .' , m.m.m.m.m.m.m.m.m.m.m.",
"m.m.m.m.m.m.m.o A .. . . . . . . . . . .....' H M b / / { ' ' ( M @ b ~ } .. . . . . . . . . . . . . .K m.m.m.m.m.m.m.m.m.m.m.m.",
"m.m.m.m.m.m.m.m.% Z  . . . . . . . . . . .....| { / b M < v , b , , {  . . . . . . . . . . . . . . .} , m.m.m.m.m.m.m.m.m.m.m.m.",
"m.m.m.m.m.m.m.m.m.3 A }  . . . . . . . . . . . . ...| | } ' { | ( , }  . . . . . . . . . . . . ...| ~ + m.m.m.m.m.m.m.m.m.m.m.m.",
"m.m.m.m.m.m.m.m.m.m.% G |  . . . . . . . . . . . . . ..... .....' , ` .. . . . . . . . . . . . ...{ & m.m.m.m.m.m.m.m.m.m.m.m.m.",
"m.m.m.m.m.m.m.m.m.m.m.@ N  . . . . . . . . . . . . . . . . . . .| M ` .. . . . . . . . . . . . .| v o m.m.m.m.m.m.m.m.m.m.m.m.m.",
"m.m.m.m.m.m.m.m.m.m.m.m.O , { .. . . . . . . . . . . . . . . . ...N G  . . . . . . . . . . ...} Z o m.m.m.m.m.m.m.m.m.m.m.m.m.m.",
"m.m.m.m.m.m.m.m.m.m.m.m.m.@ = ( .. . . . . . . . . . . . . . . ...A M |  . . . . . . . . ...| Z O m.m.m.m.m.m.m.m.m.m.m.m.m.m.m.",
"m.m.m.m.m.m.m.m.m.m.m.m.m.m.m.= N | .. . . . . . . . . . . . . ...H b |  . . . . . . . . ...N m.m.m.m.m.m.m.m.m.m.m.m.m.m.m.m.m.",
"m.m.m.m.m.m.m.m.m.m.m.m.m.m.m.m.: < ( .. . . . . . . . . . . . ...' < { .. . . . .......} N % m.m.m.m.m.m.m.m.m.m.m.m.m.m.m.m.m.",
"m.m.m.m.m.m.m.m.m.m.m.m.m.m.m.m.m.m.> N |  . . . . . . . . . . ...} , (  . . . . .....' N O m.m.m.m.m.m.m.m.m.m.m.m.m.m.m.m.m.m.",
"m.m.m.m.m.m.m.m.m.m.m.m.m.m.m.m.m.m.m.& = H |  . . . . . . . . . .| M G  . . ... .} / * m.m.m.m.m.m.m.m.m.m.m.m.m.m.m.m.m.m.m.m.",
"m.m.m.m.m.m.m.m.m.m.m.m.m.m.m.m.m.m.m.m.m.@ > ` } .... . . . . . . .Z Z  .....| ` , $   m.m.m.m.m.m.m.m.m.m.m.m.m.m.m.m.m.m.m.m.",
"m.m.m.m.m.m.m.m.m.m.m.m.m.m.m.m.m.m.m.m.m.m.X + v G } .. ... . . .../ b | | / v & X m.m.m.m.m.m.m.m.m.m.m.m.m.m.m.m.m.m.m.m.m.m.",
"m.m.m.m.m.m.m.m.m.m.m.m.m.m.m.m.m.m.m.m.m.m.m.m.m.m.3 A } } .. . . .` = b > * m.m.m.m.m.m.m.m.m.m.m.m.m.m.m.m.m.m.m.m.m.m.m.m.m.",
"m.m.m.m.m.m.m.m.m.m.m.m.m.m.m.m.m.m.m.m.m.m.m.m.m.m.m.@ % N A }  ...{ & X m.m.m.m.m.m.m.m.m.m.m.m.m.m.m.m.m.m.m.m.m.m.m.m.m.m.m.",
"m.m.m.m.m.m.m.m.m.m.m.m.m.m.m.m.m.m.m.m.m.m.m.m.m.m.m.m.m.m.* % M H ' , m.m.m.m.m.m.m.m.m.m.m.m.m.m.m.m.m.m.m.m.m.m.m.m.m.m.m.m."
};
