/* XPM */
static char *_5[] = {
/* columns rows colors chars-per-pixel */
"64 64 141 2 ",
"   c #000000",
".  c #0B0001",
"X  c #130002",
"o  c #1C0003",
"O  c #220004",
"+  c #2B0005",
"@  c #340006",
"#  c #3C0007",
"$  c #400007",
"%  c #450008",
"&  c #4A0009",
"*  c #54000A",
"=  c #5C000B",
"-  c #63000C",
";  c #6B000D",
":  c #73000E",
">  c #7B000F",
",  c #6A0410",
"<  c #600F1A",
"1  c #7F0211",
"2  c #710815",
"3  c #700D19",
"4  c #621621",
"5  c #761724",
"6  c #7E1624",
"7  c #59232C",
"8  c #542630",
"9  c #59333D",
"0  c #7B2D3C",
"q  c #72313E",
"w  c #4A3C44",
"e  c #543841",
"r  c #5C3943",
"t  c #6C3D49",
"y  c #773442",
"u  c #50555D",
"i  c #63444F",
"p  c #68404B",
"a  c #674B56",
"s  c #7B4550",
"d  c #675D66",
"f  c #765E6A",
"g  c #5A6E77",
"h  c #65616C",
"j  c #6D606C",
"k  c #656873",
"l  c #6A747D",
"z  c #84000E",
"x  c #8D000C",
"c  c #840010",
"v  c #8B0011",
"b  c #820C1B",
"n  c #920012",
"m  c #9C0113",
"M  c #9B0C1D",
"N  c #A1000D",
"B  c #A40014",
"V  c #AC0015",
"C  c #A10618",
"Z  c #A30B1D",
"A  c #B40016",
"S  c #BB0017",
"D  c #B4051A",
"F  c #BE0219",
"G  c #B10A1F",
"H  c #8D1021",
"J  c #841624",
"K  c #A10F21",
"L  c #B00F23",
"P  c #BE1429",
"I  c #812B37",
"U  c #8C2C3B",
"Y  c #932534",
"T  c #962B3B",
"R  c #B32034",
"E  c #C40116",
"W  c #CB0016",
"Q  c #C50018",
"!  c #CC0119",
"~  c #D30016",
"^  c #D3001A",
"/  c #DC001B",
"(  c #E40015",
")  c #EB0017",
"_  c #E3001C",
"`  c #EB001D",
"'  c #F3001D",
"]  c #FF001F",
"[  c #D40822",
"{  c #C31128",
"}  c #FF0020",
"|  c #834753",
" . c #9D4151",
".. c #87616D",
"X. c #896A75",
"o. c #81747E",
"O. c #707B84",
"+. c #7A7B84",
"@. c #877983",
"#. c #748490",
"$. c #718F9A",
"%. c #799AA5",
"&. c #789FAA",
"*. c #7EA2AD",
"=. c #918F9A",
"-. c #95909A",
";. c #A48C98",
":. c #8E9CA4",
">. c #899EAB",
",. c #83A5B1",
"<. c #81A9B5",
"1. c #94A8B2",
"2. c #A5A1AC",
"3. c #97B7C4",
"4. c #9AB8C4",
"5. c #92BCCA",
"6. c #9ABCCB",
"7. c #A5BFCB",
"8. c #9FC4CF",
"9. c #9CC5D3",
"0. c #9FC9D7",
"q. c #A9C2CE",
"w. c #A6C7D3",
"e. c #A0CBDA",
"r. c #ACC4D1",
"t. c #B0CDDB",
"y. c #ADD8E6",
"u. c #B4DBE7",
"i. c #BDDBE7",
"p. c #B9DEEB",
"a. c #B4DCEB",
"s. c #B1E0EF",
"d. c #BFE3EF",
"f. c #BBE3F3",
"g. c #BEECFC",
"h. c #C2E3EF",
"j. c #C2E7F6",
"k. c #C3E8F7",
"l. c #C4EBFA",
"z. c #CBEDFB",
"x. c None",
/* pixels */
"x.x.x.x.x.x.x.x.x.x.x.x.x.x.x.x.x.x.x.x.x.x.x.x.x.x.x.x.o # ; V / c x.x.x.x.x.x.x.x.x.x.x.x.x.x.x.x.x.x.x.x.x.x.x.x.x.x.x.x.x.x.",
"x.x.x.x.x.x.x.x.x.x.x.x.x.x.x.x.x.x.x.x.x.x.x.x.x.x.x.@ v / ` ] } ` A @ x.x.x.x.x.x.x.x.x.x.x.x.x.x.x.x.x.x.x.x.x.x.x.x.x.x.x.x.",
"x.x.x.x.x.x.x.x.x.x.x.x.x.x.x.x.x.x.x.x.x.x.x.x.x.x.x.x.V } } } } ] ] v x.x.x.x.x.x.x.x.x.x.x.x.x.x.x.x.x.x.x.x.x.x.x.x.x.x.x.x.",
"x.x.x.x.x.x.x.x.x.x.x.x.x.x.x.x.x.x.x.x.x.x.x.x.x.x.x.x.n ] } } } } } _ c % x.x.x.x.x.x.x.x.x.x.x.x.x.x.x.x.x.x.x.x.x.x.x.x.x.x.",
"x.x.x.x.x.x.x.x.x.x.x.x.x.x.x.x.x.    x.x.x.x.x.x.x.x.x.v ^ } } ] ] ] ] ' v . x.x.x.x.x.x.x.x.x.x.x.x.x.x.x.x.x.x.x.x.x.x.x.x.x.",
"x.x.x.x.x.x.x.x.x.x.x.x.x.x.  . @ > % x.x.x.x.x.x.x.x.x.x.B } } ] ] ] ] } _ - x.x.x.x.x.x.x.x.x.x.x.x.x.x.x.x.x.x.x.x.x.x.x.x.x.",
"x.x.x.x.x.x.x.x.x.x.x.x.  + ; A / ' n # x.x.x.x.x.x.x.x.x.n ` } ] ] ] ] ] } ^ v x.x.x.x.x.x.x.x.x.x.x.x.x.x.x.x.x.x.x.x.x.x.x.x.",
"x.x.x.x.x.x.x.x.x.x.x.x.- V ` ] ] ] / % x.x.x.x.x.x.x.x.x.v Q } ] ] ] ] ] } } / = x.x.x.x.x.x.x.x.x.x.x.x.x.x.x.x.x.x.x.x.x.x.x.",
"x.x.x.x.x.x.x.x.x.x.x.x.& _ } } ] ] ] - x.x.x.x.x.x.x.x.x.x.B ] ] ] ] ] ] ] ] } Q ; X x.x.x.x.x.x.x.x.x.x.x.x.x.x.x.x.x.x.x.x.x.",
"x.x.x.x.x.x.x.x.x.x.x.x.* ` } ] ] ] ] B # x.x.x.x.x.x.x.x.x.v _ } ] ] ] ] ] ] ] ] / - x.x.x.x.x.x.x.x.x.x.x.x.x.x.x.x.x.x.x.x.x.",
"x.x.x.x.x.x.x.x.x.x.x.x.: ` ] ] ] ] ] _ & x.x.x.x.x.x.x.x.x.x.F } ] ] } ] ] ] ] } } E # x.x.x.x.x.x.x.x.x.x.x.x.x.x.x.x.x.x.x.x.",
"x.x.x.x.x.x.x.x.x.x.x.x.= } ] ] ] ] ] ] : x.x.x.x.x.x.x.x.x.x.n / _ ` ^ / ` _ ] ] } ] F = x.x.x.x.x.x.x.x.x.x.x.x.x.x.x.x.x.x.x.",
"x.x.x.x.x.x.x.x.x.x.x.x.> ' } ] ] ] ] ] A # x.x.x.x.x.x.x.x.  # c ; = > ; ; > > m A / } S & x.x.x.x.x.x.x.x.x.x.x.x.x.x.x.x.x.x.",
"x.x.x.x.x.x.x.x.x.x.x.. : ] } ] ] ] ] ] ' * x.x.x.x.x.& % = n A A Q _ ^ ^ ^ A A c > : c A v c x.x.x.x.x.x.x.x.x.x.x.x.x.x.x.x.x.",
"x.x.x.x.x.x.x.x.x.x.x.x.c } ] ] ] ] ] ] ] z x.x.x.* > V / ] ] ] } } ] } } ] } ] ] ` / S v : = X x.x.x.x.x.x.x.x.x.x.x.x.x.x.x.x.",
"x.x.x.x.x.x.x.x.x.x.x.x.A ] ] ] ] ] ] ] ] V O @ v ^ } } ] ] ] ] } ] ] ] ] ] ] ] ] ] ] ] ' Q : + . x.x.x.x.x.x.x.x.x.x.x.x.x.x.x.",
"x.x.x.x.x.x.x.x.x.x.x.x.n } ] ] ] ] } ] Q m B / ] ] ] ] ] ] ] ] ] ] ] ] ] ] ] ] ] ] ] ] } } ] Q : O x.x.x.x.x.x.x.x.x.x.x.x.x.x.",
"x.x.x.x.x.x.x.x.x.x.x.x.B } ] ] ] } ` B c A ` ] ] ] ] ] ] ] ] ] ] ] ] ] ] ] ] ] ] ] ] ] ] ] ] } ' m # x.x.x.x.x.x.x.x.x.x.x.x.x.",
"x.x.x.x.x.x.x.x.x.x.x.O S } } ] } ' B B _ ] ] ] ] ] ] ] ] ] ] ] ] ] ] ] ] ] ] ] ] ] ] ] ] ] ] ] } ] F : X x.x.x.x.x.x.x.x.x.x.x.",
"x.x.x.x.x.x.x.x.x.x.x.x.V } } ] _ n c ^ ] ] ] ] ] ] ] ] ] ] ] ] ] ] ] ] ] ] ] ] ] ] ] ] ] ] ] ] ] } } ^ - x.x.x.x.x.x.x.x.x.x.x.",
"x.x.x.x.x.x.x.x.x.x.x.O A } } ] V V ' } ] ] ] ] ] ] ] ] ] ] ] ] ] ] ] ] ] ] ] ] ] ] ] ] ] ] ] ] ] ] ] } Q * x.x.x.x.x.x.x.x.x.x.",
"x.x.x.x.x.x.x.x.x.x.x.+ Q } ' B v _ } ] ] ] ] ] ] ] ] ] ] ] ] ] ] ] ] ] ] ] ] ] ] ] ] ] ] ] ] ] ] ] ] ] ] ^ ; x.x.x.x.x.x.x.x.x.",
"x.x.x.x.x.x.x.x.x.x.x.x.Q } S c / ] ] ] ] ] ] ] ] ] ] ] ] ] ] ] ] ] ] ] ] ] ] ] ] ] ] ] ] ] ] ] ] ] ] ] ] ] F # x.x.x.x.x.x.x.x.",
"x.x.x.x.x.x.x.x.x.x.x.& / _ v ! ] } ] ] ] ] ] ] ] ] ] ] ] ] ] ] ] ] ] ] ] ] ] ] ] ] ] ] ] ] ] ] ] ] ] ] ] ] ' n # x.x.x.x.x.x.x.",
"x.x.x.x.x.x.x.x.x.x.x.& ^ B B ] ] ] ] ] ] ] ] ] ] ] ] ] ] ] ] ] ] ] ] ] ] ] ] ] ] ] ] ] ] ] ] ] ] ] ] ] ] ] ] ` : x.x.x.x.x.x.x.",
"x.x.x.x.x.x.x.x.x.x.x.: m c / } ] ] ] ] ] ] ] ] ] ] ] ] ] ] ] ] } ] ` ` ] ' ] ] ] ] ] ] ] ] ] ] ] ] ] ] ] ] ] } S x.x.x.x.x.x.x.",
"x.x.x.x.x.x.x.x.x.x.x.# z A ] ] ] ] ] ] ] } ] ] ] ] ] ] ] ] ] / V 1 J I 5 M C W ] ] ] ] ] ] ] ] ] ] ] ] ] ] ] } ` c X x.x.x.x.x.",
"x.x.x.x.x.x.x.x.x.x.x.# : _ } ] ] ] ] ] ] ] ] ] ] ] ] } ] E 2 8 j >.,.,.3.%.l 9 3 W ] ] ] ] ] ] ] ] ] ] ] ] ] ] ] / @ x.x.x.x.x.",
"x.x.x.x.x.x.x.x.x.x.x.o B } ] ] ] ] ] ] ] ] ] ] ] ] ] ' A q #.0.s.l.k.g.l.l.f.9.$.t M _ } ] ] ] ] ] ] ] ] ] ] ] } ' ; x.x.x.x.x.",
"x.x.x.x.x.x.x.x.x.x.x.+ / ] ] ] ] ] ] ] ] ] ] ] ] ] ` x w <.u.j.q.:.-.;.-.q.s.l.f.5.h 1 ' ] ] ] ] ] ] ] ] ] ] ] } ' A O x.x.x.x.",
"x.x.x.x.x.x.x.x.x.x.  = ` } ] ] ] ] ] ] ] ] ] ] ] ] A i 8.l.w.+.| R ^ W P Y X.q.g.j.0.u K ) ] ] ] ] ] ] ] ] ] ] ] } _ @ x.x.x.x.",
"x.x.x.x.x.x.x.x.x.x.x.v } } ] ] ] ] ] ] ] ] ] ] ] W 7 *.j.t...G ( ' ] ] ] ] !  .2.u.g.5.a N } ] ] ] ] ] ] ] ] ] ] ] _ =   x.x.x.",
"x.x.x.x.x.x.x.x.x.x.O S ] ] ] ] ] ] ] ] ] ] ] ] ` 1 g d.d.o.L ' ] ] ] ] ] ] ] / T l o.h 9 - ' ] ] ] ] ] ] ] ] ] ] ] ' v x.x.x.x.",
"x.x.x.x.x.x.x.x.x.x.% ^ ] ] ] ] ] ] ] ] ] ] ] ] ~ 9 8.z.1.Y ' ] ] ] ] ] ] ] ] ] / , M [ ~ > D ] ] ] ] ] ] ] ] ] ] ] } n x.x.x.x.",
"x.x.x.x.x.x.x.x.x.x.; / } ] ] ] ] ] ] ] ] ] ] ] B k d.d.o.D ] ] ] ] ] ] ] ] ] ] ] ! F ~ ] E z ] ] ] ] ] ] ] ] ] ] ] ] V % x.x.x.",
"x.x.x.x.x.x.x.x.x.x.& ] ] ] ] ] ] ] ] ] ] ] ] ' H $.z.d.s ` ] ] ] ] ] ] ] ] ] ] ] ] ~ K ] _ ; ` ] ] ] ] ] ] ] ] ] ] ] ~ + x.x.x.",
"x.x.x.x.x.x.x.x.x.x.c ` } ] ] ] ] ] ] ] ] ] ] ' 4 4.z.8.U ( ] ] ] ] ] ] ] ] ] ] ] } ' K [ _ v E ] ] ] ] ] ] ] ] ] ] } ! % x.x.x.",
"x.x.x.x.x.x.x.x.x.x.= ] } ] ] ] ] ] ] ] ] ] ] ( y 5.y.O.6 ] ] ] ] ] ] ] ] ] ] ] ] ] ] ^ A ! v S ] ] ] ] ] ] ] ] ] } } Q ; x.x.x.",
"x.x.x.x.x.x.x.x.x.x.; ] ] ] ] ] ] ] ] ] ] ] ] ( 0 *.f 3 z ] } } ] ] ] ] ] ] ] ] ] ] } ] Z S ; ^ ] ] ] ] ] ] ] ] ] } } / + x.x.x.",
"x.x.x.x.x.x.x.x.x.x.c _ ] ] ] ] ] ] ] ] ] ] ] ' < t { F G ` } } ] ] ] ] ] ] ] ] ] ] ] } F v : ^ ] ] ] ] ] ] ] ] ] } } E + x.x.x.",
"x.x.x.x.x.x.x.x.x.x.& _ } ] ] ] ] ] ] ] ] ] ] ] n z ] / m ' } } ] ] ] ] ] ] ] ] ] ] ] ] ` n $ ! ] ] ] ] ] ] ] ] ] ] } V @ x.x.x.",
"x.x.x.x.x.x.x.x.x.x.# ` ] ] ] ] ] ] ] ] ] ] ] ] Q ; ' ) 1 } } } ] ] ] ] ] ] ] ] ] ] ] ] } B * 1 V _ ] ] ] ] ] ] ] ] ] B X x.x.x.",
"x.x.x.x.x.x.x.x.x.x.@ F } ] ] ] ] ] ] ] ] ] ] ] ` : ^ ) C / } } ] ] ] ] ] ] ] ] ] ] ] ] ` v V Q v z B _ ] ] ] ] ] ] ] > x.x.x.x.",
"x.x.x.x.x.x.x.x.x.x.x.v } ] ] ] ] ] ] ] ] ] ] ] } A n / Q ! } } ] ] ] ] ] ] ] ] ] ] ] ] V 1 ' ] ' ! m : V ^ ] ] ] } ` c x.x.x.x.",
"x.x.x.x.x.x.x.x.x.x.x.; ' ] ] ] ] ] ] ] ] ] ] ] ] ' > V B F ' ] ] ] ] ] ] ] ] ] ] ] ] ^ v ! ] ] ] } ' ! v > n ^ ' ] _ # x.x.x.x.",
"x.x.x.x.x.x.x.x.x.x.x.- F ] ] ] ] ] ] ] ] ] ] ] ] ] Q v , n ' ] ] ] ] ] ] ] ] ] ] ] ! z V ] ] ] ] ] } } ] ^ B > n / B @ x.x.x.x.",
"x.x.x.x.x.x.x.x.x.x.x.x.z ] ] ] ] ] ] ] ] ] ] ] ] ] ] ^ - # ^ ] ] ] ] ] ] ] ] ] ] ! z B ' } ] ] ] ] ] ] ] } ] ^ B > @ . x.x.x.x.",
"x.x.x.x.x.x.x.x.x.x.x.x.; ` ] ] ] ] ] ] ] ] ] ] ] ] ] ] v % 1 V / ) ] ] ] ] / S v v ! ] ] ] ] ] ] ] ] ] ] ] ] } ] / m * o x.x.x.",
"x.x.x.x.x.x.x.x.x.x.x.x.* B } } ] ] ] ] ] ] ] ] ] ] } ` v B Q m > v v V B v c B A / ] ] ] ] ] ] ] ] ] ] ] ] ] ] } } ] m o x.x.x.",
"x.x.x.x.x.x.x.x.x.x.x.x.x.= ' ] ] ] ] ] ] ] ] ] ] ] } Q c ` } ' _ F S m V ^ ! _ ] ] ] ] ] ] ] ] ] ] ] ] ] ] ] ] } ` m - x.x.x.x.",
"x.x.x.x.x.x.x.x.x.x.x.x.x.+ B ' ] ] ] ] ] ] ] ] ] ] ] n A ] } ] ] ] ] ] } ] } } ] ] ] ] ] ] ] ] ] ] ] ] ] ] } ] ! ; o x.x.x.x.x.",
"x.x.x.x.x.x.x.x.x.x.x.x.x.x.x.Q } ] ] ] ] ] ] ] ] } / n _ ] ] ] ] ] ] ] ] ] ] ] ] ] ] ] ] ] ] ] ] ] ] ] ] ] _ B = x.x.x.x.x.x.x.",
"x.x.x.x.x.x.x.x.x.x.x.x.x.x.x.> ` ] ] ] ] ] ] ] ] ' B V } } ] ] ] ] ] ] ] ] ] ] ] ] ] ] ] ] ] ] ] ] } } } _ > # x.x.x.x.x.x.x.x.",
"x.x.x.x.x.x.x.x.x.x.x.x.x.x.x.+ v ` ] ] ] ] ] ] } / c / ] } ] ] ] ] ] ] ] ] ] ] ] ] ] ] ] ] ] ] ] } } / m * o x.x.x.x.x.x.x.x.x.",
"x.x.x.x.x.x.x.x.x.x.x.x.x.x.x.x.@ n } ] ] ] ] ] } V B ' ] ] ] ] ] ] ] ] ] ] ] ] ] ] ] ] ] ] ] ] ] _ A m x.x.x.x.x.x.x.x.x.x.x.x.",
"x.x.x.x.x.x.x.x.x.x.x.x.x.x.x.x.x.+ n _ ] ] ] } ` v Q } ] ] ] ] ] ] ] ] ] ] ] ] ] ] ] ] ] ] ] ] F ; o x.x.x.x.x.x.x.x.x.x.x.x.x.",
"x.x.x.x.x.x.x.x.x.x.x.x.x.x.x.x.x.x.x.: / } } } F > ` } ] ] ] ] ] ] ] ] ] ] ] ] ] ] ] } } ` B = + x.x.x.x.x.x.x.x.x.x.x.x.x.x.x.",
"x.x.x.x.x.x.x.x.x.x.x.x.x.x.x.x.x.x.x.X - Q ] ' z A } ] ] ] ] ] ] ] ] ] ] ] } ] } } ] Q v ; % x.x.x.x.x.x.x.x.x.x.x.x.x.x.x.x.x.",
"x.x.x.x.x.x.x.x.x.x.x.x.x.x.x.x.x.x.x.x.x.= m m z ` ] ] ] ] ] ] ] ] ] } ] ] ] ] ^ n ; ; x.x.x.x.x.x.x.x.x.x.x.x.x.x.x.x.x.x.x.x.",
"x.x.x.x.x.x.x.x.x.x.x.x.x.x.x.x.x.x.x.x.x.x.x.# V ] } ] ] } } } } } ' ` _ Q v * * x.x.x.x.x.x.x.x.x.x.x.x.x.x.x.x.x.x.x.x.x.x.x.",
"x.x.x.x.x.x.x.x.x.x.x.x.x.x.x.x.x.x.x.x.x.x.x.& / ] ` ' ` / / ^ A m m ; $ O x.x.x.x.x.x.x.x.x.x.x.x.x.x.x.x.x.x.x.x.x.x.x.x.x.x.",
"x.x.x.x.x.x.x.x.x.x.x.x.x.x.x.x.x.x.x.x.x.x.x.% = ; m * * > @ o # x.x.x.x.x.x.x.x.x.x.x.x.x.x.x.x.x.x.x.x.x.x.x.x.x.x.x.x.x.x.x.",
"x.x.x.x.x.x.x.x.x.x.x.x.x.x.x.x.x.x.x.x.x.x.x.x.x.x.x.x.x.x.x.x.x.x.x.x.x.x.x.x.x.x.x.x.x.x.x.x.x.x.x.x.x.x.x.x.x.x.x.x.x.x.x.x.",
"x.x.x.x.x.x.x.x.x.x.x.x.x.x.x.x.x.x.x.x.x.x.x.x.x.x.x.x.x.x.x.x.x.x.x.x.x.x.x.x.x.x.x.x.x.x.x.x.x.x.x.x.x.x.x.x.x.x.x.x.x.x.x.x."
};
