/* XPM */
static char *_7[] = {
/* columns rows colors chars-per-pixel */
"64 64 143 2 ",
"   c #020000",
".  c #0B0001",
"X  c #130002",
"o  c #1B0003",
"O  c #250004",
"+  c #2C0005",
"@  c #330006",
"#  c #3C0007",
"$  c #3F0008",
"%  c #400007",
"&  c #420008",
"*  c #4B0009",
"=  c #53000A",
"-  c #5B000B",
";  c #64000C",
":  c #6C000D",
">  c #74000E",
",  c #7C000F",
"<  c #6E0412",
"1  c #770312",
"2  c #770A17",
"3  c #73111E",
"4  c #601723",
"5  c #6C1520",
"6  c #6C1D28",
"7  c #741220",
"8  c #7E1220",
"9  c #4C252D",
"0  c #5A2B35",
"q  c #4E363F",
"w  c #5F343F",
"e  c #6E2431",
"r  c #622B36",
"t  c #583E48",
"y  c #613B44",
"u  c #7E3A46",
"i  c #554C54",
"p  c #565059",
"a  c #6D545E",
"s  c #755D66",
"d  c #7E666F",
"f  c #646B76",
"g  c #686874",
"h  c #776673",
"j  c #80000F",
"k  c #89000D",
"l  c #840010",
"z  c #8B0011",
"x  c #8A0B1C",
"c  c #930012",
"v  c #9C0113",
"b  c #920A1B",
"n  c #9E0C1E",
"m  c #B6000F",
"M  c #A30014",
"N  c #AB0015",
"B  c #A60619",
"V  c #A8081B",
"C  c #A30C1E",
"Z  c #B40016",
"A  c #BC0017",
"S  c #B5061A",
"D  c #BB0319",
"F  c #8C1625",
"G  c #821B2B",
"H  c #971122",
"J  c #9B192A",
"K  c #9B1425",
"L  c #AA0C20",
"P  c #B70F23",
"I  c #A51326",
"U  c #822330",
"Y  c #8D2231",
"T  c #872E3E",
"R  c #9B2435",
"E  c #A72132",
"W  c #C30016",
"Q  c #CB0014",
"!  c #C40018",
"~  c #CC0019",
"^  c #D30015",
"/  c #D3001A",
"(  c #DC001B",
")  c #E10016",
"_  c #E5001C",
"`  c #EB001D",
"'  c #F20017",
"]  c #F4001E",
"[  c #FF001F",
"{  c #C41027",
"}  c #C4182E",
"|  c #FF0020",
" . c #863F4C",
".. c #9C3040",
"X. c #A33E4E",
"o. c #9C4958",
"O. c #945663",
"+. c #717B85",
"@. c #6C858F",
"#. c #6D8A95",
"$. c #6B8D98",
"%. c #788793",
"&. c #738991",
"*. c #7B919D",
"=. c #7A99A5",
"-. c #7EA2AF",
";. c #86848E",
":. c #9C9CA6",
">. c #92A0AA",
",. c #83A5B3",
"<. c #80A9B5",
"1. c #9BA9B4",
"2. c #8AB1BE",
"3. c #9AB1BB",
"4. c #92B5C2",
"5. c #9AB4C1",
"6. c #95B8C6",
"7. c #9FBCC7",
"8. c #99BECC",
"9. c #A3B9C5",
"0. c #A8BFCB",
"q. c #9DC1CF",
"w. c #9EC6D4",
"e. c #ABC7D3",
"r. c #ACCAD7",
"t. c #AACDD8",
"y. c #B4D1DE",
"u. c #ACD5E2",
"i. c #AED9E9",
"p. c #B5DAE6",
"a. c #BADBE7",
"s. c #B4DDEC",
"d. c #BEE0EE",
"f. c #B7E2F2",
"g. c #BFE6F5",
"h. c #BEE7F8",
"j. c #BFE9F9",
"k. c #C0E6F4",
"l. c #C5E9F6",
"z. c #C7EDFC",
"x. c #CBEDFB",
"c. c #CCF0FD",
"v. c None",
/* pixels */
"v.v.v.v.v.v.v.v.v.v.v.v.v.v.v.v.v.v.v.v.v.v.v.v.v.v.v.v.v.v.v.v.v.v.v.v.v.v.v.v.v.v.v.v.v.v.v.v.v.v.v.v.v.v.v.v.v.v.v.v.v.v.v.v.",
"v.v.v.v.v.v.v.v.v.v.v.v.v.v.v.v.v.v.v.v.v.v.v.v.v.v.v.v.v.v.v.v.v.v.v.v.v.v.v.v.v.v.v.v.v.v.v.v.v.v.v.v.v.v.v.v.v.v.v.v.v.v.v.v.",
"v.v.v.v.v.v.v.v.v.v.v.v.v.v.v.v.v.v.O z , l + v.v.v.v.v.v.v.v.v.v.v.v.v.v.v.v.v.v.v.v.v.v.v.v.v.v.v.v.v.v.v.v.v.v.v.v.v.v.v.v.v.",
"v.v.v.v.v.v.v.v.v.v.v.v.v.v.v.v.v.O v ` | _ M l @ v.v.v.v.v.v.v.v.v.v.v.v.v.v.v.v.v.v.v.v.v.v.v.v.v.v.v.v.v.v.v.v.v.v.v.v.v.v.v.",
"v.v.v.v.v.v.v.v.v.v.v.v.v.v.v.v.+ M ] [ [ | | _ ~ l $ X v.v.v.v.v.v.v.v.v.v.v.v.v.v.v.v.v.v.v.v.v.v.v.v.v.v.v.v.v.v.v.v.v.v.v.v.",
"v.v.v.v.v.v.v.v.v.v.v.v.v.v.v.o v | | | [ [ [ [ | ] ( , l O v.v.v.v.v.v.v.v.v.v.v.v.v.v.v.v.v.v.v.v.v.v.v.v.v.v.v.v.v.v.v.v.v.v.",
"v.v.v.v.v.v.v.v.v.v.v.v.v.v.v.v.c ` | [ [ [ [ [ [ | [ | / M j + v.v.v.v.v.v.v.v.v.v.v.v.v.v.v.v.v.v.v.v.v.v.v.v.v.v.v.v.v.v.v.v.",
"v.v.v.v.v.v.v.v.v.v.v.v.v.v.v.v.v.v ] | [ [ [ [ | [ [ [ | | ` ~ l & X v.v.v.v.v.v.v.v.v.v.v.v.v.v.v.v.v.v.v.v.v.v.v.v.v.v.v.v.v.",
"v.v.v.v.v.v.v.v.v.v.v.v.v.v.v.v.v.v.v ` | | [ [ [ [ [ [ [ [ [ [ [ _ z z @ v.v.v.v.v.v.v.v.v.v.v.v.v.v.v.v.v.v.v.v.v.v.v.v.v.v.v.",
"v.v.v.v.v.v.v.v.v.v.v.v.v.v.v.v.v.v.v.M ] | [ [ [ [ [ [ [ [ [ [ | ] | / v l + v.v.v.v.v.v.v.v.v.v.v.v.v.v.v.v.v.v.v.v.v.v.v.v.v.",
"v.v.v.v.v.v.v.v.v.v.v.v.v.v.v.v.v.v.v.v.M ] | | [ [ [ [ [ ] ` A N c 1 l l : * o o . v.v.v.v.v.v.v.v.v.v.v.v.v.v.v.v.v.v.v.v.v.v.",
"v.v.v.v.v.v.v.v.v.v.v.v.v.v.v.v.v.v.v.v.v.M | | [ | [ ( A j : , > M Z ~ ( ~ ! ~ D v , - * o v.v.v.v.v.v.v.v.v.v.v.v.v.v.v.v.v.v.",
"v.v.v.v.v.v.v.v.  v.v.v.v.v.v.v.v.v.v.v.v.v.N | ] _ c l : N A ` ] [ | [ | | | | | | [ _ Q l : O v.v.v.v.v.v.v.v.v.v.v.v.v.v.v.v.",
"v.v.v.v.v.v.v.O > $ v.v.v.v.v.v.v.v.v.v.v.v.v.v N : 1 W _ [ [ [ [ [ [ [ [ [ [ [ [ | [ | | | _ M l v.v.v.v.v.v.v.v.v.v.v.v.v.v.v.",
"v.v.v.v.v.  O Z ] M % v.v.v.v.v.v.v.v.v.v.v.v.@ , M [ [ [ [ [ [ [ [ [ [ [ [ [ [ [ [ [ [ | [ | | ( N * v.v.v.v.v.v.v.v.v.v.v.v.v.",
"v.v.v.v.  @ Z ] [ [ v % v.v.v.v.v.v.v.v.v.v.O v ( [ [ [ [ [ [ [ [ [ [ [ [ [ [ [ [ [ [ [ [ [ [ [ | [ ( z v.v.v.v.v.v.v.v.v.v.v.v.",
"v.v.v.v.O A ] | [ [ [ c $ v.v.v.v.v.v.v.v.* ~ [ [ [ [ [ [ [ [ [ [ [ [ [ [ [ [ [ [ [ [ [ [ [ [ [ [ | | _ A % o v.v.v.v.v.v.v.v.v.",
"v.v.v.v.> ( | | [ [ [ [ c $ v.v.v.v.v.v.: / [ [ [ [ [ [ [ [ [ [ [ [ [ [ [ [ [ [ [ [ [ [ [ [ [ [ [ [ [ | ] / * o v.v.v.v.v.v.v.v.",
"v.v.v.v.@ ~ | | [ [ [ [ [ k $ v.v.v.v.: _ [ [ [ [ [ [ [ [ [ [ [ [ [ [ [ [ [ [ [ [ [ [ [ [ [ [ [ [ [ [ [ | [ / * v.v.v.v.v.v.v.v.",
"v.v.v.v.v.z [ [ [ [ [ [ [ [ l # v.v.- ( | [ [ [ [ [ [ [ [ [ [ [ [ [ [ [ [ [ [ [ [ [ [ [ [ [ [ [ [ [ [ [ [ | ] / @ v.v.v.v.v.v.v.",
"v.v.v.v.v.; ] [ [ [ [ [ [ [ [ l O # ( [ [ [ [ [ [ [ [ [ [ [ [ [ [ [ [ [ [ [ [ [ [ [ [ [ [ [ [ [ [ [ [ [ [ [ [ ] N o v.v.v.v.v.v.",
"v.v.v.v.v.# Z | [ [ [ [ [ [ [ ~ ; ! ] [ [ [ [ [ [ [ [ [ [ [ [ [ [ [ [ [ [ [ [ [ [ [ [ [ [ [ [ [ [ [ [ [ [ [ [ | _ z v.v.v.v.v.v.",
"v.v.v.v.v.v.l ] | [ [ [ [ [ ] Z N ` | [ [ [ [ [ [ [ [ [ [ [ [ [ [ [ [ [ [ [ [ [ [ [ [ [ [ [ [ [ [ [ [ [ [ [ [ [ | ! ; v.v.v.v.v.",
"v.v.v.v.v.v.& ( | [ [ [ [ [ ( l ( [ [ [ [ [ [ [ [ [ [ [ [ [ [ [ [ [ [ [ ' ] [ ] [ [ [ [ [ [ [ [ [ [ [ [ [ | [ [ | | M O v.v.v.v.",
"v.v.v.v.v.v.v.A [ [ [ [ [ ] c Z [ [ [ [ [ [ [ [ [ [ [ [ [ [ [ [ ] _ m b 8 3 G x Z Q ] [ [ [ [ [ [ [ [ [ [ [ [ [ [ [ _ > v.v.v.v.",
"v.v.v.v.v.v.v.1 [ [ [ [ [ ( z / [ [ [ [ [ [ [ [ [ [ [ [ [ [ [ Q C w h @.,.<.-.*.f 0 F A [ [ [ [ [ [ [ [ [ [ | [ [ | | N v.v.v.v.",
"v.v.v.v.v.v.v.* W [ [ [ [ N v | [ [ [ [ [ [ [ [ [ [ [ [ [ [ Z e +.4.f.z.z.z.j.z.i.e.&.r k ] [ [ [ [ [ [ [ [ [ [ [ [ | _ & v.v.v.",
"v.v.v.v.v.v.v.v.M | [ [ ` v / | [ [ [ [ [ [ [ [ [ [ [ [ [ v t 4.s.k.a.9.7.9.r.d.k.s.*.i > k ` [ [ [ [ [ [ [ [ [ [ [ | ] z v.v.v.",
"v.v.v.v.v.v.v.v.= _ | | ! l ` | [ [ [ [ [ [ [ [ [ [ [ [ v t 8.k.y.>.o.R J E X.O.&.d 6 ( _ c c | | [ [ [ [ [ [ [ [ [ [ | A O v.v.",
"v.v.v.v.v.v.v.v.$ Z [ | Z N ] | [ [ [ [ [ [ [ [ [ [ [ W r 2.k.e.O.} ) [ ] [ ] ^ C < ~ ) [ _ , v | [ [ [ [ [ [ [ [ [ [ [ _ - v.v.",
"v.v.v.v.v.v.v.v.  > [ ] z W | | [ [ [ [ [ [ [ [ [ | ' H @.s.e.s P ] [ [ [ [ [ [ [ _ ! V ~ [ ~ z ~ [ [ [ [ [ [ [ [ [ [ [ [ > v.v.",
"v.v.v.v.v.v.v.v.v.1 ~ [ z / | | [ [ [ [ [ [ [ [ [ | Q 9 q.k.;.P ' | [ [ [ [ [ [ [ [ ] _ K ! / l Z [ [ [ [ [ [ [ [ [ [ [ [ M v.v.",
"v.v.v.v.v.v.v.v.v.v.M ( z ` | [ [ [ [ [ [ [ [ [ [ [ N g f.y. .^ | | [ [ [ [ [ [ [ [ [ [ ` M S v , ` | | [ | [ [ | [ | [ | Z O v.",
"v.v.v.v.v.v.v.v.v.v.: A z ` [ [ [ [ [ [ [ [ [ [ [ [ 2 #.z.3.J [ | | [ [ [ [ [ [ [ [ [ [ | ] V l - ! _ ) ] ` ` ] ` ] ] ] [ ! $ v.",
"v.v.v.v.v.v.v.v.v.v.- M z ] [ [ [ [ [ [ [ [ [ [ [ ' 5 -.x.>.I [ | [ [ [ [ [ [ [ [ [ [ [ | [ ] D & : 1 > z l , l l > z z l ; O o ",
"v.v.v.v.v.v.v.v.v.v.o * z ] | [ [ [ [ [ [ [ [ [ [ ) 4 6.c.1.H [ | [ [ [ [ [ [ [ [ [ [ | | [ | ] z M ( / ( / / ~ ! ~ ! W W A Z N ",
"v.v.v.v.v.v.v.v.v.v.v.O > | [ [ [ [ [ [ [ [ [ [ [ ' 6 2.c.3.Y ' [ [ [ [ [ [ [ [ [ [ [ [ [ [ | ] v ~ [ | [ | | | [ | [ [ | | | N ",
"v.v.v.v.v.v.v.v.v.v.v.  : [ [ [ [ [ [ [ [ [ [ [ [ [ 3 =.c.p.o.^ [ [ [ [ [ [ [ [ [ [ [ [ [ [ [ ] , ! | [ [ [ [ [ [ [ [ [ [ | _ , ",
"v.v.v.v.v.v.v.v.v.v.v.v.* ` | [ [ [ [ [ [ [ [ [ [ ] b &.l.t.i ! | [ [ [ [ [ | [ [ [ [ [ [ [ [ _ l ( | [ [ [ [ [ [ [ [ [ [ [ N o ",
"v.v.v.v.v.v.v.v.v.v.v.v.@ _ | [ [ [ [ [ [ [ [ [ [ [ W p u.5.6 z ` | [ [ | [ [ [ [ [ [ [ [ [ [ N z [ [ [ [ [ [ [ [ [ [ [ | ~ * v.",
"v.v.v.v.v.v.v.v.v.v.v.v.& A [ [ [ [ [ [ [ [ [ [ [ [ ) T -.a V M / [ [ [ | [ [ [ [ [ [ [ | | ] v Z [ [ [ [ [ [ [ [ [ | | _ v v.v.",
"v.v.v.v.v.v.v.v.v.v.v.v.X v | [ [ [ [ [ [ [ [ [ [ | | M t R [ W H ] [ [ [ [ [ [ [ [ [ [ | | ~ , _ | [ [ [ [ [ [ [ [ | | ~ O v.v.",
"v.v.v.v.v.v.v.v.v.v.v.v.v.z ] [ [ [ [ [ [ [ [ [ [ [ [ ] 1 , [ ] C S [ [ [ [ [ [ [ [ [ [ | ~ l / [ [ [ [ [ | [ [ [ [ | _ - v.v.v.",
"v.v.v.v.v.v.v.v.v.v.v.v.v.& _ | [ [ [ [ [ [ [ [ [ [ [ [ ( > c ] ( S ~ [ [ [ [ [ [ [ [ | ~ c Z _ [ [ [ [ [ [ [ [ [ | ] z v.v.v.v.",
"v.v.v.v.v.v.v.v.v.v.v.v.v.v.N [ [ [ [ [ [ [ [ [ [ | [ [ ] ( , M ( m Z ( [ [ [ [ [ [ [ W l Z _ | [ [ [ [ [ [ [ [ | ] Z v.v.v.v.v.",
"v.v.v.v.v.v.v.v.v.v.v.v.v.v.: ] [ [ [ [ [ [ [ [ [ [ [ [ [ [ ] l c k < M ` [ [ ` ` D v j ~ _ | [ [ [ [ [ [ [ [ [ [ ~ * v.v.v.v.v.",
"v.v.v.v.v.v.v.v.v.v.v.v.v.v.@ A [ [ [ [ [ [ [ [ [ [ [ [ [ [ [ [ W M ; O , c v c , c v ] [ [ | [ [ [ [ [ [ [ [ [ _ - . v.v.v.v.v.",
"v.v.v.v.v.v.v.v.v.v.v.v.v.v.v.c _ [ [ [ [ [ [ [ [ [ [ [ [ [ [ | [ [ ! ; c N Z W / ` [ [ [ [ [ [ [ [ [ [ [ [ [ ] : o v.v.v.v.v.v.",
"v.v.v.v.v.v.v.v.v.v.v.v.v.v.v.O ! [ [ [ [ [ [ [ [ [ [ [ [ [ [ [ [ [ [ z A | [ | | [ [ [ [ [ | [ [ [ [ [ [ | [ > @ v.v.v.v.v.v.v.",
"v.v.v.v.v.v.v.v.v.v.v.v.v.v.v.v.= _ [ [ [ [ [ [ [ [ [ [ [ [ [ [ [ | ] z W [ [ [ [ [ [ [ [ [ [ [ [ [ | [ [ [ l * v.v.v.v.v.v.v.v.",
"v.v.v.v.v.v.v.v.v.v.v.v.v.v.v.v.v.> ] [ [ [ [ [ [ [ [ [ [ [ [ [ [ [ ] z ~ | [ [ [ [ [ [ [ [ [ [ [ [ [ | [ z ; v.v.v.v.v.v.v.v.v.",
"v.v.v.v.v.v.v.v.v.v.v.v.v.v.v.v.v.- z [ | [ [ [ [ [ [ [ [ [ [ [ [ [ [ c ~ | [ [ [ [ [ [ [ [ [ [ [ [ [ [ z ; v.v.v.v.v.v.v.v.v.v.",
"v.v.v.v.v.v.v.v.v.v.v.v.v.v.v.v.v.v.- z [ [ [ [ [ [ [ [ [ [ [ [ [ [ [ v ~ | [ [ [ [ [ [ [ [ [ [ [ [ ] l - v.v.v.v.v.v.v.v.v.v.v.",
"v.v.v.v.v.v.v.v.v.v.v.v.v.v.v.v.v.v.v.; c [ [ [ [ [ [ [ [ [ [ [ [ | ] z ~ | [ [ [ [ [ [ [ [ [ [ [ _ > v.v.v.v.v.v.v.v.v.v.v.v.v.",
"v.v.v.v.v.v.v.v.v.v.v.v.v.v.v.v.v.v.v.v.; z [ [ | [ [ [ [ [ [ [ [ [ ] v ~ | [ [ [ [ [ [ [ [ | | ( - v.v.v.v.v.v.v.v.v.v.v.v.v.v.",
"v.v.v.v.v.v.v.v.v.v.v.v.v.v.v.v.v.v.v.v.v.% 1 _ [ [ [ [ [ [ [ [ [ [ | z W | | [ [ [ [ [ | | ` W $ v.v.v.v.v.v.v.v.v.v.v.v.v.v.v.",
"v.v.v.v.v.v.v.v.v.v.v.v.v.v.v.v.v.v.v.v.v.v.O ; W ` | | [ [ [ [ [ | | l A | | [ [ [ [ [ | ~ v + v.v.v.v.v.v.v.v.v.v.v.v.v.v.v.v.",
"v.v.v.v.v.v.v.v.v.v.v.v.v.v.v.v.v.v.v.v.v.v.v.v.v., ~ ` | [ [ [ [ [ ] z W | [ [ [ | [ | Z z v.v.v.v.v.v.v.v.v.v.v.v.v.v.v.v.v.v.",
"v.v.v.v.v.v.v.v.v.v.v.v.v.v.v.v.v.v.v.v.v.v.v.v.v.v.+ l Z ( [ [ | | | z A [ [ [ | [ ( j * v.v.v.v.v.v.v.v.v.v.v.v.v.v.v.v.v.v.v.",
"v.v.v.v.v.v.v.v.v.v.v.v.v.v.v.v.v.v.v.v.v.v.v.v.v.v.v.v.O - : M A / ( > W | | [ _ v * . v.v.v.v.v.v.v.v.v.v.v.v.v.v.v.v.v.v.v.v.",
"v.v.v.v.v.v.v.v.v.v.v.v.v.v.v.v.v.v.v.v.v.v.v.v.v.v.v.v.v.v.  O # - > & A | ( N * v.v.v.v.v.v.v.v.v.v.v.v.v.v.v.v.v.v.v.v.v.v.v.",
"v.v.v.v.v.v.v.v.v.v.v.v.v.v.v.v.v.v.v.v.v.v.v.v.v.v.v.v.v.v.v.v.v.v.v.O N v l v.v.v.v.v.v.v.v.v.v.v.v.v.v.v.v.v.v.v.v.v.v.v.v.v.",
"v.v.v.v.v.v.v.v.v.v.v.v.v.v.v.v.v.v.v.v.v.v.v.v.v.v.v.v.v.v.v.v.v.v.v.X % O v.v.v.v.v.v.v.v.v.v.v.v.v.v.v.v.v.v.v.v.v.v.v.v.v.v.",
"v.v.v.v.v.v.v.v.v.v.v.v.v.v.v.v.v.v.v.v.v.v.v.v.v.v.v.v.v.v.v.v.v.v.v.v.v.v.v.v.v.v.v.v.v.v.v.v.v.v.v.v.v.v.v.v.v.v.v.v.v.v.v.v."
};
