/* XPM */
static char *_2[] = {
/* columns rows colors chars-per-pixel */
"64 64 136 2 ",
"   c #020000",
".  c #0C0001",
"X  c #130002",
"o  c #1B0003",
"O  c #240004",
"+  c #2B0005",
"@  c #340006",
"#  c #3B0007",
"$  c #3C0008",
"%  c #430008",
"&  c #4B0009",
"*  c #53000A",
"=  c #5C000B",
"-  c #500F18",
";  c #63000C",
":  c #6B000D",
">  c #74000E",
",  c #7C000F",
"<  c #6F0A18",
"1  c #7B0110",
"2  c #74101E",
"3  c #641824",
"4  c #6C1D29",
"5  c #7F1D2C",
"6  c #4E2B34",
"7  c #552B33",
"8  c #652731",
"9  c #742531",
"0  c #563D47",
"q  c #57444D",
"w  c #4E4B53",
"e  c #55565E",
"r  c #5C545D",
"t  c #6E434D",
"y  c #79404E",
"u  c #634D57",
"i  c #7F4853",
"p  c #7F4D58",
"a  c #665F6A",
"s  c #765560",
"d  c #7C5D68",
"f  c #5B6067",
"g  c #5B6972",
"h  c #676873",
"j  c #81000F",
"k  c #88000E",
"l  c #830010",
"z  c #8C0111",
"x  c #820D1C",
"c  c #930012",
"v  c #9C0013",
"b  c #9A0719",
"n  c #96091A",
"m  c #9E0B1C",
"M  c #A40014",
"N  c #AB0015",
"B  c #A20619",
"V  c #AD0418",
"C  c #A20A1D",
"Z  c #B30016",
"A  c #BB0016",
"S  c #B30419",
"D  c #BC0218",
"F  c #891121",
"G  c #811E2E",
"H  c #8B1928",
"J  c #9D1424",
"K  c #AE0F23",
"L  c #BC0E22",
"P  c #BB142A",
"I  c #892E3B",
"U  c #982A39",
"Y  c #C20016",
"T  c #CA0015",
"R  c #C40018",
"E  c #CB0019",
"W  c #D20016",
"Q  c #D4001A",
"!  c #DC001B",
"~  c #E30016",
"^  c #E4001B",
"/  c #EB001C",
"(  c #F4001D",
")  c #FF001F",
"_  c #C40D24",
"`  c #FF0020",
"'  c #963544",
"]  c #AC3042",
"[  c #A03A4A",
"{  c #B1394C",
"}  c #854754",
"|  c #8B4552",
" . c #8B4855",
".. c #855964",
"X. c #637680",
"o. c #687B85",
"O. c #717983",
"+. c #8A7A85",
"@. c #71818D",
"#. c #7F838D",
"$. c #6B8690",
"%. c #7497A2",
"&. c #7E9AA7",
"*. c #7CA1AE",
"=. c #818492",
"-. c #848993",
";. c #8B99A3",
":. c #949FA8",
">. c #85A9B5",
",. c #85ACB9",
"<. c #8CAAB8",
"1. c #9AB1BD",
"2. c #94B1C0",
"3. c #A5BDCA",
"4. c #9CC3D1",
"5. c #A9C7D3",
"6. c #AEC8D4",
"7. c #A7CFDA",
"8. c #B3C9D5",
"9. c #ABD0DD",
"0. c #B1D2DE",
"q. c #ACD6E5",
"w. c #AFDAE8",
"e. c #B4D6E2",
"r. c #B9DBE7",
"t. c #B5DDEC",
"y. c #BCDEEA",
"u. c #B9E0EE",
"i. c #BCE5F4",
"p. c #BFE7F8",
"a. c #BDEBFC",
"s. c #C3E6F4",
"d. c #C7E8F4",
"f. c #C3EBFB",
"g. c #CEF0FE",
"h. c None",
/* pixels */
"h.h.h.h.h.h.h.h.h.h.h.h.h.h.h.h.h.h.h.h.h.h.h.h.h.h.h.h.h.h.h.h.h.h.h.h.h.h.h.h.h.h.h.h.h.h.h.h.h.h.h.h.h.h.h.h.h.h.h.h.h.h.h.h.",
"h.h.h.h.h.h.h.h.h.h.h.h.h.h.h.h.h.h.h.h.h.h.h.h.h.h.h.h.h.h.h.h.h.h.h.h.h.h.h.h.h.h.h.h.h.h.h.h.h.h.h.h.h.h.h.h.h.h.h.h.h.h.h.h.",
"h.h.h.h.h.h.h.h.h.h.h.h.h.h.h.h.h.h.h.h.h.h.h.h.h.h.h.h.h.h.h.h.h.h.h.h.h.h.h.h.h.h.h.h.h.h.h.h.h.h.h.h.h.h.h.h.h.h.h.h.h.h.h.h.",
"h.h.h.h.h.h.h.h.h.h.h.h.h.h.h.h.h.h.h.h.h.h.h.h.h.h.h.h.h.h.h.h.h.h.h.h.h.h.h.h.h.h.h.h.h.h.h.h.h.h.h.h.h.h.h.h.h.h.h.h.h.h.h.h.",
"h.h.h.h.h.h.h.h.h.h.h.h.h.h.% & h.h.h.h.h.h.h.h.h.h.h.h.h.h.h.h.h.h.h.h.h.h.h.h.h.h.h.h.h.h.h.h.h.h.h.h.h.h.h.h.h.h.h.h.h.h.h.h.",
"h.h.h.h.h.h.h.h.h.h.h.h.h.+ Z Q R M l ; & @   h.h.h.h.h.h.h.h.h.h.h.h.h.h.h.h.h.h.h.h.h.h.h.h.h.h.h.h.h.h.h.h.h.h.h.h.h.h.h.h.h.",
"h.h.h.h.h.h.h.h.h.h.h.h.O l ( ` ) ` ( / Q Z , : = + h.h.h.h.h.h.h.h.h.h.h.h.h.h.h.h.h.h.h.h.h.h.h.h.h.h.h.h.h.h.h.h.h.h.h.h.h.h.",
"h.h.h.h.h.h.h.h.h.h.h.o = ^ ) ) ) ) ` ` ` ) ` ^ ! Z M ; : o O h.h.h.h.h.h.h.h.h.h.h.h.h.h.h.h.h.h.h.h.h.h.h.h.h.h.h.h.h.h.h.h.h.",
"h.h.h.h.h.h.h.h.h.h.h.+ Q ` ` ` ) ) ) ) ) ) ) ` ) ) ) ` ! Q c M = 1 O h.h.h.h.h.h.h.h.h.h.h.h.h.h.h.h.h.h.h.h.h.h.h.h.h.h.h.h.h.",
"h.h.h.h.h.h.h.h.h.h.h.; M ( ` ` ) ) ) ) ) ) ) ) ) ) ) ` ` ` ) R N , & o + O $ + h.o h.h.h.h.h.h.h.h.h.h.h.h.h.h.h.h.h.h.h.h.h.h.",
"h.h.h.h.h.h.h.h.h.h.h.h.h.v Q ` ) ) ) ` ) ) ) ) ) ) ` ( Q v , j l c N R E ! E Q A v c * & h.h.h.h.h.h.h.h.h.h.h.h.h.h.h.h.h.h.h.",
"h.h.h.h.h.h.h.h.h.h.h.h.h.h.z A ` ` ) ` ) ) ) ) ` / E 1 > l N / ( ` ` ) ` ` ` ` ) ` ( ) E A : % h.h.h.h.h.h.h.h.h.h.h.h.h.h.h.h.",
"h.h.h.h.h.h.h.h.h.h.h.h.h.h.h.z M ^ ` ` ) ) ) ( ! , , z W ) ) ) ) ) ) ) ) ) ) ) ) ) ) ) ) ) ) Y c z X h.h.h.h.h.h.h.h.h.h.h.h.h.",
"h.h.h.h.h.h.h.h.h.h.h.h.h.h.h.h.h.v E ` ) ) ) c 1 l Q ) ) ) ) ) ) ) ) ) ) ) ) ) ) ) ) ) ) ) ) ) ( Q v @ h.h.h.h.h.h.h.h.h.h.h.h.",
"h.h.h.h.h.h.h.h.h.h.h.h.h.h.h.h.h.h.z Z ) Q l > A ) ) ) ) ) ) ) ) ) ) ) ) ) ) ) ) ) ) ) ) ) ) ) ) ) ( E * O h.h.h.h.h.h.h.h.h.h.",
"h.h.h.h.h.h.h.h.h.h.h.h.h.h.h.h.h.h.h.h.> l > ^ ) ) ) ) ) ) ) ) ) ) ) ) ) ) ) ) ) ) ) ) ) ) ) ) ) ) ` ) ^ 1 X h.h.h.h.h.h.h.h.h.",
"h.h.h.h.h.  h.h.h.h.h.h.h.h.h.h.h.h.h.h.+ v ^ ` ) ) ) ) ) ) ) ) ) ) ) ) ) ) ) ) ) ) ) ) ) ) ) ) ) ) ) ` ) ^ z o h.h.h.h.h.h.h.h.",
"h.h.h.h.  @ # h.h.h.h.h.h.h.h.h.h.h.h.O v / ` ) ) ) ) ) ) ) ) ) ) ) ) ) ) ) ) ) ) ) ) ) ) ) ) ) ) ) ) ) ) ) ! z h.h.h.h.h.h.h.h.",
"h.h.h.  # Q M & h.h.h.h.h.h.h.h.h.h.$ z ) ) ) ) ) ) ) ) ) ) ) ) ) ) ) ) ) ) ) ) ) ) ) ) ) ) ) ) ) ) ) ) ) ) ` ^ > + h.h.h.h.h.h.",
"h.h.h.o Z ( ` Q ; # h.h.h.h.h.h.h.h.> ( ) ) ) ) ) ) ) ) ) ) ) ) ) ) ) ) ) ) ) ) ) ) ) ) ) ) ) ) ) ) ) ) ) ) ` ` / = h.h.h.h.h.h.",
"h.h.. l / ` ` ` ( k % h.h.h.h.h.h.; / ` ) ) ) ) ) ) ) ) ) ) ) ) ) ) ) ) ) ) ) ) ) ) ) ) ) ) ) ) ) ) ) ) ) ) ) ) ` Y , h.h.h.h.h.",
"h.  & ^ ` ` ) ) ) ) Z * h.h.h.h.% A ` ) ) ) ) ) ) ) ) ) ) ) ) ) ) ) ) ) ) ) ) ) ) ) ) ) ) ) ) ) ) ) ) ) ) ) ) ) ` ` z o h.h.h.h.",
"h.h.j ^ ` ) ) ) ) ) ) ^ > # h.o j ) ) ) ) ) ) ) ) ) ) ) ) ) ) ) ) ) ) ) ) ( ( ( ) ) ) ) ) ) ) ) ) ) ) ) ) ) ) ) ` ` / ; h.h.h.h.",
"h.h.@ N ` ) ) ) ) ) ) ) ) v # @ ! ) ) ) ) ) ) ) ) ) ) ) ) ) ) ) ) / Y B x 5 4 F z Y W ) ) ) ) ) ) ) ) ) ) ) ) ) ` ` ) M O h.h.h.",
"h.h.h.> ^ ` ` ) ) ) ) ) ) ) j N ( ) ) ) ) ) ) ) ) ) ) ) ) ) ) ( A H q h *.,.,.*.@.h 3 k ~ ) ) ) ) ) ) ) ) ) ) ) ) ) ) ( : h.h.h.",
"h.h.h.O v ` ` ) ) ) ) ) ) ! v E ) ) ) ) ) ) ) ) ) ) ) ) ) ) W J r >.9.f.f.a.f.f.a.>.q , : T ) ) ) ) ) ) ) ) ) ) ) ) ) ` M h.h.h.",
"h.h.h.h.= E ` ) ) ) ) ) ` E l ) ` ) ) ) ) ) ) ) ) ) ) ) ) ^ 2 o.4.f.s.u.5.6.8.7.1.t _ / E > M ) ` ) ) ) ) ) ) ) ) ) ) ) ! ; h.h.",
"h.h.h.h.. l ( ` ) ) ) ) ) c D ` ) ) ) ) ) ) ) ) ) ) ) ) ( < =.q.s.8.....' ] U } 7 n ! ` ) W j N ( ) ) ) ) ) ) ) ) ) ) ) ) l h.h.",
"h.h.h.h.h.& A ` ) ) ) ` ^ c R ) ) ) ) ) ) ) ) ) ) ) ) ) z a q.s.:.{ _ ~ ) ( ( ~ T S D C ! / V z ! ) ) ) ) ) ) ` ) ` ) ) ) M o h.",
"h.h.h.h.h.h.v ( ) ) ) ` ^ 1 ( ) ) ) ) ) ) ) ) ) ) ) ) Y 7 4.a.;.[ ~ ) ) ) ) ) ) ) ) / Q m A E 1 c ) ` ) ` ) / / Q A N v l ; % = ",
"h.h.h.h.h.h.+ c ) ) ) ) Y N ( ` ) ) ) ) ) ) ) ) ) ) ( c $.u.3.p ! ) ) ) ) ) ) ) ) ) ` ) ` S m z ; Y Y N Z c l l , 1 c N A Q ! ^ ",
"h.h.h.h.h.h.h.1 ^ ` ` ` Z v ` ` ) ) ) ) ) ) ) ) ) ) / 9 ,.d.#.L ( ) ) ) ) ) ) ) ) ) ) ` ` ` ! S * * , z M Z E Q / ( ) ) ` ` ` R ",
"h.h.h.h.h.h.h.O > ` ` ( v A ) ) ) ) ) ) ) ) ) ) ) ) T 6 q.u...T ) ) ) ) ) ) ) ) ) ) ) ) ) ) ) ( Z l / ( ) ` ` ) ) ) ) ) ) ` ) v ",
"h.h.h.h.h.h.h.h.* A ` ) v Z ) ) ) ) ) ) ) ) ) ) ) ) Y r e.9.} ( ) ) ) ) ) ) ) ) ) ) ) ) ) ) ) ` E c ( ` ) ) ) ) ) ) ) ) ) ) / & ",
"h.h.h.h.h.h.h.h.  = / ) v R ) ) ) ) ) ) ) ) ) ) ) ) Z e i.r.| ^ ) ) ) ) ) ) ) ) ) ) ) ) ) ) ) ` Q > / ` ) ) ) ) ) ) ) ) ) ` M & ",
"h.h.h.h.h.h.h.h.h.h.Z ) c A ) ) ) ) ) ) ) ) ) ) ) ) A w r.u.d T ) ) ) ) ) ) ) ) ) ) ) ) ) ) ) ) Q z ^ ` ) ) ) ) ) ) ) ) ) / c h.",
"h.h.h.h.h.h.h.h.h.h.* Q M A ) ) ) ) ) ) ) ) ) ) ) ) A 7 q.d.-.K ) ) ) ) ) ) ) ) ) ) ) ) ) ) ) ` D z ) ) ) ) ) ) ) ) ) ) ) ^ @ h.",
"h.h.h.h.h.h.h.h.h.h.h.c c V ) ) ) ) ) ) ) ) ) ) ) ) ^ 8 4.g.5.I ~ ) ) ) ) ) ) ) ) ) ) ) ) ) ) ) Z M ( ) ) ) ) ) ) ) ) ) ` z + h.",
"h.h.h.h.h.h.h.h.h.h.h.$ , c ) ) ) ) ) ) ) ) ) ) ) ) ) x $.d.e.f V ) ) ) ) ) ) ) ) ) ) ) ) ) ` ` c Z ) ) ) ) ) ) ) ) ) ` Q : h.h.",
"h.h.h.h.h.h.h.h.h.h.h.h.% > ( ) ) ) ) ) ) ) ) ) ) ) ) S u e.w.s > T ) ) ) ) ) ) ) ) ) ) ) ) ` R z / ) ) ) ) ) ) ) ) ` ) M h.h.h.",
"h.h.h.h.h.h.h.h.h.h.h.h.  * / ) ) ) ) ) ) ) ) ) ) ) ) ( 5 %.1.9 V Z / ) ` ` ` ) ) ) ) ) ) ` / c Z ( ) ) ) ) ) ) ) ) ) Q = h.h.h.",
"h.h.h.h.h.h.h.h.h.h.h.h.h.O D ` ) ) ) ) ) ) ) ) ) ) ) ) Y y g P ( B n ( ` ) ) ) ) ) ) ) ) ) c N ! ) ) ) ) ) ) ) ) ` ( v X h.h.h.",
"h.h.h.h.h.h.h.h.h.h.h.h.h.. z ) ) ) ) ) ) ) ) ) ) ) ) ) ) B - N ) ( S V / ` ) ` ) ) ) ) ) N c E ` ` ) ) ) ) ) ) ) ) ! @ h.h.h.h.",
"h.h.h.h.h.h.h.h.h.h.h.h.h.h.* ! ) ) ) ) ) ) ) ) ) ) ) ) ) ) A ; M ( ~ Y D ! ) ` ` ) ) Q N l ! ( ` ` ) ) ) ) ) ) ) ) : h.h.h.h.h.",
"h.h.h.h.h.h.h.h.h.h.h.h.h.h.O Z ) ) ) ) ) ) ) ) ) ) ) ) ) ) ( Q , k E S c B ^ ( / E Z 1 c ^ ) ) ) ) ) ) ) ) ) ) ` N $ h.h.h.h.h.",
"h.h.h.h.h.h.h.h.h.h.h.h.h.h.h.j / ) ) ) ) ) ) ) ) ) ) ) ) ) ` ) ( Z l z ; @ * k c 1 c Q / ` ) ) ) ) ) ) ) ) ) ` ^ ; h.h.h.h.h.h.",
"h.h.h.h.h.h.h.h.h.h.h.h.h.h.h.+ S ) ) ) ) ) ) ) ) ) ) ) ) ) ) ) ) ) / ~ T j * Z Q ^ ( ` ) ) ) ) ) ) ) ) ) ) ) ) l h.h.h.h.h.h.h.",
"h.h.h.h.h.h.h.h.h.h.h.h.h.h.h.h., ! ) ) ) ) ) ) ) ) ) ) ) ) ) ) ) ) ) ) ) ^ , ! ) ) ` ) ) ) ) ) ) ) ) ) ) ) ` M ; h.h.h.h.h.h.h.",
"h.h.h.h.h.h.h.h.h.h.h.h.h.h.h.h.o c ) ` ) ) ) ) ) ) ) ) ) ) ) ) ) ) ) ) ` / l R ) ) ) ) ) ) ) ) ) ) ) ) ) ` R ; h.h.h.h.h.h.h.h.",
"h.h.h.h.h.h.h.h.h.h.h.h.h.h.h.h.h.% Z ) ) ) ) ) ) ) ) ) ) ) ) ) ) ) ) ) ` ` v A ) ) ) ) ) ) ) ) ) ) ) ) ) / : h.h.h.h.h.h.h.h.h.",
"h.h.h.h.h.h.h.h.h.h.h.h.h.h.h.h.h.h., Q ) ) ) ) ) ) ) ) ) ) ) ) ) ) ) ) ) ` Z M ) ) ) ) ) ) ) ) ) ) ) ) ( : h.h.h.h.h.h.h.h.h.h.",
"h.h.h.h.h.h.h.h.h.h.h.h.h.h.h.h.h.h.  ; / ) ) ) ) ) ) ) ) ) ) ) ) ) ) ) ) ` Q c ( ) ) ) ) ) ) ) ) ) ) ) z @ h.h.h.h.h.h.h.h.h.h.",
"h.h.h.h.h.h.h.h.h.h.h.h.h.h.h.h.h.h.h.+ ; ! ` ) ) ) ) ) ) ) ) ) ) ) ) ) ) ` E z / ` ) ) ) ) ) ) ) ` ( M O h.h.h.h.h.h.h.h.h.h.h.",
"h.h.h.h.h.h.h.h.h.h.h.h.h.h.h.h.h.h.h.h.h.; Z ` ) ) ) ) ) ) ) ) ) ) ) ) ) ) / z ! ` ) ) ) ) ) ) ` / M + h.h.h.h.h.h.h.h.h.h.h.h.",
"h.h.h.h.h.h.h.h.h.h.h.h.h.h.h.h.h.h.h.h.h.h.; c ( ` ) ` ) ) ) ) ) ) ) ) ) ) ) z A ` ` ) ) ) ) ` ) v h.h.h.h.h.h.h.h.h.h.h.h.h.h.",
"h.h.h.h.h.h.h.h.h.h.h.h.h.h.h.h.h.h.h.h.h.h.h.h., E ` ) ) ) ) ) ) ) ) ) ) ) ) M v ` ) ) ) ) ) ) z : h.h.h.h.h.h.h.h.h.h.h.h.h.h.",
"h.h.h.h.h.h.h.h.h.h.h.h.h.h.h.h.h.h.h.h.h.h.h.h.h.* c ^ ( ` ` ) ) ) ) ) ) ) ` Z c ) ) ) ) ` ^ 1 + h.h.h.h.h.h.h.h.h.h.h.h.h.h.h.",
"h.h.h.h.h.h.h.h.h.h.h.h.h.h.h.h.h.h.h.h.h.h.h.h.h.h.# & Z A ) ` ` ) ) ) ) ) ` E l / ) ) ) R z   h.h.h.h.h.h.h.h.h.h.h.h.h.h.h.h.",
"h.h.h.h.h.h.h.h.h.h.h.h.h.h.h.h.h.h.h.h.h.h.h.h.h.h.h.h.h.> = v Z ^ ^ ) / ) ` E : ! ` / Y & h.h.h.h.h.h.h.h.h.h.h.h.h.h.h.h.h.h.",
"h.h.h.h.h.h.h.h.h.h.h.h.h.h.h.h.h.h.h.h.h.h.h.h.h.h.h.h.h.h.h.X * @ ; * : 1 > > % E ( N % h.h.h.h.h.h.h.h.h.h.h.h.h.h.h.h.h.h.h.",
"h.h.h.h.h.h.h.h.h.h.h.h.h.h.h.h.h.h.h.h.h.h.h.h.h.h.h.h.h.h.h.h.h.h.h.h.h.h.h.h.O z = h.h.h.h.h.h.h.h.h.h.h.h.h.h.h.h.h.h.h.h.h.",
"h.h.h.h.h.h.h.h.h.h.h.h.h.h.h.h.h.h.h.h.h.h.h.h.h.h.h.h.h.h.h.h.h.h.h.h.h.h.h.h.. + o h.h.h.h.h.h.h.h.h.h.h.h.h.h.h.h.h.h.h.h.h.",
"h.h.h.h.h.h.h.h.h.h.h.h.h.h.h.h.h.h.h.h.h.h.h.h.h.h.h.h.h.h.h.h.h.h.h.h.h.h.h.h.h.h.h.h.h.h.h.h.h.h.h.h.h.h.h.h.h.h.h.h.h.h.h.h.",
"h.h.h.h.h.h.h.h.h.h.h.h.h.h.h.h.h.h.h.h.h.h.h.h.h.h.h.h.h.h.h.h.h.h.h.h.h.h.h.h.h.h.h.h.h.h.h.h.h.h.h.h.h.h.h.h.h.h.h.h.h.h.h.h."
};
