/* XPM */
static char *_[] = {
/* columns rows colors chars-per-pixel */
"64 64 140 2 ",
"   c #030000",
".  c #0C0001",
"X  c #140002",
"o  c #1B0003",
"O  c #230004",
"+  c #2C0005",
"@  c #340006",
"#  c #3B0007",
"$  c #3F0008",
"%  c #430007",
"&  c #420008",
"*  c #4B0009",
"=  c #54000A",
"-  c #5B000B",
";  c #540B15",
":  c #63000C",
">  c #6B000D",
",  c #74000E",
"<  c #7B000E",
"1  c #7C0211",
"2  c #740513",
"3  c #541F29",
"4  c #631622",
"5  c #7A1321",
"6  c #5A2E37",
"7  c #69232E",
"8  c #6A2D39",
"9  c #67333E",
"0  c #573741",
"q  c #583E47",
"w  c #783A47",
"e  c #4A4249",
"r  c #584148",
"t  c #5D4B55",
"y  c #564F58",
"u  c #6F444D",
"i  c #6D4550",
"p  c #614954",
"a  c #7E4F5A",
"s  c #5B5B64",
"d  c #665B65",
"f  c #5F757E",
"g  c #776C78",
"h  c #80000F",
"j  c #8B000F",
"k  c #9C000D",
"l  c #830010",
"z  c #8C0011",
"x  c #8F0817",
"c  c #930012",
"v  c #9B0013",
"b  c #9D0719",
"n  c #9A0C1D",
"m  c #A2000E",
"M  c #B3000E",
"N  c #A30014",
"B  c #AB0015",
"V  c #A60519",
"C  c #AC0519",
"Z  c #AE0A1E",
"A  c #A30D1E",
"S  c #B20016",
"D  c #BC0017",
"F  c #BD0319",
"G  c #B1091E",
"H  c #8F1526",
"J  c #811826",
"K  c #8A1C2A",
"L  c #911B2B",
"P  c #BC0B21",
"I  c #A51224",
"U  c #A81226",
"Y  c #B81328",
"T  c #9E2C3C",
"R  c #A82031",
"E  c #C20016",
"W  c #CD0014",
"Q  c #C40018",
"!  c #CC0019",
"~  c #D70017",
"^  c #DB0017",
"/  c #D4001A",
"(  c #DC001B",
")  c #E30013",
"_  c #E3001B",
"`  c #EC001D",
"'  c #F4001D",
"]  c #FF001F",
"[  c #C20A21",
"{  c #C5182E",
"}  c #FF0020",
"|  c #A02F40",
" . c #83505B",
".. c #845561",
"X. c #8A5763",
"o. c #865F6A",
"O. c #94717D",
"+. c #7C7C87",
"@. c #717F8A",
"#. c #7A7D8A",
"$. c #6B848C",
"%. c #71858F",
"&. c #6B8D98",
"*. c #758691",
"=. c #708E99",
"-. c #7E929E",
";. c #7897A2",
":. c #7B98A5",
">. c #858C95",
",. c #998490",
"<. c #8D97A4",
"1. c #8EA1AB",
"2. c #96A4AD",
"3. c #85ABB7",
"4. c #9CAFBA",
"5. c #A9B3BE",
"6. c #91B8C6",
"7. c #A9BDC9",
"8. c #9AC1CF",
"9. c #9CC5D2",
"0. c #9CC8D8",
"q. c #A6C0CC",
"w. c #A5C7D3",
"e. c #A4CEDE",
"r. c #B1CEDA",
"t. c #A8D0DF",
"y. c #B4D0DE",
"u. c #ACDBE9",
"i. c #B9D4E1",
"p. c #B5D8E4",
"a. c #B4DDEC",
"s. c #BADDE9",
"d. c #B6E1F0",
"f. c #BCE5F3",
"g. c #C0E6F7",
"h. c #C5E9F7",
"j. c #C0E7F8",
"k. c #C3EBFA",
"l. c #CAEDFB",
"z. c None",
/* pixels */
"z.z.z.z.z.z.z.z.z.z.z.z.z.z.z.z.z.z.z.z.z.z.z.z.z.z.z.z.z.z.z.z.z.z.z.z.z.z.z.z.z.z.z.z.z.z.z.z.z.z.z.z.z.z.z.z.z.z.z.z.z.z.z.z.",
"z.z.z.z.z.z.z.z.z.z.z.z.z.z.z.z.z.z.z.z.z.z.z.z.z.z.z.z.z.z.z.z.z.z.z.z.z.z.z.z.z.z.z.z.z.z.z.z.z.z.z.z.z.z.z.z.z.z.z.z.z.z.z.z.",
"z.z.z.z.z.z.z.z.z.z.z.z.z.z.z.z.z.z.z.z.z.z.z.z.z.z.z.z.z.z.z.z.z.z.z.z.z.z.z.z.z.z.z.z.z.z.z.z.z.z.z.z.z.z.z.z.z.z.z.z.z.z.z.z.",
"z.z.z.z.z.z.z.z.z.z.z.z.z.z.z.z.z.z.z.z.z.z.z.z.z.z.z.z.z.z.z.z.z.z.z.z.z.z.z.z.z.z.z.z.z.z.z.z.z.z.z.z.z.z.z.z.z.z.z.z.z.z.z.z.",
"z.z.z.z.z.z.z.z.z.z.z.z.z.z.z.z.z.z.z.z.z.z.z.z.z.z.z.z.z.z.z.z.z.z.z.z.z.z.z.z.z.z.z.z.z.z.z.z.z.z.z.z.z.z.z.z.z.z.z.z.z.z.z.z.",
"z.z.z.z.z.z.z.z.z.z.z.z.z.z.z.z.z.z.z.z.z.z.z.z.z.z.z.z.z.z.z.z.z.z.z.z.z.z.z.z.z.z.z.z.z.z.z.z.z.z.z.z.z.z.z.z.z.z.z.z.z.z.z.z.",
"z.z.z.z.z.z.z.z.z.z.z.z.z.z.z.z.z.z.z.z.z.z.z.z.z.z.z.z.z.z.z.z.z.z.z.z.z.z.z.z.z.z.z.z.z.z.z.z.z.z.z.z.z.z.z.z.z.z.z.z.z.z.z.z.",
"z.z.z.z.z.z.z.z.z.z.z.z.z.z.z.z.z.z.z.z.z.z.z.z.z.z.z.z.z.z.z.z.z.z.z.z.z.z.z.z.z.z.z.z.z.z.z.z.z.z.z.z.z.z.z.z.z.z.z.z.z.z.z.z.",
"z.z.z.z.z.z.z.z.z.z.z.z.z.z.z.z.z.z.z.z.z.z.z.z.z.z.z.z.z.z.z.z.z.z.z.z.z.z.z.z.z.z.z.z.z.z.z.z.z.z.z.z.z.z.z.z.z.z.z.z.z.z.z.z.",
"z.z.z.z.z.z.z.z.z.z.z.z.z.z.z.z.z.z.z.z.z.z.z.+ X o z.O . z.z.z.z.z.z.z.z.z.z.z.z.z.z.z.z.z.z.z.z.z.z.z.z.z.z.z.z.z.z.z.z.z.z.z.",
"z.z.z.z.z.z.z.z.z.z.z.z.z.z.z.z.z.z.z.z.: : , c S S N N N z > , O z.  z.z.z.z.z.z.z.z.z.z.z.z.z.z.z.z.z.z.z.z.z.z.z.z.z.z.z.z.z.",
"z.z.z.z.z.z.z.z.z.z.z.z.z.z.z.z.* : < v ! ' } ] } } } ] ] ] ' _ ! z - @ . X # o z.z.z.z.z.z.z.z.z.z.z.z.z.z.z.z.z.z.z.z.z.z.z.z.",
"z.z.z.z.z.z.z.z.z.z.z.z.z.z.O : N ( ] } } ] ] ] } ] ] ] ] ] ] ] ] ] ` ! v = - c z > v = + = + z.z.z.z.z.z.z.z.z.z.z.z.z.z.z.z.z.",
"z.z.z.z.z.z.z.z.z.z.z.z.z.B D ' } } ] ] ] ] ] ] ] ] ] ] ] ] ] ] ] ] } } ] ! c < ! ' ` ` / F D S 1 v l & & & o z.z.z.z.z.z.z.z.z.",
"z.z.z.z.z.z.z.z.z.z.  @ z / ' } ] ] ] ] ] ] ] ] ] ] ] ] ] ] ] ] ] ] ] ] ] } ' F z B ` } } } } ] } ' ` ` ! E D z < l X z.z.z.z.z.",
"z.z.z.z.z.z.z.z.z.z.> E ] } ] } ] ] ] ] ] ] ] ] ] ] ] ] ] ] ] ] ] ] ] ] ] ] ] ] _ c c ( } } } ] } } } } } } ] } } / -   z.z.z.z.",
"z.z.z.z.z.z.z.z.z.- / ] ] ] ] ] ] ] ] ] ] ] ] ] ] ] ] ] ] ] ] ] ] ] ] ] ] ] ] ] } ' v z _ ] ] } ] ] ] ] ] ] ] ] ] ' v   z.z.z.z.",
"z.z.z.z.z.z.z.  - ! ] ] ] ] ] ] ] ] ] ] ] ] ] ] ] ] ] ] ] ] ] ] ] ] ] ] ] ] ] ] } } ` N v ( } } ] ] ] ] ] ] ] ] ] ] Q X z.z.z.z.",
"z.z.z.z.z.z.z.- ( ] ] ] ] ] ] ] ] ] ] ] ] ] ] ] ] ] ] ] ] ] ] ] ] ] ] ] ] ] ] ] ] ] ] ` D c ` } ] ] ] ] ] ] ] ] ] } _ & z.z.z.z.",
"z.z.z.z.z.z.: Q ] ] ] ] ] ] ] ] ] ] ] ] ] ] ] ] ] ] ] ] ] ] ] ] ] ] ] ] ] ] ] ] ] ] ] ] ] l B ' } ] ] ] ] ] ] ] ] } ` ,   z.z.z.",
"z.z.z.z.z.z.N } ] ] ] ] ] ] ] ] ] ] ] ] ] ] ] ] ] ] ] ] ] ] ] ] ] ] ] ] ] ] ] ] ] ] ] ] } ! c E ] ] ] ] ] ] ] ] / N > @   z.z.z.",
"z.z.z.= + * / } } ] ] ] ] ] ] ] ] ] ] ] ] ] ] ] ] ] ] ] ] ] ] ] ] ] ] ] ] ] ] ] ] ] ] ] ] ] ! c ( ] ] ] ` D l - & # z.z.z.z.z.z.",
"z.z.O S D l c S ` } } ] ] ] ] ] ] ] ] ] ] } ] ] ] ] ] ] ] ] ] ] ] ] ] ] ] ] ] ] ] ] ] ] ] ] ] N N / N > * $ z.z.z.z.z.z.z.z.z.z.",
"z.z.z.S } ` D z l Q ` ] } ] ] ] ] ] ] ] ] ] ` _ ! C M / ~ ` ] ] ] ] ] ] ] ] ] ] ] ] ] ] ] ] } / : @ # z.z.z.z.z.z.z.z.z.z.z.z.z.",
"z.z.z.Q ] ] ] _ D 1 v Q ' } } ] ] ] } } ` S < - ; t #.y 9 5 m ) ] ] ] ] ] ] ] ] ] ] ] ] ] ] ] ' z X z.z.z.z.z.z.z.z.z.z.z.z.z.z.",
"z.z.o / ] ] ] } } ` S c N / ' } ] ] ` v , c E _ [ d e.s.9.:.s 7 S ' ] ] ] ] ] ] ] ] ] ] ] ] ] ] ( $ z.z.z.z.z.z.z.z.z.z.z.z.z.z.",
"z.z.& D } ] ] ] ] } ] _ D 1 v ! ] ` N c W ' ] } ' J <.s.l.l.u.-.q x ) ] ] ] ] ] ] ] ] ] ] ] ] ] } : z.z.z.z.z.z.z.z.z.z.z.z.z.z.",
"z.z.z.D } ] ] ] ] ] ] } ] _ v l 1 , - c D Q V x N z 6 %.q.r.k.k.8.s < ' ] ] ] ] ] ] ] ] ] ] ] ] } v z.z.z.z.z.z.z.z.z.z.z.z.z.z.",
"z.z.X ! ] ] ] ] ] ] ] ] ] } } ! : + 1 S F F F ( / F E Z K  .>.s.h.0.e C ' ] ] ] ] ] ] ] ] ] ] ] } / = z.z.z.z.z.z.z.z.z.z.z.z.z.",
"z.z.X Q ] ] ] ] ] ] ] ] ] ] } ! , ! ' ` ] } } ] ] ] ] ] ] ! I o.q.l.3.w E ] ] ] ] ] ] ] ] ] ] ] } ' = z.z.z.z.z.z.z.z.z.z.z.& z.",
"z.z.$ S } ] ] ] ] ] ] ] ] ] ' v B } ] ] ] } } ] ] ] ] ] ] ] ] F ..w.s.$., ] ] ] ] ] ] ] ] ] ] ] ] ] > z.z.z.z.z.z.z.z.z v v c o ",
"z.z.z.v } ] ] ] ] ] ] ] ] ] ( l ( ] ] ] ] } } } ] ] ] ] ] ] ] ' S *.k.8.3 ` ] ] ] ] ] ] ] ] ] ] ] } c . z.z.z.z.z v S / ' } ` $ ",
"z.z.z.N ] ] ] ] ] ] ] ] ] } S c ' ] ] ] ] ] ] ] ] ] ] ] ] ] ] ] )  .y.u.t Q ] ] ] ] ] ] ] ] ] ] ] ] V O z c N Q _ } } } ] } ' : ",
"z.z.  l ` ] ] ] ] ] ] ] ] ] B v ] ] ] ] ] ] ] ] ] ] ] ] ] ] ] ] ' T 4.f.+.k ] ] ] ] ] ] ] ] ] ] ] ] B > ! ' } } } } ] ] ] ] ' v ",
"z.z.z.> ' } ] ] ] ] ] ] ] ] z E ] ] ] ] ] ] ] ] ] ] ] ] ] ] ] ] ' { 2.k.-.z ] ] ] ] ] ] ] ] ] ] ] ] N j ` } ] ] } } ] ] ] } } ! ",
"z.z.z.& ' ] ] ] ] ] ] ] ] ] z ! ] ] ] ] ] ] ] ] ] ] ] ] ] ] ] ] ] F 5.k.$.A ' ] ] ] ] ] ] ] ] ] ] ] D > ' ] ] ] } } ] ] ] } ` z ",
"z.z.z.# ( ] ] ] ] ] ] ] } ' B B ] ] ] ] ] ] ] ] ] ] ] ] ] ] ] ] ' T q.f.%.I ] ] ] ] ] ] ] ] ] ] ] ] E > ] ] ] ] ] ] ] ] } ' B z.",
"z.z.z.# B ] ] ] ] ] ] ] } ' S z ] ] ] ] ] ] ] ] ] ] ] ] ] ] ] ] ~ X.p.d.g M ] ] ] ] ] ] ] ] ] ] ] } v c ` ] ] ] ] ] ] ] ! , + z.",
"z.z.z.z.h } ] ] ] ] ] ] } } Q c ' ] ] ] ] ] ] ] ] ] ] ] ] ] ] ' R 2.l.t.6 ^ ] ] ] ] ] ] ] ] ] ] ] ] c c } ] ] ] ] } } ! - z.z.z.",
"z.z.z.z.> ] ] ] ] ] ] ] ] ] ( c Q ] ] ] ] ] ] ] ] ] ] ] ] ] ` Y ,.f.k.=.5 ` ] ] ] ] ] ] ] ] ] ] ] ' j v } ] ] ] } ] S > z.z.z.z.",
"z.z.z.z.: / } ] ] ] ] ] ] ] ' D j ] ] ] ] ] ] ] ] ] ] ] } ` U O.y.f.0.p D ] ] ] ] ] ] ] ] ] ] ] ] ' : ! ] ] ] ] / 1 O z.z.z.z.z.",
"z.z.z.z.z.N } ] ] ] ] ] ] ] ] ' < D ] ] ] ] ] ] ] } ] ' / z r 9.l.a.*.H ' ] ] ] ] ] ] ] ] ] ] ] } Q 1 ( ] ] ] _ z z.z.z.z.z.z.z.",
"z.z.z.z.z.l } ] ] ] ] ] ] ] ] } D z Q ] ] ] ] ] } } ` ! G F u d.a.=.7 / ] ] ] ] ] ] ] ] ] ] ] ] ] N l ' ] ] Q > o z.z.z.z.z.z.z.",
"z.z.z.z.z.: ` ] ] ] ] ] ] ] ] } ] Q h C ' ] ] ` ! C n G _ _ i 6.f 4 W ] ] ] ] ] ] ] ] ] ] ] ] ] ` l B } ' S % z.z.z.z.z.z.z.z.z.",
"z.z.z.z.z.* B ] ] ] ] ] ] ] ] ] ] ] ! , N Q F b C ! ' ] } ^ 8 t L _ } ] ] ] ] ] ] ] ] ] ] ] ] ] ( , _ } N - z.z.z.z.z.z.z.z.z.z.",
"z.z.z.z.z.z.> ] ] ] ] ] ] ] ] ] ] ] } _ v - $ , c C ! E N , : k ) ] ] ] ] ] ] ] ] ] ] ] ] ] ] ] v v ! , X z.z.z.z.z.z.z.z.z.z.z.",
"z.z.z.z.z.z.# _ ] } ] ] ] ] ] ] ] ] ] } W , N v z c < , N / ' } } ] ] ] ] ] ] ] ] ] ] ] ] ] ] ! 1 N 1 z.z.z.z.z.z.z.z.z.z.z.z.z.",
"z.z.z.z.z.z.o N ' ] ] ] ] ] ] ] ] ] } ' c v ] ] ' _ ' ] ] ] ] ] ] ] ] ] ] ] ] ] ] ] ] ] ] ] ' h : l z.z.z.z.z.z.z.z.z.z.z.z.z.z.",
"z.z.z.z.z.z.z.* ( } ] ] ] ] ] ] ] ] } E , _ ] ] } ] ] ] ] ] ] ] ] ] ] ] ] ] ] ] ] ] ] } } } E O O z.z.z.z.z.z.z.z.z.z.z.z.z.z.z.",
"z.z.z.z.z.z.z.z.S } ] ] ] ] ] ] ] ] _ z F } ] ] ] ] ] ] ] ] ] ] ] ] ] ] ] ] ] ] ] ] ] } } _ -   z.z.z.z.z.z.z.z.z.z.z.z.z.z.z.z.",
"z.z.z.z.z.z.z.z.z ` } ] ] ] ] ] ] ] B c ` ] ] ] ] ] ] ] ] ] ] ] ] ] ] ] ] ] ] ] ] ] } } ' < . z.z.z.z.z.z.z.z.z.z.z.z.z.z.z.z.z.",
"z.z.z.z.z.z.z.z.- B } } ] ] ] ] ] ( h ! ] ] ] ] ] ] ] ] ] ] ] ] ] ] ] ] ] ] ] ] ] ] } _ z o z.z.z.z.z.z.z.z.z.z.z.z.z.z.z.z.z.z.",
"z.z.z.z.z.z.z.z.z.- ` ] ] ] ] } ] v c ' ] ] ] ] ] ] ] ] ] ] ] ] ] ] ] ] ] ] ] ] } ] ' j z.z.z.z.z.z.z.z.z.z.z.z.z.z.z.z.z.z.z.z.",
"z.z.z.z.z.z.z.z.z.X N ] ] ] ] } / 1 ! ] ] ] ] ] ] ] ] ] ] ] ] ] ] ] ] ] ] ] ] ] } ` z + z.z.z.z.z.z.z.z.z.z.z.z.z.z.z.z.z.z.z.z.",
"z.z.z.z.z.z.z.z.z.z.l Q ] ] ] ' c v ] ] ] ] ] ] ] ] ] ] ] ] ] ] ] ] ] ] ] ] } ' Q - o z.z.z.z.z.z.z.z.z.z.z.z.z.z.z.z.z.z.z.z.z.",
"z.z.z.z.z.z.z.z.z.z.z., ] ] ] Q , ( ] ] ] ] ] ] ] ] ] ] ] ] ] ] ] ] ] ] ] } ' D c z.z.z.z.z.z.z.z.z.z.z.z.z.z.z.z.z.z.z.z.z.z.z.",
"z.z.z.z.z.z.z.z.z.z.z.O ! } ` l D ] ] ] ] ] } ] ] ] ] ] ] ] ] ] } ] ] ] _ S : O z.z.z.z.z.z.z.z.z.z.z.z.z.z.z.z.z.z.z.z.z.z.z.z.",
"z.z.z.z.z.z.z.z.z.z.z.  h _ B @ z ( ' } } ] } } ] ] ] ] ] ] ] } } ' ' Q B z.z.z.z.z.z.z.z.z.z.z.z.z.z.z.z.z.z.z.z.z.z.z.z.z.z.z.",
"z.z.z.z.z.z.z.z.z.z.z.z.z., :   z.$ z v Q ` ` ] } ' ] } } ` _ _ ! v - + z.z.z.z.z.z.z.z.z.z.z.z.z.z.z.z.z.z.z.z.z.z.z.z.z.z.z.z.",
"z.z.z.z.z.z.z.z.z.z.z.z.z.. X z.z.z.z.z.@ $ : , l N c l l l = # + o z.z.z.z.z.z.z.z.z.z.z.z.z.z.z.z.z.z.z.z.z.z.z.z.z.z.z.z.z.z.",
"z.z.z.z.z.z.z.z.z.z.z.z.z.z.z.z.z.z.z.z.z.z.z.z.z.z.o z.z.z.  z.z.z.z.z.z.z.z.z.z.z.z.z.z.z.z.z.z.z.z.z.z.z.z.z.z.z.z.z.z.z.z.z.",
"z.z.z.z.z.z.z.z.z.z.z.z.z.z.z.z.z.z.z.z.z.z.z.z.z.z.z.z.z.z.z.z.z.z.z.z.z.z.z.z.z.z.z.z.z.z.z.z.z.z.z.z.z.z.z.z.z.z.z.z.z.z.z.z.",
"z.z.z.z.z.z.z.z.z.z.z.z.z.z.z.z.z.z.z.z.z.z.z.z.z.z.z.z.z.z.z.z.z.z.z.z.z.z.z.z.z.z.z.z.z.z.z.z.z.z.z.z.z.z.z.z.z.z.z.z.z.z.z.z.",
"z.z.z.z.z.z.z.z.z.z.z.z.z.z.z.z.z.z.z.z.z.z.z.z.z.z.z.z.z.z.z.z.z.z.z.z.z.z.z.z.z.z.z.z.z.z.z.z.z.z.z.z.z.z.z.z.z.z.z.z.z.z.z.z."
};
