/* XPM */
static char *_0[] = {
/* columns rows colors chars-per-pixel */
"64 64 141 2 ",
"   c #040000",
".  c #0C0001",
"X  c #150002",
"o  c #1A0003",
"O  c #230004",
"+  c #2D0005",
"@  c #330006",
"#  c #3B0007",
"$  c #440008",
"%  c #4B0009",
"&  c #54000A",
"*  c #5C000B",
"=  c #500E18",
"-  c #5D101B",
";  c #63000C",
":  c #6C000D",
">  c #73000E",
",  c #7C000F",
"<  c #640511",
"1  c #7C0110",
"2  c #7D0816",
"3  c #7D0C1B",
"4  c #730613",
"5  c #65101D",
"6  c #5F1824",
"7  c #641520",
"8  c #771321",
"9  c #562C36",
"0  c #79202F",
"q  c #6D2E37",
"w  c #7B313E",
"e  c #523E46",
"r  c #623942",
"t  c #693F49",
"y  c #5E4D57",
"u  c #554C54",
"i  c #505159",
"p  c #5F515B",
"a  c #664752",
"s  c #794C57",
"d  c #67515C",
"f  c #72535E",
"g  c #596972",
"h  c #7B636E",
"j  c #60727C",
"k  c #78707D",
"l  c #80000E",
"z  c #8D000D",
"x  c #830010",
"c  c #8B0011",
"v  c #870818",
"b  c #940012",
"n  c #9B0013",
"m  c #980718",
"M  c #950A1C",
"N  c #A30014",
"B  c #AB0015",
"V  c #A20719",
"C  c #AB0519",
"Z  c #A50C1E",
"A  c #B40016",
"S  c #BC0016",
"D  c #B30419",
"F  c #BF0118",
"G  c #821E2C",
"H  c #931221",
"J  c #BC0D22",
"K  c #A51123",
"L  c #A4182A",
"P  c #B01629",
"I  c #A01D30",
"U  c #BE1E33",
"Y  c #802332",
"T  c #862A3A",
"R  c #922433",
"E  c #A42637",
"W  c #A4283A",
"Q  c #C40017",
"!  c #CE0015",
"~  c #C40018",
"^  c #CB0119",
"/  c #C60A1F",
"(  c #D30016",
")  c #D3001A",
"_  c #DB001B",
"`  c #E30016",
"'  c #E3001C",
"]  c #EC001C",
"[  c #F3001D",
"{  c #FF001F",
"}  c #D70A23",
"|  c #FF0020",
" . c #864B57",
".. c #855963",
"X. c #90606C",
"o. c #627E87",
"O. c #6C7C87",
"+. c #7B7D86",
"@. c #8C7B86",
"#. c #8B7F8A",
"$. c #947A86",
"%. c #6E868F",
"&. c #79828E",
"*. c #698792",
"=. c #6E8A93",
"-. c #778793",
";. c #728A95",
":. c #7E909C",
">. c #7999A6",
",. c #7B9DA9",
"<. c #7EA5B1",
"1. c #86808B",
"2. c #A08994",
"3. c #8E9FA9",
"4. c #929FAA",
"5. c #94A1AA",
"6. c #84ABB6",
"7. c #8FACBA",
"8. c #83A3B1",
"9. c #96AAB4",
"0. c #90ADBA",
"q. c #96B3BE",
"w. c #A5B0BC",
"e. c #9ABECC",
"r. c #A7CEDC",
"t. c #AACEDA",
"y. c #A8D0DF",
"u. c #B4D2DE",
"i. c #A4D1E0",
"p. c #AAD5E4",
"a. c #ADDCEA",
"s. c #B7DEEC",
"d. c #BCDFEC",
"f. c #BCE4F3",
"g. c #BEE8F7",
"h. c #BEECFD",
"j. c #C1E7F6",
"k. c #C4E8F7",
"l. c #C5EBFA",
"z. c #CBEDFA",
"x. c None",
/* pixels */
"x.x.x.x.x.x.x.x.x.x.x.x.x.x.x.x.x.x.x.x.x.x.x.x.x.x.x.x.x.x.x.x.x.x.x.x.x.x.x.x.x.x.x.x.x.x.x.x.x.x.x.x.x.x.x.x.x.x.x.x.x.x.x.x.",
"x.x.x.x.x.x.x.x.x.x.x.x.x.x.x.x.x.x.x.x.x.x.x.x.x.x.x.x.x.x.x.x.x.x.x.x.x.x.x.x.x.x.x.x.x.x.x.x.x.x.x.x.x.x.x.x.x.x.x.x.x.x.x.x.",
"x.x.x.x.x.x.x.x.x.x.x.x.x.x.x.x.x.x.x.x.x.x.x.x.x.x.x.x.x.x.x.x.x.x.x.x.x.x.x.x.x.x.x.x.x.x.x.x.x.x.x.x.x.x.x.x.x.x.x.x.x.x.x.x.",
"x.x.x.x.x.x.x.x.x.x.x.x.x.x.x.x.x.x.x.x.x.x.x.x.x.x.x.x.x.x.x.x.x.x.x.x.x.x.x.x.x.x.x.x.x.x.x.x.x.x.x.x.x.x.x.x.x.x.x.x.x.x.x.x.",
"x.x.x.x.x.x.x.x.x.x.x.x.x.x.x.x.x.x.x.x.x.x.x.x.x.x.x.x.x.x.x.x.x.x.x.x.x.x.x.x.x.x.x.x.x.x.x.x.x.x.x.x.x.x.x.x.x.x.x.x.x.x.x.x.",
"x.x.x.x.x.x.x.x.x.x.x.x.x.x.x.x.x.x.x.x.x.x.x.x.x.x.x.x.x.x.x.x.x.x.x.x.x.x.x.x.x.x.x.x.x.x.x.x.x.x.x.x.x.x.x.x.x.x.x.x.x.x.x.x.",
"x.x.x.x.x.x.x.x.x.x.x.x.x.x.x.x.x.x.x.x.x.x.x.x.x.x.x.x.x.x.x.x.x.x.x.x.x.x.x.x.x.x.x.x.x.x.x.x.x.x.x.x.x.x.x.x.x.x.x.x.x.x.x.x.",
"x.x.x.x.x.x.x.x.x.x.x.x.x.x.x.x.x.x.x.x.x.x.x.x.x.x.x.x.x.x.x.x.x.x.x.x.x.o x.x.X x.x.x.x.x.x.x.x.x.x.x.x.x.x.x.x.x.x.x.x.x.x.x.",
"x.x.x.x.x.x.x.x.x.x.x.x.x.x.x.x.x.x.x.x.x.x.x.x.x.x.x.x.o x.  O @ < > 1 n n b A c > c c @ o x.x.x.x.x.x.x.x.x.x.x.x.x.x.x.x.x.x.",
"x.x.x.x.x.x.x.x.x.x.x.x.x.@ $ o # x.@ > % ; ; & x b , > + + > N ) [ ] | { | { { { { ] _ ) A : @ X x.x.x.x.x.x.x.x.x.x.x.x.x.x.x.",
"x.x.x.x.x.x.x.# > n B n A S S ) S ^ ' _ ] [ ] | ] ~ b : b _ [ | { | | { { { { { { { { { { { [ _ b @ x.x.x.x.x.x.x.x.x.x.x.x.x.x.",
"x.x.x.x.x.x.o > [ | | | | | | | | { { | { { | ' N 2 n _ | { { { { { { { { { { { { { { { { { | { ] ~ b ; x.x.x.x.x.x.x.x.x.x.x.x.",
"x.x.x.x.x.x.O ~ { { { { | { { { { { { { | | ^ > z ) { { { { { { { { { { { { { { { { { { { { { { { | [ B & X x.x.x.x.x.x.x.x.x.x.",
"x.x.x.x.x.x.% ] { { { { | { { { { { { { [ S , c ] | { { { { { { { { { { { { { { { { { { { { { { { { | | ' n x.x.x.x.x.x.x.x.x.x.",
"x.x.x.x.x.o c | | { { { { { { { { { { { N , B [ | { { { { { { { { { { { { { { { { { { { { { { { { { { | | ' c O x.x.x.x.x.x.x.x.",
"x.x.x.x.x.o c ) { | | { { { { { { | [ Q * A [ { { { { { { { { { { { { { { { { { { { { { { { { { { { { { | | { N $ x.x.x.x.x.x.x.",
"x.x.x.x.x.x.x.c n S ' | | | { { { | A x N { | { { { { { { { { { { { { { { { { { { { { { { { { { { { { { { | | [ n + x.x.x.x.x.x.",
"x.x.x.x.x.x.x.x.x.x.c n ~ ] | | | _ ; A [ | { { { { { { { { { { { { { { { { { { { { { { { { { { { { { { { | { { [ x x.x.x.x.x.x.",
"x.x.x.x.x.x.x.x.x.x.x.x.c b B ) _ n > [ { { { { { { { { { { { { { { { { { { { { { { { { { { { { { { { { { { { { { ] c x.x.x.x.x.",
"x.x.x.x.x.x.x.x.x.x.x.x.x.x.x.m * 1 ^ | { { { { { { { { { { { { { { { { { { { { { { { { { { { { { { { { { { { { { | ^ & x.x.x.x.",
"x.x.x.x.x.x.x.x.x.x.x.x.x.x.x.x.X A { { { { { { { { { { { { { { { { { { { | [ { | { { { { { { { { { { { { { { { { { { c o O +   ",
"x.x.x.x.x.x.x.x.x.x.x.x.x.x.x.x.; ] { { { { { { { { { { { { { { { { [ ! A z H M z F ' { { { { { { { { { { { { { { ' B > : A , x.",
"x.x.x.x.x.x.x.x.x.x.x.x.x.x.x.# S | { { { { { { { { { { { { { { ` B 0 a g ;.*.*.9 > : b ) { | { { { { { | { { ) B 1 c F [ | b x.",
"x.x.x.x.x.x.x.x.x.x.x.x.x.x.x.; [ { { { { { { { { { { { { { { ^ 8 i 8.i.s.f.g.&.L ` ' B > b _ { { { { { [ _ c 1 b ^ ] | | [ b   ",
"x.x.  x.x.x.x.x.x.x.x.x.x.x.x.n | { { { { { { { { { { { { { S w ;.p.k.j.j.d.q.q _ | | [ ! b n ] { { [ ) n , n ^ { { { { { { > x.",
"x.  $ & $ x.x.x.x.x.x.x.x.x.& ' | { { { { { { { { { { { { ! q 7.f.z.t.w.$.X.a : F C H / _ S > n _ A l c B _ { | { { { { { [ ; x.",
"x.. A [ ^ l & # x.x.x.x.x.x.; { { { { { { { { { { { { { _ G =.f.j.4. .P ) ( ` ' _ ' _ D V m c $ & , B ' | { | { { { { { { ' c x.",
"x.# _ | { { [ S > % # x.x.o b { { { { { { { { { { { { | b k p.d.2.E ( { { { { { | | | { { ' / C > Q { | { { { { { { { { { ' % x.",
"  x ] | | | { { { ] B ; $ O Q { { { { { { { { { { { { ] 6 e.l.5.U ] { { { { { { { { { { { { { { N B { { { { { { { { { { { ] @ x.",
"X ~ | | { { { { { { { { Q > _ | { { { { { { { { { { { D p a.u...` { { { { { { { { { { { { { { { ) : ] { { { { { { { { { | ~ % x.",
"+ S | | { { { { { { { { ) n _ | { { { { { { { { { { { 4 :.g.3.W [ { { { { { { { { { { { { { { { ' c ~ | { { { { { { { { | B x.x.",
"x.x ' | { { { { { { { { ] l [ | { { { { { { { { { { [ 8 <.k.+./ { { { { { { { { { { { { { { { { { c ~ { { { { { { { | | | N x.x.",
"x.O : _ | { { { { { { | ) c [ { { { { { { { { { { { ` 0 6.k.1.S { { { { { { { { { { { { { { { { { N B { { { { { { { { { ] > x.x.",
"x.x.x.; ) | | { { { { | ^ b ' | { { { { { { { { { { [ - 7.l.1./ { { { { { { { { { { { { { { { { { B N | | { { { { { { { ' $ x.x.",
"x.x.x.x.> ) | | { { { { ' , [ { { { { { { { { { { { [ 2 >.l.9.K [ { { { { { { { { { { { { { { { { c ~ { { { { { { { { { ) O x.x.",
"x.x.x.x.. * ~ | { { { { ' n ' { { { { { { { { { { { { m j k.u.s ! { { { { { { { { { { { { { { | ] c ^ { { { { { { { { { n + x.x.",
"x.x.x.x.x.x.N ) | | { { ] b ^ { { { { { { { { { { { { A u t.k.4.R ] | | { { { { { { { { { { { | ~ N _ | { { { { { { { { ; x.x.x.",
"x.x.x.x.x.x.x.% S { | | | c ^ { { { { { { { { { { { { ` 5 ,.k.d.1.K { | { { { { | { { { { { { { c A [ | { { { { { { { ' & x.x.x.",
"x.x.x.x.x.x.x.x.; ~ | | { N N | { { { { { { { { { { { { A y y.z.t.u z _ { { { { { { { { { { | _ c ) | | { { { { { { | B x.x.x.x.",
"x.x.x.x.x.x.x.x.x.& B [ { F n [ { { { { { { { { { { { { ] 3 O.s.s.h l D ' { { { { { { { { | _ b A [ { { { { { { { { { , x.x.x.x.",
"x.x.x.x.x.x.x.x.x.x.@ V [ ] x ' { { { { { { { { { { { { | ( 7 %.r.f / A v C ] { { { { { | ] b c [ { { { { { { { { | _ ; x.x.x.x.",
"x.x.x.x.x.x.x.x.x.x.x.> S ] n S { { { { { { { { { { { { { { _ T &.d ` { ' S D ~ ' { | [ ~ b b ' | { { { { { { { { | b x.x.x.x.x.",
"x.x.x.x.x.x.x.x.x.x.x.x.@ c N c ] { { { { { { { { { { { { { { ( 3 = z ' [ ] Q N m ~ ^ n , A ] | { { { { { { { { { [ : x.x.x.x.x.",
"x.x.x.x.x.x.x.x.x.x.x.x.x.x.c > ! { { { { { { { { { { { { { { { { ) z ; , B D 1 & + * b _ { { { { { { { { { { { { S % x.x.x.x.x.",
"x.x.x.x.x.x.x.x.x.x.x.x.x.x.+ $ , { { { { { { { { { { { { { { { { { ] ' ) n b A B , : ' | { { { { { { { { { { { { : x.x.x.x.x.x.",
"x.x.x.x.x.x.x.x.x.x.x.x.x.x.x.  @ ^ | | { { { { { { { { { { { { { { { { { { { { { [ c Q { { { { { { { { { { { { _ @ x.x.x.x.x.x.",
"x.x.x.x.x.x.x.x.x.x.x.x.x.x.x.x.  * ' { { { { { { { { { { { { { { { { { { { { { { { S c ] { { { { { { { { { | ] l o x.x.x.x.x.x.",
"x.x.x.x.x.x.x.x.x.x.x.x.x.x.x.x.x.X l [ { { { { { { { { { { { { { { { { { { { { { { ' c ~ | { { { { { { { | | ~ + x.x.x.x.x.x.x.",
"x.x.x.x.x.x.x.x.x.x.x.x.x.x.x.x.x.x.$ B { { { { { { { { { { { { { { { { { { { { { { | ~ n [ | { { { { { | | ' b x.x.x.x.x.x.x.x.",
"x.x.x.x.x.x.x.x.x.x.x.x.x.x.x.x.x.x.x.* F | { { { { { { { { { { { { { { { { { { { { | ] b ~ { { { { { { | | N x.x.x.x.x.x.x.x.x.",
"x.x.x.x.x.x.x.x.x.x.x.x.x.x.x.x.x.x.x.x.$ F [ { { { { { { { { { { { { { { { { { { { | | S b ] | { { { { | ' % x.x.x.x.x.x.x.x.x.",
"x.x.x.x.x.x.x.x.x.x.x.x.x.x.x.x.x.x.x.x.x.> F { { { { { { { { { { { { { { { { { { { | | ' c Q { | { { | ] x X x.x.x.x.x.x.x.x.x.",
"x.x.x.x.x.x.x.x.x.x.x.x.x.x.x.x.x.x.x.x.x.x.@ b ' { { { { { { { { { { { { { { { { { { { | A , ] { { { | B @ x.x.x.x.x.x.x.x.x.x.",
"x.x.x.x.x.x.x.x.x.x.x.x.x.x.x.x.x.x.x.x.x.x.x.x.c ' { { { { { { { { { { { { { { { { { { | ' c F | { { ) & x.x.x.x.x.x.x.x.x.x.x.",
"x.x.x.x.x.x.x.x.x.x.x.x.x.x.x.x.x.x.x.x.x.x.x.x.  $ b ] | | { { { { { { { { { { { { { { { | A b [ | ' > o x.x.x.x.x.x.x.x.x.x.x.",
"x.x.x.x.x.x.x.x.x.x.x.x.x.x.x.x.x.x.x.x.x.x.x.x.x.x.# ; c S [ | | { { { { { { { { { { | { | ) * ~ { b x.x.x.x.x.x.x.x.x.x.x.x.x.",
"x.x.x.x.x.x.x.x.x.x.x.x.x.x.x.x.x.x.x.x.x.x.x.x.x.x.x.x.x.; : b ^ { [ [ | | { { | { { _ ~ n , @ ; N # x.x.x.x.x.x.x.x.x.x.x.x.x.",
"x.x.x.x.x.x.x.x.x.x.x.x.x.x.x.x.x.x.x.x.x.x.x.x.x.x.x.x.x.x.x.x.% & : B N N A N b c * $ @ x.x.x.+ # x.x.x.x.x.x.x.x.x.x.x.x.x.x.",
"x.x.x.x.x.x.x.x.x.x.x.x.x.x.x.x.x.x.x.x.x.x.x.x.x.x.x.x.x.x.x.x.x.x.x.x.x.x.X x.O x.x.x.x.x.x.x.x.x.x.x.x.x.x.x.x.x.x.x.x.x.x.x.",
"x.x.x.x.x.x.x.x.x.x.x.x.x.x.x.x.x.x.x.x.x.x.x.x.x.x.x.x.x.x.x.x.x.x.x.x.x.x.x.x.x.x.x.x.x.x.x.x.x.x.x.x.x.x.x.x.x.x.x.x.x.x.x.x.",
"x.x.x.x.x.x.x.x.x.x.x.x.x.x.x.x.x.x.x.x.x.x.x.x.x.x.x.x.x.x.x.x.x.x.x.x.x.x.x.x.x.x.x.x.x.x.x.x.x.x.x.x.x.x.x.x.x.x.x.x.x.x.x.x.",
"x.x.x.x.x.x.x.x.x.x.x.x.x.x.x.x.x.x.x.x.x.x.x.x.x.x.x.x.x.x.x.x.x.x.x.x.x.x.x.x.x.x.x.x.x.x.x.x.x.x.x.x.x.x.x.x.x.x.x.x.x.x.x.x.",
"x.x.x.x.x.x.x.x.x.x.x.x.x.x.x.x.x.x.x.x.x.x.x.x.x.x.x.x.x.x.x.x.x.x.x.x.x.x.x.x.x.x.x.x.x.x.x.x.x.x.x.x.x.x.x.x.x.x.x.x.x.x.x.x.",
"x.x.x.x.x.x.x.x.x.x.x.x.x.x.x.x.x.x.x.x.x.x.x.x.x.x.x.x.x.x.x.x.x.x.x.x.x.x.x.x.x.x.x.x.x.x.x.x.x.x.x.x.x.x.x.x.x.x.x.x.x.x.x.x."
};
