/* XPM */
static char *_9[] = {
/* columns rows colors chars-per-pixel */
"64 64 132 2 ",
"   c #030000",
".  c #0C0001",
"X  c #140002",
"o  c #1D0003",
"O  c #220004",
"+  c #2C0005",
"@  c #340006",
"#  c #3B0007",
"$  c #3E0008",
"%  c #430008",
"&  c #4B0009",
"*  c #54000A",
"=  c #5B000B",
"-  c #4D151E",
";  c #57151F",
":  c #63000C",
">  c #6B000D",
",  c #73000E",
"<  c #7C000F",
"1  c #650E19",
"2  c #690D1A",
"3  c #770411",
"4  c #7E0111",
"5  c #7D0815",
"6  c #740D19",
"7  c #69101D",
"8  c #571721",
"9  c #5A1C27",
"0  c #6F1F2D",
"q  c #7E1B2A",
"w  c #552D34",
"e  c #582D36",
"r  c #5F363F",
"t  c #66222E",
"y  c #682934",
"u  c #493F47",
"i  c #593842",
"p  c #633F47",
"a  c #633D48",
"s  c #4C444C",
"d  c #75424F",
"f  c #565B64",
"g  c #775963",
"h  c #55626B",
"j  c #5F6D77",
"k  c #60606A",
"l  c #786069",
"z  c #6C6A73",
"x  c #756A73",
"c  c #7C6A74",
"v  c #83000F",
"b  c #88000D",
"n  c #830010",
"m  c #8C0011",
"M  c #940112",
"N  c #9C0113",
"B  c #9C0618",
"V  c #950819",
"C  c #A2000F",
"Z  c #A30014",
"A  c #AB0015",
"S  c #AB0418",
"D  c #AC0A1D",
"F  c #B30016",
"G  c #BA0016",
"H  c #B5071C",
"J  c #BB0118",
"K  c #B6091E",
"L  c #891E2D",
"P  c #901322",
"I  c #A10C20",
"U  c #A01A2C",
"Y  c #AF182D",
"T  c #832431",
"R  c #942837",
"E  c #C20117",
"W  c #C80016",
"Q  c #C30018",
"!  c #CD0119",
"~  c #D50017",
"^  c #DA0015",
"/  c #D4001A",
"(  c #DB011B",
")  c #E00017",
"_  c #E5001C",
"`  c #EB001C",
"'  c #F4001E",
"]  c #FF001F",
"[  c #C30F26",
"{  c #FF0020",
"}  c #9F3241",
"|  c #924755",
" . c #925A67",
".. c #617882",
"X. c #817781",
"o. c #67818B",
"O. c #69848E",
"+. c #77848F",
"@. c #7B838F",
"#. c #7A9DA9",
"$. c #7EA5B1",
"%. c #828087",
"&. c #80848E",
"*. c #8C9BA5",
"=. c #849FAC",
"-. c #82A2AA",
";. c #92A3AE",
":. c #85A6B3",
">. c #8AA9B6",
",. c #87ACBA",
"<. c #9CAAB4",
"1. c #99AFBD",
"2. c #91B5C3",
"3. c #98BDCB",
"4. c #A6BBC7",
"5. c #A2BECA",
"6. c #99C0CC",
"7. c #A0C7D5",
"8. c #A3CEDD",
"9. c #B0CDD8",
"0. c #B2D0DB",
"q. c #AED8E8",
"w. c #B5D9E4",
"e. c #B2DCEB",
"r. c #BDDEEA",
"t. c #BAE0EE",
"y. c #BDE3F2",
"u. c #C3E7F6",
"i. c #C3E8F7",
"p. c #C5EBFA",
"a. c #CBEDFA",
"s. c None",
/* pixels */
"s.s.s.s.s.s.s.s.s.s.s.s.s.s.s.s.s.s.s.s.s.s.s.s.s.s.s.s.s.s.s.s.s.s.s.s.s.s.s.s.s.s.s.s.s.s.s.s.s.s.s.s.s.s.s.s.s.s.s.s.s.s.s.s.",
"s.s.s.s.s.s.s.s.s.s.s.s.s.s.s.s.s.s.s.s.s.s.s.s.s.s.s.s.s.s.s.s.s.s.s.s.s.s.s.s.s.s.s.s.s.s.s.s.s.s.s.s.s.s.s.s.s.s.s.s.s.s.s.s.",
"s.s.s.s.s.s.s.s.s.s.s.s.s.s.s.s.s.s.s.s.s.s.s.s.s.s.s.s.s.s.s.s.s.s.s.s.s.s.s.s.s.s.s.s.s.s.s.s.s.s.s.s.s.s.s.s.s.s.s.s.s.s.s.s.",
"s.s.s.s.s.s.s.s.s.s.s.s.s.s.s.s.s.s.s.s.s.s.s.s.s.s.s.s.s.s.s.s.s.s.s.s.s.s.s.s.s.s.s.s.s.s.s.s.s.s.s.s.s.s.s.s.s.s.s.s.s.s.s.s.",
"s.s.s.s.s.s.s.s.s.s.s.s.s.s.s.s.s.s.s.s.s.s.s.s.s.s.s.s.s.s.s.s.s.s.s.s.s.s.s.s.s.s.s.s.s.s.s.s.s.s.s.s.s.s.s.s.s.s.s.s.s.s.s.s.",
"s.s.s.s.s.s.s.s.s.s.s.s.s.s.s.s.s.s.s.s.s.s.s.s.s.s.s.s.s.s.s.s.s.s.s.s.X O o o o     s.s.s.s.s.s.s.s.s.s.s.s.s.s.s.s.s.s.s.s.s.",
"s.s.s.s.s.s.s.s.s.s.s.s.s.s.s.s.s.s.s.s.s.s.s.s.s.s.s.s.s.s.s.s.+ * n S S E J F A m > n = @ s.s.s.s.s.s.s.s.s.s.s.s.s.s.s.s.s.s.",
"s.s.s.s.s.s.s.s.s.s.s.s.s.s.s.s.s.s.s.s.s.s.s.s.s.s.s.s.s.@ > F ( ' ] ' ] ' { { ' ' _ / G M > s.s.s.s.s.s.s.s.s.s.s.s.s.s.s.s.s.",
"s.s.s.s.s.s.s.s.s.s.s.s.s.s.s.s.s.s.s.s.s.s.s.s.s.s.s.& M ~ ] ] ] ] ] ] ] ] ] ] ] ] ] { { ' ` G < % s.s.s.s.s.s.s.s.s.s.s.s.s.s.",
"s.s.s.s.s.s.s.s.s.s.s.s.s.s.s.s.s.s.s.s.s.s.s.s.s.% N ( ] ] ] ] ] ] ] ] ] ] ] ] ] ] ] ] ] ] { { ' Q , $ s.s.s.s.s.s.s.s.s.s.s.s.",
"s.s.s.s.s.s.s.s.s.s.s.s.s.s.s.s.s.s.s.s.s.s.s.O , / ] ] ] ] ] ] ] ] ] ] ] ] ] ] ] ] ] ] ] ] ] { { { ' F > s.s.s.s.s.s.s.s.s.s.s.",
"s.s.s.s.s.s.s.s.s.s.s.s.s.s.s.s.s.s.s.s.> + + N ' { ] ] ] ] ] ] ] ] ] ] ] ] ] ] ] ] ] ] ] ] ] ] { ] ] { ( n # s.s.o   s.s.s.s.s.",
"s.s.s.s.s.s.s.s.s.s.s.s.s.s.s.s.  % m n n > S { { ] ] ] ] ] ] ] ] ] ] ] ] ] ] ] ] ] ] ] ] ] ] ] ] ] ] ] ] ] N O & M % s.s.s.s.s.",
"s.s.s.s.s.s.s.s.s.s.s.s.s.s.O = > A / F n G ] ] { ] ] ] ] ] ] ] ] ] ] ] ] ] ] ] ] ] ] ] ] ] ] ] ] ] ] ] ] ` Z , ! _ , s.s.s.s.s.",
"s.s.s.s.s.s.s.s.s.s.s.s.# < N / ' { E 4 E ] { ] ] ] ] ] ] ] ] ] ] ] ] ] ] ] ] ] ] ] ] ] ] ] ] ] ] ] ] { _ N n / { ' <   s.s.s.s.",
"s.s.s.s.s.s.s.s.s.X * N G _ ] ] { ! v A ] ] ] ] ] ] ] ] ] ] ] ] ] ] ] ] ] ] ] ] ] ] ] ] ] ] ] ] ] ] ] _ N M ( ] ] ] N o s.s.s.s.",
"s.s.s.s.s.s.s.$ n F / ' ] { ] { _ m m ' ] ] ] ] ] ] ] ] ] ] ] ] ] ] ] ] ] ] ] ] ] ] ] ] ] ] ] ] ] { ( m m _ { ] ] ] F * s.s.s.s.",
"s.s.s.s.s.= Z / ' ' { { ] ] ] ] A n / ] ] ] ] ] ] ] ] ] ] ] ] ] ] ] ] ] ] ] ] ] ] ] ] ] ] ] ] ] ] / M M _ { ] ] ] ] ! m s.s.s.s.",
"s.s.% , Q ` ' ] { ] ] ] ] ] { / < S ] ] ] ] ] ] ] ] ] ] ] ] ] ] ] ] ] ] ] ] ' ] ] { { { ] ] ] ] / m N ` ] ] ] ] ] { _ : s.s.s.s.",
"s.o m ` { ] ] { ] ] ] ] ] ] ] M b _ ] ] ] ] ] ] ] ] ] ] ] ] ] ] ] ] ` F b , , < n M G _ ] { ] Q m S ' ] ] ] ] ] ] ] ] n s.s.s.s.",
"s.o N { ] ] ] ] ] ] ] ] ] ] / 3 G ] ] ] ] ] ] ] ] ] ] ] ] ] ] ] ) C 9 k h q E / G A m m J ` F < F ' { ] ] ] ] ] ] { { Z s.s.s.s.",
"s.o N ' ] ] ] ] ] ] ] ] ] { Z m _ ] ] ] ] ] ] ] ] ] ] ] ] ] ] E t j 2.e.+.Y ' ] ' ` E m > : 3 F ' ] ] ] ] ] ] ] ] { { F s.s.s.s.",
"s.O A ' { ] ] ] ] ] ] { ] ' , F ' { ] ] ] ] ] ] ] ] ] ] ] ] S p :.e.u.t.l K ! D D D S B m : , ( ] ] ] ] ] ] ] ] ] ] { E s.s.s.s.",
"s.o F ' { { { { { { { { { / > / ] ] ] ] ] ] ] ] ] ] ] ] ] F i ,.t.u.t.#.w V E ! ( _ ( ( _ _ Z M _ ] ] ] ] ] ] ] ] ] { / $ s.s.s.",
"s.X > M N N N Z Z A A S F < n ` ] ] ] ] ] ] ] ] ] ] ] { ^ y >.y.i.5. .U ! ` ' { ] ] ] ] { { ` n A ' ] ] ] ] ] ] ] ] ] ` & s.s.s.",
"s.s.s.s.s.s.s.s.s.s.s.s.s.O N ' ] ] ] ] ] ] ] ] ] ] ] ] m +.t.p.;.R ( ' { { { { ] ] ] ] ] ] { / < ( ] ] ] ] ] ] ] ] ] ' & s.s.s.",
"s.s.s.s.s.s.s.s.s.s.s.s.s.X E ] ] ] ] ] ] ] ] ] ] ] ] ^ d 6.p.;.R _ ] ] ] ] ] ] ] ] ] ] ] ] ] ] M S ' { ] ] ] ] ] ] { ] : s.s.s.",
"s.s.s.s.s.s.s.s.s.s.s.s.s.@ ( ] ] ] ] ] ] ] ] ] ] ] ] C z e.w.| _ ] ] ] ] ] ] ] ] ] ] ] ] ] ] ] / v ` ] ] ] ] ] ] ] ] ] : s.s.s.",
"s.s.s.s.s.s.s.s.s.s.s.s.s.& _ ] ] ] ] ] ] ] ] ] ] ] ] 4 -.p.<.[ ] ] ] ] ] ] ] ] ] ] ] ] ] ] ] ] ] v ( ] ] ] ] ] ] ] ] { > s.s.s.",
"s.s.s.s.s.s.s.s.s.s.s.s.s.= ' ] ] ] ] ] ] ] ] ] ] ] ] 2 3.p.&./ ] ] ] ] ] ] ] ] ] ] ] ] ] ] ] ] ] m Q ' ] ] ] ] ] ] ] { 3 s.s.s.",
"s.s.s.s.s.s.s.s.s.s.s.s.s.: ' { ] ] ] ] ] ] ] ] ] ] ' ; 3.u.x ( ] ] ] ] ] ] ] ] ] ] ] ] ] ] ] ] { M G ] ] ] ] ] ] ] ] { < s.s.s.",
"s.s.s.s.s.s.s.s.s.s.s.s.s.= ' ] { ] ] ] ] ] ] ] ] ] ' 8 3.u.x ~ ] ] ] ] ] ] ] ] ] ] ] ] ] ] ] ] { M G { ] ] ] ] ] ] ] ] , s.s.s.",
"s.s.s.s.s.s.s.s.s.s.s.s.s.* ' ] ] ] ] ] ] ] ] ] ] ] ' 1 $.i.@.F ] ] ] ] ] ] ] ] ] ] ] ] ] ] ] ] ] n Q { { ] ] ] ] ] ] ] > s.s.s.",
"s.s.s.s.s.s.s.s.s.s.s.s.s.@ ` ] ] ] ] ] ] ] ] ] ] ] ] B O.a.5.T ' ] ] ] ] ] ] ] ] ] ] ] ] ] ] ] ' < _ ] ] ] ] ] ] ] ] ] > s.s.s.",
"s.  % & & % % % $ $ $ $ # @ ( ] ] ] ] ] ] ] ] ] ] ] ] E s e.y.X.K ] ] ] ] ] ] ] { { ] ] ] ] ] ] / < ' ] ] ] ] ] ] ] ] ' = s.s.s.",
"s.O ! ' ` ` _ _ ( / ! W F < E { ] ] ] ] ] ] ] ] ] ] ] _ 1 #.a.0.g D ' ] ] ] ] ] { { ] { ] ] ] ' M Z ] ] ] ] ] ] ] ] ] _ % s.s.s.",
"s.O ( { ] ] ] ] ] ] ] ] ' F Z { ] ] ] ] ] ] ] ] ] ] ] ] G s 8.a.9.c P ^ ] ] ] ] { { { { ] ] ] E < ` { ] ] ] ] ] ] ] ] ( # s.s.s.",
"s.+ ( { ] ] ] ] ] ] ] ] ] / m ] ] ] ] ] ] ] ] ] ] ] ] ] ` 5 h t.a.t.;.r b E ` ] { { { { { { / n F { ] ] ] ] ] ] ] ] ] / o s.s.s.",
"s.@ ( { ] ] ] ] ] ] ] ] ] _ m / ] ] ] ] ] ] ] ] ] ] ] ] ] ^ 7 ..0.a.t.%.3 S B V F ! ( _ ' ! m A ' ] ] ] ] ] ] ] ] ] ' F o s.s.s.",
"s.@ ( { ] ] ] ] ] ] ] ] ] ' Z N ] ] ] ] ] ] ] ] ] ] ] ] ] { ^ 6 h 6.y.1.T ' _ ! Q E S n > : Z ' { ] ] ] ] ] ] ] ] ] ' m . s.s.s.",
"s.O Z _ { { ] ] ] ] ] ] ] ] ! M ' ] ] ] ] ] ] ] ] ] ] ] ] ] { ` B w o.$.d ^ ] ' ` E m = & = F { ] ] ] ] ] ] ] ] ] ] _ M s.s.s.s.",
"s.s.s.% N _ { { { ] ] ] ] { _ Z G ] ] ] ] ] ] ] ] ] ] ] ] ] ] ] ] ^ I 0 - : , v b b B J / F m W ] ] ] ] ] ] ] ] ] { ( , s.s.s.s.",
"s.s.s.s.s.% m / ] { ] ] ] ] ] J M ` ] ] ] ] ] ] ] ] ] ] ] ] ] ] ] ] ' ' ( / E W / ~ ` ] { ' F m ! ] { ] ] ] ] ] ] { E % s.s.s.s.",
"s.s.s.s.s.s.s.$ m / { { ] ] { _ M G ] ] ] ] ] ] ] ] ] ] ] ] ] ] ] ] ] ] ' ] ] ] ] ] ] ] ] ] ' F N / ] ] ] ] ] ] ] ' M . s.s.s.s.",
"s.s.s.s.s.s.s.s.s.= , Q { { { ] E M ( ] ] ] ] ] ] ] ] ] ] ] ] ] ] ] ] ] ] ] ] ] ] ] ] ] ] ] ] ' F M / { ] ] ] ] { ` :   s.s.s.s.",
"s.s.s.s.s.s.s.s.s.s.s.= > F ` ] ' Z Z ' ] ] ] ] ] ] ] ] ] ] ] ] ] ] ] ] ] ] ] ] ] ] ] ] ] ] ] ] ' A M / { { ] ] { Q , s.s.s.s.s.",
"s.s.s.s.s.s.s.s.s.s.s.s.s.% : S ` ( N F ' ] ] ] ] ] ] ] ] ] ] ] ] ] ] ] ] ] ] ] ] ] ] ] ] ] ] ] { ' A m / ] ] ] { N # s.s.s.s.s.",
"s.s.s.s.s.s.s.s.s.s.s.s.s.s.s.s.n Z Z m E ] ] ] ] ] ] ] ] ] ] ] ] ] ] ] ] ] ] ] ] ] ] ] ] ] ] ] { { ' N v / ] ] ` > s.s.s.s.s.s.",
"s.s.s.s.s.s.s.s.s.s.s.s.s.s.s.s.s.s.< : : Q { ] ] ] ] ] ] ] ] ] ] ] ] ] ] ] ] ] ] ] ] ] ] ] ] ] ] ] { ' N M ( ] E s.s.s.s.s.s.s.",
"s.s.s.s.s.s.s.s.s.s.s.s.s.s.s.s.s.s.s.# O * J ' { ] ] ] ] ] ] ] ] ] ] ] ] ] ] ] ] ] ] ] ] ] ] ] ] ] ] { ' n < _ m s.s.s.s.s.s.s.",
"s.s.s.s.s.s.s.s.s.s.s.s.s.s.s.s.s.s.s.s.s.  @ N ` ] ] ] ] ] ] ] ] ] ] ] ] ] ] ] ] ] ] ] ] ] ] ] ] ] { { ( n + : & s.s.s.s.s.s.s.",
"s.s.s.s.s.s.s.s.s.s.s.s.s.s.s.s.s.s.s.s.s.s.s.O < / ' ] ] ] ] ] ] ] ] ] ] ] ] ] ] ] ] ] ] ] ] ] ] ] ' F , s.s.X s.s.s.s.s.s.s.s.",
"s.s.s.s.s.s.s.s.s.s.s.s.s.s.s.s.s.s.s.s.s.s.s.s.. * Z _ ' { ] ] ] ] ] ] ] ] ] ] ] ] ] ] ] ] ] { ' ! 4 $ s.s.s.s.s.s.s.s.s.s.s.s.",
"s.s.s.s.s.s.s.s.s.s.s.s.s.s.s.s.s.s.s.s.s.s.s.s.s.s.X : Z ( ' ] ] ] ] ] ] ] ] ] ] ] ] { { { ` Q n * . s.s.s.s.s.s.s.s.s.s.s.s.s.",
"s.s.s.s.s.s.s.s.s.s.s.s.s.s.s.s.s.s.s.s.s.s.s.s.s.s.s.s.. # < S ( ' { { { { { { { ] ` ( G M > = o s.s.s.s.s.s.s.s.s.s.s.s.s.s.s.",
"s.s.s.s.s.s.s.s.s.s.s.s.s.s.s.s.s.s.s.s.s.s.s.s.s.s.s.s.s.s.s.. @ & : < v n m m n 4 : M s.s.. s.s.s.s.s.s.s.s.s.s.s.s.s.s.s.s.s.",
"s.s.s.s.s.s.s.s.s.s.s.s.s.s.s.s.s.s.s.s.s.s.s.s.s.s.s.s.s.s.s.s.s.s.s.s.s.s.s.s.s.s.s.s.s.s.s.s.s.s.s.s.s.s.s.s.s.s.s.s.s.s.s.s.",
"s.s.s.s.s.s.s.s.s.s.s.s.s.s.s.s.s.s.s.s.s.s.s.s.s.s.s.s.s.s.s.s.s.s.s.s.s.s.s.s.s.s.s.s.s.s.s.s.s.s.s.s.s.s.s.s.s.s.s.s.s.s.s.s.",
"s.s.s.s.s.s.s.s.s.s.s.s.s.s.s.s.s.s.s.s.s.s.s.s.s.s.s.s.s.s.s.s.s.s.s.s.s.s.s.s.s.s.s.s.s.s.s.s.s.s.s.s.s.s.s.s.s.s.s.s.s.s.s.s.",
"s.s.s.s.s.s.s.s.s.s.s.s.s.s.s.s.s.s.s.s.s.s.s.s.s.s.s.s.s.s.s.s.s.s.s.s.s.s.s.s.s.s.s.s.s.s.s.s.s.s.s.s.s.s.s.s.s.s.s.s.s.s.s.s.",
"s.s.s.s.s.s.s.s.s.s.s.s.s.s.s.s.s.s.s.s.s.s.s.s.s.s.s.s.s.s.s.s.s.s.s.s.s.s.s.s.s.s.s.s.s.s.s.s.s.s.s.s.s.s.s.s.s.s.s.s.s.s.s.s.",
"s.s.s.s.s.s.s.s.s.s.s.s.s.s.s.s.s.s.s.s.s.s.s.s.s.s.s.s.s.s.s.s.s.s.s.s.s.s.s.s.s.s.s.s.s.s.s.s.s.s.s.s.s.s.s.s.s.s.s.s.s.s.s.s.",
"s.s.s.s.s.s.s.s.s.s.s.s.s.s.s.s.s.s.s.s.s.s.s.s.s.s.s.s.s.s.s.s.s.s.s.s.s.s.s.s.s.s.s.s.s.s.s.s.s.s.s.s.s.s.s.s.s.s.s.s.s.s.s.s.",
"s.s.s.s.s.s.s.s.s.s.s.s.s.s.s.s.s.s.s.s.s.s.s.s.s.s.s.s.s.s.s.s.s.s.s.s.s.s.s.s.s.s.s.s.s.s.s.s.s.s.s.s.s.s.s.s.s.s.s.s.s.s.s.s."
};
