/* XPM */
static char *_9[] = {
/* columns rows colors chars-per-pixel */
"64 64 144 2 ",
"   c #010000",
".  c #0B0001",
"X  c #140002",
"o  c #1B0003",
"O  c #220004",
"+  c #2D0005",
"@  c #340006",
"#  c #3B0007",
"$  c #3F0008",
"%  c #440008",
"&  c #4A0109",
"*  c #54000A",
"=  c #5C000B",
"-  c #50101A",
";  c #63000C",
":  c #6B000D",
">  c #74000E",
",  c #7B000F",
"<  c #6B0A17",
"1  c #720715",
"2  c #7D0110",
"3  c #551820",
"4  c #771925",
"5  c #781D2B",
"6  c #54222C",
"7  c #532F38",
"8  c #592F38",
"9  c #573039",
"0  c #672430",
"q  c #782735",
"w  c #7F2F3B",
"e  c #73323E",
"r  c #483E45",
"t  c #6A3F4B",
"y  c #763643",
"u  c #7C3745",
"i  c #5D404A",
"p  c #4B4950",
"a  c #554650",
"s  c #5B515B",
"d  c #614F5A",
"f  c #63535D",
"g  c #735865",
"h  c #666F7A",
"j  c #85000D",
"k  c #88000F",
"l  c #830010",
"z  c #8C0011",
"x  c #870919",
"c  c #8A0918",
"v  c #930012",
"b  c #9B0013",
"n  c #950618",
"m  c #9F071A",
"M  c #9B0D1F",
"N  c #A6000F",
"B  c #A40014",
"V  c #AB0015",
"C  c #A30618",
"Z  c #AE0519",
"A  c #A0081A",
"S  c #A8081B",
"D  c #B30016",
"F  c #BB0016",
"G  c #B50318",
"H  c #BC0319",
"J  c #B10A1E",
"K  c #891322",
"L  c #961B2A",
"P  c #9B1A2B",
"I  c #B90D22",
"U  c #A21023",
"Y  c #AD1F32",
"T  c #962234",
"R  c #9E2133",
"E  c #A9283A",
"W  c #C30014",
"Q  c #CD0015",
"!  c #C30118",
"~  c #CC0119",
"^  c #DE0017",
"/  c #D3001A",
"(  c #DB001B",
")  c #E40013",
"_  c #E4001C",
"`  c #EB001D",
"'  c #F4001D",
"]  c #FF001F",
"[  c #CD0D25",
"{  c #FF0020",
"}  c #8C3D4A",
"|  c #814B56",
" . c #8F4A57",
".. c #865B67",
"X. c #83636E",
"o. c #836A74",
"O. c #996370",
"+. c #7A7C85",
"@. c #66818B",
"#. c #6B818C",
"$. c #72818C",
"%. c #768692",
"&. c #78939D",
"*. c #7F9DA9",
"=. c #7AA1AD",
"-. c #878892",
";. c #848D9A",
":. c #859EAA",
">. c #8B9AA4",
",. c #949AA4",
"<. c #80A3AD",
"1. c #94A5AE",
"2. c #83A3B0",
"3. c #88A7B0",
"4. c #82AAB6",
"5. c #87AFBD",
"6. c #88AFBB",
"7. c #9DA6B2",
"8. c #8DB2BE",
"9. c #A7A2AD",
"0. c #9EBFCD",
"q. c #A2B9C7",
"w. c #9DC4D3",
"e. c #B1C0CC",
"r. c #A6C7D3",
"t. c #ACC7D4",
"y. c #ACCDD9",
"u. c #B2CCD9",
"i. c #A1D0DE",
"p. c #AAD4E3",
"a. c #AEDDEC",
"s. c #BADAE6",
"d. c #B4DEED",
"f. c #BBDFEA",
"g. c #B5D5E2",
"h. c #BEE8F6",
"j. c #BCE8F8",
"k. c #BBE3F4",
"l. c #C2E6F5",
"z. c #C2E8F7",
"x. c #C8E8F5",
"c. c #C4EBFB",
"v. c #CCEEFB",
"b. c None",
/* pixels */
"b.b.b.b.b.b.b.b.b.b.b.b.b.b.b.b.b.b.b.b.b.b.b.b.b.b.b.b.b.b.b.b.b.b.b.b.b.b.b.b.b.b.b.b.b.b.b.b.b.b.b.b.b.b.b.b.b.b.b.b.b.b.b.b.",
"b.b.b.b.b.b.b.b.b.b.b.b.b.b.b.b.b.b.b.b.b.b.b.b.b.b.b.b.b.b.b.b.b.b.b.b.b.b.b.b.b.b.b.b.b.b.b.b.b.b.b.b.b.b.b.b.b.b.b.b.b.b.b.b.",
"b.b.b.b.b.b.b.b.b.b.b.b.b.b.b.b.b.b.b.b.b.b.b.b.b.b.b.b.b.b.b.b.b.b.b.b.b.b.b.b.b.b.b.b.b.b.b.b.b.b.b.b.b.b.b.b.b.b.b.b.b.b.b.b.",
"b.b.b.b.b.b.b.b.b.b.b.b.b.b.b.b.b.b.b.b.b.b.b.b.b.b.b.b.b.b.b.b.  b.b.b.O + b.o . b.b.b.b.b.b.b.b.  b.b.b.b.b.b.b.b.b.b.b.b.b.b.",
"b.b.b.b.b.b.b.b.b.b.b.b.b.b.b.b.b.b.b.b.b.b.b.b.b.b.b.b.b.o O # * z z b F F V V b > : & b.O b.b.% & b.b.b.b.b.b.b.b.b.b.b.b.b.b.",
"b.b.b.b.b.b.b.b.b.b.b.b.b.b.b.b.b.b.b.b.b.b.b.b.b.b.b.O & l ! _ _ ' { { ' { { { ] ] ` _ F l : o > ~ > b.b.b.b.b.b.b.b.b.b.b.b.b.",
"b.b.b.b.b.b.b.b.b.b.b.b.b.b.b.b.b.b.b.b.b.b.b.b.b.b.b V ` ' { ] { ] ] ] ] ] { { { ] { ] { { ~ * ! { D O b.b.b.b.b.b.b.b.b.b.b.b.",
"b.b.b.b.b.b.b.b.b.b.b.b.b.b.b.b.b.b.b.b.b.b.b.X & z / ' ] ] ] ] ] ] ] ] ] ] ] ] ] ] ] ] { ' b v ' { ] > b.b.b.b.b.b.b.b.b.b.b.b.",
"b.b.b.b.b.b.b.b.b.b.b.b.b.b.b.b.b.b.b.b.b.b.b.l / ] ] ] ] ] ] ] ] ] ] ] ] ] ] ] ] ] ] ] { / l / ] ] ] ~ > b.b.b.b.b.b.b.b.b.b.b.",
"b.b.b.b.b.b.b.b.b.b.b.b.b.b.b.b.b.b.b.b.b.@ z ( ] ] ] ] ] ] ] ] ] ] ] ] ] ] ] ] ] ] ] ] ' B b ] ] ] ] ] V O b.b.b.b.b.b.b.b.b.b.",
"b.b.b.b.b.b.b.b.b.b.b.b.b.b.b.b.b.b.b.b.: V ] ] ] ] ] ] ] ] ] ] ] ] ] ] ] ] ] ] ] ] ] { / > / ] ] ] ] { ` : b.b.b.b.b.b.b.b.b.b.",
"b.b.b.b.b.b.b.b.b.b.b.b.b.b.b.b.b.b.b.# B ' ] ] ] ] ] ] ] ] ] ] ] ] ] ] ] ] ] ] ] ] { ' v b ' ] ] ] ] { { ~ * b.b.b.b.b.b.b.b.b.",
"b.b.b.b.b.b.b.b.b.b.b.b.b.b.b.b.b.b.& D ] ] ] ] ] ] ] ] ] ] ] ] ] ] ] ] ] ] ] ] ] ] ] ~ l / { ] ] ] ] ] ] { z b.b.b.b.b.b.b.b.b.",
"b.b.b.b.b.b.b.b.b.b.b.b.b.b.b.b.b.@ C { ] ] ] ] ] ] ] ] ] ] ] ] ] ] ] ] ] ] ] ] ] { ' b B { { ] ] ] ] ] ] { ! l b.b.b.b.b.b.b.b.",
"b.b.b.b.b.b.b.b.b.b.b.b.b.b.b.b.. > ` ] ] ] ] ] ] ] ] ] ] ] ] ] ] ] ] ] ] ] ] ] ] ] / z _ { ] ] ] ] ] ] ] { ' z . b.b.b.b.b.b.b.",
"b.b.b.b.b.b.b.b.b.b.b.b.b.b.b.  % ( ] ] ] ] ] ] ] ] ] ] ] ] ] ] ] ] { ] ] { ] ] { ' k B ' { ] ] ] ] ] ] ] ] { ( @ b.b.b.b.b.b.b.",
"b.b.b.b.b.b.b.b.b.b.b.b.b.b.% @ B { { ] ] ] ] ] ] ] ] ] ] ] ] ] ] ] ] ] ` / ( ` ` W 2 ( ] ] ] ] ] ] ] ] ] ] ] ' > b.b.b.b.b.b.b.",
"b.b.b.b.b.b.b.b.b.b.b.b.b.= l > _ ] ] ] ] ] ] ] ] ] ] ] ] ] ] ] ] ( Z , : z l > l = z ' ] ] ] ] ] ] ] ] ] ] ] ] ~ # b.b.b.b.b.b.",
"b.b.b.b.b.b.b.b.b.b.b.b.v ! z D { ] ] ] ] ] ] ] ] ] ] ] ] ] ' W > ; B ! ^ ~ D b : : 2 B / ' ] ] ] ] ] ] ] ] ] ] ' = b.b.b.b.b.b.",
"b.b.b.b.b.b.b.b.b.b.  = ~ H l _ { ] ] ] ] ] ] ] ] ] ] ] ] ] ! u p U ' { ' / Z C H _ _ B 2 D ] ] ] ] ] ] ] ] ] ] { b b.b.b.b.b.b.",
"b.b.b.b.b.b.b.b.b.# z ` { b v ] ] ] ] ] ] ] ] ] ] ] ] ] ' N 7 =.&.R ) ! P Z / ' { { { { ! , ! ' ] ] ] ] ] ] ] ] { ( : b.b.b.b.b.",
"b.b.b.b.b.b.b.b.% k ' { ` > F ] ] ] ] ] ] ] ] ] ] ] ] ] H i 5.h.q.4 ! ! _ ' ] ] { { { { ] H v F ] ] ] ] ] ] ] ] ] ] > b.b.b.b.b.",
"b.b.b.b.b.b.b.@ b ` { { / : _ { ] ] ] ] ] ] ] ] ] ] ] ) q <.k.l.<.3 Z ` ] ] ] ] ] ] { { ] ' ~ j ` { ] ] ] ] ] ] ] { b b.b.b.b.b.",
"b.b.b.b.b.b., D ] { ] { V l ' ] ] ] ] ] ] ] ] ] ] ] ] b h a.l.e. .! ] ] ] ] ] ] ] ] ] ] ] { { z F ' { ] ] ] ] ] ] { / ; b.b.b.b.",
"b.b.b.b.  # V ' { ] ] ' B k ] { ] ] ] ] ] ] ] ] ] { ^ 0 4.c.g.O.~ { ] ] ] ] ] ] ] ] ] ] ] ] { H B ( { ] ] ] ] ] ] ] ] ; b.b.b.b.",
"b.b.b.+ , ~ { { ] ] { ] > D ' { ] ] ] ] ] ] ] ] ] ] ! s d.l.-.I ' { ] ] ] ] ] ] ] ] ] ] ] ] { ` v ! { { ] ] ] ] ] ] ] , b.b.b.b.",
"b.b.b.> _ { ] ] ] ] ] ' > F ] ] ] ] ] ] ] ] ] ] ] ] B %.l.y. .) ] ] ] ] ] ] ] ] ] ] ] ] ] ] ] { z H ' { ] ] ] ] ] ] ] F @ b.b.b.",
"b.+ l ( ] ] ] ] ] { { ( l F { ] ] ] ] ] ] ] ] ] ] ] K :.x.7.Y ] { ] ] ] ] ] ] ] ] ] ] ] ] ] ] { V V ] ] ] ] ] ] ] ] ] _ + b.b.b.",
"b.V ' { { { ] ] ] ] { ' ; / ] ] ] ] ] ] ] ] ] ] ] ' L &.h.9.W ] ] ] ] ] ] ] ] ] ] ] ] ] ] ] ] ] F z ] ] ] ] ] ] ] { { ` * b.b.b.",
"z ` ] ] ] ] ] ] ] ] { ` : ~ { ] ] ] ] ] ] ] ] ] ] ' x :.c.,.~ ] ] ] ] ] ] ] ] ] ] ] ] ] ] ] ] ] V B ' ] ] ] ] ] ] { { ' ,   b.b.",
"( { { ] ] ] ] ] ] { { _ z V { { ] ] ] ] ] ] ] ] ] ] k ;.h.1.E ' { ] ] ] ] ] ] ] ] ] ] ] ] ] ] ] v F ] ] ] ] ] ] ] ] ] ' b b.b.b.",
"V ' { ] ] ] ] { { ' ( V & D { { ] ] ] ] ] ] ] ] ] ] F f a.u.g ) ] ] ] ] ] ] ] ] { { ] ] ] ] { _ z ! { ] ] ] ] ] ] ] ] ] B b.b.b.",
"; ' { ] { { { / D v v b.. B ' ] ] ] ] ] ] ] ] ] ] ] _ 6 w.c.+.J ' ] ] ] ] ] ] ] ] { ] ] ] ] { ~ , ` ] ] ] ] ] ] ] ] ] { D # b.b.",
"# _ { ' ~ V v z b.b.b.b.b.2 { ] ] ] ] ] ] ] ] ] ] ] ] > $.d.r...I ' ] ] ] ] ] ] ] ] { { ] ] ` z D ] ] ] ] ] ] ] ] ] ] { / o b.b.",
"O v B n z b.b.b.b.b.b.b.b.* ' ] ] ] ] ] ] ] ] ] ] ] ] W y 4.c.t.o.L W ' ' ] ] ' ] ] ' _ / / z : ( { ] ] ] ] ] ] ] ] ] { / O b.b.",
"b.# b.b.b.b.b.b.b.b.b.b.b.& ( ] ] ] ] ] ] ] ] ] ] ] ] ' D p w.x.f.1.X.w L m C ! H n C F C = @ * l ~ ' ] ] ] ] ] ] ] ] { ~ > b.b.",
"b.b.b.b.b.b.b.b.b.b.b.b.b.* B { ] ] ] ] ] ] ] ] ] ] ] ] ' j s 8.l.v.s.u.3.d , D G ~ ( Q b : B ~ V 2 v ~ ' { { { ] ] ] { _ % b.b.",
"b.b.b.b.b.b.b.b.b.b.b.b.b.b.> ] ] ] ] ] ] ] ] ] ] ] ] ] ] ` B 8 @.i.c.v.x.w.e ` ] ] ' H z ! ] { { _ D b b ! ' { { ] ] { ` @ b.b.",
"b.b.b.b.b.b.b.b.b.b.b.b.b.b.& ( ] ] ] ] ] ] ] ] ] ] ] ] ] ] ' W < a $.8.y.y.@.T G k > j ! ' ] ] ] ] ] ` D z z ! ` ] { { ( z b.b.",
"b.b.b.b.b.b.b.b.b.b.b.b.b.b.+ l ' ] ] ] ] ] ] ] ] ] ] ] ] ] ] ] ) F c 5 8 g i - : B / ] ] ] ] ] ] ] ] { { ` F l k D ` { _ = b.b.",
"b.b.b.b.b.b.b.b.b.b.b.b.b.b.b.# ) { ] ] ] ] ] ] ] ] ] ] ] ] ] ] ] ] ] ) _ Q ~ ` ' ' ] ] ] ] ] ] ] ] ] ] ] { { ` F z 2 D ( # b.b.",
"b.b.b.b.b.b.b.b.b.b.b.b.# # = ; Z ` ] ] ] ] ] ] ] ] ] ] ] ] ] ] ] ] ] ] ] ] ] ] ] ] ] ] ] ] ] ] ] ] ] ] ] ] ] { { ` : @ = + b.b.",
"b.b.b.b.b.b.b.b.b.# % = v / ] / B F ] ] ] ] ] ] ] ] ] ] ] ] ] ] ] ] ] ] ] ] ] ] ] ] ] ] ] ] ] ] ] ] ] ] ] ] ] ] { ( > b.b.b.b.b.",
"b.b.b.b.b.b.# % ; v ( ' ] ] ] ' / , _ ] ] ] ] ] ] ] ] ] ] ] ] ] ] ] ] ] ] ] ] ] ] ] ] ] ] ] ] ] ] ] ] ] ] ] ] ] ' z b.b.b.b.b.b.",
"b.b.b.b.o = b ( ] ] ] ] ] ] ] ] ] b b _ ] ] ] ] ] ] ] ] ] ] ] ] ] ] ] ] ] ] ] ] ] ] ] ] ] ] ] ] ] ] ] ] ] ] { ] B @ b.b.b.b.b.b.",
"b.b.b.b.O ~ { { ] ] ] ] ] ] ] ] ] _ b B ` { ] ] ] ] ] ] ] ] ] ] ] ] ] ] ] ] ] ] ] ] ] ] ] ] ] ] ] ] ] ] ] ] ' V + b.b.b.b.b.b.b.",
"b.b.b.b.  B ' { ] ] ] ] ] ] ] ] ] ] ` B n ' ] ] ] ] ] ] ] ] ] ] ] ] ] ] ] ] ] ] ] ] ] ] ] ] ] ] ] ] ] ] { { ! * b.b.b.b.b.b.b.b.",
"b.b.b.b.  ; ` { ] ] ] ] ] ] ] ] ] ] ] ` z B _ ] ] { ] ] ] ] ] ] ] ] ] ] ] ] ] ] ] ] ] ] ] ] ] ] ] ] ] ] ' V * b.b.b.b.b.b.b.b.b.",
"b.b.b.b.b.+ / { { { ] ] ] ] ] ] ] ] ] { _ B v ~ { { { { ] ] ] ] ] ] ] ] ] ] ] ] ] ] ] ] ] ] ] ] ] { { ` z @ b.b.b.b.b.b.b.b.b.b.",
"b.b.b.b.b.  b _ { ' { { { { { ] { { ] { { ' F l D ` ] { ] ] ] ] ] ] ] ] ] ] ] ] ] ] ] ] ] ] ] ] ] ' ~ z % b.b.b.b.b.b.b.b.b.b.b.",
"b.b.b.b.b.  # , = v z b D F ~ _ ( ' { ' ' { { ~ v z ! ` { { { ] ] ] ] ] ] ] ] ] ] ] ] ] ] ] { { _ l % b.b.b.b.b.b.b.b.b.b.b.b.b.",
"b.b.b.b.b.b.b.b.b.b.X b.X # b.# ; : = 2 2 z D B V v = > ! _ ' ] ] { ] ] ] ] ] { ] ] ] { { _ D , & @ b.b.b.b.b.b.b.b.b.b.b.b.b.b.",
"b.b.b.b.b.b.b.b.b.b.b.b.b.b.b.b.b.b.b.b.. b.b.+ b.+ % . o & > V / _ ' { ' ] { ' ' ' _ V , ; ; b.b.b.b.b.b.b.b.b.b.b.b.b.b.b.b.b.",
"b.b.b.b.b.b.b.b.b.b.b.b.b.b.b.b.b.b.b.b.b.b.b.b.b.b.b.b.b.b.. b.@ 2 = z z l v z , * * b.b.b.b.b.b.b.b.b.b.b.b.b.b.b.b.b.b.b.b.b.",
"b.b.b.b.b.b.b.b.b.b.b.b.b.b.b.b.b.b.b.b.b.b.b.b.b.b.b.b.b.b.b.b.b.b.b.b.  b.b.  b.b.b.b.b.b.b.b.b.b.b.b.b.b.b.b.b.b.b.b.b.b.b.b.",
"b.b.b.b.b.b.b.b.b.b.b.b.b.b.b.b.b.b.b.b.b.b.b.b.b.b.b.b.b.b.b.b.b.b.b.b.b.b.b.b.b.b.b.b.b.b.b.b.b.b.b.b.b.b.b.b.b.b.b.b.b.b.b.b.",
"b.b.b.b.b.b.b.b.b.b.b.b.b.b.b.b.b.b.b.b.b.b.b.b.b.b.b.b.b.b.b.b.b.b.b.b.b.b.b.b.b.b.b.b.b.b.b.b.b.b.b.b.b.b.b.b.b.b.b.b.b.b.b.b.",
"b.b.b.b.b.b.b.b.b.b.b.b.b.b.b.b.b.b.b.b.b.b.b.b.b.b.b.b.b.b.b.b.b.b.b.b.b.b.b.b.b.b.b.b.b.b.b.b.b.b.b.b.b.b.b.b.b.b.b.b.b.b.b.b.",
"b.b.b.b.b.b.b.b.b.b.b.b.b.b.b.b.b.b.b.b.b.b.b.b.b.b.b.b.b.b.b.b.b.b.b.b.b.b.b.b.b.b.b.b.b.b.b.b.b.b.b.b.b.b.b.b.b.b.b.b.b.b.b.b.",
"b.b.b.b.b.b.b.b.b.b.b.b.b.b.b.b.b.b.b.b.b.b.b.b.b.b.b.b.b.b.b.b.b.b.b.b.b.b.b.b.b.b.b.b.b.b.b.b.b.b.b.b.b.b.b.b.b.b.b.b.b.b.b.b.",
"b.b.b.b.b.b.b.b.b.b.b.b.b.b.b.b.b.b.b.b.b.b.b.b.b.b.b.b.b.b.b.b.b.b.b.b.b.b.b.b.b.b.b.b.b.b.b.b.b.b.b.b.b.b.b.b.b.b.b.b.b.b.b.b.",
"b.b.b.b.b.b.b.b.b.b.b.b.b.b.b.b.b.b.b.b.b.b.b.b.b.b.b.b.b.b.b.b.b.b.b.b.b.b.b.b.b.b.b.b.b.b.b.b.b.b.b.b.b.b.b.b.b.b.b.b.b.b.b.b.",
"b.b.b.b.b.b.b.b.b.b.b.b.b.b.b.b.b.b.b.b.b.b.b.b.b.b.b.b.b.b.b.b.b.b.b.b.b.b.b.b.b.b.b.b.b.b.b.b.b.b.b.b.b.b.b.b.b.b.b.b.b.b.b.b.",
"b.b.b.b.b.b.b.b.b.b.b.b.b.b.b.b.b.b.b.b.b.b.b.b.b.b.b.b.b.b.b.b.b.b.b.b.b.b.b.b.b.b.b.b.b.b.b.b.b.b.b.b.b.b.b.b.b.b.b.b.b.b.b.b."
};
