/* XPM */
static char *_01[] = {
/* columns rows colors chars-per-pixel */
"72 72 222 2 ",
"   c #001E19",
".  c #162F17",
"X  c #0D1B2C",
"o  c #061B2E",
"O  c #121C2E",
"+  c #181F2E",
"@  c #0E1B33",
"#  c #0E1E3C",
"$  c #0B1732",
"%  c #101E3B",
"&  c #111D33",
"*  c #0C202A",
"=  c #19272B",
"-  c #0D2135",
";  c #132235",
":  c #1A2533",
">  c #13223C",
",  c #1A273A",
"<  c #1B2A3C",
"1  c #1C2934",
"2  c #193336",
"3  c #1A343A",
"4  c #143633",
"5  c #083639",
"6  c #242B39",
"7  c #212936",
"8  c #26313C",
"9  c #2C333B",
"0  c #283835",
"q  c #333633",
"w  c #3C3C3C",
"e  c #373A38",
"r  c #2A302B",
"t  c #433C3C",
"y  c #423B36",
"u  c #2A4A39",
"i  c #28453A",
"p  c #3B483D",
"a  c #424C3C",
"s  c #49443A",
"d  c #0F1E41",
"f  c #101F42",
"g  c #0E2243",
"h  c #0F2549",
"j  c #122244",
"k  c #152843",
"l  c #1C2C43",
"z  c #14254C",
"x  c #18264D",
"c  c #14294D",
"v  c #1B2B4C",
"b  c #182443",
"n  c #1D3344",
"m  c #1B334C",
"M  c #152653",
"N  c #182654",
"B  c #162955",
"V  c #1A2C54",
"C  c #172759",
"Z  c #16295A",
"A  c #1A2C5B",
"S  c #1B3155",
"D  c #1E315B",
"F  c #232E44",
"G  c #242F49",
"H  c #223245",
"J  c #22344A",
"K  c #26384E",
"L  c #2B3B49",
"P  c #3B3E44",
"I  c #213254",
"U  c #253B54",
"Y  c #2B3D55",
"T  c #22345B",
"R  c #233A5C",
"E  c #293C5B",
"W  c #202F55",
"Q  c #1D2F61",
"!  c #1E3161",
"~  c #213462",
"^  c #293E62",
"/  c #483D43",
"(  c #094D48",
")  c #3B4345",
"_  c #384947",
"`  c #3D524C",
"'  c #37504E",
"]  c #2A435C",
"[  c #2A4055",
"{  c #334452",
"}  c #32445B",
"|  c #3A4B5A",
" . c #2A4643",
".. c #2C4463",
"X. c #2D4767",
"o. c #324B6B",
"O. c #364964",
"+. c #3A526B",
"@. c #334D72",
"#. c #3A5474",
"$. c #375173",
"%. c #3C6369",
"&. c #424344",
"*. c #494341",
"=. c #464B49",
"-. c #4B4A4A",
";. c #494C46",
":. c #534643",
">. c #534942",
",. c #554E4B",
"<. c #5B4D48",
"1. c #485349",
"2. c #5C5244",
"3. c #51544A",
"4. c #58584A",
"5. c #4A4D53",
"6. c #4B5654",
"7. c #4C5B56",
"8. c #495A58",
"9. c #5B5754",
"0. c #545C5C",
"q. c #585A56",
"w. c #504E54",
"e. c #614E43",
"r. c #614E4B",
"t. c #64534A",
"y. c #6B5549",
"u. c #6C5B4C",
"i. c #635547",
"p. c #755C4C",
"a. c #795C4B",
"s. c #705549",
"d. c #625651",
"f. c #655A54",
"g. c #6A5C55",
"h. c #635C5B",
"j. c #755D50",
"k. c #5B625C",
"l. c #536159",
"z. c #75614E",
"x. c #6C635C",
"c. c #666558",
"v. c #746454",
"b. c #7C6453",
"n. c #73645A",
"m. c #75695D",
"M. c #7B6B5B",
"N. c #7D6856",
"B. c #67604D",
"V. c #41536B",
"C. c #445465",
"Z. c #4B6563",
"A. c #536465",
"S. c #5A6464",
"D. c #5A6867",
"F. c #556F70",
"G. c #4F7174",
"H. c #6D6762",
"J. c #656A63",
"K. c #6B6C63",
"L. c #636563",
"P. c #746C62",
"I. c #786E63",
"U. c #6C7269",
"Y. c #7A7265",
"T. c #73736C",
"R. c #7A756B",
"E. c #79766A",
"W. c #6C7976",
"Q. c #6C7875",
"!. c #7B7A73",
"~. c #747D7A",
"^. c #747773",
"/. c #846956",
"(. c #846C59",
"). c #8B6B5B",
"_. c #856555",
"`. c #8B715E",
"'. c #916D60",
"]. c #82796A",
"[. c #887567",
"{. c #977866",
"}. c #867D72",
"|. c #A67C68",
" X c #7A817C",
".X c #6E817E",
"XX c #91816D",
"oX c #8B8373",
"OX c #83837B",
"+X c #888377",
"@X c #968978",
"#X c #8E826E",
"$X c #A8826B",
"%X c #A78C78",
"&X c #A79179",
"*X c #395781",
"=X c #3E6193",
"-X c #697C82",
";X c #406CAB",
":X c #6C8384",
">X c #6C8A8C",
",X c #698689",
"<X c #7A8885",
"1X c #778F91",
"2X c #7B9297",
"3X c #75AFB8",
"4X c #858E8A",
"5X c #858983",
"6X c #8A928B",
"7X c #95928A",
"8X c #999288",
"9X c #899592",
"0X c #8B9895",
"qX c #969F9C",
"wX c #A59887",
"eX c #A28F80",
"rX c #AAA599",
"tX c #B7AD9E",
"yX c #95ACAB",
"uX c #B3B9B1",
"iX c #C2BCB2",
"pX c None",
/* pixels */
"pXpXpXpXpXpXpXpXpXpXpXpXpXpXpXpXpXpXpXpXpXpXpXpXpXpXpXpXpXpXpXpXpXpXpXpXpXpXpXpXpXpXpXpXpXpXpXpXpXpXpXpXpXpXpXpXpXpXpXpXpXpXpXpXpXpXpXpXpXpXpXpX",
"pXpXpXpXpXpXpXpXpXpXpXpXpXpXpXpXpXpXpXpXpXpXpXpXpXpXpXpXpXpXpXpXpXpXpXpXpXpXpXpXpXpXpXpXpXpXpXpXpXpXpXpXpXpXpXpXpXpXpXpXpXpXpXpXpXpXpXpXpXpXpXpX",
"pXpXpXpXpXpXpXpXpXpXpXpXpXpXpXpXpXpXpXpXpXpXpXpXpXpXpXpXpXpXpXpXpXpXpXpXpXpXpXpXpXpXpXpXpXpXpXpXpXpXpXpXpXpXpXpXpXpXpXpXpXpXpXpXpXpXpXpXpXpXpXpX",
"pXpXpXpXpXpXpXpXpXpXpXpXpXpXpXpXpXpXpXpXpXpXpXpXpXpXpXpXpXpXpXpXpXpXpXpXpXpXpXpXpXpXpXpXpXpXpXpXpXpXpXpXpXpXpXpXpXpXpXpXpXpXpXpXpXpXpXpXpXpXpXpX",
"pXpXpXpXpXpXpXpXpXpXpXpXpXpXpXpXpXpXpXpXpXpXpXpXpXpXpXpXpXpXpXpXpXpXpXpXpXpXpXpXpXpXpXpXpXpXpXpXpXpXpXpXpXpXpXpXpXpXpXpXpXpXpXpXpXpXpXpXpXpXpXpX",
"pXpXpXpXpXpXpXpXpXpXpXpXpXpXpXpXpXpXpXpXpXpXpXpXpXpXpXpXpXpXpXpXpXpXpXpXpXpXpXpXpXpXpXpXpXpXpXpXpXpXpXpXpXpXpXpXpXpXpXpXpXpXpXpXpXpXpXpXpXpXpXpX",
"pXpXpXpXpXpXpXpXpXpXpXpXpXpXpXpXpXpXpXpXpXpXpXpXpXpXpXpXpXpXpXpXpXpXpXpXpXpXpXpXpXpXpXpXpXpXpXpXpXpXpXpXpXpXpXpXpXpXpXpXpXpXpXpXpXpXpXpXpXpXpXpX",
"pXpXpXpXpXpXpXpXpXpXpXpXpXpXpXpXpXpXpXpXpXpXpXpXpXpXpXpXpXpXpXpXpXpXpXpXpXpXpXpXpXpXpXpXpXpXpXpXpXpXpXpXpXpXpXpXpXpXpXpXpXpXpXpXpXpXpXpXpXpXpXpX",
"pXpXpXpXpXpXpXpXpXpXpXpXpXpXpXpXpXpXpXpXpXpXpXpXpXpXpXpXpXpXpXpXpXpXpXpXpXpXpXpXpXpXpXpXpXpXpXpXpXpXpXpXpXpXpXpXpXpXpXpXpXpXpXpXpXpXpXpXpXpXpXpX",
"pXpXpXpXpXpXpXpXpXpXpXpXpXpXpXpXpXpXpXpXpXpXpXpXpXpXpXpXpXpXpXpXpXpXpXpXpXpXpXpXpXpXpXpXpXpXpXpXpXpXpXpXpXpXpXpXpXpXpXpXpXpXpXpXpXpXpXpXpXpXpXpX",
"pXpXpXpXpXpXpXpXpXpXpXpXpXpXpXpXpXpXpXpXpXpXpXpXpXpXpXpXpXpXpXpXpXpXpXpXpXpXpXpXpXpXpXpXpXpXpXpXpXpXpXpXpXpXpXpXpXpXpXpXpXpXpXpXpXpXpXpXpXpXpXpX",
"pXpXpXpXpXpXpXpXpXpXpXpXpXpXpXpXpXpXpXpXpXpXpXpXpXpXpXpXpXpXpXpXpXpXpXpXpXpXpXpXpXpXpXpXpXpXpXpXpXpXpXpXpXpXpXpXpXpXpXpXpXpXpXpXpXpXpXpXpXpX#.#.",
"pXpXpXpXpXpXpXpXpXpXpXpXpXpXpXpXpXpXpXpXpXpXpXpXpXpXpXpXpXpXpXpXpXpXpXpXpXpXpXpXpXpXpXpXpXpXpXpXpXpXpXpXpXpXpXpXpXpXpXpXpXpXpXpXpXpXpX#.$.$.@.@.",
"pXpXpXpXpXpXpXpXpXpXpXpXpXpXpXpXpXpXpXpXpXpXpXpXpXpXpXpXpXpXpXpXpXpXpXpXpXpXpXpXpXpXpXpXpXpXpXpXpXpXpXpXpXpXpXpXpXpXpXpXpXpXpXpXpX#.#.$.@.o...E ",
"pXpXpXpXpXpXpXpXpXpXpXpXpXpXpXpXpXpXpXpXpXpXpXpXpXpXpXpXpXpXpXpXpXpXpXpXpXpXpXpXpXpXpXpXpXpXpXpXpXpXpXpXpXpXpXpXpXpXpXpX=X;XpX#.$.$.o.X.^ E U U ",
"pXpXpXpXpXpXpXpXpXpXpXpXpXpXpXpXpXpXpXpXpXpXpXpXpXpXpXpXpXpXpXpXpXpXpXpXpXpXpXpXpXpXpXpXpXpXpXpXpXpXpXpXpXpXpXpXpX@.$.o.@.*XV.#.@.^ ^ E Y Y K J ",
"pXpXpXpXpXpXpXpXpXpXpXpXpXpXpXpXpXpXpXpXpXpXpXpXpXpXpXpXpXpXpXpXpXpXpXpXpXpXpXpXpXpXpXpXpXpXpXpXpXpXpXpXpXpXpXS.} ..^ I T o.o.X.] Y U K J H 6 6 ",
"pXpXpXpXpXpXpXpXpXpXpXpXpXpXpXpXpXpXpXpXpXpXpXpXpXpXpXpXpXpXpXpXpXpXpXpXpXpXpXpXpXpXpXpXpXpXpXpXpXpXpXpX4 i 7.8.Y E E I W E Y Y m m J H 6 6 6 < ",
"pXpXpXpXpXpXpXpXpXpXpXpXpXpXpXpXpXpXpXpXpXpXpXpXpXpXpXpXpXpXpXpXpXpXpXpXpXpXpXpXpXpXpXpXpXpXpXpXpXpX3 3 2 H Y Y V T T W V I K H n l 6 6 6 < , : ",
"pXpXpXpXpXpXpXpXpXpXpXpXpXpXpXpXpXpXpXpXpXpXpXpXpXpXpXpXpXpXpXpXpXpXpXpXpXpXpXpXpXpXpXpXpXpXpX3 2 2 n m v m V V V W T T V W J 3 < < < < , = : 1 ",
"pXpXpXpXpXpXpXpXpXpXpXpXpXpXpXpXpXpXpXpXpXpXpXpXpXpXpXpXpXpXpXpXpXpXpXpXpXpXpXpXpXpXpXpXpX3 3 n m m S S B B B B v N W W W I T Y G < , 1 : 3 H [ ",
"pXpXpXpXpXpXpXpXpXpXpXpXpXpXpXpXpXpXpXpXpXpXpXpXpXpXpXpXpXpXpXpXpXpXpXpXpXpXpXpXpXpXpXn m m m m S S V B B V v c x x x v I I I O.+.} Y L K } V.C.",
"pXpXpXpXpXpXpXpXpXpXpXpXpXpXpXpXpXpXpXpXpXpXpXpXpXpXpXpXpXpXpXpX=   pX= pX1 8  .H n m m D A D I V V V V V V c x x x x x x W v Y O.+.V.+.V.C.| { ",
"pXpXpXpXpXpXpXpXpXpXpXpXpXpXpXpXpXpXpXpXpXpXpXpXpXpXpX( ( pXp p p 1 * X * ; , l m S S D S A V V S V V V V B v x x x z z x v x v T } O.O.} L l , ",
"pXpXpXpXpXpXpXpXpXpXpXpXpXpXpXpXpXpXpXpXpXpXpXpXu u ` l.n.v.v.v.4.e X X X - , c V T T T D V D A A V V V V B c c x M x x M x z f x K Y K H , < < ",
"pXpXpXpXpXpXpXpXpXpXpXpXpXpXpXpXpXpXpXpXpXpXu u a B.z.N.(.(.m.P.9.1 X X X - k V D D D D D D A A A A T A V V c c x z z x x z x x x W K H < < < < ",
"pXpXpXpXpXpXpXpXpXpXpXpXpXpXpXpXpXpXpXpXu u s s i.z.N.N.N./.P.H.P O $ O % k B A ~ ~ ! A Q ~ ! T D A A A V V B x z M c x N f z z z v H H F < , ; ",
"pXpXpXpXpXpXpXpXpXpXpXpXpXpXpXpXpXpXpX1.l.M.(.a.a.z.z.v.H.j.x.-.1 X X & > k A ~ ~ ~ ~ D A A Q A ! ! A Z Z Z B B M M M c z f M x x v G H H < ; ; ",
"pXpXpXpXpXpXpXpXpXpXpXpXpXpXpXpXpXa e.B.N.`.N.z.p.z.n.m.P.H.w.1 X # @ # b c A ~ ~ ~ ~ A A Q A C ! ! A C Z Z Z Z M M B M j j C N x c l l n < > l ",
"pXpXpXpXpXpXpXpXpXpXpXpXpXpXpXpXpX4.v.(._./.N.v.v.m.P.U.x.w.8 @ @ % % j z B D T ~ T A A A A A A A A M M Q A A Z M Z M z z h M A A v k l < < < G ",
"pXpXpXpXpXpXpXpXpXpXpXpXpXpXpXpX4.v.`././.M.M.m.I.x.D.l.6. .k # # > % j k v A A A A A A A A A A A A M A Q Q Q Z Z Z M M z g x D A x j < l < l J ",
"pXpXpXpXpXpXpXpXpXpXpXpXpXpXpXB.N.(././.M.M.c.k.k.k.1.' pXpXm l > > > j z x M A A Z A A N A T C C C C Q Q Q Z Z Z Z M M z g B Z N x b < l l G J ",
"pXpXpXpXpXpXpXpXpXpXpXpXpX` 4.v.(.(.Y.Y.K.k._ pXpXpX3.Z.pX_ P ) 9 < % f f f M A Z A A A M A Q M M N Z Q Q Q Q Z Z Z Z M M M Z M x c k l l v m n ",
"pXpXpXpXpXpXpXpXpXpXpXpXpX1.B.(.(.].Y.K.` 4   r p 2.i.>.p ) &.<.<./ v f j f b N M A A Z M Z Z M C Z A Q Q Q Z Q Z Z Z M M M M h M V V l l n n n ",
"pXpXpXpXpXpXpXpXpXpXpXpX_ _ 4.M.`. XK.l.i i q s z.N.p.y.s t t :.r.t./ b f f b v M Z A B M C V V M C Z Q Q Z Z Q Z Z Z Z Z M h h Z ~ T m l v v n ",
"pXpXpXpXpXpXpXpXpXpXpXa 3.a a x.K.k.7._ 4.t.e.b.).).a.a.s.s t t e.u.w.J j % > x B Z A B M A Z Z M Z Z C Z Q Z Z Z Q Z M M M M h A ^ T m n m n l ",
"pXpXpXpXpXpXpXpXpX. 1.Y.Y.4.' 7.pXpXpXc.{.j.t._.'._._.s.y.:.y t / r.,.9 > j g z M B V A A Z B Z c Z Z C C Z Z Z Z Z Z Z M Z M M ^ ] ....U pXpXpX",
"pXpXpXpXpXpXpXpXc.c.E.oX].C. .' pXpXM.XX|._.e._.).a.s.s.y.*.e y t -.&.7 % % d g M V Z A Z Z M B B C M C Z Z Z Z Z A Z S D S h c pXpXpXpXpXpXpXpX",
"pXpXpXpXpXpXl.U.].#XXX+XU.Z.%.pXpX3X+X$X|.'.p./.p.e.s s s y q e w ) 9 : > > g j B Z Z S Z Z Z Z B Z Z Z Z B Z D D R ..o.o...pXpXpXpXpXpXpXpXpXpX",
"pXpXpXpXpX7.E.&X@X#XoX<X1X>XpXpXpX<X(.|.|.).y.i.t.e.<.>.t q q P &.| H > > > z g h M B B M B Z Z Z Z Z Z A D ..| } pX+.pXpXpXpXpXpXpXpXpXpXpXpXpX",
"pXpXpXpXU.].$X&X@X+X6XyXpXpXpXpXpX].[.{.'._.:.<.g.d.<.*.P e &.6.7.+.[ l , j j j j x z M M M Z Z c c S D ..X.pXpXpXpXpXpXpXpXpXpXpXpXpXpXpXpXpXpX",
"pXpXpXpXrX$X%X#XR.OXqXuXpXpXpXpXpXpX}.[.).p.*.3.d.4.:.*.) _ pXpXpXpXm j j % % % > g g h h M h h ] ] ] X.pXpXpXpXpXpXpXpXpXpXpXpXpXpXpXpXpXpXpXpX",
"pXpXpXpXrX&X&X+XE.OXyXpXpXpXpXpXpXpX-XT.H.4.;.-.;.P w &.) 8.pXpXpXpXl > @ @ O O @ # # # > g g pX<XpXpXpXpXpXpXpXpXpXpXpXpXpXpXpXpXpXpXpXpXpXpXpX",
"pXpXpXiXtX&X&X@XT.6XpXpXpXpXpXpXpXpXpXpXS.6.=.P 8 0 q &.pXpXpXpXpX{ < + + O O $ X X $ $ @ pXpXpXpXpXpXpXpXpXpXpXpXpXpXpXpXpXpXpXpXpXpXpXpXpXpXpX",
"pXpXpXiXuXrX7XT.^.4XpXpXpXpXpXpXpXpXpXpXpXZ.1._ w r pXpXpXpXpXG.S.7.&.P P 9 6 , O X o o pXpXpXpXpXpXpXpXpXpXpXpXpXpXpXpXpXpXpXpXpXpXpXpXpXpXpXpX",
"pXpXpXuXtXrX6X~.<XpXpXpXpXpXpXpXpXpXpXpXpXpXpXpXpXpXpXpXpXpXF.D.h.f.f.d.,.:.-.P 8 O - 5 pXpXpXpXpXpXpXpXpXpXpXpXpXpXpXpXpXpXpXpXpXpXpXpXpXpXpXpX",
"pXpXpXpXpX0X1XpXpXpXpXpXpXpXpXpXpXpXpXpXpXpXpXpXpXpXpXpXpXJ.H.h.h.g.g.g.f.9.9.) 7 X pXpXpXpXpXpXpXpXpXpXpXpXpXpXpXpXpXpXpXpXpXpXpXpXpXpXpXpXpXpX",
"pXpXpXpXpXpXpXpXpXpX:X,XpXpXpXpXpXpXpXpXpXpXpXpXpXpX!.^.T.H.x.n.g.g.g.g.h.h.h.5.8 X pXpXpXpXpXpXpXpXpXpXpXpXpXpXpXpXpXpXpXpXpXpXpXpXpXpXpXpXpXpX",
"pXpXpXpXpXpXpXpX9X5XQ.Q.>XpXpXpXpXpX,X,X:XW. XOXR.!.R.R.P.H.n.u.f.f.f.f.c.D.D.C.pXpXpXpXpXpXpXpXpXpXpXpXpXpXpXpXpXpXpXpXpXpXpXpXpXpXpXpXpXpXpXpX",
"pXpXpXpXpXpXpXpX4X^.P.!.-X}.,X>X>X:X-XW.Q.T.T.E.R.R.Y.I.P.g.f.r.d.f.q.S.F.pXpXpXpXpXpXpXpXpXpXpXpXpXpXpXpXpXpXpXpXpXpXpXpXpXpXpXpXpXpXpXpXpXpXpX",
"pXpXpXpXpXpXpX8X7XoX].}.T.T.~.~.Q.^.T.K.P.Y.I.I.I.P.I.P.H.g.h.9.q.0.0.pXpXpXpXpXpXpXpXpXpXpXpXpXpXpXpXpXpXpXpXpXpXpXpXpXpXpXpXpXpXpXpXpXpXpXpXpX",
"pXpXpXpXpXpXpX0X8XwX@X[.g.I.T.T.R.R.T.U.T.Y.n.x.I.H.x.x.h.h.0.0.pXpXpXpXpXpXpXpXpXpXpXpXpXpXpXpXpXpXpXpXpXpXpXpXpXpXpXpXpXpXpXpXpXpXpXpXpXpXpXpX",
"pXpXpXpXpXpXpX0X7XwX8X}.+X!.!.!.~.U.U.J.J.K.S.q.h.S.S.S.A.A.pXpXpXpXpXpXpXpXpXpXpXpXpXpXpXpXpXpXpXpXpXpXpXpXpXpXpXpXpXpXpXpXpXpXpXpXpXpXpXpXpXpX",
"pXpXpXpXpXpXpXpXpX7X6XOX<X~.>X:X~.Q.W.F.A.l.Z.Z.0.A.A.pXpXpXpXpXpXpXpXpXpXpXpXpXpXpXpXpXpXpXpXpXpXpXpXpXpXpXpXpXpXpXpXpXpXpXpXpXpXpXpXpXpXpXpXpX",
"pXpXpXpXpXpXpXpXpXpX2X<XpXpXpXpXpXpXpXpXpXpXpXpXpXpXpXpXpXpXpXpXpXpXpXpXpXpXpXpXpXpXpXpXpXpXpXpXpXpXpXpXpXpXpXpXpXpXpXpXpXpXpXpXpXpXpXpXpXpXpXpX",
"pXpXpXpXpXpXpXpXpXpXpXpXpXpXpXpXpXpXpXpXpXpXpXpXpXpXpXpXpXpXpXpXpXpXpXpXpXpXpXpXpXpXpXpXpXpXpXpXpXpXpXpXpXpXpXpXpXpXpXpXpXpXpXpXpXpXpXpXpXpXpXpX",
"pXpXpXpXpXpXpXpXpXpXpXpXpXpXpXpXpXpXpXpXpXpXpXpXpXpXpXpXpXpXpXpXpXpXpXpXpXpXpXpXpXpXpXpXpXpXpXpXpXpXpXpXpXpXpXpXpXpXpXpXpXpXpXpXpXpXpXpXpXpXpXpX",
"pXpXpXpXpXpXpXpXpXpXpXpXpXpXpXpXpXpXpXpXpXpXpXpXpXpXpXpXpXpXpXpXpXpXpXpXpXpXpXpXpXpXpXpXpXpXpXpXpXpXpXpXpXpXpXpXpXpXpXpXpXpXpXpXpXpXpXpXpXpXpXpX",
"pXpXpXpXpXpXpXpXpXpXpXpXpXpXpXpXpXpXpXpXpXpXpXpXpXpXpXpXpXpXpXpXpXpXpXpXpXpXpXpXpXpXpXpXpXpXpXpXpXpXpXpXpXpXpXpXpXpXpXpXpXpXpXpXpXpXpXpXpXpXpXpX",
"pXpXpXpXpXpXpXpXpXpXpXpXpXpXpXpXpXpXpXpXpXpXpXpXpXpXpXpXpXpXpXpXpXpXpXpXpXpXpXpXpXpXpXpXpXpXpXpXpXpXpXpXpXpXpXpXpXpXpXpXpXpXpXpXpXpXpXpXpXpXpXpX",
"pXpXpXpXpXpXpXpXpXpXpXpXpXpXpXpXpXpXpXpXpXpXpXpXpXpXpXpXpXpXpXpXpXpXpXpXpXpXpXpXpXpXpXpXpXpXpXpXpXpXpXpXpXpXpXpXpXpXpXpXpXpXpXpXpXpXpXpXpXpXpXpX",
"pXpXpXpXpXpXpXpXpXpXpXpXpXpXpXpXpXpXpXpXpXpXpXpXpXpXpXpXpXpXpXpXpXpXpXpXpXpXpXpXpXpXpXpXpXpXpXpXpXpXpXpXpXpXpXpXpXpXpXpXpXpXpXpXpXpXpXpXpXpXpXpX",
"pXpXpXpXpXpXpXpXpXpXpXpXpXpXpXpXpXpXpXpXpXpXpXpXpXpXpXpXpXpXpXpXpXpXpXpXpXpXpXpXpXpXpXpXpXpXpXpXpXpXpXpXpXpXpXpXpXpXpXpXpXpXpXpXpXpXpXpXpXpXpXpX",
"pXpXpXpXpXpXpXpXpXpXpXpXpXpXpXpXpXpXpXpXpXpXpXpXpXpXpXpXpXpXpXpXpXpXpXpXpXpXpXpXpXpXpXpXpXpXpXpXpXpXpXpXpXpXpXpXpXpXpXpXpXpXpXpXpXpXpXpXpXpXpXpX",
"pXpXpXpXpXpXpXpXpXpXpXpXpXpXpXpXpXpXpXpXpXpXpXpXpXpXpXpXpXpXpXpXpXpXpXpXpXpXpXpXpXpXpXpXpXpXpXpXpXpXpXpXpXpXpXpXpXpXpXpXpXpXpXpXpXpXpXpXpXpXpXpX",
"pXpXpXpXpXpXpXpXpXpXpXpXpXpXpXpXpXpXpXpXpXpXpXpXpXpXpXpXpXpXpXpXpXpXpXpXpXpXpXpXpXpXpXpXpXpXpXpXpXpXpXpXpXpXpXpXpXpXpXpXpXpXpXpXpXpXpXpXpXpXpXpX",
"pXpXpXpXpXpXpXpXpXpXpXpXpXpXpXpXpXpXpXpXpXpXpXpXpXpXpXpXpXpXpXpXpXpXpXpXpXpXpXpXpXpXpXpXpXpXpXpXpXpXpXpXpXpXpXpXpXpXpXpXpXpXpXpXpXpXpXpXpXpXpXpX",
"pXpXpXpXpXpXpXpXpXpXpXpXpXpXpXpXpXpXpXpXpXpXpXpXpXpXpXpXpXpXpXpXpXpXpXpXpXpXpXpXpXpXpXpXpXpXpXpXpXpXpXpXpXpXpXpXpXpXpXpXpXpXpXpXpXpXpXpXpXpXpXpX",
"pXpXpXpXpXpXpXpXpXpXpXpXpXpXpXpXpXpXpXpXpXpXpXpXpXpXpXpXpXpXpXpXpXpXpXpXpXpXpXpXpXpXpXpXpXpXpXpXpXpXpXpXpXpXpXpXpXpXpXpXpXpXpXpXpXpXpXpXpXpXpXpX",
"pXpXpXpXpXpXpXpXpXpXpXpXpXpXpXpXpXpXpXpXpXpXpXpXpXpXpXpXpXpXpXpXpXpXpXpXpXpXpXpXpXpXpXpXpXpXpXpXpXpXpXpXpXpXpXpXpXpXpXpXpXpXpXpXpXpXpXpXpXpXpXpX",
"pXpXpXpXpXpXpXpXpXpXpXpXpXpXpXpXpXpXpXpXpXpXpXpXpXpXpXpXpXpXpXpXpXpXpXpXpXpXpXpXpXpXpXpXpXpXpXpXpXpXpXpXpXpXpXpXpXpXpXpXpXpXpXpXpXpXpXpXpXpXpXpX",
"pXpXpXpXpXpXpXpXpXpXpXpXpXpXpXpXpXpXpXpXpXpXpXpXpXpXpXpXpXpXpXpXpXpXpXpXpXpXpXpXpXpXpXpXpXpXpXpXpXpXpXpXpXpXpXpXpXpXpXpXpXpXpXpXpXpXpXpXpXpXpXpX"
};
