/* XPM */
static char *_05[] = {
/* columns rows colors chars-per-pixel */
"32 32 136 2 ",
"   c #3F0F00",
".  c #242424",
"X  c #2B2A2A",
"o  c gray19",
"O  c #3E3E3E",
"+  c #551500",
"@  c #5C1A03",
"#  c #631B02",
"$  c #6C1D01",
"%  c #741F02",
"&  c #5C2D1C",
"*  c #7E2404",
"=  c #7C3C26",
"-  c #793F2B",
";  c #6B4436",
":  c #704A3C",
">  c #454545",
",  c #4C4C4C",
"<  c #554C49",
"1  c #525252",
"2  c #5C5C5C",
"3  c #5D6061",
"4  c #666666",
"5  c #666868",
"6  c #6B6B6B",
"7  c #737373",
"8  c #7A7A7A",
"9  c #822302",
"0  c #8F2905",
"q  c #962A05",
"w  c #992B05",
"e  c #942E0B",
"r  c #973615",
"t  c #9C3D1C",
"y  c #A32E06",
"u  c #AE3106",
"i  c #AE370E",
"p  c #BE3607",
"a  c #B53A0F",
"s  c #BD380B",
"d  c #A73711",
"f  c #AD3911",
"g  c #A43C19",
"h  c #B33F17",
"j  c #B93F14",
"k  c #963E20",
"l  c #CC3A07",
"z  c #C53C0D",
"x  c #D13A06",
"c  c #D53D08",
"v  c #E13E05",
"b  c #E83D02",
"n  c #8A4128",
"m  c #90482F",
"M  c #814E3C",
"N  c #8B4D38",
"B  c #994D32",
"V  c #A64321",
"C  c #E64006",
"Z  c #EE4105",
"A  c #E54108",
"S  c #EB4208",
"D  c #EE4B0B",
"F  c #F54306",
"G  c #FB4607",
"H  c #FF4E07",
"J  c #F34509",
"K  c #FD4709",
"L  c #FF4809",
"P  c #FF5109",
"I  c #FF5A09",
"U  c #E7760F",
"Y  c #FF7007",
"T  c #FF7209",
"R  c #C85B34",
"E  c #C65D39",
"W  c #CE7D26",
"Q  c #815242",
"!  c #8C5643",
"~  c #8A5846",
"^  c #835A4C",
"/  c #8E5B49",
"(  c #915A47",
")  c #876458",
"_  c #8C6658",
"`  c #826B64",
"'  c #926E61",
"]  c #927469",
"[  c #8E7A73",
"{  c #937A71",
"}  c #B17D6B",
"|  c #DA9018",
" . c #FF8709",
".. c #FF8C08",
"X. c #FF9309",
"o. c #FF9D09",
"O. c #F6A407",
"+. c #FAAB06",
"@. c #FFAB09",
"#. c #FFB308",
"$. c #BA8148",
"%. c #8C817C",
"&. c #94827B",
"*. c #9B8279",
"=. c #B88B60",
"-. c #B48C79",
";. c #828282",
":. c #8C8C8C",
">. c #958680",
",. c #998680",
"<. c #9C8E89",
"1. c #9A918E",
"2. c #8F9192",
"3. c #939393",
"4. c #9D9491",
"5. c #9C9C9C",
"6. c #AA8B81",
"7. c #B5978A",
"8. c #A19997",
"9. c #A39D9C",
"0. c #A4A09E",
"q. c #B6A79F",
"w. c #A4A4A4",
"e. c #A8A6A5",
"r. c #ABABAB",
"t. c #B1AFAF",
"y. c #B2B3B3",
"u. c #BAB3B0",
"i. c #B7B9B9",
"p. c #BDBDBD",
"a. c #BCBFC0",
"s. c #C3C4C4",
"d. c #C4C7C8",
"f. c #C7C9CA",
"g. c #CBCBCB",
"h. c None",
/* pixels */
"h.h.h.h.h.h.h.h.h.h.h.h.h.h.h.h.h.h.h.h.h.h.h.h.h.h.h.h.h.h.h.h.",
"h.h.h.h.h.h.h.h.h.h.h.h.h.h.h.h.h.h.h.h.h.h.h.h.h.h.h.h.h.h.h.h.",
"h.h.h.h.h.h.h.h.h.h.h.h.h.h.h.h.h.h.h.h.h.h.h.h.h.h.h.h.h.h.h.h.",
"h.h.h.h.h.h.h.h.h.h.h.h.h.h.h.h.h.h.h.h.h.h.h.h.h.h.h.h.h.h.h.h.",
"h.h.h.h.h.h.h.h.h.h.h.h.h.h.h.h.h.h.h.h.h.h.h.h.h.h.h.h.h.h.h.h.",
"h.h.h.h.h.h.h.# @ h.h.h.h.h.h.h.h.h.h.h.h.h.h.h.h.h.h.h.h.h.h.h.",
"h.h.h.h.q l S S S l ; 2 h.h.h.h.h.h.h.h.h.h.h.h.h.h.h.h.h.h.h.h.",
"h.h.h.u G L L L L j 9.s.3.1 h.h.h.h.h.h.h.h.h.h.h.h.h.h.4 O h.h.",
"h.h.* J L L K L b _ f.g.g.i.;.h.h.h.h.h.h.h.h.h.h.h.2 w.g.r.5 h.",
"h.h.p L K L L K V r.g.g.g.g.g.r.6 h.h.h.h.h.h.h.h.;.p.g.g.<.: X ",
"h.h.c L L L L c { g.g.f.d.g.g.g.g.5.2 h.h.h.h.2 r.g.g.g.,.r + h.",
"h.h.l L L L F B i.y.&./ ~ 9.f.g.g.g.s.:.> X :.s.g.g.d.*.d % h.h.",
"h.h.y L L L z <.f.^ x F Z f _ t.g.g.g.g.y.6 ;.i.g.d.{ i % h.h.h.",
"h.h.# A L S / s.g.] C L L K v t [ p.g.g.g.d.5.7 3.r.- % h.h.h.h.",
"h.h.h.q K h 0.g.g.8.j K L L L G l m 1.d.g.g.g.a.3.8 < h.h.h.h.h.",
"h.h.h.h.w ' f.g.g.s.[ k v K L L L F s ~ e.g.g.f.g.-.z h.h.h.h.h.",
"h.h.h.h.h.7 p.g.g.g.g.y.) f Z L L L L Z k r.g.g.s.E G h.h.h.h.h.",
"h.h.h.h.h.h.2 5.s.g.g.g.f.5.M p G L K L c &.g.g.-.D K L h.h.h.h.",
"h.h.h.h.h.h.h.h.5 r.g.g.g.g.p.%.n x G L b ^ g.u.W Y K L h.h.h.h.",
"h.h.h.h.h.h.h.h.h.h.8 y.g.g.g.g.t.` t g N &.f.=.O.X.P K h.h.h.h.",
"h.h.h.h.h.h.h.h.h.h.h., 2.p.g.g.g.f.r.r.a.g.e.| #.@.T L L h.h.h.",
"h.h.h.h.h.h.h.h.h.h.h.h.h.2 9.g.g.g.g.g.g.s.$.+.#.@.o.I K h.h.h.",
"h.h.h.h.h.h.h.h.h.h.h.h.h.h.. 5 r.g.g.g.g.7.U ..X.X. .I K h.h.h.",
"h.h.h.h.h.h.h.h.h.h.h.h.h.h.h.:.8 ;.i.g.p.R H H H P P L L h.h.h.",
"h.h.h.h.h.h.h.h.h.h.h.h.h.h.h.r.g.5.7 3.} J K L L L K h.h.h.h.h.",
"h.h.h.h.h.h.h.h.h.h.h.h.h.h.h.y.g.g.e.5 r L h.h.h.h.h.h.h.h.h.h.",
"h.h.h.h.h.h.h.h.h.h.h.h.h.h.h.i.g.s.Q & h.h.h.h.h.h.h.h.h.h.h.h.",
"h.h.h.h.h.h.h.h.h.h.h.h.h.h.> i.g.t.t $ h.h.h.h.h.h.h.h.h.h.h.h.",
"h.h.h.h.h.h.h.h.h.h.h.h.h.h., p.g.4.e h.h.h.h.h.h.h.h.h.h.h.h.h.",
"h.h.h.h.h.h.h.h.h.h.h.h.h.h.1 s.g.{ 9 h.h.h.h.h.h.h.h.h.h.h.h.h.",
"h.h.h.h.h.h.h.h.h.h.h.h.h.h.2 d.s.Q # h.h.h.h.h.h.h.h.h.h.h.h.h.",
"h.h.h.h.h.h.h.h.h.h.h.h.h.h.X 3.i.- + h.h.h.h.h.h.h.h.h.h.h.h.h."
};
