/* XPM */
static char *_1[] = {
/* columns rows colors chars-per-pixel */
"72 72 222 2 ",
"   c #001E19",
".  c #162F17",
"X  c #0D1B2C",
"o  c #061B2E",
"O  c #121C2E",
"+  c #181F2E",
"@  c #0E1B33",
"#  c #0E1E3C",
"$  c #0B1732",
"%  c #101E3B",
"&  c #111D33",
"*  c #0C202A",
"=  c #19272B",
"-  c #0D2135",
";  c #132235",
":  c #1A2533",
">  c #13223C",
",  c #1A273A",
"<  c #1B2A3C",
"1  c #1C2934",
"2  c #193336",
"3  c #1A343A",
"4  c #143633",
"5  c #083639",
"6  c #242B39",
"7  c #212936",
"8  c #26313C",
"9  c #2C333B",
"0  c #283835",
"q  c #333633",
"w  c #3C3C3C",
"e  c #373A38",
"r  c #2A302B",
"t  c #433C3C",
"y  c #423B36",
"u  c #2A4A39",
"i  c #28453A",
"p  c #3B483D",
"a  c #424C3C",
"s  c #49443A",
"d  c #0F1E41",
"f  c #101F42",
"g  c #0E2243",
"h  c #0F2549",
"j  c #122244",
"k  c #152843",
"l  c #1C2C43",
"z  c #14254C",
"x  c #18264D",
"c  c #14294D",
"v  c #1B2B4C",
"b  c #182443",
"n  c #1D3344",
"m  c #1B334C",
"M  c #152653",
"N  c #182654",
"B  c #162955",
"V  c #1A2C54",
"C  c #172759",
"Z  c #16295A",
"A  c #1A2C5B",
"S  c #1B3155",
"D  c #1E315B",
"F  c #232E44",
"G  c #242F49",
"H  c #223245",
"J  c #22344A",
"K  c #26384E",
"L  c #2B3B49",
"P  c #3B3E44",
"I  c #213254",
"U  c #253B54",
"Y  c #2B3D55",
"T  c #22345B",
"R  c #233A5C",
"E  c #293C5B",
"W  c #202F55",
"Q  c #1D2F61",
"!  c #1E3161",
"~  c #213462",
"^  c #293E62",
"/  c #483D43",
"(  c #094D48",
")  c #3B4345",
"_  c #384947",
"`  c #3D524C",
"'  c #37504E",
"]  c #2A435C",
"[  c #2A4055",
"{  c #334452",
"}  c #32445B",
"|  c #3A4B5A",
" . c #2A4643",
".. c #2C4463",
"X. c #2D4767",
"o. c #324B6B",
"O. c #364964",
"+. c #3A526B",
"@. c #334D72",
"#. c #3A5474",
"$. c #375173",
"%. c #3C6369",
"&. c #424344",
"*. c #494341",
"=. c #464B49",
"-. c #4B4A4A",
";. c #494C46",
":. c #534643",
">. c #534942",
",. c #554E4B",
"<. c #5B4D48",
"1. c #485349",
"2. c #5C5244",
"3. c #51544A",
"4. c #58584A",
"5. c #4A4D53",
"6. c #4B5654",
"7. c #4C5B56",
"8. c #495A58",
"9. c #5B5754",
"0. c #545C5C",
"q. c #585A56",
"w. c #504E54",
"e. c #614E43",
"r. c #614E4B",
"t. c #64534A",
"y. c #6B5549",
"u. c #6C5B4C",
"i. c #635547",
"p. c #755C4C",
"a. c #795C4B",
"s. c #705549",
"d. c #625651",
"f. c #655A54",
"g. c #6A5C55",
"h. c #635C5B",
"j. c #755D50",
"k. c #5B625C",
"l. c #536159",
"z. c #75614E",
"x. c #6C635C",
"c. c #666558",
"v. c #746454",
"b. c #7C6453",
"n. c #73645A",
"m. c #75695D",
"M. c #7B6B5B",
"N. c #7D6856",
"B. c #67604D",
"V. c #41536B",
"C. c #445465",
"Z. c #4B6563",
"A. c #536465",
"S. c #5A6464",
"D. c #5A6867",
"F. c #556F70",
"G. c #4F7174",
"H. c #6D6762",
"J. c #656A63",
"K. c #6B6C63",
"L. c #636563",
"P. c #746C62",
"I. c #786E63",
"U. c #6C7269",
"Y. c #7A7265",
"T. c #73736C",
"R. c #7A756B",
"E. c #79766A",
"W. c #6C7976",
"Q. c #6C7875",
"!. c #7B7A73",
"~. c #747D7A",
"^. c #747773",
"/. c #846956",
"(. c #846C59",
"). c #8B6B5B",
"_. c #856555",
"`. c #8B715E",
"'. c #916D60",
"]. c #82796A",
"[. c #887567",
"{. c #977866",
"}. c #867D72",
"|. c #A67C68",
" X c #7A817C",
".X c #6E817E",
"XX c #91816D",
"oX c #8B8373",
"OX c #83837B",
"+X c #888377",
"@X c #968978",
"#X c #8E826E",
"$X c #A8826B",
"%X c #A78C78",
"&X c #A79179",
"*X c #395781",
"=X c #3E6193",
"-X c #697C82",
";X c #406CAB",
":X c #6C8384",
">X c #6C8A8C",
",X c #698689",
"<X c #7A8885",
"1X c #778F91",
"2X c #7B9297",
"3X c #75AFB8",
"4X c #858E8A",
"5X c #858983",
"6X c #8A928B",
"7X c #95928A",
"8X c #999288",
"9X c #899592",
"0X c #8B9895",
"qX c #969F9C",
"wX c #A59887",
"eX c #A28F80",
"rX c #AAA599",
"tX c #B7AD9E",
"yX c #95ACAB",
"uX c #B3B9B1",
"iX c #C2BCB2",
"pX c None",
/* pixels */
"pXpXpXpXpXpXpXpXpXpXpXpXpXpXpXpXpXpXpXpXpXpXpXpXpXpXpXpXpXpXpXpXpXpXpXpXpXpXpXpXpXpXpXpXpXpXpXpXpXpXpXpXpXpXpXpXpXpXpXpXpXpXpXpXpXpXpXpXpXpXpXpX",
"pXpXpXpXpXpXpXpXpXpXpXpXpXpXpXpXpXpXpXpXpXpXpXpXpXpXpXpXpXpXpXpXpXpXpXpXpXpXpXpXpXpXpXpXpXpXpXpXpXpXpXpXpXpXpXpXpXpXpXpXpXpXpXpXpXpXpXpXpXpXpXpX",
"pXpXpXpXpXpXpXpXpXpXpXpXpXpXpXpXpXpXpXpXpXpXpXpXpXpXpXpXpXpXpXpXpXpXpXpXpXpXpXpXpXpXpXpXpXpXpXpXpXpXpXpXpXpXpXpXpXpXpXpXpXpXpXpXpXpXpXpXpXpXpXpX",
"pXpXpXpXpXpXpXpXpXpXpXpXpXpXpXpXpXpXpXpXpXpXpXpXpXpXpXpXpXpXpXpXpXpXpXpXpXpXpXpXpXpXpXpXpXpXpXpXpXpXpXpXpXpXpXpXpXpXpXpXpXpXpXpXpXpXpXpXpXpXpXpX",
"pXpXpXpXpXpXpXpXpXpXpXpXpXpXpXpXpXpXpXpXpXpXpXpXpXpXpXpXpXpXpXpXpXpXpXpXpXpXpXpXpXpXpXpXpXpXpXpXpXpXpXpXpXpXpXpXpXpXpXpXpXpXpXpXpXpXpXpXpXpXpXpX",
"pXpXpXpXpXpXpXpXpXpXpXpXpXpXpXpXpXpXpXpXpXpXpXpXpXpXpXpXpXpXpXpXpXpXpXpXpXpXpXpXpXpXpXpXpXpXpXpXpXpXpXpXpXpXpXpXpXpXpXpXpXpXpXpXpXpXpXpXpXpXpXpX",
"pXpXpXpXpXpXpXpXpXpXpXpXpXpXpXpXpXpXpXpXpXpXpXpXpXpXpXpXpXpXpXpXpXpXpXpXpXpXpXpXpXpXpXpXpXpXpXpXpXpXpXpXpXpXpXpXpXpXpXpXpXpXpXpXpXpXpXpXpXpXpXpX",
"pXpXpXpXpXpXpXpXpXpXpXpXpXpXpXpXpXpXpXpXpXpXpXpXpXpXpXpXpXpXpXpXpXpXpXpXpXpXpXpXpXpXpXpXpXpXpXpXpXpXpXpXpXpXpXpXpXpXpXpXpXpXpXpXpXpXpXpXpXpXpXpX",
"pXpXpXpXpXpXpXpXpXpXpXpXpXpXpXpXpXpXpXpXpXpXpXpXpXpXpXpXpXpXpXpXpXpXpXpXpXpXpXpXpXpXpXpXpXpXpXpXpXpXpXpXpXpXpXpXpXpXpXpXpXpXpXpXpXpXpXpXpXpXpXpX",
"pXpXpXpXpXpXpXpXpXpXpXpXpXpXpXpXpXpXpXpXpXpXpXpXpXpXpXpXpXpXpXpXpXpXpXpXpXpXpXpXpXpXpXpXpXpXpXpXpXpXpXpXpXpXpXpXpXpXpXpXpXpXpXpXpXpXpXpXpXpXpXpX",
"pXpXpXpXpXpXpXpXpXpXpXpXpXpXpXpXpXpXpXpXpXpXpXpXpXpXpXpXpXpXpXpXpXpXpXpXpXpXpXpXpXpXpXpXpXpXpXpXpXpXpXpXpXpXpXpXpXpXpXpXpXpXpXpXpXpXpXpXpXpXpXpX",
"pXpXpXpXpXpXpXpXpXpXpXpXpXpXpXpXpXpXpXpXpXpXpXpXpXpXpXpXpXpXpXpXpXpXpXpXpXpXpXpXpXpXpXpXpXpXpXpXpXpXpXpXpXpXpXpXpXpXpXpXpXpXpXpXpXpXpXpXpXpXpXpX",
"pXpXpXpXpXpXpXpXpXpXpXpXpXpXpXpXpXpXpXpXpXpXpXpXpXpXpXpXpXpXpXpXpXpXpXpXpXpXpXpXpXpXpXpXpXpXpXpXpXpXpXpXpXpXpXpXpXpXpXpXpXpXpXpXpXpXpXpXpXpXpXpX",
"pXpXpXpXpXpXpXpXpXpXpXpXpXpXpXpXpXpXpXpXpXpXpXpXpXpXpXpXpXpXpXpXpXpXpXpXpXpXpXpXpXpXpXpXpXpXpXpXpXpXpXpXpXpXpXpXpXpXpXpXpXpXpXpXpXpXpXpXpXpXpXpX",
"pXpXpXpXpXpXpXpXpXpXpXpXpXpXpXpXpXpXpXpXpXpXpXpXpXpXpXpXpXpXpXpXpXpXpXpXpXpXpXpXpXpXpXpXpXpXpXpXpXpXpXpXpXpXpXpXpXpXpXpXpXpXpXpXpXpXpXpXpXpXpXpX",
"pXpXpXpXpXpXpXpXpXpXpXpXpXpXpXpXpXpXpXpXpXpXpXpXpXpXpXpXpXpXpXpXpXpXpXpXpXpXpXpXpXpXpXpXpXpXpXpXpXpXpXpXpXpXpXpXpXpXpXpXpXpXpXpXpXpXpXpXpXpXpXpX",
"pXpXpXpXpXpXpXpXpXpXpXpXpXpXpXpXpXpXpXpXpXpXpXpXpXpXpXpXpXpXpXpXpXpXpXpXpXpXpXpXpXpXpXpXpXpXpXpXpXpXpXpXpXpXpXpXpXpXpXpXpXpXpXpXpXpXpXpXpXpXpXpX",
"pXpXpXpXpXpXpXpXpXpXpXpXpXpXpXpXpXpXpXpXpXpXpXpXpXpXpXpXpXpXpXpXpXpXpXpXpXpXpXpXpXpXpXpXpXpXpXpXpXpXpXpXpXpXpXpXpXpXpXpX<X2XpXpXpXpXpXpXpXpXpXpX",
"pXpXpXpXpXpXpXpXpXpXpXpXpXpXpXpXpXpXpXpXpXpXpXpXpXpXpXpXpXpXpXpXpXpXpXpXpXpXpXpXpXpXpXpXpXA.A.0.Z.Z.0.A.F.W.Q.~.:X>X X<XOX4X6XpXpXpXpXpXpXpXpXpX",
"pXpXpXpXpXpXpXpXpXpXpXpXpXpXpXpXpXpXpXpXpXpXpXpXpXpXpXpXpXpXpXpXpXpXpXpXpXpXpXpXpXpXA.S.S.D.S.h.k.k.J.J.D.U.U.!.!.!. X+X}.8XwX8X0XpXpXpXpXpXpXpX",
"pXpXpXpXpXpXpXpXpXpXpXpXpXpXpXpXpXpXpXpXpXpXpXpXpXpXpXpXpXpXpXpXpXpXpXpXpXpXpXpX0.0.q.L.x.x.H.P.x.m.Y.T.T.P.T.R.T.T.I.g.[.@XwX7X0XpXpXpXpXpXpXpX",
"pXpXpXpXpXpXpXpXpXpXpXpXpXpXpXpXpXpXpXpXpXpXpXpXpXpXpXpXpXpXpXpXpXpXpXpXpX0.0.0.9.h.g.H.P.P.P.Y.I.I.Y.m.K.T.^.^.~.^.T.T.}.].+X7X8XpXpXpXpXpXpXpX",
"pXpXpXpXpXpXpXpXpXpXpXpXpXpXpXpXpXpXpXpXpXpXpXpXpXpXpXpXpXpXpXpXpXpXpXD.S.q.d.d.r.f.g.P.I.Y.R.R.E.E.U.Q.W.-X:X>X>X:X~.<X}.H.!.6XpXpXpXpXpXpXpXpX",
"pXpXpXpXpXpXpXpXpXpXpXpXpXpXpXpXpXpXpXpXpXpXpXpXpXpXpXpXpXpXpXpXC.S.S.L.g.f.d.d.j.n.n.P.R.R.!.]. X XW.,X,X,XpXpXpXpXpX>XW.Q.5X9XpXpXpXpXpXpXpXpX",
"pXpXpXpXpXpXpXpXpXpXpXpXpXpXpXpXpXpXpXpXpXpXpXpXpXpXpXpXpXpX* 8 5.S.h.h.f.g.g.g.x.x.H.T.^.!.pXpXpXpXpXpXpXpXpXpXpXpXpXpX:X:XpXpXpXpXpXpXpXpXpXpX",
"pXpXpXpXpXpXpXpXpXpXpXpXpXpXpXpXpXpXpXpXpXpXpXpXpXpXpXpXpXpXX 7 &.9.9.d.g.g.f.f.x.x.J.pXpXpXpXpXpXpXpXpXpXpXpXpXpXpXpXpXpXpXpXpXpX1X0XpXpXpXpXpX",
"pXpXpXpXpXpXpXpXpXpXpXpXpXpXpXpXpXpXpXpXpXpXpXpXpXpXpXpX5 - O 8 P -.,.<.d.h.h.h.D.F.pXpXpXpXpXpXpXpXpXpXpXpXpXpXpXpXpXpXpXpXpX<X~.9XrXtXuXpXpXpX",
"pXpXpXpXpXpXpXpXpXpXpXpXpXpXpXpXpXpXpXpXpXpXpXpXpXpXpXpXo o X O , 6 9 P / &.w.S.G.pXpXpXpXpXr p _ 5.Z.pXpXpXpXpXpXpXpXpXpXpX4X^.!.7XrXtXiXpXpXpX",
"pXpXpXpXpXpXpXpXpXpXpXpXpXpXpXpXpXpXpXpXpXpXpXpXpXpXpXo $ $ X X X O O : + < { pXpXpXpXpX/ q 0 9 P =.6.k.pXpXpXpXpXpXpXpXpXpX6XT.@X&XeXtXiXpXpXpX",
"pXpXpXpXpXpXpXpXpXpXpXpXpXpXpXpXpXpXpXpXpXpXpX<XpXg g d # # # @ X & $ $ ; v pXpXpXpX8._ &.e P -.=.=.4.J.^.-XpXpXpXpXpXpXpXyX5XE.+X&X&XrXpXpXpXpX",
"pXpXpXpXpXpXpXpXpXpXpXpXpXpXpXpXpXpXpXpX..] ..[ h h B h z g d > > % > > b m pXpXpXpX_ ) / :.4.d.,.*.u.).'.}.pXpXpXpXpXpXuXqXOXR.#X&X%XwXpXpXpXpX",
"pXpXpXpXpXpXpXpXpXpXpXpXpXpXpXpXpXpXX...R S c c B Z B B M c z g g j > , k [ +.7.6.&.e w &.,.f.g.r.:.b.{.{.[.].pXpXpXpXpXyX4X+X@X&X$X].U.pXpXpXpX",
"pXpXpXpXpXpXpXpXpXpXpXpXpX+.pX] | ..D Z B Z Z Z Z Z B B S B B z j h g ; > L =._ w q q t *.>.e.e.i.y.).|.|.(.<XpXpXpX,X1X1X#X#X@X@XE.l.pXpXpXpXpX",
"pXpXpXpXpXpXpXpXpXpX..o.o.^ U D D Z B Z Z Z Z B B B Z Z Z Z B M j g j > ; 9 / P q q w s :.r.e.a./.p.'.|.$X+X3XpXpX%.Z.U.+X#XXXE.K.k.pXpXpXpXpXpX",
"pXpXpXpXpXpXpXpXc h D D A Z Z Z Z Z Z C Z C B B B B Z Z D Z V z g d d # 7 &.-.w y e s y.y.s.s.)._.e._.|.XXM.pXpX'  .7.].oXE.c.c.pXpXpXpXpXpXpXpX",
"pXpXpX[ ] ....^ B B B B Z Z Z Z Z Z Z C C Z Z M Z Z Z A A B N M z g > > 9 ,.r./ t y :.s.s._._.'._.t.j.{.c.pXpXpX7.` q.M.Y.1.. pXpXpXpXpXpXpXpXpX",
"l m m n m T ^ A h z B B B Z Z Z Z Z Q Z A C C z B A Z C N Z Z C z b % b G w.y.<.t y t s.a.z.).).b.r.y.4._ 8.k.K.c.s a 3.a pXpXpXpXpXpXpXpXpXpXpX",
"n v v l m T ~ C h z B B Z Z Z Z Q Z Z Q A Z A C B V Z M V A A N v b f f l / t.t.:.s t >.y.p.N.p.s q i u l.K. X`.Y.4.p _ pXpXpXpXpXpXpXpXpXpXpXpX",
"n n n l l v V M h M B Z M Z Z Z Q Z Q Q A A Z B M Z Z M Z A Z N N b f f f b / <.3.&.) p >.i.2.a r   4 ` K.E.].(.(.B.1.pXpXpXpXpXpXpXpXpXpXpXpXpX",
"n H c l l c z z M B M M M C Z A Z Q Q Q Q C C N C A A C A A A Z C M f f f # 7 L ) ) _ pXZ.3.pXpXpX) l.K.Y.Y./.(.v.4.` pXpXpXpXpXpXpXpXpXpXpXpXpX",
"J G l l < b x N Z V j z C M Z Z Z Z Q Q Q M C Z C T A V A A A A Z N v b j > > j l m pXpX` =.k.k.k.c.P.(./.(.(.N.B.pXpXpXpXpXpXpXpXpXpXpXpXpXpXpX",
"J l < l < j v A S B g z z C Z B Z Q ! ! C C Z Z A T A C C A A A A Z v k d # > # # >  .6.l.D.J.I.m.M.N./.(.(.N.4.pXpXpXpXpXpXpXpXpXpXpXpXpXpXpXpX",
"J < < < l j z A Z z j j z M B C Z Q Z D C C Q Q Z A A A A A T ~ T D N k j # % $ & 8 w.J.K.P.m.v.v.N././.(.v.4.pXpXpXpXpXpXpXpXpXpXpXpXpXpXpXpXpX",
"l ; l l n l v v B C M j M C C M Z Z Z Z C A A ! Z A ! A A ~ ~ ~ ~ A M k > @ # X 1 w.x.P.m.n.z.z.z.N.(.N.B.e.a pXpXpXpXpXpXpXpXpXpXpXpXpXpXpXpXpX",
"; & < H H G x x N N j z c c C M B B A Z B A ! ! A A Q A D ! ~ ~ ~ A c > @ @ X : -.H.n.x.n.p.z.p.z.(.M.l.1.pXpXpXpXpXpXpXpXpXpXpXpXpXpXpXpXpXpXpX",
"; , < F H H v z f M f N x x B z z B B V A V A D ~ ! ~ Q D ! ~ ~ A B b - X X O ) H.P./.N.N.b.z.u.s s p u pXpXpXpXpXpXpXpXpXpXpXpXpXpXpXpXpXpXpXpX",
"< < , 3 n K W x x x b x x z c z c c V V A T V A A T D D D D D D V k > X X X 1 9.P.m./.(./.z.4.a u u pXpXpXpXpXpXpXpXpXpXpXpXpXpXpXpXpXpXpXpXpXpX",
"< < , F K } K x f z N z x N M x c c B V V V A A A V A S T D D V c < - X X X e 9.v.u.v.m.q._ u u pXpXpXpXpXpXpXpXpXpXpXpXpXpXpXpXpXpXpXpXpXpXpXpX",
", 6 L } O.O.} I G z v z z z z x x v N V V V S V V V V D U S S m l , ; * * * 7 ) a a pX( ( pXpXpXpXpXpXpXpXpXpXpXpXpXpXpXpXpXpXpXpXpXpXpXpXpXpXpX",
"{ | C.V.V.V.V...E v W x x x x x x c V V B V V V S D V D S m n n  .8 1 pX= pX  . pXpXpXpXpXpXpXpXpXpXpXpXpXpXpXpXpXpXpXpXpXpXpXpXpXpXpXpXpXpXpXpX",
"V.+.O.K K } } +.O.I W W v v x x c v V B B V S S S m m m n pXpXpXpXpXpXpXpXpXpXpXpXpXpXpXpXpXpXpXpXpXpXpXpXpXpXpXpXpXpXpXpXpXpXpXpXpXpXpXpXpXpXpX",
"[ n < = : , < m Y T I W W V N v B B B V S m S m 3 3 3 pXpXpXpXpXpXpXpXpXpXpXpXpXpXpXpXpXpXpXpXpXpXpXpXpXpXpXpXpXpXpXpXpXpXpXpXpXpXpXpXpXpXpXpXpX",
"1 : : : < , , < l J W V T T W V V V S l m 3 2 3 3 pXpXpXpXpXpXpXpXpXpXpXpXpXpXpXpXpXpXpXpXpXpXpXpXpXpXpXpXpXpXpXpXpXpXpXpXpXpXpXpXpXpXpXpXpXpXpX",
"1 , < 7 6 < n n H L I V W T I D Y Y n 3 2 2 pXpXpXpXpXpXpXpXpXpXpXpXpXpXpXpXpXpXpXpXpXpXpXpXpXpXpXpXpXpXpXpXpXpXpXpXpXpXpXpXpXpXpXpXpXpXpXpXpXpX",
"< 7 6 6 H J J m K [ E W I E E Y 8.8.0 2 pXpXpXpXpXpXpXpXpXpXpXpXpXpXpXpXpXpXpXpXpXpXpXpXpXpXpXpXpXpXpXpXpXpXpXpXpXpXpXpXpXpXpXpXpXpXpXpXpXpXpXpX",
"6 H H K K Y Y [ X.+.o.T T ^ X.{ S.pXpXpXpXpXpXpXpXpXpXpXpXpXpXpXpXpXpXpXpXpXpXpXpXpXpXpXpXpXpXpXpXpXpXpXpXpXpXpXpXpXpXpXpXpXpXpXpXpXpXpXpXpXpXpX",
"J J K Y E ^ X.@.#.#.*Xo.o.#.@.pXpXpXpXpXpXpXpXpXpXpXpXpXpXpXpXpXpXpXpXpXpXpXpXpXpXpXpXpXpXpXpXpXpXpXpXpXpXpXpXpXpXpXpXpXpXpXpXpXpXpXpXpXpXpXpXpX",
"U U E ^ X.@.@.#.#.pX;X=XpXpXpXpXpXpXpXpXpXpXpXpXpXpXpXpXpXpXpXpXpXpXpXpXpXpXpXpXpXpXpXpXpXpXpXpXpXpXpXpXpXpXpXpXpXpXpXpXpXpXpXpXpXpXpXpXpXpXpXpX",
"E ^ o.@.@.#.#.pXpXpXpXpXpXpXpXpXpXpXpXpXpXpXpXpXpXpXpXpXpXpXpXpXpXpXpXpXpXpXpXpXpXpXpXpXpXpXpXpXpXpXpXpXpXpXpXpXpXpXpXpXpXpXpXpXpXpXpXpXpXpXpXpX",
"@.$.#.#.#.pXpXpXpXpXpXpXpXpXpXpXpXpXpXpXpXpXpXpXpXpXpXpXpXpXpXpXpXpXpXpXpXpXpXpXpXpXpXpXpXpXpXpXpXpXpXpXpXpXpXpXpXpXpXpXpXpXpXpXpXpXpXpXpXpXpXpX",
"#.#.pXpXpXpXpXpXpXpXpXpXpXpXpXpXpXpXpXpXpXpXpXpXpXpXpXpXpXpXpXpXpXpXpXpXpXpXpXpXpXpXpXpXpXpXpXpXpXpXpXpXpXpXpXpXpXpXpXpXpXpXpXpXpXpXpXpXpXpXpXpX",
"pXpXpXpXpXpXpXpXpXpXpXpXpXpXpXpXpXpXpXpXpXpXpXpXpXpXpXpXpXpXpXpXpXpXpXpXpXpXpXpXpXpXpXpXpXpXpXpXpXpXpXpXpXpXpXpXpXpXpXpXpXpXpXpXpXpXpXpXpXpXpXpX",
"pXpXpXpXpXpXpXpXpXpXpXpXpXpXpXpXpXpXpXpXpXpXpXpXpXpXpXpXpXpXpXpXpXpXpXpXpXpXpXpXpXpXpXpXpXpXpXpXpXpXpXpXpXpXpXpXpXpXpXpXpXpXpXpXpXpXpXpXpXpXpXpX",
"pXpXpXpXpXpXpXpXpXpXpXpXpXpXpXpXpXpXpXpXpXpXpXpXpXpXpXpXpXpXpXpXpXpXpXpXpXpXpXpXpXpXpXpXpXpXpXpXpXpXpXpXpXpXpXpXpXpXpXpXpXpXpXpXpXpXpXpXpXpXpXpX",
"pXpXpXpXpXpXpXpXpXpXpXpXpXpXpXpXpXpXpXpXpXpXpXpXpXpXpXpXpXpXpXpXpXpXpXpXpXpXpXpXpXpXpXpXpXpXpXpXpXpXpXpXpXpXpXpXpXpXpXpXpXpXpXpXpXpXpXpXpXpXpXpX",
"pXpXpXpXpXpXpXpXpXpXpXpXpXpXpXpXpXpXpXpXpXpXpXpXpXpXpXpXpXpXpXpXpXpXpXpXpXpXpXpXpXpXpXpXpXpXpXpXpXpXpXpXpXpXpXpXpXpXpXpXpXpXpXpXpXpXpXpXpXpXpXpX",
"pXpXpXpXpXpXpXpXpXpXpXpXpXpXpXpXpXpXpXpXpXpXpXpXpXpXpXpXpXpXpXpXpXpXpXpXpXpXpXpXpXpXpXpXpXpXpXpXpXpXpXpXpXpXpXpXpXpXpXpXpXpXpXpXpXpXpXpXpXpXpXpX",
"pXpXpXpXpXpXpXpXpXpXpXpXpXpXpXpXpXpXpXpXpXpXpXpXpXpXpXpXpXpXpXpXpXpXpXpXpXpXpXpXpXpXpXpXpXpXpXpXpXpXpXpXpXpXpXpXpXpXpXpXpXpXpXpXpXpXpXpXpXpXpXpX",
"pXpXpXpXpXpXpXpXpXpXpXpXpXpXpXpXpXpXpXpXpXpXpXpXpXpXpXpXpXpXpXpXpXpXpXpXpXpXpXpXpXpXpXpXpXpXpXpXpXpXpXpXpXpXpXpXpXpXpXpXpXpXpXpXpXpXpXpXpXpXpXpX",
"pXpXpXpXpXpXpXpXpXpXpXpXpXpXpXpXpXpXpXpXpXpXpXpXpXpXpXpXpXpXpXpXpXpXpXpXpXpXpXpXpXpXpXpXpXpXpXpXpXpXpXpXpXpXpXpXpXpXpXpXpXpXpXpXpXpXpXpXpXpXpXpX",
"pXpXpXpXpXpXpXpXpXpXpXpXpXpXpXpXpXpXpXpXpXpXpXpXpXpXpXpXpXpXpXpXpXpXpXpXpXpXpXpXpXpXpXpXpXpXpXpXpXpXpXpXpXpXpXpXpXpXpXpXpXpXpXpXpXpXpXpXpXpXpXpX",
"pXpXpXpXpXpXpXpXpXpXpXpXpXpXpXpXpXpXpXpXpXpXpXpXpXpXpXpXpXpXpXpXpXpXpXpXpXpXpXpXpXpXpXpXpXpXpXpXpXpXpXpXpXpXpXpXpXpXpXpXpXpXpXpXpXpXpXpXpXpXpXpX"
};
