/* XPM */
static char *_79[] = {
/* columns rows colors chars-per-pixel */
"72 72 219 2 ",
"   c #0B2718",
".  c #06192E",
"X  c #0D1B2C",
"o  c #121C2E",
"O  c #0D1C34",
"+  c #0E1D3B",
"@  c #0D1734",
"#  c #101D35",
"$  c #101E3B",
"%  c #0D212A",
"&  c #112328",
"*  c #132234",
"=  c #13223C",
"-  c #1B2A3C",
";  c #1D2734",
":  c #1A343B",
">  c #183435",
",  c #082F38",
"<  c #2C332C",
"1  c #222B37",
"2  c #232B39",
"3  c #2A3335",
"4  c #2B323B",
"5  c #283937",
"6  c #373835",
"7  c #373939",
"8  c #303D2B",
"9  c #433B36",
"0  c #433C3D",
"q  c #36493C",
"w  c #2B4038",
"e  c #48453B",
"r  c #0F1F41",
"t  c #101F42",
"y  c #0F2345",
"u  c #0E2549",
"i  c #122243",
"p  c #162843",
"a  c #1C2D43",
"s  c #15254C",
"d  c #18264D",
"f  c #14294D",
"g  c #1B2C4B",
"h  c #182643",
"j  c #1D3244",
"k  c #1B334C",
"l  c #1D384E",
"z  c #152654",
"x  c #182653",
"c  c #162955",
"v  c #1A2C55",
"b  c #172759",
"n  c #16295A",
"m  c #1A2C5B",
"M  c #1C3253",
"N  c #1D315C",
"B  c #232E44",
"V  c #222C48",
"C  c #223344",
"Z  c #22334B",
"A  c #293649",
"S  c #3A3D44",
"D  c #363B45",
"F  c #202F54",
"G  c #223355",
"H  c #253A52",
"J  c #21335B",
"K  c #243A5C",
"L  c #2A3C5C",
"P  c #2B3D53",
"I  c #1D2F61",
"U  c #1E3161",
"Y  c #213462",
"T  c #273C61",
"R  c #463C42",
"E  c #114F49",
"W  c #2A4946",
"Q  c #3C4243",
"!  c #3A4945",
"~  c #3B4D4A",
"^  c #344844",
"/  c #3C534E",
"(  c #3B5343",
")  c #2C445F",
"_  c #29415A",
"`  c #34465E",
"'  c #384858",
"]  c #2A4161",
"[  c #324A64",
"{  c #3A4C64",
"}  c #304664",
"|  c #3D536D",
" . c #365766",
".. c #344E72",
"X. c #3B5575",
"o. c #375379",
"O. c #434444",
"+. c #4B4442",
"@. c #444A45",
"#. c #494D43",
"$. c #444A4A",
"%. c #524C44",
"&. c #5A4C44",
"*. c #544947",
"=. c #43524B",
"-. c #4C524B",
";. c #415445",
":. c #575748",
">. c #454D56",
",. c #4B5B57",
"<. c #485958",
"1. c #5A5553",
"2. c #535C5C",
"3. c #5D5C5C",
"4. c #585655",
"5. c #514F50",
"6. c #614E4B",
"7. c #614F47",
"8. c #635246",
"9. c #64544C",
"0. c #6C5549",
"q. c #635B4C",
"w. c #6C5D4C",
"e. c #6C5446",
"r. c #765B4C",
"t. c #735748",
"y. c #625954",
"u. c #695C55",
"i. c #635C5B",
"p. c #655A54",
"a. c #765E51",
"s. c #59625B",
"d. c #546154",
"f. c #75624F",
"g. c #6D6454",
"h. c #64645D",
"j. c #6A635D",
"k. c #64665B",
"l. c #746354",
"z. c #7B6452",
"x. c #73665B",
"c. c #72695E",
"v. c #7D6B5B",
"b. c #796855",
"n. c #435769",
"m. c #405679",
"M. c #625F60",
"N. c #4E6460",
"B. c #546364",
"V. c #5A6362",
"C. c #586868",
"Z. c #527175",
"A. c #626A63",
"S. c #6C6C64",
"D. c #6B6963",
"F. c #736C63",
"G. c #776F64",
"H. c #67726D",
"J. c #6D7269",
"K. c #7A7266",
"L. c #73736B",
"P. c #79756A",
"I. c #797468",
"U. c #6B7B7A",
"Y. c #6B7774",
"T. c #7A7670",
"R. c #747A76",
"E. c #7C7A73",
"W. c #727D7A",
"Q. c #727772",
"!. c #836555",
"~. c #826956",
"^. c #886A56",
"/. c #846B59",
"(. c #8C6C5B",
"). c #846559",
"_. c #88705C",
"`. c #827A6D",
"'. c #877768",
"]. c #997666",
"[. c #877E73",
"{. c #936E60",
"}. c #A67B67",
"|. c #79807B",
" X c #8E806C",
".X c #91816D",
"XX c #8D8172",
"oX c #82837B",
"OX c #828076",
"+X c #978976",
"@X c #AC866C",
"#X c #A98D78",
"$X c #A3917C",
"%X c #385781",
"&X c #3F68A2",
"*X c #6C8385",
"=X c #6C878A",
"-X c #698C8B",
";X c #7A8784",
":X c #7A9295",
">X c #738D91",
",X c #6E9AA1",
"<X c #77D2E4",
"1X c #868B86",
"2X c #8A938C",
"3X c #999389",
"4X c #969187",
"5X c #899692",
"6X c #969D9A",
"7X c #938C82",
"8X c #A49787",
"9X c #B09C8C",
"0X c #ACA597",
"qX c #B1A89B",
"wX c #9CB4B6",
"eX c #B2B9AF",
"rX c #C2BCB2",
"tX c #C2BBAF",
"yX c None",
/* pixels */
"yXyXyXyXyXyXyXyXyXyXyXyXyXyXyXyXyXyXyXyXyXyXyXyXyXyXyXyXyXyXyXyXyXyXyXyXyXyXyXyXyXyXyXyXyXyXyXyXyXyXyXyXyXyXyXyXyXyXyXyXyXyXyXyXyXyXyXyXyXyXyXyX",
"yXyXyXyXyXyXyXyXyXyXyXyXyXyXyXyXyXyXyXyXyXyXyXyXyXyXyXyXyXyXyXyXyXyXyXyXyXyXyXyXyXyXyXyXyXyXyXyXyXyXyXyXyXyXyXyXyXyXyXyXyXyXyXyXyXyXyXyXyXyXyXyX",
"yXyXyXyXyXyXyXyXyXyXyXyXyXyXyXyXyXyXyXyXyXyXyXyXyXyXyXyXyXyXyXyXyXyXyXyXyXyXyXyXyXyXyXyXyXyXyXyXyXyXyXyXyXyXyXyXyXyXyXyXyXyXyXyXyXyXyXyXyXyXyXyX",
"yXyXyXyXyXyXyXyXyXyXyXyXyXyXyXyXyXyXyXyXyXyXyXyXyXyXyXyXyXyXyXyXyXyXyXyXyXyXyXyXyXyXyXyXyXyXyXyXyXyXyXyXyXyXyXyXyXyXyXyXyXyXyXyXyXyXyXyXyXyXyXyX",
"yXyXyXyXyXyXyXyXyXyXyXyXyXyXyXyXyXyXyXyXyXyXyXyXyXyXyXyXyXyXyXyXyXyXyXyXyXyXyXyXyXyXyXyXyXyXyXyXyXyXyXyXyXyXyXyXyXyXyXyXyXyXyXyXyXyXyXyXyXyXyXyX",
"yXyXyXyXyXyXyXyXyXyXyXyXyXyXyXyXyXyXyXyXyXyXyXyXyXyXyXyXyXyXyXyXyXyXyXyXyXyXyXyXyXyXyXyXyXyXyXyXyXyXyXyXyXyXyXyXyXyXyXyXyXyXyXyXyXyXyXyXyXyXyXyX",
"yXyXyXyXyXyXyXyXyXyXyXyXyXyXyXyXyXyXyXyXyXyXyXyXyXyXyXyXyXyXyXyXyXyXyXyXyXyXyXyXyXyXyXyXyXyXyXyXyXyXyXyXyXyXyXyXyXyXyXyXyXyXyXyXyXyXyXyXyXyXyXyX",
"yXyXyXyXyXyXyXyXyXyXyXyXyXyXyXyXyXyXyXyXyXyXyXyXyXyXyXyXyXyXyXyXyXyXyXyXyXyXyXyXyXyXyXyXyXyXyXyXyXyXyXyXyXyXyXyXyXyXyXyXyXyXyXyXyXyXyXyXyXyXyXyX",
"yXyXyXyXyXyXyXyXyXyXyXyXyXyXyXyXyXyXyXyXyXyXyXyXyXyXyXyXyXyXyXyXyXyXyXyXyXyXyXyXyXyXyXyXyXyXyXyXyXyXyXyXyXyXyXyXyXyXyXyXyXyXyXyXyXyXyXyXyXyXyXyX",
"yXyXyXyXyXyXyXyXyXyXyXyXyXyXyXyXyXyXyXyXyXyXyXyXyXyXyXyXyXyXyXyXyXyXyXyXyXyXyXyXyXyXyXyXyXyXyXyXyXyXyXyXyXyXyXyXyXyXyXyXyXyXyXyXyXyXyXyXyXyXyXyX",
"yXyXyXyXyXyXyXyXyXyXyXyXyXyXyXyXyXyXyXyXyXyXyXyXyXyXyXyXyXyXyXyXyXyXyXyXyXyXyXyXyXyXyXyXyXyXyXyXyXyXyXyXyXyXyXyXyXyXyXyXyXyXyXyXyXyXyXyXyXyXyXyX",
"yXyXyXyXyXyXyXyXyXyXyXyXyXyXyXyXyXyXyXyXyXyXyXyXyXyXyXyXyXyXyXyXyXyXyXyXyXyXyXyXyXyXyXyXyXyXyXyXyXyXyXyXyXyXyXyXyXyXyXyXyXyXyXyXyXyXyXyXyXyXyXyX",
"yXyXyXyXyXyXyXyXyXyXyXyXyXyXyXyXyXyXyXyXyXyXyXyXyXyXyXyXyXyXyXyXyXyXyXyXyXyXyXyXyXyXyXyXyXyXyXyXyXyXyXyXyXyXyXyXyXyXyXyXyXyXyXyXyXyXyXyXyXyXyXyX",
"yXyXyXyXyXyXyXyXyXyXyXyXyXyXyXyXyXyXyXyXyXyXyXyXyXyXyXyXyXyXyXyXyXyXyXyXyXyXyXyXyXyXyXyXyXyXyXyXyXyXyXyXyXyXyXyXyXyXyXyXyXyXyXyXyXyXyXyXyXyXyXyX",
"yXyXyXyXyXyXyXyXyXyXyXyXyXyXyXyXyXyXyXyXyXyXyXyXyXyXyXyXyXyXyXyXyXyXyXyXyXyXyXyXyXyXyXyXyXyXyXyXyXyXyXyXyXyXyXyXyXyXyXyXyXyXyXyXyXyXyXyXyXyXyXyX",
"yXyXyXyXyXyXyXyXyXyXyXyXyXyXyXyXyXyXyXyXyXyXyXyXyXyXyXyXyXyXyXyXyXyXyXyXyXyXyXyXyXyXyXyXyXyXyXyXyXyXyXyXyXyXyXyXyXyXyXyXyXyXyXyXyXyXyXyXyXyXyXyX",
"yXyXyXyXyXyXyXyXyXyXyXyXyXyXyXyXyXyXyXyXyXyXyXyXyXyXyXyXyXyXyXyXyXyXyXyXyXyXyXyXyXyXyXyXyXyXyXyXyXyXyXyXyXyXyXyXyXyXyXyXyXyXyXyXyXyXyXyXyXyXyXyX",
"yXyXyXyXyXyXyXyXyXyXyXyXyXyXyXyXyXyXyXyXyXyXyXyXyXyXyXyXyXyXyXyXyXyXyXyXyXyXyXyXyXyXyXyXyXyXyXyXyXyXyXyXyXyXyXyXyXyXyXyXyXyXyXyXyXyXyXyXyXyXyXyX",
"yXyXyXyXyXyXyXyXyXyXyXyXyXyXyXyXyXyXyXyXyXyXyXyXyXyXyXyXyXyXyXyXyXyXyXyXyXyXyXyXyXyXyXyXyXyXyXyXyXyXyXyXyXyXyXyXyXyXyXyXyXyXyXyXyXyXyXyXyXyXyXyX",
"yXyXyXyXyXyXyXyXyXyXyXyXyXyXyXyXyXyXyXyXyXyXyXyXyXyXyXyXyXyXyXyXyXyXyXyXyXyXyXyXyXyXyXyXyXyXyXyXyXyXyXyXyXyXyXyXyXyXyXyXyXyXyXyXyXyXyXyXyXyXyXyX",
"yXyXyXyXyXyXyXyXyXyXyXyXyXyXyXyXyXyXyXyXyXyXyXyXyXyXyXyXyXyXyXyXyXyXyXyXyXyXyXyXyXyXyXyXyXyXyXyXyXyXyXyXyXyXyXyXyXyXyXyXyXyXyXyXyXyXyXyXyXyXyXyX",
"yXyXyXyXyXyXyXyXyXyXyXyXyXyXyXyXyXyXyXyXyXyXyXyXyXyXyXyXyXyXyXyXyXyXyXyXyXyXyXyXyXyXyXyXyXyXyXyXyXyXyXyXyXyXyXyXyXyXyXyXyXyXyXyXyXyXyXyXyXyXyXyX",
"k g f a k l H [ yXyXyXyXyXyXyXyXyXyXyXyXyXyXyXyXyXyXyXyXyXyXyXyXyXyXyXyXyXyXyXyXyXyXyXyXyXyXyXyXyXyXyXyXyXyXyXyXyXyXyXyXyXyXyXyXyXyXyXyXyXyXyXyX",
"k k j j g j k M _ ] K f f K  .X.X.yXyXyXyXyXyXyXyXyXyXyXyXyXyXyXyXyXyXX 2 >.C.C.C.C.B.2.2.2.2.2.B.B.C.yXyXyXyXyXyXyXyXyXyXyXyXyXyXyXyXyXyXyXyXyX",
"j j C j a a g J T Y v z c N N T ] P _ ` { [ yXyXyXyXyXyXyXyXyXyX, , X o 4 >.i.i.i.i.y.y.1.4.3.3.M.3.A.V.N.s.yXyXyXyXyXyXyXyXyXyXyXyXyXyXyXyXyXyX",
"a Z Z g a a a F Y b s s z c v n N M J L _ N ] U _ _ N.n.yXyXO . . . X 1 S 5.4.y.i.u.p.p.9.9.p.p.i.D.u.i.V.3.B.B.yXyXyXyXyXyXyXyXyXyXyXyXyXyXyXyX",
"Z Z B B a a a g z s y s z c z z n n m n n n n z n f u u u u y + @ X X * 4 O.5.y.u.u.u.u.u.u.l.x.F.G.G.F.G.j.s.s.V.C.yXyXyXyXyXyXyXyXyXyXyXyXyXyX",
"Z a - a - - s s s s z z c n n n n n n n n n n n n n n n z c u u + O X X o 1 S *.p.u.p.u.j.x.j.c.G.K.G.G.G.G.c.G.J.A.H.Y.yXyXyXyXyXyXyXyXyXyXyXyX",
"a - - - - i s d z n c z c z n n n n n n n n z n n n c n c c c u i r + X o o 1 7 $.1.i.i.M.D.D.L.T.T.P.`.I.G.G.I.L.J.J.J.R.W.=XyXyXyXyXyXyXyXyXyX",
"* # a j a h d c N v i u z z n n n I n I b b n n n c c n c c n f s i = $ # O o o 2 >.V.C.Z.yXyXyXyXyXT.`.[.Q.L.L.F.F.L.P.E.E.W.|.;X;X:XyXyXyXyXyX",
"* - B C a a v m m s u s z z n n m n I n I b n n f n c c n n M n z i y t t $ $ h k yXyXyXyXyXyXyXyXyXyXyXyX;XY.U.U.U.W.Q.L.L.P.[.[.[.4X2XyXyXyXyX",
"- - B C B g d v z u s s z z n n n I I I I b n n u n n n n m n n n s i i = - = g yXyXyXyXyXyXyXyXyXyXyXyXyXyXyX-X=X*X*X=X*XR.J.u.'.7X8X3XyXyXyXyX",
"- - 1 B Z d s d z i u s z n n n b m I I I m m b x m n m c m m c z i y y = = a } yXyXyXyX,.~ O.7 < 6 ! yXyXyXyXyXyXyXyX,X-X*XR.P.[.[.8X3X5XyXyXyX",
"C Z A P G d t x s y s x z z z n I I I I m b z b z c b z x m c z s u r = = + 3 ' ,.,.-.~ ~ S O.7 1 3 Q @.yXyXyXyXyXyXyXyXyXyX;XoXK.P.4X3X5XyXyXyX",
"{ ' } L A x d d r z v s z z z n m m I m b z x x c m m z c m n c f i y + # - 7 Q S S 7 7 S O.+.+.O.Q Q $.,.yXyXyXyXyXyXyXyXyX-XU.S.T.1X4XyXyXyXyX",
"{ n.n.{ L d t d d s s s z s c n b m b b z m m b N m z x m m b x s = = = 2 O.*.O.6 6 6 9 0 O.*.9.1.5.$.#.2.yXyXyXyXyXyXyXyXyXyX=XW.1X5XyXyXyXyXyX",
"- P { | L F s d z d d s z s s c n m b z m m m m Y n c m m m x z V t t t A 1.6.R 9 6 6 0 +.+.&.9.u.&.+.9.x.L.yXyXyXyXyXyXyXyXyXyXyXyXyXyXyXyXyXyX",
"; - j ' n.L g g s s d z g f f g n c n m I I b m m m c m m m n c V t h t D 9.t.+.9 9 R e.&.&.&.8.q.&.&.).(.'.U.yXyXyXyXyXyXyXyXyXyXyXyXyXyXyXyXyX",
"- - ; a ` L F F d d s s s f f v v v N m I I m m m m m m m m m n t t t t A 9.6.R 0 9 7.t.t.e.e.r.z.0.).].].].T.yXyXyXyXyXyXyXyXyX:XW.;X:X5XyXyXyX",
"2 a - - Z J G G d d s d s f g c v m N v I J m I J m m m J m m n x x t t t R 6.&.0 9 e.r.t.!.!.(.z.t.].}.}.{.`.yXyXyXyXyXyXyXyX1XR.J.2X6X0XyXyXyX",
"Z k k j C G v v F g d s d d x v v v M m m J U U m N N Y Y Y J m V h i = $ 3 $.@.Q 0 &.r.f.(.{.(.0.e.].@X.XE.:XyXyXyXyXyXyXwX5XoXP.+X3XqXqXrXyXyX",
"H H l A A H v G J F z g s g v v v v v m m m m U N N U Y Y Y N m s i r t = h A Q ! q e w.z.^.^.a.8.z.].].`.:X<XyXyXyXyXyXwX6XoXP.`.8X#X9XrXrXyXyX",
"] ) ` ] L K v G G G v x c c c x c v v v v v v J N N U Y Y N m f h i $ $ = + h k yXyXd.:.&.%.e e %.q.k.:.yXyXyXyX .Z.-X:X2X1XXX X.X$X$XqXrXyXyXyX",
"....X.X...L G G K J v v v M v v v M v M G m c G J J N U U m f p + O + + O O = Z ! ~ =.! yXyXyX  > q =.( yXyXyX/ ^ d.J.|. X XXX$X#X@X$XqXyXyXyXyX",
"X.X.X.m.%X] J L ] L ' ' H j k k k l k M G N m M N N M v f i = * # o @ O o 1 S 5.s.s.B.2.h.d.~ w W ( A.J.H.c.k.=.;.I..X X'..X+X$X XI.I.yXyXyXyXyX",
"yXyXyXyX&Xo...o.} ' V.,.5 > : : > : j j j k k k k M k g p - O X X X X 1 O.1.D.F.S.S.S.F.F.j.i.j.J.F.I.P.`._.x.e e g.v.J.d.k.A.s.,./ yXyXyXyXyXyX",
"yXyXyXyXyXyXyXyXyXyXyXyXyXyXyXyXyXyXyXyXyX: j j j j j 5 - * % X X o 4 1.S.x.a.D.x.c.l.x.x.b.v.G.v.v./._._.~.g.#.q ;.e w   yXyXyXyXyXyXyXyXyXyXyX",
"yXyXyXyXyXyXyXyXyXyXyXyXyXyXyXyXyXyXyXyXyXyXyXyXyXyXyX^ 1 * % % X 3 1.c.G.~.v.x.l.r.a.r.f.b.~.~._.^._.~.b.l.g.=.^ yXyXyXyXyXyXyXyXyXyXyXyXyXyXyX",
"yXyXyXyXyXyXyXyXyXyXyXyXyXyXyXyXyXyXyXyXyXyXyXyXyXyXyXyXyXyXyX* % 6 :.g.b.v._._.z.z.f.f.f.~._._.^.~.b.f.g.q.-.yXyXyXyXyXyXyXyXyXyXyXyXyXyXyXyXyX",
"yXyXyXyXyXyXyXyXyXyXyXyXyXyXyXyXyXyXyXyXyXyXyXyXyXyXyXyXyXyXyXyXyX  w q :.g.b.b.f.w.e.w.w.g.c.g.w.:.:.:.yXyXyXyXyXyXyXyXyXyXyXyXyXyXyXyXyXyXyXyX",
"yXyXyXyXyXyXyXyXyXyXyXyXyXyXyXyXyXyXyXyXyXyXyXyXyXyXyXyXyXyXyXyXyXyXyXyXyXE E W q q q q q q ( ;.yXe yXyXyXyXyXyXyXyXyXyXyXyXyXyXyXyXyXyXyXyXyXyX",
"yXyXyXyXyXyXyXyXyXyXyXyXyXyXyXyXyXyXyXyXyXyXyXyXyXyXyXyXyXyXyXyXyXyXyXyXyXyXyXyXyXyXyXyXyXyXyXyXyXyXyXyXyXyXyXyXyXyXyXyXyXyXyXyXyXyXyXyXyXyXyXyX",
"yXyXyXyXyXyXyXyXyXyXyXyXyXyXyXyXyXyXyXyXyXyXyXyXyXyXyXyXyXyXyXyXyXyXyXyXyXyXyXyXyXyXyXyXyXyXyXyXyXyXyXyXyXyXyXyXyXyXyXyXyXyXyXyXyXyXyXyXyXyXyXyX",
"yXyXyXyXyXyXyXyXyXyXyXyXyXyXyXyXyXyXyXyXyXyXyXyXyXyXyXyXyXyXyXyXyXyXyXyXyXyXyXyXyXyXyXyXyXyXyXyXyXyXyXyXyXyXyXyXyXyXyXyXyXyXyXyXyXyXyXyXyXyXyXyX",
"yXyXyXyXyXyXyXyXyXyXyXyXyXyXyXyXyXyXyXyXyXyXyXyXyXyXyXyXyXyXyXyXyXyXyXyXyXyXyXyXyXyXyXyXyXyXyXyXyXyXyXyXyXyXyXyXyXyXyXyXyXyXyXyXyXyXyXyXyXyXyXyX",
"yXyXyXyXyXyXyXyXyXyXyXyXyXyXyXyXyXyXyXyXyXyXyXyXyXyXyXyXyXyXyXyXyXyXyXyXyXyXyXyXyXyXyXyXyXyXyXyXyXyXyXyXyXyXyXyXyXyXyXyXyXyXyXyXyXyXyXyXyXyXyXyX",
"yXyXyXyXyXyXyXyXyXyXyXyXyXyXyXyXyXyXyXyXyXyXyXyXyXyXyXyXyXyXyXyXyXyXyXyXyXyXyXyXyXyXyXyXyXyXyXyXyXyXyXyXyXyXyXyXyXyXyXyXyXyXyXyXyXyXyXyXyXyXyXyX",
"yXyXyXyXyXyXyXyXyXyXyXyXyXyXyXyXyXyXyXyXyXyXyXyXyXyXyXyXyXyXyXyXyXyXyXyXyXyXyXyXyXyXyXyXyXyXyXyXyXyXyXyXyXyXyXyXyXyXyXyXyXyXyXyXyXyXyXyXyXyXyXyX",
"yXyXyXyXyXyXyXyXyXyXyXyXyXyXyXyXyXyXyXyXyXyXyXyXyXyXyXyXyXyXyXyXyXyXyXyXyXyXyXyXyXyXyXyXyXyXyXyXyXyXyXyXyXyXyXyXyXyXyXyXyXyXyXyXyXyXyXyXyXyXyXyX",
"yXyXyXyXyXyXyXyXyXyXyXyXyXyXyXyXyXyXyXyXyXyXyXyXyXyXyXyXyXyXyXyXyXyXyXyXyXyXyXyXyXyXyXyXyXyXyXyXyXyXyXyXyXyXyXyXyXyXyXyXyXyXyXyXyXyXyXyXyXyXyXyX",
"yXyXyXyXyXyXyXyXyXyXyXyXyXyXyXyXyXyXyXyXyXyXyXyXyXyXyXyXyXyXyXyXyXyXyXyXyXyXyXyXyXyXyXyXyXyXyXyXyXyXyXyXyXyXyXyXyXyXyXyXyXyXyXyXyXyXyXyXyXyXyXyX",
"yXyXyXyXyXyXyXyXyXyXyXyXyXyXyXyXyXyXyXyXyXyXyXyXyXyXyXyXyXyXyXyXyXyXyXyXyXyXyXyXyXyXyXyXyXyXyXyXyXyXyXyXyXyXyXyXyXyXyXyXyXyXyXyXyXyXyXyXyXyXyXyX",
"yXyXyXyXyXyXyXyXyXyXyXyXyXyXyXyXyXyXyXyXyXyXyXyXyXyXyXyXyXyXyXyXyXyXyXyXyXyXyXyXyXyXyXyXyXyXyXyXyXyXyXyXyXyXyXyXyXyXyXyXyXyXyXyXyXyXyXyXyXyXyXyX",
"yXyXyXyXyXyXyXyXyXyXyXyXyXyXyXyXyXyXyXyXyXyXyXyXyXyXyXyXyXyXyXyXyXyXyXyXyXyXyXyXyXyXyXyXyXyXyXyXyXyXyXyXyXyXyXyXyXyXyXyXyXyXyXyXyXyXyXyXyXyXyXyX",
"yXyXyXyXyXyXyXyXyXyXyXyXyXyXyXyXyXyXyXyXyXyXyXyXyXyXyXyXyXyXyXyXyXyXyXyXyXyXyXyXyXyXyXyXyXyXyXyXyXyXyXyXyXyXyXyXyXyXyXyXyXyXyXyXyXyXyXyXyXyXyXyX",
"yXyXyXyXyXyXyXyXyXyXyXyXyXyXyXyXyXyXyXyXyXyXyXyXyXyXyXyXyXyXyXyXyXyXyXyXyXyXyXyXyXyXyXyXyXyXyXyXyXyXyXyXyXyXyXyXyXyXyXyXyXyXyXyXyXyXyXyXyXyXyXyX",
"yXyXyXyXyXyXyXyXyXyXyXyXyXyXyXyXyXyXyXyXyXyXyXyXyXyXyXyXyXyXyXyXyXyXyXyXyXyXyXyXyXyXyXyXyXyXyXyXyXyXyXyXyXyXyXyXyXyXyXyXyXyXyXyXyXyXyXyXyXyXyXyX",
"yXyXyXyXyXyXyXyXyXyXyXyXyXyXyXyXyXyXyXyXyXyXyXyXyXyXyXyXyXyXyXyXyXyXyXyXyXyXyXyXyXyXyXyXyXyXyXyXyXyXyXyXyXyXyXyXyXyXyXyXyXyXyXyXyXyXyXyXyXyXyXyX",
"yXyXyXyXyXyXyXyXyXyXyXyXyXyXyXyXyXyXyXyXyXyXyXyXyXyXyXyXyXyXyXyXyXyXyXyXyXyXyXyXyXyXyXyXyXyXyXyXyXyXyXyXyXyXyXyXyXyXyXyXyXyXyXyXyXyXyXyXyXyXyXyX",
"yXyXyXyXyXyXyXyXyXyXyXyXyXyXyXyXyXyXyXyXyXyXyXyXyXyXyXyXyXyXyXyXyXyXyXyXyXyXyXyXyXyXyXyXyXyXyXyXyXyXyXyXyXyXyXyXyXyXyXyXyXyXyXyXyXyXyXyXyXyXyXyX",
"yXyXyXyXyXyXyXyXyXyXyXyXyXyXyXyXyXyXyXyXyXyXyXyXyXyXyXyXyXyXyXyXyXyXyXyXyXyXyXyXyXyXyXyXyXyXyXyXyXyXyXyXyXyXyXyXyXyXyXyXyXyXyXyXyXyXyXyXyXyXyXyX",
"yXyXyXyXyXyXyXyXyXyXyXyXyXyXyXyXyXyXyXyXyXyXyXyXyXyXyXyXyXyXyXyXyXyXyXyXyXyXyXyXyXyXyXyXyXyXyXyXyXyXyXyXyXyXyXyXyXyXyXyXyXyXyXyXyXyXyXyXyXyXyXyX"
};
