/* XPM */
static char *_6[] = {
/* columns rows colors chars-per-pixel */
"32 32 133 2 ",
"   c #2F0D03",
".  c #272625",
"X  c #352620",
"o  c #3A3A3A",
"O  c #591600",
"+  c #5C1A03",
"@  c #601700",
"#  c #631C03",
"$  c #6E1C00",
"%  c #502B1F",
"&  c #732104",
"*  c #7A2204",
"=  c #7D4431",
"-  c #414141",
";  c #4B4B4B",
":  c #565656",
">  c #5B5C5C",
",  c #6D4C41",
"<  c #76564B",
"1  c #735E56",
"2  c #626262",
"3  c #6D6D6D",
"4  c #756661",
"5  c #766863",
"6  c #737474",
"7  c #7B7C7C",
"8  c #822303",
"9  c #932803",
"0  c #9E3916",
"q  c #9E3A18",
"w  c #A02D06",
"e  c #AB3006",
"r  c #A3320B",
"t  c #B93508",
"y  c #B7390E",
"u  c #AE3A12",
"i  c #A13D1A",
"p  c #B23A10",
"a  c #BD3E12",
"s  c #C13707",
"d  c #C53807",
"f  c #CB3907",
"g  c #C43A0A",
"h  c #CA3A08",
"j  c #D43B06",
"k  c #D63D08",
"l  c #DB3E08",
"z  c #C03E11",
"x  c #E33E05",
"c  c #9B4122",
"v  c #92452B",
"b  c #8B4730",
"n  c #874F3B",
"m  c #944D34",
"M  c #8D513C",
"N  c #97523A",
"B  c #98553E",
"V  c #A74422",
"C  c #AB4420",
"Z  c #EB4105",
"A  c #E94208",
"S  c #F34306",
"D  c #FB4506",
"F  c #FF4B07",
"G  c #F54509",
"H  c #FD4709",
"J  c #FF4809",
"K  c #EF550A",
"L  c #FF5409",
"P  c #E44812",
"I  c #FF6209",
"U  c #FF6F09",
"Y  c #FF7709",
"T  c #F07C0A",
"R  c #FF7C09",
"E  c #D25226",
"W  c #C5623C",
"Q  c #835849",
"!  c #8E5D4C",
"~  c #955641",
"^  c #985841",
"/  c #8A6153",
"(  c #8E6A5E",
")  c #916657",
"_  c #936A5C",
"`  c #B9755E",
"'  c #8D6E63",
"]  c #84726B",
"[  c #93766D",
"{  c #8E7B74",
"}  c #FE8D06",
"|  c #FF8309",
" . c #FF9109",
".. c #E29314",
"X. c #F9AC06",
"o. c #FFA509",
"O. c #FFAC09",
"+. c #FFB207",
"@. c #FFB109",
"#. c #CD8324",
"$. c #C2823F",
"%. c #B78B5D",
"&. c #96847D",
"*. c #98847D",
"=. c #B5907D",
"-. c #858585",
";. c #8C8684",
":. c #8C8C8C",
">. c #918580",
",. c #948884",
"<. c #948E8C",
"1. c #9B8E8A",
"2. c #929393",
"3. c #9B9B9B",
"4. c #B59280",
"5. c #A29D9B",
"6. c #A89E9A",
"7. c #B59F97",
"8. c #B8A79E",
"9. c #A4A3A3",
"0. c #A9A6A6",
"q. c #ABABAA",
"w. c #AFB0B1",
"e. c #B4B5B5",
"r. c #BBB5B4",
"t. c #B7B9BA",
"y. c #BBBCBD",
"u. c #BFC1C2",
"i. c #C3C4C4",
"p. c #C4C7C8",
"a. c #C7C9CA",
"s. c #CBCBCB",
"d. c None",
/* pixels */
"d.d.d.d.d.d.d.d.d.d.d.d.d.d.d.d.d.d.d.d.d.d.d.d.d.d.d.d.d.d.d.d.",
"d.d.d.d.d.d.d.. d.d.d.d.d.d.d.d.d.d.d.d.d.d.d.d.d.d.d.d.d.d.d.d.",
"d.d.d.d.d.d.> , + d.d.d.d.d.d.d.d.d.d.H J J d.d.d.d.d.d.d.d.d.d.",
"d.d.d.d.d.d.2.6.v 9 d.d.d.d.d.d.d.H H H L L J d.d.d.d.d.d.d.d.d.",
"d.d.d.d.d.o t.s.w.^ e $ d.d.d.d.H H F Y  .L J d.d.d.d.d.d.d.d.d.",
"d.d.d.d.d.d.-.s.s.y._ r % d.D J F L R o.O.R J H d.d.d.d.d.d.d.d.",
"d.d.d.d.d.d.d.<.s.s.p.,.;.5 ` E K  .O.@.O.R H H d.d.d.d.d.d.d.d.",
"d.d.d.d.d.d.d.d.3.s.s.s.2.3.s.r.4.$...X.@.| F H d.d.d.d.d.d.d.d.",
"d.d.d.d.d.d.d.d.- q.s.p.6 y.s.s.s.i.8.%.#.T F H d.d.d.d.d.d.d.d.",
"d.d.d.d.d.d.d.d.d.; e.q.7 s.s.s.s.y.e.a.r.=.W P H d.d.d.d.d.d.d.",
"d.d.d.d.d.d.d.d.d.d.2 6 0.s.s.t.{ b = t.s.s.i.7.n X d.d.d.d.d.d.",
"d.d.d.d.d.d.d.d.d.d.d.> p.s.p.Q j D s ,.s.s.s.e.6 1 9 9 8 $ O   ",
"d.d.d.d.d.d.d.d.d.d.d.5.s.s.0.u H H S Q p.s.s.:.3.0.*.[ ( ! M < ",
"d.d.d.d.d.d.d.d.d.d.> i.s.s.' x H H j ] s.s.i.6 y.s.s.s.s.a.p.e.",
"d.d.d.d.d.d.d.d.d.d.:.s.s.t.c H J J q 0.s.s.5.:.s.s.s.a.s.p.i.6 ",
"d.d.d.d.d.d.d.d.d.d.e.s.s.,.h J J Z < p.s.s.3 -.3.<.-.7 3 2 : d.",
"d.d.d.d.d.d.d.d.d.6 s.s.u.M S J J t <.s.s.e.o d.d.d.d.d.d.d.d.d.",
"d.d.d.d.d.d.d.d.d.9.s.s.0.y J J D b y.s.s.:.d.d.d.d.d.d.d.d.d.d.",
"d.d.d.d.d.d.d.d.2 u.s.s.( l J J j { s.s.u.> d.d.d.d.d.d.d.d.d.d.",
"d.d.d.d.d.d.d.d.<.s.s.e.c D J J q w.s.s.9.d.d.d.d.d.d.d.d.d.d.d.",
"d.d.d.d.d.d.d.; e.s.s.5.y H H A / s.a.a.6 d.d.d.d.d.d.d.d.d.d.d.",
"d.d.d.d.d.d.d.7 s.s.s.y.m G D u 5.s.a.e.d.d.d.d.d.d.d.d.d.d.d.d.",
"d.d.d.d.d.d.d.4 e.a.s.s.&.0 ^ 1.a.s.s.:.d.d.d.d.d.d.d.d.d.d.d.d.",
"d.d.d.d.d.d.d.t C ) 5.u.u.0.p.s.s.s.y.> d.d.d.d.d.d.d.d.d.d.d.d.",
"d.d.d.d.d.d.d.l H A z N &.e.a.s.s.s.5.d.d.d.d.d.d.d.d.d.d.d.d.d.",
"d.d.d.d.d.d.d.k J J H H j V _ 5.u.s.6 d.d.d.d.d.d.d.d.d.d.d.d.d.",
"d.d.d.d.d.d.d.s J J F H H H Z a B ] d.d.d.d.d.d.d.d.d.d.d.d.d.d.",
"d.d.d.d.d.d.d.9 H J J H H H H F x + d.d.d.d.d.d.d.d.d.d.d.d.d.d.",
"d.d.d.d.d.d.d.d.h H H H J J H A 8 d.d.d.d.d.d.d.d.d.d.d.d.d.d.d.",
"d.d.d.d.d.d.d.d.# g G H J G f & d.d.d.d.d.d.d.d.d.d.d.d.d.d.d.d.",
"d.d.d.d.d.d.d.d.d.d.& w w * d.d.d.d.d.d.d.d.d.d.d.d.d.d.d.d.d.d.",
"d.d.d.d.d.d.d.d.d.d.d.d.d.d.d.d.d.d.d.d.d.d.d.d.d.d.d.d.d.d.d.d."
};
