/* XPM */
static char *_1[] = {
/* columns rows colors chars-per-pixel */
"72 72 216 2 ",
"   c #04201B",
".  c #0D1B2C",
"X  c #06182D",
"o  c #121C2F",
"O  c #0E1C34",
"+  c #0F1E3B",
"@  c #091730",
"#  c #131E32",
"$  c #101D39",
"%  c #0D2129",
"&  c #19242F",
"*  c #172927",
"=  c #0C2336",
"-  c #132234",
";  c #1A2533",
":  c #1A2936",
">  c #14233C",
",  c #1B2A3C",
"<  c #18263C",
"1  c #193336",
"2  c #1A343C",
"3  c #163231",
"4  c #0A322C",
"5  c #2A3628",
"6  c #222C36",
"7  c #232B3A",
"8  c #2A353B",
"9  c #35373A",
"0  c #3D3C3C",
"q  c #373836",
"w  c #433C3B",
"e  c #473D3A",
"r  c #284839",
"t  c #37483B",
"y  c #36503F",
"u  c #434A3C",
"i  c #45433B",
"p  c #0F1F41",
"a  c #101F42",
"s  c #0E2344",
"d  c #0D2847",
"f  c #122344",
"g  c #152A44",
"h  c #1B2D43",
"j  c #14254C",
"k  c #18264D",
"l  c #15284D",
"z  c #1B2B4C",
"x  c #1C3244",
"c  c #1B334B",
"v  c #15304E",
"b  c #152654",
"n  c #192755",
"m  c #162955",
"M  c #1A2C54",
"N  c #172759",
"B  c #16295A",
"V  c #1A2C5B",
"C  c #1B3254",
"Z  c #1E315B",
"A  c #212E44",
"S  c #202B48",
"D  c #223244",
"F  c #23344B",
"G  c #25394F",
"H  c #2A3B4A",
"J  c #2D3343",
"K  c #373C41",
"L  c #223354",
"P  c #253A53",
"I  c #2A3C55",
"U  c #22345B",
"Y  c #253A5D",
"T  c #2A3D5C",
"R  c #202F56",
"E  c #1D2F61",
"W  c #1E3161",
"Q  c #213462",
"!  c #273C60",
"~  c #453D42",
"^  c #114A47",
"/  c #2E4B49",
"(  c #3D4244",
")  c #3B4B49",
"_  c #384747",
"`  c #2B425B",
"'  c #354657",
"]  c #3E5551",
"[  c #2D4364",
"{  c #2E466A",
"}  c #2B4763",
"|  c #3A4D64",
" . c #314A6D",
".. c #374964",
"X. c #3B5368",
"o. c #334D71",
"O. c #365073",
"+. c #3A5473",
"@. c #3A5579",
"#. c #424343",
"$. c #4B4441",
"%. c #434B44",
"&. c #494C4B",
"*. c #464949",
"=. c #554B44",
"-. c #5A4A43",
";. c #534947",
":. c #455346",
">. c #58554A",
",. c #494E55",
"<. c #495755",
"1. c #495B56",
"2. c #535353",
"3. c #5C5653",
"4. c #545C5C",
"5. c #5B5C5C",
"6. c #624E46",
"7. c #63534B",
"8. c #6B5549",
"9. c #635D4C",
"0. c #6A5549",
"q. c #745B4C",
"w. c #77594A",
"e. c #655A54",
"r. c #695C55",
"t. c #645D5A",
"y. c #645954",
"u. c #745E52",
"i. c #54615D",
"p. c #5A635C",
"a. c #5F6056",
"s. c #4F635D",
"d. c #6A614F",
"f. c #79604E",
"g. c #61655B",
"h. c #6B635D",
"j. c #66695D",
"k. c #696252",
"l. c #746353",
"z. c #7B6353",
"x. c #72655B",
"c. c #75695D",
"v. c #7D6A59",
"b. c #7F6855",
"n. c #42546C",
"m. c #445464",
"M. c #495868",
"N. c #625F60",
"B. c #4A6366",
"V. c #536465",
"C. c #5B6363",
"Z. c #5B6A69",
"A. c #57696A",
"S. c #466B72",
"D. c #4D7175",
"F. c #646B65",
"G. c #6E6A63",
"H. c #686864",
"J. c #736C63",
"K. c #786E63",
"L. c #6C736C",
"P. c #6C7065",
"I. c #737165",
"U. c #7D7264",
"Y. c #74736B",
"T. c #7A746A",
"R. c #7D786A",
"E. c #6C7976",
"W. c #6B7776",
"Q. c #727671",
"!. c #7C7B72",
"~. c #747E7B",
"^. c #777873",
"/. c #806755",
"(. c #856A56",
"). c #836C5A",
"_. c #8C6C5C",
"`. c #896956",
"'. c #8D705E",
"]. c #936E60",
"[. c #877668",
"{. c #957A69",
"}. c #837D71",
"|. c #A57A67",
" X c #6E817E",
".X c #79817C",
"XX c #72807C",
"oX c #8E816D",
"OX c #95826D",
"+X c #888277",
"@X c #978875",
"#X c #A78A76",
"$X c #AC8B71",
"%X c #3F6499",
"&X c #4069A5",
"*X c #6C8384",
"=X c #68898C",
"-X c #798784",
";X c #778E90",
":X c #789497",
">X c #6D9399",
",X c #868A85",
"<X c #8B928B",
"1X c #94938A",
"2X c #9C9387",
"3X c #889693",
"4X c #93958E",
"5X c #A49686",
"6X c #AA9F91",
"7X c #ABA397",
"8X c #B0A89B",
"9X c #96AAAA",
"0X c #BBB4A6",
"qX c #C3BCB1",
"wX c #A7C4C0",
"eX c None",
/* pixels */
"eXeXeXeXeXeXeXeXeXeXeXeXeXeXeXeXeXeXeXeXeXeXeXeXeXeXeXeXeXeXeXeXeXeXeXeXeXeXeXeXeXeXeXeXeXeXeXeXeXeXeXeXeXeXeXeXeXeXeXeXeXeXeXeXeXeXeXeXeXeXeXeX",
"eXeXeXeXeXeXeXeXeXeXeXeXeXeXeXeXeXeXeXeXeXeXeXeXeXeXeXeXeXeXeXeXeXeXeXeXeXeXeXeXeXeXeXeXeXeXeXeXeXeXeXeXeXeXeXeXeXeXeXeXeXeXeXeXeXeXeXeXeXeXeXeX",
"eXeXeXeXeXeXeXeXeXeXeXeXeXeXeXeXeXeXeXeXeXeXeXeXeXeXeXeXeXeXeXeXeXeXeXeXeXeXeXeXeXeXeXeXeXeXeXeXeXeXeXeXeXeXeXeXeXeXeXeXeXeXeXeXeXeXeXeXeXeXeXeX",
"eXeXeXeXeXeXeXeXeXeXeXeXeXeXeXeXeXeXeXeXeXeXeXeXeXeXeXeXeXeXeXeXeXeXeXeXeXeXeXeXeXeXeXeXeXeXeXeXeXeXeXeXeXeXeXeXeXeXeXeXeXeXeXeXeXeXeXeXeXeXeXeX",
"eXeXeXeXeXeXeXeXeXeXeXeXeXeXeXeXeXeXeXeXeXeXeXeXeXeXeXeXeXeXeXeXeXeXeXeXeXeXeXeXeXeXeXeXeXeXeXeXeXeXeXeXeXeXeXeXeXeXeXeXeXeXeXeXeXeXeXeXeXeXeXeX",
"eXeXeXeXeXeXeXeXeXeXeXeXeXeXeXeXeXeXeXeXeXqXqXqX8XeXeXeXeXeXeXeXeXeXeXeXeXeXeXeXeXeXeXeXeXeXeXeXeXeXeXeXeXeXeXeXeXeXeXeXeXeXeXeXeXeXeXeXeXeXeXeX",
"eXeXeXeXeXeXeXeXeXeXeXeXeXeXeXeXeXeXeXeXeX0X0X6X6X@XI.<.eXeXeXeXeXeXeXeXeXeXeXeXeXeXeXeXeXeXeXeXeXeXeXeXeXeXeXeXeXeXeXeXeXeXeXeXeXeXeXeXeXeXeXeX",
"eXeXeXeXeXeXeXeXeXeXeXeXeXeXeXeXeXeXeXeX4X7X6X#X#X$XOXI.i.eXeXeXeXeXeXeXeXeXeXeXeXeXeXeXeXeXeXeXeXeXeXeXeXeXeXeXeXeXeXeXeXeXeXeXeXeXeXeXeXeXeXeX",
"eXeXeXeXeXeXeXeXeXeXeXeXeXeXeXeXeXeXeXeX:X3X1X2X#XOX#X#XY.eXeXeXeXeXeXeXeXeXeXeXeXeXeXeXeXeXeXeXeXeXeXeXeXeXeXeXeXeXeXeXeXeXeXeXeXeXeXeXeXeXeXeX",
"eXeXeXeXeXeXeXeXeXeXeXeXeXeXeXeXeXeXeXeXeX.XY.}..X.X@X@X+Xj.eXeXeXeXeXeXeXeXeXeXeXeXeXeXeXeXeXeXeXeXeXeXeXeXeXeXeXeXeXeXeXeXeXeXeXeXeXeXeXeXeXeX",
"eXeXeXeXeXeXeXeXeXeXeXeXeXeXeX3X1X1X3XeXeX-X~.!..X.X+XoXOXU.:.5 eXeXeXeXeXeXeXeXeXeXeXeXeXeXeXeXeXeXeXeXeXeXeXeXeXeXeXeXeXeXeXeXeXeXeXeXeXeXeXeX",
"eXeXeXeXeXeXeXeXeXeXeXeXeXeXeX1X1X,X<X,XeXeXeX<X+X<X3X+XoXOX.X>.eXeXeXeXeXeXeXeXeXeXeXeXeXeXeXeXeXeXeXeXeXeXeXeXeXeXeXeXeXeXeXeXeXeXeXeXeXeXeXeX",
"eXeXeXeXeXeXeXeXeXeXeXeXeX<X1X5X2X}.T..XeXeXeXeXeXwXwX3X-X+XoXb.:./ eXeXeXeXeXeXeXeXeXeXeXeXeXeXeXeXeXeXeXeXeXeXeXeXeXeXeXeXeXeXeXeXeXeXeXeXeXeX",
"eXeXeXeXeXeXeXeXeXeXeXeXeX3X1X2X+XR.J.E.=XeXeXeXeXeXeXeX>XF.I.j.=.t :.:.eXeXeXeXeXeXeXeXeXeXeXeXeXeXeXeXeXeXeXeXeXeXeXeXeXeXeXeXeXeXeXeXeXeXeXeX",
"eXeXeXeXeXeXeXeXeXeXeXeXeX;X+X+X[.}.+X*XeXeXeXeXeXeXeXeX=XS.) ) i u k.d.k.eXeXeXeXeXeXeXeXeXeXeXeXeXeXeXeXeXeXeXeXeXeXeXeXeXeXeXeXeXeXeXeXeXeXeX",
"eXeXeXeXeXeXeXeXeXeXeXeXeXeX-X+Xx.P..X;XeXeXeXeXeXeXeXeXeXS./ ] 2.c.).).k.9.>.eXeXeXeXeXeXeXeXeXeXeXeXeXeXeXeXeXeXeXeXeXeXeXeXeXeXeXeXeXeXeXeXeX",
"eXeXeXeXeXeXeXeXeXeXeXeXeXeX-X.XR.J.~.eXeXeXeXeXeXeXeXeXeXeXeXeXF.U.'.(.(.b.k.u eXeXeXeXeXeXeXeXeXeXeXeXeXeXeXeXeXeXeXeXeXeXeXeXeXeXeXeXeXeXeXeX",
"eXeXeXeXeXeXeXeXeXeXeXeXeXeXeXXXT.Q.XX=XeXeXeXeXeXeXeXeXeXeXeXeXeXF..XU.).'.).r.6.eXeXeXeXeXeXeXeXeXeXeXeXeXeXeXeXeXeXeXeXeXeXeXeXeXeXeXeXeXeXeX",
"eXeXeXeXeXeXeXeXeXeXeXeXeXeX=XXX!.Y.*X>XeXeXeXeXeXeXeXeX[.-X:XeXeXs.P.U.U.(.`.(.d.:.r eXeXeXeXeXeXeXeXeXeXeXeXeXeXeXeXeXeXeXeXeXeXeXeXeXeXeXeXeX",
"eXeXeXeXeXeXeXeXeXeXeXeXeXeXeXXX!.Y.E.*XeXeXeXeXeXeXeX!.[.[.{.[.k.y s.j.I.v.`.`.).j.y eXeXeXeXeXeXeXeXeXeXeXeXeXeXeXeXeXeXeXeXeXeXeXeXeXeXeXeXeX",
"eXeXeXeXeXeXeXeXeXeXeXeXeXeXeXQ.L.R.oX%XeXeXeXeXeXeXE.}.].|.|.$X[.k.t 2 p.I.v./.(.v.>.r eXeXeXeXeXeXeXeXeXeXeXeXeXeXeXeXeXeXeXeXeXeXeXeXeXeXeXeX",
"eXeXeXeXeXeXeXeXeXeXeXeXeXeXeXE.L.Y.).W.*XeXeXeXeXeXP.).].|.|.{.'.l.:.4 r g.c.v.b.b.d.u r eXeXeXeXeXeXeXeXeXeXeXeXeXeXeXeXeXeXeXeXeXeXeXeXeXeXeX",
"eXeXeXeXeXeXeXeXeXeXeXeXeXeXeXeXZ.L.G.L.*XeXeXeXeXeX5.r././.].w.6.0.i 5   1.j.c.f.f.f.u r eXeXeXeXeXeXeXeXeXeXeXeXeXeXeXeXeXeXeXeXeXeXeXeXeXeXeX",
"eXeXeXeXeXeXeXeXeXeXeXeXeXeXeXD.Z.L.T.I.W.eXeXeXeX1.&.=.e 6.8.u.q.f.q.i eXeXg.c.l.f.f.f.>.r eXeXeXeXeXeXeXeXeXeXeXeXeXeXeXeXeXeXeXeXeXeXeXeXeXeX",
"eXeXeXeXeXeXeXeXeXeXeXeXeXeXeXeXp.P.U.I.Q.~.eXeXeX#.( &.=.>.0./._.]._.l.i eXG.J.x.u.q.z.l.) ^ eXeXeXeXeXeXeXeXeXeXeXeXeXeXeXeXeXeXeXeXeXeXeXeXeX",
"eXeXeXeXeXeXeXeXeXeXeXeXeXeXeXeXs.p.h.K.Y.,XeXeXeX_ 8 *.3.r.7.0.w._._.(.0.u %.C.J.x.u.z.(.k.^ eXeXeXeXeXeXeXeXeXeXeXeXeXeXeXeXeXeXeXeXeXeXeXeXeX",
"eXeXeXeXeXeXeXeXeXeXeXeXeXeXeXeXB.p.h.U.U.[.eXeXeXq 8 0 3.y.6.-.8./.w.w.k.>.] 1.H.J.G.z.(.).1.eXeXeXeXeXeXeXeXeXeXeXeXeXeXeXeXeXeXeXeXeXeXeXeXeX",
"eXeXeXeXeXeXeXeXeXeXeXeXeXeXeXeXeX5.c.U.T.!.eXeXeXeX5 9 $.=.;.$.6.w.w.w.=.:.eX) 5.G.J.G.).).d.eXeXeXeXeXeXeXeXeXeXeXeXeXeXeXeXeXeXeXeXeXeXeXeXeX",
"eXeXeXeXeXeXeXeXeXeXeXeXeXeXeXeXV.i.h.J.K.T.!.eXeXeXeX~ #.i #.$.-.8.w.6.i t eXeX_ 2.G.u.v.v.9.i eXeXeXeXeXeXeXeXeXeXeXeXeXeXeXeXeXeXeXeXeXeXeXeX",
"eXeXeXeXeXeXeXeXeXeXeXeXeXeXeXeXeXV.t.G.J.T.!.^.eXeXeX) #.K 0 0 e -.-.e i ( _ c g D #.t.J.J.l.y eXeXeXeXeXeXeXeXeXeXeXeXeXeXeXeXeXeXeXeXeXeXeXeX",
"eXeXeXeXeXeXeXeXeXeXeXeXeXeXeXeXeXA.p.H.J.T.J.J.eXeXeXeX<.) 9 q q 0 e e e *.( h > O # 9 &.t.k.%.* eXeXeXeXeXeXeXeXeXeXeXeXeXeXeXeXeXeXeXeXeXeXeX",
"eXeXeXeXeXeXeXeXeXeXeXeXeXeXeXeXeXeXV.t.r.u.G.H.F.eXeXeXeXeX*.q q q e ~ ~ 7.%.h + O O O & 6 9 6 % eXeXeXeXeXeXeXeXeXeXeXeXeXeXeXeXeXeXeXeXeXeXeX",
"eXeXeXeXeXeXeXeXeXeXeXeXeXeXeXeXeXeXV.5.r.r.x.h.H.Z.D.eXeXeX<.*.q q w -.6.6.K $ > + + + . . . . % eXeXeXeXeXeXeXeXeXeXeXeXeXeXeXeXeXeXeXeXeXeXeX",
"eXeXeXeXeXeXeXeXeXeXeXeXeXeXeXeXeXeXeX4.5.y.8.x.t.g.A.eXeXeXeX<.~ i ;.8.8.;.S a f + $ O o @ . . * eXeXeXeXeXeXeXeXeXeXeXeXeXeXeXeXeXeXeXeXeXeXeX",
"eXeXeXeXeXeXeXeXeXeXeXeXeXeXeXeXeXeXeXeX4.3.7.r.r.r.t.4.eXeXeX| _ 0 &.3.;.J a a f + > > $ # . % % eXeXeXeXeXeXeXeXeXeXeXeXeXeXeXeXeXeXeXeXeXeXeX",
"eXeXeXeXeXeXeXeXeXeXeXeXeXeXeXeXeXeXeXeX4.5.e.y.r.r.3.) z c F P , 7 8 J S a a a f g j g g > O = - , eXeXeXeXeXeXeXeXeXeXeXeXeXeXeXeXeXeXeXeXeXeX",
"eXeXeXeXeXeXeXeXeXeXeXeXeXeXeXeXeXeXeXeXeX4.y.7.r.r.y.~ o < $ < $ > $ > a f f a k z M B m b f , < 8 eXeXeXeXeXeXeXeXeXeXeXeXeXeXeXeXeXeXeXeXeXeX",
"eXeXeXeXeXeXeXeXeXeXeXeXeXeXeXeXeXeXeXeXeXeXC.e.r.r.3.~ ; # a < > > + a $ a a k l m V W Z V M b g x ) eXeXeXeXeXeXeXeXeXeXeXeXeXeXeXeXeXeXeXeXeX",
"eXeXeXeXeXeXeXeXeXeXeXeXeXeXeXeXeXeXeXeXeXeXZ.C.t.y.3.K ; # + > f f + s > f S n B V U Q Q Q Q Z M x x eXeXeXeXeXeXeXeXeXeXeXeXeXeXeXeXeXeXeXeXeX",
"eXeXeXeXeXeXeXeXeXeXeXeXeXeXeXeXeXeXeXeXeXeXeXZ.t.3.2.~ - o O p s s s f j j n n B V V Q Q Q Q Z U C x eXeXeXeXeXeXeXeXeXeXeXeXeXeXeXeXeXeXeXeXeX",
"eXeXeXeXeXeXeXeXeXeXeXeXeXeXeXeXeXeXeXeXeXeXeXA.V.5.2.K # . O > s j j j b m m n V V V U Q Q W Z Z C c x eXeXeXeXeXeXeXeXeXeXeXeXeXeXeXeXeXeXeXeX",
"eXeXeXeXeXeXeXeXeXeXeXeXeXeXeXeXeXeXeXeXeXeXeXeXM.*.K 9 - . O f f b B M m B V V V B V V Z Z E Z Z Z C c eXeXeXeXeXeXeXeXeXeXeXeXeXeXeXeXeXeXeXeX",
"eXeXeXeXeXeXeXeXeXeXeXeXeXeXeXeXeXeXeXeXeXeXeXeXeX6 ; ; o . $ p l b B B M B M V V V V B V Z E Z U C Z C 2 eXeXeXeXeXeXeXeXeXeXeXeXeXeXeXeXeXeXeX",
"eXeXeXeXeXeXeXeXeXeXeXeXeXeXeXeXeXeXeXeXeXeXeXeXeXeX. O X . # p g m C V V m B b n n M V V V E E M M Z C x 2 eXeXeXeXeXeXeXeXeXeXeXeXeXeXeXeXeXeX",
"eXeXeXeXeXeXeXeXeXeXeXeXeXeXeXeXeXeXeXeXeXeXeXeXeXeXeX= = @ + s b m B B B B b B N B V V V W E Q Z C M L c 2 eXeXeXeXeXeXeXeXeXeXeXeXeXeXeXeXeXeX",
"eXeXeXeXeXeXeXeXeXeXeXeXeXeXeXeXeXeXeXeXeXeXeXeXeXeXeXeXeXX O s b b b B B V B B V Z U V V B E U V V M C C x 1 eXeXeXeXeXeXeXeXeXeXeXeXeXeXeXeXeX",
"eXeXeXeXeXeXeXeXeXeXeXeXeXeXeXeXeXeXeXeXeXeXeXeXeXeXeXeXeXeXO s b B N B m m B M N N b V N V E V V V M M C c 2 3 eXeXeXeXeXeXeXeXeXeXeXeXeXeXeXeX",
"eXeXeXeXeXeXeXeXeXeXeXeXeXeXeXeXeXeXeXeXeXeXeXeXeXeXeXeXeXeXeXs d B B m m B m m N n m V E Q Q V M V M M M M x 1 eXeXeXeXeXeXeXeXeXeXeXeXeXeXeXeX",
"eXeXeXeXeXeXeXeXeXeXeXeXeXeXeXeXeXeXeXeXeXeXeXeXeXeXeXeXeXeXeXeXd b B m m b b N B n n B V B V M U L M M b M c x 1 eXeXeXeXeXeXeXeXeXeXeXeXeXeXeX",
"eXeXeXeXeXeXeXeXeXeXeXeXeXeXeXeXeXeXeXeXeXeXeXeXeXeXeXeXeXeXeXeXB.d B B B B B B V N N N N B B Z V V M M M M z x 1 eXeXeXeXeXeXeXeXeXeXeXeXeXeXeX",
"eXeXeXeXeXeXeXeXeXeXeXeXeXeXeXeXeXeXeXeXeXeXeXeXeXeXeXeXeXeXeXeXX.C m B B b B N V E E V B n B M M M m M M m M c H y eXeXeXeXeXeXeXeXeXeXeXeXeXeX",
"eXeXeXeXeXeXeXeXeXeXeXeXeXeXeXeXeXeXeXeXeXeXeXeXeXeXeXeXeXeXeXeXeX` B B B b B B E E E E W V B B z M b M m z B M ` i.F.eXeXeXeXeXeXeXeXeXeXeXeXeX",
"eXeXeXeXeXeXeXeXeXeXeXeXeXeXeXeXeXeXeXeXeXeXeXeXeXeXeXeXeXeXeXeXeX{ ` v B B B V V E E V E B B B b z l z j l b m L ' ,.eXeXeXeXeXeXeXeXeXeXeXeXeX",
"eXeXeXeXeXeXeXeXeXeXeXeXeXeXeXeXeXeXeXeXeXeXeXeXeXeXeXeXeXeXeXeXeXeX} V B B B B B E E B E B B B j l l l k k z m C U T  .eXeXeXeXeXeXeXeXeXeXeXeX",
"eXeXeXeXeXeXeXeXeXeXeXeXeXeXeXeXeXeXeXeXeXeXeXeXeXeXeXeXeXeXeXeXeXeXeX{ B B B B B E E N B B b b j l j j k k k M U Y `  .@.eXeXeXeXeXeXeXeXeXeXeX",
"eXeXeXeXeXeXeXeXeXeXeXeXeXeXeXeXeXeXeXeXeXeXeXeXeXeXeXeXeXeXeXeXeXeXeX| ! B B B B B V B B B b b b l b b j k z L U L U U o.eXeXeXeXeXeXeXeXeXeXeX",
"eXeXeXeXeXeXeXeXeXeXeXeXeXeXeXeXeXeXeXeXeXeXeXeXeXeXeXeXeXeXeXeXeXeXeXeX` V B B B B B B B B b b j k j k k k z R U R M U  .%XeXeXeXeXeXeXeXeXeXeX",
"eXeXeXeXeXeXeXeXeXeXeXeXeXeXeXeXeXeXeXeXeXeXeXeXeXeXeXeXeXeXeXeXeXeXeXeXI L B B B B B B b b b b l k k k k k R M M M U [ @.&XeXeXeXeXeXeXeXeXeXeX",
"eXeXeXeXeXeXeXeXeXeXeXeXeXeXeXeXeXeXeXeXeXeXeXeXeXeXeXeXeXeXeXeXeXeXeXeXX.T V B m B b b b b j j j b k n k z R L L F T  .@.n.eXeXeXeXeXeXeXeXeXeX",
"eXeXeXeXeXeXeXeXeXeXeXeXeXeXeXeXeXeXeXeXeXeXeXeXeXeXeXeXeXeXeXeXeXeXeXeXeX .V B m m b b j s d f a f f k k z R U F D H T +.@.eXeXeXeXeXeXeXeXeXeX",
"eXeXeXeXeXeXeXeXeXeXeXeXeXeXeXeXeXeXeXeXeXeXeXeXeXeXeXeXeXeXeXeXeXeXeXeXeXX.! B b b b b j f f j N j k j f L T ..D x F G [ o.@.eXeXeXeXeXeXeXeXeX",
"eXeXeXeXeXeXeXeXeXeXeXeXeXeXeXeXeXeXeXeXeXeXeXeXeXeXeXeXeXeXeXeXeXeXeXeXeXeXZ B N b l B B M B m n k a k j L | .., , x C I  .O.+.eXeXeXeXeXeXeXeX",
"eXeXeXeXeXeXeXeXeXeXeXeXeXeXeXeXeXeXeXeXeXeXeXeXeXeXeXeXeXeXeXeXeXeXeXeXeXeXg l j s d j b Z V V k k k k F T | ` , , h F U T  .+.eXeXeXeXeXeXeXeX",
"eXeXeXeXeXeXeXeXeXeXeXeXeXeXeXeXeXeXeXeXeXeXeXeXeXeXeXeXeXeXeXeXeXeXeXeXeXeXeXv B b N j j j n M z z z L I ..n.' , , 6 A H I [ o.+.eXeXeXeXeXeXeX",
"eXeXeXeXeXeXeXeXeXeXeXeXeXeXeXeXeXeXeXeXeXeXeXeXeXeXeXeXeXeXeXeXeXeXeXeXeXeXeXeX[ Q W V k k k f g S D G I ' n.' : : 6 7 D P T { O.+.eXeXeXeXeXeX",
"eXeXeXeXeXeXeXeXeXeXeXeXeXeXeXeXeXeXeXeXeXeXeXeXeXeXeXeXeXeXeXeXeXeXeXeXeXeXeXeX` Y U C f h > h A A D D D I | .., & , 7 A H P T o.O.eXeXeXeXeXeX",
"eXeXeXeXeXeXeXeXeXeXeXeXeXeXeXeXeXeXeXeXeXeXeXeXeXeXeXeXeXeXeXeXeXeXeXeXeXeXeXeXX.P C z h h , , x D A , , 7 ' n.G ; ; , 6 D P T { o.+.eXeXeXeXeX",
"eXeXeXeXeXeXeXeXeXeXeXeXeXeXeXeXeXeXeXeXeXeXeXeXeXeXeXeXeXeXeXeXeXeXeXeXeXeXeXeX{ P x h h h h , , h , , , , H m.X.x & , 7 7 D P T  .+.eXeXeXeXeX",
"eXeXeXeXeXeXeXeXeXeXeXeXeXeXeXeXeXeXeXeXeXeXeXeXeXeXeXeXeXeXeXeXeXeXeXeXeXeXeXeXeXc x h h z A , , - - < , , , ' n.' , & , 7 D G I ! o.+.eXeXeXeX",
"eXeXeXeXeXeXeXeXeXeXeXeXeXeXeXeXeXeXeXeXeXeXeXeXeXeXeXeXeXeXeXeXeXeXeXeXeXeXeXeXeXeXc z x c F c x h = - , , , D ' n.F ; ; 7 7 D G T { o.+.eXeXeX",
"eXeXeXeXeXeXeXeXeXeXeXeXeXeXeXeXeXeXeXeXeXeXeXeXeXeXeXeXeXeXeXeXeXeXeXeXeXeXeXeXeXeXx x x D F F F z < - - , , : _ X.| , & : 7 7 F P T o.+.eXeXeX",
"eXeXeXeXeXeXeXeXeXeXeXeXeXeXeXeXeXeXeXeXeXeXeXeXeXeXeXeXeXeXeXeXeXeXeXeXeXeXeXeXeXeXeXz c x h x F F h - - < , , , ' n.I : ; , 7 A G I [ o.+.eXeX"
};
