/* XPM */
static char *_6[] = {
/* columns rows colors chars-per-pixel */
"48 48 113 2 ",
"   c #351D1A",
".  c #2B2B2B",
"X  c #362726",
"o  c #373737",
"O  c #3D3D3D",
"+  c #5A1003",
"@  c #4D1C16",
"#  c #66160A",
"$  c #7E1800",
"%  c #661B10",
"&  c #69261A",
"*  c #722618",
"=  c #4D2722",
"-  c #592D27",
";  c #592F2A",
":  c #50312E",
">  c #5E342C",
",  c #423332",
"<  c #523531",
"1  c #643D33",
"2  c #793E33",
"3  c #444444",
"4  c #474A4A",
"5  c #4B4B4B",
"6  c #545454",
"7  c #5C5C5C",
"8  c #624B47",
"9  c #6F534E",
"0  c #6C5956",
"q  c #665C5B",
"w  c #735A56",
"e  c #646464",
"r  c #6F6564",
"t  c #6B6B6B",
"y  c #7F6962",
"u  c #737373",
"i  c #7D7472",
"p  c #737778",
"a  c #7B7B7B",
"s  c #831500",
"d  c #801B04",
"f  c #901601",
"g  c #991A02",
"h  c #A41E0F",
"j  c #872409",
"k  c #8E2D17",
"l  c #902310",
"z  c #9C321F",
"x  c #AB2606",
"c  c #AF2E12",
"v  c #A9341B",
"b  c #B93717",
"n  c #81372D",
"m  c #8E392A",
"M  c #A23F2B",
"N  c #99452D",
"B  c #8C4A3F",
"V  c #914334",
"C  c #A04431",
"Z  c #934C41",
"A  c #8E514A",
"S  c #985544",
"D  c #915649",
"F  c #835A56",
"G  c #8B5D55",
"H  c #A04D41",
"J  c #93645C",
"K  c #AF6450",
"L  c #9B6D65",
"P  c #936E68",
"I  c #837C7B",
"U  c #A47468",
"Y  c #AD796F",
"T  c #A07E78",
"R  c #96817E",
"E  c #A68179",
"W  c #848484",
"Q  c #888787",
"!  c #868889",
"~  c #8C8C8C",
"^  c #988583",
"/  c #978E8D",
"(  c #949494",
")  c #9B9292",
"_  c #97999A",
"`  c #9B9C9C",
"'  c #A6918D",
"]  c #AC9A96",
"[  c #AC9D9B",
"{  c #AEA19E",
"}  c #9F9FA0",
"|  c #A4A4A4",
" . c #ADA4A2",
".. c #A7A8A9",
"X. c #ABABAB",
"o. c #B4ACAA",
"O. c #AFAFB0",
"+. c #B3B3B3",
"@. c #BBB6B6",
"#. c #B4B7B8",
"$. c #B7B9B9",
"%. c #BCBCBC",
"&. c #C0BFBF",
"*. c #C0C0BF",
"=. c #BDBFC0",
"-. c #BEC0C0",
";. c #C3C4C4",
":. c #C4C7C8",
">. c #C7C9CA",
",. c #CBCBCB",
"<. c #CFD0D0",
"1. c #D0D0D0",
"2. c None",
/* pixels */
"2.2.2.2.2.2.2.2.2.2.2.2.2.2.2.2.2.2.2.2.2.2.2.2.2.2.2.2.3 ( 2.2.2.2.2.2.2.2.2.2.2.2.2.2.2.2.2.2.",
"2.2.2.2.2.2.2.2.2.2.2.2.2.2.2.2.2.2.2.2.2.2.2.2.2.2.2.3 O 2.2.2.2.2.2.2.2.2.2.2.2.2.2.2.2.2.2.2.",
"2.2.2.2.2.2.2.2.2.2.2.2.2.2.2.2.2.2.2.2.2.2.2.2.2.3 4 2.2.2.2.2.2.2.2.2.2.2.2.2.2.2.2.2.2.2.2.2.",
"2.2.2.2.2.2.2.2.2.2.2.2.2.2.2.2.2.2.2.2.2.2.2.2.3 3 2.2.2.2.2.2.2.2.2.2.2.2.2.2.2.2.2.2.2.2.2.2.",
"2.2.2.2.2.2.2.2.2.2.2.2.2.2.2.2.2.2.2.2.2.2.3 3 2.2.2.2.2.2.2.2.2.2.2.2.2.2.2.2.2.2.2.2.2.2.2.2.",
"2.2.2.2.2.2.2.2.2.2.2.2.2.2.2.2.2.2.2.7 O 3 2.2.2.2.2.2.2.2.2.2.2.2.2.2.2.2.2.2.2.2.2.2.2.2.2.2.",
"2.2.2.2.2.2.2.2.2.2.2.2.2.2.2.2.2.2.. ~ _ O 2.2.2.2.2.2.2.2.2.2.2.2.2.2.2.2.2.2.2.2.2.2.2.2.2.2.",
"2.2.2.2.2.2.2.2.2.2.2.2.2.2.2.2.2.3 3 , X.| 2.2.2.2.2.2.2.2.2.2.2.2.2.2.$ j 1 4 2.2.2.2.2.2.2.2.",
"2.2.2.2.2.2.2.2.2.2.2.2.2.2.2.2.4 O 2.2.7 +...2.2.2.2.2.2.2.2.2.2.$ x v S y %.I 2.2.2.2.2.2.2.2.",
"2.2.2.2.2.2.2.2.2.2.2.2.2.4 ` 6 2.2.2.2.2.t %...6 2.2.2.2.2.2.@ ; > G o.:.` X. .& 2.2.2.2.2.2.2.",
"2.2.2.2.2.2.2.2.2.2.2.2.2.O W +.e 2.2.2.2.2.a ,.X.6 2.2.2.2.X x A u ! %.,.;.~ -.P + 2.2.2.2.2.2.",
"2.2.2.2.2.2.2.2.2.2.2.6 3 2.2._ @.t 2.2.2.2.2.Q ,.X.7 2.2.2., F ;...p / >.,.O._ $.2 2.2.2.2.2.2.",
"2.2.2.2.2.2.2.2.6 u 4 2.2.2.2.2...$.t 2.2.2.2.2.` ,.O.e 2.2.e =.,.` t a ..,.,.( +.' % 2.2.2.2.2.",
"2.2.2.2.2.2.2.2.6 +.W 2.2.2.2.2.6 +.%.u 2.2.2.2.2...<...6 t W ,.` ( +.a W ;.,.%.( %.G 2.2.2.2.2.",
"X.t 2.2.2.2.6 6 2.t $.Q 2.2.2.2.2.e %.;.a 2.2.2.2.6 ( ! O.,.W a ( ,.,.` p ) ,.,...| @.0 2.2.2.2.",
";.%.a 2.3 6 2.2.2.2.a ;./ 2.2.2.2.2.p ;.;.a 2.2.2.5 ~ ;.,.=.W 6 %.,.,.;.W a +.,.;.( %.| 2.2.2.2.",
"~ ;.>.( 5 2.2.2.2.2.2.~ ,.( 2.2.2.2.2.Q ,.;.a 2.a +.,.,.| W X._ ( ,.,.,.X.u ! ;.,.$.I V 2.2.2.2.",
"| ( ;.,.X.e 2.2.5 6 2.2._ ,._ 2.2.2.2.2._ X.W ` ,.,.@.Q ( ;.,.;.a o.+.` ~ u a } ,.[ v s 2.2.2.2.",
"u [ _ ,.,.%.a 6 +.%.I 2.2.X.,.` 2.2.2.2.3 ~ *.,.;._ Q O.,.,.,.,._ 6 ~ X.-.-.W a ^ v f 2.2.2.2.2.",
"2.! ` | ,.,.;._ ( ;.,.` 3 5 +.,.| 2.2.t X.,.,.X.W | >.,.,.,.;.` ` W _ <.,.,._ 6 l g 2.2.2.2.2.2.",
"2.2.| ( X.,.,.,.( u $.,.+.e 7 %.@.t ~ ;.1.%./ ~ $.,.,.,.>...( O.,.;.t ( ^ G C - # 2.2.2.2.2.2.2.",
"2.2.7 X.W &.;.` Q ..W X.,.;.a u _ $.,.>.| W ..,.,.,.,.%.) { -.,.;.} 6 2.O > *   2.2.2.2.2.2.2.2.",
"2.2.2.6 ( O.! } =.[ Z : } ,.,.$.>.,.,.) ` ;.,.>.,.;.| ( $.,.,.+.~ a 2.2.2.2.2.2.2.2.2.2.2.2.2.2.",
"2.2.2.2.7 i ..) S c N ^ ~ ` ,.,.,.>.;.~ >.,.,.,.+.( ..:.<.-.~ 7 +.%.2.2.2.2.2.2.2.2.2.2.2.2.2.2.",
"2.2.2.2.e _ r = n E %.,.$.9 @.,.>.,.;.W ;.,.-.` _ *.,.,...e 2.2.o.,.p 2.2.2.2.2.2.2.2.2.2.2.2.2.",
"2.2.2.2.e ( q w +.,.,.,.;.D L ,.>.,.,._ Q _ ( o.,.,.$.Q 5 2.2.2.W ,._ 2.2.2.2.2.2.2.2.2.2.2.2.2.",
"2.2.2.2.. ~ +.W ;.>.>.,.,. .m { ,.,.,.,.;.X.;.,.;.( a +.( 2.2.2.2.$.+.2.2.2.2.2.2.2.2.2.2.6 e 2.",
"2.2.2.2.2.O X.../ ,.,.,.,.,.L Z &.,.,.,.,.,.,.+.u 2.a ,.O.2.2.2.2.~ ,.u 2.2.2.2.2.2.2.2.o 7 e 2.",
"2.2.2.2.2.2.e ;.Q +.,.>.,.,.$.V T ,.,.,.,.&.Q O 2.2.2.+.;.t 2.2.2.7 ;.( 2.2.2.2.2.2.2.4 3 2.2.2.",
"2.2.2.2.2.2.4 ( $.W >.,.,.,.,.' m o.,.,.X.W ` e 2.2.2.W ,./ 2.2.2.2._ +.2.2.2.2.2.3 5 2.2.2.2.2.",
"2.2.2.2.2.2.2.5 +.` ` ,.,.,.,.;.J F ;.,.u _ 1.Q 2.2.2.6 $.X.2.2.2.2.e %.t 2.2.O 3 O 2.2.2.2.2.2.",
"2.2.2.2.2.2.2.2.a ;.W $.,.,.,.,.;.I X.,.Q e ,.X.2.2.2.2.( ;.e 2.2.2.2.| ( 2.3 3 2.2.2.2.2.2.2.2.",
"2.2.2.2.2.2.2.5 6 | O.~ ,.,.:.,.1.| / <.| o O.;.7 2.2.2.7 -.Q 2.2.2.2.u X.3 2.2.2.2.2.2.2.2.2.2.",
"2.2.2.2.2.2.2.2.2.6 -.( ..,.,.:.] V 0 ,.+.2.W ,.W 2.2.2.2.[ X.2.2.2.2.3 a 2.2.2.2.2.2.2.2.2.2.2.",
"2.2.2.2.2.2.2.2.2.3 Q -.W ;.-.U b K I %.%.6 2.$...2.2.2.2.t $.7 2.3 3 2.2.2.2.2.2.2.2.2.2.2.2.2.",
"2.2.2.2.2.2.2.2.2.2., +...i 8 k Y ;.Q X.>.t 2.( %.7 2.2.2.2...a O O 2.2.2.2.2.2.2.2.2.2.2.2.2.2.",
"2.2.2.2.2.2.2.2.2.2.2.t ` q < / $.~ a ( ,.W 2.7 %.R 2.2.2.2.u W 2.2.2.2.2.2.2.2.2.2.2.2.2.2.2.2.",
"2.2.2.2.2.2.2.2.2.2.2.O u X.Q ` Q o.;.Q ;.u 2.2._ } 2.2.4 4 . 2.2.2.2.2.2.2.2.2.2.2.2.2.2.2.2.2.",
"2.2.2.2.2.2.2.2.2.2.2.2.6 t 7 } >.,.,.W 6 2.2.2.t +.6 6 3 2.2.2.2.2.2.2.2.2.2.2.2.2.2.2.2.2.2.2.",
"2.2.2.2.2.2.2.2.2.2.2.2.2.2.t ..X.,.,._ 2.2.2.2.2.` t 2.2.2.2.2.2.2.2.2.2.2.2.2.2.2.2.2.2.2.2.2.",
"2.2.2.2.2.2.2.2.2.2.2.2.2.2.2.Q ~ ;.,.$.2.2.2.4 6 4 2.2.2.2.2.2.2.2.2.2.2.2.2.2.2.2.2.2.2.2.2.2.",
"2.2.2.2.2.2.2.2.2.2.2.2.2.2.2.W } X.,.,.t 2.6 5 2.2.2.2.2.2.2.2.2.2.2.2.2.2.2.2.2.2.2.2.2.2.2.2.",
"2.2.2.2.2.2.2.2.2.2.2.2.2.2.2.2.X.( ,.,.Q 3 2.2.2.2.2.2.2.2.2.2.2.2.2.2.2.2.2.2.2.2.2.2.2.2.2.2.",
"2.2.2.2.2.2.2.2.2.2.2.2.2.2.2.2.~ _ +.,.X.2.2.2.2.2.2.2.2.2.2.2.2.2.2.2.2.2.2.2.2.2.2.2.2.2.2.2.",
"2.2.2.2.2.2.2.2.2.2.2.2.2.2.2.2.5 .._ ,.;.e 2.2.2.2.2.2.2.2.2.2.2.2.2.2.2.2.2.2.2.2.2.2.2.2.2.2.",
"2.2.2.2.2.2.2.2.2.2.2.2.2.2.2.t 6 ~ ( %.,.W 2.2.2.2.2.2.2.2.2.2.2.2.2.2.2.2.2.2.2.2.2.2.2.2.2.2.",
"2.2.2.2.2.2.2.2.2.2.2.2.2.2.2.e 2.7 } [ ,.| 2.2.2.2.2.2.2.2.2.2.2.2.2.2.2.2.2.2.2.2.2.2.2.2.2.2.",
"2.2.2.2.2.2.2.2.2.2.2.2.2.2.2.2.2.2.( ( ;.+.2.2.2.2.2.2.2.2.2.2.2.2.2.2.2.2.2.2.2.2.2.2.2.2.2.2."
};
