/* XPM */
static char *_62[] = {
/* columns rows colors chars-per-pixel */
"48 48 104 2 ",
"   c #1A1A1A",
".  c #3C1E1B",
"X  c #272727",
"o  c #282828",
"O  c #392422",
"+  c #353535",
"@  c #3D3D3D",
"#  c #5E1105",
"$  c #521D13",
"%  c #771D12",
"&  c #692114",
"*  c #622119",
"=  c #4E2723",
"-  c #562820",
";  c #582926",
":  c #57342E",
">  c #5B3B36",
",  c #602F2A",
"<  c #63302A",
"1  c #69342C",
"2  c #77372D",
"3  c #7F3A2B",
"4  c #444444",
"5  c #4C4C4C",
"6  c #594542",
"7  c #594D4C",
"8  c #52504F",
"9  c #545454",
"0  c #5A5151",
"q  c #5B5B5B",
"w  c #664D49",
"e  c #704C44",
"r  c #7B4C44",
"t  c #714F49",
"y  c #7C5347",
"u  c #72554E",
"i  c #7E605C",
"p  c #636363",
"a  c #696362",
"s  c #6D6867",
"d  c #6B6B6B",
"f  c #6D7171",
"g  c #747474",
"h  c #7B7B7B",
"j  c #841A02",
"k  c #921A03",
"l  c #A91E06",
"z  c #81220A",
"x  c #9A270B",
"c  c #8B2910",
"v  c #8B2D1D",
"b  c #9F2B15",
"n  c #B0300F",
"m  c #A83013",
"M  c #8E3A2A",
"N  c #8A3E31",
"B  c #A43924",
"V  c #A4392B",
"C  c #924A3E",
"Z  c #AA4224",
"A  c #AA412B",
"S  c #B64C32",
"D  c #9E4F40",
"F  c #85574E",
"G  c #995A4E",
"H  c #885A53",
"J  c #AC5F4B",
"K  c #806A65",
"L  c #926E66",
"P  c #9A6B63",
"I  c #936F69",
"U  c #857572",
"Y  c #867876",
"T  c #857E7C",
"R  c #9C7571",
"E  c #A37A70",
"W  c #A2837E",
"Q  c #848484",
"!  c #888382",
"~  c #8C8C8C",
"^  c #918885",
"/  c #9A8A88",
"(  c #949494",
")  c #989190",
"_  c #9C9C9C",
"`  c #A68F8A",
"'  c #AF8E89",
"]  c #A69491",
"[  c #A99E9C",
"{  c #A4A4A4",
"}  c #ADA3A2",
"|  c #ABABAB",
" . c #B0A5A3",
".. c #B6ADAB",
"X. c #B2B0AF",
"o. c #B4B4B4",
"O. c #B9B7B7",
"+. c #BCBCBC",
"@. c #BFC1C1",
"#. c #C4C4C4",
"$. c #C6C8C9",
"%. c #CBCBCB",
"&. c #CED0D0",
"*. c None",
/* pixels */
"*.*.*.*.*.*.*.*.*.*.*.*.*.*.*.*.*.*.*.o _ ( #.| *.*.*.*.*.*.*.*.*.*.*.*.*.*.*.*.*.*.*.*.*.*.*.*.",
"*.*.*.*.*.*.*.*.*.*.*.*.*.*.*.*.*.*.*.h _ { %.( *.*.*.*.*.*.*.*.*.*.*.*.*.*.*.*.*.*.*.*.*.*.*.*.",
"*.*.*.*.*.*.*.*.*.*.*.*.*.*.*.*.*.*.*.{ ( #.%.d *.*.*.*.*.*.*.*.*.*.*.*.*.*.*.*.*.*.*.*.*.*.*.*.",
"*.*.*.*.*.*.*.*.*.*.*.*.*.*.*.*.*.*.~ { | %.+.5 9 5 *.*.*.*.*.*.*.*.*.*.*.*.*.*.*.*.*.*.*.*.*.*.",
"*.*.*.*.*.*.*.*.*.*.*.*.*.*.*.*.*.4 ( ( $.&.{ *.*.5 9 *.*.*.*.*.*.*.*.*.*.*.*.*.*.*.*.*.*.*.*.*.",
"*.*.*.*.*.*.*.*.*.*.*.*.*.*.*.*.*.h ( o.$.&.~ *.*.*.*.5 p *.*.*.*.*.*.*.*.*.*.*.*.*.*.*.*.*.*.*.",
"*.*.*.*.*.*.*.*.*.*.*.*.*.*.  g W f { $.%.$.d *.*.*.*.9 | 9 *.*.*.*.*.*.*.*.*.*.*.*.*.*.*.*.*.*.",
"*.*.*.*.*.*.*.*.*.*.*.*.*.*.p ~ ( ( ( ~ @.o.( _ *.*.*._ _ @ q *.*.*.*.*.*.*.*.*.*.*.*.*.*.*.*.*.",
"*.*.*.*.*.*.*.*.*.*.*.*.*.*.| ~ > 6 | | Q Q | #.p *.p +.g *.*.5 @ *.*.*.*.*.*.*.*.*.*.*.*.*.*.*.",
"*.*.*.*.*.*.*.*.*.*.*.*.@ Q #.h Y , B  .+.g @.o.*.*._ o.*.*.*.*.+ Q q *.*.*.*.*.*.*.*.*.*.*.*.*.",
"*.*.*.*.*.*.*.*.*.*.*.*.s #.~ { %.[ V B / ( %.{ *.d #.~ *.*.*.*.d o.5 *.*.*.*.*.*.*.*.*.*.*.*.*.",
"*.*.*.*.*.*.*.*.*.*.*.4 o.{ ~ $.%.%. .J $ _ %.Q *.{ #.q *.*.*.*.{ ( *.4 @ *.*.*.*.*.*.*.*.*.*.*.",
"*.*.*.*.*.*.*.*.*.*.q ( +.Q #.%.%.%.%.+.a +.#.q d %._ *.*.*.*.g +.d *.*.4 @ @ *.*.*.*.*.*.*.*.*.",
"*.*.*.*.*.*.*.*.*.*.h #.Q o.%.$.%.%.%.| ~ %.+.4 | %.g *.*.*.*.| | *.*.*.*.+ _ p *.*.*.*.*.*.*.*.",
"*.*.*.*.*.*.*.*.4 q +._ _ %.%.%.%.%.` e | &._ d %.o.*.*.*.*.h #.Q *.*.*.*.g o.5 4 *.*.*.*.*.*.*.",
"*.*.*.*.*.*.*.*.4 | | ~ %.%.%.%.%.} M ` %.%.{ ~ #.~ *.*.*.*.o.+.9 *.*.*.*.| ( *.@ 4 *.*.*.*.*.*.",
"*.*.*.*.*.*.*.*.( +.Q #.%.$.%.%.+.C P $.%.%.%.| T 5 *.*.*.Q %.( *.*.*.*.h #.p *.*.*.4 @ *.*.*.*.",
"*.*.*.*.*.*.X g #.~ | %.%.%.%.$.P C +.%.%.%.$.%.o.d *.*.*.o.$.d *.*.*.*.o.{ *.*.*.*.*.4 4 *.*.*.",
"*.*.*.*.*.*.9 Q s ! %.%.%.%.%.` M } %.%.%.%.%.#.%.$.~ + Q &.| *.*.*.*.Q #.h *.*.*.*.*.*.*.5 *.*.",
"*.*.*.*.*.*.f | w : ! #.%.%.O.N ` %.%.%.#.| ( Q { $.%.| Q | Q *.*.*.*.o.+.*.*.*.*.*.*.*.*.*.4 5 ",
"*.*.*.*.*.*.@ h ( e m J ..&.) i #.$.%.%.O.! +.#._ ~ @.&.+.Q 4 *.*.*.~ %.( *.*.*.*.*.*.*.*.*.*.d ",
"*.*.*.*.*.9 | ( ( +.' S Z U Q +.%.%.%.%.o.( %.$.%.| Q | %.$._ 5 *.q +.#.d *.*.*.*.*.*.*.*.*.*.*.",
"*.*.*.*.d ( ~ %.{ Q o.o.u T #.%.@.@.%.%.+.~ @.%.%.%.+.~ ( $.%...q h %.| *.*.*.*.*.*.*.*.*.*.*.*.",
"*.*.*.p | ( o.%.%.+.g h | %.%.{ q g { %.%.o.( ..%.%.%.%._ Q +.%.@.( ( h *.*.*.*.*.*.*.*.*.*.*.*.",
"Q 4 9 | ( o.%.%.%._ Q +.%.+.h + ( #.~ Q #.%.#._ _ #.%.%.%.o.Q { %.%.{ 9 *.*.*.*.*.*.*.*.*.*.*.*.",
"4 9 { ( o.%.%.+.g ~ %.#.( 9 *._ %.#.h *.d o.%.%.| ( O.%.%.%.@.( ( #.%._ 4 5 ; % . *.*.*.*.*.*.*.",
"9 { ( o.%.%.o.d *.q ( d *.*.( %.o.d *.*.*.4 ( %.%.+.( | $.%.%.$.{ Q { h o.o.R V , $ *.*.*.*.*.*.",
"{ ( | %.%.{ 5 *.*.*.*.*.*.( %.{ q *.*.*.*.9 ~ ~ @.%.#.[ _ #.%.%.%.O.9 g O.%.%._ 8 c j *.*.*.*.*.",
"~ o.%.#.~ 4 5 *.*.*.*.*.~ #._ *.*.*.*.*.9 o.%._ p | %.%.| ( o.%.%._ Q o.( ~ _ Q Q L n *.*.*.*.*.",
"o.%.+.h *.*.4 9 *.*.*.~ #.~ *.*.*.*.*.9 | %.| p *.*.( #.%.@.( { | h #.%.%.o.d h { $.E x *.*.*.*.",
"%.| p *.*.*.*.*.9 4 Q +.h *.*.*.*.*.5 | %.{ 5 *.*.*.*.g +.%.%._ 9 | %.%.%.{ h ~ %.%.o.y z *.*.*.",
"( *.*.*.*.*.*.*.*.p | p *.*.*.*.*.*.{ %.~ *.*.*.*.*.g { Q | %.~ h ( #.%.o.h Q +.%.#.~ o.K *.*.*.",
"*.*.*.*.*.*.*.*.*.*.4 5 *.*.*.*.*.{ #.h *.*.*.*.*.d +.%.{ 5 g h %._ _ #.Q h | %.%._ | O.d *.*.*.",
"*.*.*.*.*.*.*.*.*.*.*.*.9 4 *.*.{ o.d *.*.*.*.*.p +.%._ *.*.*.~ %.%.( g h _ %.%.| ( +.r *.*.*.*.",
"*.*.*.*.*.*.*.*.*.*.*.*.*.@ 4 { | q *.*.*.*.*.p o.#.~ *.*.*.*.0 o.%.{ g Q #.%.+.~ @.I # *.*.*.*.",
"*.*.*.*.*.*.*.*.*.*.*.*.*.*.p ~ 5 *.*.*.*.*.q +.#.h *.*.*.*.*.1 G o.h h O.%.$.( O.] & *.*.*.*.*.",
"*.*.*.*.*.*.*.*.*.*.*.*.*.*.*.*.@ 4 *.*.*.q o.o.p *.*.*.*.*.*.- b 7 f { %.%.{ { o.2 *.*.*.*.*.*.",
"*.*.*.*.*.*.*.*.*.*.*.*.*.*.*.*.*.@ 4 *.9 o.| 9 *.*.*.*.*.*.*.*.O * v E o.O.( #.H *.*.*.*.*.*.*.",
"*.*.*.*.*.*.*.*.*.*.*.*.*.*.*.*.*.*.*.9 | ( *.*.*.*.*.*.*.*.*.*.*.*.k l V F | | = *.*.*.*.*.*.*.",
"*.*.*.*.*.*.*.*.*.*.*.*.*.*.*.*.*.*.*.9 d @ *.*.*.*.*.*.*.*.*.*.*.*.*.*.*.k N 8 *.*.*.*.*.*.*.*.",
"*.*.*.*.*.*.*.*.*.*.*.*.*.*.*.*.*.*.*.*.*.*.4 *.*.*.*.*.*.*.*.*.*.*.*.*.*.*.*.*.*.*.*.*.*.*.*.*.",
"*.*.*.*.*.*.*.*.*.*.*.*.*.*.*.*.*.*.*.*.*.*.*.4 4 *.*.*.*.*.*.*.*.*.*.*.*.*.*.*.*.*.*.*.*.*.*.*.",
"*.*.*.*.*.*.*.*.*.*.*.*.*.*.*.*.*.*.*.*.*.*.*.*.@ 4 *.*.*.*.*.*.*.*.*.*.*.*.*.*.*.*.*.*.*.*.*.*.",
"*.*.*.*.*.*.*.*.*.*.*.*.*.*.*.*.*.*.*.*.*.*.*.*.*.*.5 @ *.*.*.*.*.*.*.*.*.*.*.*.*.*.*.*.*.*.*.*.",
"*.*.*.*.*.*.*.*.*.*.*.*.*.*.*.*.*.*.*.*.*.*.*.*.*.*.*.5 + *.*.*.*.*.*.*.*.*.*.*.*.*.*.*.*.*.*.*.",
"*.*.*.*.*.*.*.*.*.*.*.*.*.*.*.*.*.*.*.*.*.*.*.*.*.*.*.*.4 Q *.*.*.*.*.*.*.*.*.*.*.*.*.*.*.*.*.*.",
"*.*.*.*.*.*.*.*.*.*.*.*.*.*.*.*.*.*.*.*.*.*.*.*.*.*.*.*.*.*.*.*.*.*.*.*.*.*.*.*.*.*.*.*.*.*.*.*.",
"*.*.*.*.*.*.*.*.*.*.*.*.*.*.*.*.*.*.*.*.*.*.*.*.*.*.*.*.*.*.*.*.*.*.*.*.*.*.*.*.*.*.*.*.*.*.*.*."
};
