/* XPM */
static char *_74[] = {
/* columns rows colors chars-per-pixel */
"48 48 117 2 ",
"   c #2F1816",
".  c #2B1D1B",
"X  c #2C2C2C",
"o  c #322928",
"O  c #343434",
"+  c #3C3C3C",
"@  c #5D1105",
"#  c #721A04",
"$  c #7A1C0E",
"%  c #662116",
"&  c #692115",
"*  c #762413",
"=  c #4D2E2A",
"-  c #522A25",
";  c #433130",
":  c #413937",
">  c #533D3A",
",  c #63352E",
"<  c #7B3026",
"1  c #74362C",
"2  c #70382C",
"3  c #40403F",
"4  c #444444",
"5  c #484545",
"6  c #484847",
"7  c #4C4B4B",
"8  c #50504F",
"9  c #545454",
"0  c #5D5655",
"q  c #5C5C5C",
"w  c #694640",
"e  c #654E48",
"r  c #6A4D49",
"t  c #7D4F48",
"y  c #71534E",
"u  c #615655",
"i  c #705957",
"p  c #646464",
"a  c #6C6C6C",
"s  c #756361",
"d  c #7A6C69",
"f  c #747474",
"g  c #7A7777",
"h  c #7B7B7B",
"j  c #821C04",
"k  c #941C02",
"l  c #8E1F14",
"z  c #94220B",
"x  c #9E210A",
"c  c #8D2F15",
"v  c #952113",
"b  c #AA2007",
"n  c #A62109",
"m  c #B32A10",
"M  c #A9351E",
"N  c #A63D1F",
"B  c #B13111",
"V  c #B53A1C",
"C  c #833E2C",
"Z  c #8F3F2F",
"A  c #873E32",
"S  c #8E3F31",
"D  c #A43E28",
"F  c #914639",
"G  c #845048",
"H  c #89594E",
"J  c #935146",
"K  c #85635F",
"L  c #976055",
"P  c #9F6253",
"I  c #A26B5E",
"U  c #8F6760",
"Y  c #816865",
"T  c #9C6F67",
"R  c #8E736F",
"E  c #8B7571",
"W  c #8E7A76",
"Q  c #817B7A",
"!  c #947972",
"~  c #937C79",
"^  c #A27F79",
"/  c #99837F",
"(  c #A7877E",
")  c #838383",
"_  c #8C8C8C",
"`  c #938A89",
"'  c #8F9090",
"]  c #949494",
"[  c #989897",
"{  c #9C9C9C",
"}  c #A38784",
"|  c #A48E8B",
" . c #A88F8B",
".. c #A9938F",
"X. c #AA9593",
"o. c #AE9E9B",
"O. c #B09C97",
"+. c #AFA29F",
"@. c #A4A4A4",
"#. c #A9A7A7",
"$. c #ABABAB",
"%. c #B0A4A2",
"&. c #B0A8A7",
"*. c #B4AAA9",
"=. c #BAACAA",
"-. c #B0B0AF",
";. c #B8B0AE",
":. c #B4B4B4",
">. c #B9B4B3",
",. c #BBB8B7",
"<. c #BBBBBB",
"1. c #C4C4C4",
"2. c #C6C7C8",
"3. c #C7C8C8",
"4. c #CBCBCB",
"5. c #CFD1D1",
"6. c None",
/* pixels */
"6.6.6.6.6.6.6.6.6.6.6.) { ,.6.6.6.6.6.6.6.6.6.6.6.6.6.6.6.6.6.6.6.6.6.6.6.6.6.6.6.6.6.6.6.6.6.6.",
"6.6.6.6.6.6.6.6.6.6.6._ [ 1.q 6.6.6.6.6.6.6.6.6.6.6.6.6.6.6.6.6.6.6.6.6.6.6.6.6.6.6.6.6.6.6.6.6.",
"6.6.6.6.6.6.6.6.6.6.6.] { 4.f 6.6.6.6.6.6.6.6.6.6.6.6.6.6.6.6.6.6.6.6.6.6.6.6.6.6.6.6.6.6.6.6.6.",
"6.6.6.6.6.6.6.6.4 h 4 { { 4.) 6.6.6.6.6.6.6.6.6.6.6.6.6.6.6.6.6.6.6.6.6.6.6.6.6.6.6.6.6.6.6.6.6.",
"6.6.6.6.6.6.6.6.6.6.6 { @.4.' 4 6 6.6.6.6.6.6.6.6.6.6.6.6.6.6.6.6.6.6.6.6.6.6.6.6.6.6.6.6.6.6.6.",
"6.6.6.6.6.6.6.6.6.6.p @.#.5.@.O 4 9 9 6 a f 6.6.6.6.6.6.6.6.6.6.6.6.6.6.6.6.6.6.6.6.6.6.6.6.6.6.",
"6.6.6.6.6.6.6.6.6.6.f @.$.4.-.6.6.6.6.6._ _ 4 9 7 + 0 a 6.6.6.6.6.6.6.6.6.6.6.6.6.6.6.6.6.6.6.6.",
"6.6.6.6.6.6.6.6.6.6.h @.-.4.<.9 6.6.6.6.{ ] 6.6.6.X h ] + 4 4 6.+ 9 6.6.6.6.6.6.6.6.6.6.6.6.6.6.",
"6.6.6.6.6.6.6.6.6.6.a _ :.4.1.a 0 6.6.6.@.{ 6.6.6.6._ { 6.6.+ + p { + + 6.6.6.6.6.6.6.6.6.6.6.6.",
"6.6.6.6.6.6.6.6.6.6.h @.2.5.4._ ,.{ 6.6.#.{ 6.6.6.6.] @.6.6.6.6.h #.O + 4 4 4 4 6.6.6.6.6.6.6.6.",
"6.6.6.6.6.6.6.6.6.+ q ] [ @.,.' :.<.6.6.-.@.6.6.6.6.{ #.6.6.6.6.h $.6.6.6.6.6.6.6 6 4 7 f 6.6.6.",
"6.6.6.6.6.6.6.6.X { _ { -.{ ' f $.2.p 6.:.@.6.6.6.6.@.$.6.6.6.6._ :.6.6.6.6.6.6.6.6.6.6.p 6.6.6.",
"6.6.6.6.6.6.6.6.9 ) Q > K X.<.@.@.2.h 6.<.#.6.6.6.6.#.-.6.6.6.6.' ,.6.6.6.6.6.6.6.6.6.6.6.6.6.6.",
"6.6.6.6.6.6.6.6.p <.u r < m D t _ 5.' 4 1.$.6.6.6.6.-.-.6.6.6.6.[ <.6.6.6.6.6.6.6.6.6.6.6.6.6.6.",
"6.6.6.6.6.6.6.6.g <._ 2.:...I 1 g 5.@.7 1.-.6.6.6.6.,.:.6.6.6.6.@.<.6.6.6.6.6.6.6.6.6.6.6.6.6.6.",
"6.6.6.6.6.6.6.4 ' $.] 4.4.4.4.:._ 4.-.q 2.,.6.6.6.6.<.<.6.6.6.6.@.1.0 6.6.6.6.6.6.6.6.6.6.6.6.6.",
"6.6.6.6.6.6.6.+ #.{ #.4.4.3.4.#.h 4.1.g { ' 6.6.6.q 1.<.6.6.6.6.#.1.q 6.6.6.6.6.6.6.6.6.6.6.6.6.",
"6.6.6.6.6.6.6.6 ,._ ,.4.4.4.2.H ` 4.4.1.:.{ h a 6.7 #.:.9 6.6.6.:.2.p 6.6.6.6.6.6.6.6.6.6.6.6.6.",
"6.6.6.6.6.6.9 a 1.) 1.4.3.4.>.Z o.4.4.4.4.4.5.1.<.#.[ ) q 6.6.+ $.2.a 6.6.6..   6.6.6.6.6.6.6.6.",
"6.6.6.6.6.6.6.h <._ 3.4.4.4.O.F ,.4.4.4.4.-.$.<.2.4.5.4.1.,.@.) ) _ 9 6.6.; l v = j 6.6.6.6.6.6.",
"6.6.6.6.6.6.6.{ #.{ 4.4.4.4.~ J 3.4.4.2.{ _ o._ _ ' @.*.<.4.4.4.2.1.-.p g ` } ~ 9 C B k 6.6.6.6.",
"6.6.6.6.6.6.7 :.[ -.4.2.4.2.P T 4.4.4.#._ 4.4.4.1.:.@.] _ _ ] @.:.1.2.) 1.5.5.$.) { +.P c # 6.6.",
"6.6.6.6.6.6.9 <._ <.4.4.4.1.F ..4.3.4.,._ 4.4.4.2.4.4.4.2.1.:.{ ' _ ) q ] ] ] f h ,.4.:.) ! + 6.",
"6.6.6.6.6.6.f <._ 2.2.4.4.>.A *.4.4.4.4.] { :.<.2.4.4.4.4.4.4.4.4.2.{ h :.:.:.h h <.4.#.#.,.5 6.",
"6.6.6.6.6.X _ #.' 5.4.4.4.<.i <.4.4.4.4.1.-.@.[ ] { #.,.1.2.4.4.4.4.] @.4.4.1.) ) 4.4.[ ,.R 6.6.",
"6.6.6.6.6.O h a w d } O.;.#._ 2.2.#.:.1.4.4.4.4.1.<.#.@.] [ @.-.<.2.) ,.4.4.:.h ] 4.2.] <.G 6.6.",
"6.6.6.6.6.+ @.] > 2 V V N e ,.4._ a ' h f ] #.<.1.4.4.4.2.1.:.@.{ ' 0 @.1.4.@.g @.4.<.] <.1 6.6.",
"6.6.6.6.6.6.4 f #.:.:.=.~ _ 4.,.4 @.4._ 6.6.6.0 _ _ [ $.<.4.4.4.4.-.f { _ #._ h ,.5.,.{ %.% 6.6.",
"6.6.6.6.6.6.f o.' _ ' ] ) 1.1.f 9 2.<.9 6.6.6.' 2.] 6.6.9 a ' @.<.{ _ 4.<.[ p / <.4.@.-.} @ 6.6.",
"6.6.6.6.6.6.h @.4.1.<.g @.4.] 6._ 4._ 6.6.6.6.,.3.f 6.6.6.f :.] 9 4 h 2.5.<.h _ 4.4.{ ,.U 6.6.6.",
"6.6.6.6.6.q @.] 4.4.,._ 4.-.6.6.*.<.9 6.6.6.f 4.#.6.6.6.6.{ 4.[ 6.6.O s #.-.h { 4.3.[ 2.Y 6.6.6.",
"6.6.6.6.6._ { :.4.4.h _ :.a 6.a 2.] 6.6.6.6.{ 3.f 6.6.6.9 <.1.q 6.6.6., D y 0 E X.| E #.a 6.6.6.",
"6.6.6.6.6.@.] 2.4.:.4 6.6.6.6.[ <.9 6.6.6.9 <.#.6.6.6.6.) 4.] 6.6.6.6.o % - $ b n x z * 6.6.6.6.",
"6.6.q 8 q @.@.4.4.) 6.6.6.6.6.,.] 6.6.6.6.h 2.f 6.6.6.6.@.<.q 6.6.6.6.6.6.6.6.6.6.6.6.6.6.6.6.6.",
"6.6.a 9 ) ] <.4.$.+ 6.6.6.6.g ,.9 6.6.6.6.@.#.6.6.6.6.q 1.] 6.6.6.6.6.6.6.6.6.6.6.6.6.6.6.6.6.6.",
"6.6.6.6.@.] 4.4.a 4 9 7 6.6.@.' 6.6.6.6.p <.f 6.6.6.6._ 1.q 6.6.6.6.6.6.6.6.6.6.6.6.6.6.6.6.6.6.",
"6.6.6.a { $.4.$.6.6.6.6.6 9 @.9 9 6.6.6._ #.6.6.6.6.6.$.[ 6.6.6.6.6.6.6.6.6.6.6.6.6.6.6.6.6.6.6.",
"6.6.6._ ] 1.2.f 6.6.6.6.6.6.6.6.4 6 4 4 #.a 6.6.6.6.a ,.q 6.6.6.6.6.6.6.6.6.6.6.6.6.6.6.6.6.6.6.",
"6.6.6.[ { 4.@.6.6.6.6.6.6.6.6.6.6.6.6.O f + 4 4 4 + ] ] 6.6.6.6.6.6.6.6.6.6.6.6.6.6.6.6.6.6.6.6.",
"6.6.9 _ ,.1.a 6.6.6.6.6.6.6.6.6.6.6.6.6.6.6.6.6.6.O ) 8 4 4 3 6.6.6.6.6.6.6.6.6.6.6.6.6.6.6.6.6.",
"6.6.a $.<.{ 6.6.6.6.6.6.6.6.6.6.6.6.6.6.6.6.6.6.6.6.6.6.6.6.+ 4 4 6 4 + 6.6.6.6.6.6.6.6.6.6.6.6.",
"6.6.6.6.6.6.6.6.6.6.6.6.6.6.6.6.6.6.6.6.6.6.6.6.6.6.6.6.6.6.6.6.6.6.6.6.+ h q 6.6.6.6.6.6.6.6.6.",
"6.6.6.6.6.6.6.6.6.6.6.6.6.6.6.6.6.6.6.6.6.6.6.6.6.6.6.6.6.6.6.6.6.6.6.6.6.6.6.6.6.6.6.6.6.6.6.6.",
"6.6.6.6.6.6.6.6.6.6.6.6.6.6.6.6.6.6.6.6.6.6.6.6.6.6.6.6.6.6.6.6.6.6.6.6.6.6.6.6.6.6.6.6.6.6.6.6.",
"6.6.6.6.6.6.6.6.6.6.6.6.6.6.6.6.6.6.6.6.6.6.6.6.6.6.6.6.6.6.6.6.6.6.6.6.6.6.6.6.6.6.6.6.6.6.6.6.",
"6.6.6.6.6.6.6.6.6.6.6.6.6.6.6.6.6.6.6.6.6.6.6.6.6.6.6.6.6.6.6.6.6.6.6.6.6.6.6.6.6.6.6.6.6.6.6.6.",
"6.6.6.6.6.6.6.6.6.6.6.6.6.6.6.6.6.6.6.6.6.6.6.6.6.6.6.6.6.6.6.6.6.6.6.6.6.6.6.6.6.6.6.6.6.6.6.6.",
"6.6.6.6.6.6.6.6.6.6.6.6.6.6.6.6.6.6.6.6.6.6.6.6.6.6.6.6.6.6.6.6.6.6.6.6.6.6.6.6.6.6.6.6.6.6.6.6."
};
