/* XPM */
static char *_8[] = {
/* columns rows colors chars-per-pixel */
"48 48 105 2 ",
"   c #231B1A",
".  c #272727",
"X  c #3C2C2B",
"o  c #343434",
"O  c #3C3C3C",
"+  c #62170A",
"@  c #761702",
"#  c #672216",
"$  c #62251C",
"%  c #6D281C",
"&  c #7A2713",
"*  c #4D2720",
"=  c #462A27",
"-  c #522824",
";  c #4F302C",
":  c #51322E",
">  c #4A3F3E",
",  c #593834",
"<  c #6C3128",
"1  c #77332A",
"2  c #40403F",
"3  c #5E413B",
"4  c #64403B",
"5  c #454544",
"6  c #4B4B4B",
"7  c #535353",
"8  c #585857",
"9  c #5C5C5C",
"0  c #664E4B",
"q  c #764C43",
"w  c #775046",
"e  c #695F5E",
"r  c #646464",
"t  c #6B6B6B",
"y  c #716867",
"u  c #756A69",
"i  c #737373",
"p  c #7B7372",
"a  c #7C7C7C",
"s  c #931801",
"d  c #981F02",
"f  c #861D10",
"g  c #A51C03",
"h  c #81220A",
"j  c #A62A0C",
"k  c #AF2D12",
"l  c #AC381B",
"z  c #802D21",
"x  c #8E2920",
"c  c #8F3C2D",
"v  c #953625",
"b  c #8B3F32",
"n  c #99452E",
"m  c #8B483D",
"M  c #914432",
"N  c #9C4B36",
"B  c #9F4A38",
"V  c #B34B2D",
"C  c #A04C3D",
"Z  c #9E4F42",
"A  c #86574F",
"S  c #8E584D",
"D  c #945449",
"F  c #9C594F",
"G  c #975E55",
"H  c #B15541",
"J  c #856B65",
"K  c #9A6B63",
"L  c #817D7D",
"P  c #9C7C75",
"I  c #A57971",
"U  c #A2847E",
"Y  c #7D8080",
"T  c #848383",
"R  c #8E8584",
"E  c #888887",
"W  c #848788",
"Q  c #8B8B8B",
"!  c #948A8A",
"~  c #94908F",
"^  c #949494",
"/  c #9C9C9C",
"(  c #A6908B",
")  c #AA928E",
"_  c #A69694",
"`  c #A99996",
"'  c #A39D9C",
"]  c #AF9F9A",
"[  c #A4A4A4",
"{  c #ABA3A2",
"}  c #A6A7A8",
"|  c #ABABAB",
" . c #B0A5A3",
".. c #B4AEAD",
"X. c #B9B1AF",
"o. c #AFB0B0",
"O. c #B4B4B3",
"+. c #B9B5B4",
"@. c #BCBCBC",
"#. c #C0BFBF",
"$. c #BEC1C1",
"%. c #C4C4C4",
"&. c #C6C8C9",
"*. c #CBCBCB",
"=. c None",
/* pixels */
"=.=.=.=.=.=.=.=.=.=.=.=.=.=.=.=.=.=.=.=.=.=.=.=.=.=.o t 7 =.=.=.=.=.=.=.=.=.=.=.=.=.=.=.=.=.=.=.",
"=.=.=.=.=.=.=.=.=.=.=.=.=.=.=.=.=.=.=.=.=.=.=.=.=.5 5 =.=.=.=.=.=.=.=.=.=.=.=.=.=.=.=.=.=.=.=.=.",
"=.=.=.=.=.=.=.=.=.=.=.=.=.=.=.=.=.=.=.=.=.=.=.=.6 =.=.=.=.=.=.=.=.=.=.=.=.=.=.=.=.=.=.=.=.=.=.=.",
"=.=.=.=.=.=.=.=.=.=.=.=.=.=.=.=.=.=.=.=.=.=.O 5 =.=.=.=.=.=.=.=.=.=.=.=.=.=.=.=.=.=.=.=.=.=.=.=.",
"=.=.=.=.=.=.=.=.=.=.=.=.=.=.=.=.=.=.=.=.=.5 5 =.=.=.=.=.=.=.=.=.=.=.=.=.=.=.=.=.=.=.=.=.=.=.=.=.",
"=.=.=.=.=.=.=.=.=.=.=.=.=.=.=.=.=.=.=.=.6 =.=.=.=.=.=.=.=.=.=.=.=.=.=.=.=.=.=.=.=.=.=.=.=.=.=.=.",
"=.=.=.=.=.=.=.=.=.=.=.=.=.=.=.=.=.O / r =.=.=.=.=.=.=.=.=.=.=.=.=.=.=.@ h 3 =.=.=.=.=.=.=.=.=.=.",
"=.=.=.=.=.=.=.=.=.=.=.=.=.=.=.=.=.O t @.T =.=.=.=.=.=.=.=.=.=.=.=.d j M J @.u =.=.=.=.=.=.=.=.=.",
"=.=.=.=.=.=.=.=.=.=.=.=.=.=.=.o 5 =.=.a @.^ =.=.=.=.=.=.=.=.  = & N ) @.^ o.{ % =.=.=.=.=.=.=.=.",
"=.=.=.=.=.=.=.=.=.=.=.=.=.7 O 5 =.=.=.=.a %.[ 7 =.=.=.=.=.=.f 1 9 E %.*.%.Q $.P + =.=.=.=.=.=.=.",
"=.=.=.=.=.=.=.=.=.=.=.=.5 [ T =.=.=.=.=.=.T %...r =.=.=.=.X x ) / Y ^ &.*.O.^ $.A =.=.=.=.=.=.=.",
"=.=.=.=.=.=.=.=.=.=.=.5 O 9 +.^ =.=.=.=.=.=.E &.@.i =.=.=.O R *.+.t a [ *.*./ } +.1 =.=.=.=.=.=.",
"=.=.=.=.=.=.=.=.=.=.7 5 =.=.t @.} 7 =.=.=.=.=.E &.%.E =.=.9 &.%.Q ' a a @.*.%.^ +._ $ =.=.=.=.=.",
"=.=.=.=.=.=.=.=.i 6 =.=.=.=.=.t @.+.r =.=.=.=.=.Q &.+.t ^ L } ^ | *.} a E %.*.%.Q %.' 5 =.=.=.=.",
"=.=.=.=.=.=.=.5 / [ 6 =.=.=.=.=.t @.$.a =.=.=.=.=.a E O.*.O.7 ^ *.*.&.^ a ^ *.*.| / O.4 =.=.=.=.",
"=.=.=.=.=.=.7 5 =.} | r =.=.=.=.=.i %.%.Q =.=.=.=.a %.*.@.Q a T &.*.*.%.a a | *.*.^ c @ =.=.=.=.",
"} r =.=.6 7 =.=.=.=.} @.i =.=.=.=.=.p %.*./ O 7 ' *.&.} E O.*.Q / &.@./ a i Y @.+.Z s =.=.=.=.=.",
"*.%.Q 6 5 =.=.=.=.=.7 | %.E =.=.=.=.=.a #.[ a O.*.%.^ ^ #.&.&.%.i T Q } %.' a Y Z g =.=.=.=.=.=.",
"~ %.*.} r =.=.=.7 =.=.8 | &.^ =.=.=.=.=.r ^ *.*.+.W [ &.&.&.*.| T r %.*.*.&.a , g =.=.=.=.=.=.=.",
"[ ^ %.*.$.^ 2 i @.| t =.7 O.*.} 7 =.=.9 } *.&.' W +.*.*.*.%./ ' %./ a O.! F v * =.=.=.=.=.=.=.=.",
"i [ ^ %.*.*.| E } *.%.^ 5 6 +.*.| 5 a @.*.#.Q ^ &.*.*.&.+.^ | *.*.O.5 o 2 < #   =.=.=.=.=.=.=.=.",
"=.T } ^ %.*.*.%.T L %.*.+.i 7 } ^ / &.&.| T | &.*.&.*.} ^ #.*.&./ r =.=.=.=.=.=.=.=.=.=.=.=.=.=.",
"=.=.Q } ^ *.&./ E [ Y } *.*./ E @.*.*.[ ^ #.*.*.*.#.^ } %.*.@.a / } =.=.=.=.=.=.=.=.=.=.=.=.=.=.",
"=.=.=.U Q @.Q / $.` M : ^ &.*.*.&.&.%.Q %.*.*.*...~ +.*.*.[ 7 7 %.%.u =.=.=.=.=.=.=.=.=.=.=.=.=.",
"=.=.=.=.T Y } { F k C ` / E &.*.&.*.%.Q &.*.%.[ / $.*.$.W =.=.=.Q *./ =.=.=.=.=.=.=.=.=.=.=.=.=.",
"=.=.=.=.5 T p : z I @.*.%.q ` *.*.*.&.Q ! } ^ } &.*.o.W t =.=.=.7 +.@.7 =.=.=.=.=.=.=.=.=.9 a =.",
"=.=.=.=.t [ y , } *.*.*.&.P M +.*.*.*.&.+./ @.&.&.^ t @.| =.=.=.=.Q &.T =.=.=.=.=.=.=.=.5 O =.=.",
"=.=.=.=.. a } T @.*.&.*.&.%.D G %.*.*.*.*.*.*.@.U =.7 +.&.i =.=.=.=.+.} =.=.=.=.=.=.=.6 =.=.=.=.",
"=.=.=.=.=.5 } O.T %.*.&.*.*...c ( &.&.*.*.*.} 9 =.=.=.Q *./ =.=.=.=.T %.t =.=.=.=.5 5 =.=.=.=.=.",
"=.=.=.=.=.=.7 +./ ^ *.*.*.*.*.( v { *.*.%./ Q T =.=.=.=.+.@.7 =.=.=.=.o.^ =.=.=.6 O =.=.=.=.=.=.",
"=.=.=.=.=.=.o i %.Q | *.*.&.*.&.K m @.*.| r &.O.=.=.=.=.T &.E =.=.=.=.a +.6 O 5 =.=.=.=.=.=.=.=.",
"=.=.=.=.=.=.=.=.! @.T #.*.*.*.*.%.J L *.@.6 o.*.p =.=.=.=.O.| =.=.=.=.=.} i o =.=.=.=.=.=.=.=.=.",
"=.=.=.=.=.=.=.=.5 | | Q &.&.*.*.*.*.R @.*.r i &.[ =.=.=.=.a %.t =.=.=.=.r i =.=.=.=.=.=.=.=.=.=.",
"=.=.=.=.=.=.=.=.9 9 @.^ [ *.*.*.*.#.q ^ *.! =.| #.9 =.=.=.=.} / =.=.5 5 =.=.=.=.=.=.=.=.=.=.=.=.",
"=.=.=.=.=.=.=.=.=.=.a %.E O.*.*.] V n T *.} =.i &.Q =.=.=.=.i +.6 5 O =.=.=.=.=.=.=.=.=.=.=.=.=.",
"=.=.=.=.=.=.=.=.=.=.6 / @.E #.R l C +.Q #.@.=.=.[ +.=.=.=.=.=.[ p =.=.=.=.=.=.=.=.=.=.=.=.=.=.=.",
"=.=.=.=.=.=.=.=.=.=.=.6 O./ 0 * S @.} t } &.i =.t $.p =.=.=.2 7 9 =.=.=.=.=.=.=.=.=.=.=.=.=.=.=.",
"=.=.=.=.=.=.=.=.=.=.=.=.t Q p e o.^ ^ } ! %.i =.=./ / =.=.7 O =.=.=.=.=.=.=.=.=.=.=.=.=.=.=.=.=.",
"=.=.=.=.=.=.=.=.=.=.=.=.o t | a Q } *.&.T i =.=.=.r +.9 7 =.=.=.=.=.=.=.=.=.=.=.=.=.=.=.=.=.=.=.",
"=.=.=.=.=.=.=.=.=.=.=.=.=.5 5 9 +.%.*.&./ =.=.=.=.=.~ i =.=.=.=.=.=.=.=.=.=.=.=.=.=.=.=.=.=.=.=.",
"=.=.=.=.=.=.=.=.=.=.=.=.=.=.=.7 W Q &.*.#.9 =.=.=.7 O =.=.=.=.=.=.=.=.=.=.=.=.=.=.=.=.=.=.=.=.=.",
"=.=.=.=.=.=.=.=.=.=.=.=.=.=.=.=.a ' } *.&.L =.6 7 =.=.=.=.=.=.=.=.=.=.=.=.=.=.=.=.=.=.=.=.=.=.=.",
"=.=.=.=.=.=.=.=.=.=.=.=.=.=.=.=.=.} ^ %.*.} 5 6 =.=.=.=.=.=.=.=.=.=.=.=.=.=.=.=.=.=.=.=.=.=.=.=.",
"=.=.=.=.=.=.=.=.=.=.=.=.=.=.=.=.=.T [ } *.%.8 =.=.=.=.=.=.=.=.=.=.=.=.=.=.=.=.=.=.=.=.=.=.=.=.=.",
"=.=.=.=.=.=.=.=.=.=.=.=.=.=.=.=.=.=.[ Q &.*.Q =.=.=.=.=.=.=.=.=.=.=.=.=.=.=.=.=.=.=.=.=.=.=.=.=.",
"=.=.=.=.=.=.=.=.=.=.=.=.=.=.=.=.=.O t [ } *.o.=.=.=.=.=.=.=.=.=.=.=.=.=.=.=.=.=.=.=.=.=.=.=.=.=.",
"=.=.=.=.=.=.=.=.=.=.=.=.=.=.=.=.6 T o / ^ %.%.u =.=.=.=.=.=.=.=.=.=.=.=.=.=.=.=.=.=.=.=.=.=.=.=.",
"=.=.=.=.=.=.=.=.=.=.=.=.=.=.=.=.=.=.=.t / [ *.^ =.=.=.=.=.=.=.=.=.=.=.=.=.=.=.=.=.=.=.=.=.=.=.=."
};
