/* XPM */
static char *_2[] = {
/* columns rows colors chars-per-pixel */
"48 48 112 2 ",
"   c #3C1713",
".  c #311F1D",
"X  c #3C1E1D",
"o  c #252223",
"O  c #292929",
"+  c #343434",
"@  c #3C3C3C",
"#  c #531100",
"$  c #671C11",
"%  c #612013",
"&  c #6C241E",
"*  c #492824",
"=  c #582B25",
"-  c #512F2B",
";  c #413736",
":  c #4D3735",
">  c #5D3F39",
",  c #77382E",
"<  c #663E36",
"1  c #783F31",
"2  c #674036",
"3  c #444444",
"4  c #4B4B4B",
"5  c #5D4745",
"6  c #535353",
"7  c #5E5555",
"8  c #5B5B5B",
"9  c #694642",
"0  c #665A57",
"q  c #6B5856",
"w  c #60605F",
"e  c #646464",
"r  c #686666",
"t  c #6C6C6C",
"y  c #716564",
"u  c #726967",
"i  c #726D6D",
"p  c #796B69",
"a  c #747473",
"s  c #797777",
"d  c #7C7C7C",
"f  c #831701",
"g  c #841800",
"h  c #8B1805",
"j  c #941902",
"k  c #A31B02",
"l  c #972004",
"z  c #8A2E14",
"x  c #822519",
"c  c #9B2513",
"v  c #A12809",
"b  c #A22710",
"n  c #A12B15",
"m  c #BB3F1D",
"M  c #813226",
"N  c #8F3322",
"B  c #8F3A2B",
"V  c #983524",
"C  c #A33F2E",
"Z  c #B53C21",
"A  c #A73E31",
"S  c #824A3E",
"D  c #904032",
"F  c #AB442B",
"G  c #855048",
"H  c #945449",
"J  c #A05344",
"K  c #AA5E4A",
"L  c #8F6257",
"P  c #84655D",
"I  c #8B6058",
"U  c #97665E",
"Y  c #986158",
"T  c #876963",
"R  c #8F6F6B",
"E  c #81706E",
"W  c #827372",
"Q  c #A77C6F",
"!  c #A67B70",
"~  c #82807F",
"^  c #A1817B",
"/  c #848484",
"(  c #868888",
")  c #8B8B8B",
"_  c #938E8D",
"`  c #939393",
"'  c #989797",
"]  c #9C9C9C",
"[  c #A38983",
"{  c #A58E8A",
"}  c #A6918D",
"|  c #A09897",
" . c #AB9A98",
".. c #B29995",
"X. c #9D9FA0",
"o. c #A3A3A3",
"O. c #ACA5A4",
"+. c #ACACAC",
"@. c #B0A4A2",
"#. c #B2A8A7",
"$. c #B3ABA9",
"%. c #B0B0AF",
"&. c #B3B3B3",
"*. c #B8B5B4",
"=. c #B7B9B9",
"-. c #BCBCBC",
";. c #BFC1C2",
":. c #C3C3C3",
">. c #C6C8C8",
",. c #CBCBCB",
"<. c #D0D0D0",
"1. c None",
/* pixels */
"1.1.1.1.1.1.1.1.1.1.1.1.1.1.1.1.1.1.1.1.1.1.1.1.1.1.1.1.1.1.1.1.1.1.1.1.1.1.1.1.1.1.1.1.1.1.1.1.",
"1.1.1.1.1.1.1.1.1.1.1.1.1.1.1.1.1.1.1.1.1.1.1.1.1.8 a 1.1.1.1.1.1.1.1.1.1.1.1.1.1.1.1.1.1.1.1.1.",
"1.1.1.1.1.1.1.1.1.1.1.1.1.1.1.1.1.1.1.1.1.1.1.1.1.1.8 1.1.1.1.1.1.1.1.1.1.1.1.1.1.1.1.1.1.1.1.1.",
"1.1.1.1.1.1.1.1.1.1.1.1.1.1.1.1.1.1.1.1.1.1.1.1.1.1.1.4 1.1.1.1.1.1.1.1.1.1.1.1.1.1.1.1.1.1.1.1.",
"1.1.1.1.1.1.1.1.1.1.1.1.1.X d S f 1.1.1.1.1.1.1.1.1.1.3 4 1.1.1.1.1.1.1.1.1.1.1.1.1.1.1.1.1.1.1.",
"1.1.1.1.1.1.1.1.1.1.1.1.$ R ,.' N j 1.1.1.1.1.1.1.1.1.1.3 1.1.1.1.1.1.1.1.1.1.1.1.1.1.1.1.1.1.1.",
"1.1.1.1.1.1.1.1.1.1.1., } ;.] ] O.F j 1.1.1.1.1.1.1.1.1.1.3 1.1.1.1.1.1.1.1.1.1.1.1.1.1.1.1.1.1.",
"1.1.1.1.1.1.1.1.1.$ I *.&._ +.,.,.O.V h 1.1.1.1.1.1.1.1.1.@ 3 1.1.1.1.1.1.1.1.1.1.1.1.1.1.1.1.1.",
"1.1.1.1.1.1.1.1.< { ;.] ` -.,.,.:.' r - * 1.1.1.1.1.1.1.1.1.3 1.1.1.1.1.1.1.1.1.1.1.1.1.1.1.1.1.",
"1.1.1.1.1.1.1.) :.&.` o.>.,.,.%./ d ( T b . 1.1.1.1.1.1.1.1.1.3 1.1.1.1.1.1.1.1.1.1.1.1.1.1.1.1.",
"1.1.1.1.1.1.# L X.) -.,.,.:.' d t ) >.@.M ; 1.1.1.1.1.1.1.1.1.3 8 1.1.1.1.1.1.1.1.1.1.1.1.1.1.1.",
"1.1.1.1.1.1.1.z _ ,.,.,.%./ d / ) X.<.-.7 1.1.1.1.1.1.1.1.t ' &.] 4 1.1.1.1.1.1.1.1.1.1.1.1.1.1.",
"1.1.1.1.1.1.1.l ! <.:.' d d ' :.:.) >.,.e 1.1.1.1.1.r ) &.-.+.a + 3 1.1.1.1.1.1.1.1.1.1.1.1.1.1.",
"1.1.1.1.1.1.1.g F o.) s d %.,.,.,.' +.) 8 1.1.w ( +.>.>.o.a 1.1.1.@ 3 1.1.1.1.1.1.1.1.1.1.1.1.1.",
"1.1.1.1.1.1.1.1.v 0 / ( / -.,.,.,.] 6 ` :.s ` :.,.>.o.t 1.1.1.1.1.1.3 1.1.1.1.1.1.1.1.1.1.1.1.1.",
"1.1.1.1.1.1.1.1.% : ` ,.&.( -.:.' d ( &.,.&.) :.| t 1.1.1.1.1.1.1.1.1.3 3 1.1.1.1.1.1.1.1.1.1.1.",
"1.1.1.1.1.1.1.1.o x A O.,.-.s t ) :.:.` :.,.' 6 1.1.1.1.1.1.1.1.1.e ` +./ 1.1.1.1.1.1.1.1.1.1.1.",
"1.1.1.1.1.1.1.1.1.  & 5 o.] t a >.,.,.+.] ,.:.i 1.1.1.1.1.1.w ) &.-.o.a @ 1.1.1.1.1.1.1.1.1.1.1.",
"1.1.1.1.1.1.1.1.1.1.1.1.O d :.o.' ,.,.,.] +.,.&.6 1.1.6 / o.:.>.o.t 1.1.1.4 1.1.1.1.1.1.1.1.1.1.",
"~ 1.1.1.1.1.1.1.1.1.1.1.1.t :.,.) +.,.,.:.` :.,.` 8 o.-.,.>.] t 1.1.1.1.1.1.6 1.1.1.1.1.1.1.1.1.",
"+ 3 1.1.1.1.1.1.1.1.1.1.1./ ' ,.-./ :.,.,.$.] ,.>.) &.>.| t 1.1.1.1.1.1.1.1.4 + 1.1.1.1.1.1.1.1.",
"1.3 1.1.1.1.1.1.1.1.1.1.] ,.) +.,.o.` ,.,.,.] +.,.&.s e 1.1.1.1.1.1.1.1.1.t _ o.4 1.1.1.1.1.1.1.",
"1.1.4 1.1.1.1.1.1.1.1.' ,.;.t e :.,.) +.,.,.:.` ;.,.` 1.1.1.1.1.1.1.8 ) +.-.] e 3 1.1.1.1.1.1.1.",
"1.1.@ 3 1.1.1.1.1.1.( ,.&.t 1.1.) ,.;.( :.,.,.%.' ,.>.d 1.1.1.8 / o.:.:.] e 1.1.6 3 1.1.1.1.1.1.",
"1.1.1.3 1.1.1.1.1.d >.&.0 1.1.1.1.+.<.o._ ,.,.,.| +.,.-.4 i o.-.,.:.' e 1.1.1.1.1.6 1.1.1.1.1.1.",
"1.1.1.1.3 1.1.1.a :.+.6 1.1.1.1.8 ~ ;.,.) +.,.,.>.` :.,.] ` ,.:.` 8 1.1.1.1.1.1.1.3 4 1.1.e ) o.",
"1.1.1.1.@ 3 1.t -.o.1.1.1.1.1.8 &.o._ ,.;.( -.,.,.] o.,.>.( d 6 @ e ~ ] +.O.6 1.1.1.8 / +.:.,.,.",
"1.1.1.1.1.@ 6 &.] 1.1.1.1.1.1.+.<.%.6 +.,.O.' >.>.) -.,.,.-._ o.-.>.,.,.>.&.t 8 ) +.:.,.,.>.&.' ",
"1.1.1.1.1.@ o.) 1.1.1.1.1.1.o.,.+.6 1.e -.,.] ( ( ` ,.,.,.,.,.<.>.*.o.( i ` +.:.,.,.,.,.%.` ] X.",
"1.1.1.1.1.1.e @ 1.1.1.1.1.' ,.o.1.1.1.1./ ,.,.:.:.>.,.,.,.,.;.` ( 2 P &./ -.,.,.,.>.+.` ] o.~ 1.",
"1.1.1.1.1.1.1.3 1.1.1.1.) ,.' 1.1.1.1.1.8 +.,.>.,.>.,.,.,.#.G W ;.! m ..&.( >.>.+._ | +.~ 4 @ 1.",
"1.1.1.1.1.1.1.1.4 1.1./ :._ 1.1.1.1.1.~ =.` :.,.,.,.,.;.! B U :.,.;.K Z #.] X.&./ +.( 1.1.8 s 1.",
"1.1.1.1.1.1.1.1.1.@ s -.( 1.1.1.1.1.a -.,.( o.,.,.,.$.H D } >.,.>.,.*.1 2 X.d X.e 1.1.1.1.1.1.1.",
"1.1.1.1.1.1.1.1.1.e &.d 1.1.1.1.1.e -.,.( 7 ;.,.:.^ B Y *.,.,.,.,.>.,.' - W a O 1.1.1.1.1.1.1.1.",
"1.1.1.1.1.1.1.1.1.t e 1.1.1.1.1.8 &.>.( + o.,.&.u S } >.,.,.,.,.,.,.-.) t ) ' 1.1.1.1.1.1.1.1.1.",
"1.1.1.1.1.1.1.1.1.1.+ 3 1.1.1.4 +.:.d 1.( ,.;./ %.:.,.>.,.>.,.,.>.o.( %.=.s + 1.1.1.1.1.1.1.1.1.",
"1.1.1.1.1.1.1.1.1.1.1.4 3 1.1.o.-.a 1.e ;.,.u 9 :.,.,.,.,.>.,.-._ ` :.o.6 O 1.1.1.1.1.1.1.1.1.1.",
"1.1.1.1.1.1.1.1.1.1.1.1.6 @ ] &.t 1.1.O.,.| p b [ ,.,.,.,.>.o.( $.-./ 3 1.1.1.1.1.1.1.1.1.1.1.1.",
"1.1.1.1.1.1.1.1.1.1.1.1.@ ) &.8 1.1./ ,.+.a ;.H F *.,.,.-.( ` :.o.8 1.1.1.1.1.1.1.1.1.1.1.1.1.1.",
"1.1.1.1.1.1.1.1.1.1.1.1.1.) 4 1.1.1.) -.( ( +. .c E ,.o./ +.;.W e 1.1.1.1.1.1.1.1.1.1.1.1.1.1.1.",
"1.1.1.1.1.1.1.1.1.1.1.1.1.1.6 1.1.1.1.s +.:.( =.q = i ` -.+.8 1.1.1.1.1.1.1.1.1.1.1.1.1.1.1.1.1.",
"1.1.1.1.1.1.1.1.1.1.1.1.1.1.1.6 1.1.1.` ,.,.O.` _ y s :.( @ 3 1.1.1.1.1.1.1.1.1.1.1.1.1.1.1.1.1.",
"1.1.1.1.1.1.1.1.1.1.1.1.1.1.1.4 3 1.s >.,.>.;.` s +.( t 1.1.1.1.1.1.1.1.1.1.1.1.1.1.1.1.1.1.1.1.",
"1.1.1.1.1.1.1.1.1.1.1.1.1.1.1.1.4 6 &.,.,.o./ ' 3 s 3 1.1.1.1.1.1.1.1.1.1.1.1.1.1.1.1.1.1.1.1.1.",
"1.1.1.1.1.1.1.1.1.1.1.1.1.1.1.1.+ ] ,.>.] ] ] @ 1.1.1.1.1.1.1.1.1.1.1.1.1.1.1.1.1.1.1.1.1.1.1.1.",
"1.1.1.1.1.1.1.1.1.1.1.1.1.1.1.1./ ,.>.] o.] 1.1.1.1.1.1.1.1.1.1.1.1.1.1.1.1.1.1.1.1.1.1.1.1.1.1.",
"1.1.1.1.1.1.1.1.1.1.1.1.1.1.1.t -.>.' ] ) 1.1.1.1.1.1.1.1.1.1.1.1.1.1.1.1.1.1.1.1.1.1.1.1.1.1.1.",
"1.1.1.1.1.1.1.1.1.1.1.1.1.1.1.o.,.) o.s 1.1.1.1.1.1.1.1.1.1.1.1.1.1.1.1.1.1.1.1.1.1.1.1.1.1.1.1."
};
