/* XPM */
static char *_5[] = {
/* columns rows colors chars-per-pixel */
"48 48 111 2 ",
"   c #321D1A",
".  c #2D2D2D",
"X  c #333333",
"o  c #3C3C3C",
"O  c #4B0E00",
"+  c #5D1206",
"@  c #401E19",
"#  c #7F1B01",
"$  c #641F15",
"%  c #711E12",
"&  c #662113",
"*  c #6C2A1C",
"=  c #76241C",
"-  c #4E2621",
";  c #4A2D2A",
":  c #512822",
">  c #612E27",
",  c #6F3026",
"<  c #68332C",
"1  c #653D37",
"2  c #733E35",
"3  c #444444",
"4  c #4B4B4B",
"5  c #5B4C4A",
"6  c #535353",
"7  c #5B5B5B",
"8  c #63514E",
"9  c #69524E",
"0  c #675A58",
"q  c #60605F",
"w  c #646464",
"e  c #6B6666",
"r  c #6C6C6C",
"t  c #7C6E6C",
"y  c #737373",
"u  c #7C7C7C",
"i  c #8A1C01",
"p  c #9B1B02",
"a  c #842109",
"s  c #872B1F",
"d  c #91381F",
"f  c #A72303",
"g  c #AA2A12",
"h  c #8E3D2F",
"j  c #933B2A",
"k  c #8E3E31",
"l  c #AD3122",
"z  c #AE3C24",
"x  c #9C4638",
"c  c #914A3D",
"v  c #B54229",
"b  c #A34733",
"n  c #B2563C",
"m  c #804942",
"M  c #86544C",
"N  c #875C4F",
"B  c #835A54",
"V  c #945D54",
"C  c #966358",
"Z  c #95695D",
"A  c #A16459",
"S  c #B36A5A",
"D  c #9B6E63",
"F  c #936F69",
"G  c #8A7069",
"H  c #9C736B",
"J  c #867F7F",
"K  c #8B7C79",
"L  c #9F7570",
"P  c #997C74",
"I  c #917C7B",
"U  c #A36D64",
"Y  c #AB7263",
"T  c #A97A6E",
"R  c #838383",
"E  c #898381",
"W  c #888887",
"Q  c #8B8B8B",
"!  c #928481",
"~  c #9B8481",
"^  c #908F8F",
"/  c #9B8F8C",
"(  c #949494",
")  c #9E9796",
"_  c #989897",
"`  c #959798",
"'  c #9C9C9C",
"]  c #A48984",
"[  c #A78E8A",
"{  c #A99996",
"}  c #A19E9D",
"|  c #AFA19F",
" . c #A3A3A3",
".. c #AFA3A1",
"X. c #A8A8A7",
"o. c #A7AAAA",
"O. c #ABABAB",
"+. c #B1A6A4",
"@. c #B3B0AF",
"#. c #AEB1B1",
"$. c #B3B3B3",
"%. c #B9B5B5",
"&. c #B5B8B8",
"*. c #BCBCBC",
"=. c #BFC2C2",
"-. c #C4C4C4",
";. c #C7C9CA",
":. c #CBCBCB",
">. c #CCCFD0",
",. c #D1D0D0",
"<. c None",
/* pixels */
"<.<.<.<.<.<.<.<.<.<.<.<.<.<.<.<.<.<.<.<.<.<.<.<.<.<.<.<.<.<.<.<.<.<.<.6 u y <.<.<.<.<.<.<.<.<.<.",
"<.<.<.<.<.<.<.<.<.<.<.<.<.<.<.<.<.<.<.<.<.<.<.<.<.<.<.<.<.<.<.<.<.<.7 %.*.W <.<.<.<.<.<.<.<.<.<.",
"<.<.<.<.<.<.<.<.<.<.<.<.<.<.<.<.<.<.<.<.<.<.<.<.<.<.<.<.<.<.<.<.<.<.y :. .W <.<.<.<.<.<.<.<.<.<.",
"<.<.<.<.<.<.<.<.<.<.<.<.<.<.<.<.<.<.<.<.<.<.<.<.<.<.<.<.<.<.<.<.<.<.J :. .' <.<.<.<.<.<.<.<.<.<.",
"<.<.<.<.<.<.<.<.<.<.<.<.<.<.<.<.<.<.<.<.<.<.<.<.<.<.<.<.<.<.<.<.<.<.Q :.o.' <.<.<.<.<.<.<.<.<.<.",
"<.<.<.<.<.<.<.<.<.<.<.<.<.<.<.<.<.<.<.<.<.<.<.<.<.<.<.<.<.<.<.<.<.<._ :.X.' 7 <.<.<.<.<.<.<.<.<.",
"<.<.<.<.<.<.<.<.<.<.<.<.<.<.<.<.<.<.<.<.<.<.<.<.<.<.<.<.<.<.<.<.<.<. .:.o. .7 y 7 <.<.<.<.<.<.<.",
"<.<.<.<.<.<.<.<.<.<.<.<.<.<.<.<.<.<.<.<.<.<.<.<.<.<.<.<.<.<.<.<.3 o X.:.O. .q 4 <.<.<.<.<.<.<.<.",
"<.<.<.<.<.<.<.<.<.<.<.<.<.<.<.<.<.<.<.<.<.<.<.<.<.<.<.w u 3 7 4 4 3 #.:.@. .y <.<.<.<.<.<.<.<.<.",
"<.<.<.<.<.<.<.<.<.<.<.<.<.<.<.<.<.<.<.<.<.r r o 4 6 4 R ' <.<.<.<.<.&.:.O. .y <.<.<.<.<.<.<.<.<.",
"<.<.<.<.<.<.<.<.<.<.<.<.<.<.<.y 7 o 3 3 o ( Q <.<.<.<.Q  .<.<.<.<.q =.:.$. .u <.<.<.<.<.<.<.<.<.",
"<.<.<.<.<.<.<.<.<.<.o 3 3 3 o  .y <.<.<.<.' ( <.<.<.<.(  .<.<.<.<.0 -.:.$.( y <.<.<.<.<.<.<.<.<.",
"<.<.<.<.y 4 3 4 3 3 <.<.<.<.<.O.u <.<.<.<. .' <.<.<.<.' o.<.<.R  .R :.:.=.^ e <.<.<.<.<.<.<.<.<.",
"<.<.<.<.e 3 <.<.<.<.<.<.<.<.<.$.R <.<.<.<.o.' <.<.<.<. .O.<.<.%.*.Q :.-.&.O.r <.<.<.<.<.<.<.<.<.",
"<.<.<.<.<.<.<.<.<.<.<.<.<.<.<.&.R <.<.<.<.$. .<.<.<.<.o.$.<.w -.$.r Q W ^ ^ w e <.<.<.<.<.<.<.<.",
"<.<.<.<.<.<.<.<.<.<.<.<.<.<.7 *.W <.<.<.<.%. .<.<.<.<.$.$.<.u :. .( =.%.} r } W X <.<.<.<.<.<.<.",
"<.<.<.<.<.<.<.<.<.<.<.<.<.<.w -.Q <.<.<.<.*. .<.<.<.<.%.%.X ( ,.Q P S v * : 0 Q 6 <.<.<.<.<.<.<.",
"<.<.<.<.<.<.<.<.<.<.<.<.<.<.e ;.Q <.<.<.7 -.o.<.<.<.<.*.&.3 O.:.t d n Y / X.R =.7 <.<.<.<.<.<.<.",
"<.<.<.<.<.<.<.<.<.<.<.<.<.<.y :.( <.<.<.w -.O.<.<.<.w -.&.6 *.:.E @.-.:.:.:.W *.r <.<.<.<.<.<.<.",
"<.<.<.<.<.<.<.<.<.<.<.<.<.<.u :.' <.<.<.y :.$.<.<.<.4 ' Q y ;.-.y *.:.:.:.:.( %.R 3 <.<.<.<.<.<.",
"<.<.<.<.<.<.<.<.  @ <.<.<.<.W >.' <.<.<.w  .W 4 w u W  .$.-.;.-.B ~ :.:.:.:.' o.' <.<.<.<.<.<.<.",
"<.<.<.<.<.<.p % > g < o <.<.R O.R o 0 y R  .O.&.-.:.:.:.:.:.:.:.H V -.:.:.:.O.' O.o <.<.<.<.<.<.",
"<.<.<.<.p g x 8 y { ~ u 3 e W '  .&.-.;.:.:.:.:.-.*.$.*.:.:.:.:.[ c =.:.:.:.*.Q &.w 4 <.<.<.<.<.",
"<.<.& j C ..=.R R ;.:.>.W ' ,.,.:.:.-.=.%.o. ._ ( ' ' W %.:.:.:.+.h %.:.:.:.-.Q -.7 <.<.<.<.<.<.",
"<.<.R $.' :.:.Q u o.&.-.' W *.O. ._ ( _ | o.%.=.-.:.:.%.R -.:.:.&.k | :.:.:.;.W *.y <.<.<.<.<.<.",
"<.<.G -.( -.:.' y u ( Q u q ' X.$.=.-.:.;.:.:.:.:.:.:.&.^ :.:.:.-.c ] :.:.:.:.^ $.Q 3 <.<.<.<.<.",
"<.<., %.( =.:.X.u  .:.;.=.u -.:.:.:.;.:.:.:.:.:.-.&.$.W @.:.;.;.:.C U :.;.:.:.|  . .<.<.<.<.<.<.",
"<.<.$ | } $.:.%.u ` :.:.;.J *.:.:.:.-.*.#.} ( Q W Q ' $.:.-.:.:.:.I ! ,.:.:.:.@.( $.o <.<.<.<.<.",
"<.<.+ ] O.X.:.=.R W ;.;.>.R '  .( Q W Q (  .$.*.;.:.:.:.;.-.&.-.:. .' -.=.*.O.{ e O.7 <.<.<.<.<.",
"<.<.<.F &.' :.-.R R =.*.} e r  .O.*.;.:.,.:.:.-.%.o.' R y ^ W u :.-.y 9 b z s - 9 ( w <.<.<.<.<.",
"<.<.<.M *.( :.:.^ y R Q o. .Q ,.:.;.*.O.} W R Q y <.<.<.7 *.-.6 ' :._ 1 A U L R u ' y <.<.<.<.<.",
"<.<.<.2 *.^ -.:.| y ' :.>.#.w ( W Q e <.<.<.r -.&.<.<.<.<.} :.J 7 *.;.W &.&.o.' Q w <.<.<.<.<.<.",
"<.<.<.5 -.` *.>.#.R ' %.K 6 <.<.W ;. .<.<.<.<.$.:.y <.<.<.r :.o.<.W :.o.r ^ ' O.$.' 3 <.<.<.<.<.",
"<.<.<.4 G N Z T D 8 5 l = . <.<.w -.*.6 <.<.<.R :.( <.<.<.<. .-.7 <.O.:.Q %.>.>.O.W r <.<.<.<.<.",
"<.<.<.<.O i a p f a ; &   <.<.<.<.' ;.u <.<.<.<.&.%.<.<.<.<.u ;.R <.r -.$.W ;.:.*.' ` <.<.<.<.<.",
"<.<.<.<.<.<.<.<.<.<.<.<.<.<.<.<.<.e ;.| <.<.<.<.Q -.y <.<.<.<.$.X.<.<.r r 3  .:.:.(  .<.<.<.<.<.",
"<.<.<.<.<.<.<.<.<.<.<.<.<.<.<.<.<.<.X.=.7 <.<.<.7 *.( <.<.<.<.R *.7 <.<.<.<.e -.:. . .w <.<.<.<.",
"<.<.<.<.<.<.<.<.<.<.<.<.<.<.<.<.<.<.y -.u <.<.<.<.' $.<.<.<.<.<.$.J <.<.<.<.<.Q :.&.' y 7 y <.<.",
"<.<.<.<.<.<.<.<.<.<.<.<.<.<.<.<.<.<.<.O.' <.<.<.<.w *.e <.<.<.<.Q  .<.<.<.4 4 7 &.:.' ( X <.<.<.",
"<.<.<.<.<.<.<.<.<.<.<.<.<.<.<.<.<.<.<.R &.<.<.<.<.<. .( <.<.<.3 7 o.6 4 4 3 <.<.J :. .( <.<.<.<.",
"<.<.<.<.<.<.<.<.<.<.<.<.<.<.<.<.<.<.<.<.$.y <.<.<.X e o.3 4 4 6 <.7 <.<.<.<.<.<.<.o.*.( y <.<.<.",
"<.<.<.<.<.<.<.<.<.<.<.<.<.<.<.<.<.<.<.X R ' o 3 3 o X r <.<.<.<.<.<.<.<.<.<.<.<.<.r -.( R <.<.<.",
"<.<.<.<.<.<.<.<.<.<.<.<.<.<.3 3 3 3 3 o 3 y <.<.<.<.<.<.<.<.<.<.<.<.<.<.<.<.<.<.<.<.' X.u <.<.<.",
"<.<.<.<.<.<.<.<.<.e r o 3 3 o <.<.<.<.<.<.<.<.<.<.<.<.<.<.<.<.<.<.<.<.<.<.<.<.<.<.<.7 O.R o <.<.",
"<.<.<.<.<.<.<.<.<.<.<.<.<.<.<.<.<.<.<.<.<.<.<.<.<.<.<.<.<.<.<.<.<.<.<.<.<.<.<.<.<.<.<.7 7 <.<.<.",
"<.<.<.<.<.<.<.<.<.<.<.<.<.<.<.<.<.<.<.<.<.<.<.<.<.<.<.<.<.<.<.<.<.<.<.<.<.<.<.<.<.<.<.<.<.<.<.<.",
"<.<.<.<.<.<.<.<.<.<.<.<.<.<.<.<.<.<.<.<.<.<.<.<.<.<.<.<.<.<.<.<.<.<.<.<.<.<.<.<.<.<.<.<.<.<.<.<.",
"<.<.<.<.<.<.<.<.<.<.<.<.<.<.<.<.<.<.<.<.<.<.<.<.<.<.<.<.<.<.<.<.<.<.<.<.<.<.<.<.<.<.<.<.<.<.<.<."
};
