/* XPM */
static char *_5[] = {
/* columns rows colors chars-per-pixel */
"64 64 112 2 ",
"   c #010101",
".  c #0C0C0C",
"X  c #141414",
"o  c #141718",
"O  c #1B1B1B",
"+  c #232323",
"@  c #2B2B2B",
"#  c #343434",
"$  c #3B3B3B",
"%  c #3C4041",
"&  c #434444",
"*  c #424B4F",
"=  c #4B4B4B",
"-  c #494F52",
";  c #4E5153",
":  c #46575F",
">  c #4D595E",
",  c #545454",
"<  c #50575A",
"1  c #555B5D",
"2  c #5C5C5C",
"3  c #605F5F",
"4  c #4C5D64",
"5  c #4F636C",
"6  c #5B676C",
"7  c #636363",
"8  c #666A6C",
"9  c #6C6C6C",
"0  c #626E74",
"q  c #6E6F70",
"w  c #6E7172",
"e  c #60767F",
"r  c #737474",
"t  c #75797B",
"y  c #7B7B7B",
"u  c #657D87",
"i  c #6A7C83",
"p  c #657E89",
"a  c #6C7F88",
"s  c #798082",
"d  c #738188",
"f  c #7E868A",
"g  c #7C888E",
"h  c #6D8792",
"j  c #718B97",
"k  c #7E8D93",
"l  c #738E98",
"z  c #7E959F",
"x  c #7695A2",
"c  c #7895A2",
"v  c #7D9BA7",
"b  c #838484",
"n  c #858788",
"m  c #878889",
"M  c #8B8B8B",
"N  c #908E8D",
"B  c #8E8F90",
"V  c #869095",
"C  c #8F9192",
"Z  c #939393",
"A  c #96999A",
"S  c #9B9B9B",
"D  c #889AA1",
"F  c #829CA8",
"G  c #989FA1",
"H  c #8AA1AB",
"J  c #9CA2A5",
"K  c #8AA9B6",
"L  c #89AAB9",
"P  c #96ACB6",
"I  c #92B1BF",
"U  c #A3A3A3",
"Y  c #A7A8A9",
"T  c #ACACAC",
"R  c #B0AFAF",
"E  c #B3B3B3",
"W  c #B8B8B7",
"Q  c #BCBCBC",
"!  c #91B2C0",
"~  c #9CB6C0",
"^  c #A3BBC4",
"/  c #9FC3D2",
"(  c #AAC3CD",
")  c #BFC0C0",
"_  c #AAC6D2",
"`  c #A6CBDB",
"'  c #AAD0DF",
"]  c #B3D1DF",
"[  c #ADD3E3",
"{  c #B5DAE9",
"}  c #BBDCEA",
"|  c #BBE3F5",
" . c #C4C4C4",
".. c #CDCDCD",
"X. c #CFD0D0",
"o. c #D4D4D4",
"O. c #D8D8D7",
"+. c #DBDBDB",
"@. c #C0DFEC",
"#. c #C0E1EF",
"$. c #C2E5F4",
"%. c #C5E9F9",
"&. c #CCEDFC",
"*. c #E4E4E3",
"=. c #E8E7E7",
"-. c #E7E8E8",
";. c #ECECEC",
":. c #F3F3F3",
">. c #F8F7F7",
",. c #F8F8F7",
"<. c #FFFFFF",
"1. c None",
/* pixels */
"1.1.1.1.1.1.1.1.1.1.1.1.1.1.1.1.1.1.1.1.1.1.1.1.1.1.1.1.1.1.1.1.1.1.1.1.1.1.1.1.1.1.    1.1.1.1.1.1.1.1.1.1.1.1.1.1.1.1.1.1.1.1.",
"1.1.1.1.1.1.1.1.1.1.1.1.1.1.1.1.1.1.1.1.1.1.1.1.1.1.1.1.1.1.1.1.1.1.1.1.1.1.1.1.1.1.+ @ 1.1.1.1.1.1.1.1.1.1.1.1.1.1.1.1.1.1.1.1.",
"1.1.1.1.1.1.1.1.1.1.1.1.1.1.1.1.1.1.1.1.1.1.1.1.1.1.1.1.1.1.1.1.1.  X X X X 1.. 1.  $  .r . 1.1.1.1.1.1.1.1.1.1.1.1.1.1.1.1.1.1.",
"1.1.1.1.1.1.1.1.1.1.1.1.1.1.1.1.1.1.1.1.1.1.1.1.1.1.1.1.1.+ + 7 r Z U Y E Y T Z b o r <.o.9   1.1.1.1.1.1.1.1.1.1.1.1.1.1.1.1.1.",
"1.1.1.1.1.1.1.1.1.1.1.1.1.1.1.1.1.1.1.1.1.1.1.1.1.1.1.1.9 Z +.*.<.<.<.<.<.<.<.<.:.3 U <.<.-.2 1.1.1.1.1.1.1.1.1.1.1.1.1.1.1.1.1.",
"1.1.1.1.1.1.1.1.1.1.1.1.1.1.1.1.1.1.1.1.1.1.1.1.  # Z Q ;.<.<.<.<.<.<.<.<.<.<.<. .% O.<.<.<.O.m   1.1.1.1.1.1.1.1.1.1.1.1.1.1.1.",
"1.1.1.1.1.1.1.1.1.1.1.1.1.1.1.1.1.1.1.1.1.1.  + M o.,.<.<.<.<.<.<.<.<.<.<.<.<.<.m 2 :.<.<.<.<.o.2 . 1.1.1.1.1.1.1.1.1.1.1.1.1.1.",
"1.1.1.1.1.1.1.1.1.1.1.1.1.1.1.1.1.1.1.1.1.. , Q ;.<.<.<.<.<.<.<.<.<.<.<.<.<.<.,.7 b <.<.<.<.<.<.*.= 1.1.1.1.1.1.1.1.1.1.1.1.1.1.",
"1.1.1.1.1.1.1.1.1.1.1.1.1.1.1.1.1.1.1.1.1.b o.<.<.<.<.<.<.<.<.<.<.<.<.<.<.<.<.+., Q <.<.<.<.<.<.<.) 9 1.1.1.1.1.1.1.1.1.1.1.1.1.",
"1.1.1.1.1.1.1.1.1.1.1.1.1.1.1.1.1.1.1.O y *.<.<.<.<.<.<.<.<.<.<.<.<.<.<.<.<.<.E = *.<.<.<.<.<.<.<.<.U $   1.1.1.1.1.1.1.1.1.1.1.",
"1.1.1.1.1.1.1.1.1.1.1.1.1.1.1.1.1.1.+ Z <.<.<.<.<.<.<.<.<.<.<.<.<.<.<.<.<.<.<.y r ,.<.<.<.<.<.<.<.<.;.U . 1.1.1.1.1.1.1.1.1.1.1.",
"1.1.1.1.1.1.1.1.1.1.1.1.1.1.1.1.1.1.Z -.<.<.<.<.<.<.<.<.<.<.<.<.<.<.<.<.<.<.:.7 U <.<.<.<.<.<.<.<.<.<.-.r X 1.1.1.1.1.1.1.1.1.1.",
"1.1.1.1.1.1.1.1.1.1.1.1.1.1.1.1.  7 ;.<.<.<.<.<.<.<.<.<.<.<.<.<.<.<.<.<.<.<.O., o.<.<.<.<.<.<.<.<.<.<.<.-.$ 1.1.1.1.1.1.1.1.1.1.",
"1.1.1.1.1.1.1.1.1.1.1.1.1.1.1.1.2 O.<.<.<.<.<.<.<.<.<.<.<.<.<.<.<.<.<.<.<.<.U , ;.<.<.<.<.<.<.<.<.<.<.<.<.T @ 1.1.1.1.1.1.1.1.1.",
"1.1.1.1.1.1.1.1.1.1.1.1.1.1.1.O Y <.<.<.<.<.<.<.<.<.<.<.<.<.<.<.<.<.<.<.<.<.t m <.<.<.<.<.<.<.<.<.<.<.<.<.<.9 1.1.1.1.1.1.1.1.1.",
"1.1.1.1.1.1.1.1.1.1.1.1.1.1.1.9 :.<.<.<.<.<.<.<.<.<.<.<.<.<.<.<.<.<.o.o.Q Y ; N ,.<.<.<.<.<.<.<.<.<.<.<.<.<.O.& 1.1.1.1.1.1.1.1.",
"1.1.1.1.1.1.1.1.1.1.1.1.1.1.@ ..<.<.<.<.<.<.<.<.<.<.<.<.<.<.<.:.W 2 9 2 & O + # w Z o.<.<.<.<.<.<.<.<.<.<.<.<.m $ 1.1.1.1.1.1.1.",
"1.1.1.1.1.1.1.1.1.1.1.1.1.  7 :.<.<.<.<.<.<.<.<.<.<.<.<.<.<.X.7 = S E R Z b T  .U 3 = Y *.<.<.<.<.<.<.<.<.<.<.:.; 1.1.1.1.1.1.1.",
"1.1.1.1.1.1.1.1.1.1.1.1.1.+  .<.<.<.<.<.<.<.<.<.<.<.<.<.<.M # C ;.,.*.A M O.<.<.<.*.T 7 7 -.<.<.<.<.<.<.<.<.<.<.Y $ 1.1.1.1.1.1.",
"1.1.1.1.1.1.1.1.1.1.1.1.  , :.<.<.<.<.<.<.<.<.<.<.<.<.;.Z - 8 O.<. .9 U <.<.<.<.<.<.<...9 q +.<.<.<.<.<.<.<.<.<.,.= 1.1.1.1.1.1.",
"1.1.1.1.1.1.1.1.1.1.1.. . m <.<.<.<.<.<.<.<.<.<.<.<.<.Q > x 0 o.E M ..<.<.<.<.<.<.<.<.<.*.; A *.<.<.<.<.<.<.<.<.<.R o 1.1.1.1.1.",
"1.1.1.1.1.1.1.1.1.1.X $ @  .<.<.<.<.<.<.<.<.<.<.<.<.o.1 x | H r Z E :.<.<.<.<.<.<.<.<.<.<.Q q R <.<.<.<.<.<.<.<.<.>.= 1.1.1.1.1.",
"1.1.1.1.1.1.1.1.1.1.y S , *.<.<.<.<.<.<.<.<.<.<.<.<.A 4 ` $.F % T <.<.<.<.<.<.<.<.<.<.<.<.<.y m *.<.<.<.<.<.<.<.<.,.T . 1.1.1.1.",
"1.1.1.1.1.1.1.1.1.$ Q Z 7 :.<.<.<.<.<.<.<.<.<.<.<.;.w L %.#.k A >.<.<.<.<.<.<.<.<.<.<.<.<.<.o., ..<.<.<.<.<.<.<.<.<.o.& 1.1.1.1.",
"1.1.1.1.1.1.1.1.+ E <.y 9 <.<.<.<.<.<.<.<.<.<.<.<.E 4 / $.P f *.<.<.<.<.<.<.<.<.<.<.<.<.<.<.<.2 Z <.<.<.<.<.<.<.<.<.:.b 1.1.1.1.",
"1.1.1.1.1.1.1.o t ;.<.7 Z <.<.<.<.<.<.<.<.<.<.<.<.U 4 { #.k E <.<.<.<.<.<.<.<.<.<.<.<.<.<.<.<.S 7 <.<.<.<.<.<.<.<.<.<.U & 1.1.1.",
"1.1.1.1.1.1.1.3 -.<.,.7 m <.<.<.<.<.<.<.<.<.<.<.<.m u %.] f *.<.<.<.<.<.<.<.<.<.<.<.<.<.<.<.<.Z r ;.<.<.<.<.<.<.<.<.<.:.$ 1.1.1.",
"1.1.1.1.1.1.$ Q <.<.,.2 Y <.<.<.<.<.<.<.<.<.<.<.>.C j $.I V :.<.<.<.<.<.<.<.<.<.<.<.<.<.<.<.<.Q = ;.<.<.<.<.<.<.<.<.<.<.b   1.1.",
"1.1.1.1.1.1.Y <.<.<.:.7 m <.<.<.<.<.<.<.<.<.<.<.<.y u %.( b <.<.<.<.<.<.<.<.<.<.<.<.<.<.<.<.<.A r :.<.<.<.<.<.<.<.<.<.<.Q O 1.1.",
"1.1.1.1.X y -.<.<.<.,.2 S <.<.<.<.<.<.<.<.<.<.<.<.R 5 } _ G +.<.<.<.<.<.<.<.<.<.<.<.<.<.<.<.<.N y <.<.<.<.<.<.<.<.<.<.<.o.7 1.1.",
"1.1.1.  , -.<.<.<.<.<.y 9 <.<.<.<.<.<.<.<.<.<.<.<.E 0 / } g o.,.<.<.<.<.<.<.<.<.<.<.<.<.<.<.=., U <.<.<.<.<.<.<.<.<.<.<.,.= 1.1.",
"1.1.1.& Q <.<.<.<.<.<.Z r ;.<.<.<.<.<.<.<.<.<.<.<.;.; L %.H A *.<.<.<.<.<.<.<.<.<.<.<.<.:.+.Z @ m +.-.<.<.<.<.<.<.<.<.<.<.M   1.",
"1.1.O U <.<.<.<.<.<.<.U 2 ;.<.<.<.<.<.<.<.<.<.<.<.<.A 4 ' | s Y *.<.<.<.<.<.<.<.<.<.;.Q T q O $ 2 2 2 r E ..-.<.<.<.<.<.<.E 1.1.",
"1.O y -.<.<.<.<.<.<.<.+.& ..<.<.<.<.<.<.<.<.<.<.<.<.:.; v } _ D b  .;.,.<.:.:.o.o.U b S S , &  .;...S y , , , r T ..-.,.<.+.$ 1.",
"1.7 -.<.<.<.<.<.<.<.<.*.y M <.<.<.<.<.<.<.<.<.<.<.<.<.Q < v | { F n s C n V 1 m b S O.O.) r E <.<.<.<.<.;...E y 7 , & r U Q # 1.",
"& W <.<.<.<.<.<.<.<.<.O.& y -.<.<.<.<.<.<.<.<.<.<.<.<.<.N 6 h { %.@._ P ^ V i 9 *.<.<.) , y ;.<.<.<.<.<.<.<.<.<.:...E 9 X O O 1.",
"y <.<.<.<.<.<.<.<.:.S r + + +.<.<.<.<.<.<.<.<.<.<.<.<.<.:.Q $ e L { &.&.&.%.[ a J Q 9 $ T <.<.<.<.<.<.<.<.<.<.<.<.<.<.Q 1.1.1.1.",
", *.<.<.<.<.<.<.E y 1.1.1.  Z <.<.<.<.<.<.<.<.<.<.<.<.<.<.<. .n * 4 j I I _ L x * @ y O.<.<.<.<.<.<.<.<.<.<.<.<.<.<.:.9 1.1.1.1.",
". T :.<.<.<...b 9 1.1.1.1.1.# ;.<.<.<.<.<.<.<.<.<.<.<.<.<.<.<.<.Q M 8 < 1 - 0 t s O.:.<.<.<.<.<.<.<.<.<.<.<.<.<.<.<. .+ 1.1.1.1.",
"1.$ O.<.*.M 9 1.1.1.1.1.1.1.X y <.<.<.<.<.<.<.<.<.<.<.<.<.<.<.<.<.<.,.*.o.+.*.-.<.<.<.<.<.<.<.<.<.<.<.<.<.<.<.<.<.<.r . 1.1.1.1.",
"1.. b A t 1.1.1.1.1.1.1.1.1.1.@ o.<.<.<.<.<.<.<.<.<.<.<.<.<.<.<.<.<.<.<.<.<.<.<.<.<.<.<.<.<.<.<.<.<.<.<.<.<.<.<.<.Y + 1.1.1.1.1.",
"1.1.X = 1.1.1.1.1.1.1.1.1.1.1.1.2 <.<.<.<.<.<.<.<.<.<.<.<.<.<.<.<.<.<.<.<.<.<.<.<.<.<.<.<.<.<.<.<.<.<.<.<.<.<.<.:., 1.1.1.1.1.1.",
"1.1.1.1.1.1.1.1.1.1.1.1.1.1.1.1.X U :.<.<.<.<.<.<.<.<.<.<.<.<.<.<.<.<.<.<.<.<.<.<.<.<.<.<.<.<.<.<.<.<.<.<.<.<.;.t X 1.1.1.1.1.1.",
"1.1.1.1.1.1.1.1.1.1.1.1.1.1.1.1.1.+  .<.<.<.<.<.<.<.<.<.<.<.<.<.<.<.<.<.<.<.<.<.<.<.<.<.<.<.<.<.<.<.<.<.<.<.<.T + 1.1.1.1.1.1.1.",
"1.1.1.1.1.1.1.1.1.1.1.1.1.1.1.1.X X 9 Y <.<.<.<.<.<.<.<.<.<.<.<.<.<.<.<.<.<.<.<.<.<.<.<.<.<.<.<.<.<.<.<.<.<.A @ 1.1.1.1.1.1.1.1.",
"1.1.1.1.1.1.1.1.1.1.1.1.1.1.1.+ r o.Z = ..,.<.<.<.<.<.<.<.<.<.<.<.<.<.<.<.<.<.<.<.<.<.<.<.<.<.<.<.<.<.<.,.E r 1.1.1.1.1.1.1.1.1.",
"1.1.1.1.1.1.1.1.1.1.1.1.1.O 2 ..<.<.-.Z , T <.,.<.<.<.<.<.<.<.<.<.<.<.<.<.<.<.<.<.<.<.<.<.<.<.<.<.<.<.<.Y @ 1.1.1.1.1.1.1.1.1.1.",
"1.1.1.1.1.1.1.1.1.1.1.O $ T ,.<.<.<.<.<.C 2 M *.<.<.<.<.<.<.<.<.<.<.<.<.<.<.<.<.<.<.<.<.<.<.<.<.<.<.-.9 O 1.1.1.1.1.1.1.1.1.1.1.",
"1.1.1.1.1.1.1.1.1.o @ N ;.<.<.<.<.<.<.<.:. .; 7  .:.<.<.<.<.<.<.<.<.<.<.<.<.<.<.<.<.<.<.<.<.<.<.<.Z ; 1.1.1.1.1.1.1.1.1.1.1.1.1.",
"1.1.1.1.1.1.1.1.O q +.<.<.<.<.<.<.<.<.<.<.<.o.m , 9 o.,.<.<.<.<.<.<.<.<.<.<.<.<.<.<.<.<.<.<.<.W 2 $ 1.1.1.1.1.1.1.1.1.1.1.1.1.1.",
"1.1.1.1.1.1.1.  M >.<.<.<.<.<.<.<.<.<.<.<.<.<.<. .9 , 9 R *.<.<.<.<.<.<.<.<.<.<.<.<.<.;.-.E 2 $ 1.1.1.1.1.1.1.1.1.1.1.1.1.1.1.1.",
"1.1.1.1.1.1.1.  = +.<.<.<.<.<.<.<.<.<.<.<.<.<.<.<.,...r 2 2 q Y  .*.-.-.<.,.,.:.o.o.Z b $ . 1.1.1.1.1.1.1.1.1.1.1.1.1.1.1.1.1.1.",
"1.1.1.1.1.1.1.1.. Z :.<.<.<.<.<.<.<.<.<.<.<.<.<.:.,.+.+.A 3 .   + @ & = 2 2 2 & & X 1.1.1.1.1.1.1.1.1.1.1.1.1.1.1.1.1.1.1.1.1.1.",
"1.1.1.1.1.1.1.1.1.# o.<.<.<.<.<.-.,.o.o.E U Z r 9 & 9 @ $ X   1.  1.  1.1.1.1.1.1.1.1.1.1.1.1.1.1.1.1.1.1.1.1.1.1.1.1.1.1.1.1.1.",
"1.1.1.1.1.1.1.1.1.  w E Q Z M 7 7 $ & & X 1.  1.  1.1.1.1.1.1.1.1.1.1.1.1.1.1.1.1.1.1.1.1.1.1.1.1.1.1.1.1.1.1.1.1.1.1.1.1.1.1.1.",
"1.1.1.1.1.1.1.1.1.1.. 1.. 1.  1.1.1.1.1.1.1.1.1.1.1.1.1.1.1.1.1.1.1.1.1.1.1.1.1.1.1.1.1.1.1.1.1.1.1.1.1.1.1.1.1.1.1.1.1.1.1.1.1.",
"1.1.1.1.1.1.1.1.1.1.1.1.1.1.1.1.1.1.1.1.1.1.1.1.1.1.1.1.1.1.1.1.1.1.1.1.1.1.1.1.1.1.1.1.1.1.1.1.1.1.1.1.1.1.1.1.1.1.1.1.1.1.1.1.",
"1.1.1.1.1.1.1.1.1.1.1.1.1.1.1.1.1.1.1.1.1.1.1.1.1.1.1.1.1.1.1.1.1.1.1.1.1.1.1.1.1.1.1.1.1.1.1.1.1.1.1.1.1.1.1.1.1.1.1.1.1.1.1.1.",
"1.1.1.1.1.1.1.1.1.1.1.1.1.1.1.1.1.1.1.1.1.1.1.1.1.1.1.1.1.1.1.1.1.1.1.1.1.1.1.1.1.1.1.1.1.1.1.1.1.1.1.1.1.1.1.1.1.1.1.1.1.1.1.1.",
"1.1.1.1.1.1.1.1.1.1.1.1.1.1.1.1.1.1.1.1.1.1.1.1.1.1.1.1.1.1.1.1.1.1.1.1.1.1.1.1.1.1.1.1.1.1.1.1.1.1.1.1.1.1.1.1.1.1.1.1.1.1.1.1.",
"1.1.1.1.1.1.1.1.1.1.1.1.1.1.1.1.1.1.1.1.1.1.1.1.1.1.1.1.1.1.1.1.1.1.1.1.1.1.1.1.1.1.1.1.1.1.1.1.1.1.1.1.1.1.1.1.1.1.1.1.1.1.1.1.",
"1.1.1.1.1.1.1.1.1.1.1.1.1.1.1.1.1.1.1.1.1.1.1.1.1.1.1.1.1.1.1.1.1.1.1.1.1.1.1.1.1.1.1.1.1.1.1.1.1.1.1.1.1.1.1.1.1.1.1.1.1.1.1.1.",
"1.1.1.1.1.1.1.1.1.1.1.1.1.1.1.1.1.1.1.1.1.1.1.1.1.1.1.1.1.1.1.1.1.1.1.1.1.1.1.1.1.1.1.1.1.1.1.1.1.1.1.1.1.1.1.1.1.1.1.1.1.1.1.1.",
"1.1.1.1.1.1.1.1.1.1.1.1.1.1.1.1.1.1.1.1.1.1.1.1.1.1.1.1.1.1.1.1.1.1.1.1.1.1.1.1.1.1.1.1.1.1.1.1.1.1.1.1.1.1.1.1.1.1.1.1.1.1.1.1."
};
