/* XPM */
static char *_[] = {
/* columns rows colors chars-per-pixel */
"64 64 118 2 ",
"   c #010101",
".  c #0C0C0C",
"X  c #141414",
"o  c #1B1B1B",
"O  c #252525",
"+  c #282727",
"@  c #2C2C2C",
"#  c #2F3030",
"$  c #353535",
"%  c #36393B",
"&  c #3C3D3D",
"*  c #374045",
"=  c #3E4040",
"-  c #444444",
";  c #464748",
":  c #474848",
">  c #4C4C4C",
",  c #455054",
"<  c #4B5356",
"1  c #46545B",
"2  c #4B5559",
"3  c #535353",
"4  c #575858",
"5  c #5B5B5C",
"6  c #4B5A61",
"7  c #545E62",
"8  c #5D6365",
"9  c #54676E",
"0  c #596469",
"q  c #5E686D",
"w  c #596F78",
"e  c #5C727D",
"r  c #646464",
"t  c #616668",
"y  c #6C6C6C",
"u  c #6D7273",
"i  c #66747A",
"p  c #6C7A7F",
"a  c #737373",
"s  c #767778",
"d  c #74797B",
"f  c #7C7B7B",
"g  c #5F7680",
"h  c #647A83",
"j  c #6F7D83",
"k  c #727C80",
"l  c #7D7F80",
"z  c #69828C",
"x  c #76868D",
"c  c #7E878B",
"v  c #7F898D",
"b  c #7C8C93",
"n  c #7E939C",
"m  c #7996A2",
"M  c #7E9EAB",
"N  c #848484",
"B  c #878889",
"V  c #8C8C8C",
"C  c #8F9191",
"Z  c #81959E",
"A  c #8E969A",
"S  c #939393",
"D  c #9B9C9C",
"F  c #8097A1",
"G  c #899CA4",
"H  c #889FA8",
"J  c #9FA0A0",
"K  c #84A4B2",
"L  c #89A4B0",
"P  c #89A8B5",
"I  c #9FB4BD",
"U  c #A4A4A4",
"Y  c #A7A8A9",
"T  c #ABACAC",
"R  c #AEB5B8",
"E  c #B4B4B4",
"W  c #B6B7B8",
"Q  c #BCBCBC",
"!  c #93B5C4",
"~  c #9DB7C2",
"^  c #96BBCB",
"/  c #9ABECD",
"(  c #A1B9C3",
")  c #A5BFCA",
"_  c #9FC3D2",
"`  c #A2C5D4",
"'  c #AAC6D2",
"]  c #B0CDD9",
"[  c #AFD5E5",
"{  c #BAD7E3",
"}  c #B9D8E6",
"|  c #B5DBEB",
" . c #BBDDEB",
".. c #B8DFF0",
"X. c #BFE1EF",
"o. c #BDE1F0",
"O. c #BFE7F8",
"+. c #C4C4C4",
"@. c #C9C7C7",
"#. c #C7C8C7",
"$. c #CCCBCB",
"%. c #D0CFCF",
"&. c #CFD0D0",
"*. c #D4D4D4",
"=. c #DCDCDC",
"-. c #E0DFDF",
";. c #C0DFEB",
":. c #C3E0ED",
">. c #C4E6F5",
",. c #C7E9F7",
"<. c #C6EAF9",
"1. c #C9EBF9",
"2. c #E4E4E4",
"3. c #EBEBEB",
"4. c #F0EFEF",
"5. c #F4F4F4",
"6. c #FFFFFF",
"7. c None",
/* pixels */
"7.7.7.7.7.7.7.7.7.7.7.7.7.7.7.7.7.7.7.7.7.7.7.7.7.7.7.7.7.7.7.7.7.7.7.7.7.7.7.7.7.7.7.7.7.7.7.7.7.7.7.7.7.7.7.7.7.7.7.7.7.7.7.7.",
"7.7.7.7.7.7.7.7.7.7.7.7.7.7.7.7.7.7.7.7.7.7.7.7.7.7.7.7.7.7.% - X 7.7.7.7.7.7.7.7.7.7.7.7.7.7.7.7.7.7.7.7.7.7.7.7.7.7.7.7.7.7.7.",
"7.7.7.7.7.7.7.7.7.7.7.7.7.7.7.7.7.7.7.7.7.7.7.7.7.7.7.o y Y 2.T . 7.7.7.7.7.7.7.7.7.7.7.7.7.7.7.7.7.7.7.7.7.7.7.7.7.7.7.7.7.7.7.",
"7.7.7.7.7.7.7.7.7.7.7.7.7.7.7.7.7.7.7.7.7.7.7.7.X r D =.5.6.6.U o 4 @ 7.7.7.7.7.7.7.7.7.7.7.7.7.7.7.7.7.7.7.7.7.7.7.7.7.7.7.7.7.",
"7.7.7.7.7.7.7.7.7.7.7.7.7.7.7.7.7.7.7.7.7.7.> r $.3.6.6.6.6.6.N a 2.E f : X 7.7.7.7.7.7.7.7.7.7.7.7.7.7.7.7.7.7.7.7.7.7.7.7.7.7.",
"7.7.7.7.7.7.7.7.7.7.7.7.7.7.7.7.7.7.7.  @ N T 6.6.6.6.6.6.6.5.r V 6.6.6.2.D 5 . 7.7.7.7.7.7.7.7.7.7.7.7.7.7.7.7.7.7.7.7.7.7.7.7.",
"7.7.7.7.7.7.7.7.7.7.7.7.7.7.7.7.7.7.o y #.3.6.6.6.6.6.6.6.6.5.r Y 6.6.6.6.6.4.S 3   7.7.7.7.7.7.7.7.7.7.7.7.7.7.7.7.7.7.7.7.7.7.",
"7.7.7.7.7.7.7.7.7.7.7.7.7.7.7.7.O - Q 5.6.6.6.6.6.6.6.6.6.6.2.4 Q 6.6.6.6.6.6.6.=.y $ 7.7.7.7.7.7.7.7.7.7.7.7.7.7.7.7.7.7.7.7.7.",
"7.7.7.7.7.7.7.7.7.7.7.7.7.7.7.& f 5.6.6.6.6.6.6.6.6.6.6.6.6.=.: *.6.6.6.6.6.6.6.6.6.V r 7.7.7.7.7.7.7.7.7.7.7.7.7.7.7.7.7.7.7.7.",
"7.7.7.7.7.7.7.7.7.7.7.7.7.7.> Q 6.6.6.6.6.6.6.6.6.6.6.6.6.6.Q > 2.6.6.6.6.6.6.6.6.6.5.Q @ 7.7.7.7.7.7.7.7.7.7.7.7.7.7.7.7.7.7.7.",
"7.7.7.7.7.7.7.7.7.7.7.7.& y 2.6.6.6.6.6.6.6.6.6.6.6.6.6.6.6.Y r 3.6.6.6.6.6.6.6.6.6.6.5.+.@ 7.7.7.7.7.7.7.7.7.7.7.7.7.7.7.7.7.7.",
"7.7.7.7.7.7.7.7.7.7.7.% V 6.6.6.6.6.6.6.6.6.6.6.6.6.6.6.6.6.S r 6.6.6.6.6.6.6.6.6.6.6.6.6.Y - 7.7.7.7.7.7.7.7.7.7.7.7.7.7.7.7.7.",
"7.7.7.7.7.7.7.7.7.7.$ Q 6.6.6.6.6.6.6.6.6.6.6.6.6.6.6.6.6.6.a N 6.6.6.6.6.6.6.6.6.6.6.6.6.6.f 7.7.7.7.7.7.7.7.7.7.7.7.7.7.7.7.7.",
"7.7.7.7.7.7.7.7.  : =.6.6.6.6.6.6.6.6.6.6.6.6.6.6.6.6.6.6.5.r S 6.6.6.6.6.6.6.6.6.6.6.6.6.6.5.4 7.7.7.7.7.7.7.7.7.7.7.7.7.7.7.7.",
"7.7.7.7.7.7.7.  r =.6.6.6.6.6.6.6.6.6.6.6.6.6.6.6.6.6.6.6.5.5 E 6.6.6.6.6.6.6.6.6.6.6.6.6.6.6.$.- 7.7.7.7.7.7.7.7.7.7.7.7.7.7.7.",
"7.7.7.7.7.7.7.f $.6.6.6.6.6.6.6.6.6.6.6.6.6.6.3.*.W E E @.Q : $.6.6.6.6.6.6.6.6.6.6.6.6.6.6.6.6.V O 7.7.7.7.7.7.7.7.7.7.7.7.7.7.",
"7.7.7.7.7.7.t @.6.6.6.6.6.6.6.6.6.6.6.6.5.*.D > r - r 3 : 3 o N 5.5.6.6.6.6.6.6.6.6.6.6.6.6.6.6.3.- 7.7.7.7.7.7.7.7.7.7.7.7.7.7.",
"7.7.7.7.  : =.6.6.6.6.6.6.6.6.6.6.6.6.*.U y 3 T +.5.3.3.=.W @ $ a E 6.6.6.6.6.6.6.6.6.6.6.6.6.6.6.T . 7.7.7.7.7.7.7.7.7.7.7.7.7.",
"7.7.7.7.: =.6.6.6.6.6.6.6.6.6.6.6.6.*.V y D 6.6.6.6.6.6.6.5.T 4 y u C 6.6.6.6.6.6.6.6.6.6.6.6.6.6.*.4 7.7.7.7.7.7.7.7.7.7.7.7.7.",
"7.7.7.y W 5.6.6.6.6.6.6.6.6.6.6.6.3.c 4 $.6.6.6.6.6.6.6.6.6.=.J U #.: T 5.6.6.6.6.6.6.6.6.6.6.6.6.6.u 7.7.7.7.7.7.7.7.7.7.7.7.7.",
"7.7.o S 6.6.6.6.6.6.6.6.6.6.6.6.5.y 3 2.6.6.6.6.6.6.6.6.6.6.6.Y Y 2.+.$ #.5.6.6.6.6.6.6.6.6.6.6.6.6.Q . 7.7.7.7.7.7.7.7.7.7.7.7.",
"7.. V 5.6.6.6.6.6.6.6.6.6.6.6.6.Q y $.6.6.6.6.6.6.6.6.6.6.6.6.2.l *.6.V 3 3.6.6.6.6.6.6.6.6.6.6.6.6.*.3 7.7.7.7.7.7.7.7.7.7.7.7.",
"7.f 2.6.6.6.6.6.6.6.6.6.6.6.6.5.8 s 5.6.6.6.6.6.6.6.6.6.6.6.6.6.T V 6.Q % D 6.6.6.6.6.6.6.6.6.6.6.6.6.> 7.7.7.7.7.7.7.7.7.7.7.7.",
"@ #.6.6.6.6.6.6.6.6.6.6.6.6.6.$.5 *.6.6.6.6.6.6.6.6.6.6.6.6.6.6.-.S ' B w 8 3.6.6.6.6.6.6.6.6.6.6.6.6.N 7.7.7.7.7.7.7.7.7.7.7.7.",
"O 3 f S Q $.2.6.6.6.6.6.6.6.6.S 5 5.6.6.6.6.6.6.6.6.6.6.6.6.6.6.3.N r m ^ i #.6.6.6.6.6.6.6.6.6.6.6.6.V o 7.7.7.7.7.7.7.7.7.7.7.",
"7.  . y & - 3 8 f J Q *.3.5.6.y V 6.6.6.6.6.6.6.6.6.6.6.6.6.6.6.6.S 2 ` X.1 Y 6.6.6.6.6.6.6.6.6.6.6.6.E X 7.7.7.7.7.7.7.7.7.7.7.",
"7.7.4 2.2.#.Q S y r 4 - 4 a y & V 6.6.6.6.6.6.6.6.6.6.6.6.6.6.6.6.Q c :.X.h C 5.6.6.6.6.6.6.6.6.6.6.6.Y X 7.7.7.7.7.7.7.7.7.7.7.",
"7.7.: 5.6.6.6.6.6.5.2.*.W Y f o 4 %.6.6.6.6.6.6.6.6.6.6.6.6.6.6.6.%.d :.<.w V 6.6.6.6.6.6.6.6.6.6.6.6.Q X 7.7.7.7.7.7.7.7.7.7.7.",
"7.7.y 3.6.6.6.6.6.6.6.6.6.6.3.y : S *.6.6.6.6.6.6.6.6.6.6.6.6.6.6.*.c { o.9 S 6.6.6.6.6.6.6.6.6.6.6.6.W X 7.7.7.7.7.7.7.7.7.7.7.",
"7.7.& 3.6.6.6.6.6.6.6.6.6.6.6.N 4 E l 4.6.6.6.6.6.6.6.6.6.6.6.6.6.#.k ;.| 1 D 6.6.6.6.6.6.6.6.6.6.6.6.Y .   7.7.7.7.7.7.7.7.7.7.",
"7.7.- =.6.6.6.6.6.6.6.6.6.6.6.W y #.T N 2.5.6.6.6.6.6.6.6.6.6.6.6.T G >.` , #.6.6.6.6.6.6.6.6.6.6.6.6.D   7.7.7.7.7.7.7.7.7.7.7.",
"7.7.O *.6.6.6.6.6.6.6.6.6.6.6.#.r Q 5.S D +.6.6.6.6.6.6.6.6.6.6.=.d ~ >.z 7 5.6.6.6.6.6.6.6.6.6.6.6.6.f .   7.7.7.7.7.7.7.7.7.7.",
"7.7.O W 6.6.6.6.6.6.6.6.6.6.6.6.y f 5.5.Y V T 3.6.6.6.6.6.6.6.2.Y G  .[ 6 S 6.6.6.6.6.6.6.6.6.6.6.6.5.y r & 7.7.7.7.7.7.7.7.7.7.",
"7.7.  S 6.6.6.6.6.6.6.6.6.6.6.6.2.- Q 5.2.B = V +.5.6.6.6.5.=.Y k '  .e 8 3.6.6.6.6.6.6.6.6.6.6.6.6.=.4 T - 7.7.7.7.7.7.7.7.7.7.",
"7.7.7.r 3.6.6.6.6.6.6.6.6.6.6.6.6.W = B p x L H p C Y R W Y A b  .X.K q W 5.6.6.6.6.6.6.6.6.6.6.6.6.T > =.N 7.7.7.7.7.7.7.7.7.7.",
"7.7.7.- *.6.6.6.6.6.6.6.6.6.6.6.6.6.V % e | O.<.] ( n Z b I ' 1.| P < S 6.6.6.6.6.6.6.6.6.6.6.6.6.6.N c 6.S 7.7.7.7.7.7.7.7.7.7.",
"7.7.7.  S 6.6.6.6.6.6.6.6.6.6.6.6.6.6.V i w /  .O.<.<.>.<.1. .^ z * T 6.6.6.6.6.6.6.6.6.6.6.6.6.6.&.& E 6.+.X 7.7.7.7.7.7.7.7.7.",
"7.7.7.7.- 3.6.6.6.6.6.6.6.6.6.6.6.6.6.5.#.r 0 e M ! ` ` / m e 0 r =.6.6.6.6.6.6.6.6.6.6.6.6.6.6.6.T r 3.6.=.: 7.7.7.7.7.7.7.7.7.",
"7.7.7.7.7.D 6.6.6.6.6.6.6.6.6.6.6.6.6.6.6.5.#.V u 2 7 2 8 8 D E 6.6.6.6.6.6.6.6.6.6.6.6.6.6.6.6.=.3 J 6.6.5.> 7.7.7.7.7.7.7.7.7.",
"7.7.7.7.7.S =.6.6.6.6.6.6.6.6.6.6.6.6.6.6.6.6.5.5.=.#.=.*.5.5.6.6.6.6.6.6.6.6.6.6.6.6.6.6.6.6.6.T 5 *.6.6.6.V   7.7.7.7.7.7.7.7.",
"7.7.7.7.7.. Y 5.6.6.6.6.6.6.6.6.6.6.6.6.6.6.6.6.6.6.6.6.6.6.6.6.6.6.6.6.6.6.6.6.6.6.6.6.6.6.6.#.: Y 6.6.6.6.J 7.7.7.7.7.7.7.7.7.",
"7.7.7.7.7.7.% *.6.6.6.6.6.6.6.6.6.6.6.6.6.6.6.6.6.6.6.6.6.6.6.6.6.6.6.6.6.6.6.6.6.6.6.6.6.6.5.S f 2.6.6.6.6.-.O 7.7.7.7.7.7.7.7.",
"7.7.7.7.7.7.  r =.6.6.6.6.6.6.6.6.6.6.6.6.6.6.6.6.6.6.6.6.6.6.6.6.6.6.6.6.6.6.6.6.6.6.6.6.6.S & $.6.6.6.6.6.2.s 7.7.7.7.7.7.7.7.",
"7.7.7.7.7.7.7.  V 2.6.6.6.6.6.6.6.6.6.6.6.6.6.6.6.6.6.6.6.6.6.6.6.6.6.6.6.6.6.6.6.6.6.6.5.Y r +.6.6.6.6.6.6.6.r 7.7.7.7.7.7.7.7.",
"7.7.7.7.7.7.7.7.X S 2.6.6.6.6.6.6.6.6.6.6.6.6.6.6.6.6.6.6.6.6.6.6.6.6.6.6.6.6.6.6.6.6.5.$.3 f 3.6.6.6.6.6.6.6.Y   7.7.7.7.7.7.7.",
"7.7.7.7.7.7.7.7.7.7.f 5.6.6.6.6.6.6.6.6.6.6.6.6.6.6.6.6.6.6.6.6.6.6.6.6.6.6.6.6.6.6.6.#.$   3 5.6.6.6.6.6.6.6.W & 7.7.7.7.7.7.7.",
"7.7.7.7.7.7.7.7.7.7.@ r 2.6.6.6.6.6.6.6.6.6.6.6.6.6.6.6.6.6.6.6.6.6.6.6.6.6.6.6.6.6.U @ 7.7.o V 6.6.6.6.6.6.6.5.% 7.7.7.7.7.7.7.",
"7.7.7.7.7.7.7.7.7.7.7.  N E 6.6.6.6.6.6.6.6.6.6.6.6.6.6.6.6.6.6.6.6.6.6.6.6.6.6.3.y o 7.7.7.7.o Q 6.6.6.6.6.6.3.a 7.7.7.7.7.7.7.",
"7.7.7.7.7.7.7.7.7.7.7.7.7.% S *.6.6.6.6.6.6.6.6.6.6.6.6.6.6.6.6.6.6.6.6.6.5.5.Q & X 7.7.7.7.7.7.& 2.6.6.6.6.6.6.l . 7.7.7.7.7.7.",
"7.7.7.7.7.7.7.7.7.7.7.7.7.7.X > D *.6.6.6.6.6.6.6.6.6.6.6.6.6.6.6.6.6.6.2.Q y X 7.7.7.7.7.7.7.7.X r 5.6.6.6.6.6.+.7.7.7.7.7.7.7.",
"7.7.7.7.7.7.7.7.7.7.7.7.7.7.7.7.X & N Q 3.6.6.6.6.6.6.6.6.6.6.6.6.2.=.S r &   7.7.7.7.7.7.7.7.7.7.o D 6.6.6.6.5.Y $ 7.7.7.7.7.7.",
"7.7.7.7.7.7.7.7.7.7.7.7.7.7.7.7.7.7.  o > f D #.*.=.2.2.=.=.Q E f y > 5 Y S y 7.7.7.7.7.7.7.7.7.7.7.@ $.6.6.3.W &   7.7.7.7.7.7.",
"7.7.7.7.7.7.7.7.7.7.7.7.7.7.7.7.7.7.7.7.    . O 3 > & 4 = 4 - 3 r U W 5.5.6.S 7.7.7.7.7.7.7.7.7.7.7.7.: 3.=.V o   7.7.7.7.7.7.7.",
"7.7.7.7.7.7.7.7.7.7.7.7.7.7.7.7.7.7.7.7.7.7.  % C W +.E +.+.2.=.6.5.6.6.6.6.5.f 7.7.7.7.7.7.7.7.7.7.7.X 5 4 . 7.7.7.7.7.7.7.7.7.",
"7.7.7.7.7.7.7.7.7.7.7.7.7.7.7.7.7.7.7.7.7.7.7.7.- S 3.6.6.6.6.6.6.6.6.6.6.6.6.*.a 7.7.7.7.7.7.7.7.7.7.7.    7.7.7.7.7.7.7.7.7.7.",
"7.7.7.7.7.7.7.7.7.7.7.7.7.7.7.7.7.7.7.7.7.7.7.7.7.7.& T 3.6.6.6.6.6.6.6.6.6.6.6.T y 7.7.7.7.7.7.7.7.7.7.7.7.7.7.7.7.7.7.7.7.7.7.",
"7.7.7.7.7.7.7.7.7.7.7.7.7.7.7.7.7.7.7.7.7.7.7.7.7.7.  & 5 $.5.6.6.6.6.6.6.6.6.6.6.V 7.7.7.7.7.7.7.7.7.7.7.7.7.7.7.7.7.7.7.7.7.7.",
"7.7.7.7.7.7.7.7.7.7.7.7.7.7.7.7.7.7.7.7.7.7.7.7.7.7.7.7.  3 a 2.6.6.6.6.6.6.6.6.6.2.a 7.7.7.7.7.7.7.7.7.7.7.7.7.7.7.7.7.7.7.7.7.",
"7.7.7.7.7.7.7.7.7.7.7.7.7.7.7.7.7.7.7.7.7.7.7.7.7.7.7.7.7.7.  f S 5.6.6.6.6.6.6.6.6.#.a 7.7.7.7.7.7.7.7.7.7.7.7.7.7.7.7.7.7.7.7.",
"7.7.7.7.7.7.7.7.7.7.7.7.7.7.7.7.7.7.7.7.7.7.7.7.7.7.7.7.7.7.7.7.X r Q 6.6.6.6.6.6.6.6.S - 7.7.7.7.7.7.7.7.7.7.7.7.7.7.7.7.7.7.7.",
"7.7.7.7.7.7.7.7.7.7.7.7.7.7.7.7.7.7.7.7.7.7.7.7.7.7.7.7.7.7.7.7.7.  & f $.6.6.6.6.5.2.N . 7.7.7.7.7.7.7.7.7.7.7.7.7.7.7.7.7.7.7.",
"7.7.7.7.7.7.7.7.7.7.7.7.7.7.7.7.7.7.7.7.7.7.7.7.7.7.7.7.7.7.7.7.7.7.7.  3 U 2.6.4.#.4 . 7.7.7.7.7.7.7.7.7.7.7.7.7.7.7.7.7.7.7.7.",
"7.7.7.7.7.7.7.7.7.7.7.7.7.7.7.7.7.7.7.7.7.7.7.7.7.7.7.7.7.7.7.7.7.7.7.7.7.o f U Y @   7.7.7.7.7.7.7.7.7.7.7.7.7.7.7.7.7.7.7.7.7.",
"7.7.7.7.7.7.7.7.7.7.7.7.7.7.7.7.7.7.7.7.7.7.7.7.7.7.7.7.7.7.7.7.7.7.7.7.7.7.7.O X 7.7.7.7.7.7.7.7.7.7.7.7.7.7.7.7.7.7.7.7.7.7.7."
};
