/* XPM */
static char *_00[] = {
/* columns rows colors chars-per-pixel */
"32 32 255 2 ",
"   c #282828",
".  c #262D31",
"X  c #252E31",
"o  c #303C41",
"O  c #3A484E",
"+  c #3D4D53",
"@  c #484848",
"#  c #484C4E",
"$  c #43545A",
"%  c #43545B",
"&  c #45575F",
"*  c #515151",
"=  c #575B5C",
"-  c #595959",
";  c #5B5B5B",
":  c #4E6068",
">  c #4E616A",
",  c #4F626A",
"<  c #526268",
"1  c #5C6F77",
"2  c #5D737D",
"3  c #656565",
"4  c #656666",
"5  c #666767",
"6  c #676868",
"7  c #6B6B6B",
"8  c #6D6D6D",
"9  c #67747A",
"0  c #63757D",
"q  c #757575",
"w  c #7A7B7B",
"e  c #7D7D7D",
"r  c #637A84",
"t  c #67808B",
"y  c #6D8088",
"u  c #6C818A",
"i  c #7D8284",
"p  c #73858D",
"a  c #79868B",
"s  c #7E898D",
"d  c #6C8691",
"f  c #6F8A95",
"g  c #6F8A96",
"h  c #718891",
"j  c #768890",
"k  c #778890",
"l  c #768C95",
"z  c #718D98",
"x  c #7C9099",
"c  c #7D9199",
"v  c #7E9199",
"b  c #7D929B",
"n  c #7E949D",
"m  c #7895A1",
"M  c #7A97A3",
"N  c #7F99A4",
"B  c #7C9AA7",
"V  c #7F9AA6",
"C  c #7D9CA8",
"Z  c #828282",
"A  c #838383",
"S  c #818688",
"D  c #898989",
"F  c #8E8F8F",
"G  c #838D91",
"H  c #889295",
"J  c #889499",
"K  c #8D969A",
"L  c #8B979C",
"P  c #8A999F",
"I  c #909090",
"U  c #929292",
"Y  c #949494",
"T  c #959595",
"R  c #979797",
"E  c #91979A",
"W  c #91989B",
"Q  c #92999C",
"!  c #919A9E",
"~  c #979C9E",
"^  c #989898",
"/  c #9B9B9B",
"(  c #9C9C9C",
")  c #9F9F9F",
"_  c #869BA4",
"`  c #899BA3",
"'  c #869FA9",
"]  c #909CA1",
"[  c #959EA1",
"{  c #84A1AD",
"}  c #84A2AF",
"|  c #9CA2A4",
" . c #9CA7AC",
".. c #89A5B1",
"X. c #88A7B5",
"o. c #8CAEBD",
"O. c #8DAFBD",
"+. c #8EB0BF",
"@. c #A3A3A3",
"#. c #A0A4A6",
"$. c #A2A8AB",
"%. c #AAAAAA",
"&. c #A8ADAF",
"*. c #ACACAC",
"=. c #AFAFAF",
"-. c #ADB2B4",
";. c #B4B4B4",
":. c #B6B6B6",
">. c #B7B6B6",
",. c #B6B9BA",
"<. c #B7B9BA",
"1. c #BABABA",
"2. c #BABBBB",
"3. c #BBBBBB",
"4. c #B8BBBD",
"5. c #92B4C2",
"6. c #95BAC9",
"7. c #98BCCB",
"8. c #99BECD",
"9. c #98BECE",
"0. c #99BFCF",
"q. c #9DC4D4",
"w. c #9FC7D7",
"e. c #BFC0C0",
"r. c #BFC1C1",
"t. c #A0C7D7",
"y. c #A0C8D8",
"u. c #A1C9DA",
"i. c #A5CCDD",
"p. c #B1CEDA",
"a. c #B8D1DB",
"s. c #A6CFE0",
"d. c #A7D0E1",
"f. c #A8D1E2",
"g. c #ABD4E5",
"h. c #ACD6E8",
"j. c #AED8E9",
"k. c #AED9EB",
"l. c #AFDAEC",
"z. c #B1D4E2",
"x. c #B0DBED",
"c. c #B1DCEE",
"v. c #B1DCEF",
"b. c #B1DDEF",
"n. c #B2DDEF",
"m. c #B3DDEF",
"M. c #B4DEEF",
"N. c #B2DEF0",
"B. c #B3DEF0",
"V. c #B2DEF1",
"C. c #B3DEF1",
"Z. c #B3DFF1",
"A. c #B4DEF0",
"S. c #B5DEF0",
"D. c #B4DFF1",
"F. c #B7DFF0",
"G. c #B4DFF2",
"H. c #B4E0F2",
"J. c #B5E1F3",
"K. c #BCE2F1",
"L. c #C0C0C0",
"P. c #C2C2C2",
"I. c #C3C5C5",
"U. c #C5C5C5",
"Y. c #C4C5C6",
"T. c #C5C5C6",
"R. c #C6C6C6",
"E. c #C6C7C7",
"W. c #C8C8C8",
"Q. c #C9C9C9",
"!. c #CACACA",
"~. c #CFCFCF",
"^. c #C0D1D9",
"/. c #C4D2D8",
"(. c #CAD5DA",
"). c #CDD7DB",
"_. c #D0D1D1",
"`. c #D1D1D1",
"'. c #D1D2D2",
"]. c #D0D6D8",
"[. c #D7D8D8",
"{. c #D8D8D8",
"}. c #D9D9D9",
"|. c #D9DADA",
" X c #DCDCDC",
".X c #DDDCDC",
"XX c #DEDEDE",
"oX c #DFDFDE",
"OX c #D7DEE0",
"+X c #DBDEE0",
"@X c #D5E0E5",
"#X c #D6E3E9",
"$X c #C3E4F2",
"%X c #C4E4F2",
"&X c #CBE8F4",
"*X c #D0E8F2",
"=X c #D1EBF5",
"-X c #D2EBF6",
";X c #D3ECF6",
":X c #D4ECF6",
">X c #DAEAF0",
",X c #D8EEF7",
"<X c #E2E2E1",
"1X c #E4E3E3",
"2X c #E0E5E7",
"3X c #E2E6E7",
"4X c #E5E5E5",
"5X c #E6E5E5",
"6X c #E6E6E6",
"7X c #E7E6E6",
"8X c #E8E7E7",
"9X c #E8E8E8",
"0X c #E9E8E8",
"qX c #E9E9E9",
"wX c #EBEBEA",
"eX c #EDECEC",
"rX c #EDEDED",
"tX c #EFEFEF",
"yX c #EEF0F1",
"uX c #E6F4F9",
"iX c #E6F4FA",
"pX c #EAF5FA",
"aX c #EDF7FB",
"sX c #EFF7FA",
"dX c #EEF8FC",
"fX c #F0F0F0",
"gX c #F1F0F0",
"hX c #F2F2F2",
"jX c #F4F4F3",
"kX c #F3F6F7",
"lX c #F4F4F4",
"zX c #F5F5F5",
"xX c #F5F7F7",
"cX c #F6F6F6",
"vX c #F7F7F7",
"bX c #F1F9FC",
"nX c #F5FBFD",
"mX c #F7FCFD",
"MX c #F8F8F8",
"NX c #F9F9F9",
"BX c #FAFAFA",
"VX c #FBFAFA",
"CX c #FBFBFA",
"ZX c #FBFBFB",
"AX c #F8FCFD",
"SX c #FAFDFE",
"DX c #FCFCFC",
"FX c #FDFDFC",
"GX c #FDFDFD",
"HX c #FEFDFD",
"JX c #FEFEFD",
"KX c #FEFEFE",
"LX c #FFFEFE",
"PX c #FFFFFF",
"IX c None",
/* pixels */
"IXIXIXIXIXIXIXIXIXIXIXIXIXIXIXIXIX@ ^ W.= IXIXIXIXIXIXIXIXIXIXIX",
"IXIXIXIXIXIXIXIXIXIXIXIXIXIXIXIXIX@.PX'.< IXIXIXIXIXIXIXIXIXIXIX",
"IXIXIXIXIXIXIXIXIXIXIXIXIXIXIXIXIX1.PX{.0 IXIXIXIXIXIXIXIXIXIXIX",
"IXIXIXIXIXIXIXIXIXIXIXIXIXIXIXIXIX!.PXoXy o IXIXIXIXIXIXIXIXIXIX",
"IXIXIXIXIXIXIXIXIXIXIXIXIXIXIXIXIX|.PX4Xp + IXIXIXIXIXIXIXIXIXIX",
"IXIXIXIXIXIXIXIXIXIXIXIXIXIXIXIX* 9XPXwXj & IXIXIXIXIXIXIXIXIXIX",
"IXIXIXIXIXIXIXIXIXIXIXIXIXIXIXIX3 hXPXlXS # IXIXIXIXIXIXIXIXIXIX",
"IXIXIXIXIXIXIXIXIXIXIXIXIXIXIXIXe BXJXqX>.i 8.IXIXIXIXIXIXIXIXIX",
"IXIXIXIXIXIXIXIXIXIXIXIXIXIXIXIXZ Q.( T L.+Xz.B.m.l.IXIXIXIXIXIX",
"IXIXIXIXIXIXIXIXIXIXIXIXIXIXIXIX8 %.}.NXPXZX^.*X;X%XS.n.IXIXIXIX",
"IXIXIXIXIXIXIXIXIXIXIXIXIXq *. XvXPXPXPXPXPXOX#XdXuX-XK.n.n.IXIX",
"IXIXIXIXIXIXIXIXIXIX5 ) `.lXPXPXPXPXLXJXPXPXyX(.AXnXpX:XS.n.IXIX",
"IXIXIXIXIXIXIX- U T.rXKXPXPXPXPXBX.X&.Q Y.zXGX].kXSXbX,XF.n.IXIX",
"IXIXIXIXIX4 3.4XDXPXPXPXPXGX7X,.J N 6.w.{ s <X2X@XmXaX=XM.IXIXIX",
"IXIXIXIXt [ HXPXPXPXLXtXI.! n +.d.B.D.C.V.l .XxX/.sXiX$Xj.IXIXIX",
"IXIXIXC c._ 4XPXPX9X| v X.u.c.G.N.n.Z.J.9.W HXLX).>X&Xm.IXIXIXIX",
"IXIXg n.H.5.4.PXLX~ o.l.G.B.n.B.H.k.0.V a [.PXPX3Xp.A.c.IXIXIXIX",
"IX$ i.B.N.f.] CX1Xx v.n.N.H.c.y.} k E U.fXPXPXPXNXa.v.IXIXIXIXIX",
"IXd C.n.n.V.' XXT.u u.c.s.O.b K 2.8XHXPXPXPXPXFX1X .IXIXIXIXIXIX",
"IXB H.n.n.D.7.-.VXE.H c L <.5XFXPXPXPXPXLXrXP.^ T F IXIXIXIXIXIX",
"IXz D.n.n.n.h.P jXPXMX0XBXPXPXPXPXPXlX~.Y I =.XXlXi : IXIXIXIXIX",
"IX, g.N.n.n.Z..._.PXPXPXPXPXPXNX X*.q IX  ;.KXPXPXr.h % IXIXIXIX",
"IXIXm n.C.n.C.q.$.PXPXPXDX6X1.A IXIXIXIXIXIX:.DXPXFX#.r X IXIXIX",
"IXIXIXf t.x.D.b.` eXtXR.U - IXIXIXIXIXIXIXIXIX*.ZXPXgXG > IXIXIX",
"IXIXIXIXO 2 z M 1 w 7 IXIXIXIXIXIXIXIXIXIXIXIXIX@.MXPX X9 . IXIX",
"IXIXIXIXIXIXIXIXIXIXIXIXIXIXIXIXIXIXIXIXIXIXIXIXIX/ cXPXe.6 IXIX",
"IXIXIXIXIXIXIXIXIXIXIXIXIXIXIXIXIXIXIXIXIXIXIXIXIXIXD R ; IXIXIX",
"IXIXIXIXIXIXIXIXIXIXIXIXIXIXIXIXIXIXIXIXIXIXIXIXIXIXIXIXIXIXIXIX",
"IXIXIXIXIXIXIXIXIXIXIXIXIXIXIXIXIXIXIXIXIXIXIXIXIXIXIXIXIXIXIXIX",
"IXIXIXIXIXIXIXIXIXIXIXIXIXIXIXIXIXIXIXIXIXIXIXIXIXIXIXIXIXIXIXIX",
"IXIXIXIXIXIXIXIXIXIXIXIXIXIXIXIXIXIXIXIXIXIXIXIXIXIXIXIXIXIXIXIX",
"IXIXIXIXIXIXIXIXIXIXIXIXIXIXIXIXIXIXIXIXIXIXIXIXIXIXIXIXIXIXIXIX"
};
