/* XPM */
static char *_61[] = {
/* columns rows colors chars-per-pixel */
"32 32 256 2 ",
"   c #181F21",
".  c #1F272A",
"X  c #283135",
"o  c #293337",
"O  c #3A3A3A",
"+  c #354247",
"@  c #38454B",
"#  c #3A484D",
"$  c #3E4D54",
"%  c #454545",
"&  c #4C4F4F",
"*  c #405158",
"=  c #575757",
"-  c #5C5C5C",
";  c #5F5F5F",
":  c #485A61",
">  c #4B5E65",
",  c #4D6068",
"<  c #4E6169",
"1  c #50636B",
"2  c #546268",
"3  c #50646C",
"4  c #51646C",
"5  c #576971",
"6  c #5F757E",
"7  c #626161",
"8  c #696969",
"9  c #6D6D6D",
"0  c #6E6E6E",
"q  c #6B6F71",
"w  c #6F7577",
"e  c #717171",
"r  c #737373",
"t  c #747373",
"y  c #767676",
"u  c #797979",
"i  c #7F7F7F",
"p  c #5F7781",
"a  c #6C7C82",
"s  c #6C7D84",
"d  c #7D7F80",
"f  c #71858D",
"g  c #74868E",
"h  c #7E888C",
"j  c #7D898E",
"k  c #7F8A8F",
"l  c #6E8792",
"z  c #758A93",
"x  c #718B96",
"c  c #798A91",
"v  c #7A8D95",
"b  c #7F8D94",
"n  c #7A8F98",
"m  c #75929D",
"M  c #7A9099",
"N  c #7B919A",
"B  c #7C949F",
"V  c #7D97A2",
"C  c #7D99A4",
"Z  c #7D9BA8",
"A  c #7E9CA9",
"S  c #7F9DAA",
"D  c #838383",
"F  c #838687",
"G  c #868B8D",
"H  c #898989",
"J  c #8B8B8B",
"K  c #83969E",
"L  c #85959C",
"P  c #8F979B",
"I  c #8B979D",
"U  c #929292",
"Y  c #949494",
"T  c #919698",
"R  c #929A9E",
"E  c #949A9C",
"W  c #979B9D",
"Q  c #989898",
"!  c #9C9C9C",
"~  c #9D9D9D",
"^  c #9E9E9E",
"/  c #839AA4",
"(  c #809BA6",
")  c #809DA9",
"_  c #949EA3",
"`  c #87A2AD",
"'  c #85A2AF",
"]  c #9BA0A2",
"[  c #9DA4A7",
"{  c #9EA4A7",
"}  c #87A5B1",
"|  c #86A5B2",
" . c #88A8B5",
".. c #8AA8B5",
"X. c #88A9B6",
"o. c #8CAEBC",
"O. c #A1A1A1",
"+. c #A4A4A3",
"@. c #A5A5A5",
"#. c #A2A7A9",
"$. c #A9A9A9",
"%. c #AAAAAA",
"&. c #AAAEAF",
"*. c #ACAEAF",
"=. c #AAAEB0",
"-. c #AEB1B2",
";. c #B0B3B5",
":. c #B5B5B5",
">. c #B7B8B9",
",. c #B5B8BA",
"<. c #B9B9B9",
"1. c #B8B9BA",
"2. c #BBBDBE",
"3. c #BDBDBD",
"4. c #BDBFBF",
"5. c #BFBFBF",
"6. c #90B3C2",
"7. c #92B5C4",
"8. c #96BAC9",
"9. c #96BBCB",
"0. c #98BDCC",
"q. c #98BECD",
"w. c #BABFC1",
"e. c #9AC0D0",
"r. c #9CC2D2",
"t. c #9FC6D6",
"y. c #A0C7D7",
"u. c #A9C9D6",
"i. c #A2C9D9",
"p. c #A2CADB",
"a. c #A4CBDC",
"s. c #A4CCDD",
"d. c #ADCDDB",
"f. c #BAD4DF",
"g. c #A8D1E3",
"h. c #A8D2E3",
"j. c #AAD3E5",
"k. c #ABD4E6",
"l. c #ABD5E6",
"z. c #ACD7E8",
"x. c #ADD7E9",
"c. c #ADD8EA",
"v. c #AFDAEC",
"b. c #AFDAED",
"n. c #B2DAEB",
"m. c #B0DAEC",
"M. c #B0DBED",
"N. c #B1DCEF",
"B. c #B1DDEF",
"V. c #B2DCEE",
"C. c #B2DDEF",
"Z. c #B3DDEF",
"A. c #BFDDEA",
"S. c #B2DDF0",
"D. c #B2DEF0",
"F. c #B3DEF0",
"G. c #B3DEF1",
"H. c #B3DFF1",
"J. c #B4DFF1",
"K. c #B4DFF2",
"L. c #B4E0F2",
"P. c #B5E0F3",
"I. c #B6E2F4",
"U. c #B6E2F5",
"Y. c #BBE1F1",
"T. c #BCE2F1",
"R. c #BEE2F1",
"E. c #C1C1C1",
"W. c #C4C4C4",
"Q. c #C5C5C5",
"!. c #C4C6C6",
"~. c #C6C6C6",
"^. c #C8C9C9",
"/. c #CACBCB",
"(. c #CBCBCC",
"). c #CCCCCC",
"_. c #CECFCF",
"`. c #CFCFCF",
"'. c #CFCFD0",
"]. c #C3D1D6",
"[. c #CFD0D0",
"{. c #C8D3D7",
"}. c #C9D3D7",
"|. c #C8D4D8",
" X c #D1D1D1",
".X c #D2D2D2",
"XX c #D3D3D3",
"oX c #D4D4D4",
"OX c #D5D5D5",
"+X c #D7D7D7",
"@X c #D1D9DC",
"#X c #D4DCDF",
"$X c #D8D8D8",
"%X c #DCDCDC",
"&X c #DDDCDC",
"*X c #D5DFE3",
"=X c #D2E0E5",
"-X c #D7E6EC",
";X c #C6E5F2",
":X c #C7E6F3",
">X c #C8E6F3",
",X c #CAE8F4",
"<X c #CCE9F5",
"1X c #D6EDF6",
"2X c #DCEFF8",
"3X c #E0E0E0",
"4X c #E2E1E1",
"5X c #E2E2E1",
"6X c #E2E2E2",
"7X c #E3E2E2",
"8X c #E3E4E4",
"9X c #E2E5E6",
"0X c #E5E4E4",
"qX c #E6E6E6",
"wX c #E7E7E7",
"eX c #ECEBEB",
"rX c #EBEEEF",
"tX c #ECECEC",
"yX c #EDEDEC",
"uX c #EDEDED",
"iX c #EEEEEE",
"pX c #E4EEF1",
"aX c #E3F3F9",
"sX c #E7F4FA",
"dX c #E9F5FA",
"fX c #EAF6FA",
"gX c #EFF8FC",
"hX c #F0F0F0",
"jX c #F1F1F1",
"kX c #F2F2F2",
"lX c #F3F3F3",
"zX c #F2F4F4",
"xX c #F4F4F4",
"cX c #F5F5F5",
"vX c #F6F5F5",
"bX c #F5F6F7",
"nX c #F7F7F7",
"mX c #F3FAFC",
"MX c #F2FAFD",
"NX c #F7FBFD",
"BX c #F8F8F8",
"VX c #F9F9F8",
"CX c #F9F9F9",
"ZX c #FAF9F9",
"AX c #F9FAFA",
"SX c #F8FAFB",
"DX c #FAFAFA",
"FX c #FBFBFB",
"GX c #F9FDFE",
"HX c #FCFCFC",
"JX c #FDFDFD",
"KX c #FEFDFD",
"LX c #FEFEFE",
"PX c #FFFEFE",
"IX c #FFFFFF",
"UX c None",
/* pixels */
"UXUXUXUXUXUXUXUXUXUXUXUXUXUXUX. 2 OX$.UXUXUXUXUXUXUXUXUXUXUXUXUX",
"UXUXUXUXUXUXUXUXUXUXUXUXUXUXUX* k vXnXe UXUXUXUXUXUXUXUXUXUXUXUX",
"UXUXUXUXUXUXUXUXUXUXUXUXUXUXUX6 ;.IXuX; UXUXUXUXUXUXUXUXUXUXUXUX",
"UXUXUXUXUXUXUXUXUXUXUXUXUXUX: g 4XIX+XUXUXUXUXUXUXUXUXUXUXUXUXUX",
"UXUXUXUXUXUXUXUXUXUXUXUXUXUXp R KXIX3.UXUXUXUXUXUXUXUXUXUXUXUXUX",
"UXUXUXUXUXUXUXUXUXUXUXUXUX& w /.IXIX^ UXUXUXUXUXUXUXUXUXUXUXUXUX",
"UXUXUXUXUXC.B.V.n.Z.N.N.u.F :.ZXIXFXi UXUXUXUXUXUXUXUXUXUXUXUXUX",
"UXUXUXUXC.C.T.,X1X1X<Xd.*XhX~ @.cXhX7 UXUXUXUXUXUXUXUXUXUXUXUXUX",
"UXUXUXUXB.R.2XdXgXMX-X}.HXIXDX:.Y E.UXUXUXUXUXUXUXUXUXUXUXUXUXUX",
"UXUXUXUXB.:XsXNXGXpX].bXIXIXIXIX X9 UXUXUXUXUXUXUXUXUXUXUXUXUXUX",
"UXUXUXUXB.>XfXGXSX|.rXIXIXIXIXIXIXqXH UXUXUXUXUXUXUXUXUXUXUXUXUX",
"UXUXUXUXb.;XdXmX#X9XtX>.#.E (.LXIXIXcX$.UXUXUXUXUXUXUXUXUXUXUXUX",
"UXUXUXUXUXY.aX=X@XIX4.x q.e.z *.VXIXIXJXW.- UXUXUXUXUXUXUXUXUXUX",
"UXUXUXUXUXF.A.{.AXIX_.} I.J.c.C T yXIXIXIX%Xu UXUXUXUXUXUXUXUXUX",
"UXUXUXUXUXB.f.zXIXIX3XN S.D.D.D.o.h &XIXIXIXiXQ UXUXUXUXUXUXUXUX",
"UXUXUXUXUXs w.LXIXIXDX#.) x.G.C.K.r.c /.PXIXIXCX:.UXUXUXUXUXUXUX",
"UXUXUXUXo d +.%.xXIXIXHX2.M s.J.C.J.h.B -.ZXIXIXLX`.8 UXUXUXUXUX",
"UXUXUX> l G lX<.U 8XIXIXIX+Xb 9.H.C.F.m.| { CXIXIXLXW X UXUXUXUX",
"UXUX3 f &.cXIXIXOXJ ).IXIXIXeXP  .M.D.C.D.n 5XIXIX!.` S UXUXUXUX",
"  4 j [.KXIXIXCXXXr % Q.JXIXIXBX=.V j.P.U.( .XIX%XK z.l.1 UXUXUX",
"q ] eXIXIXcX~.D UXUXUXUX$.cXIXIXLX^.v X.' a '.jXI p.G.L.A UXUXUX",
"t $XIXkX5.y UXUXUXUXUXUXUXJ wXIXIXIX6X1./.7XcX[ 8.J.C.J.0.UXUXUX",
"UX= O.0 UXUXUXUXUXUXUXUXUXUX9 XXPXIXIXIXIXIX,...G.C.C.G.y.UXUXUX",
"UXUXUXUXUXUXUXUXUXUXUXUXUXUXUXUX<.DXIXIXIX'./ v.C.C.C.J.0.UXUXUX",
"UXUXUXUXUXUXUXUXUXUXUXUXUXUXUXUXUX! hXIX0XL g.F.C.C.C.J.m UXUXUX",
"UXUXUXUXUXUXUXUXUXUXUXUXUXUXUXUXUXUXi oX_ t.L.C.C.F.L.6.+ UXUXUX",
"UXUXUXUXUXUXUXUXUXUXUXUXUXUXUXUXUXUXUXO 5 7.a.k.l.i.Z @ UXUXUXUX",
"UXUXUXUXUXUXUXUXUXUXUXUXUXUXUXUXUXUXUXUXUXUX$ < , # UXUXUXUXUXUX",
"UXUXUXUXUXUXUXUXUXUXUXUXUXUXUXUXUXUXUXUXUXUXUXUXUXUXUXUXUXUXUXUX",
"UXUXUXUXUXUXUXUXUXUXUXUXUXUXUXUXUXUXUXUXUXUXUXUXUXUXUXUXUXUXUXUX",
"UXUXUXUXUXUXUXUXUXUXUXUXUXUXUXUXUXUXUXUXUXUXUXUXUXUXUXUXUXUXUXUX",
"UXUXUXUXUXUXUXUXUXUXUXUXUXUXUXUXUXUXUXUXUXUXUXUXUXUXUXUXUXUXUXUX"
};
