/* XPM */
static char *_2[] = {
/* columns rows colors chars-per-pixel */
"72 72 219 2 ",
"   c #10291A",
".  c #06182E",
"X  c #0D1B2C",
"o  c #0D172E",
"O  c #151D2F",
"+  c #0E1C33",
"@  c #0E1D3A",
"#  c #0A1631",
"$  c #121D32",
"%  c #101E3A",
"&  c #0D212B",
"*  c #13222D",
"=  c #1A252F",
"-  c #132B24",
";  c #0B2539",
":  c #132235",
">  c #1A2432",
",  c #13223C",
"<  c #1B2A3C",
"1  c #192839",
"2  c #1B343C",
"3  c #183334",
"4  c #0B332D",
"5  c #2E352D",
"6  c #242B3A",
"7  c #2C333C",
"8  c #273739",
"9  c #323533",
"0  c #363834",
"q  c #3B3B3D",
"w  c #37393A",
"e  c #433D3D",
"r  c #463C38",
"t  c #294A39",
"y  c #25473A",
"u  c #3A453A",
"i  c #3B4738",
"p  c #4A483D",
"a  c #49503E",
"s  c #0F1F42",
"d  c #101F42",
"f  c #0E2244",
"g  c #0D2548",
"h  c #122243",
"j  c #192643",
"k  c #172944",
"l  c #1B2C43",
"z  c #14254C",
"x  c #18264D",
"c  c #15294D",
"v  c #1B2B4D",
"b  c #1D3244",
"n  c #1C334B",
"m  c #152654",
"M  c #182655",
"N  c #162955",
"B  c #1A2C54",
"V  c #17275A",
"C  c #16295A",
"Z  c #1A2C5B",
"A  c #1C3254",
"S  c #1E315C",
"D  c #212E43",
"F  c #233245",
"G  c #22344B",
"H  c #293B4F",
"J  c #293A48",
"K  c #353D44",
"L  c #3D3B44",
"P  c #223355",
"I  c #253A53",
"U  c #293C55",
"Y  c #21345B",
"T  c #243A5B",
"R  c #2A3C5C",
"E  c #1D2F60",
"W  c #1E3161",
"Q  c #213462",
"!  c #293E61",
"~  c #403F40",
"^  c #004A47",
"/  c #2A4848",
"(  c #3C4344",
")  c #374946",
"_  c #384849",
"`  c #3C5147",
"'  c #2B435C",
"]  c #31445C",
"[  c #394958",
"{  c #355150",
"}  c #2C4364",
"|  c #2D4766",
" . c #354A65",
".. c #30496A",
"X. c #374A65",
"o. c #3A516A",
"O. c #334D72",
"+. c #3A5474",
"@. c #395375",
"#. c #434343",
"$. c #4D4441",
"%. c #474C4B",
"&. c #4C4D4B",
"*. c #464A46",
"=. c #554A44",
"-. c #5C4D44",
";. c #584B48",
":. c #524B48",
">. c #46544E",
",. c #475547",
"<. c #5B5B4B",
"1. c #565449",
"2. c #4E4D52",
"3. c #455A53",
"4. c #485956",
"5. c #535C5B",
"6. c #595A57",
"7. c #504F51",
"8. c #624E48",
"9. c #625245",
"0. c #6B5446",
"q. c #63534C",
"w. c #6B5449",
"e. c #655F4E",
"r. c #6C5B4C",
"t. c #765C4C",
"y. c #7C5C4B",
"u. c #645A55",
"i. c #695C54",
"p. c #645C5A",
"a. c #675B56",
"s. c #755E52",
"d. c #5C645D",
"f. c #53625C",
"g. c #566257",
"h. c #69614E",
"j. c #63635D",
"k. c #6A635E",
"l. c #6A6658",
"z. c #756253",
"x. c #7B6452",
"c. c #73665B",
"v. c #7D6B5B",
"b. c #77685B",
"n. c #75614F",
"m. c #41536B",
"M. c #485964",
"N. c #535F63",
"B. c #546365",
"V. c #5B6565",
"C. c #586969",
"Z. c #596B6A",
"A. c #496873",
"S. c #4E7174",
"D. c #4E6C6B",
"F. c #6C6761",
"G. c #666C65",
"H. c #6D6A63",
"J. c #626361",
"K. c #746B62",
"L. c #7A6D62",
"P. c #716760",
"I. c #6D726B",
"U. c #67726F",
"Y. c #737165",
"T. c #797165",
"R. c #75746B",
"E. c #7B756B",
"W. c #7D786B",
"Q. c #6A7673",
"!. c #727873",
"~. c #7B7A73",
"^. c #747D7A",
"/. c #7B7772",
"(. c #826454",
"). c #836956",
"_. c #836B59",
"`. c #8A6C5B",
"'. c #8A6858",
"]. c #85715E",
"[. c #906C5E",
"{. c #926E60",
"}. c #857B6E",
"|. c #867465",
" X c #9B7666",
".X c #877E74",
"XX c #A47967",
"oX c #6E807C",
"OX c #96816D",
"+X c #81827A",
"@X c #898276",
"#X c #968A78",
"$X c #AC8169",
"%X c #A58C78",
"&X c #AB9178",
"*X c #3B5B88",
"=X c #406EAF",
"-X c #6B8283",
";X c #6B888B",
":X c #778785",
">X c #7B9296",
",X c #689092",
"<X c #6E99A1",
"1X c #77B2BC",
"2X c #858A85",
"3X c #8D938B",
"4X c #97938A",
"5X c #8B9996",
"6X c #929A96",
"7X c #9B8E81",
"8X c #A59586",
"9X c #ACA496",
"0X c #B1A89A",
"qX c #BCB5A8",
"wX c #AEBBB6",
"eX c #95ACAC",
"rX c #C1BAAE",
"tX c #ABCBC8",
"yX c None",
/* pixels */
"yXyXyXyXyXyXyXyXyXyXyXyXyXyXyXyXyXyXyXyXyXyXyXyXyXyXyXyXyXyXyXyXyXyXyXyXyXyXyXyXyXyXyXyXyXyXyXyXyXyXyXyXyXyXyXyXyXyXyXyXyXyXyXyXyXyXyXyXyXyXyXyX",
"yXyXyXyXyXyXyXyXyXyXyXyXyXyXyXyXyXyXyXyXyXyXyXyXyXyXyXyXyXyXyXyXyXyXyXyXyXyXyXyXyXyXyXyXyXyXyXyXyXyXyXyXyXyXyXyXyXyXyXyXyXyXyXyXyXyXyXyXyXyXyXyX",
"yXyXyXyXyXyXyXyXyXyXyXyXyXyXyXyXyXyXyXyXyXyXyXyXyXyXyXyXyXyXyXyXyXyXyXyXyXyXyXyXyXyXyXyXyXyXyXyXyXyXyXyXyXyXyXyXyXyXyXyXyXyXyXyXyXyXyXyXyXyXyXyX",
"yXyXyXyXyXyXyXyXyXyXyXyXyXyXyXyXyXyXyXyXyXyXyXyXyXyXyXyXyXyXyXyXyXyXyXyXyXyXyXyXyXyXyXyXyXyXyXyXyXyXyXyXyXyXyXyXyXyXyXyXyXyXyXyXyXyXyXyXyXyXyXyX",
"yXyXyXyXyXyXyXyXyXyXyXyXyXyXyXyXyXyXyXyXyXyXyXyXyXyXyXyXyXyXyXyXyXyXyXyXyXyXyXyXyXyXyXyXyXyXyXyXyXyXyXyXyXyXyXyXyXyXyXyXyXyXyXyXyXyXyXyXyXyXyXyX",
"yXyXyXyXyXyXyXyXyXyXyXyXyXyXyXyXyXyXyXyXyXyXyXyXyXyXyXyXyXyXyXyXyXyXyXyXyXyXyXyXyXyXyXyXyXyXyXyXyXyXyXyXyXyXyXyXyXyXyXyXyXyXyXyXyXyXyXyXyXyXyXyX",
"yXyXyXyXyXyXyXyXyXyXyXyXyXyXyXyXyXyXyXyXyXyXyXyXyXyXyXyXyXyXyXyXyXyXyXyXyXyXyXyXyXyXyXyXyXyXyXyXyXyXyXyXyXyXyXyXyXyXyXyXyXyXyXyXyXyXyXyXyXyXyXyX",
"yXyXyXyXyXyXyXyXyXyXyXyXyXyXyXyXyXyXyXyXyXyXyXyXyXyXyXyXyXyXyXyXyXyXyXyXyXyXyXyXyXyXyXyXyXyXyXyXyXyXyXyXyXyXyXyXyXyXyXyXyXyXyXyXyXyXyXyXyXyXyXyX",
"yXyXyXyXyXyXyXyXyXyXyXyXyXyXyXyXyXyXyXyXyXyXyXyXyXyXyXyXyXyXyXyXyXyXyXyXyXyXyXyXyXyXyXyXyXyXyXyXyXyXyXyXyXyXyXyXyXyXyXyXyXyXyXyXyXyXyXyXyXyXyXyX",
"yXyXyXyXyXyXyXyXyXyXyXyXyXyXyXyXyXyXyXyXyXyXyXyXyXyXyXyXyXyXyXyXyXyXyXyXyXyXyXyXyXyXyXyXyXyXyXyXyXyXyXyXyXyXyXyXyXyXyXyXyXyXyXyXyXyXyXyXyXyXyXyX",
"yXyXyXyXyXyXyXyXyXyXyXyXyXyXyXyXyXyXyXyXyXyXyXyXyXyXyXyXyXyXyXyXyXyXyXyXyXyXyXyXyXyXyXyXyXyXyXyXyXyXyXyXyXyXyXyXyXyXyXyXyXyXyXyXyXyXyXyXyXyXyXyX",
"yXyXyXyXyXyXyXyXyXyXyXyXyXyXyXyXyXyXyXyXyXyXyXyXyXyXyXyXyXyXyXyXyXyXyXyXyXyXyXyXyXyXyXyXyXyXyXyXyXyXyXyXyXyXyXyXyXyXyXyXyXyXyXyXyXyXyXyXyXyXyXyX",
"yXyXyXyXyXyXyXyXyXyXyXyXyXyXyXyXyXyXyXyXyXyXyXyXyXyXyXyXyXyXyXyXyXyXyXyXyXyXyXyXyXyXyXyXyXyXyXyXyXyXyXyXyXyXyXyXyXyXyXyXyXyXyXyXyXyXyXyXyXyXyXyX",
"yXyXyXyXyXyXyXyXyXyXyXyXyXyXyXyXyXyXyXyXyXyXyXyXyXyXyXyXyXyXyXyXyXyXyXyXyXyXyXyXyXyXyXyXyXyXyXyXyXyXyXyXyXyXyXyXyXyXyXyXyXyXyXyXyXyXyXyXyXyXyXyX",
"yXyXyXyXyXyXyXyXyXyXyXyXyXyXyXyXyXyXyXyXyXyXyXyXyXyXyXyXyXyXyXyXyXyXyXyXyXyXyXyXyXyXyXyXyXyXyXyXyXyXyXyXyXyXyXyXyXyXyXyXyXyXyXyXyXyXyXyXyXyXyXyX",
"yXyXyXyXyXyXyXyXyXyXyXyXyXyXyXyXyXyXyXyXyXyXyXyXyXyXyXyXyXyXyXyXyXyXyXyXyXyXyXyXyXyXyXyXyXyXyXyXyXyXyXyXyXyXyXyXyXyXyXyXyXyXyXyXyXyXyXyXyXyXyXyX",
"yXyXyXyXyXyXyXyXyXyXyXyXyXyXyXyXyXyXyXyXyXyXyXyXyXyXyXyXyXyXyXyXyXyXyXyXyXyXyXyXyXyXyXyXyXyXyXyXyXyXyXyXyXyXyXyXyXyXyXyX>XyXyXyXyXyXyXyXyXyXyXyX",
"yXyXyXyXyXyXyXyXyXyXyXyXyXyXyXyXyXyXyXyXyXyXyXyXyXyXyXyXyXyXyXyXyXyXyXyXyXyXyXyXyXyXyXyXyXyXyXyXyXyXB.S.yXQ.yXoX;X:X:X+X2X3X3XyXyXyXyXyXyXyXyXyX",
"yXyXyXyXyXyXyXyXyXyXyXyXyXyXyXyXyXyXyXyXyXyXyXyXyXyXyXyXyXyXyXyXyXyXyXyXyXyXyXyXyXyXyXB.C.B.5.5.B.f.V.C.U.U.!.^.^.^.+X.X3X8X4X3XyXyXyXyXyXyXyXyX",
"yXyXyXyXyXyXyXyXyXyXyXyXyXyXyXyXyXyXyXyXyXyXyXyXyXyXyXyXyXyXyXyXyXyXyXyXyXyXyXyXyXN.B.V.j.j.F.J.d.H.K.I.I.Y.W./.R.E.K.T.@X7X8X4X5XyXyXyXyXyXyXyX",
"yXyXyXyXyXyXyXyXyXyXyXyXyXyXyXyXyXyXyXyXyXyXyXyXyXyXyXyXyXyXyXyXyXyXyXyXyXyXyX5.5.6.p.F.F.P.K.L.c.T.R.P.P.R.R.R.!.!.K.R.}.}.4X4XyXyXyXyXyXyXyXyX",
"yXyXyXyXyXyXyXyXyXyXyXyXyXyXyXyXyXyXyXyXyXyXyXyXyXyXyXyXyXyXyXyXyXyXyXyXyX5.5.6.p.a.i.P.L.L.T.T.T.Y.T.I.Q.^.-X;X-X^.^.+XR.T.2X3XyXyXyXyXyXyXyXyX",
"yXyXyXyXyXyXyXyXyXyXyXyXyXyXyXyXyXyXyXyXyXyXyXyXyXyXyXyXyXyXyXyXyXyXC.V.V.u.u.q.q.i.c.T.T.E.W.W.~.!.Q.-X;X;XyX<X,XyX:X:XQ.!.2X5XyXyXyXyXyXyXyXyX",
"yXyXyXyXyXyXyXyXyXyXyXyXyXyXyXyXyXyXyXyXyXyXyXyXyXyXyXyXyXyXyXyXB.C.V.p.a.q.u.i.z.P.P.T./.~.~.yX2XyXyXyXyXyXyXyXyXyXyXyX-X^.yXyXyXyXyXyXyXyXyXyX",
"yXyXyXyXyXyXyXyXyXyXyXyXyXyXyXyXyXyXyXyXyXyXyXyXyXyXyXyXyXyX* K M.p.p.p.i.i.i.i.k.k.I.R./.yXyXyXyXyXyXyXyXyXyXyXyXyXyXyXyXyXyXyX:X5X6XyXyXyXyXyX",
"yXyXyXyXyXyXyXyXyXyXyXyXyXyXyXyXyXyXyXyXyXyXyXyXyXyXyXyXyXyX* 7 7.6.u.a.i.i.a.p.k.G.yXyXyXyXyXyXyXyXyXyXyXyXyXyXyXyXyXyXyXyX>X^.:X6X0XqXqXyXyXyX",
"yXyXyXyXyXyXyXyXyXyXyXyXyXyXyXyXyXyXyXyXyXyXyXyXyXyXyXyX; ; > 7 #.:.7.;.a.6.u.J.Z.S.yXyXyXyXyX_ yXyXyXyXyXyXyXyXyXyXyXyXyXyX:XR.+X4X9XrXrXyXyXyX",
"yXyXyXyXyXyXyXyXyXyXyXyXyXyXyXyXyXyXyXyXyXyXyXyXyXyXyXyX& . X > 6 7 w L ~ #.5.C.yXyXyXyXyX5 5 w ( >.M.yXyXyXyXyXyXyXyXyXyXyX2XR.7X%X&XqXyXyXyXyX",
"yXyXyXyXyXyXyXyXyXyXyXyXyXyXyXyXyXyXyXyXyXyXyXyXyXyX. . # # X X o O $ > $ v yXyXyXyXyX( L 9 6 K #.%.5.G.Q.yXyXyXyXyXyXyXtX5X+XW.#X&X8X0XyXyXyXyX",
"yXyXyXyXyXyXyXyXyXyXyXyXyXyXyXyXyXyXyXyXyXyXyXyXyXyX; @ @ + + + X $ $ + , G yXyXyXyX4.L #.p &.1.%.:.h.v.E.^.yXyXyXyXyXyXwX5X+XW.OX&X%X9XyXyXyXyX",
"yXyXyXyXyXyXyXyXyXyXyXyXyXyXyXyXyXyXyXyXyX .A.M.g g c f f , s % % % % h h G yXyXyX_ ) q $.;.u.u.;.p (.{. X|.yXyXyXyXyXyXeX2X@X#X&XOXE.yXyXyXyXyX",
"yXyXyXyXyXyXyXyXyXyXyXyXyXyXyXyXyXyXyX| } A c g N N m m m c g f f h , < l ' M.4.>.q w e *.;.q.i.8.8.`.XXXX|.~.yXyXyX,X>X3X@XOX#X#XY.3.yXyXyXyXyX",
"yXyXyXyXyXyXyXyXyXyXyXyXyXyXyXyXyXo.} S N N C C C C N m B N z z f h , % , J %._ q 9 9 e $.=.-.8.t.s. XXX$XW.1XyXyXA.Z.Q.+XOX@XW.G.f.yXyXyXyXyXyX",
"yXyXyXyXyXyXyXyXyXyXyXyX+.o.' ' ] S N C Z C C N C C m C A C N m h f , , 1 9 ~ q 0 9 r =.-.8.0.(.(.0.'.$XOXW.yXyX{ / 4.}.OXW.l.d.yXyXyXyXyXyXyXyX",
"yXyXyXyXyXyXyXyXyXyX} | } Q S B S C C C C C C N N N N C Z C B m f f , % 6 #.:.L r 0 $.w.0.t.y.[.(.9.(.XXv.l.yXyX3._ 5.T.W.,.  yXyXyXyXyXyXyXyXyX",
"yXyXyXyXyXyXyXyXc c B S Z Z C C C C C C M m C N N N C Z Z Z N z h f f , F ;.w.~ r r =.w.y.y.'.{.(.q.s.c.a yXZ.H.d.p a <.a a yXyXyXyXyXyXyXyXyXyX",
"yXyXyX'  .} ' S N m N m C C C C C C C C V C C g C Z Z N M V B N D % d d F 2.w.8.e r r 8.t.y.).`.r.p ,.,.>.d.I.].b.1.u ) yXyXyXyXyXyXyXyXyXyXyXyX",
"yXn n b n T ! S g c N N N C C C C C E Z Z C V N N N C m N Z V C M j d d D ~ q.8.;.e e $.9.h.n.-.0 - 4 2 d.E.oX`.v.i.>.) yXyXyXyXyXyXyXyXyXyXyXyX",
"k v c b B P Q V g g m N C C C C E E Z E E V C C N C C m B Z V M M D d d d x ~ ~ &.#.( i ,.<.;.i yX  ` d.Y.T.].`.v.h.` yXyXyXyXyXyXyXyXyXyXyXyXyX",
"b b b 2 l v B m z m N N m C C C C C E E W C C M M V Z m Z Z Z C M M d d d d d L _ ( ) yXM.,.yXyX5.6.j.Y.v._._.).h.<.yXyXyXyXyXyXyXyXyXyXyXyXyXyX",
"b n v l l k x x m N m z m m C C C E E E E V m V M Z Z N Z Z Z Z V M d M h , , , j n yX) ` 4.5.F.l.b.v.).).`._.h.1.yXyXyXyXyXyXyXyXyXyXyXyXyXyXyX",
"F G l l < k x M Z B f z m m C C C C E W E m C C Z S E V B Z Z V Z Z B j h @ , , @ ; J 4.d.G.K.L.b.b.v.).).v.h.h.yXyXyXyXyXyXyXyXyXyXyXyXyXyXyXyX",
"G F l l < h x B Z B f z z m C V C E E W C m V E Z Z Z Z C Z Y Q Y Q B j h % % % + 6 2.k.H.K.b.z.z.x.).`.).r.a yXyXyXyXyXyXyXyXyXyXyXyXyXyXyXyXyX",
"F l < < < j z B Z M f z z m V m C C Z Z M V Z W V Z Z W Z S Q Q Q Y V h , + @ . > 2.P.P.c.z.z.t.n.x.v.l.<.9.yXyXyXyXyXyXyXyXyXyXyXyXyXyXyXyXyXyX",
"l < < l F l v c B m z h c m M M N N C C C C S W Z Z Z Z S W Q Q Q Z N h % O + O #.F.z.c.z.s.x.t.0.0.h.` t yXyXyXyXyXyXyXyXyXyXyXyXyXyXyXyXyXyXyX",
", : 1 F F D v x x M z d z m N z m N C B C Z Z W W E W W S W W Q Q V z , X X X 7 j.K.v._._.).z.r.,.i t t yXyXyXyXyXyXyXyXyXyXyXyXyXyXyXyXyXyXyXyX",
": : < D F F F z d M h z z x N z z c v B Z S B Z S S W S S S S S S c , & X X * *.P.b.v._._.x.<.t t yXyXyXyXyXyXyXyXyXyXyXyXyXyXyXyXyXyXyXyXyXyXyX",
"1 < < < 2 G P M z x x M x z z x c c N B Z S A Z Z S A A S S Y S x k : & X X = &.h.i.e.z.{ / y yXyXyXyXyXyXyXyXyXyXyXyXyXyXyXyXyXyXyXyXyXyXyXyXyX",
"< < < l F U U v z h M M x x M z c v x B B B B A Z Z B B S S A A b < : & & & X 8 u i yXyX^ yXyXyXyXyXyXyXyXyXyXyXyXyXyXyXyXyXyXyXyXyXyXyXyXyXyXyX",
"< 1 6 H ]  .[ R G x D x z z z z x x N B B B B B B A S S A n n b J 7 < yXyX* yX  yXyXyXyXyXyXyXyXyXyXyXyXyXyXyXyXyXyXyXyXyXyXyXyXyXyXyXyXyXyXyXyX",
"F [ [ m.m.m.m. .} P x B x x x x z c B B N N B A A A A A n b yXyXyXyXyXyXyXyXyXyXyXyXyXyXyXyXyXyXyXyXyXyXyXyXyXyXyXyXyXyXyXyXyXyXyXyXyXyXyXyXyXyX",
"[ m.o.[ J ] ]  .m.R P P G x x x v c B N B B A n n b 2 2 yXyXyXyXyXyXyXyXyXyXyXyXyXyXyXyXyXyXyXyXyXyXyXyXyXyXyXyXyXyXyXyXyXyXyXyXyXyXyXyXyXyXyXyX",
"o.] b 1 = < 1 l U P Y P B P B B B N B v A n b 2 2 2 yXyXyXyXyXyXyXyXyXyXyXyXyXyXyXyXyXyXyXyXyXyXyXyXyXyXyXyXyXyXyXyXyXyXyXyXyXyXyXyXyXyXyXyXyXyX",
"2 1 = = 1 < < < 6 D G B P Y P B B B A n b 2 3 3 yXyXyXyXyXyXyXyXyXyXyXyXyXyXyXyXyXyXyXyXyXyXyXyXyXyXyXyXyXyXyXyXyXyXyXyXyXyXyXyXyXyXyXyXyXyXyXyX",
"= > < < 6 6 < b F F H B B P Y Y P [ / 3 3 yXyXyXyXyXyXyXyXyXyXyXyXyXyXyXyXyXyXyXyXyXyXyXyXyXyXyXyXyXyXyXyXyXyXyXyXyXyXyXyXyXyXyXyXyXyXyXyXyXyXyX",
"< 6 6 6 6 F G n G U R R P P R R [ G.>.yXyXyXyXyXyXyXyXyXyXyXyXyXyXyXyXyXyXyXyXyXyXyXyXyXyXyXyXyXyXyXyXyXyXyXyXyXyXyXyXyXyXyXyXyXyXyXyXyXyXyXyXyX",
"6 6 6 F F H I T ' ..+.| P T ..| [ yXyXyXyXyXyXyXyXyXyXyXyXyXyXyXyXyXyXyXyXyXyXyXyXyXyXyXyXyXyXyXyXyXyXyXyXyXyXyXyXyXyXyXyXyXyXyXyXyXyXyXyXyXyXyX",
"D F H P I R ! | @.+.+.*XO.O.@.yXyXyXyXyXyXyXyXyXyXyXyXyXyXyXyXyXyXyXyXyXyXyXyXyXyXyXyXyXyXyXyXyXyXyXyXyXyXyXyXyXyXyXyXyXyXyXyXyXyXyXyXyXyXyXyXyX",
"G I I R ! ..@.@.@.@.yX=X*XyXyXyXyXyXyXyXyXyXyXyXyXyXyXyXyXyXyXyXyXyXyXyXyXyXyXyXyXyXyXyXyXyXyXyXyXyXyXyXyXyXyXyXyXyXyXyXyXyXyXyXyXyXyXyXyXyXyXyX",
"U R ! ..O.@.+.+.yXyXyXyXyXyXyXyXyXyXyXyXyXyXyXyXyXyXyXyXyXyXyXyXyXyXyXyXyXyXyXyXyXyXyXyXyXyXyXyXyXyXyXyXyXyXyXyXyXyXyXyXyXyXyXyXyXyXyXyXyXyXyXyX",
"} ..O.+.@.m.yXyXyXyXyXyXyXyXyXyXyXyXyXyXyXyXyXyXyXyXyXyXyXyXyXyXyXyXyXyXyXyXyXyXyXyXyXyXyXyXyXyXyXyXyXyXyXyXyXyXyXyXyXyXyXyXyXyXyXyXyXyXyXyXyXyX",
"O.+.+.yXyXyXyXyXyXyXyXyXyXyXyXyXyXyXyXyXyXyXyXyXyXyXyXyXyXyXyXyXyXyXyXyXyXyXyXyXyXyXyXyXyXyXyXyXyXyXyXyXyXyXyXyXyXyXyXyXyXyXyXyXyXyXyXyXyXyXyXyX",
"+.yXyXyXyXyXyXyXyXyXyXyXyXyXyXyXyXyXyXyXyXyXyXyXyXyXyXyXyXyXyXyXyXyXyXyXyXyXyXyXyXyXyXyXyXyXyXyXyXyXyXyXyXyXyXyXyXyXyXyXyXyXyXyXyXyXyXyXyXyXyXyX",
"yXyXyXyXyXyXyXyXyXyXyXyXyXyXyXyXyXyXyXyXyXyXyXyXyXyXyXyXyXyXyXyXyXyXyXyXyXyXyXyXyXyXyXyXyXyXyXyXyXyXyXyXyXyXyXyXyXyXyXyXyXyXyXyXyXyXyXyXyXyXyXyX",
"yXyXyXyXyXyXyXyXyXyXyXyXyXyXyXyXyXyXyXyXyXyXyXyXyXyXyXyXyXyXyXyXyXyXyXyXyXyXyXyXyXyXyXyXyXyXyXyXyXyXyXyXyXyXyXyXyXyXyXyXyXyXyXyXyXyXyXyXyXyXyXyX",
"yXyXyXyXyXyXyXyXyXyXyXyXyXyXyXyXyXyXyXyXyXyXyXyXyXyXyXyXyXyXyXyXyXyXyXyXyXyXyXyXyXyXyXyXyXyXyXyXyXyXyXyXyXyXyXyXyXyXyXyXyXyXyXyXyXyXyXyXyXyXyXyX",
"yXyXyXyXyXyXyXyXyXyXyXyXyXyXyXyXyXyXyXyXyXyXyXyXyXyXyXyXyXyXyXyXyXyXyXyXyXyXyXyXyXyXyXyXyXyXyXyXyXyXyXyXyXyXyXyXyXyXyXyXyXyXyXyXyXyXyXyXyXyXyXyX",
"yXyXyXyXyXyXyXyXyXyXyXyXyXyXyXyXyXyXyXyXyXyXyXyXyXyXyXyXyXyXyXyXyXyXyXyXyXyXyXyXyXyXyXyXyXyXyXyXyXyXyXyXyXyXyXyXyXyXyXyXyXyXyXyXyXyXyXyXyXyXyXyX",
"yXyXyXyXyXyXyXyXyXyXyXyXyXyXyXyXyXyXyXyXyXyXyXyXyXyXyXyXyXyXyXyXyXyXyXyXyXyXyXyXyXyXyXyXyXyXyXyXyXyXyXyXyXyXyXyXyXyXyXyXyXyXyXyXyXyXyXyXyXyXyXyX",
"yXyXyXyXyXyXyXyXyXyXyXyXyXyXyXyXyXyXyXyXyXyXyXyXyXyXyXyXyXyXyXyXyXyXyXyXyXyXyXyXyXyXyXyXyXyXyXyXyXyXyXyXyXyXyXyXyXyXyXyXyXyXyXyXyXyXyXyXyXyXyXyX",
"yXyXyXyXyXyXyXyXyXyXyXyXyXyXyXyXyXyXyXyXyXyXyXyXyXyXyXyXyXyXyXyXyXyXyXyXyXyXyXyXyXyXyXyXyXyXyXyXyXyXyXyXyXyXyXyXyXyXyXyXyXyXyXyXyXyXyXyXyXyXyXyX",
"yXyXyXyXyXyXyXyXyXyXyXyXyXyXyXyXyXyXyXyXyXyXyXyXyXyXyXyXyXyXyXyXyXyXyXyXyXyXyXyXyXyXyXyXyXyXyXyXyXyXyXyXyXyXyXyXyXyXyXyXyXyXyXyXyXyXyXyXyXyXyXyX"
};
