/* XPM */
static char *_25[] = {
/* columns rows colors chars-per-pixel */
"72 72 221 2 ",
"   c #172D17",
".  c #0D1B2C",
"X  c #07182E",
"o  c #121C2F",
"O  c #0E1C33",
"+  c #0F1D3B",
"@  c #0A1831",
"#  c #101F3C",
"$  c #111E36",
"%  c #0E212B",
"&  c #152628",
"*  c #0B2337",
"=  c #132235",
"-  c #1A2532",
";  c #13233C",
":  c #1B2A3C",
">  c #1B2738",
",  c #193433",
"<  c #1B343D",
"1  c #173232",
"2  c #0C3430",
"3  c #232D3C",
"4  c #252A37",
"5  c #2D3739",
"6  c #3A3935",
"7  c #34393D",
"8  c #3C3B3C",
"9  c #333736",
"0  c #2F342F",
"q  c #433D3C",
"w  c #463D38",
"e  c #2B4A39",
"r  c #25473A",
"t  c #36453B",
"y  c #454D3F",
"u  c #48453C",
"i  c #534A3E",
"p  c #0F1F41",
"a  c #101F42",
"s  c #0F2345",
"d  c #0E2748",
"f  c #122243",
"g  c #162944",
"h  c #1C2D43",
"j  c #15254C",
"k  c #18264D",
"l  c #15294D",
"z  c #1A2B4C",
"x  c #1D3244",
"c  c #1C324B",
"v  c #18374C",
"b  c #152654",
"n  c #192655",
"m  c #162955",
"M  c #1A2C54",
"N  c #17275A",
"B  c #16295A",
"V  c #1A2C5B",
"C  c #182759",
"Z  c #1C3254",
"A  c #1E315C",
"S  c #212D44",
"D  c #212B48",
"F  c #223345",
"G  c #22334B",
"H  c #2B3A4C",
"J  c #293947",
"K  c #333C43",
"L  c #3C3E43",
"P  c #212F55",
"I  c #223355",
"U  c #293C54",
"Y  c #22345A",
"T  c #243C5B",
"R  c #293D5B",
"E  c #243A52",
"W  c #1D2F60",
"Q  c #1E3161",
"!  c #213462",
"~  c #253C60",
"^  c #283C62",
"/  c #453D43",
"(  c #0B4E49",
")  c #2A4542",
"_  c #3C4243",
"`  c #3A4A44",
"'  c #364947",
"]  c #3C5249",
"[  c #2C425B",
"{  c #31455B",
"}  c #3B4C59",
"|  c #31534E",
" . c #2B4464",
".. c #2E4964",
"X. c #3A4C63",
"o. c #344C6C",
"O. c #344863",
"+. c #36526A",
"@. c #3C5567",
"#. c #334D72",
"$. c #3B5475",
"%. c #3B5678",
"&. c #434444",
"*. c #4D4544",
"=. c #424945",
"-. c #4B4C43",
";. c #444A4C",
":. c #4A4B4C",
">. c #534643",
",. c #5C4C43",
"<. c #5A4C4A",
"1. c #544B48",
"2. c #485447",
"3. c #55554A",
"4. c #5D554E",
"5. c #5A5848",
"6. c #4A5654",
"7. c #475757",
"8. c #535C5D",
"9. c #5D5A5A",
"0. c #565753",
"q. c #645246",
"w. c #64534B",
"e. c #6E564A",
"r. c #635C4B",
"t. c #6B5B4C",
"y. c #6A5344",
"u. c #745B4B",
"i. c #745747",
"p. c #655955",
"a. c #6A5C55",
"s. c #635C5B",
"d. c #695B56",
"f. c #755E50",
"g. c #5C645C",
"h. c #566358",
"j. c #4E615D",
"k. c #75604F",
"l. c #6E6453",
"z. c #63625E",
"x. c #6C645B",
"c. c #65675A",
"v. c #756353",
"b. c #7B6453",
"n. c #73665C",
"m. c #76695D",
"M. c #7B6A5B",
"N. c #716857",
"B. c #6A614E",
"V. c #41536B",
"C. c #535B60",
"Z. c #476563",
"A. c #546465",
"S. c #5C6363",
"D. c #5F6964",
"F. c #556C6D",
"G. c #5B6968",
"H. c #4F7173",
"J. c #6C6C63",
"K. c #6A6D69",
"L. c #686761",
"P. c #736B62",
"I. c #796F64",
"U. c #716F68",
"Y. c #6B726C",
"T. c #767064",
"R. c #7A7264",
"E. c #73736B",
"W. c #7A746B",
"Q. c #7D786C",
"!. c #6A7773",
"~. c #6A7C7B",
"^. c #757974",
"/. c #7B7A73",
"(. c #727D7A",
"). c #777A75",
"_. c #846755",
"`. c #836A56",
"'. c #846C59",
"]. c #8A6D5C",
"[. c #886956",
"{. c #896F5F",
"}. c #82796B",
"|. c #897767",
" X c #967667",
".X c #867E72",
"XX c #916D60",
"oX c #A37866",
"OX c #79817D",
"+X c #8A8375",
"@X c #868277",
"#X c #9B8D79",
"$X c #968778",
"%X c #94836E",
"&X c #A7826B",
"*X c #A48C77",
"=X c #3A5B88",
"-X c #4A6E8C",
";X c #677C84",
":X c #6D8283",
">X c #698B8B",
",X c #6B8688",
"<X c #748484",
"1X c #7B8886",
"2X c #729196",
"3X c #76B2BC",
"4X c #868A84",
"5X c #868B86",
"6X c #8A918C",
"7X c #959289",
"8X c #939085",
"9X c #849393",
"0X c #8C9996",
"qX c #A69687",
"wX c #A9A398",
"eX c #B2A494",
"rX c #BCBCB1",
"tX c #B2B3A8",
"yX c #C2BBB0",
"uX c #A0BDC0",
"iX c None",
/* pixels */
"iXiXiXiXiXiXiXiXiXiXiXiXiXiXiXiXiXiXiXiXiXiXiXiXiXiXiXiXiXiXiXiXiXiXiXiXiXiX%.#. .U G 3 3 : - G V.} h : : > = g x G c h x c c iXiXiXiXiXiXiXiXiX",
"iXiXiXiXiXiXiXiXiXiXiXiXiXiXiXiXiXiXiXiXiXiXiXiXiXiXiXiXiXiXiXiXiXiXiXiXiXiX%.%.[ E c S > - > { V.) > : ; = = h G G h x c c iXiXiXiXiXiXiXiXiXiX",
"iXiXiXiXiXiXiXiXiXiXiXiXiXiXiXiXiXiXiXiXiXiXiXiXiXiXiXiXiXiXiXiXiXiXiXiXiX=X$.+.U v x : : > F @.} S : : > = ; x G G h x c c iXiXiXiXiXiXiXiXiXiX",
"iXiXiXiXiXiXiXiXiXiXiXiXiXiXiXiXiXiXiXiXiXiXiXiXiXiXiXiXiXiXiXiXiXiXiXiX-X%.%...H F h > : H X.@.{ : : : = = h G G D x x c c iXiXiXiXiXiXiXiXiXiX",
"iXiXiXiXiXiXiXiXiXiXiXiXiXiXiXiXiXiXiXiXiXiXiXiXiXiXiXiXiXiXiXiXiXiXiXiX#.! ^  .H x S G R V.V.X.U : : : = = h G G h x c c iXiXiXiXiXiXiXiXiXiXiX",
"iXiXiXiXiXiXiXiXiXiXiXiXiXiXiXiXiXiXiXiXiXiXiXiXiXiXiXiXiXiXiXiXiXiXiX%. .W M M G I I O.V.O.O.{ H x S S > > h G F h x c c iXiXiXiXiXiXiXiXiXiXiX",
"iXiXiXiXiXiXiXiXiXiXiXiXiXiXiXiXiXiXiXiXiXiXiXiXiXiXiXiXiXiXiXiXiXiXiX#. .Y I M P P P R R P I G E F F F h : : G G x c c c iXiXiXiXiXiXiXiXiXiXiX",
"iXiXiXiXiXiXiXiXiXiXiXiXiXiXiXiXiXiXiXiXiXiXiXiXiXiXiXiXiXiXiXiXiXiXiX{ R R Y Y M I P D z j k k M F S F x : g S G x G z iXiXiXiXiXiXiXiXiXiXiXiX",
"iXiXiXiXiXiXiXiXiXiXiXiXiXiXiXiXiXiXiXiXiXiXiXiXiXiXiXiXiXiXiXiXiXiXS.} T I I I M z P z k a k a j z h h : : h h z F x z iXiXiXiXiXiXiXiXiXiXiXiX",
"iXiXiXiXiXiXiXiXiXiXiXiXiXiXiXiXiXiXiXiXiXiXiXiXiXiXiXiXiXiXiXiXiXiXL.} I M m z k k j k k j n k k n k f f : h h x h x iXiXiXiXiXiXiXiXiXiXiXiXiX",
"iXiXiXiXiXiXiXiXiXiXiXiXiXiXiXiXiXiXiXiXiXiXiXiXiXiXiXiXiXiXiXiXiXiX) U M b z k k k j k k j a b n M V z k g h h h z v iXiXiXiXiXiXiXiXiXiXiXiXiX",
"iXiXiXiXiXiXiXiXiXiXiXiXiXiXiXiXiXiXiXiXiXiXiXiXiXiXiXiXiXiXiXiXiX1 < Z m b z k j k k k n b a j k V V m k l z z z x v iXiXiXiXiXiXiXiXiXiXiXiXiX",
"iXiXiXiXiXiXiXiXiXiXiXiXiXiXiXiXiXiXiXiXiXiXiXiXiXiXiXiXiXiXiXiXiX< F z m z l k k k l k k k d j s k V m j b Y Y Z T iXiXiXiXiXiXiXiXiXiXiXiXiXiX",
"iXiXiXiXiXiXiXiXiXiXiXiXiXiXiXiXiXiXiXiXiXiXiXiXiXiXiXiXiXiXiXiX, < c M m M b l j k l b m m j d j s b m j b Q ~ [ +.iXiXiXiXiXiXiXiXiXiXiXiXiXiX",
"iXiXiXiXiXiXiXiXiXiXiXiXiXiXiXiXiXiXiXiXiXiXiXiXiXiXiXiXiXiXiXiX1 < M m M M M z j l j j b b b j j s m b d j m  .[ iXiXiXiXiXiXiXiXiXiXiXiXiXiXiX",
"iXiXiXiXiXiXiXiXiXiXiXiXiXiXiXiXiXiXiXiXiXiXiXiXiXiXiXiXiXiXiXiX< c M m M M m m b l b b b b b b b b b m j d b A iXiXiXiXiXiXiXiXiXiXiXiXiXiXiXiX",
"iXiXiXiXiXiXiXiXiXiXiXiXiXiXiXiXiXiXiXiXiXiXiXiXiXiXiXiXiXiXiX< x Z M M M m M M m B m B b B B N b b m m m b b l iXiXiXiXiXiXiXiXiXiXiXiXiXiXiXiX",
"iXiXiXiXiXiXiXiXiXiXiXiXiXiXiXiXiXiXiXiXiXiXiXiXiXiXiXiXiXiXiX< v Z M M M Y V m M B B V B B B B B b B m b m j d iXiXiXiXiXiXiXiXiXiXiXiXiXiXiXiX",
"iXiXiXiXiXiXiXiXiXiXiXiXiXiXiXiXiXiXiXiXiXiXiXiXiXiXiXiXiXiXiXx c I M Z V I Y V B V B W W B B B B B B m B A T iXiXiXiXiXiXiXiXiXiXiXiXiXiXiXiXiX",
"iXiXiXiXiXiXiXiXiXiXiXiXiXiXiXiXiXiXiXiXiXiXiXiXiXiXiXiXiXiXx c A A m V V V V V B n W W B B W B B B B B B ~ +.iXiXiXiXiXiXiXiXiXiXiXiXiXiXiXiXiX",
"iXiXiXiXiXiXiXiXiXiXiXiXiXiXiXiXiXiXiXiXiXiXiXiXiXiXiXiXiXiXx A V m M V Y W Q V b b V W W W W W B B B B A o.iXiXiXiXiXiXiXiXiXiXiXiXiXiXiXiXiXiX",
"iXiXiXiXiXiXiXiXiXiXiXiXiXiXiXiXiXiXiXiXiXiXiXiXiXiXiXiXiXiXv Z Z Z V ! Q V W W V b N W W W W B B B B V T +.iXiXiXiXiXiXiXiXiXiXiXiXiXiXiXiXiXiX",
"iXiXiXiXiXiXiXiXiXiXiXiXiXiXiXiXiXiXiXiXiXiXiXiXiXiXiXiXiXx Z Z Y A Y ! W V N V W B N W W W W N B B B Y U iXiXiXiXiXiXiXiXiXiXiXiXiXiXiXiXiXiXiX",
"iXiXiXiXiXiXiXiXiXiXiXiXiXiXiXiXiXiXiXiXiXiXiXiXiXiXiXiXiXx Z A Y A Q V V V V V V C b C B B B N B B B ..iXiXiXiXiXiXiXiXiXiXiXiXiXiXiXiXiXiXiXiX",
"iXiXiXiXiXiXiXiXiXiXiXiXiXiXiXiXiXiXiXiXiXiXiXiXiXiXiX) J x M A A V V A A V W A m b C V V N B B B B Z X.iXiXiXiXiXiXiXiXiXiXiXiXiXiXiXiXiXiXiXiX",
"iXiXiXiXiXiXiXiXiXiXiXiXiXiXiXiXiXiXiXiXiXiXiXiXiXiXiX3 : j M A Q ! Q A V B V Y V m b b N B b B B B ~ o.iXiXiXiXiXiXiXiXiXiXiXiXiXiXiXiXiXiXiXiX",
"iXiXiXiXiXiXiXiXiXiXiXiXiXiXiXiXiXiXiXiXiXiXiXiXiXiXiX= = h m ! ! ! ! V V m N V V B m M l B b B B Z  .iXiXiXiXiXiXiXiXiXiXiXiXiXiXiXiXiXiXiXiXiX",
"iXiXiXiXiXiXiXiXiXiXiXiXiXiXiXiXiXiXiXiXiXiXiXiXiX& % % % ; b A ! ! ! Y V V B b B m B B m B B B m A ..iXiXiXiXiXiXiXiXiXiXiXiXiXiXiXiXiXiXiXiXiX",
"iXiXiXiXiXiXiXiXiXiXiXiXiXiXiXiXiXiXiXiXiXiXiXiXiX% . % . = k V ! ! A V N V V b m B V m m m m B m [ iXiXiXiXiXiXiXiXiXiXiXiXiXiXiXiXiXiXiXiXiXiX",
"iXiXiXiXiXiXiXiXiXiXiXiXiXiXiXiXiXiXiXiXiXiXiX& & - . . . = g m Q Y V V V V V V m m V m m m B B d ..iXiXiXiXiXiXiXiXiXiXiXiXiXiXiXiXiXiXiXiXiXiX",
"iXiXiXiXiXiXiXiXiXiXiXiXiXiXiXiXiXiXiXiXiXiXiX9 -.:.- . O $ f l M V B B B n B V B B B B B B B l [ OXiXiXiXiXiXiXiXiXiXiXiXiXiXiXiXiXiXiXiXiXiXiX",
"iXiXiXiXiXiXiXiXiXiXiXiXiXiXiXiXiXiXiXiXiXiXiXy l.x.5 . O O ; f g z k b b n B m B B A B b m m d iXiXiXiXiXiXiXiXiXiXiXiXiXiXiXiXiXiXiXiXiXiXiXiX",
"iXiXiXiXiXiXiXiXiXiXiXiXiXiXiXiXiXiXiXiXiXiXr.t.n.P.;.o O + + p g k a j D z n n m B m Z m b b s iXiXiXiXiXiXiXiXiXiXiXiXiXiXiXiXiXiXiXiXiXiXiXiX",
"iXiXiXiXiXiXiXiXiXiXiXiXiXiXiXiXiXiXiXiXiX( l.M.M.P.0.- @ # p p a p a a a f j k m B m m b d s s iXiXiXiXiXiXiXiXiXiXiXiXiXiXiXiXiXiXiXiXiXiXiXiX",
"iXiXiXiXiXiXiXiXiXiXiXiXiXiXiXiXiXiXiXiXiX| '.'._.f.9.- O ; ; ; a a a a p ; s s k m k j d p + X iXiXiXiXiXiXiXiXiXiXiXiXiXiXiXiXiXiXiXiXiXiXiXiX",
"iXiXiXiXiXiXiXiXiXiXiXiXiXiXiXiXiXiXiXiX) 5._.M.n.P.9.3 + # ; > h D S ; ; p + p s f s j + + @ X iXiXiXiXiXiXiXiXiXiXiXiXiXiXiXiXiXiXiXiXiXiXiXiX",
"iXiXiXiXiXiXiXiXiXiXiXiXiXiXiXiXiXiXiXiXe B.M.v.n.P.p.G g x K / >.<.:.H > # a f f s ; + O . X * iXiXiXiXiXiXiXiXiXiXiXiXiXiXiXiXiXiXiXiXiXiXiXiX",
"iXiXiXiXiXiXiXiXiXiXiXiXiXiXiXiXiXiXiXe y u.b.u.P.L.9.' v K =.4.w.i.p.1.5 $ ; f f p + . . . X * iXiXiXiXiXiXiXiXiXiXiXiXiXiXiXiXiXiXiXiXiXiXiXiX",
"iXiXiXiXiXiXiXiXiXiXiXiXiXiXiXiXiXiXiXe -.u.u.f.P.K.6.' iX` &.>./ >.>.<.7 - $ ; ; $ o o o - - . iXiXiXiXiXiXiXiXiXiXiXiXiXiXiXiXiXiXiXiXiXiXiXiX",
"iXiXiXiXiXiXiXiXiXiXiXiXiXiXiXiXiXiXiXe y.u.u.v.P.L.] Z.t _ q w w / q &._ J h h f O . o 3 7 4 o iXiXiXiXiXiXiXiXiXiXiXiXiXiXiXiXiXiXiXiXiXiXiXiX",
"iXiXiXiXiXiXiXiXiXiXiXiXiXiXiXiXiXiXr y v.b.k.N.I.8.' 0.-.i >.w w w 6 9 ;.X.[ g ; o - 7 &.:.L 5 iXiXiXiXiXiXiXiXiXiXiXiXiXiXiXiXiXiXiXiXiXiXiXiX",
"iXiXiXiXiXiXiXiXiXiXiXiXiXiXiXiXiXiXe h.'.`.v.M.c.iXiXr.r.u.i.q./ 6 9 8 7.iXiXc = 4 L *.3.9.C.V.iXiXiXiXiXiXiXiXiXiXiXiXiXiXiXiXiXiXiXiXiXiXiXiX",
"iXiXiXiXiXiXiXiXiXiXiXiXiXiXiXiXiXiX] c.'.`.M.N.h.iXu t.b.i.i.i.,.6 0 8 6.iXiXZ G _ <.p.p.s.S.iXiXiXiXiXiXiXiXiXiXiXiXiXiXiXiXiXiXiXiXiXiXiXiXiX",
"iXiXiXiXiXiXiXiXiXiXiXiXiXiXiXiXiXiXq.k.[.'.M.c.` iXu _.]._.i.y.>.w 9 _ iXiXiXiX6.<.d.d.p.s.G.iXiXiXiXiXiXiXiXiXiXiXiXiXiXiXiXiXiXiXiXiXiXiXiXiX",
"iXiXiXiXiXiXiXiXiXiXiXiXiXiXiXiXiXiXi v.[.`.R.c.,   u _.XX_.y.<.*./ 8 ' iXiXiXF.L.p.d.a.d.s.G.iXiXiXiXiXiXiXiXiXiXiXiXiXiXiXiXiXiXiXiXiXiXiXiXiX",
"iXiXiXiXiXiXiXiXiXiXiXiXiXiXiXiXiXiX2.N.].`.R.h.2 e ,.u.XX_.y.,.1.*.&._ 7.iXiXH.s.p.d.w.p.S.iXiXiXiXiXiXiXiXiXiXiXiXiXiXiXiXiXiXiXiXiXiXiXiXiXiX",
"iXiXiXiXiXiXiXiXiXiXiXiXiXiXiXiXiXiXr.N.].R.R.h.J 3.e.q.u.[.q.w.4.1.*.&.iXiXiXF.L.d.d.p.p.8.iXiXiXiXiXiXiXiXiXiXiXiXiXiXiXiXiXiXiXiXiXiXiXiXiXiX",
"iXiXiXiXiXiXiXiXiXiXiXiXiXiXiXiXiXiXi b.`.'.Q.g.2.x.{.e.i.f.w.a.p.1.9 8 iXiXiXL.L.n.a.w.9.8.iXiXiXiXiXiXiXiXiXiXiXiXiXiXiXiXiXiXiXiXiXiXiXiXiXiX",
"iXiXiXiXiXiXiXiXiXiXiXiXiXiXiXiXiXiXiXl.'.|.(.g.e N.&X XXXe.,.4.4.&.5 0 iXiXiXK.x.n.w.4.8.iXiXiXiXiXiXiXiXiXiXiXiXiXiXiXiXiXiXiXiXiXiXiXiXiXiXiX",
"iXiXiXiXiXiXiXiXiXiXiXiXiXiXiXiXiXiX3.N.`.].T.G.iXM.&X&XoXf.i *.:.J 0 iXiXiXiXI.P.n.p.s.8.iXiXiXiXiXiXiXiXiXiXiXiXiXiXiXiXiXiXiXiXiXiXiXiXiXiXiX",
"iXiXiXiXiXiXiXiXiXiXiXiXiXiXiXiXiXiX] 4.B.T.J.iXiX). XoXoXXXt.-.=.K _ iXiXiX/.W.P.f.d.9.8.iXiXiXiXiXiXiXiXiXiXiXiXiXiXiXiXiXiXiXiXiXiXiXiXiXiXiX",
"iXiXiXiXiXiXiXiXiXiXiXiXiXiXiXiXiXiXiX` y i j.iXiX3X.X X X{.n.6.;.=.iXiXiXiX/.W.I.J.s.A.iXiXiXiXiXiXiXiXiXiXiXiXiXiXiXiXiXiXiXiXiXiXiXiXiXiXiXiX",
"iXiXiXiXiXiXiXiXiXiXiXiXiXiXiXiXiXiX) ` -.t | | iXiXQ.|..X^.K.iXZ.iXiXiXiXQ./.I.P.P.9.A.iXiXiXiXiXiXiXiXiXiXiXiXiXiXiXiXiXiXiXiXiXiXiXiXiXiXiXiX",
"iXiXiXiXiXiXiXiXiXiXiXiXiXiXiXiXiXiXiX-.N.c.) +.iXiXiXiX(.;XiXiXiXiXiXiX5XQ.W.I.P.s.S.iXiXiXiXiXiXiXiXiXiXiXiXiXiXiXiXiXiXiXiXiXiXiXiXiXiXiXiXiX",
"iXiXiXiXiXiXiXiXiXiXiXiXiXiXiXiXiXiXiX3.%XQ.j.,XiXiXiXiXiXiXiXiXiXiXiXiX(.W.R.I.L.S.A.iXiXiXiXiXiXiXiXiXiXiXiXiXiXiXiXiXiXiXiXiXiXiXiXiXiXiXiXiX",
"iXiXiXiXiXiXiXiXiXiXiXiXiXiXiXiXiXiX  h.%XOX,X>XiXiXiXiXiXiXiXiXiXiXiX~.E.I.P.n.z.A.A.iXiXiXiXiXiXiXiXiXiXiXiXiXiXiXiXiXiXiXiXiXiXiXiXiXiXiXiXiX",
"iXiXiXiXiXiXiXiXiXiXiXiXiXiXiXiXiXiXiXc.%X+X1XiXiXiXiXiXiXiXiXiXiXiX,X!.T.I.x.g.8.iXiXiXiXiXiXiXiXiXiXiXiXiXiXiXiXiXiXiXiXiXiXiXiXiXiXiXiXiXiXiX",
"iXiXiXiXiXiXiXiXiXiXiXiXiXiXiXiXiXiXiXT.%X+X0XuXiXiXiXiXiXiXiXiXiX,X;XK.I.W.J.j.Z.iXiXiXiXiXiXiXiXiXiXiXiXiXiXiXiXiXiXiXiXiXiXiXiXiXiXiXiXiXiXiX",
"iXiXiXiXiXiXiXiXiXiXiXiXiXiXiXiXiXiXc.+X%X%X5XuXiXiXiXiXiXiXiXiXiX,X(.P.E.K.S.iXiXiXiXiXiXiXiXiXiXiXiXiXiXiXiXiXiXiXiXiXiXiXiXiXiXiXiXiXiXiXiXiX",
"iXiXiXiXiXiXiXiXiXiXiXiXiXiXiXiXiXiXg.#X#XOX@X0XiXiXiXiXiXiXiXiX2X:X^.U.Y.G.F.iXiXiXiXiXiXiXiXiXiXiXiXiXiXiXiXiXiXiXiXiXiXiXiXiXiXiXiXiXiXiXiXiX",
"iXiXiXiXiXiXiXiXiXiXiXiXiXiXiXiXiX] g.#X*X}.W.4XiXiXiXiXiXiXiX>X,X~.E.E.Y.!.iXiXiXiXiXiXiXiXiXiXiXiXiXiXiXiXiXiXiXiXiXiXiXiXiXiXiXiXiXiXiXiXiXiX",
"iXiXiXiXiXiXiXiXiXiXiXiXiXiXiXiXiXiXK.&X*X+XW.).6XiXiXiXiX>XiX(.(.E.Q.^.!.iXiXiXiXiXiXiXiXiXiXiXiXiXiXiXiXiXiXiXiXiXiXiXiXiXiXiXiXiXiXiXiXiXiXiX",
"iXiXiXiXiXiXiXiXiXiXiXiXiXiXiXiXiXiXQ.*X*X*X#XU.1XiXiX:X~.<XOXE.T.E.).OXiXiXiXiXiXiXiXiXiXiXiXiXiXiXiXiXiXiXiXiXiXiXiXiXiXiXiXiXiXiXiXiXiXiXiXiX",
"iXiXiXiXiXiXiXiXiXiXiXiXiXiXiXiXiXiXiXeXqXqX7X).(.iXiXOXK.W./.l.R.OX<X,XiXiXiXiXiXiXiXiXiXiXiXiXiXiXiXiXiXiXiXiXiXiXiXiXiXiXiXiXiXiXiXiXiXiXiXiX",
"iXiXiXiXiXiXiXiXiXiXiXiXiXiXiXiXiXiXiXyXtXeXwX9X1XiXiX5X/.R.+X|.@XOXiXiXiXiXiXiXiXiXiXiXiXiXiXiXiXiXiXiXiXiXiXiXiXiXiXiXiXiXiXiXiXiXiXiXiXiXiXiX",
"iXiXiXiXiXiXiXiXiXiXiXiXiXiXiXiXiXiXiXiXyXrXeX9XiXiXiX6X4X$X$X$X@X1XiXiXiXiXiXiXiXiXiXiXiXiXiXiXiXiXiXiXiXiXiXiXiXiXiXiXiXiXiXiXiXiXiXiXiXiXiXiX",
"iXiXiXiXiXiXiXiXiXiXiXiXiXiXiXiXiXiXiXiXrXrXiXiXiXiXiX7X7X7XqX6X5XiXiXiXiXiXiXiXiXiXiXiXiXiXiXiXiXiXiXiXiXiXiXiXiXiXiXiXiXiXiXiXiXiXiXiXiXiXiXiX",
"iXiXiXiXiXiXiXiXiXiXiXiXiXiXiXiXiXiXiXiXiXiXiXiXiXiXiXiX0X7X7X6X9XiXiXiXiXiXiXiXiXiXiXiXiXiXiXiXiXiXiXiXiXiXiXiXiXiXiXiXiXiXiXiXiXiXiXiXiXiXiXiX",
"iXiXiXiXiXiXiXiXiXiXiXiXiXiXiXiXiXiXiXiXiXiXiXiXiXiXiXiXiXiXiXiXiXiXiXiXiXiXiXiXiXiXiXiXiXiXiXiXiXiXiXiXiXiXiXiXiXiXiXiXiXiXiXiXiXiXiXiXiXiXiXiX",
"iXiXiXiXiXiXiXiXiXiXiXiXiXiXiXiXiXiXiXiXiXiXiXiXiXiXiXiXiXiXiXiXiXiXiXiXiXiXiXiXiXiXiXiXiXiXiXiXiXiXiXiXiXiXiXiXiXiXiXiXiXiXiXiXiXiXiXiXiXiXiXiX",
"iXiXiXiXiXiXiXiXiXiXiXiXiXiXiXiXiXiXiXiXiXiXiXiXiXiXiXiXiXiXiXiXiXiXiXiXiXiXiXiXiXiXiXiXiXiXiXiXiXiXiXiXiXiXiXiXiXiXiXiXiXiXiXiXiXiXiXiXiXiXiXiX",
"iXiXiXiXiXiXiXiXiXiXiXiXiXiXiXiXiXiXiXiXiXiXiXiXiXiXiXiXiXiXiXiXiXiXiXiXiXiXiXiXiXiXiXiXiXiXiXiXiXiXiXiXiXiXiXiXiXiXiXiXiXiXiXiXiXiXiXiXiXiXiXiX"
};
