/* XPM */
static char *_28[] = {
/* columns rows colors chars-per-pixel */
"72 72 212 2 ",
"   c #0A2516",
".  c #0D1B2C",
"X  c #061A2E",
"o  c #111D2D",
"O  c #0E1C33",
"+  c #0E1D3A",
"@  c #0B1632",
"#  c #111D33",
"$  c #101F3D",
"%  c #0D212C",
"&  c #142429",
"*  c #0C2438",
"=  c #132234",
"-  c #1A2532",
";  c #13223D",
":  c #1B2A3C",
">  c #19273A",
",  c #1B343B",
"<  c #193335",
"1  c #12352F",
"2  c #2F352E",
"3  c #232A37",
"4  c #2A353A",
"5  c #353935",
"6  c #32373E",
"7  c #383938",
"8  c #433D3D",
"9  c #433B36",
"0  c #274939",
"q  c #2E4B3A",
"w  c #37473D",
"e  c #4E4C3D",
"r  c #47443D",
"t  c #4B503E",
"y  c #0F1F41",
"u  c #101F41",
"i  c #0E2344",
"p  c #122243",
"a  c #162B46",
"s  c #1C2D43",
"d  c #14254C",
"f  c #18264D",
"g  c #152A4D",
"h  c #1B2B4C",
"j  c #192645",
"k  c #1C3244",
"l  c #1C324B",
"z  c #1A384D",
"x  c #152654",
"c  c #182754",
"v  c #162955",
"b  c #1A2C55",
"n  c #172759",
"m  c #16295A",
"M  c #1A2C5B",
"N  c #1B3254",
"B  c #1E315B",
"V  c #222D49",
"C  c #232F44",
"Z  c #223345",
"A  c #22344B",
"S  c #2C3B4C",
"D  c #26394A",
"F  c #353D44",
"G  c #212F55",
"H  c #223354",
"J  c #21335B",
"K  c #243A5B",
"L  c #2A3E5D",
"P  c #273C55",
"I  c #1D2F61",
"U  c #1E3161",
"Y  c #213462",
"T  c #273C62",
"R  c #413B42",
"E  c #164A47",
"W  c #2A4745",
"Q  c #354446",
"!  c #3E4445",
"~  c #3C4B4A",
"^  c #374545",
"/  c #395248",
"(  c #2C425D",
")  c #274159",
"_  c #344658",
"`  c #305650",
"'  c #2B4462",
"]  c #2D4667",
"[  c #384A63",
"{  c #334A66",
"}  c #3D526A",
"|  c #375D63",
" . c #3B5573",
".. c #395376",
"X. c #344E73",
"o. c #444A47",
"O. c #474646",
"+. c #534B43",
"@. c #5B4C43",
"#. c #534E4B",
"$. c #5B4E4A",
"%. c #524544",
"&. c #4A5349",
"*. c #5C514D",
"=. c #57574A",
"-. c #4B5C5A",
";. c #465655",
":. c #545B5C",
">. c #5C5C5B",
",. c #5A5953",
"<. c #614E44",
"1. c #624C48",
"2. c #6B5446",
"3. c #64554D",
"4. c #6C564A",
"5. c #6B5B4C",
"6. c #655849",
"7. c #755C4C",
"8. c #755848",
"9. c #645955",
"0. c #695B54",
"q. c #645D5B",
"w. c #745D50",
"e. c #5C645C",
"r. c #546259",
"t. c #4E605A",
"y. c #6E614F",
"u. c #6E6453",
"i. c #64635D",
"p. c #6B645D",
"a. c #676857",
"s. c #726454",
"d. c #7A6553",
"f. c #73655B",
"g. c #776A5D",
"h. c #796A5B",
"j. c #7B6859",
"k. c #44556A",
"l. c #535E62",
"z. c #4A6461",
"x. c #5A6463",
"c. c #5A6968",
"v. c #536767",
"b. c #526F71",
"n. c #6B6661",
"m. c #666C64",
"M. c #6B6B63",
"N. c #636866",
"B. c #736B62",
"V. c #7A6F63",
"C. c #6E716A",
"Z. c #65706C",
"A. c #767166",
"S. c #7A7265",
"D. c #75746C",
"F. c #7A746A",
"G. c #7D7969",
"H. c #6B7674",
"J. c #687874",
"K. c #747A75",
"L. c #7B7B74",
"P. c #727E7B",
"I. c #777671",
"U. c #836555",
"Y. c #836956",
"T. c #836B59",
"R. c #896B59",
"E. c #886956",
"W. c #87705C",
"Q. c #906D5D",
"!. c #956F61",
"~. c #82766A",
"^. c #847B6D",
"/. c #877565",
"(. c #967665",
"). c #867D73",
"_. c #A87C68",
"`. c #75817D",
"'. c #7E817B",
"]. c #6F817F",
"[. c #8E806C",
"{. c #8C8275",
"}. c #83837B",
"|. c #948572",
" X c #978C7B",
".X c #AA846D",
"XX c #A78B77",
"oX c #A3917A",
"OX c #3C6093",
"+X c #4E7681",
"@X c #6F7F80",
"#X c #416FB0",
"$X c #6B8688",
"%X c #778887",
"&X c #6A9092",
"*X c #6F9BA3",
"=X c #77A2A6",
"-X c #868B86",
";X c #918E85",
":X c #8A928C",
">X c #84918F",
",X c #989388",
"<X c #889794",
"1X c #9E9E96",
"2X c #A79787",
"3X c #AEA396",
"4X c #B3AC9F",
"5X c #99AFAE",
"6X c #BBB6A8",
"7X c #C2BCB1",
"8X c #AAC9C6",
"9X c None",
/* pixels */
"9X9X9X9X9X9X9X9X9X9X9X9X9X9X9X9X9X9X9X9X9X9X9X9X9X9X9X9X9X9X9X9X9X9X9X..] P A Z 3 > - D k._ : : : = = s A A s s l l 9X9X9X9X9X9X9X9X9X9X9X9X9X9X",
"9X9X9X9X9X9X9X9X9X9X9X9X9X9X9X9X9X9X9X9X9X9X9X9X9X9X9X9X9X9X9X9X9X9X ...{ P z s : : 3 ( k.S : : > # > h A A s k l l 9X9X9X9X9X9X9X9X9X9X9X9X9X9X",
"9X9X9X9X9X9X9X9X9X9X9X9X9X9X9X9X9X9X9X9X9X9X9X9X9X9X9X9X9X9X9X9X9X#Xk...( A k : > : P } [ D : : > = > k A V s k l l 9X9X9X9X9X9X9X9X9X9X9X9X9X9X",
"9X9X9X9X9X9X9X9X9X9X9X9X9X9X9X9X9X9X9X9X9X9X9X9X9X9X9X9X9X9X9X9X9XOXOX{ ) D k : 3 L k.k._ A , : : # : A D s k l l l 9X9X9X9X9X9X9X9X9X9X9X9X9X9X",
"9X9X9X9X9X9X9X9X9X9X9X9X9X9X9X9X9X9X9X9X9X9X9X9X9X9X9X9X9X9X9X9X9X] J L L D l S [ k.[ [ _ A Z V s s : s A A k l l 9X9X9X9X9X9X9X9X9X9X9X9X9X9X9X",
"9X9X9X9X9X9X9X9X9X9X9X9X9X9X9X9X9X9X9X9X9X9X9X9X9X9X9X9X9X9X9X9X..T J G b A H J ( L J H A H Z Z Z s : : V A Z l f 9X9X9X9X9X9X9X9X9X9X9X9X9X9X9X",
"9X9X9X9X9X9X9X9X9X9X9X9X9X9X9X9X9X9X9X9X9X9X9X9X9X9X9X9X9X9X9X9X..T K G H b H G G h f f b h A s s : : k s h k s a 9X9X9X9X9X9X9X9X9X9X9X9X9X9X9X",
"9X9X9X9X9X9X9X9X9X9X9X9X9X9X9X9X9X9X9X9X9X9X9X9X9X9X9X9X9X9X9X9X( L J J J G G G h f u f u d f a p a : : s s h k k 9X9X9X9X9X9X9X9X9X9X9X9X9X9X9X",
"9X9X9X9X9X9X9X9X9X9X9X9X9X9X9X9X9X9X9X9X9X9X9X9X9X9X9X9X9X9X9X9X;.H H G b b h f f x f f f f f b f j j s k a a z 9X9X9X9X9X9X9X9X9X9X9X9X9X9X9X9X",
"9X9X9X9X9X9X9X9X9X9X9X9X9X9X9X9X9X9X9X9X9X9X9X9X9X9X9X9X9X9X9XZ.k.H b b f f f f f f d p x x v M v f d a h h k z 9X9X9X9X9X9X9X9X9X9X9X9X9X9X9X9X",
"9X9X9X9X9X9X9X9X9X9X9X9X9X9X9X9X9X9X9X9X9X9X9X9X9X9X9X9X9X9X9Xw _ H b c f f d f f f x u d d v M M f f b H J P ) 9X9X9X9X9X9X9X9X9X9X9X9X9X9X9X9X",
"9X9X9X9X9X9X9X9X9X9X9X9X9X9X9X9X9X9X9X9X9X9X9X9X9X9X9X9X9X9X9X< D b v f f f f x d f f f d i p v m d x M T K { 9X9X9X9X9X9X9X9X9X9X9X9X9X9X9X9X9X",
"9X9X9X9X9X9X9X9X9X9X9X9X9X9X9X9X9X9X9X9X9X9X9X9X9X9X9X9X9X9X9X, k b v h g f f f f x x x i d i i v x d x B ' 9X9X9X9X9X9X9X9X9X9X9X9X9X9X9X9X9X9X",
"9X9X9X9X9X9X9X9X9X9X9X9X9X9X9X9X9X9X9X9X9X9X9X9X9X9X9X9X9X9X< k l v v b f g g g f x x x x x x d v x i i m ) 9X9X9X9X9X9X9X9X9X9X9X9X9X9X9X9X9X9X",
"9X9X9X9X9X9X9X9X9X9X9X9X9X9X9X9X9X9X9X9X9X9X9X9X9X9X9X9X9X9X< k b v b b b g g d d x x v x x x x v v x x v g 9X9X9X9X9X9X9X9X9X9X9X9X9X9X9X9X9X9X",
"9X9X9X9X9X9X9X9X9X9X9X9X9X9X9X9X9X9X9X9X9X9X9X9X9X9X9X9X9X9X< z b b b b b v f v v m x m v v x x m v v x g 9X9X9X9X9X9X9X9X9X9X9X9X9X9X9X9X9X9X9X",
"9X9X9X9X9X9X9X9X9X9X9X9X9X9X9X9X9X9X9X9X9X9X9X9X9X9X9X9X9X9Xk z N b c b M b b m m m m m m m m m m v x M K 9X9X9X9X9X9X9X9X9X9X9X9X9X9X9X9X9X9X9X",
"9X9X9X9X9X9X9X9X9X9X9X9X9X9X9X9X9X9X9X9X9X9X9X9X9X9X9X9X9X, k N b b b B M M v M m I I m m I m m m m m B { 9X9X9X9X9X9X9X9X9X9X9X9X9X9X9X9X9X9X9X",
"9X9X9X9X9X9X9X9X9X9X9X9X9X9X9X9X9X9X9X9X9X9X9X9X9X9X9X9X9X, k N b N M G N M n c m I m m I I m m m m m T  .9X9X9X9X9X9X9X9X9X9X9X9X9X9X9X9X9X9X9X",
"9X9X9X9X9X9X9X9X9X9X9X9X9X9X9X9X9X9X9X9X9X9X9X9X9X9X9X9X9Xk N B b M M b M M m x I I I I I m m m m M J ]  .9X9X9X9X9X9X9X9X9X9X9X9X9X9X9X9X9X9X9X",
"9X9X9X9X9X9X9X9X9X9X9X9X9X9X9X9X9X9X9X9X9X9X9X9X9X9X9X9X9Xl J M b B M J I I M c n I I I I m m m m m H 9X9X9X9X9X9X9X9X9X9X9X9X9X9X9X9X9X9X9X9X9X",
"9X9X9X9X9X9X9X9X9X9X9X9X9X9X9X9X9X9X9X9X9X9X9X9X9X9X9X9XZ N N b G M U B I I I M x m I I m I m m m B _ 9X9X9X9X9X9X9X9X9X9X9X9X9X9X9X9X9X9X9X9X9X",
"9X9X9X9X9X9X9X9X9X9X9X9X9X9X9X9X9X9X9X9X9X9X9X9X9X9X9X9Xk N J M B I Y M n n M M x m m I m m m m M B [ 9X9X9X9X9X9X9X9X9X9X9X9X9X9X9X9X9X9X9X9X9X",
"9X9X9X9X9X9X9X9X9X9X9X9X9X9X9X9X9X9X9X9X9X9X9X9X9X9X9X9Xk N B J B Y M M M M M n c m m m m n n m v ' 9X9X9X9X9X9X9X9X9X9X9X9X9X9X9X9X9X9X9X9X9X9X",
"9X9X9X9X9X9X9X9X9X9X9X9X9X9X9X9X9X9X9X9X9X9X9X9X9X9X9XD l N J J M M M U M I B x v m v m m x m m v ' 9X9X9X9X9X9X9X9X9X9X9X9X9X9X9X9X9X9X9X9X9X9X",
"9X9X9X9X9X9X9X9X9X9X9X9X9X9X9X9X9X9X9X9X9X9X9X9X9X9Xw Z h N M Y Y B M M M M B M v v v g m x m m N ] 9X9X9X9X9X9X9X9X9X9X9X9X9X9X9X9X9X9X9X9X9X9X",
"9X9X9X9X9X9X9X9X9X9X9X9X9X9X9X9X9X9X9X9X9X9X9X9X9X9X: > d b Y Y Y Y M m b x m M b m v x m m m m N ] 9X9X9X9X9X9X9X9X9X9X9X9X9X9X9X9X9X9X9X9X9X9X",
"9X9X9X9X9X9X9X9X9X9X9X9X9X9X9X9X9X9X9X9X9X9X9X9X9X9X% = : v U Y Y Y J M M M x m m m m v v v m x ) 9X9X9X9X9X9X9X9X9X9X9X9X9X9X9X9X9X9X9X9X9X9X9X",
"9X9X9X9X9X9X9X9X9X9X9X9X9X9X9X9X9X9X9X9X9X9X9X9X& & % % ; d M J Y Y M m M M x x v m m v v m v i | 9X9X9X9X9X9X9X9X9X9X9X9X9X9X9X9X9X9X9X9X9X9X9X",
"9X9X9X9X9X9X9X9X9X9X9X9X9X9X9X9X9X9X9X9X9X9X9X9X% . . . O a v B J B M M M M M M m m m b m m m a $X9X9X9X9X9X9X9X9X9X9X9X9X9X9X9X9X9X9X9X9X9X9X9X",
"9X9X9X9X9X9X9X9X9X9X9X9X9X9X9X9X9X9X9X9X9X9X9X  - % . . # p d b M M M m c M m M m B m m v v x i 9X9X9X9X9X9X9X9X9X9X9X9X9X9X9X9X9X9X9X9X9X9X9X9X",
"9X9X9X9X9X9X9X9X9X9X9X9X9X9X9X9X9X9X9X9X9X9X9X5 o.6 . . # + a d h x x x x c x x m m m x x x d 9X9X9X9X9X9X9X9X9X9X9X9X9X9X9X9X9X9X9X9X9X9X9X9X9X",
"9X9X9X9X9X9X9X9X9X9X9X9X9X9X9X9X9X9X9X9X9X9Xw &.u.#.- @ O # $ j h d p f V f b x b m b x x i i 9X9X9X9X9X9X9X9X9X9X9X9X9X9X9X9X9X9X9X9X9X9X9X9X9X",
"9X9X9X9X9X9X9X9X9X9X9X9X9X9X9X9X9X9X9X9X9X9Xe y.B.p.6 # + $ $ p p u u u $ p d d x v v d i i + X 9X9X9X9X9X9X9X9X9X9X9X9X9X9X9X9X9X9X9X9X9X9X9X9X",
"9X9X9X9X9X9X9X9X9X9X9X9X9X9X9X9X9X9X9X9X9XE u.h.h.B.O.# O $ $ $ u u u p u ; y i p f d p ; O @ X 9X9X9X9X9X9X9X9X9X9X9X9X9X9X9X9X9X9X9X9X9X9X9X9X",
"9X9X9X9X9X9X9X9X9X9X9X9X9X9X9X9X9X9X9X9X9X` T.W.U.f.,.# O $ $ $ u j j ; ; y + i i i p $ + . X * 9X9X9X9X9X9X9X9X9X9X9X9X9X9X9X9X9X9X9X9X9X9X9X9X",
"9X9X9X9X9X9X9X9X9X9X9X9X9X9X9X9X9X9X9X9XE &.j.j.f.B.,.C * ; : 4 R O.O.S > $ p p p p $ O . . . O 9X9X9X9X9X9X9X9X9X9X9X9X9X9X9X9X9X9X9X9X9X9X9X9X",
"9X9X9X9X9X9X9X9X9X9X9X9X9X9X9X9X9X9X9X9X0 y.Y.d.f.B.q.F a C Q #.3.4.9.#.7 # $ ; ; $ # . . # - o 9X9X9X9X9X9X9X9X9X9X9X9X9X9X9X9X9X9X9X9X9X9X9X9X",
"9X9X9X9X9X9X9X9X9X9X9X9X9X9X9X9X9X9X9X9Xq 5.d.7.f.B.N.^ 9XQ o.@.R 1.1.$.R 3 > : ; $ O o - F F - % 9X9X9X9X9X9X9X9X9X9X9X9X9X9X9X9X9X9X9X9X9X9X9X",
"9X9X9X9X9X9X9X9X9X9X9X9X9X9X9X9X9X9X9X9Xw 4.7.w.f.M.e.^ 9X^ ! 8 R R 7 r O.Q D p u # o 3 F %.O.F 6 9X9X9X9X9X9X9X9X9X9X9X9X9X9X9X9X9X9X9X9X9X9X9X",
"9X9X9X9X9X9X9X9X9X9X9X9X9X9X9X9X9X9X9X0 t 2.8.y.g.M.t./ z.w r 9 8 9 9 7 F ;.X.A s o 3 R +.,.>.k.9X9X9X9X9X9X9X9X9X9X9X9X9X9X9X9X9X9X9X9X9X9X9X9X",
"9X9X9X9X9X9X9X9X9X9X9X9X9X9X9X9X9X9X9X0 =.7.d.y.g.M.;.&.=.+.<.<.1.9 5 7 ! -.9X9Xh : 8 $.9.9.q.v.9X9X9X9X9X9X9X9X9X9X9X9X9X9X9X9X9X9X9X9X9X9X9X9X",
"9X9X9X9X9X9X9X9X9X9X9X9X9X9X9X9X9X9X9Xq a.j.d.d.B.i.9Xe 5.7.8.8.2.%.2 5 o.9X9X9X_ ~ *.q.0.q.l.c.9X9X9X9X9X9X9X9X9X9X9X9X9X9X9X9X9X9X9X9X9X9X9X9X",
"9X9X9X9X9X9X9X9X9X9X9X9X9X9X9X9X9X9X9X/ a.R.Y.d.f.r.9Xe d.d.7.8.2.R 9 5 ! 9X9X9Xx.>.9.0.0.9.n.c.9X9X9X9X9X9X9X9X9X9X9X9X9X9X9X9X9X9X9X9X9X9X9X9X",
"9X9X9X9X9X9X9X9X9X9X9X9X9X9X9X9X9X9X9X&.s.E.j.h.i./ 9Xe U.Q.U.8.1.8 R 7 ~ 9X9X9Xb.q.q.0.3.0.x.9X9X9X9X9X9X9X9X9X9X9X9X9X9X9X9X9X9X9X9X9X9X9X9X9X",
"9X9X9X9X9X9X9X9X9X9X9X9X9X9X9X9X9X9X9X6.d.E.E.S.e.1 & e U.!.U.2.@.%.%.R ! ;.9X9Xb.q.0.0.0.9.:.9X9X9X9X9X9X9X9X9X9X9X9X9X9X9X9X9X9X9X9X9X9X9X9X9X",
"9X9X9X9X9X9X9X9X9X9X9X9X9X9X9X9X9X9X9Xt s.E.Y.V.e.1 5 @.7.Q.R.2.<.$.%.O.o.^ 9X9Xc.n.p.0.3.,.:.9X9X9X9X9X9X9X9X9X9X9X9X9X9X9X9X9X9X9X9X9X9X9X9X9X",
"9X9X9X9X9X9X9X9X9X9X9X9X9X9X9X9X9X9X9X&.u.W.Y.S.e.4 &.4.1.4.R.3.0.0.*.7 7 9X9X9Xm.n.f.5.*.:.:.9X9X9X9X9X9X9X9X9X9X9X9X9X9X9X9X9X9X9X9X9X9X9X9X9X",
"9X9X9X9X9X9X9X9X9X9X9X9X9X9X9X9X9X9X9X=.y.W.h.G.M.t.,.W.U.2.w.1.3.9.#.4 2 9X9X9XC.B.f.0.9.:.9X9X9X9X9X9X9X9X9X9X9X9X9X9X9X9X9X9X9X9X9X9X9X9X9X9X",
"9X9X9X9X9X9X9X9X9X9X9X9X9X9X9X9X9X9X9X9Xy.Y.T.'.m.q &..X_._.U.%.+.#.! 4 2 9X9X9XI.B.f.0.q.:.9X9X9X9X9X9X9X9X9X9X9X9X9X9X9X9X9X9X9X9X9X9X9X9X9X9X",
"9X9X9X9X9X9X9X9X9X9X9X9X9X9X9X9X9X9X9X9Xy.j.W.[.N.9Xy.[._._.!.w.+.o.! F ^ 9X9X9XI.S.B.p.q.l.9X9X9X9X9X9X9X9X9X9X9X9X9X9X9X9X9X9X9X9X9X9X9X9X9X9X",
"9X9X9X9X9X9X9X9X9X9X9X9X9X9X9X9X9X9X9X9X=.s.j.W.m.9X9X}.(._.!.Y.,.&.o.9X9X9X9XI.I.V.B.p.l.v.9X9X9X9X9X9X9X9X9X9X9X9X9X9X9X9X9X9X9X9X9X9X9X9X9X9X",
"9X9X9X9X9X9X9X9X9X9X9X9X9X9X9X9X9X9X9X9X&.=.=.,.e.9X9X=X~.(.(.A.i.-.z.9X9X9X9X^.~.V.n.q.x.9X9X9X9X9X9X9X9X9X9X9X9X9X9X9X9X9X9X9X9X9X9X9X9X9X9X9X",
"9X9X9X9X9X9X9X9X9X9X9X9X9X9X9X9X9X9X9X9Xq w r o./ 9X9X9XF.^.L.H.9X9X9X9X9X9X-XF.V.V.n.N.c.9X9X9X9X9X9X9X9X9X9X9X9X9X9X9X9X9X9X9X9X9X9X9X9X9X9X9X",
"9X9X9X9X9X9X9X9X9X9X9X9X9X9X9X9X9X9X9X9XW o.=.;.W | 9X9X9X9X9X9X9X9X9X9X9X9XK.A.V.V.n.l.v.9X9X9X9X9X9X9X9X9X9X9X9X9X9X9X9X9X9X9X9X9X9X9X9X9X9X9X",
"9X9X9X9X9X9X9X9X9X9X9X9X9X9X9X9X9X9X9X9X9Xt W.C.;.+X9X9X9X9X9X9X9X9X9X9X9XJ.D.A.f.q.>.l.9X9X9X9X9X9X9X9X9X9X9X9X9X9X9X9X9X9X9X9X9X9X9X9X9X9X9X9X",
"9X9X9X9X9X9X9X9X9X9X9X9X9X9X9X9X9X9X9X9X9Xr.{.[.Z.&X9X9X9X9X9X9X9X9X9X9X$XJ.V.A.g.r.z.9X9X9X9X9X9X9X9X9X9X9X9X9X9X9X9X9X9X9X9X9X9X9X9X9X9X9X9X9X",
"9X9X9X9X9X9X9X9X9X9X9X9X9X9X9X9X9X9X9X9X  t ^.{.%X9X9X9X9X9X9X9X9X9X9X9X$XH.B.D.C.r.9X9X9X9X9X9X9X9X9X9X9X9X9X9X9X9X9X9X9X9X9X9X9X9X9X9X9X9X9X9X",
"9X9X9X9X9X9X9X9X9X9X9X9X9X9X9X9X9X9X9X9X9Xa.[.[.:X5X9X9X9X9X9X9X9X9X9X9XP.D.B.Z.x.l.9X9X9X9X9X9X9X9X9X9X9X9X9X9X9X9X9X9X9X9X9X9X9X9X9X9X9X9X9X9X",
"9X9X9X9X9X9X9X9X9X9X9X9X9X9X9X9X9X9X9X9X9Xm.|.[.-X5X8X9X9X9X9X9X9X9X*X$XP.D.C.Z.b.9X9X9X9X9X9X9X9X9X9X9X9X9X9X9X9X9X9X9X9X9X9X9X9X9X9X9X9X9X9X9X",
"9X9X9X9X9X9X9X9X9X9X9X9X9X9X9X9X9X9X9X9X9XD.oX[.}.:X5X9X9X9X9X9X9X9X&X$XD.F.C.H.9X9X9X9X9X9X9X9X9X9X9X9X9X9X9X9X9X9X9X9X9X9X9X9X9X9X9X9X9X9X9X9X",
"9X9X9X9X9X9X9X9X9X9X9X9X9X9X9X9X9X9X9X9Xt.G.oX|.G.}.:X9X9X9X9X9X9X9XP.P.D.I.K.H.9X9X9X9X9X9X9X9X9X9X9X9X9X9X9X9X9X9X9X9X9X9X9X9X9X9X9X9X9X9X9X9X",
"9X9X9X9X9X9X9X9X9X9X9X9X9X9X9X9X9X9X9X9X/ D.XX|.G.D.'.>X9X9X9X$X%X`.I.D.D.L.].9X9X9X9X9X9X9X9X9X9X9X9X9X9X9X9X9X9X9X9X9X9X9X9X9X9X9X9X9X9X9X9X9X",
"9X9X9X9X9X9X9X9X9X9X9X9X9X9X9X9X9X9X9X9X9XS..XoX2X{.D.%X9X9X$XH.'.I.p.F.L.$X9X9X9X9X9X9X9X9X9X9X9X9X9X9X9X9X9X9X9X9X9X9X9X9X9X9X9X9X9X9X9X9X9X9X",
"9X9X9X9X9X9X9X9X9X9X9X9X9X9X9X9X9X9X9X9X9X X2XXXoX;XK.`.9X9X'.C.V.).f.).%X9X9X9X9X9X9X9X9X9X9X9X9X9X9X9X9X9X9X9X9X9X9X9X9X9X9X9X9X9X9X9X9X9X9X9X",
"9X9X9X9X9X9X9X9X9X9X9X9X9X9X9X9X9X9X9X9X9X9X4X3X2X1X:X%X9X9X-X).^.{.{.).%X9X9X9X9X9X9X9X9X9X9X9X9X9X9X9X9X9X9X9X9X9X9X9X9X9X9X9X9X9X9X9X9X9X9X9X",
"9X9X9X9X9X9X9X9X9X9X9X9X9X9X9X9X9X9X9X9X9X9X9X7X7X3X<X9X9X9X:X;X2X2X;X-X%X9X9X9X9X9X9X9X9X9X9X9X9X9X9X9X9X9X9X9X9X9X9X9X9X9X9X9X9X9X9X9X9X9X9X9X",
"9X9X9X9X9X9X9X9X9X9X9X9X9X9X9X9X9X9X9X9X9X9X9X7X6X9X<X9X9X9X9X,X,X,X;X<X9X9X9X9X9X9X9X9X9X9X9X9X9X9X9X9X9X9X9X9X9X9X9X9X9X9X9X9X9X9X9X9X9X9X9X9X",
"9X9X9X9X9X9X9X9X9X9X9X9X9X9X9X9X9X9X9X9X9X9X9X9X9X9X9X9X9X9X9X<X<X9X:X9X9X9X9X9X9X9X9X9X9X9X9X9X9X9X9X9X9X9X9X9X9X9X9X9X9X9X9X9X9X9X9X9X9X9X9X9X",
"9X9X9X9X9X9X9X9X9X9X9X9X9X9X9X9X9X9X9X9X9X9X9X9X9X9X9X9X9X9X9X9X9X9X9X9X9X9X9X9X9X9X9X9X9X9X9X9X9X9X9X9X9X9X9X9X9X9X9X9X9X9X9X9X9X9X9X9X9X9X9X9X",
"9X9X9X9X9X9X9X9X9X9X9X9X9X9X9X9X9X9X9X9X9X9X9X9X9X9X9X9X9X9X9X9X9X9X9X9X9X9X9X9X9X9X9X9X9X9X9X9X9X9X9X9X9X9X9X9X9X9X9X9X9X9X9X9X9X9X9X9X9X9X9X9X",
"9X9X9X9X9X9X9X9X9X9X9X9X9X9X9X9X9X9X9X9X9X9X9X9X9X9X9X9X9X9X9X9X9X9X9X9X9X9X9X9X9X9X9X9X9X9X9X9X9X9X9X9X9X9X9X9X9X9X9X9X9X9X9X9X9X9X9X9X9X9X9X9X"
};
