/* XPM */
static char *_4[] = {
/* columns rows colors chars-per-pixel */
"72 72 215 2 ",
"   c #011E1A",
".  c #0D1B2C",
"X  c #07182D",
"o  c #101B2D",
"O  c #0D1C33",
"+  c #0E1E3B",
"@  c #0B1732",
"#  c #121E34",
"$  c #101F3B",
"%  c #0B242B",
"&  c #12222C",
"*  c #1A2A2A",
"=  c #0B2337",
"-  c #132235",
";  c #1A2534",
":  c #13223C",
">  c #19273B",
",  c #1B2A3C",
"<  c #1D2934",
"1  c #1A343B",
"2  c #193434",
"3  c #1E3B2F",
"4  c #2B352E",
"5  c #222938",
"6  c #222936",
"7  c #2B333A",
"8  c #2B3738",
"9  c #393834",
"0  c #3B3C3C",
"q  c #353639",
"w  c #30352F",
"e  c #433D3B",
"r  c #433B36",
"t  c #284938",
"y  c #38483B",
"u  c #45473C",
"i  c #0F1F41",
"p  c #101F42",
"a  c #0E2344",
"s  c #0F274D",
"d  c #132343",
"f  c #172947",
"g  c #1C2D43",
"h  c #14254C",
"j  c #18264D",
"k  c #15294D",
"l  c #1B2B4C",
"z  c #1D3244",
"x  c #1C334B",
"c  c #19354C",
"v  c #152654",
"b  c #182753",
"n  c #162955",
"m  c #1A2C54",
"M  c #172759",
"N  c #16295A",
"B  c #1A2C5B",
"V  c #1B3253",
"C  c #1E315C",
"Z  c #1E3958",
"A  c #232D44",
"S  c #202A48",
"D  c #233244",
"F  c #22334B",
"G  c #2B3A4C",
"H  c #283948",
"J  c #202F55",
"K  c #223355",
"L  c #21345B",
"P  c #263C5C",
"I  c #2A3C5C",
"U  c #283B54",
"Y  c #1D2F61",
"T  c #1E3161",
"R  c #213462",
"E  c #283E62",
"W  c #423D41",
"Q  c #104A46",
"!  c #2C4746",
"~  c #364145",
"^  c #3C4445",
"/  c #354945",
"(  c #3B4C4A",
")  c #3C454A",
"_  c #3A5247",
"`  c #2C425B",
"'  c #36475A",
"]  c #3C5351",
"[  c #2B4463",
"{  c #2D4667",
"}  c #3A4C63",
"|  c #344A65",
" . c #3B5169",
".. c #324C72",
"X. c #3B5474",
"o. c #3A5477",
"O. c #434344",
"+. c #4A4542",
"@. c #494B4A",
"#. c #474B45",
"$. c #554B43",
"%. c #5B4B44",
"&. c #564A48",
"*. c #465349",
"=. c #53544C",
"-. c #5B544C",
";. c #575849",
":. c #495354",
">. c #4B5956",
",. c #495956",
"<. c #5C5653",
"1. c #5B5A54",
"2. c #545D5C",
"3. c #5B5B5A",
"4. c #545253",
"5. c #414D52",
"6. c #614F48",
"7. c #655145",
"8. c #64544B",
"9. c #655B4D",
"0. c #6B5A4B",
"q. c #745B4C",
"w. c #75584A",
"e. c #635751",
"r. c #645A55",
"t. c #6A5C55",
"y. c #645C5A",
"u. c #6B5D58",
"i. c #745F51",
"p. c #4A605C",
"a. c #58645C",
"s. c #63625C",
"d. c #6B625C",
"f. c #676556",
"g. c #736354",
"h. c #7C6453",
"j. c #7C6956",
"k. c #72665D",
"l. c #75695D",
"z. c #7C6B5C",
"x. c #7B6758",
"c. c #6E604E",
"v. c #41536A",
"b. c #545E61",
"n. c #615F61",
"m. c #476567",
"M. c #556365",
"N. c #5C6563",
"B. c #5B6968",
"V. c #58696A",
"C. c #486F76",
"Z. c #636B64",
"A. c #6D6A63",
"S. c #656864",
"D. c #736C62",
"F. c #786F65",
"G. c #6C716B",
"H. c #737165",
"J. c #7A7165",
"K. c #74736A",
"L. c #7B746B",
"P. c #6B7672",
"I. c #6A7B79",
"U. c #7C7A72",
"Y. c #747D7B",
"T. c #757974",
"R. c #816352",
"E. c #836956",
"W. c #846C59",
"Q. c #8B6B5B",
"!. c #896A56",
"~. c #906D5F",
"^. c #837668",
"/. c #847A6B",
"(. c #897666",
"). c #957563",
"_. c #9A7364",
"`. c #92776B",
"'. c #A77C68",
"]. c #7B817B",
"[. c #8D816D",
"{. c #98826E",
"}. c #8C8374",
"|. c #838077",
" X c #978876",
".X c #AB816A",
"XX c #A68C78",
"oX c #A5917A",
"OX c #385A87",
"+X c #3E6090",
"@X c #40679F",
"#X c #6C8385",
"$X c #698889",
"%X c #728383",
"&X c #7A8583",
"*X c #7C8B86",
"=X c #789497",
"-X c #6D969C",
";X c #77D2E4",
":X c #868D89",
">X c #838985",
",X c #978E83",
"<X c #8A928B",
"1X c #95938A",
"2X c #889695",
"3X c #9A9991",
"4X c #A79888",
"5X c #A8A498",
"6X c #B5A899",
"7X c #99B0B2",
"8X c #97A5A2",
"9X c #B8B4A7",
"0X c #C1BBB0",
"qX c #A9C8C5",
"wX c None",
/* pixels */
"wXwXwXwXwXwXwXwXwXwXwXwXwXwXwXwXwXwXwXwXwXwXwXwXwXwXwXwXwXwXwXwXwXwXwXwXwXwXwXwXwXwXwXwXwXwXwXwXwXwXwXwXwXwXwXwXwXwXwXwXwXwXwXwXwXwXwXwXwXwXwXwX",
"wXwXwXwXwXwXwXwXwXwXwXwXwXwXwXwXwXwXwXwXwXwXwXwXwXwXwXwXwXwXwXwXwXwXwXwXwXwXwXwXwXwXwXwXwXwXwXwXwXwXwXwXwXwXwXwXwXwXwXwXwXwXwXwXwXwXwXwXwXwXwXwX",
"wXwXwXwXwXwXwXwXwXwXwXwXwXwXwXwXwXwXwXwXwXwXwXwXwXwXwXwXwXwXwXwXwXwXwXwXwXwXwXwXwXwXwXwXwXwXwXwXwXwXwXwXwXwXwXwXwXwXwXwXwXwXwXwXwXwXwXwXwXwXwXwX",
"wXwXwXwXwXwXwXwXwXwXwXwXwXwXwXwXwXwXwXwXwXwXwXwXwXwXwXwXwXwXwXwXwXwXwXwXwXwXwXwXwXwXwXwXwXwXwXwXwXwXwXwXwXwXwXwXwXwXwXwXwXwXwXwXwXwXwXwXwXwXwXwX",
"wXwXwXwXwXwXwXwXwXwXwXwXwXwXwXwXwXwXwXwXwXwXwXwXwXwXwXwXwXwXwXwXwXwXwXwXwXwXwXwX=X<X1X1X2XwXwXwXwXwXwXwXwXwXwXwXwXwXwXwXwXwXwXwXwXwXwXwXwXwXwXwX",
"wXwXwXwXwXwXwXwXwXwXwXwXwXwXwXwXwXwXwXwXwXwXwXwXwXwXwXwXwXwXwXwXwXwXwXwXwXwXwXwX*X1X4X1X1X1XwXwXwXwXwXwXwXwXwXwXwXwXwXwXwXwXwXwXwXwXwXwXwXwXwXwX",
"wXwXwXwXwXwXwXwXwXwXwXwXwXwXwXwXwXwXwXwXwXwXwXwXwXwXwXwXwXwXwXwXwXwXwXwXwXwXwX&X|.,X,X,X1X<XwXwXwX2X5X9X0XwXwXwXwXwXwXwXwXwXwXwXwXwXwXwXwXwXwXwX",
"wXwXwXwXwXwXwXwXwXwXwXwXwXwXwXwXwXwXwXwXwXwXwXwXwXwXwXwXwXwXwXwXwXwXwXwXwXwXwX&X|./.`.^./.:XwXwXwX2X5X9X0XwXwXwXwXwXwXwXwXwXwXwXwXwXwXwXwXwXwXwX",
"wXwXwXwXwXwXwXwXwXwXwXwXwXwXwXwXwXwXwXwXwXwXwXwXwXwXwXwXwXwXwXwXwXwXwXwXwX$X#X].L.d.U.J.A.].wXwX&X>X3X4X6X9XwXwXwXwXwXwXwXwXwXwXwXwXwXwXwXwXwXwX",
"wXwXwXwXwXwXwXwXwXwXwXwXwXwXwXwXwXwXwXwXwXwXwXwXwXwXwXwXwXwXwXwXwXwXwXwXwX].U.K.H.H.].].I.%XwXwX].K. XXXoX4XwXwXwXwXwXwXwXwXwXwXwXwXwXwXwXwXwXwX",
"wXwXwXwXwXwXwXwXwXwXwXwXwXwXwXwXwXwXwXwXwXwXwXwXwXwXwXwXwXwXwXwXwXwXwXwXP.].T.K.T.Y.&X$XwXwXwXwX%XG.}.4XXX.XH.wXwXwXwXwXwXwXwXwXwXwXwXwXwXwXwXwX",
"wXwXwXwXwXwXwXwXwXwXwXwXwXwXwXwXwXwXwXwXwXwXwXwXwXwXwXwXwXwXwXwXwXwXwXP.K.K.K.P.$X$XwXwXwXwXwXwX<X|.L./.XX[.a.wXwXwXwXwXwXwXwXwXwXwXwXwXwXwXwXwX",
"wXwXwXwXwXwXwXwXwXwXwXwXwXwXwXwXwXwXwXwXwXwXwXwXwXwXwXwXwXwXwXwXwXwXV.B.G.K.].#X-XwXwXwXwXwXwXwXwX<XU./.oX Xa.wXwXwXwXwXwXwXwXwXwXwXwXwXwXwXwXwX",
"wXwXwXwXwXwXwXwXwXwXwXwXwXwXwXwXwXwXwXwXwXwXwXwXwXwXwXwXwXwXwXwXwX2.N.G.D.K.].*XwXwXwXwXwXwXwXwXqX8X>X}. X}.a.wXwXwXwXwXwXwXwXwXwXwXwXwXwXwXwXwX",
"wXwXwXwXwXwXwXwXwXwXwXwXwXwXwXwXwXwXwXwXwXwXwXwXwXwXwXwXwXwXwXwXm.a.D.L.D.P.@XwXwXwXwXwXwXwXwXwXwX7X:X}. XK.wXwXwXwXwXwXwXwXwXwXwXwXwXwXwXwXwXwX",
"wXwXwXwXwXwXwXwXwXwXwXwXwXwXwXwXwXwXwXwXwXwXwXwXwXwXwXwXwXwXwX2.a.s.D.J.H.I.].wXwXwXwXwXwXwXwXwXwX7X<X[.[.d.wXwXwXwXwXwXwXwXwXwXwXwXwXwXwXwXwXwX",
"wXwXwXwXwXwXwXwXwXwXwXwXwXwXwXwXwXwXwXwXwXwXwXwXwXwXwXwXwXwXM.2.k.l.D.K.P.wXwXwXwXwXwXwXwXwXwXwXwX=X#X[.].u wXwXwXwXwXwXwXwXwXwXwXwXwXwXwXwXwXwX",
"wXwXwXwXwXwXwXwXwXwXwXwXwXwXwXwXwXwXwXwXwXwXwXwXwXwXwXwXwXV.M.S.D.J.J.L.].wXwXwXwXwXwXwXwXwXwXwXwX$XZ.[.|.u wXwXwXwXwXwXwXwXwXwXwXwXwXwXwXwXwXwX",
"wXwXwXwXwXwXwXwXwXwXwXwXwXwXwXwXwXwXwXwXwXwXwXwXwXwXwXwXwXM.s.A.D.L.L.|.:XwXwXwXwXwXwXwXwXwXwXwXC.m.>.^.j.y wXwXwXwXwXwXwXwXwXwXwXwXwXwXwXwXwXwX",
"wXwXwXwXwXwXwXwXwXwXwXwXwXwXwXwXwXwXwXwXwXwXwXwXwXwXwXwXwXM.y.D.D.L.U.wXwXwXwXm.m.wXG.Y./.^.wXwXwX! _ 1.;._ wXwXwXwXwXwXwXwXwXwXwXwXwXwXwXwXwXwX",
"wXwXwXwXwXwXwXwXwXwXwXwXwXwXwXwXwXwXwXwXwXwXwXwXwXwXwXwXb.n.d.D.J.L.U.wXwXwXwX@.:.3.z.).).(.=X;XwX] *.u y ~ wXwXwXwXwXwXwXwXwXwXwXwXwXwXwXwXwXwX",
"wXwXwXwXwXwXwXwXwXwXwXwXwXwXwXwXwXwXwXwXwXwXwXwXwXwXwXwX2.r.t.k.F.U.wXwXwXwX~ ^ #.;.E.~.'.).].wXwXN.f.;.$.5.wXwXwXwXwXwXwXwXwXwXwXwXwXwXwXwXwXwX",
"wXwXwXwXwXwXwXwXwXwXwXwXwXwXwXwXwXwXwXwXwXwXwXwXwXwXwX2.3.r.u.k.D.K.wXwXwXw 7 ^ @.+.0._..X.X/.c.wXB.(.z.g.*.wXwXwXwXwXwXwXwXwXwXwXwXwXwXwXwXwXwX",
"wXwXwXwXwXwXwXwXwXwXwXwXwXwXwXwXwXwXwXwXwXwXwXwXwXwXwX2.<.-.i.d.S.G.wXwXwXw 7 4.-.$.%.Q._..X).;.wXG.^.E.j.9.wXwXwXwXwXwXwXwXwXwXwXwXwXwXwXwXwXwX",
"wXwXwXwXwXwXwXwXwXwXwXwXwXwXwXwXwXwXwXwXwXwXwXwXwXwXwX3.t.8.g.A.S.wXwXwXO.q O.e.t.0.6.i.w._.(._ *.].[.Q.j.c.wXwXwXwXwXwXwXwXwXwXwXwXwXwXwXwXwXwX",
"wXwXwXwXwXwXwXwXwXwXwXwXwXwXwXwXwXwXwXwXwXwXwXwXwXwX2.3.e.e.u.u.Z.C.wXwX) O.+.<.6.6.i.R.7.0.t.*.*.H.H.W.W.c.wXwXwXwXwXwXwXwXwXwXwXwXwXwXwXwXwXwX",
"wXwXwXwXwXwXwXwXwXwXwXwXwXwXwXwXwXwXwXwXwXwXwXwXwXwXB.r.e.t.u.y.V.wXwXwX( W +.&.7.7.R.~.w.6.$.3 y H.z.W.W.9.wXwXwXwXwXwXwXwXwXwXwXwXwXwXwXwXwXwX",
"wXwXwXwXwXwXwXwXwXwXwXwXwXwXwXwXwXwXwXwXwXwXwXwXwXV.S.r.t.t.y.y.V.wXwXwX( 0 W +.u 7.R.~.~.7.4 % p.H.j.W.j.;.wXwXwXwXwXwXwXwXwXwXwXwXwXwXwXwXwXwX",
"wXwXwXwXwXwXwXwXwXwXwXwXwXwXwXwXwXwXwXwXwXwXwXwXwXB.b.u.t.t.<.@.>.wXwXwX^ q 0 +.6.w.R.~.!.;.* * a.H.W.!.j.u wXwXwXwXwXwXwXwXwXwXwXwXwXwXwXwXwXwX",
"wXwXwXwXwXwXwXwXwXwXwXwXwXwXwXwXwXwXwXwXwXwXwXwXwXM.y.r.<.&.W A V wXwX>.O.w 9 %.w.w.w.q.h.u wX,.f.j.E.E.j.;.wXwXwXwXwXwXwXwXwXwXwXwXwXwXwXwXwXwX",
"wXwXwXwXwXwXwXwXwXwXwXwXwXwXwXwXwXwXwXwXwXwXwXwX) :.3.4.+.q 6 # x wXwX>.0 q 9 u 7.w.w.c.0.u wXa.l.j.E.E.f._ wXwXwXwXwXwXwXwXwXwXwXwXwXwXwXwXwXwX",
"wXwXwXwXwXwXwXwXwXwXwXwXwXwXwXwXwXwXwXwXwXwXwXwX< 7 O.W D 6 # # f U } 5.0 9 9 r u 7.u ;.;.$.a.k.l.h.j.j.f.t wXwXwXwXwXwXwXwXwXwXwXwXwXwXwXwXwXwX",
"wXwXwXwXwXwXwXwXwXwXwXwXwXwXwXwXwXwXwXwXwXwXwXwX. < 7 6 o o O + : g H 0 O.e e e e e e y m.*.a.A.k.q.h.q.*.t wXwXwXwXwXwXwXwXwXwXwXwXwXwXwXwXwXwX",
"wXwXwXwXwXwXwXwXwXwXwXwXwXwXwXwXwXwXwXwXwXwXwXwXO o o o . # = : : : > q &.&.%.W +.^ ^ wXwX:.Z.l.g.w.w.%.y wXwXwXwXwXwXwXwXwXwXwXwXwXwXwXwXwXwXwX",
"wXwXwXwXwXwXwXwXwXwXwXwXwXwXwXwXwXwXwXwXwXwXwXwX= X . . O $ a d d : - 7 &.r.w.%.8.#.~ wX/ a.A.l.c.h.q.u t wXwXwXwXwXwXwXwXwXwXwXwXwXwXwXwXwXwXwX",
"wXwXwXwXwXwXwXwXwXwXwXwXwXwXwXwXwXwXwXwXwXwXwXwX% O @ + $ d a a a : + > G @.6.&.+.~ D f H 3.D.k.i.j.g.y wXwXwXwXwXwXwXwXwXwXwXwXwXwXwXwXwXwXwXwX",
"wXwXwXwXwXwXwXwXwXwXwXwXwXwXwXwXwXwXwXwXwXwXwXwXX @ + i a f s d p p p $ d A A A 5 : d + D 3.D.k.h.E.c.t wXwXwXwXwXwXwXwXwXwXwXwXwXwXwXwXwXwXwXwX",
"wXwXwXwXwXwXwXwXwXwXwXwXwXwXwXwXwXwXwXwXwXwXwXwXO i a s k n n h d d : p p p p p + : $ O 5 y.i.x.W.W.*.Q wXwXwXwXwXwXwXwXwXwXwXwXwXwXwXwXwXwXwXwX",
"wXwXwXwXwXwXwXwXwXwXwXwXwXwXwXwXwXwXwXwXwXwXwXwXa s s v n N B v b h p p p p p p p $ $ O < <.l.W.W.g.Q wXwXwXwXwXwXwXwXwXwXwXwXwXwXwXwXwXwXwXwXwX",
"wXwXwXwXwXwXwXwXwXwXwXwXwXwXwXwXwXwXwXwXwXwXwXwXa v M v m N N m v b J S p p j f p $ + # # 4.D.l.g.f.Q wXwXwXwXwXwXwXwXwXwXwXwXwXwXwXwXwXwXwXwXwX",
"wXwXwXwXwXwXwXwXwXwXwXwXwXwXwXwXwXwXwXwXwXwX*XZ s N N v N C B v N N b v b h l f d + O O o #.k.g.;.wXwXwXwXwXwXwXwXwXwXwXwXwXwXwXwXwXwXwXwXwXwXwX",
"wXwXwXwXwXwXwXwXwXwXwXwXwXwXwXwXwXwXwXwXwXwXm.f n N N N N B B N B B n N B N n m f : # O . 7 1.=.t wXwXwXwXwXwXwXwXwXwXwXwXwXwXwXwXwXwXwXwXwXwXwX",
"wXwXwXwXwXwXwXwXwXwXwXwXwXwXwXwXwXwXwXwXwXwX` s N v n v N B v v B B B B B C L B h d # . . & 7 4 wXwXwXwXwXwXwXwXwXwXwXwXwXwXwXwXwXwXwXwXwXwXwXwX",
"wXwXwXwXwXwXwXwXwXwXwXwXwXwXwXwXwXwXwXwXwX[ m N N N n m N B v v v B B N B T R T n f $ . . . &   wXwXwXwXwXwXwXwXwXwXwXwXwXwXwXwXwXwXwXwXwXwXwXwX",
"wXwXwXwXwXwXwXwXwXwXwXwXwXwXwXwXwXwXwXwXwX[ m N M M v s B n N M n B B B L R R R B h = % . & & wXwXwXwXwXwXwXwXwXwXwXwXwXwXwXwXwXwXwXwXwXwXwXwXwX",
"wXwXwXwXwXwXwXwXwXwXwXwXwXwXwXwXwXwXwXwX{ Z N N M n N v m n M Y B n B B Y R R R C l > - % wXwXwXwXwXwXwXwXwXwXwXwXwXwXwXwXwXwXwXwXwXwXwXwXwXwXwX",
"wXwXwXwXwXwXwXwXwXwXwXwXwXwXwXwXwXwXwXwX{ V N N M M M M n n v B B B B B C R R R C l d , > wXwXwXwXwXwXwXwXwXwXwXwXwXwXwXwXwXwXwXwXwXwXwXwXwXwXwX",
"wXwXwXwXwXwXwXwXwXwXwXwXwXwXwXwXwXwXwX} [ N N N M N M B M M n B L B B B B B T C C m z 8 wXwXwXwXwXwXwXwXwXwXwXwXwXwXwXwXwXwXwXwXwXwXwXwXwXwXwXwX",
"wXwXwXwXwXwXwXwXwXwXwXwXwXwXwXwXwXwXwX` L m N N N Y Y N M n B B N B Y B T B L C C x D ( wXwXwXwXwXwXwXwXwXwXwXwXwXwXwXwXwXwXwXwXwXwXwXwXwXwXwXwX",
"wXwXwXwXwXwXwXwXwXwXwXwXwXwXwXwXwXwX| K N N N N Y N Y T N v B Y M B B T T C C L V x wXwXwXwXwXwXwXwXwXwXwXwXwXwXwXwXwXwXwXwXwXwXwXwXwXwXwXwXwXwX",
"wXwXwXwXwXwXwXwXwXwXwXwXwXwXwXwXwXX.[ C B N N B Y Y Y T Y M v B T Y C T C m V K V z wXwXwXwXwXwXwXwXwXwXwXwXwXwXwXwXwXwXwXwXwXwXwXwXwXwXwXwXwXwX",
"wXwXwXwXwXwXwXwXwXwXwXwXwXwXwXwXwX..B N N N N N N Y Y Y T N v N T T L B C m m C x z wXwXwXwXwXwXwXwXwXwXwXwXwXwXwXwXwXwXwXwXwXwXwXwXwXwXwXwXwXwX",
"wXwXwXwXwXwXwXwXwXwXwXwXwXwXwXwX[ ` N N N N N N Y N N Y Y N v B B B B B B m C C z wXwXwXwXwXwXwXwXwXwXwXwXwXwXwXwXwXwXwXwXwXwXwXwXwXwXwXwXwXwXwX",
"wXwXwXwXwXwXwXwXwXwXwXwXwXwXwXwXn m v v N N N N N N N Y B N N B C K B m m V V x 1 wXwXwXwXwXwXwXwXwXwXwXwXwXwXwXwXwXwXwXwXwXwXwXwXwXwXwXwXwXwXwX",
"wXwXwXwXwXwXwXwXwXwXwXwXwXwXwXwXs v N v N v v M N N N N N B N m B B m m m C c 1 wXwXwXwXwXwXwXwXwXwXwXwXwXwXwXwXwXwXwXwXwXwXwXwXwXwXwXwXwXwXwXwX",
"wXwXwXwXwXwXwXwXwXwXwXwXwXwXwXZ v s v v v v v v M N v N v v m m m m m m V V c 1 wXwXwXwXwXwXwXwXwXwXwXwXwXwXwXwXwXwXwXwXwXwXwXwXwXwXwXwXwXwXwXwX",
"wXwXwXwXwXwXwXwXwXwXwXwXwXwXwX[ B d a v v v v v v v v v n h k b m m m m V V z 2 wXwXwXwXwXwXwXwXwXwXwXwXwXwXwXwXwXwXwXwXwXwXwXwXwXwXwXwXwXwXwXwX",
"wXwXwXwXwXwXwXwXwXwXwXwXwX .` [ R n h v v a a b h v v b h h k l m m m v m z 2 wXwXwXwXwXwXwXwXwXwXwXwXwXwXwXwXwXwXwXwXwXwXwXwXwXwXwXwXwXwXwXwXwX",
"wXwXwXwXwXwXwXwXwXwXwXwXwX` Z L L B h b m k a a a v k m k h h j k m v n V z 2 wXwXwXwXwXwXwXwXwXwXwXwXwXwXwXwXwXwXwXwXwXwXwXwXwXwXwXwXwXwXwXwXwX",
"wXwXwXwXwXwXwXwXwXwXwXwXc x x m l m h b C B s d d h j h h b j j h l v V z 1 wXwXwXwXwXwXwXwXwXwXwXwXwXwXwXwXwXwXwXwXwXwXwXwXwXwXwXwXwXwXwXwXwXwX",
"wXwXwXwXwXwXwXwXwXwXwXwXc l z g f f j j B B n b d v b h j h j j j k m K z 2 wXwXwXwXwXwXwXwXwXwXwXwXwXwXwXwXwXwXwXwXwXwXwXwXwXwXwXwXwXwXwXwXwXwX",
"wXwXwXwXwXwXwXwXwXwXwXwXx x g g g , d j m n j b v p b h h h j j l n m U ! 3 wXwXwXwXwXwXwXwXwXwXwXwXwXwXwXwXwXwXwXwXwXwXwXwXwXwXwXwXwXwXwXwXwXwX",
"wXwXwXwXwXwXwXwXwXwXwXf z z g l g , > f f j j p j j j b j j j l n m K ' N.wXwXwXwXwXwXwXwXwXwXwXwXwXwXwXwXwXwXwXwXwXwXwXwXwXwXwXwXwXwXwXwXwXwXwX",
"wXwXwXwXwXwXwXwXwXwXwXl x z F g g , g g A S j h j p h l J J J K L K K ' B.wXwXwXwXwXwXwXwXwXwXwXwXwXwXwXwXwXwXwXwXwXwXwXwXwXwXwXwXwXwXwXwXwXwXwX",
"wXwXwXwXwXwXwXwXwXwXx x x D F F , > g D D F K l j l S J J K J L L I I ` wXwXwXwXwXwXwXwXwXwXwXwXwXwXwXwXwXwXwXwXwXwXwXwXwXwXwXwXwXwXwXwXwXwXwXwX",
"wXwXwXwXwXwXwXwXwXwXx x z g F F g > g D F z U U I U [ I L K m J J K E ..wXwXwXwXwXwXwXwXwXwXwXwXwXwXwXwXwXwXwXwXwXwXwXwXwXwXwXwXwXwXwXwXwXwXwXwX",
"wXwXwXwXwXwXwXwXwXwXx x z g F F g : - , , 7 U ' }  . .| K F F L J L { o.wXwXwXwXwXwXwXwXwXwXwXwXwXwXwXwXwXwXwXwXwXwXwXwXwXwXwXwXwXwXwXwXwXwXwXwX",
"wXwXwXwXwXwXwXwXwXF x x g g F F g - - , , 1 ` v.v.' K 5 , D G I E E ..wXwXwXwXwXwXwXwXwXwXwXwXwXwXwXwXwXwXwXwXwXwXwXwXwXwXwXwXwXwXwXwXwXwXwXwXwX",
"wXwXwXwXwXwXwXwXwXx x z g F F g > - > > > D ' v.` z > > z H U | o.OX@XwXwXwXwXwXwXwXwXwXwXwXwXwXwXwXwXwXwXwXwXwXwXwXwXwXwXwXwXwXwXwXwXwXwXwXwXwX",
"wXwXwXwXwXwXwXwXx x x g g F F g - - , , > G v.` < < , , z c ` o.X.@XwXwXwXwXwXwXwXwXwXwXwXwXwXwXwXwXwXwXwXwXwXwXwXwXwXwXwXwXwXwXwXwXwXwXwXwXwXwX",
"wXwXwXwXwXwXwXwXx x x g x F D , - - , , , ' v.F * > 5 A F U [ o.X.wXwXwXwXwXwXwXwXwXwXwXwXwXwXwXwXwXwXwXwXwXwXwXwXwXwXwXwXwXwXwXwXwXwXwXwXwXwXwX",
"wXwXwXwXwXwXwXwXx x D g F F g : - > , , H ,.} g ; , 6 D U P { X.wXwXwXwXwXwXwXwXwXwXwXwXwXwXwXwXwXwXwXwXwXwXwXwXwXwXwXwXwXwXwXwXwXwXwXwXwXwXwXwX"
};
