/* XPM */
static char *_14[] = {
/* columns rows colors chars-per-pixel */
"32 32 137 2 ",
"   c #2E0F04",
".  c #340E01",
"X  c #313131",
"o  c #3D3D3D",
"O  c #451301",
"+  c #501501",
"@  c #581903",
"#  c #651D04",
"$  c #6A1D02",
"%  c #762002",
"&  c #782A0E",
"*  c #6E3A29",
"=  c #434445",
"-  c #4D4D4D",
";  c #5B514E",
":  c #555555",
">  c #5E5E5E",
",  c #7D5547",
"<  c #7C5A4E",
"1  c #645C59",
"2  c #7C5F54",
"3  c #7C6056",
"4  c #5D5F60",
"5  c #626262",
"6  c #6C6D6D",
"7  c #747474",
"8  c #7B7B7B",
"9  c #802202",
"0  c #8B2705",
"q  c #922702",
"w  c #9E2D06",
"e  c #922D0A",
"r  c #983A1A",
"t  c #A42E05",
"y  c #A82F06",
"u  c #A3330C",
"i  c #B03206",
"p  c #B7370B",
"a  c #BC380A",
"s  c #A83E1A",
"d  c #B33E16",
"f  c #BE3D10",
"g  c #C33707",
"h  c #C53807",
"j  c #CD3A07",
"k  c #C23809",
"l  c #C93B0A",
"z  c #D13B07",
"x  c #DC3C05",
"c  c #D33D09",
"v  c #DB3E08",
"b  c #E43F06",
"n  c #A9411D",
"m  c #8E462D",
"M  c #8F482F",
"N  c #944125",
"B  c #8C4A33",
"V  c #844F3D",
"C  c #8B4E39",
"Z  c #9D5035",
"A  c #A14425",
"S  c #DD4C19",
"D  c #ED4105",
"F  c #E64108",
"G  c #EF460C",
"H  c #F34205",
"J  c #FD4607",
"K  c #FF4807",
"L  c #FE4709",
"P  c #F34E09",
"I  c #FF4809",
"U  c #FF5109",
"Y  c #FF5E09",
"T  c #FF6409",
"R  c #FF6B09",
"E  c #FF7809",
"W  c #D55B20",
"Q  c #835545",
"!  c #875847",
"~  c #8F5946",
"^  c #885E4F",
"/  c #945B47",
"(  c #876256",
")  c #8D6354",
"_  c #BC784B",
"`  c #A56A56",
"'  c #B97158",
"]  c #816B63",
"[  c #8C6E63",
"{  c #8E7066",
"}  c #947469",
"|  c #8A7B76",
" . c #927A72",
".. c #BD803E",
"X. c #FD8307",
"o. c #F48F07",
"O. c #FF8209",
"+. c #FF8C09",
"@. c #FF9809",
"#. c #FAAE07",
"$. c #FFA509",
"%. c #FFAB09",
"&. c #FFB309",
"*. c #CD8229",
"=. c #C78533",
"-. c #95837D",
";. c #A78072",
":. c #838383",
">. c #8A8A8A",
",. c #968984",
"<. c #9B8B85",
"1. c #998E8B",
"2. c #949494",
"3. c #9D9592",
"4. c #9D9C9C",
"5. c #B4988E",
"6. c #A09997",
"7. c #A4A09E",
"8. c #B5A49A",
"9. c #A3A3A3",
"0. c #A9A5A3",
"q. c #A6A7A8",
"w. c #ACACAC",
"e. c #B8ACA6",
"r. c #BAB2AF",
"t. c #B3B4B4",
"y. c #B8B7B7",
"u. c #BCB8B7",
"i. c #B7B9BA",
"p. c #BBBCBC",
"a. c #BDBFC0",
"s. c #BEC0C1",
"d. c #C3C4C5",
"f. c #C5C7C8",
"g. c #C7C9CA",
"h. c #CBCBCB",
"j. c None",
/* pixels */
"j.j.j.j.j.j.j.j.j.j.j.7 < + j.j.j.j.j.j.j.j.j.j.j.j.j.j.j.j.j.j.",
"j.j.j.j.j.j.j.j.j.j.5 d.<.e O j.j.j.j.j.j.j.j.j.j.j.j.j.j.j.j.j.",
"j.j.j.j.j.j.j.j.j.j.:.h.d./ q j.j.j.j.j.j.j.j.j.j.j.j.j.j.j.j.j.",
"j.j.j.j.j.j.j.j.j.j.: p.h.0.n % j.j.j.j.j.j.j.j.j.j.j.j.j.j.j.j.",
"j.j.j.j.j.j.j.j.j.j.j.4.h.g.} t . j.j.j.j.j.j.I I j.j.j.j.j.j.j.",
"j.j.j.j.j.j.j.j.j.j.j.7 g.h.y.3 1 u I I L L I I I I j.j.j.j.j.j.",
"j.j.j.j.j.j.j.j.j.j.j.o t.h.h.t.8 ;.S I I U T O.E U L j.j.j.j.j.",
"j.j.j.j.j.j.j.j.j.j.j.j.>.h.a.7 w.h.5.W X.@.%.%.+.U L j.j.j.j.j.",
"j.j.j.j.j.j.j.j.j.j.j.j.> p.7 4.h.h.h.8.*.#.&.#.O.I L j.j.j.j.j.",
"j.j.j.j.j.j.j.j.j.j.j.j.j.> 3.h.h.h.h.h.e.*.#.#.R I I j.j.j.j.j.",
"j.j.j.j.j.j.j.j.j.j.j.j.j.>.h.g.h.s.i.t.s.r._ o.Y L I j.j.j.j.j.",
"j.j.j.j.j.j.j.j.j.j.j.j.2.h.h.h.7.C A r ] h.u._ P I L j.j.j.j.j.",
"j.j.j.j.j.j.j.j.j.j.j.>.g.g.h.w.N H J D ^ g.h.p.' G j.j.j.j.j.j.",
"j.j.j.j.j.j.j.j.j.j.| f.h.h.t.m D I K H Q f.h.h.f.` j.j.j.j.j.j.",
"j.j.j.j.j.j.j.j.j.7 d.h.h.i.C b I I J p | g.g.h.t.6 ; . j.j.j.j.",
"j.j.j.j.j.j.j.j.6 p.h.h.s.! v I I I g ] f.h.h.p.6 q.3 w 9 j.j.j.",
"j.j.j.j.j.j.j.5 p.h.h.d.( z I I I j 2 s.h.h.a.7 9.h.p.-.M e $ j.",
"j.j.j.j.j.j.: t.h.g.f.[ j I I I x , p.g.g.d.7 6.h.h.h.h.p.<.C & ",
"j.j.j.j.j.= w.h.g.h.,.a I I I b V t.h.g.f.8 X 8 6.t.f.h.h.h.s.4.",
"j.j.j.j.j.* 0.h.h.h.{ b I I D M t.h.h.g.>.j.j.j.j.= 5 :.0.p.a.7 ",
"j.j.j.j.$ b N 6.h.h. .b J b N w.h.h.g.2.j.j.j.j.j.j.j.j.j.- : j.",
"j.j.j.j.w I L n 1.h.3.B Z ~ 0.h.h.h.4.j.j.j.j.j.j.j.j.j.j.j.j.j.",
"j.j.j.j.k I L J d -.d.s.d.d.h.g.h.0.j.j.j.j.j.j.j.j.j.j.j.j.j.j.",
"j.j.j.j.j I I I J f  .d.h.h.h.h.w.- j.j.j.j.j.j.j.j.j.j.j.j.j.j.",
"j.j.j.j.l I I I I L l [ s.h.h.t.: j.j.j.j.j.j.j.j.j.j.j.j.j.j.j.",
"j.j.j.j.t I L I I I I c ) p.p.4 j.j.j.j.j.j.j.j.j.j.j.j.j.j.j.j.",
"j.j.j.j.@ v I I I I I I F , 4 j.j.j.j.j.j.j.j.j.j.j.j.j.j.j.j.j.",
"j.j.j.j.j.# j L I I I F i + j.j.j.j.j.j.j.j.j.j.j.j.j.j.j.j.j.j.",
"j.j.j.j.j.j.j.0 y y 0 @ j.j.j.j.j.j.j.j.j.j.j.j.j.j.j.j.j.j.j.j.",
"j.j.j.j.j.j.j.j.j.j.j.j.j.j.j.j.j.j.j.j.j.j.j.j.j.j.j.j.j.j.j.j.",
"j.j.j.j.j.j.j.j.j.j.j.j.j.j.j.j.j.j.j.j.j.j.j.j.j.j.j.j.j.j.j.j.",
"j.j.j.j.j.j.j.j.j.j.j.j.j.j.j.j.j.j.j.j.j.j.j.j.j.j.j.j.j.j.j.j."
};
