/* XPM */
static char *_6[] = {
/* columns rows colors chars-per-pixel */
"32 32 138 2 ",
"   c #351308",
".  c #21201F",
"X  c #3F271F",
"o  c #3C2D28",
"O  c #3A3A3A",
"+  c #4D1401",
"@  c #5B1A03",
"#  c #6D1C00",
"$  c #631C03",
"%  c #741F01",
"&  c #7A2204",
"*  c #653D2F",
"=  c #7D4431",
"-  c #454545",
";  c #4A4A4A",
":  c #525252",
">  c #5C5C5C",
",  c #775E55",
"<  c #72635E",
"1  c #5E5F60",
"2  c #656565",
"3  c #736561",
"4  c #737373",
"5  c #7C7C7C",
"6  c #842505",
"7  c #8A2603",
"8  c #942803",
"9  c #9B2C06",
"0  c #8C371A",
"q  c #9E3815",
"w  c #9C3B19",
"e  c #A52F06",
"r  c #B93507",
"t  c #B43408",
"y  c #B83609",
"u  c #B7380C",
"i  c #AF3A11",
"p  c #A23C19",
"a  c #AD3F19",
"s  c #B23A10",
"d  c #BD3E12",
"f  c #C13707",
"g  c #C63807",
"h  c #CD3804",
"j  c #C53A0A",
"k  c #CA3A08",
"l  c #D33B07",
"z  c #D63D08",
"x  c #D83D08",
"c  c #C03E11",
"v  c #E23E05",
"b  c #8B452D",
"n  c #994223",
"m  c #844F3D",
"M  c #954A30",
"N  c #8C523E",
"B  c #96523B",
"V  c #98553E",
"C  c #A74422",
"Z  c #AC4420",
"A  c #E74006",
"S  c #EB4106",
"D  c #ED4308",
"F  c #F14206",
"G  c #FB4506",
"H  c #FF4C07",
"J  c #F54509",
"K  c #FD4709",
"L  c #FF4809",
"P  c #F0540A",
"I  c #FF5509",
"U  c #E44812",
"Y  c #FF6009",
"T  c #FF6F09",
"R  c #FF7609",
"E  c #D25226",
"W  c #C5623C",
"Q  c #C07F3F",
"!  c #8C5845",
"~  c #865C4D",
"^  c #8B5C4C",
"/  c #805D51",
"(  c #8D6B5F",
")  c #926454",
"_  c #90685B",
"`  c #8D6E63",
"'  c #826B63",
"]  c #976F62",
"[  c #85736D",
"{  c #89766F",
"}  c #877670",
"|  c #8F7A72",
" . c #9D7E73",
".. c #BA7760",
"X. c #DE9113",
"o. c #FE8506",
"O. c #F0810A",
"+. c #FF8009",
"@. c #FF8C09",
"#. c #F9AC06",
"$. c #FFA709",
"%. c #FFAC09",
"&. c #FFB307",
"*. c #FFB009",
"=. c #D38824",
"-. c #B98B5D",
";. c #94827C",
":. c #B5907C",
">. c #7C8081",
",. c #858483",
"<. c #8B8B8B",
"1. c #958984",
"2. c #9B8A84",
"3. c #958F8D",
"4. c #988D89",
"5. c #949494",
"6. c #9F9490",
"7. c #9D9D9D",
"8. c #A08A82",
"9. c #B59380",
"0. c #A29C9A",
"q. c #B59E96",
"w. c #B7A79E",
"e. c #A3A3A3",
"r. c #A8A6A6",
"t. c #A7A8A8",
"y. c #ABABAC",
"u. c #B2AFAF",
"i. c #AFB1B2",
"p. c #B3B3B4",
"a. c #BBB5B4",
"s. c #B7B9BA",
"d. c #BCBCBD",
"f. c #BEC1C2",
"g. c #C3C3C3",
"h. c #C6C8C9",
"j. c #CBCBCC",
"k. c None",
/* pixels */
"k.k.k.k.k.k.k.k.k.k.k.k.k.k.k.k.k.k.k.k.k.k.k.k.k.k.k.k.k.k.k.k.",
"k.k.k.k.k.k.k.k.k.k.& e e 6 k.k.k.k.k.k.k.k.k.k.k.k.k.k.k.k.k.k.",
"k.k.k.k.k.k.k.k.@ f J L L J x & k.k.k.k.k.k.k.k.k.k.k.k.k.k.k.k.",
"k.k.k.k.k.k.k.k.g L L L L L L D 7 k.k.k.k.k.k.k.k.k.k.k.k.k.k.k.",
"k.k.k.k.k.k.k.6 G L L L L L L L A $ k.k.k.k.k.k.k.k.k.k.k.k.k.k.",
"k.k.k.k.k.k.k.r L K L L L L S d V [ k.k.k.k.k.k.k.k.k.k.k.k.k.k.",
"k.k.k.k.k.k.k.l L L K G x C _ 0.f.j.4 k.k.k.k.k.k.k.k.k.k.k.k.k.",
"k.k.k.k.k.k.k.x L S c B ;.p.h.j.j.j.7.k.k.k.k.k.k.k.k.k.k.k.k.k.",
"k.k.k.k.k.k.k.t Z ) 7.f.g.e.g.j.j.j.g.: k.k.k.k.k.k.k.k.k.k.k.k.",
"k.k.k.k.k.k.k.3 p.h.j.j.1.q B ;.f.j.j.<.k.k.k.k.k.k.k.k.k.k.k.k.",
"k.k.k.k.k.k.k.5 j.j.j.g.B G G y 2.j.j.p.k.k.k.k.k.k.k.k.k.k.k.k.",
"k.k.k.k.k.k.k.; p.j.j.t.a K L F N h.j.j.4 k.k.k.k.k.k.k.k.k.k.k.",
"k.k.k.k.k.k.k.k.3.j.j.f.M G L L i e.j.j.e.k.k.k.k.k.k.k.k.k.k.k.",
"k.k.k.k.k.k.k.k.> g.j.j.| l L L x ] j.j.g.> k.k.k.k.k.k.k.k.k.k.",
"k.k.k.k.k.k.k.k.k.e.j.j.y.p L L L n s.j.j.<.k.k.k.k.k.k.k.k.k.k.",
"k.k.k.k.k.k.k.k.k.4 j.j.h.~ S L L k 1.j.j.p.O k.k.k.k.k.k.k.k.k.",
"k.k.k.k.k.k.k.k.k.k.p.j.j.3.u L L F N h.j.h.2 >.<.5 4 3 > : - k.",
"k.k.k.k.k.k.k.k.k.k.<.j.j.s.b G L L u e.j.j.5.3.j.j.j.j.g.f.s.2 ",
"k.k.k.k.k.k.k.k.k.k.> f.j.j.[ l L L v ` j.j.d.4 h.j.j.j.j.j.j.t.",
"k.k.k.k.k.k.k.k.k.k.k.e.j.j.t.w K L S ^ h.j.j.,.e.u.0.;.;._ ) ' ",
"k.k.k.k.k.k.k.k.k.k.k.2 j.j.g./ h K j 4.j.j.j.p.>., 9 e e 7 #   ",
"k.k.k.k.k.k.k.k.k.k.4 4 u.j.j.p.{ b = s.j.j.g.q.m o k.k.k.k.k.k.",
"k.k.k.k.k.k.k.k.k.2 g.7.<.j.j.j.j.s.p.h.a.:.W U J k.k.k.k.k.k.k.",
"k.k.k.k.k.k.k.k.: a.j.f.4 d.j.j.j.g.w.-.=.O.H L k.k.k.k.k.k.k.k.",
"k.k.k.k.k.k.k.- y.j.j.j.<.7.j.a.:.-.X.#.&.@.L L k.k.k.k.k.k.k.k.",
"k.k.k.k.k.k.O e.j.j.f.{ ,.< ..E P o.%.*.%.R L L k.k.k.k.k.k.k.k.",
"k.k.k.k.k.k.5.j.j.p.! 9 X k.G K G H +.$.%.T L L k.k.k.k.k.k.k.k.",
"k.k.k.k.k.; g.j.0.b 8 + k.k.k.L G H H R @.Y L k.k.k.k.k.k.k.k.k.",
"k.k.k.k.k.k.7.2.0 % k.k.k.k.k.k.k.L L L I H L k.k.k.k.k.k.k.k.k.",
"k.k.k.k.k.k.1 * + k.k.k.k.k.k.k.k.k.k.L L L k.k.k.k.k.k.k.k.k.k.",
"k.k.k.k.k.k.k.. k.k.k.k.k.k.k.k.k.k.k.k.k.k.k.k.k.k.k.k.k.k.k.k.",
"k.k.k.k.k.k.k.k.k.k.k.k.k.k.k.k.k.k.k.k.k.k.k.k.k.k.k.k.k.k.k.k."
};
