/* XPM */
static char *_3[] = {
/* columns rows colors chars-per-pixel */
"32 32 135 2 ",
"   c #371307",
".  c #292727",
"X  c #292929",
"o  c #393838",
"O  c #461909",
"+  c #531602",
"@  c #5D1700",
"#  c #5C1903",
"$  c #6B1F04",
"%  c #711E01",
"&  c #762204",
"*  c #7D2304",
"=  c #72250B",
"-  c #6F2B13",
";  c #744839",
":  c #424242",
">  c #4B4B4B",
",  c #574E4B",
"<  c #545454",
"1  c #5B5B5B",
"2  c #656463",
"3  c #6C6563",
"4  c #6D6C6C",
"5  c #747474",
"6  c #7B7B7B",
"7  c #812606",
"8  c #932905",
"9  c #982B05",
"0  c #8E3618",
"q  c #9C3A18",
"w  c #A52E04",
"e  c #A83006",
"r  c #A5330C",
"t  c #B23206",
"y  c #B93406",
"u  c #BC390B",
"i  c #AE3911",
"p  c #A33D19",
"a  c #B33B11",
"s  c #BD3F14",
"d  c #CE3A07",
"f  c #C13A0B",
"g  c #CC3C0A",
"h  c #D73B05",
"j  c #DB3D06",
"k  c #D33D09",
"l  c #DE3F08",
"z  c #E63E05",
"x  c #B0431D",
"c  c #954225",
"v  c #9C4425",
"b  c #93482E",
"n  c #9D482A",
"m  c #834F3D",
"M  c #924A31",
"N  c #8D513D",
"B  c #9C5036",
"V  c #92543F",
"C  c #A54828",
"Z  c #EC4106",
"A  c #E44109",
"S  c #E9490E",
"D  c #F24205",
"F  c #FC4506",
"G  c #F94806",
"H  c #F34509",
"J  c #FD4709",
"K  c #FF4909",
"L  c #FF5109",
"P  c #FF6109",
"I  c #FF6B09",
"U  c #FC7206",
"Y  c #E06F15",
"T  c #875645",
"R  c #8D5E4E",
"E  c #965A46",
"W  c #8D6151",
"Q  c #87665A",
"!  c #8A6558",
"~  c #936657",
"^  c #846A62",
"/  c #8E6D62",
"(  c #8E756C",
")  c #92746A",
"_  c #847875",
"`  c #8F7A73",
"'  c #837E7C",
"]  c #937E77",
"[  c #9A7F76",
"{  c #D8891E",
"}  c #FF8109",
"|  c #FF8909",
" . c #FF9E09",
".. c #FEA206",
"X. c #FFA708",
"o. c #FFAB09",
"O. c #FFB607",
"+. c #D18B29",
"@. c #C68937",
"#. c #BD8347",
"$. c #BC8358",
"%. c #9F8076",
"&. c #97827B",
"*. c #B9806A",
"=. c #B88C7D",
"-. c #848485",
";. c #8C8D8D",
":. c #918682",
">. c #998E8A",
",. c #9E928E",
"<. c #949393",
"1. c #989695",
"2. c #9C9C9C",
"3. c #B79285",
"4. c #A49996",
"5. c #A29C9A",
"6. c #B79E95",
"7. c #A0A09F",
"8. c #A7A5A4",
"9. c #ACACAC",
"0. c #B8AAA4",
"q. c #B0AEAE",
"w. c #AFB0B0",
"e. c #B4B4B4",
"r. c #BAB2B0",
"t. c #B5B7B8",
"y. c #B7BABA",
"u. c #BCBCBC",
"i. c #BDBFC0",
"p. c #BFC2C3",
"a. c #C4C4C5",
"s. c #C4C7C8",
"d. c #C6C9CA",
"f. c #CBCCCC",
"g. c None",
/* pixels */
"g.g.g.g.g.g.g.g.g.g.g.g.g.g.g.g.g.g.g.g.g.g.g.g.g.g.g.g.g.g.g.g.",
"g.g.g.g.g.g.g.g.g.g.g.g.g.g.g.g.g.g.g.g.g.1 5 4 o g.g.g.g.g.g.g.",
"g.g.g.g.g.g.g.g.g.g.g.g.g.g.g.g.g.g.g.g.< u.d.! O g.g.g.g.g.g.g.",
"g.g.g.g.g.g.g.g.g.g.g.g.g.g.g.g.g.g.g.g.-.f.i.b # g.g.g.g.g.g.g.",
"g.g.g.g.g.g.g.g.g.g.g.g.g.g.g.g.g.g.g.g.9.f.w.q + g.g.g.g.g.g.g.",
"g.g.g.g.g.g.g.g.g.g.g.g.g.g.g.g.g.g.g.2 f.f.4.r g.g.g.g.g.g.g.g.",
"g.g.g.g.g.g.g.g.g.g.g.g.g.g.g.g.g.g.g.1.f.f.%.w g.g.g.g.g.g.g.g.",
"g.g.g.g.g.g.g.g.g.g.g.g.g.g.g.g.g.g.> u.f.f.Q * g.g.g.g.g.g.g.g.",
"g.g.g.g.g.g.g.g.g.g.g.g.g.g.g.g.g.g.6 f.a.u.1., g.g.g.g.g.g.g.g.",
"g.g.g.g.g.g.g.g.g.g.g.g.g.g.g.g.g.. 2 6 5 6 -.W D g.g.g.g.g.g.g.",
"g.g.g.g.g.g.g.g.g., 1 4 5 -.<.2.8.9.9.t.p.s.f.3.H K g.g.g.g.g.g.",
"g.g.g.g.# = ' q.e.u.a.d.f.f.f.f.f.f.f.f.f.f.f.6.S K J K g.g.g.g.",
"g.g.g.8 A k 1.f.f.f.f.f.f.f.f.f.f.f.d.d.f.f.f.0.Y I K J J g.g.g.",
"g.g.e J K l &.f.f.f.a.u.e.9.5.>.&./ W N ( u.f.r.{ o.| I L K g.g.",
"g.9 J K K z ) f.f.7.N C p a f d j z Z F k T e.u.+.O.o.o.} L J g.",
"g.l K K K D ~ f.e.M z F F K K K K K J K J y _ a.@.O.o. .I K K g.",
"& H K J K H E p.^ h K J J K J K K K F F z m y.s.#...| P K K g.g.",
"$ H J K K K B p.5.n Z F D z j d u i p c m 9.f.f.$.U L K K g.g.g.",
"+ A K J K F C y.f.9.W V R / ] :.<.8.9.e.u.f.f.f.[ F F F g.g.g.g.",
"g.e K J K K x w.f.f.s.s.d.f.f.f.f.f.f.f.f.f.f.f.=.F F g.g.g.g.g.",
"g.g.y K K K s 8.f.f.f.f.f.f.f.f.f.f.f.f.d.a.u.t.%.A g.g.g.g.g.g.",
"g.g.g.8 k J g 4.f.f.d.a.a.y.q.8.2.<.6 5 5 5 5 6 2 g.g.g.g.g.g.g.",
"g.g.g.g.g.* 7 3 ;.' 4 2 < g.g.g.g.g.g.< t.a.d.q.;   g.g.g.g.g.g.",
"g.g.g.g.g.g.g.g.g.g.g.g.g.g.g.g.g.g.g.g.<.f.f.e.c 7 g.g.g.g.g.g.",
"g.g.g.g.g.g.g.g.g.g.g.g.g.g.g.g.g.g.g.g.: e.f.f.) 8 g.g.g.g.g.g.",
"g.g.g.g.g.g.g.g.g.g.g.g.g.g.g.g.g.g.g.g.g.4 s.f.9.0 + g.g.g.g.g.",
"g.g.g.g.g.g.g.g.g.g.g.g.g.g.g.g.g.g.g.g.g.g.1.f.a.W & g.g.g.g.g.",
"g.g.g.g.g.g.g.g.g.g.g.g.g.g.g.g.g.g.g.g.g.g.> t.f.4.- g.g.g.g.g.",
"g.g.g.g.g.g.g.g.g.g.g.g.g.g.g.g.g.g.g.g.g.g.g.5 e.2.3 . g.g.g.g.",
"g.g.g.g.g.g.g.g.g.g.g.g.g.g.g.g.g.g.g.g.g.g.g.g.g.g.g.g.g.g.g.g.",
"g.g.g.g.g.g.g.g.g.g.g.g.g.g.g.g.g.g.g.g.g.g.g.g.g.g.g.g.g.g.g.g.",
"g.g.g.g.g.g.g.g.g.g.g.g.g.g.g.g.g.g.g.g.g.g.g.g.g.g.g.g.g.g.g.g."
};
