/* XPM */
static char *_55[] = {
/* columns rows colors chars-per-pixel */
"48 48 111 2 ",
"   c #150002",
".  c #230004",
"X  c #2D0005",
"o  c #350006",
"O  c #3C0007",
"+  c #3C0008",
"@  c #430008",
"#  c #4C0009",
"$  c #56000A",
"%  c #5C000B",
"&  c #63000C",
"*  c #6B000D",
"=  c #73000E",
"-  c #7D000F",
";  c #7F0010",
":  c #7F0D1A",
">  c #702936",
",  c #7A2A38",
"<  c #70313C",
"1  c #7A3744",
"2  c #6E4954",
"3  c #76616E",
"4  c #736672",
"5  c #7D6F7C",
"6  c #80000F",
"7  c #840010",
"8  c #8B0111",
"9  c #8F0D1E",
"0  c #940012",
"q  c #9B0013",
"w  c #990719",
"e  c #A40014",
"r  c #AC0015",
"t  c #A60519",
"y  c #AB0518",
"u  c #A30B1E",
"i  c #AD081C",
"p  c #B30016",
"a  c #BB0017",
"s  c #B90319",
"d  c #B3081C",
"f  c #8D0F20",
"g  c #8F1929",
"h  c #981223",
"j  c #991B2D",
"k  c #AA0F23",
"l  c #B50A20",
"z  c #BB0C22",
"x  c #A31426",
"c  c #A81426",
"v  c #A11729",
"b  c #A61E30",
"n  c #C20016",
"m  c #C40119",
"M  c #CC0119",
"N  c #DC0017",
"B  c #D3011A",
"V  c #DC001B",
"C  c #E70015",
"Z  c #E4001C",
"A  c #EB001D",
"S  c #F00016",
"D  c #F4001E",
"F  c #FF001F",
"G  c #C40A22",
"H  c #CE0D24",
"J  c #D60520",
"K  c #D40821",
"L  c #FF0020",
"P  c #983344",
"I  c #A33344",
"U  c #A03F4F",
"Y  c #B23F50",
"T  c #854A59",
"R  c #924C59",
"E  c #9F4D5C",
"W  c #A44E5E",
"Q  c #885A67",
"!  c #AB5868",
"~  c #846D7A",
"^  c #8D6D7C",
"/  c #8D737E",
"(  c #787985",
")  c #827886",
"_  c #A57D8A",
"`  c #B37D8B",
"'  c #918B99",
"]  c #84919D",
"[  c #8196A1",
"{  c #9D91A1",
"}  c #949CAA",
"|  c #8BA9B5",
" . c #8CADB9",
".. c #91AAB7",
"X. c #9FAFBB",
"o. c #94B1BD",
"O. c #8CB7C5",
"+. c #95B7C3",
"@. c #92BECB",
"#. c #9CCEDA",
"$. c #A3C0CF",
"%. c #A8C4CF",
"&. c #B2C7D3",
"*. c #A3D2DF",
"=. c #B6D6E2",
"-. c #B6D9E5",
";. c #B4DDEA",
":. c #BCDDEA",
">. c #B3E3F3",
",. c #C2E8F6",
"<. c None",
/* pixels */
"<.<.<.<.<.<.<.<.<.<.<.<.<.<.<.<.<.<.<.<.<.<.<.<.<.<.<.<.<.<.<.<.<.<.<.<.<.<.<.<.<.<.<.<.<.<.<.<.",
"<.<.<.<.<.<.<.<.<.<.<.<.<.<.<.<.<.<.<.<.$ 0 $ <.<.<.<.<.<.<.<.<.<.<.<.<.<.<.<.<.<.<.<.<.<.<.<.<.",
"<.<.<.<.<.<.<.<.<.<.<.<.<.<.<.<.<.o <.e Z A ; % = @ <.<.<.<.<.<.<.<.<.<.<.<.<.<.<.<.<.<.<.<.<.<.",
"<.<.<.<.<.<.<.<.<.<.<.<.<.<.<.<.= y Z F L D e m N y p = X <.<.<.<.<.<.<.<.<.<.<.<.<.<.<.<.<.<.<.",
"<.<.<.<.<.<.<.<.<.<.<.<.<.<.<.r Z F F F F A q A L F F M 0 = <.<.<.<.<.<.<.<.<.<.<.<.<.<.<.<.<.<.",
"<.<.<.<.<.<.<.<.<.<.<.<.+ e N F L F F F L V q A F F F F L m r + <.<.<.<.<.<.<.<.<.<.<.<.<.<.<.<.",
"<.<.<.<.<.<.<.<.<.<.<.$ n L F L F F F F L Z e D F F F F F F L e * <.<.<.<.<.<.<.<.<.<.<.<.<.<.<.",
"<.<.<.<.<.<.<.<.<.$ ; V L L F F F F F F F Z e D F F F F F L L L y 7 <.<.<.<.<.<.<.<.<.<.<.<.<.<.",
"<.<.<.<.<.<.<.<.& 8 F F F F F F F F F F L N p D F F F F F F L F F e <.<.<.<.<.<.<.<.<.<.<.<.<.<.",
"<.<.<.<.<.<.<.$ q F F F F F F F F F F F L M p F F F F F F F F F L F q <.<.<.<.<.<.<.<.<.<.<.<.<.",
"<.<.<.<.<.<.@ e F F F F F F F F F F F F L m r F F F F F F F F F F L A 0 <.<.<.<.<.<.<.<.<.<.<.<.",
"<.<.<.<.<.o p F F F F F F F F L F F A A A s y L F F F F F F F F F F L B * <.<.<.<.<.<.<.<.<.<.<.",
"<.<.<.<.<.p D L F F F F F L F A M p e q e * 7 m D L F F F F F F F F F L e o <.<.<.<.<.<.<.<.<.<.",
"<.<.<.<.y Z F F F F F F F L N e s p Z Z Z p & 7 a N F F F F F F F F F F A <.<.<.<.<.<.<.<.<.<.<.",
"<.<.<.8 Z L F F F F F F L M q B A L F F L L n r p y M F F F F F F F F L D 0 <.<.<.<.<.<.<.<.<.<.",
"<.<.$ Z L F F F F F F F M e Z F F F F F L L A m M M q V L F F F F F F F L n @ <.<.<.<.<.<.<.<.<.",
"<.<.m L L F F L F F F D s m D F F F F F F F F m M Z h y D F F F F F F F F V 0 <.<.<.<.<.<.<.<.<.",
"<.q A L F F F F F F F M 0 D F F F F F F F F F A r z 2 T Z F F F F F F F F F = <.<.<.<.<.<.<.<.<.",
"* A L L F F F F F F F s m F F F F L F F F F F F n < $.( d F F F F F F F F F t <.<.<.<.<.<.<.<.<.",
"q M Z A A D F F F F D q B F F F F F F F F F F F N Q ;. .c F F F F F F F F F q   <.<.<.<.<.<.<.<.",
". % q q e q e p s n a 8 Z F F F F F F F F F F F S R :.o.g F F F F F F F F F y <.<.<.<.<.<.<.<.<.",
"<.= Z Z Z B n m n r e * q D F F F F F F F L F F S E -. .j F F F F F F F F F p . <.<.<.<.<.<.<.<.",
"<.& A L L F F F L L D q 6 m A F F F F F F F F F S E :.[ w F F F F F F F F F p % <.<.<.<.<.<.<.<.",
"<.= B F F F F F L L F M w l B Z F F F F F F F F H / ;.5 n F F F F F F F F F p 6 * <.<.<.<.<.<.<.",
"<.<.m L F F F F F L L B e V M M B S F F F F F C I &.+.> A L F F L F F F F D y M 7 <.<.<.<.<.<.<.",
"<.<.e F F F F F F F F L e s A V f b B F S D B Y X.#.( m F L F F F F F F L Z e V e <.<.<.<.<.<.<.",
"<.<.0 F F F F F F F F F F 0 u 1 {  .' ! I W ' %.*.' 9 C F F F F F F F F L B p F y o <.<.<.<.<.<.",
"<.<.% M L F F F F F F F F A 8 4 o.>.,.-.-.-.;.$.^ 9 A F F L F F F F F F D e m L N % <.<.<.<.<.<.",
"<.<.<.p D F F F F F F F F F Z m < ~ ]  .| } 4 P p D F L F F F F F F F F Z p A L L 7 <.<.<.<.<.<.",
"<.<.<.= Z F F F F F F F F F F F C B c x v i K C F F F F F F F F F F L F e a L L L q <.<.<.<.<.<.",
"<.<.<.o 8 L L F F F F F F F F F F F F F F F F L F F F F F F F F F L L N p A L F L B <.<.<.<.<.<.",
"<.<.<.<.% a L F F F F F F F F F F F F F F F F F F F F F F F F F F L D y n L L L L A = <.<.<.<.<.",
"<.<.<.<.<.7 B F F F F F F F F F F F F F F F F F F F F F F F F F L D q e F F F F F D p <.<.<.<.<.",
"<.<.<.<.<.<.0 A L F F F F F F F F F F F F F F F F F F F F F F L A e & & Z F F F F F s # <.<.<.<.",
"<.<.<.<.<.<.<.7 A F F L F F F F F F F F F L F F F F F F F F F A s <.<.@ - D F F F F A % <.<.<.<.",
"<.<.<.<.<.<.<.<.& M D L L F F F F F F F F F F F F F F F F F B y <.<.<.<.@ 8 F F F F D 8 <.<.<.<.",
"<.<.<.<.<.<.<.<.. <.q D F L F F L L F F F F F F F F L F F y 0 <.<.<.<.<.<.@ r F F F L - . <.<.<.",
"<.<.<.<.<.<.<.<.<.<.<.% p Z F L L L F F F F F F F L V M 8 % <.<.<.<.<.<.<.<.# a F D 8 & <.<.<.<.",
"<.<.<.<.<.<.<.<.<.<.<.<.<.$ e a N A D F D D A V m e 0 q p r # <.<.<.<.<.<.<.<.% a 6 <.<.<.<.<.<.",
"<.<.<.<.<.<.<.<.<.<.<.<.<.<.<.. @ % 7 e r 0 q 6 e e V A F F q # <.<.<.<.<.<.<.<.X <.<.<.<.<.<.<.",
"<.<.<.<.<.<.<.<.<.<.<.<.<.<.<.<.<.  * 7 m B V A A L L L L L L 7 # <.<.<.<.<.<.<.<.<.<.<.<.<.<.<.",
"<.<.<.<.<.<.<.<.<.<.<.<.<.<.<.<.<.<.<.# e p D F L F F F F F F D = <.<.<.<.<.<.<.<.<.<.<.<.<.<.<.",
"<.<.<.<.<.<.<.<.<.<.<.<.<.<.<.<.<.<.<.<.<.# y s F L L L F F L L Z & <.<.<.<.<.<.<.<.<.<.<.<.<.<.",
"<.<.<.<.<.<.<.<.<.<.<.<.<.<.<.<.<.<.<.<.<.<.<.& * a D L L F L L L N # <.<.<.<.<.<.<.<.<.<.<.<.<.",
"<.<.<.<.<.<.<.<.<.<.<.<.<.<.<.<.<.<.<.<.<.<.<.<.<.<.* B D L L L L Z * <.<.<.<.<.<.<.<.<.<.<.<.<.",
"<.<.<.<.<.<.<.<.<.<.<.<.<.<.<.<.<.<.<.<.<.<.<.<.<.<.<.<.- B Z L M 8 <.<.<.<.<.<.<.<.<.<.<.<.<.<.",
"<.<.<.<.<.<.<.<.<.<.<.<.<.<.<.<.<.<.<.<.<.<.<.<.<.<.<.<.<.<.7 e 8 <.<.<.<.<.<.<.<.<.<.<.<.<.<.<.",
"<.<.<.<.<.<.<.<.<.<.<.<.<.<.<.<.<.<.<.<.<.<.<.<.<.<.<.<.<.<.<.o <.<.<.<.<.<.<.<.<.<.<.<.<.<.<.<."
};
