/* XPM */
static char *_77[] = {
/* columns rows colors chars-per-pixel */
"48 48 113 2 ",
"   c #130002",
".  c #1D0003",
"X  c #230004",
"o  c #2B0005",
"O  c #350006",
"+  c #3F0007",
"@  c #3C0008",
"#  c #430008",
"$  c #4B0009",
"%  c #54000A",
"&  c #5C000B",
"*  c #64010C",
"=  c #6B000D",
"-  c #73000E",
";  c #7B000F",
":  c #7D0211",
">  c #712330",
",  c #7A313F",
"<  c #7E3846",
"1  c #7F3A48",
"2  c #76404D",
"3  c #764450",
"4  c #754E5A",
"5  c #675F69",
"6  c #7F5E6C",
"7  c #80000F",
"8  c #850010",
"9  c #8C0011",
"0  c #8F0D1C",
"q  c #940012",
"w  c #9B0013",
"e  c #A30014",
"r  c #AB0015",
"t  c #A50519",
"y  c #AE0418",
"u  c #B30016",
"i  c #BB0017",
"p  c #B20419",
"a  c #BB0318",
"s  c #8C0F20",
"d  c #9E0E21",
"f  c #881323",
"g  c #951929",
"h  c #9C192C",
"j  c #BF0B21",
"k  c #B61226",
"l  c #AF1D30",
"z  c #BF1D33",
"x  c #872736",
"c  c #8E2939",
"v  c #9D2B3C",
"b  c #A02333",
"n  c #B92235",
"m  c #C30017",
"M  c #CB0014",
"N  c #C40018",
"B  c #CC011A",
"V  c #D00016",
"C  c #D4011A",
"Z  c #DB001B",
"A  c #E40017",
"S  c #E80017",
"D  c #E4001C",
"F  c #EC001D",
"G  c #F00017",
"H  c #F4001E",
"J  c #FF001F",
"K  c #C00A20",
"L  c #C4122A",
"P  c #EE0521",
"I  c #FF0020",
"U  c #C32137",
"Y  c #803D4A",
"T  c #983948",
"R  c #8B4D5C",
"E  c #B64A5C",
"W  c #935C69",
"Q  c #A55463",
"!  c #866472",
"~  c #8E6B79",
"^  c #717C87",
"/  c #747D89",
"(  c #9C7A88",
")  c #7F939E",
"_  c #858691",
"`  c #85939F",
"'  c #949BAA",
"]  c #A593A0",
"[  c #87A9B6",
"{  c #94A6B3",
"}  c #8FB0BC",
"|  c #A1A6B1",
" . c #A8A8B4",
".. c #A0B2BE",
"X. c #96B6C2",
"o. c #99B4C3",
"O. c #9FB9C6",
"+. c #96BCC9",
"@. c #9DBFCB",
"#. c #A8B4C0",
"$. c #9AC1CD",
"%. c #9FC3D3",
"&. c #AFCBD7",
"*. c #AAD4DF",
"=. c #A7D5E2",
"-. c #ADDCEA",
";. c #B4DCE9",
":. c #B9DEEB",
">. c #BAE1EE",
",. c #BEE7F4",
"<. c #BEE8F6",
"1. c #C7EBF9",
"2. c None",
/* pixels */
"2.2.2.2.2.2.2.2.2.2.2.2.2.2.2.2.2.2.2.2.2.2.2.2.2.2.2.2.2.2.2.2.2.2.2.2.2.2.2.2.2.2.2.2.2.2.2.2.",
"2.2.2.2.2.2.2.2.2.2.2.2.2.2.2.2.2.2.2.2.2.2.2.2.2.2.2.2.2.2.2.2.2.2.2.2.2.2.2.2.2.2.2.2.2.2.2.2.",
"2.2.2.2.2.2.2.2.2.2.2.2.2.2.2.2.2.2.2.2.2.2.2.2.2.2.2.2.2.2.2.2.2.2.2.2.2.2.2.2.2.2.2.2.2.2.2.2.",
"2.2.2.2.2.2.2.2.2.2.2.2.2.2.2.2.2.2.2.2.2.2.2.2.2.2.2.2.2.2.2.2.2.2.2.2.2.2.2.2.2.2.2.2.2.2.2.2.",
"2.2.2.2.2.2.2.2.2.2.2.2.2.2.2.2.2.2.2.2.2.2.2.2.2.2.2.2.2.2.2.2.2.2.2.2.2.2.2.2.2.2.2.2.2.2.2.2.",
"2.2.2.2.2.2.2.2.2.2.2.2.2.2.2.2.@ & - 8 2.2.2.2.2.2.2.2.2.2.2.2.2.2.2.2.2.2.2.2.2.2.2.2.2.2.2.2.",
"2.2.2.2.2.2.2.2.2.2.2.2.2.% 9 m C Z C C m u e q = $ 2.2.2.2.2.2.2.2.2.2.2.2.2.2.2.2.2.2.2.2.2.2.",
"2.2.2.2.2.2.2.2.2.2.* r u F I J I J I I I I I I J Z a = 2.2.2.2.2.2.2.2.2.2.2.2.2.2.2.2.2.2.2.2.",
"2.2.2.2.2.2.2.o @ q u F I I J J J J J J J J J J J J H C e 2.2.2.2.2.2.2.2.2.2.2.2.2.2.2.2.2.2.2.",
"2.2.2.2.2.X 8 q ; B I J J J J J J J J J J J J J J J J J H u : 2.2.2.2.2.2.2.2.2.2.2.2.2.2.2.2.2.",
"2.2.2.2.2.% N H u u H J J J J J J J J J J J J J J J J J I I C * o 2.2.2.2.2.2.2.2.2.2.2.2.2.2.2.",
"2.2.2.2.2.9 F J D w i J J J J J J J J J J J J J J J J J I I I D - o 2.2.2.2.2.2.2.2.2.2.2.2.2.2.",
"2.2.2.2.2.N J J I Z e C I J J J J J J J J J J J J J J J I J J I D 8 8 = 2.2.2.2.2.2.2.2.2.2.2.2.",
"2.2.2.2.$ D J J J I Z e Z J J J J J J J J J J J J J J J J J J J J Z q N m = X 2.2.2.2.2.2.2.2.2.",
"2.2.2.2.; I J J J J J B e D I I J I J J J J J J J J J J J J J J J J i u F B 8 2.2.2.2.2.2.2.2.2.",
"2.2.2.2.r I J J J J J J m e F I F C B N C F J J J J J J J J J J J I H e C I F a - 2.2.2.2.2.2.2.",
"2.2.2.2.N J J J J J J J H y 9 e q r m y w g L S J J J J J J J J J J J C w J I I F u - 2.2.2.2.2.",
"2.2.2.u F J J J J J J J J i % & q p B Z k 5 ) x M J J J J J J J J J J F r Z I J I I D e & . 2.2.",
"2.2.o q J J J J J J J H u e C F A C N N p ~ -.} 2 m J J J J J J J J J J N u I J J J J J D q % 2.",
"2.2.+ u J J J J J J J i r D I J J H F C r 2 ..1.} Y M J J J J J J J J I B u H J J J J J J J e # ",
"2.2.$ C J J J J J J D e Z I J J J J I J J B T | <.) h H J J J J J J J I D u D I J J J J J I u 2.",
"2.2.* D J J J J J J a i H J J J J J J J J J S v #.=.3 C J J J J J J J I J r C I J J J J I I e 2.",
"2.2.* J J J J J J J w Z J J J J J J J J J J J A W >./ N J J J J J J J J I w 9 r m Z D F H J 9 2.",
"2.2.- J J J J J J J w F J J J J J J J J J J J J v &.[ 0 J J J J J J J J J q # # # # # % * - # 2.",
"2.2.- J J J J J J H w F J J J J J J J J J J J J k ..$.f J J J J J J J J J e 2.2.2.2.2.2.2.2.2.2.",
"2.2.- J J J J J I F r D I J J J J J J J J J J H n $.O.s J J J J J J J J J u 2.2.2.2.2.2.2.2.2.2.",
"2.2.; J J J J J J G a m I J J J J J J J J J J H E *.' t J J J J J J J J H u 2.2.2.2.2.2.2.2.2.2.",
"2.2.8 J I J J J J J i u J J J J J J J J J J H U ] *.! M J J J J J J J I F e 2.2.2.2.2.2.2.2.2.2.",
"2.2.9 F J J J J J I Z t C I I I J J J J H F n ( ;.{ v S J J J J J J J J C q 2.2.2.2.2.2.2.2.2.2.",
"2.2.a F J J J J J J J a y F H H F D Z N l Q  .>.$.R V J J J J J J J J J i % 2.2.2.2.2.2.2.2.2.2.",
"2.2.e H I J J J J J J D 9 = 9 y N B C 0 _ -.<.$.4 N J J J J J J J J J J w 9 q 8 = * & % $ O 2.2.",
"2.2.; H J J J J J J F y w q 8 t B D S c X.%.` 2 B I J J J J J J J J J Z q Z J I I I H F D 9 2.2.",
"2.2.% H I J J J J Z r r H I Z r e r r > 6 , t S I J J J J J J J J J I e r H I I J I I J I e 2.2.",
"2.2.# C I I I J N w a H I I I P D C N i V S J J I J J J J J J J J J F 8 Z J I J J J I I I w 2.2.",
"2.2.2.i I I J i w N J J I I I I J I I I J J J J J J J J J J J J J J e w I J J I J I J I I q 2.2.",
"2.2.2.w I F r e Z J I J J J J J J J J J J J J J J I J J J J J J J N 9 D I J I I I H D N 8 $ 2.2.",
"2.2.2.9 C w u F J J J J J J J J J J J J J J J J J J J J J J J J C 9 N I I I F C N e * 2.2.2.2.2.",
"2.2.2.2.# # u J I J J J J J J J J J J J J J J J J J J J J J I Z e i J F N e 8 = O 2.2.2.2.2.2.2.",
"2.2.2.2.2.2.& w F I J J J J J J J J J J J J J J J J J J I J B w r N q 8 2.# 2.2.2.2.2.2.2.2.2.2.",
"2.2.2.2.2.2.2.2.w B J I J J J J J J J J J J J J J J J I F r & - = 2.2.2.2.2.2.2.2.2.2.2.2.2.2.2.",
"2.2.2.2.2.2.2.2.2.w u F J J J J J J J J J J J J J I J N - o   2.2.2.2.2.2.2.2.2.2.2.2.2.2.2.2.2.",
"2.2.2.2.2.2.2.2.2.2.# 8 i C J I I J I J J J I I D u - ;   2.2.2.2.2.2.2.2.2.2.2.2.2.2.2.2.2.2.2.",
"2.2.2.2.2.2.2.2.2.2.2.2.2.# % 9 r i N B N i u - $ 2.2.2.2.2.2.2.2.2.2.2.2.2.2.2.2.2.2.2.2.2.2.2.",
"2.2.2.2.2.2.2.2.2.2.2.2.2.2.2.2.2.2.9 = # o 2.2.2.2.2.2.2.2.2.2.2.2.2.2.2.2.2.2.2.2.2.2.2.2.2.2.",
"2.2.2.2.2.2.2.2.2.2.2.2.2.2.2.2.2.2.2.2.2.2.2.2.2.2.2.2.2.2.2.2.2.2.2.2.2.2.2.2.2.2.2.2.2.2.2.2.",
"2.2.2.2.2.2.2.2.2.2.2.2.2.2.2.2.2.2.2.2.2.2.2.2.2.2.2.2.2.2.2.2.2.2.2.2.2.2.2.2.2.2.2.2.2.2.2.2.",
"2.2.2.2.2.2.2.2.2.2.2.2.2.2.2.2.2.2.2.2.2.2.2.2.2.2.2.2.2.2.2.2.2.2.2.2.2.2.2.2.2.2.2.2.2.2.2.2.",
"2.2.2.2.2.2.2.2.2.2.2.2.2.2.2.2.2.2.2.2.2.2.2.2.2.2.2.2.2.2.2.2.2.2.2.2.2.2.2.2.2.2.2.2.2.2.2.2."
};
