/* XPM */
static char *_1[] = {
/* columns rows colors chars-per-pixel */
"48 48 108 2 ",
"   c #140002",
".  c #250004",
"X  c #340006",
"o  c #380007",
"O  c #450008",
"+  c #4C0009",
"@  c #54000A",
"#  c #5C000B",
"$  c #63000C",
"%  c #6C000D",
"&  c #72000E",
"*  c #7B000F",
"=  c #700713",
"-  c #7F0010",
";  c #6F2531",
":  c #7A2532",
">  c #743A47",
",  c #794754",
"<  c #7C4856",
"1  c #61545D",
"2  c #7A5966",
"3  c #80000F",
"4  c #840010",
"5  c #8B0011",
"6  c #940012",
"7  c #9C0114",
"8  c #9D0C1E",
"9  c #A40014",
"0  c #AC0015",
"q  c #B40016",
"w  c #BB0017",
"e  c #B2071C",
"r  c #BC0219",
"t  c #861424",
"y  c #A70F22",
"u  c #A81326",
"i  c #BC162B",
"p  c #922131",
"a  c #912738",
"s  c #9F2C3D",
"d  c #83303F",
"f  c #8B303F",
"g  c #91303F",
"h  c #AF2035",
"j  c #BA2337",
"k  c #C10017",
"l  c #CB0017",
"z  c #C40119",
"x  c #CC0019",
"c  c #C4091F",
"v  c #D40012",
"b  c #D3001A",
"n  c #DB001B",
"m  c #E60016",
"M  c #E4001B",
"N  c #EC001D",
"B  c #F3001D",
"V  c #FF001F",
"C  c #C10B22",
"Z  c #CE0A23",
"A  c #DE0A24",
"S  c #CB162E",
"D  c #FF0020",
"F  c #803241",
"G  c #993A4A",
"H  c #B4384A",
"J  c #A0404F",
"K  c #815461",
"L  c #8C5160",
"P  c #895D6C",
"I  c #886B77",
"U  c #797782",
"Y  c #827886",
"T  c #B37C8B",
"R  c #7D8D98",
"E  c #7BA2AE",
"W  c #89818E",
"Q  c #948B96",
"!  c #AC8693",
"~  c #889AA6",
"^  c #819DAA",
"/  c #9A94A0",
"(  c #9F99A4",
")  c #A197A3",
"_  c #A09FAC",
"`  c #83A4AF",
"'  c #A9ADBA",
"]  c #A9B3BF",
"[  c #93B3C0",
"{  c #98B9C6",
"}  c #9DBFCC",
"|  c #9AC1CF",
" . c #9AC1D0",
".. c #A6C6D2",
"X. c #A3CFDD",
"o. c #B0CFDB",
"O. c #A0D2DE",
"+. c #B1D1DD",
"@. c #A4D5E0",
"#. c #AED3E0",
"$. c #ADD9E6",
"%. c #B1D7E5",
"&. c #B1DCE9",
"*. c #AFE3F3",
"=. c #B7E5F2",
"-. c #BDE8F5",
";. c #C2E8F6",
":. c None",
/* pixels */
":.:.:.:.:.:.:.:.:.:.:.:.:.:.:.:.:.:.:.:.:.:.:.:.* 5 6 9 # :.:.:.:.:.:.:.:.:.:.:.:.:.:.:.:.:.:.:.",
":.:.:.:.:.:.:.:.:.:.:.:.:.:.:.:.:.:.:.:.:.:.:.X 9 N D D z :.:.:.:.:.:.:.:.:.:.:.:.:.:.:.:.:.:.:.",
":.:.:.:.:.:.:.:.:.:.:.:.:.:.:.$ o :.:.:.:.:.:.:.7 D V D B z @ :.:.:.:.:.:.:.:.:.:.:.:.:.:.:.:.:.",
":.:.:.:.:.:.:.:.:.:.:.:.@ 5 0 b 9 O :.:.:.:.:.:.& D D V D N 9 :.:.:.:.:.:.:.:.:.:.:.:.:.:.:.:.:.",
":.:.:.:.:.:.:.:.:.:.:.:.9 D D V x O :.:.:.:.:.:.# B D V V D M @ :.:.:.:.:.:.:.:.:.:.:.:.:.:.:.:.",
":.:.:.:.:.:.:.:.:.:.:.o x D V V N @ :.:.:.:.:.:.+ n D V V D D 0 :.:.:.:.:.:.:.:.:.:.:.:.:.:.:.:.",
":.:.:.:.:.:.:.:.:.:.:.# B D V V V $ :.:.:.:.:.:.+ q V V V V D N 5 X :.:.:.:.:.:.:.:.:.:.:.:.:.:.",
":.:.:.:.:.:.:.:.:.:.:.7 N D V D V 5 :.:.:.:.:.:.:.5 V D V V D D M 5 :.:.:.:.:.:.:.:.:.:.:.:.:.:.",
":.:.:.:.:.:.:.:.:.:.:.9 B V V V V q O :.:.:.:.:.:.% V V N D D D V x # :.:.:.:.:.:.:.:.:.:.:.:.:.",
":.:.:.:.:.:.:.:.:.:.:.0 D V V V V b + :.:.:.:.:.:.@ 3 6 0 q z M V V 6 :.:.:.:.:.:.:.:.:.:.:.:.:.",
":.:.:.:.:.:.:.:.:.:.@ b D V V D D M @ :.9 q q q w x n x 0 9 9 4 9 b x 5 :.:.:.:.:.:.:.:.:.:.:.:.",
":.:.:.:.:.:.:.:.:.:.$ N V V V N z 7 5 q b N D D D D V D D V N M q 6 0 6 4 :.:.:.:.:.:.:.:.:.:.:.",
":.:.:.:.:.:.:.:.:.:.6 N D D M q w M V D D V V V V V V V V V V V V B x 7 @   :.:.:.:.:.:.:.:.:.:.",
":.:.:.:.:.:.:.:.:.. 4 D D n 0 w N V V V V V V V D V V V V V V V V D D N 0 o :.:.:.:.:.:.:.:.:.:.",
":.:.:.:.:.:.:.:.:.:.9 V w 7 b V D V V V V V V V V V V V V V V V V V V V V w + :.:.:.:.:.:.:.:.:.",
":.:.:.:.:.:.:.:.:.:.b z 9 M V V V V V V V V V V V V V V V V V V V V V V V V x 4 :.:.:.:.:.:.:.:.",
":.:.:.:.:.:.:.:.:.% r 0 M V V V V V V V V V V V V V V V V V V V V V V V V V V x $ :.:.:.:.:.:.:.",
":.:.:.:.:.:.:.:.:.* 6 b V V V V V V V V V V V V V V V V V V V V V V V V V V V V q o :.:.:.:.:.:.",
":.:.:.:.:.:.:.:.:.O 0 B V V V V V V V V V V V V V V V V V V V V V V V V V V V V V * :.:.:.:.:.:.",
":.:.:.:.:.:.:.:.:.$ N V V V V V V V V V V V V V N b v N B V V V V V V V V V V V D z :.:.:.:.:.:.",
":.:.:.:.:.:.:.:.. q D V V V V V V V V V V m q t d L P < p S M V V V V V V V V V V N 7 . :.:.:.:.",
":.:.:.:.:.:.:.:.= N D V V V V V V V V V b a Y { O.O.O.+.| 2 f c V V V V V D V V V V n @ :.:.:.:.",
":.:.:.:.:.:.:.:.9 V V V V V V V V V V x d ~ $..._ ! ! ) +.=.] 2 r V V V V V V V V V D 4 :.:.:.:.",
":.:.:.:.:.:.:.:.r D V V V V V V V V M : ` &.Q s c b A S G ] -.| > b V V V V V V V V D q :.:.:.:.",
":.:.:.:.:.:.:.% M V V V V V V V V V 8 R -.( j B V V V V N H ' *.E h M V V V V V V V D z - :.:.:.",
":.:.:.:.:.:.:.& B V V V V V V V V m , +.+.J m V V V V V V m G I 2 ; e D V V V V V V V M * :.:.:.",
":.:.:.:.:.:.:.0 B V V V V V V V V e W -./ i V V V V V V V B l 7 Z r 9 D V V V V V V V V % :.:.:.",
":.:.:.:.:.:.:.w V V V V V V V V B h ` | K b V V V V V V V V V z n M 6 D V V V V V V V V $ :.:.:.",
":.:.:.:.:.:.:.6 V V V V V V V V B u 1 g 3 B V V V V V V V V V n C n 7 B V V V V V V V B * :.:.:.",
":.:.:.:.:.:.:.5 V V V V V V V V V 7 u m 0 V V V V V V V V V V B c q 9 M D D V V V V D M w :.:.:.",
":.:.:.:.:.:.:.6 V V V V V V V V V 9 z n r N V V V V V V V V V V x 4 9 D D D V V V V D N 4 :.:.:.",
":.:.:.:.:.:.:.5 N V V V V V V V V z r l l N V V V V V V V V V V M & 9 D D D V V V V V M @ :.:.:.",
":.:.:.:.:.:.:.5 b D V V V V V V V M q 9 c B V V V V V V V V V D M % 5 n D D V V V V D z :.:.:.:.",
":.:.:.:.:.:.:.:.q D V V V V V V V V b 4 3 B V V V V V V V V V N 0 w w 7 z N D V V V D 7 :.:.:.:.",
":.:.:.:.:.:.:.:.6 D V V V V V V V V V 9 @ b V V V V V V V V V r 0 B D n q 9 x V V V N 9 :.:.:.:.",
":.:.:.:.:.:.:.:.% B V V V V D V V V V 0 & 9 z N V V V V B b 9 9 M V D D B z 6 0 N D b + :.:.:.:.",
":.:.:.:.:.:.:.:.O w V V V V V V D V n 9 b x 0 9 7 k b w 0 9 z B D D V D V V M 0 7 b 7 :.:.:.:.:.",
":.:.:.:.:.:.:.:.:.7 n V V V V V D B q r D V B n b w 0 w n B V V V V V V V V V V k 6 O :.:.:.:.:.",
":.:.:.:.:.:.:.:.:.:.7 V V V V V D x 0 B D V D V V V V D V V V V V V V V V V V D D n & :.:.:.:.:.",
":.:.:.:.:.:.:.:.:.:.O z V V V D B 9 n V V V V V V V V V V V V V V V V V V V D D V b 6 :.:.:.:.:.",
":.:.:.:.:.:.:.:.:.:.:.* n D D V q w B V V V V V V V V V V V V V V V V V V D V b 9 $ :.:.:.:.:.:.",
":.:.:.:.:.:.:.:.:.:.:.:.7 x D x 7 n D V V V V V V V V V V V V V V V V V N x 5 + :.:.:.:.:.:.:.:.",
":.:.:.:.:.:.:.:.:.:.:.:.:.* 0 9 w V V V D V V V V V V V V V D V V V M c 0 4 :.:.:.:.:.:.:.:.:.:.",
":.:.:.:.:.:.:.:.:.:.:.:.:.:.O 9 V V D V V V V V V V D V D D V M w * + :.:.:.:.:.:.:.:.:.:.:.:.:.",
":.:.:.:.:.:.:.:.:.:.:.:.:.:.o w B N M B D D N M N B N x q 5 & # O :.:.:.:.:.:.:.:.:.:.:.:.:.:.:.",
":.:.:.:.:.:.:.:.:.:.:.:.:.:.:.O @ * q 5 & 5 9 x 4 @ + @ # :.:.:.:.:.:.:.:.:.:.:.:.:.:.:.:.:.:.:.",
":.:.:.:.:.:.:.:.:.:.:.:.:.:.:.:.:.:.:.:.:.:.:.:.:.:.:.:.:.:.:.:.:.:.:.:.:.:.:.:.:.:.:.:.:.:.:.:.",
":.:.:.:.:.:.:.:.:.:.:.:.:.:.:.:.:.:.:.:.:.:.:.:.:.:.:.:.:.:.:.:.:.:.:.:.:.:.:.:.:.:.:.:.:.:.:.:."
};
