/* XPM */
static char *_4[] = {
/* columns rows colors chars-per-pixel */
"48 48 105 2 ",
"   c #100001",
".  c #1A0003",
"X  c #210004",
"o  c #2A0005",
"O  c #340006",
"+  c #3C0007",
"@  c #450008",
"#  c #4C0009",
"$  c #53000A",
"%  c #5C000B",
"&  c #63000C",
"*  c #6B000D",
"=  c #75000E",
"-  c #7B000F",
";  c #7F0010",
":  c #6C2D39",
">  c #7B2735",
",  c #713944",
"<  c #75515D",
"1  c #775763",
"2  c #756875",
"3  c #7C717D",
"4  c #850010",
"5  c #8B0011",
"6  c #840917",
"7  c #930012",
"8  c #9C0013",
"9  c #9D0719",
"0  c #A30014",
"q  c #AA0015",
"w  c #B30016",
"e  c #BB0017",
"r  c #B40419",
"t  c #BA0319",
"y  c #B0081B",
"u  c #811827",
"i  c #801B2A",
"p  c #941425",
"a  c #BE0F25",
"s  c #A81528",
"d  c #BC1128",
"f  c #802634",
"g  c #952233",
"h  c #962B3B",
"j  c #9F2A3C",
"k  c #A22235",
"l  c #C20017",
"z  c #C30018",
"x  c #CB0119",
"c  c #D40016",
"v  c #DD0016",
"b  c #D3011A",
"n  c #DC001B",
"m  c #E4001B",
"M  c #EC001D",
"N  c #F3001D",
"B  c #FF001F",
"V  c #C00A20",
"C  c #D10B23",
"Z  c #EC0420",
"A  c #F30321",
"S  c #FF0020",
"D  c #883F4D",
"F  c #A03040",
"G  c #AC3647",
"H  c #A03A4A",
"J  c #864D5C",
"K  c #AE4B5B",
"L  c #885E6B",
"P  c #9B5462",
"I  c #956975",
"U  c #82707D",
"Y  c #A46C7B",
"T  c #B26170",
"R  c #7E7582",
"E  c #887583",
"W  c #907C8B",
"Q  c #77828E",
"!  c #798B97",
"~  c #7898A4",
"^  c #A2929F",
"/  c #8E93A0",
"(  c #9793A2",
")  c #9D9BA7",
"_  c #A29AA7",
"`  c #8DA3AE",
"'  c #8CA4B1",
"]  c #90A5B1",
"[  c #99BBC8",
"{  c #AABBC7",
"}  c #9DC1CF",
"|  c #A3C2CE",
" . c #A4CFDB",
".. c #B4CAD6",
"X. c #B7CDD9",
"o. c #A4D3DF",
"O. c #ABDAE7",
"+. c #ACDCEB",
"@. c #B4DAE7",
"#. c #B4DDEB",
"$. c #B8DEEB",
"%. c #B9E2EF",
"&. c #B3E4F4",
"*. c #BCE3F1",
"=. c None",
/* pixels */
"=.=.=.=.=.=.=.=.=.=.=.=.=.=.=.=.=.=.=.=.=.=.5 8 q l * =.=.=.=.=.=.=.=.=.=.=.=.=.=.=.=.=.=.=.=.=.",
"=.=.=.=.=.=.=.=.=.=.=.=.=.=.=.=.=.=.=.=.=.@ x N S S z =.=.=.=.=.=.=.=.=.=.=.=.=.=.=.=.=.=.=.=.=.",
"=.=.=.=.=.=.=.=.=.=.=.=.=.=.=.=.=.=.=.=.=.# b S S S N q ; =.=.=.=.=.=.=.=.=.=.=.=.=.=.=.=.=.=.=.",
"=.=.=.=.=.=.=.=.=.=.=.=.=.& O =.=.=.=.=.=.=.5 S S S S S l + =.=.=.=.=.=.=.=.=.=.=.=.=.=.=.=.=.=.",
"=.=.=.=.=.=.=.=.=.=.$ = 0 n 8 @ =.=.=.=.=.=.& N S B B S N 5 =.=.=.=.=.=.=.=.=.=.=.=.=.=.=.=.=.=.",
"=.=.=.=.=.=.=.=.=.=.5 S B B b # =.=.=.=.=.=.# x B B B S S m 5 o =.=.=.=.=.=.=.=.=.=.=.=.=.=.=.=.",
"=.=.=.=.=.=.=.=.=.=.w B B B N & =.=.=.=.=.=.=.7 S B S B S S N 4 =.=.=.=.=.=.=.=.=.=.=.=.=.=.=.=.",
"=.=.=.=.=.=.=.=.=.O b B B B B 7 + =.=.=.=.=.=.* N S S S S S S b 7 =.=.=.=.=.=.=.=.=.=.=.=.=.=.=.",
"=.=.=.=.=.=.=.=.=.=.z S B B B b # =.=.=.=.=.=.# x m n m N M S B x 4 =.=.=.=.=.=.=.=.=.=.=.=.=.=.",
"=.=.=.=.=.=.=.=.=.=.n B B B B N & =.=.=.=.=.=.% * 4 8 5 4 0 8 l n z $ =.=.=.=.=.=.=.=.=.=.=.=.=.",
"=.=.=.=.=.=.=.=.=.* m B B B S B 5 =.=.=.w q q l m M n m m l e 7 8 q 4 * =.=.=.=.=.=.=.=.=.=.=.=.",
"=.=.=.=.=.=.=.=.=.0 m B B B S N w & 7 e n A S S B B S S S S S N m z 7 #   =.=.=.=.=.=.=.=.=.=.=.",
"=.=.=.=.=.=.=.=.=.* A B B B m 0 0 x N B S B B B B B B B B B B B S B N t $ . =.=.=.=.=.=.=.=.=.=.",
"=.=.=.=.=.=.=.=.=.8 S S S n w z N S B B B B B B B B B B B B B B B B B S m 4 =.=.=.=.=.=.=.=.=.=.",
"=.=.=.=.=.=.=.=.=.7 N S n q l N S B B B B B B B B B B B B B B B B B B B S M w @ =.=.=.=.=.=.=.=.",
"=.=.=.=.=.=.=.=.=.7 S b 8 x N S B B B B B B B B B B B B B B B B B B B B B B B 0 # =.=.=.=.=.=.=.",
"=.=.=.=.=.=.=.=.=.t M q b B S B B B B B B B B B B B B B B B B B B B B B B B B N 7 # =.=.=.=.=.=.",
"=.=.=.=.=.=.=.=.=.l t e N S B B B B B B B B B B B B B B B B B B B B B B B B B B M 8 =.=.=.=.=.=.",
"=.=.=.=.=.=.=.=.=.5 0 m S B B B B B B B B B B B B B B B B B B B B B B B B B B B S b # =.=.=.=.=.",
"=.=.=.=.=.=.=.=.O = b B B B B B B B B B B B B N b e x C c N B B B B B B B B B B B N 0 # =.=.=.=.",
"=.=.=.=.=.=.=.=.X 7 N B B B B B B B B B B m q i J / Q 3 L f z M B B B B B B B B B S m - =.=.=.=.",
"=.=.=.=.=.=.=.=.@ t B B B B B B B B B B m k E } | o.%.%.O.[ R h c B B B B B B B B B S 0 =.=.=.=.",
"=.=.=.=.=.=.=.=.$ M B B B B B B B B B v u Q o.| ^ T K Y _ %.%.' > n B B B B B B B B S l 4 =.=.=.",
"=.=.=.=.=.=.=.=.9 B B B B B B B B B N p ! #.) j z v N m d Y X.&.~ j m S B B B B B B B M - =.=.=.",
"=.=.=.=.=.=.=.+ q S S B B B B B B B c < %.| G M B B B B B b P / E : 0 S B B B B B B S S - =.=.=.",
"=.=.=.=.=.=.=.=.z S S S B B B B B B p ` %.I b B B B B B B N x 6 V V 7 N B B B B B B B S 7 + =.=.",
"=.=.=.=.=.=.=.$ v S B B B B B B B m J  ...j N B B B B B B B B x n M 0 n B B B B B B B N e =.=.=.",
"=.=.=.=.=.=.=.* n B B B B B B B B v < +.] s B B B B B B B B B m x b e t S B B B B B B B l =.=.=.",
"=.=.=.=.=.=.=.=.v B B B B B B B B n 2 ( , z B B B B B B B B B B m y q t S S B B B B B S w =.=.=.",
"=.=.=.=.=.=.=.% M B B B B B B B B c > g y z B B B B B B B B B B N 0 4 b S S S B B B B B e =.=.=.",
"=.=.=.=.=.=.=.$ v B B B B B B B B m 7 c v t B B B B B B B B B B S w = l S S S B B B B S w =.=.=.",
"=.=.=.=.=.=.=.=.r B B B B B B B B B 9 c x x N B B B B B B B B B S x * 8 z N B B B B B S 5 =.=.=.",
"=.=.=.=.=.=.=.=.8 S B B B B B B B S z t t x N B B B B B B B B B N q z z 0 q x N S S B m 0 =.=.=.",
"=.=.=.=.=.=.=.=.7 m S B B B B B B B N t 5 8 N B B B B B B B B B x 0 N S M b 0 0 z N S m $ =.=.=.",
"=.=.=.=.=.=.=.=.5 l S B B B B B B B B M 7 % b B S B B B B B M w 7 b S B B B N e 0 0 n q =.=.=.=.",
"=.=.=.=.=.=.=.=.=.8 S S B B B B B B B S l & 7 x m S N N N m t w m S B B B B S S M z 8 % . =.=.=.",
"=.=.=.=.=.=.=.=.=.= m B B B B B B B B S l 0 b 0 0 8 w t 8 8 e m S S B B B B B B B S M q $ =.=.=.",
"=.=.=.=.=.=.=.=.=.% 0 S B B B B B B S m 8 m B N n n x x m B S B B B B B B B B S S S S w =.=.=.=.",
"=.=.=.=.=.=.=.=.=.=.% b B B B B B B S t t N B B B B B S B B B B B B B B B B B S N b 7 $ =.=.=.=.",
"=.=.=.=.=.=.=.=.=.=.=.8 m S B B S S m q n S B B B B B B B B B B B B B B B S S N w * =.=.=.=.=.=.",
"=.=.=.=.=.=.=.=.=.=.=.# 4 m S S S B x w B B B B B B B B B B B B B B B B S m l 4 # =.=.=.=.=.=.=.",
"=.=.=.=.=.=.=.=.=.=.=.=.@ 7 N S S m 8 m B B B B B B B B B B B B B B B N x r =.=.=.=.=.=.=.=.=.=.",
"=.=.=.=.=.=.=.=.=.=.=.=.=.=.0 b B e 0 N B B B B B B B B B B B S B M t = O =.=.=.=.=.=.=.=.=.=.=.",
"=.=.=.=.=.=.=.=.=.=.=.=.=.=.=.; 8 0 b B B B B B B B B B S B N x 7 & # =.=.=.=.=.=.=.=.=.=.=.=.=.",
"=.=.=.=.=.=.=.=.=.=.=.=.=.=.=.=.O 7 N S S B S S N m m n w 4 * % =.=.=.=.=.=.=.=.=.=.=.=.=.=.=.=.",
"=.=.=.=.=.=.=.=.=.=.=.=.=.=.=.=.O 8 x w w x 8 7 0 w =.+ + =.=.=.=.=.=.=.=.=.=.=.=.=.=.=.=.=.=.=.",
"=.=.=.=.=.=.=.=.=.=.=.=.=.=.=.=.=.=.O =.=.=.+ =.=.=.=.=.=.=.=.=.=.=.=.=.=.=.=.=.=.=.=.=.=.=.=.=.",
"=.=.=.=.=.=.=.=.=.=.=.=.=.=.=.=.=.=.=.=.=.=.=.=.=.=.=.=.=.=.=.=.=.=.=.=.=.=.=.=.=.=.=.=.=.=.=.=."
};
