/* XPM */
static char *_0[] = {
/* columns rows colors chars-per-pixel */
"48 48 109 2 ",
"   c #1D0003",
".  c #230004",
"X  c #2E0005",
"o  c #350006",
"O  c #3B0007",
"+  c #450008",
"@  c #4A0009",
"#  c #53000A",
"$  c #5B000B",
"%  c #64000C",
"&  c #6C000D",
"*  c #74000E",
"=  c #7B000F",
"-  c #7F0010",
";  c #790815",
":  c #7C1B28",
">  c #6F2531",
",  c #762D39",
"<  c #7D3543",
"1  c #7E3C4B",
"2  c #7D404D",
"3  c #774855",
"4  c #785C67",
"5  c #736672",
"6  c #786572",
"7  c #7C6D79",
"8  c #840010",
"9  c #8B0011",
"0  c #940012",
"q  c #9D0013",
"w  c #9E061A",
"e  c #A30014",
"r  c #AB0015",
"t  c #AB0518",
"y  c #B30016",
"u  c #BC0017",
"i  c #BC0318",
"p  c #B10B1F",
"a  c #9F0F22",
"s  c #8E1C2B",
"d  c #901525",
"f  c #B50B21",
"g  c #BD0A21",
"h  c #A51225",
"j  c #A6192C",
"k  c #BE1E33",
"l  c #872432",
"z  c #9A2031",
"x  c #9F293C",
"c  c #AD2032",
"v  c #A92739",
"b  c #B72237",
"n  c #C10017",
"m  c #C90014",
"M  c #C40119",
"N  c #CC0019",
"B  c #D30016",
"V  c #D3001A",
"C  c #DB011B",
"Z  c #E60017",
"A  c #E3001C",
"S  c #EB001D",
"D  c #F4001D",
"F  c #FF001F",
"G  c #C20D23",
"H  c #C80C23",
"J  c #DD0822",
"K  c #CC162D",
"L  c #FF0020",
"P  c #8B3040",
"I  c #813948",
"U  c #A33243",
"Y  c #8C4352",
"T  c #945967",
"R  c #A66371",
"E  c #AA6877",
"W  c #7B7682",
"Q  c #737885",
"!  c #7A7884",
"~  c #7D7F8A",
"^  c #8C7D8A",
"/  c #7A8390",
"(  c #7D9CA7",
")  c #968A96",
"_  c #9397A5",
"`  c #9F9FAB",
"'  c #A89AA7",
"]  c #8AB4BF",
"[  c #A5A6B3",
"{  c #90B5C2",
"}  c #9FBAC6",
"|  c #9BBAC9",
" . c #A4B4C0",
".. c #A8B5C0",
"X. c #AEBAC6",
"o. c #ADBCC9",
"O. c #9BCBD7",
"+. c #A4CDDA",
"@. c #B6C5D1",
"#. c #ACD1DF",
"$. c #A7D0E0",
"%. c #ADD3E1",
"&. c #AAD9E6",
"*. c #A9DDEB",
"=. c #B0D8E5",
"-. c #BADEEB",
";. c #BAE6F4",
":. c #C1EAF7",
">. c None",
/* pixels */
">.>.>.>.>.>.>.>.>.>.>.>.>.>.>.>.>.>.>.0 e & >.>.>.>.>.>.>.>.>.>.>.>.>.>.>.>.>.>.>.>.>.>.>.>.>.>.",
">.>.>.>.>.>.>.>.>.>.>.>.>.>.>.>.>.8 e S L N u # >.>.>.>.>.>.>.>.>.>.>.>.>.>.>.>.>.>.>.>.>.>.>.>.",
">.>.>.>.>.>.>.>.>.>.>.>.>.>.>.>.X q L L L F D e >.>.>.>.>.>.>.>.>.>.>.>.>.>.>.>.>.>.>.>.>.>.>.>.",
">.>.>.>.>.>.>.>.>.>.>.>.>.>.>.>.>.% D L L L L D M % >.>.>.>.>.>.>.>.>.>.>.>.>.>.>.>.>.>.>.>.>.>.",
">.>.>.>.>.>.>.>.>.>.>.>.>.>.>.>.>.@ q L L L F L L N 8 o >.>.>.>.>.>.>.>.>.>.>.>.>.>.>.>.>.>.>.>.",
">.>.>.>.>.>.>.>.>.>.  >.>.>.>.>.>.>.$ A L F F L L L F e >.>.>.>.>.>.>.>.>.>.>.>.>.>.>.>.>.>.>.>.",
">.>.>.>.>.>.>.>.% = & @ >.>.>.>.>.>.>.8 F F F F F F F S V % >.>.>.>.>.>.>.>.>.>.>.>.>.>.>.>.>.>.",
">.>.>.>.>.>.>.& r D S $ >.>.>.>.>.>.>.# M F L L L L F F F N r @ >.>.>.>.>.>.>.>.>.>.>.>.>.>.>.>.",
">.>.>.>.>.>.@ A L F F e + >.>.>.>.>.>.>.& D C M n q r q r r u 8 $ >.>.>.>.>.>.>.>.>.>.>.>.>.>.>.",
">.>.>.>.>.>.= C L F F D % >.>.>.>.>.>.>.@ = 9 e 0 u y n r u r q $   >.>.>.>.>.>.>.>.>.>.>.>.>.>.",
">.>.>.>.>.>.O A F F F F n @ >.>.>.>.>.0 9 u S S L F F L F F F S C e & + >.>.>.>.>.>.>.>.>.>.>.>.",
">.>.>.>.>.>.% n L F F F F = >.>.>.>.y M F F F L L F F F F F F F F L D u = @ >.>.>.>.>.>.>.>.>.>.",
">.>.>.>.>.>.>.M F F F L F V + >.e M D L F F F F F F F F F F F F F F F F D e @ >.>.>.>.>.>.>.>.>.",
">.>.>.>.>.>.>.e F F F F F S 8 0 C F L L F F F F F F F F F F F F F F F F L F M & >.>.>.>.>.>.>.>.",
">.>.>.>.>.>.>.r F F F F C e n F L F F F F F F F F F F L F F F F F F F F F F L n 8 . >.>.>.>.>.>.",
">.>.>.>.>.>.>.9 F F L D u n D L F F F F F F F F F F F F F F F F F F F F F F F F V $ >.>.>.>.>.>.",
">.>.>.>.>.>.>.8 D F F y t S L F F F F F F F F F F F F F F F F F F F F F F F F F F M = >.>.>.>.>.",
">.>.>.>.>.>.>.& A F A y A L F F F F F F F F F F F F F F F F F F F F F F F F F F F L e >.>.>.>.>.",
">.>.>.>.>.>.>.@ S D e M F F F F F F F F F F F F F S D Z D D F F F F F F F F F F F F A 8 >.>.>.>.",
">.>.>.>.>.>.>.>.M V e D F F F F F F F F F F F C r x I Y < z f Z F F F F F F F F F F L r >.>.>.>.",
">.>.>.>.>.>.>.>.V y V L L F F F F F F F F S w 1 _ ] #.*.+.] ) l i D L F F F F F F F L S $ >.>.>.",
">.>.>.>.>.>.>.>.8 q S L F F F F F F F F Z a ^ +.+.@.' [ X.-.;.| 5 p D L F F F F F F F F 0 o >.>.",
">.>.>.>.>.>.>.>.* r F F F F F F F F F F h Q O.} E k K H b R } +./ > r L F F F F F F F F V >.>.>.",
">.>.>.>.>.>.>.>.O M F F F F F F F F F m 3 %.X.U B D F F F C v , j H 0 A F F F F F F F L V 0 >.>.",
">.>.>.>.>.>.>.>.+ C L F F F F F F F D d ( =.T C F F F F F F S y C A N q F F F F F F F F F * >.>.",
">.>.>.>.>.>.>.>.# S F F F F F F F F Z 3 #.X.c D F F F F F F F D M H C e C F L F F F F F D y >.>.",
">.>.>.>.>.>.>.>.; S F F F F F F F F B 4 ;.` H F F F F F F F F F S V t q A L L F F F F L L 0 >.>.",
">.>.>.>.>.>.>.>.* D F F F F F F F F m ! :.) G F F F F F F F F F F S e = V F L L F F F F L y >.>.",
">.>.>.>.>.>.>.>.= S F F F F F F F F M 7 &.7 i F F F F F F F F F L F V & 0 C S F L F F F F q >.>.",
">.>.>.>.>.>.>.>.= S F F F F F F F F C 6 ) : y F F F F F F F F F F F D 9 q e e r n S S F F e >.>.",
">.>.>.>.>.>.>.>.$ C F F F F F F F F Z s l A t D F F F F F F F F F F V 0 D L C M e 0 e r N = >.>.",
">.>.>.>.>.>.>.>.>.M F F F F F F F F F e i C M C F F F F F F F F L L i u L L L F L S V u e & . >.",
">.>.>.>.>.>.>.>.>.n F F F F F F F F L C e V i C F F F F F F F F F n 0 S F F F F F F L F L C 9 >.",
">.>.>.>.>.>.>.>.>.& F F F F F F F F F L i y e y D L F F F F F F C r V L F F F F F F L L L y # >.",
">.>.>.>.>.>.>.>.>.& M F F F F F F F F F D V 9 & u F L F L D D N e u D L F F F F F F L D u * >.>.",
">.>.>.>.>.>.>.>.>.>.q F F F F F F F F F L F V = & y i V y n e e A L F L F F F F F F L n % >.>.>.",
">.>.>.>.>.>.>.>.>.>.9 u L F F F F F F F L L L q t n y e u M V F L F F F F F F F L F r # >.>.>.>.",
">.>.>.>.>.>.>.>.>.>.>.9 S L F F F F F F F L S q A F F F F F F F F F F F F F F F A r 9 >.>.>.>.>.",
">.>.>.>.>.>.>.>.>.>.>.>.r L F F F F F F F L C r D F F F F F F F F F F F F F F S t >.>.>.>.>.>.>.",
">.>.>.>.>.>.>.>.>.>.>.>.& M L F F F F F F F n u F F F F F F F F F F F F F F V %   >.>.>.>.>.>.>.",
">.>.>.>.>.>.>.>.>.>.>.>.>.% C F F F F F F F e C F F F F F F F F F F F L D q @ >.>.>.>.>.>.>.>.>.",
">.>.>.>.>.>.>.>.>.>.>.>.>.>.e u L F F F F S e A L F F F F F F F F F F n * $ >.>.>.>.>.>.>.>.>.>.",
">.>.>.>.>.>.>.>.>.>.>.>.>.>.>.$ y S L L L V q D F F F F F F F F F N 8 $ >.>.>.>.>.>.>.>.>.>.>.>.",
">.>.>.>.>.>.>.>.>.>.>.>.>.>.>.>.# 9 C D L u y F F F F F L F S V = @ >.>.>.>.>.>.>.>.>.>.>.>.>.>.",
">.>.>.>.>.>.>.>.>.>.>.>.>.>.>.>.>.>.>.8 y q N F L F F F M y >.O o >.>.>.>.>.>.>.>.>.>.>.>.>.>.>.",
">.>.>.>.>.>.>.>.>.>.>.>.>.>.>.>.>.>.>.>.@ % C L C N r * 8 >.>.>.>.>.>.>.>.>.>.>.>.>.>.>.>.>.>.>.",
">.>.>.>.>.>.>.>.>.>.>.>.>.>.>.>.>.>.>.>.>.@ e = = >.>.>.>.>.>.>.>.>.>.>.>.>.>.>.>.>.>.>.>.>.>.>.",
">.>.>.>.>.>.>.>.>.>.>.>.>.>.>.>.>.>.>.>.>.>.>.>.>.>.>.>.>.>.>.>.>.>.>.>.>.>.>.>.>.>.>.>.>.>.>.>."
};
