/* XPM */
static char *_7[] = {
/* columns rows colors chars-per-pixel */
"48 48 111 2 ",
"   c #040000",
".  c #1A0003",
"X  c #220004",
"o  c #320006",
"O  c #3B0007",
"+  c #440008",
"@  c #4C0009",
"#  c #55000A",
"$  c #5C000B",
"%  c #65000C",
"&  c #6C000D",
"*  c #74000E",
"=  c #7A000F",
"-  c #7F0010",
";  c #7C2937",
":  c #7A2C39",
">  c #65414C",
",  c #764653",
"<  c #7B5663",
"1  c #6E6672",
"2  c #69717B",
"3  c #840110",
"4  c #8C0011",
"5  c #830816",
"6  c #940012",
"7  c #9B0013",
"8  c #A40014",
"9  c #AC0015",
"0  c #A60519",
"q  c #A90519",
"w  c #A20C1F",
"e  c #AE081D",
"r  c #B40016",
"t  c #BB0017",
"y  c #B5051B",
"u  c #BD0419",
"i  c #BD081F",
"p  c #891122",
"a  c #821F2C",
"s  c #BA0A20",
"d  c #AF1126",
"f  c #AE1529",
"g  c #882F3E",
"h  c #9C2436",
"j  c #992738",
"k  c #C10017",
"l  c #CD0015",
"z  c #C30118",
"x  c #CC0119",
"c  c #C7081F",
"v  c #D4001A",
"b  c #DC001B",
"n  c #E90017",
"m  c #E3001B",
"M  c #ED001D",
"N  c #F4001E",
"B  c #FF001F",
"V  c #CA0720",
"C  c #C20E26",
"Z  c #C80E25",
"A  c #DA0620",
"S  c #FF0020",
"D  c #8D3040",
"F  c #893B4A",
"G  c #A42D40",
"H  c #B62E41",
"J  c #A73041",
"K  c #B43447",
"L  c #C23045",
"P  c #A84555",
"I  c #895160",
"U  c #975B68",
"Y  c #AE5A6A",
"T  c #836E79",
"R  c #9D6572",
"E  c #8F707B",
"W  c #7F7480",
"Q  c #7B7B87",
"!  c #717D88",
"~  c #867684",
"^  c #8F7E89",
"/  c #7F8591",
"(  c #858D99",
")  c #8E8D99",
"_  c #928998",
"`  c #82939E",
"'  c #9495A3",
"]  c #91A0AF",
"[  c #9FA8B5",
"{  c #8CB0BC",
"}  c #99B4C4",
"|  c #9DBFCD",
" . c #ACBAC6",
".. c #99C1CD",
"X. c #96C6D2",
"o. c #9DCFDC",
"O. c #ACC7D3",
"+. c #A5CAD7",
"@. c #AEC8D4",
"#. c #A0CCD9",
"$. c #B1C9D6",
"%. c #A2D1DE",
"&. c #A5D1E0",
"*. c #B5DEEC",
"=. c #BEDDEA",
"-. c #BCE2EF",
";. c #AFE3F2",
":. c #BDE3F0",
">. c #BBE8F5",
",. c #C4E9F6",
"<. c None",
/* pixels */
"<.<.<.<.<.<.<.<.<.<.<.<.<.<.<.<.<.<.<.<.<.<.<.<.<.<.<.<.<.<.<.<.<.<.<.<.<.<.<.<.<.<.<.<.<.<.<.<.",
"<.<.<.<.<.<.<.<.<.<.<.<.<.<.& @ <.<.<.<.<.<.<.<.<.<.<.<.<.<.<.<.<.<.<.<.<.<.<.<.<.<.<.<.<.<.<.<.",
"<.<.<.<.<.<.<.<.<.<.<.<.<.4 z v t 3 % <.<.<.<.<.<.<.<.<.<.<.<.<.<.<.<.<.<.<.<.<.<.<.<.<.<.<.<.<.",
"<.<.<.<.<.<.<.<.<.<.<.<.4 z S S B M t 6 @ <.<.<.<.<.<.<.<.<.<.<.<.<.<.<.<.<.<.<.<.<.<.<.<.<.<.<.",
"<.<.<.<.<.<.<.<.<.<.<.o 8 S S S S S S B t 7 @ <.<.<.<.<.<.<.<.<.<.<.<.<.<.<.<.<.<.<.<.<.<.<.<.<.",
"<.<.<.<.<.<.<.<.<.<.<.<.$ b S S B B S S S S m t 4 # <.<.<.<.<.<.<.<.<.<.<.<.<.<.<.<.<.<.<.<.<.<.",
"<.<.<.<.<.<.<.<.<.<.<.<.<.% b S B B B B B B S B N r 7 % <.<.<.<.<.<.<.<.<.<.<.<.<.<.<.<.<.<.<.<.",
"<.<.<.<.<.<.<.<.<.<.<.<.<.<.% m S B B B S S N m b t t 4 # . <.  <.<.<.<.<.<.<.<.<.<.<.<.<.<.<.<.",
"<.<.<.<.<.<.<.<.<.<.<.<.<.<.<.% m B S B M r 8 3 7 7 r t r 8 4 & 3 o <.<.<.<.<.<.<.<.<.<.<.<.<.<.",
"<.<.<.<.<.<.X <.<.<.<.<.<.<.<.<.& m m 8 6 7 z b M B B B S S B B M t 8 @ <.<.<.<.<.<.<.<.<.<.<.<.",
"<.<.<.<.<.& 7 # <.<.<.<.<.<.<.<.<.% * r z B B S B B B B B B B S B S N m 6 <.X <.<.<.<.<.<.<.<.<.",
"<.<.<.<.& v B t # <.<.<.<.<.<.<.<.= v B B B B B B B B B B B B B B B S S N v = @ <.<.<.<.<.<.<.<.",
"<.<.<.$ b S S B t + <.<.<.<.<.<.8 m S S B B B B B B B B B B B B B B B B B B B 8 3 <.<.<.<.<.<.<.",
"<.<.<.& N S B B B r @ <.<.<.<.t M S B B B B S B B B B B B B B B B B B B B B B S 9 3 <.<.<.<.<.<.",
"<.<.<.$ v B B B B B r @ <.<.r N S B B B B B B B B B B B B B B B B B B B B B B B B 9 * <.<.<.<.<.",
"<.<.<.X 6 B B B B B B 7 # 7 M S B B B B B B B B B B B B B B B B B B B B B B B B B B 4 + <.<.<.<.",
"<.<.<.<.4 b S B B B B x 6 M B B B S B B B B B B B B B B B B B B B B B B B B B B B B N % <.<.<.<.",
"<.<.<.<.<.z S B B B m 8 m B B B B B B B B B B S B B N N N N N B B B B B B B B B B B B v <.<.<.<.",
"<.<.<.<.<.7 N S B B v r N B B B B B B B B B S N m d h : F g w x n B B B B B B B B B B m 7 <.<.<.",
"<.<.<.<.<.= m S S N 7 x B B B B B B B B S S M 0 I / ..+.+...] 1 h z B B B B B B B B B B z # <.<.",
"<.<.<.<.<.O 9 S S b r N B B B B B B B B B m p _ X.-.O. .$.-.;.{ > 5 k B B B B B B B B B M 9 <.<.",
"<.<.<.<.<.<.6 M S r r S B B B B B B B B n p ' &. .Y K f L P E g C m 7 z S B S B B B B B B 7 <.<.",
"<.<.<.<.<.<.o v B 9 b B B B B B B B B B t ~ o.[ H b B B B n x q v b b 7 b S S B B B B B B v <.<.",
"<.<.<.<.<.<.<.8 b 8 M S B B B B B B S N ; { $.J b B B B B B B N v c i 8 x S S S B B B B B b # <.",
"<.<.<.<.<.<.<.6 v 9 N B B B B B B B B l < *._ Z B B B B B B B B N M u 3 6 N B B B B S S B B 4 <.",
"<.<.<.<.<.<.<.% 3 9 N B B B B B B B B y 2 -.R n B B B B B B B B B B N 6 * 7 r y r 9 t t r z % . ",
"<.<.<.<.<.<.<.<.$ 7 B B B B B B B B B e ` -.U n B B B B B B B B B B S M 3 r z z z t 9 r r r 7 * ",
"<.<.<.<.<.<.<.<.X 4 B B B B B B B B B q ( ,.E b B B B B B B B B B B S M 6 m S S B S B B B B S r ",
"<.<.<.<.<.<.<.<.<.5 B B B B B B B B B c / -.) C B B B B B B B B B B B m 8 M S B B B B B B S b & ",
"<.<.<.<.<.<.<.<.<.$ N B B B B B B B B b , %.2 7 B B B B B B B B B B S x 7 B B B B B B B S N r <.",
"<.<.<.<.<.<.<.<.<.5 m B B B B B B B B N J 2 j 9 k B B B B B B B B S M 9 v S B B B B B B S b @ <.",
"<.<.<.<.<.<.<.<.<.+ t B B B B B B B B B l a i m u m B B B B B B B B v 9 m S B B B B B S N = <.<.",
"<.<.<.<.<.<.<.<.<.<.r N B B B B B B B S B 8 9 v z v N S B B B B B b 7 v S B B B B B S N 9 <.<.<.",
"<.<.<.<.<.<.<.<.<.<.% M B B B B B B B B B N 9 u 9 8 x S B B S b x 6 b B B B B B B B N x <.<.<.<.",
"<.<.<.<.<.<.<.<.<.<.% r B B B B B B B B B B B z 9 = $ r v t r 8 r m B B B B B B B B b & <.<.<.<.",
"<.<.<.<.<.<.<.<.<.<.<.z M B B B B B B B B B B B N z = 3 8 r t m N B B B B B B B B N * X <.<.<.<.",
"<.<.<.<.<.<.<.<.<.<.<.O 9 S B B B B B B B B B B B B q x B B B B S B B B B B B B N 5 O <.<.<.<.<.",
"<.<.<.<.<.<.<.<.<.<.<.<.& x S B B B B B B B B B B B 7 v B B B B B B B B B S B B 6 # <.<.<.<.<.<.",
"<.<.<.<.<.<.<.<.<.<.<.<.<.4 v S B B B B B B B B B B r v B B B B B B B B B S B 4 $ <.<.<.<.<.<.<.",
"<.<.<.<.<.<.<.<.<.<.<.<.<.<.6 v S B B B B S B B B B r x B B B B B B B B B M 4 # <.<.<.<.<.<.<.<.",
"<.<.<.<.<.<.<.<.<.<.<.<.<.<.<.6 v S S B B B B B B B 9 v B B B B B B B B m * @ <.<.<.<.<.<.<.<.<.",
"<.<.<.<.<.<.<.<.<.<.<.<.<.<.<.<.- v B B B B B B B B 9 v S B B B B S M v $ O <.<.<.<.<.<.<.<.<.<.",
"<.<.<.<.<.<.<.<.<.<.<.<.<.<.<.<.<.# r b S B S B B B 9 t B B B B S b t <.<.<.<.<.<.<.<.<.<.<.<.<.",
"<.<.<.<.<.<.<.<.<.<.<.<.<.<.<.<.<.<.<.6 8 m N B S B 9 z B B B B z 4 <.<.<.<.<.<.<.<.<.<.<.<.<.<.",
"<.<.<.<.<.<.<.<.<.<.<.<.<.<.<.<.<.<.<.<.o & 6 z t b 7 v S B x 8 + <.<.<.<.<.<.<.<.<.<.<.<.<.<.<.",
"<.<.<.<.<.<.<.<.<.<.<.<.<.<.<.<.<.<.<.<.<.<.<.<.@ & @ r m 6 6 <.<.<.<.<.<.<.<.<.<.<.<.<.<.<.<.<.",
"<.<.<.<.<.<.<.<.<.<.<.<.<.<.<.<.<.<.<.<.<.<.<.<.<.<.X = @ <.<.<.<.<.<.<.<.<.<.<.<.<.<.<.<.<.<.<.",
"<.<.<.<.<.<.<.<.<.<.<.<.<.<.<.<.<.<.<.<.<.<.<.<.<.<.<.<.<.<.<.<.<.<.<.<.<.<.<.<.<.<.<.<.<.<.<.<."
};
