/* XPM */
static char *_59[] = {
/* columns rows colors chars-per-pixel */
"32 32 113 2 ",
"   c #1D2427",
".  c #1F272B",
"X  c #273236",
"o  c #323E43",
"O  c #37454A",
"+  c #404040",
"@  c #4D4D4D",
"#  c #405057",
"$  c #44555C",
"%  c #4A595F",
"&  c #545353",
"*  c #5E5E5E",
"=  c #5F6A6F",
"-  c #526770",
";  c #596C75",
":  c #596F78",
">  c #5C727C",
",  c #646464",
"<  c #6A6A6A",
"1  c #767676",
"2  c #767778",
"3  c #767C7E",
"4  c #7B7B7B",
"5  c #617781",
"6  c #667E89",
"7  c #717F85",
"8  c #67808B",
"9  c #6A838E",
"0  c #7F8385",
"q  c #70848D",
"w  c #7B868B",
"e  c #7E8A8F",
"r  c #778D96",
"t  c #7C8C93",
"y  c #728D99",
"u  c #76939F",
"i  c #7E9BA6",
"p  c #858585",
"a  c #8A8A8A",
"s  c #908F8F",
"d  c #838E92",
"f  c #839096",
"g  c #8F9496",
"h  c #81969F",
"j  c #8C969A",
"k  c #939393",
"l  c #939B9E",
"z  c #9B9B9B",
"x  c #839BA5",
"c  c #999FA2",
"v  c #84A1AE",
"b  c #9AA1A4",
"n  c #85A5B2",
"m  c #8BA9B6",
"M  c #8AABB8",
"N  c #8EB0BE",
"B  c #90B1BF",
"V  c #A3A5A5",
"C  c #A3A7A9",
"Z  c #A3A9AB",
"A  c #ACACAC",
"S  c #ABAEB0",
"D  c #ADB1B3",
"F  c #B3B4B5",
"G  c #B4B6B8",
"H  c #BBBCBC",
"J  c #8FB2C0",
"K  c #90B3C2",
"L  c #95B8C7",
"P  c #95BAC9",
"I  c #AEBFC6",
"U  c #9DC3D3",
"Y  c #A0C7D8",
"T  c #A4CDDD",
"R  c #BCCCD2",
"E  c #A7D0E2",
"W  c #ABD4E5",
"Q  c #ACD7E9",
"!  c #AFD9EB",
"~  c #B0D4E3",
"^  c #B2DDEF",
"/  c #B3DFF1",
"(  c #B4E0F2",
")  c #BAE0F0",
"_  c #C4C4C4",
"`  c #CDCDCD",
"'  c #C3D0D6",
"]  c #C6D6DC",
"[  c #CBD5D9",
"{  c #D2D3D3",
"}  c #D9D9D9",
"|  c #E0DFDF",
" . c #D6DEE2",
".. c #C7E0EA",
"X. c #DDE2E4",
"o. c #C2E4F2",
"O. c #C9E7F3",
"+. c #D8EEF7",
"@. c #DDF0F8",
"#. c #E2E2E2",
"$. c #E8E8E7",
"%. c #E5E7E8",
"&. c #EBEBEB",
"*. c #F0EFEF",
"=. c #E2EDF2",
"-. c #EDF1F3",
";. c #E2F2F9",
":. c #EBF5FA",
">. c #F2F2F2",
",. c #F8F7F7",
"<. c #F5FAFB",
"1. c #FEFEFE",
"2. c None",
/* pixels */
"2.2.2.2.2.2.2.2.2.2.2.2.2.2.2.2.2.% _ k 2.2.2.2.2.2.2.2.2.2.2.2.",
"2.2.2.2.2.2.2.2.2.2.2.2.2.2.2.2.# w *.-.< 2.2.2.2.2.2.2.2.2.2.2.",
"2.2.2.2.2.2.2.2.2.2.2.2.2.2.2.2.5 G 1.&., 2.2.2.2.2.2.2.2.2.2.2.",
"2.2.2.2.2.2.2.2.2.2.2.2.2.2.2.- t &.1.` 2.2.2.2.2.2.2.2.2.2.2.2.",
"2.2.2.2.2.2.2.2.2.2.2.2.2.2.  6 A 1.1.V 2.2.2.2.2.2.2.2.2.2.2.2.",
"2.2.2.2.2.2.^ ^ ! ! ^ ^ 2.2.< 0 $.1.<.4 2.2.2.2.2.2.2.2.2.2.2.2.",
"2.2.2.2.2.^ ^ ) ) o.) ^ Q I a { 1.1.$.@ 2.2.2.2.2.2.2.2.2.2.2.2.",
"2.2.2.2.^ / o.+.;.:.;...R ,.#.a ` 1._ 2.2.2.2.2.2.2.2.2.2.2.2.2.",
"2.2.2.2.^ / +.:.<.<.=.' >.1.1.$.s _ z 2.2.2.2.2.2.2.2.2.2.2.2.2.",
"2.2.2.2.2.) ;.<.1.-.' -.1.1.1.1.*.k + 2.2.2.2.2.2.2.2.2.2.2.2.2.",
"2.2.2.2.2.) ;.<.<.[ &.1.<.<.1.1.1.>.z 2.2.2.2.2.2.2.2.2.2.2.2.2.",
"2.2.2.2.2.^ +.:.[ &.&.l j d C >.1.1.<.A 2.2.2.2.2.2.2.2.2.2.2.2.",
"2.2.2.2.2.^ O.] X.1.#.r E E v k >.1.1.1.G 2.2.2.2.2.2.2.2.2.2.2.",
"2.2.2.2.2.( ~  .1.1.$.h / ^ / M d $.1.1.1._ 2.2.2.2.2.2.2.2.2.2.",
"2.2.2.2.2.i R 1.1.1.>.t E ( ^ / K e #.1.1.1.` * 2.2.2.2.2.2.2.2.",
"2.2.2.2.2.2 z } 1.1.1.` r T ( ^ / P e #.1.1.1.} < 2.2.2.2.2.2.2.",
"2.2.2.% 6 p } k ` 1.1.1.{ t Y ^ ^ / U t } 1.1.1.#.2 2.2.2.2.2.2.",
"2.. - 9 b $.1.&.k H 1.1.1.X.d U / ^ / T r { 1.1.1.$.2 2.2.2.2.2.",
"X ; d ` 1.1.1.1.$.2 A 1.1.1.$.f P / ^ / T d ,.1.1.$.t o 2.2.2.2.",
"3 G >.1.1.1.$.A 2 2.2.G 1.1.1.>.j N / / ! f >.1.>.l U u 2.2.2.2.",
"k >.1.*._ a @ 2.2.2.2.2.A <.1.1.>.b n U L 7 &.<.b L / Y O 2.2.2.",
"2.7 V < 2.2.2.2.2.2.2.2.2.z >.1.1.<.F c Z H >.Z B / ^ ^ > 2.2.2.",
"2.2.2.2.2.2.2.2.2.2.2.2.2.2.k >.1.1.1.1.1.1.D m / ^ ^ / y 2.2.2.",
"2.2.2.2.2.2.2.2.2.2.2.2.2.2.2.p $.1.1.1.1.H v ^ ^ ^ ^ / y 2.2.2.",
"2.2.2.2.2.2.2.2.2.2.2.2.2.2.2.2.2 #.1.1._ x ! / ^ ^ ^ ! : 2.2.2.",
"2.2.2.2.2.2.2.2.2.2.2.2.2.2.2.2.2.< } { x Q / ^ ^ ^ ( K 2.2.2.2.",
"2.2.2.2.2.2.2.2.2.2.2.2.2.2.2.2.2.2.& ; U / ( ( ( / P $ 2.2.2.2.",
"2.2.2.2.2.2.2.2.2.2.2.2.2.2.2.2.2.2.2.2.# 6 v M n 9 o 2.2.2.2.2.",
"2.2.2.2.2.2.2.2.2.2.2.2.2.2.2.2.2.2.2.2.2.2.2.2.2.2.2.2.2.2.2.2.",
"2.2.2.2.2.2.2.2.2.2.2.2.2.2.2.2.2.2.2.2.2.2.2.2.2.2.2.2.2.2.2.2.",
"2.2.2.2.2.2.2.2.2.2.2.2.2.2.2.2.2.2.2.2.2.2.2.2.2.2.2.2.2.2.2.2.",
"2.2.2.2.2.2.2.2.2.2.2.2.2.2.2.2.2.2.2.2.2.2.2.2.2.2.2.2.2.2.2.2."
};
