/* XPM */
static char *_78[] = {
/* columns rows colors chars-per-pixel */
"32 32 109 2 ",
"   c #2B2B2B",
".  c #2E393E",
"X  c #323F44",
"o  c #39454B",
"O  c #3A484F",
"+  c #3C4B51",
"@  c #494949",
"#  c #474E51",
"$  c #415157",
"%  c #43545C",
"&  c #535353",
"*  c #5C5C5C",
"=  c #495A61",
"-  c #4F626A",
";  c #546972",
":  c #5A6F78",
">  c #5C727C",
",  c #616161",
"<  c #666B6D",
"1  c #6B6C6C",
"2  c #737373",
"3  c #777878",
"4  c #7D7D7D",
"5  c #607781",
"6  c #687980",
"7  c #697F88",
"8  c #6E858F",
"9  c #72848B",
"0  c #7B898F",
"q  c #6F8A95",
"w  c #7A8B92",
"e  c #76939E",
"r  c #7E9CA9",
"t  c #848484",
"y  c #818789",
"u  c #84898B",
"i  c #828E94",
"p  c #8B9397",
"a  c #8C969A",
"s  c #949494",
"d  c #90979A",
"f  c #909A9F",
"g  c #999A9A",
"h  c #8097A0",
"j  c #849CA6",
"k  c #8B9CA3",
"l  c #839EAA",
"z  c #929FA4",
"x  c #999EA0",
"c  c #83A1AE",
"v  c #88A1AC",
"b  c #9AA2A5",
"n  c #87A6B4",
"m  c #88A7B5",
"M  c #8DAEBC",
"N  c #A2A2A2",
"B  c #A1A7A9",
"V  c #A4A9AA",
"C  c #AFAFAF",
"Z  c #A9AFB1",
"A  c #AEB1B2",
"S  c #B2B2B2",
"D  c #B7BABB",
"F  c #BBBBBB",
"G  c #91B4C3",
"H  c #94B8C7",
"J  c #96BBCB",
"K  c #98BECD",
"L  c #9DC3D3",
"P  c #A0C7D7",
"I  c #A2CADB",
"U  c #AFCEDB",
"Y  c #A6CFE0",
"T  c #A7D1E2",
"R  c #ABD4E5",
"E  c #ADD7E9",
"W  c #AFDAEC",
"Q  c #B2DDEF",
"!  c #B8DEED",
"~  c #B3DFF1",
"^  c #B5E0F2",
"/  c #C3C4C4",
"(  c #C7C8C8",
")  c #CCCCCC",
"_  c #C6D2D7",
"`  c #C5D5DB",
"'  c #CCD5D9",
"]  c #CCD8DD",
"[  c #D4D4D4",
"{  c #DDDDDD",
"}  c #C8D9E0",
"|  c #DDE4E7",
" . c #C3E4F2",
".. c #CDE9F5",
"X. c #D0EAF5",
"o. c #DEEEF5",
"O. c #DFF2F9",
"+. c #E4E4E4",
"@. c #E8E7E7",
"#. c #E3E8E9",
"$. c #EBECEC",
"%. c #EEF0F1",
"&. c #E2F2F9",
"*. c #EAF5FA",
"=. c #F4F4F4",
"-. c #F8F8F7",
";. c #F5FAFC",
":. c #FEFEFE",
">. c None",
/* pixels */
">.>.>.>.>.>.>.>.>.>.>.>.>.>.>.>.>.>.>.>.>.>.>.>.>.>.>.>.>.>.>.>.",
">.>.>.>.>.>.>.* 4 2 @ >.>.>.>.>.>.>.>.>.>.>.>.>.>.>.>.>.>.>.>.>.",
">.>.>.>.>.>.>.# / :./ >.>.>.>.>.>.>.>.>.>.>.>.>.>.>.>.>.>.>.>.>.",
">.>.>.>.>.>.>.% b :.=.1 >.>.>.>.>.>.>.>.>.>.>.>.>.>.>.>.>.>.>.>.",
">.>.>.>.>.>.>.% i -.:.S >.>.>.>.>.>.>.>.>.>.>.>.>.>.>.>.>.>.>.>.",
">.>.>.>.>.>.>.+ 9 +.:.+.& >.>.>.>.>.>.>.>.>.>.>.>.>.>.>.>.>.>.>.",
">.>.>.>.>.>.>.. 8 ) :.:.g >.>.>.>.>.>.>.>.>.>.>.>.>.>.>.>.>.>.>.",
">.>.>.>.>.>.>.>.> V :.:.[ >.>.>.>.>.>.>.>.>.>.>.>.>.>.>.>.>.>.>.",
">.>.>.>.>.>.>.>.< ( -.:.:.t >.>.>.>.>.>.>.>.>.>.>.>.>.>.>.>.>.>.",
">.>.>.>.>.>.>.G y s s s g 2   >.>.>.>.>.>.>.>.>.>.>.>.>.>.>.>.>.",
">.>.>.>.>.>.Q R | -.=.$.+.{ [ ) / F S N g s t 3 2 @ >.>.>.>.>.>.",
">.>.>.>.W Q ^ U #.:.:.:.:.:.:.:.:.:.:.:.:.:.:.-.=.V q ; >.>.>.>.",
">.>.>.Q Q ..O.} $.:.:.:.:.:.:.:.:.:.:.:.:.:.:.:.:.Z L E c o >.>.",
">.>.Q ~ ..*.;.] %.:.=.B d x B A F ) [ +.@.=.:.:.:.B I ~ ~ G o >.",
">.Q Q  .&.;.;.' =.$.a n L K H M n n l j r w / :.:.b Y ~ ~ ^ r >.",
">.~ Q ..*.:.;.] -.g n ~ ^ ^ ~ ^ ~ ~ ~ ~ ~ T w [ ;.b R Q Q ~ I + ",
">.>.Q  .&.;.;.[ :.{ w I ^ ^ ~ ~ ~ ~ ~ Q ~ ^ G y =.k E ~ ~ ~ R - ",
">.>.>.Q ..*.*._ :.:.[ w c m M H J L I I R J 0 { =.k W W W ~ T = ",
">.>.>.>.~ X.o._ :.:.:.$.[ ) / D A B b f a p { :.$.k ~ ~ ~ ^ H >.",
">.>.>.>.>.~ Q ` :.:.:.:.:.:.:.:.:.:.:.:.:.:.:.:.@.k ~ ~ ~ R > >.",
">.>.>.>.>.>.Q ` =.:.-.:.:.:.:.:.:.:.:.:.:.:.:.:.{ l ~ Q I 5 >.>.",
">.>.>.>.>.>.>.y g s s s s N F / ) [ +.+.$.=.=.:.[ l L r + >.>.>.",
">.>.>.>.>.>.>.< ) =.%.@.4 >.>.>.>.>.>.>., 1 3 t 3 o >.>.>.>.>.>.",
">.>.>.>.>.>.O 7 ) :.:.[ >.>.>.>.>.>.>.>.>.>.>.>.>.>.>.>.>.>.>.>.",
">.>.>.>.>.>.; i =.:.=.3 >.>.>.>.>.>.>.>.>.>.>.>.>.>.>.>.>.>.>.>.",
">.>.>.>.>.>.> Z :.:.S >.>.>.>.>.>.>.>.>.>.>.>.>.>.>.>.>.>.>.>.>.",
">.>.>.>.>.. 6 { :.+.* >.>.>.>.>.>.>.>.>.>.>.>.>.>.>.>.>.>.>.>.>.",
">.>.>.>.>.X i :.:.g >.>.>.>.>.>.>.>.>.>.>.>.>.>.>.>.>.>.>.>.>.>.",
">.>.>.>.>.* F =.) >.>.>.>.>.>.>.>.>.>.>.>.>.>.>.>.>.>.>.>.>.>.>.",
">.>.>.>.>.>.& * @ >.>.>.>.>.>.>.>.>.>.>.>.>.>.>.>.>.>.>.>.>.>.>.",
">.>.>.>.>.>.>.>.>.>.>.>.>.>.>.>.>.>.>.>.>.>.>.>.>.>.>.>.>.>.>.>.",
">.>.>.>.>.>.>.>.>.>.>.>.>.>.>.>.>.>.>.>.>.>.>.>.>.>.>.>.>.>.>.>."
};
