/* XPM */
static char *_2[] = {
/* columns rows colors chars-per-pixel */
"32 32 108 2 ",
"   c #181B1C",
".  c #22292C",
"X  c #263034",
"o  c #2D363A",
"O  c #3B3B3B",
"+  c #323E43",
"@  c #39484E",
"#  c #484848",
"$  c #47565C",
"%  c #5A5A5A",
"&  c #495A62",
"*  c #535E62",
"=  c #53676F",
"-  c #5A6F78",
";  c #5C727C",
":  c #646464",
">  c #6C6C6C",
",  c #687175",
"<  c #64767E",
"1  c #737373",
"2  c #747C7F",
"3  c #7B7B7B",
"4  c #637B85",
"5  c #667E88",
"6  c #7C8487",
"7  c #718289",
"8  c #7D8A8F",
"9  c #708B96",
"0  c #7B8C93",
"q  c #7F949D",
"w  c #7F98A2",
"e  c #7F9EAB",
"r  c #848484",
"t  c #8B8C8C",
"y  c #818D92",
"u  c #859094",
"i  c #8C9092",
"p  c #84949C",
"a  c #8D9699",
"s  c #8F9A9F",
"d  c #949494",
"f  c #969B9D",
"g  c #9C9C9C",
"h  c #849BA5",
"j  c #8C9CA2",
"k  c #829EAA",
"l  c #999FA2",
"z  c #83A1AE",
"x  c #88A2AD",
"c  c #96A1A5",
"v  c #9BA1A3",
"b  c #96A2A8",
"n  c #87A6B3",
"m  c #8BA9B6",
"M  c #8EB0BF",
"N  c #A3A3A3",
"B  c #A1A8AB",
"V  c #ACADAD",
"C  c #A9AEB0",
"Z  c #ADB2B4",
"A  c #B3B4B5",
"S  c #BBBCBD",
"D  c #91B4C2",
"F  c #97BBCA",
"G  c #99BECE",
"H  c #9DC4D4",
"J  c #B7C1C5",
"K  c #BEC1C2",
"L  c #A0C7D8",
"P  c #A2CADA",
"I  c #A6CFE0",
"U  c #A7D0E2",
"Y  c #AAD3E4",
"T  c #ACD6E8",
"R  c #AFD9EB",
"E  c #B9D6E2",
"W  c #B2DDEF",
"Q  c #B3DEF1",
"!  c #B4E0F2",
"~  c #BCE1F1",
"^  c #C4C4C5",
"/  c #CDCDCE",
"(  c #CAD5D9",
")  c #CBD9DF",
"_  c #D3D3D3",
"`  c #D2D9DC",
"'  c #DCDCDC",
"]  c #CFDFE5",
"[  c #D3DFE4",
"{  c #D9DFE2",
"}  c #D1E7EF",
"|  c #C5E5F3",
" . c #C9E7F4",
".. c #CAE8F4",
"X. c #D6EDF6",
"o. c #DBEFF7",
"O. c #E4E3E3",
"+. c #E2E7E9",
"@. c #EBEBEB",
"#. c #E6F2F6",
"$. c #E6F4F9",
"%. c #EAF6FA",
"&. c #F3F3F3",
"*. c #F8F7F7",
"=. c #F8F8F7",
"-. c #F5FAFB",
";. c #FEFEFE",
":. c None",
/* pixels */
":.:.:.:.:.:.:.:.:.:.:.:.:.:.:.:.& $ + :.:.:.:.:.:.:.:.:.:.:.:.:.",
":.:.:.:.:.:.:.:.:.:.:.:.:.:.4 F U T L 9 :.:.:.:.:.:.:.:.:.:.:.:.",
":.:.:.:.:.:.:.:.:.:.:.:.:.9 W W W Q W W e :.:.:.:.:.:.:.:.:.:.:.",
":.:.:.:.:.:.:.:.:.:.:.:.; T W W W W W W W 5 :.:.:.:.:.:.:.:.:.:.",
":.:.:.:.:.:.:.:.:.:.:.:.G Q Q Q Q W W W Q F :.:.:.:.:.:.:.:.:.:.",
":.:.:.:.:.:.:.:.:.:.:.& D H P U T W Q Q Q W = :.:.:.:.:.:.:.:.:.",
":.:.:.:.:.:.:.:.:.:.:.l K Z B c j j j x m D - :.:.:.:.:.:.:.:.:.",
":.:.:.:.:.:.:.:.:.:.:.' ;.;.;.;.*.&.+.' _ ^ r :.:.:.:.:.:.:.:.:.",
":.:.:.:.:.:.:.:.:.:.:.O.;.;.;.O.i K ;.;.;.;.A :.:.:.:.:.:.:.:.:.",
":.:.:.:.:.:.:.:.:.:.: @.;.;._ 0 M 0 _ ;.;.;.g :.:.:.:.:.:.:.:.:.",
":.:.:.:.:.:.:.:.:.:.1 *.;.;.a H ! P 0 &.;.;.t :.:.:.:.:.:.:.:.:.",
":.:.:.:.:.:.:.:.:.:.r ;.;.*.p R Q R p &.;.=.3 :.:.:.:.:.:.:.:.:.",
":.:.:.:.:.:.:.:.:.:.d ;.;.@.q W Q T p =.;.&.> :.:.:.:.:.:.:.:.:.",
":.:.:.:.:.:.:.:.:.:.N ;.;.O.w Q W I f ;.;.@.:.:.:.:.:.:.:.:.:.:.",
":.:.:.:.:.:.:.:.:.:.A ;.;._ k Q Q L b ;.;.' :.:.:.:.:.:.:.:.:.:.",
":.:.:.:.:.:.:.:.:.:.^ ;.;.S n ! Q G C ;.;._ :.:.:.:.:.:.:.:.:.:.",
":.:.:.:.:.:.:.:.:.:._ ;.;.V M ! ! D S ;.;.^ :.:.:.:.:.:.:.:.:.:.",
":.:.:.:.:.:.:.:.:.O ' ;.;.v F Q ! m / ;.;.A :.:.:.:.:.:.:.:.:.:.",
":.:.:.:.:.:.:.1 V r @.;.;.a P Q Q z _ ;.;.g :.:.:.:.:.:.:.:.:.:.",
":.:.:.:.% d _ *.=.d &.;.=.u U Q Q h O.;.;.r % :.:.:.:.:.:.:.:.:.",
":.:.r S @.;.;.;.&.d =.;.;.f D ! H 0 &.;.*.d O.g :.:.:.:.:.:.:.:.",
":.r =.;.;.;.;.=.O.d ;.;.;.@.0 z y ' ;.;.@.d =.;._ 1 :.:.:.:.:.:.",
":.g =.O./ Z l 6 A N ;.;.;.;.O.v @.;.;.;.O.g ;.;.;.&.N # :.:.:.:.",
":.t 3 4 < ; 4 $ % c ' } +.@.&.=.;.;.;.;.O.B O.&.;.;.;._ 3 :.:.:.",
":.O . X :.:.:.:.:.T Y E ] ) ) ` ( ( ( [ J t , 0 A O.;.;./ :.:.:.",
":.:.:.:.:.:.:.:.:.:.W | $.-.-.;.&.#.} W U :.o ; 5 7 l ' S :.:.:.",
":.:.:.:.:.:.:.:.:.:.W W X.%.-.-.-.$.| W :.:.:.:.:.@ & * r :.:.:.",
":.:.:.:.:.:.:.:.:.:.:.R ~ X.%.%.o.| W :.:.:.:.:.:.:.:.  O :.:.:.",
":.:.:.:.:.:.:.:.:.:.:.:.W ~  ...! W :.:.:.:.:.:.:.:.:.:.:.:.:.:.",
":.:.:.:.:.:.:.:.:.:.:.:.:.W Q W W :.:.:.:.:.:.:.:.:.:.:.:.:.:.:.",
":.:.:.:.:.:.:.:.:.:.:.:.:.:.W W :.:.:.:.:.:.:.:.:.:.:.:.:.:.:.:.",
":.:.:.:.:.:.:.:.:.:.:.:.:.:.:.:.:.:.:.:.:.:.:.:.:.:.:.:.:.:.:.:."
};
