/* XPM */
static char *_2[] = {
/* columns rows colors chars-per-pixel */
"32 32 112 2 ",
"   c #2F3436",
".  c #2C373C",
"X  c #2F3C41",
"o  c #313D43",
"O  c #364145",
"+  c #3A494F",
"@  c #3C4B51",
"#  c #444444",
"$  c #405158",
"%  c #505050",
"&  c #5B5C5C",
"*  c #4B5D65",
"=  c #4E6169",
"-  c #51646C",
";  c #5B6D74",
":  c #5D737C",
">  c #606060",
",  c #6C6C6C",
"<  c #737474",
"1  c #707679",
"2  c #7B7B7B",
"3  c #607781",
"4  c #657D88",
"5  c #6C848E",
"6  c #7A8083",
"7  c #75848A",
"8  c #7D888C",
"9  c #728B96",
"0  c #7C8C93",
"q  c #718D98",
"w  c #7A8F98",
"e  c #74909B",
"r  c #7A939D",
"t  c #7F97A1",
"y  c #7E99A4",
"u  c #848484",
"i  c #8C8C8C",
"p  c #849196",
"a  c #8C9497",
"s  c #88959A",
"d  c #8E989C",
"f  c #939393",
"g  c #959A9D",
"h  c #9C9C9C",
"j  c #8397A0",
"k  c #839BA4",
"l  c #819EA9",
"z  c #949DA1",
"x  c #989FA2",
"c  c #83A1AE",
"v  c #9CA4A6",
"b  c #86A5B2",
"n  c #89A6B2",
"m  c #89A9B6",
"M  c #8CAEBB",
"N  c #94AAB3",
"B  c #8EB0BF",
"V  c #A5A5A6",
"C  c #A1A6A8",
"Z  c #A9ABAB",
"A  c #ACAFB1",
"S  c #B3B4B4",
"D  c #BBBDBD",
"F  c #8FB2C1",
"G  c #92B5C4",
"H  c #95BAC9",
"J  c #99BDCD",
"K  c #9AC0CF",
"L  c #9FC5D6",
"P  c #BFC0C1",
"I  c #ABCAD7",
"U  c #A3CBDB",
"Y  c #B3D1DD",
"T  c #A7D0E1",
"R  c #AAD3E4",
"E  c #ADD7E8",
"W  c #AFD9EB",
"Q  c #B2DDEF",
"!  c #B3DFF1",
"~  c #B5E1F3",
"^  c #BCE2F1",
"/  c #C2C3C3",
"(  c #C7C8C8",
")  c #CCCCCC",
"_  c #C5D1D6",
"`  c #C9D3D7",
"'  c #C6D3D8",
"]  c #CFD6D9",
"[  c #CFD8DB",
"{  c #D4D4D4",
"}  c #DCDCDC",
"|  c #CEDFE6",
" . c #D9DFE1",
".. c #CEE5EF",
"X. c #D7E4E9",
"o. c #C4E5F2",
"O. c #C9E7F3",
"+. c #CEE9F4",
"@. c #D7EDF6",
"#. c #E3E4E4",
"$. c #E2EAED",
"%. c #EDEDED",
"&. c #F0F0EF",
"*. c #EDF0F1",
"=. c #E4F3F9",
"-. c #ECF6FB",
";. c #EFF8FC",
":. c #F3F3F3",
">. c #F8F7F7",
",. c #F6FAFC",
"<. c #FEFEFE",
"1. c None",
/* pixels */
"1.1.1.1.1.1.1.1.1.1.1.1.1.1.1.1.1.1.1.1.1.1.1.1.1.1.1.1.1.1.1.1.",
"1.1.1.1.1.1.1.1.1.1.1.1.1.1.1.1.1.1.1.1.1.1.1.1.1.1.1.1.1.1.1.1.",
"1.1.1.1.1.1.1.1.1.1.1.1.1.1.1.1.1.1.1.1.1.1.1.1.1.1.1.1.1.1.1.1.",
"1.1.1.1.1.1.1.1.1.1.1.1.1.1.1.1.1.1.1.1.1.1.1.1.1.1.1.1.1.1.1.1.",
"1.1.1.1.1.1.1.1.1.1.1.1.1.1.1.1.1.1.1.1.1.1.1.1.1.1.1.1.1.1.1.1.",
"1.1.1.1.1.5 F J J M q O 1.1.1.1.1.1.1.1.1.1.1.1.1.1.1.1.1.1.1.1.",
"1.1.1.O M ! ~ ! ~ ~ G C S 1.1.1.1.1.1.1.1.1.1.1.1.1.1.1.1.1.1.1.",
"1.1.1.y ! Q Q Q ! U d :.<.{ < 1.1.1.1.1.1.1.1.1.1.1.1.1.1.1.1.1.",
"1.1.@ U ! W ! Q E j } <.<.<.%.h 1.1.1.1.1.1.1.1.1.1.1.1.1.# 1.1.",
"1.1.- E ! Q ! ! b P <.<.<.<.<.<./ & 1.1.1.1.1.1.1.1.1.< / #.u 1.",
"1.1.* R Q Q ! J v >.:.} ) :.<.<.<.} u 1.1.1.1.1.1., D :.<.<.) u ",
"1.1.1.L ! ! T s %./ 7 r y p } <.<.<.:.Z 1.1.1., S :.<.<.:.Z ;   ",
"1.1.1.e ! Q k { <.D b ~ ~ U r D <.<.<.<.) % f :.<.<.<.#.a : o 1.",
"1.1.1.+ L M S <.<.{ t ~ Q Q E c g %.<.<.<.} f D >.<.) 0 4 . 1.1.",
"1.1.1.1.= z >.<.<.:.s G ! ! ! ! H 0 { <.<.<.:.V V } 1 : 1.1.1.1.",
"1.1.1.1.1.i &.<.<.<.&.x l R ! Q ! T r A >.<.<.>.) h < 1.1.1.1.1.",
"1.1.1.1.1.1.2 { <.<.<.<.D 0 L ! Q ! Q b d :.<.<.<.` m 1.1.1.1.1.",
"1.1.1.1.1.1.1.1.S :.<.<.<.} 8 M Q ! ! ~ k { <.<.%.Y ! 1.1.1.1.1.",
"1.1.1.1.1.1.1.1.1.f #.<.<.<.%.g r R ! ~ B P <.:._ ..! 1.1.1.1.1.",
"1.1.1.1.1.1.1.1.1.1., ) <.<.<.<.D 7 F G 9 A <.] X.-.o.W 1.1.1.1.",
"1.1.1.1.1.1.1.1.1.1.1.1.Z :.<.<.<.} C S ) :.#. .,.-.+.Q 1.1.1.1.",
"1.1.1.1.1.1.1.1.1.1.1.1.1.u } <.<.<.<.<.<.%._ ,.<.-.@.Q 1.1.1.1.",
"1.1.1.1.1.1.1.1.1.1.1.1.1.1.& D <.<.<.<.>._ $.,.,.=.+.! 1.1.1.1.",
"1.1.1.1.1.1.1.1.1.1.1.1.1.1.V V h %.<.<.[ ..;.-.=.@.^ ! 1.1.1.1.",
"1.1.1.1.1.1.1.1.1.1.1.1.1.1.) <./ i { $.I ^ O.O.o.~ Q Q 1.1.1.1.",
"1.1.1.1.1.1.1.1.1.1.1.1.1.1.#.<.<.{ u N Q Q Q Q Q Q Q 1.1.1.1.1.",
"1.1.1.1.1.1.1.1.1.1.1.1.1.> :.<.:.4 & 1.1.1.1.1.1.1.1.1.1.1.1.1.",
"1.1.1.1.1.1.1.1.1.1.1.1.1.2 >.<.) 7 o 1.1.1.1.1.1.1.1.1.1.1.1.1.",
"1.1.1.1.1.1.1.1.1.1.1.1.1.f <.<.h 3 1.1.1.1.1.1.1.1.1.1.1.1.1.1.",
"1.1.1.1.1.1.1.1.1.1.1.1.1.S <.%.7 $ 1.1.1.1.1.1.1.1.1.1.1.1.1.1.",
"1.1.1.1.1.1.1.1.1.1.1.1.1./ <./ ; 1.1.1.1.1.1.1.1.1.1.1.1.1.1.1.",
"1.1.1.1.1.1.1.1.1.1.1.1.1.< #.g @ 1.1.1.1.1.1.1.1.1.1.1.1.1.1.1."
};
