/* XPM */
static char *_0[] = {
/* columns rows colors chars-per-pixel */
"32 32 256 2 ",
"   c #2F3031",
".  c #2F3639",
"X  c #2F3A3F",
"o  c #3D3D3D",
"O  c #344147",
"+  c #3B494F",
"@  c #3A4A50",
"#  c #434648",
"$  c #424749",
"%  c #4B4B4B",
"&  c #43535A",
"*  c #555555",
"=  c #595959",
"-  c #5A5A5A",
";  c #4C5D64",
":  c #4E626A",
">  c #4F626A",
",  c #53666F",
"<  c #596E77",
"1  c #5C6F78",
"2  c #5E727A",
"3  c #656666",
"4  c #666667",
"5  c #696969",
"6  c #6B6B6B",
"7  c #6C6D6D",
"8  c #737373",
"9  c #757575",
"0  c #717779",
"q  c #797979",
"w  c #7A7A7B",
"e  c #7C7C7C",
"r  c #5F7680",
"t  c #667B84",
"y  c #677D86",
"u  c #647D88",
"i  c #6D828B",
"p  c #6F848D",
"a  c #778185",
"s  c #7D8284",
"d  c #70868F",
"f  c #7D888D",
"g  c #6C8691",
"h  c #6D8792",
"j  c #6F8A95",
"k  c #748890",
"l  c #778C94",
"z  c #768C95",
"x  c #7B8A90",
"c  c #798B92",
"v  c #7B8D94",
"b  c #718D98",
"n  c #738F9A",
"m  c #7A929B",
"M  c #7E949D",
"N  c #7896A2",
"B  c #7B98A5",
"V  c #7F99A4",
"C  c #7C9AA7",
"Z  c #838383",
"A  c #848484",
"S  c #858585",
"D  c #83888A",
"F  c #8B8B8B",
"G  c #838E93",
"H  c #878F93",
"J  c #8C9396",
"K  c #839298",
"L  c #829299",
"P  c #889499",
"I  c #8A999F",
"U  c #909090",
"Y  c #929292",
"T  c #939393",
"R  c #949494",
"E  c #959595",
"W  c #939A9D",
"Q  c #919A9E",
"!  c #969C9E",
"~  c #989898",
"^  c #9C9C9C",
"/  c #9F9F9F",
"(  c #869BA4",
")  c #899CA3",
"_  c #829EA9",
"`  c #869FA9",
"'  c #909CA1",
"]  c #959DA1",
"[  c #84A1AD",
"{  c #84A2AE",
"}  c #9AA0A3",
"|  c #9DA8AD",
" . c #85A5B2",
".. c #89A5B1",
"X. c #88A8B5",
"o. c #8CAEBC",
"O. c #8EB0BF",
"+. c #A3A3A3",
"@. c #A1A5A7",
"#. c #A7A6A6",
"$. c #A1A8AB",
"%. c #AAACAD",
"&. c #A8ADAF",
"*. c #ACACAC",
"=. c #ADB2B3",
"-. c #B1B0B0",
";. c #B0B3B5",
":. c #B5B5B5",
">. c #B4B6B7",
",. c #B7B7B7",
"<. c #B6B9BA",
"1. c #B9B9B9",
"2. c #B8B9BA",
"3. c #BABABA",
"4. c #BBBBBB",
"5. c #B8BBBD",
"6. c #BDBDBD",
"7. c #BDBEBF",
"8. c #92B4C2",
"9. c #95B9C8",
"0. c #98BCCB",
"q. c #99BFCE",
"w. c #9AC0D0",
"e. c #9DC4D4",
"r. c #9EC5D5",
"t. c #BFC1C2",
"y. c #A0C6D6",
"u. c #A0C8D8",
"i. c #A1C8D8",
"p. c #A1C9DA",
"a. c #A4CCDD",
"s. c #A5CEDF",
"d. c #B9CCD3",
"f. c #AED0DE",
"g. c #BDD5DF",
"h. c #A7D0E1",
"j. c #A8D1E2",
"k. c #ABD4E5",
"l. c #ABD5E7",
"z. c #ACD6E8",
"x. c #AED9EB",
"c. c #AFDAED",
"v. c #BBD5E0",
"b. c #B1DBED",
"n. c #B3DBEC",
"m. c #B0DBEE",
"M. c #B0DCEE",
"N. c #B1DCEE",
"B. c #B1DCEF",
"V. c #B1DDEF",
"C. c #B2DDEF",
"Z. c #B8DFEF",
"A. c #B1DDF0",
"S. c #B2DEF0",
"D. c #B3DEF0",
"F. c #B2DEF1",
"G. c #B3DEF1",
"H. c #B3DFF1",
"J. c #B5DEF0",
"K. c #B4DFF1",
"L. c #B4DFF2",
"P. c #B4E0F2",
"I. c #B5E1F3",
"U. c #B9E0F0",
"Y. c #B9E0F1",
"T. c #BDE1F1",
"R. c #BCE2F2",
"E. c #C3C3C3",
"W. c #C3C5C5",
"Q. c #C4C5C5",
"!. c #C5C5C6",
"~. c #C4C6C6",
"^. c #C6C6C6",
"/. c #C9CACB",
"(. c #CDCDCD",
"). c #CFCFCF",
"_. c #C6D4DA",
"`. c #C9D4D8",
"'. c #CCD6DA",
"]. c #D0D1D1",
"[. c #D1D1D1",
"{. c #D2D3D3",
"}. c #D6DDDF",
"|. c #D8D8D8",
" X c #DBDBDB",
".X c #DCDCDC",
"XX c #DDDCDC",
"oX c #DDDDDD",
"OX c #DEDDDD",
"+X c #DEDEDE",
"@X c #C1E1EF",
"#X c #DCE0E1",
"$X c #D5E4EA",
"%X c #C4E5F3",
"&X c #C9E7F3",
"*X c #CEEAF5",
"=X c #D1EBF5",
"-X c #D5ECF6",
";X c #DDEAF0",
":X c #DBEFF8",
">X c #DCEFF8",
",X c #E0E0E0",
"<X c #E1E1E1",
"1X c #E3E3E3",
"2X c #E1E5E6",
"3X c #E4E4E4",
"4X c #E5E5E5",
"5X c #E6E6E6",
"6X c #E7E6E6",
"7X c #E1E6E8",
"8X c #E4E8E9",
"9X c #E9E9E8",
"0X c #E9E9E9",
"qX c #EAEAEA",
"wX c #ECECEC",
"eX c #EDECEC",
"rX c #EDEDED",
"tX c #EFEFEF",
"yX c #F0EFEF",
"uX c #EFF0F0",
"iX c #EFF1F2",
"pX c #ECF2F5",
"aX c #E3F2F9",
"sX c #E8F5FA",
"dX c #E9F5FA",
"fX c #EEF8FB",
"gX c #F0F0F0",
"hX c #F3F3F3",
"jX c #F4F4F3",
"kX c #F4F4F4",
"lX c #F5F4F4",
"zX c #F5F5F5",
"xX c #F5F6F6",
"cX c #F6F6F6",
"vX c #F7F6F6",
"bX c #F0F8FB",
"nX c #F1F8FB",
"mX c #F2F9FB",
"MX c #F2F9FC",
"NX c #F3F9FC",
"BX c #F9F9F9",
"VX c #FAF9F9",
"CX c #FAFAFA",
"ZX c #FBFAFA",
"AX c #FBFBFA",
"SX c #FAFBFB",
"DX c #FBFBFB",
"FX c #FBFDFE",
"GX c #FBFEFF",
"HX c #FCFCFC",
"JX c #FDFDFD",
"KX c #FEFDFD",
"LX c #FEFEFD",
"PX c #FEFEFE",
"IX c #FFFFFF",
"UX c None",
/* pixels */
"UXUXUXUXUXUXUXUXUXUXUXUXUXUXUXUXUXUXUXUXUXUXUXUXUXUXUXUXUXUXUXUX",
"UXUXUXUXUXUXUXUXUXUXUXUXUXUXUXUXUXUXUXUXUXUXUXUXUXUXUXUXUXUXUXUX",
"UXUXUXUXUXUXUXUXUXUXUXUXUXUXUXUXUXUXUXUXUXUXUXUXUXUXUXUXUXUXUXUX",
"UXUXUXUXUXUXUXUXUXUXUXUXUXUXUXUXUXUXUXUXUXUXUXUXUXUXUXUXUXUXUXUX",
"UXUXUXUXUXUXUXUXUXUXUXUXUXUXUXUXUXUXUXUXUXUXUXUXUXUXUXUXUXUXUXUX",
"UXUXUXUXUXUXUXUXUXUXUXUXUXUXUXUXUXUXUXUXUXUXUXUXUXUX8 S % UXUXUX",
"UXUXUXUXUXUXUXUXUXUXUXUXUXUXUXUXUXUXUXUXUXUXUXUXUXA wXPXE.7 UXUX",
"UXUXUXUX+ r n C 2 w 6 UXUXUXUXUXUXUXUXUXUXUXUXUXF uXIXqXa . UXUX",
"UXUXUXj i.b.K.V.) eXtX^.Y = UXUXUXUXUXUXUXUXUXY hXIXVXW , UXUXUX",
"UXUXN C.G.C.G.e.$.IXIXIXHX5X3.Z UXUXUXUXUXUX^ cXIXIX>.y X UXUXUX",
"UX> k.S.C.C.H...].IXIXIXIXIXIXBX.X*.9 UXUX+.SXIXIX{.k : UXUXUXUX",
"UXb K.C.C.C.z.I jXIXlXOXzXIXIXIXIXIXkX).A Y 6.qXAXD < UXUXUXUXUX",
"UXC P.C.C.K.0.=.ZX~.G m L &.XXCXIXIXIXIXJX1X:.E +.^   UXUXUXUXUX",
"UXg G.C.C.F.` +XQ.i s.G.l.9.V P <.6XJXIXIXIXIXVX,X| UXUXUXUXUXUX",
"UX& a.G.S.j.' AX4Xv c.S.C.K.D.h.O.M Q W.yXIXIXIXBXv.A.UXUXUXUXUX",
"UXUXh N.P.8.5.IXIX@. .l.H.H.C.S.L.N.p.X.x .XIXIX8Xg.R.B.UXUXUXUX",
"UXUXUXB M.( 4XIXIXgX;.K _ w.x.P.D.C.D.I.q.! PXIX'.;X:XZ.UXUXUXUX",
"UXUXUXUXu ] KXIXIXIXIXvX[.} c { u.B.P.G.F.z oXxX`.nXdX&XB.UXUXUX",
"UXUXUXUXUX3 4.5XHXIXIXIXIXPX9X2.H l o.r.[ f <X2X7XGXbX-XJ.UXUXUX",
"UXUXUXUXUXUXUXUXY ^.rXPXIXIXIXIXAXoX%.J 7.kXLX`.pXFXMX>XY.V.UXUX",
"UXUXUXUXUXUXUXUXUXUX4 / [.kXIXIXIXIXIXKXIXIXiX_.mXNXsX=XJ.C.UXUX",
"UXUXUXUXUXUXUXUXUXUXUXUXUX9 *.XXSXIXIXIXIXIX}.$XfXaX*XU.C.C.UXUX",
"UXUXUXUXUXUXUXUXUXUXUXUXUXUXUXo q ,.3XJXIXDXd.@X%XT.n.V.UXUXUXUX",
"UXUXUXUXUXUXUXUXUXUXUXUXUXUXUXUXU 6.R ~ E.#Xf.V.N.m.UXUXUXUXUXUX",
"UXUXUXUXUXUXUXUXUXUXUXUXUXUXUXUXT IXDXoX#.0 y.UXUXUXUXUXUXUXUXUX",
"UXUXUXUXUXUXUXUXUXUXUXUXUXUXUXUXe DXIXwXs # UXUXUXUXUXUXUXUXUXUX",
"UXUXUXUXUXUXUXUXUXUXUXUXUXUXUXUX5 hXIXoXp @ UXUXUXUXUXUXUXUXUXUX",
"UXUXUXUXUXUXUXUXUXUXUXUXUXUXUXUX* 0XIX|.d O UXUXUXUXUXUXUXUXUXUX",
"UXUXUXUXUXUXUXUXUXUXUXUXUXUXUXUXUX XIX].t UXUXUXUXUXUXUXUXUXUXUX",
"UXUXUXUXUXUXUXUXUXUXUXUXUXUXUXUXUX(.IX/.1 UXUXUXUXUXUXUXUXUXUXUX",
"UXUXUXUXUXUXUXUXUXUXUXUXUXUXUXUXUX1.IXt.; UXUXUXUXUXUXUXUXUXUXUX",
"UXUXUXUXUXUXUXUXUXUXUXUXUXUXUXUXUX- -.!.$ UXUXUXUXUXUXUXUXUXUXUX"
};
