/* XPM */
static char *_[] = {
/* columns rows colors chars-per-pixel */
"48 48 131 2 ",
"   c #110F03",
".  c #181605",
"X  c #1A1905",
"o  c #232107",
"O  c #2D2A09",
"+  c #34320B",
"@  c #3F3D0D",
"#  c #413E0D",
"$  c #46440F",
"%  c #49470F",
"&  c #4B4A10",
"*  c #534F12",
"=  c #565312",
"-  c #5A5613",
";  c #5C5913",
":  c #615E14",
">  c #666315",
",  c #686516",
"<  c #6B6816",
"1  c #6D6C1A",
"2  c #726F18",
"3  c #767319",
"4  c #787619",
"5  c #7D7A1B",
"6  c #707335",
"7  c #71763D",
"8  c #667155",
"9  c #6E7F6D",
"0  c #837E1C",
"q  c #7C854A",
"w  c #748268",
"e  c #7C8A69",
"r  c #728475",
"t  c #778974",
"y  c #85821C",
"u  c #8A861D",
"i  c #8D8A1E",
"p  c #918E1F",
"a  c #94911F",
"s  c #9B961F",
"d  c #858221",
"f  c #8A8720",
"g  c #8F8821",
"h  c #969221",
"j  c #9A9521",
"k  c #9E9A22",
"l  c #93922B",
"z  c #818435",
"x  c #888A37",
"c  c #898D3B",
"v  c #939335",
"b  c #999B36",
"n  c #9E9E38",
"m  c #A19D22",
"M  c #A09E2E",
"N  c #A6A223",
"B  c #AAA524",
"V  c #AEAA25",
"C  c #A1A02B",
"Z  c #A9A72A",
"A  c #B1AD26",
"S  c #B6B227",
"D  c #BFBA26",
"F  c #B5B128",
"G  c #BAB528",
"H  c #BDB929",
"J  c #A3A53C",
"K  c #B6B431",
"L  c #BCBA32",
"P  c #C1BD2A",
"I  c #C5C12B",
"U  c #CAC62B",
"Y  c #CDC92C",
"T  c #D1CE2D",
"R  c #D6D22E",
"E  c #DAD62F",
"W  c #DDD92F",
"Q  c #C5C131",
"!  c #CAC835",
"~  c #D3D033",
"^  c #DEDA31",
"/  c #E2DE2F",
"(  c #E2DE31",
")  c #EBE62D",
"_  c #E6E232",
"`  c #EAE632",
"'  c #EDE933",
"]  c #F2EE34",
"[  c #F5F235",
"{  c #FAF636",
"}  c #FFFB37",
"|  c #FFFF38",
" . c #838B4E",
".. c #999C44",
"X. c #9FA143",
"o. c #A8AA49",
"O. c #ADB25C",
"+. c #909B63",
"@. c #919A6A",
"#. c #84907A",
"$. c #A4AA6C",
"%. c #C3BF42",
"&. c #768B84",
"*. c #728A8E",
"=. c #7B969E",
"-. c #8E9C81",
";. c #91A08D",
":. c #86A1AB",
">. c #89A6B4",
",. c #8FAEBD",
"<. c #9EB8BD",
"1. c #A1BCBD",
"2. c #AAC1BD",
"3. c #91B2C2",
"4. c #98B8C4",
"5. c #93B4C8",
"6. c #A9C1C0",
"7. c #A1C3D5",
"8. c #AACADA",
"9. c #B2CEDB",
"0. c #B7D2D7",
"q. c #A7CCE2",
"w. c #AED5ED",
"e. c #B2D2E4",
"r. c #B3D6EB",
"t. c #BBDEED",
"y. c #B7DDF1",
"u. c #BDDFF3",
"i. c #BEE3F7",
"p. c #C2E5F7",
"a. c None",
/* pixels */
"a.a.a.a.a.a.a.a.a.a.a.a.a.a.a.a.a.a.a.a.a.a.a.a.a.a.a.a.a.a.a.a.a.a.a.a.a.a.a.a.a.a.a.a.a.a.a.a.",
"a.a.a.a.a.a.a.a.a.a.a.a.a.a.a.a.a.a.a.a.a.a.a.a.a.a.a.a.a.a.a.a.a.a.a.a.a.a.a.a.a.a.a.a.a.a.a.a.",
"a.a.a.a.a.a.a.a.a.a.a.a.a.a.a.a.a.a.a.a.a.a.a.a.a.a.a.a.a.a.a.a.a.a.a.a.a.a.a.a.a.a.a.a.a.a.a.a.",
"a.a.a.a.a.a.a.a.a.a.a.a.a.a.a.a.a.a.a.a.a.a.a.a.a.a.a.a.a.a.a.a.a.a.a.a.a.a.a.a.a.a.a.a.a.a.a.a.",
"a.a.a.a.a.a.a.a.a.a.a.a.a.a.a.a.a.a.a.a.a.a.a.a.a.a.a.a.a.a.a.a.a.a.a.a.a.a.a.a.a.a.a.a.a.a.a.a.",
"a.a.a.a.a.a.a.a.a.a.a.a.a.a.a.a.a.a.a.a.a.a.a.a.a.a.a.a.a.a.a.a.a.a.a.a.a.a.a.a.a.a.a.a.a.a.a.a.",
"a.a.a.a.a.a.a.a.a.a.a.a.a.a.& , 0 i p g i 5 ; a.a.a.a.a.a.a.a.a.a.a.a.a.a.a.a.a.a.a.a.a.a.a.a.a.",
"a.a.a.a.a.a.a.a.a.a.a.& h B H E _ ' ] [ { { ` E Z 1 a.a.a.a.a.a.a.a.a.a.a.a.a.a.a.a.a.a.a.a.a.a.",
"a.a.a.a.a.a.a.a.a.a.4 B E ] } | | } | } } } } } | { Y 5 : a.a.a.a.a.a.a.a.a.a.a.a.a.a.a.a.a.a.a.",
"a.a.a.a.a.a.a.a.a.H R } | | } } } } } { } } } } } } | { I ; O a.a.a.a.a.a.a.a.a.a.a.a.a.a.a.a.a.",
"a.a.a.a.a.a.a.y S [ | } } } } } } } } } } } } } } } } } | ` p $ @ a.a.a.a.a.a.a.a.a.a.a.a.a.a.a.",
"a.a.a.a.; ; - H | | } } } } } } } } } } } } } } } } } } } | { G u u j a.a.a.a.a.a.a.a.a.a.a.a.a.",
"a.a.a.a.4 W A A ` | } } } } } } } } } } } } } } } } } } } } | [ I A E U g 3 < a.a.a.a.a.a.a.a.a.",
"a.a.a.a.k | ' F B ( | } } } } } } } } } } } } } } } } } } } } | [ H S { } ( F h u a.a.a.a.a.a.a.",
"a.a.a.a.P | | ] H V E } | } } } } } } } } } } } } } } } } } } } | ' F P | | | ] T S m * . a.a.a.",
"a.a.a.a._ | } } [ U A E | } } | | | | | | } } } } } } } } } } } } | E N _ | | | | { ( P p > o a.",
"a.a.a.2 } } } } } { T B U | | ' T G N N G ( [ } } } } } } } } } } } [ U S | } } } | | } [ I = a.",
"a.a.a.h | } } } } } } R B F H k A U I Z 8 t x Y { } } } } } } } } } | _ m ' } } } } } } | _ , a.",
"a.a.a.F | } } } } } } } Y > > y F U E ^ +.q.4.w C [ } } } } } } } } } [ G P | } } } } | } ` , a.",
"a.a.a.U | } } } } } } [ S k I T E I F N 6 >.p.e.&.j [ } } } } } } } } } W N } } } { } } } ` , a.",
"a.a.a.( } } } } } } } I N ' | } { { [ ' ! ..;.9.e.r S } } } } } } } } } ' u i j i y y 4 4 , O a.",
"a.a.& ` } } } } } } ` k ^ | } | } } } } } [ ! @.9.7.7 ) } } } } } } } } { y a.a.a.a.a.a.a.a.a.a.",
"a.a.= ] } } } } } } T N } } } } } } } } } } } ~ -.i.&.D } } } } } } } } } N a.a.a.a.a.a.a.a.a.a.",
"a.a.- [ } } } } } } A Y | } } } } } } } } } } { X.8.,.l } } } } } } } } } S a.a.a.a.a.a.a.a.a.a.",
"a.a., { } } } } } { j _ } } } } } } } } } } } } H <.7.z { | } } } } } } | H a.a.a.a.a.a.a.a.a.a.",
"a.a., [ } } } } } { j ' } } } } } } } } } } } } Q <.7.x { | } } } } } } | S a.a.a.a.a.a.a.a.a.a.",
"a.a., ] } } } } } } m _ } } } } } } } } } } } } %.0.5.b { } } } } } } } | m a.a.a.a.a.a.a.a.a.a.",
"a.a.> ' } } } } } | A U } } } } } } } } } } } ) $.t.=.K { } } } } } } } } y % % % & & & & & + a.",
"a.a.= ^ } } } } } | T B ] | } } } } } } | } [ o.6.r.e ( } } } } } } } } { 5 h B Z G H I Y R y a.",
"a.a.@ ~ } } } } } | { m U { | | } } } | ] U O.2.u.:.J ] | } } } } } } | _ i _ | } } } } } | k a.",
"a.a.O H } } } } } } | R m E | } [ ' W Y g #.9.i.3.q E | } } } } } } } | H N ] | } } } } | | B a.",
"a.a.X N { } } } } } } | T j h N F D Y / n 1.w.>. .T } } } } } } } } } } a I { } } } } } | | N a.",
"a.a.a.G ' | } } } } } | ^ f 0 0 k T ` ` c *.9 v ( } } } } } } } } } | E p ^ | } } } | | _ V = a.",
"a.a.a.j _ | } } } } | ` B G ( T F m k j d M ~ ] } } } } } } } } } } } N V [ | | | } ^ k k a.a.a.",
"a.a.a.2 R } } } } | _ V H ' | } ] ' ` ] ] { } } } } } } } } } } } | T j R | | } Y i i a.a.a.a.a.",
"a.a.a.# V } } } | ` V S ] | } } | } } } | } } } } } } } } } } } | [ m H { [ Y u 3 a.a.a.a.a.a.a.",
"a.a.a.a.p ' } | ' A V ' | } } } } } } } } } } } } } } } } } } | } P B R U S a.a.a.a.a.a.a.a.a.a.",
"a.a.a.a.k R | [ F V ` | | } } } } } } } } } } } } } } } } } | { U p k B 3 a.a.a.a.a.a.a.a.a.a.a.",
"a.a.a.a., S { G V _ | } } } } } } } } } } } } } } } } } } } { P : : , a.a.a.a.a.a.a.a.a.a.a.a.a.",
"a.a.a.a.a.p j , S | | } } } } } } } } } } } } } } } } } } ] S *   a.a.a.a.a.a.a.a.a.a.a.a.a.a.a.",
"a.a.a.a.a.a.# O y V ` | | } } } } } } } } } } } } } | { ( N $ a.a.a.a.a.a.a.a.a.a.a.a.a.a.a.a.a.",
"a.a.a.a.a.a.a.a.a.- m V _ | | | } | } } } } } | | { _ A > O a.a.a.a.a.a.a.a.a.a.a.a.a.a.a.a.a.a.",
"a.a.a.a.a.a.a.a.a.a.a.a.j j P ( { | | | | | } ` I k - O a.a.a.a.a.a.a.a.a.a.a.a.a.a.a.a.a.a.a.a.",
"a.a.a.a.a.a.a.a.a.a.a.a.a.a.a.u , 5 p k j p 4 & + a.a.a.a.a.a.a.a.a.a.a.a.a.a.a.a.a.a.a.a.a.a.a.",
"a.a.a.a.a.a.a.a.a.a.a.a.a.a.a.a.a.a.a.a.a.a.a.a.a.a.a.a.a.a.a.a.a.a.a.a.a.a.a.a.a.a.a.a.a.a.a.a.",
"a.a.a.a.a.a.a.a.a.a.a.a.a.a.a.a.a.a.a.a.a.a.a.a.a.a.a.a.a.a.a.a.a.a.a.a.a.a.a.a.a.a.a.a.a.a.a.a.",
"a.a.a.a.a.a.a.a.a.a.a.a.a.a.a.a.a.a.a.a.a.a.a.a.a.a.a.a.a.a.a.a.a.a.a.a.a.a.a.a.a.a.a.a.a.a.a.a.",
"a.a.a.a.a.a.a.a.a.a.a.a.a.a.a.a.a.a.a.a.a.a.a.a.a.a.a.a.a.a.a.a.a.a.a.a.a.a.a.a.a.a.a.a.a.a.a.a."
};
