/* XPM */
static char *_70[] = {
/* columns rows colors chars-per-pixel */
"48 48 130 2 ",
"   c #191604",
".  c #1C1A06",
"X  c #222007",
"o  c #262408",
"O  c #2C2A09",
"+  c #312F0A",
"@  c #35330B",
"#  c #3D3A0C",
"$  c #413E0D",
"%  c #45430F",
"&  c #4B470F",
"*  c #49480F",
"=  c #4D4B10",
"-  c #504F11",
";  c #575412",
":  c #5A5713",
">  c #5D5B14",
",  c #615D14",
"<  c #666315",
"1  c #6B6917",
"2  c #6F6C18",
"3  c #716D18",
"4  c #757219",
"5  c #787519",
"6  c #7F7C1B",
"7  c #7B7A26",
"8  c #71753C",
"9  c #727D54",
"0  c #817D1C",
"q  c #7C8653",
"w  c #748162",
"e  c #798766",
"r  c #75866F",
"t  c #7F937C",
"y  c #85821C",
"u  c #8A861D",
"i  c #8D891E",
"p  c #918D1F",
"a  c #94901F",
"s  c #9B961F",
"d  c #8F8C22",
"f  c #8D8D2E",
"g  c #969220",
"h  c #9A9620",
"j  c #9D9922",
"k  c #9C9B2C",
"l  c #8E913B",
"z  c #96993D",
"x  c #A19D22",
"c  c #A5A124",
"v  c #ABA624",
"b  c #AEA925",
"n  c #AFAD2B",
"m  c #B2AD26",
"M  c #B1AD29",
"N  c #B6B227",
"B  c #B8B327",
"V  c #BAB629",
"C  c #BDB929",
"Z  c #ADAC36",
"A  c #A2A43A",
"S  c #A9A93B",
"D  c #B1B03D",
"F  c #C2BE2A",
"G  c #C5C12A",
"H  c #C9C52B",
"J  c #CDC92C",
"K  c #D4CE27",
"L  c #D1CD2D",
"P  c #D6D22E",
"I  c #DAD62D",
"U  c #DDD92F",
"Y  c #CECB34",
"T  c #C2C33D",
"R  c #D7D430",
"E  c #D8D630",
"W  c #DDDA31",
"Q  c #E0DB2F",
"!  c #E1DD31",
"~  c #E5E232",
"^  c #E9E532",
"/  c #EDEA33",
"(  c #F2EE34",
")  c #F5F235",
"_  c #F9F635",
"`  c #FFFB37",
"'  c #FFFE38",
"]  c #8B924C",
"[  c #9B9E42",
"{  c #828752",
"}  c #87915D",
"|  c #929B58",
" . c #A2A641",
".. c #A6AA4F",
"X. c #B1B242",
"o. c #AFB256",
"O. c #B0B352",
"+. c #879563",
"@. c #919B6E",
"#. c #ACB672",
"$. c #BFC049",
"%. c #C4C140",
"&. c #7B939A",
"*. c #839B99",
"=. c #93A798",
"-. c #93AB9F",
";. c #A6B385",
":. c #A1B091",
">. c #8CA9AD",
",. c #87A5B6",
"<. c #8AA6B3",
"1. c #8EABB3",
"2. c #90ADBF",
"3. c #95B1BA",
"4. c #A7BDBF",
"5. c #A8BEB9",
"6. c #9BBCD4",
"7. c #9FC2DA",
"8. c #A6C2CC",
"9. c #B1C7C0",
"0. c #A3C1D0",
"q. c #AECCD0",
"w. c #A6CAE0",
"e. c #A8CEE5",
"r. c #BBDAE4",
"t. c #B3D4EA",
"y. c #B5D8ED",
"u. c #B9DAEC",
"i. c #C4E6F7",
"p. c None",
/* pixels */
"p.p.p.p.p.p.p.p.p.p.p.p.p.p.p.p.p.p.p.p.p.p.p.p.p.p.p.p.p.p.p.p.p.p.p.p.p.p.p.p.p.p.p.p.p.p.p.p.",
"p.p.p.p.p.p.p.p.p.p.p.p.p.p.p.p.p.p.p.p.p.p.p.p.p.p.p.p.p.p.p.p.p.p.p.p.p.p.p.p.p.p.p.p.p.p.p.p.",
"p.p.p.p.p.p.p.p.p.p.p.p.p.p.p.p.p.p.p.p.p.p.p.p.p.p.p.p.p.p.p.p.p.p.p.p.p.p.p.p.p.p.p.p.p.p.p.p.",
"p.p.p.p.p.p.p.p.p.p.p.p.p.p.p.p.p.p.p.p.p.p.p.p.p.p.p.p.p.p.p.p.p.p.p.p.p.p.p.p.p.p.p.p.p.p.p.p.",
"p.p.p.p.p.p.p.p.p.p.p.p.p.p.p.p.3 < < h 0 ; , p.p.p.p.p.p.p.p.p.p.p.p.p.p.p.p.p.p.p.p.p.p.p.p.p.",
"p.p.p.p.p.p.p.p.p.X 3 < # g g L I ~ ) ~ ^ ( J c p i p.p.p.p.p.p.p.p.p.p.p.p.p.p.p.p.p.p.p.p.p.p.",
"p.p.p.p.p.p.p.p.p.> P G g W ' ' ' ' ` ' ' ` ' ' _ J c u 2 p.p.p.p.p.p.p.p.p.p.p.p.p.p.p.p.p.p.p.",
"p.p.p.p.p.p.p.p.p.v ` _ c H ` ` ` ` ` ` ` ` ` ` ' ' ' / b > p.p.p.p.p.p.p.p.p.p.p.p.p.p.p.p.p.p.",
"p.p.p.p.p.p.p.p.F ~ ' ' R x ( ' ` ` ` ` ` ` ` ` ` ` ` ' ' ! B p.p.p.p.p.p.p.p.p.p.p.p.p.p.p.p.p.",
"p.p.p.p.p.p.p., ~ ` ` ` ( v L ' ` ` ` ` ` ` ` ` ` _ ` ` ` ' W d p.p.p.p.p.p.p.p.p.p.p.p.p.p.p.p.",
"p.p.p.p.p.p.p.b ' ` ` ` ` L c ( ` ` ` ` ` ` ` ` ` ` ` ` ` ` ' ) b = p.p.p.p.p.p.p.p.p.p.p.p.p.p.",
"p.p.p.p.p.p.b / ' ` ` ` ` ( B L ' ` ` ` ` ` ` ` ` ` ` ` ` ` ` ' / g p.p.p.p.p.p.p.p.p.p.p.p.p.p.",
"p.p.p.p.p.p.L ' ` ` ` ` ` ' L v ( ` ` ' ' ` ` ` ` ` ` ` ` ` ` ` ` I > p.p.p.p.p.p.p.p.p.p.p.p.p.",
"p.p.p.p.+ p ( ' ` ` ` ` ` ' ) v P ' ` _ ' ' ` ` ` ` ` ` ` ` ` ` ` ' F & p.p.p.p.p.p.p.p.p.p.p.p.",
"p.p.p.p.* I ` ` ` ` ` ` ` ` ` F 0 m C G F P _ ' ` ` ` ` ` ` ` ` ` ' _ g @ p.p.p.p.p.p.p.p.p.p.p.",
"p.p.p.p.4 ` ` ` ` ` ` ` ' ) G x , < i m G c h H ( ` ` ` ` ` ` ` ` ` ' P y 0 p.p.p.p.p.p.p.p.p.p.",
"p.p.p., F ' ` ` ` ` ` ` / v c P / J F F P I f q T _ ` ` ` ` ` ` ` ` ` ( v V b p.p.p.p.p.p.p.p.p.",
"p.p.p.1 ) ` ` ` ` ` ' ^ N N / ' ' _ / J C U [ 1.r n _ ` ` ` ` ` ` ` ` ` H m W u O p.p.p.p.p.p.p.",
"p.p.p.g ' ` ` ` ` ` ' m V / ` ` ` ' ' _ I c 8 6.w.e G ` ` ` ` ` ` ` ` ' ! v _ ) g p.p.p.p.p.p.p.",
"p.p.: L ' ` ` ` ` ` ! x ^ ' ` ` ` ` ` ' ` / Z =.i.3.] ) ` ` ` ` ` ` ` ' ( c W ' ^ p % p.p.p.p.p.",
"p.p., ) ` ` ` ` ` ' N F _ ` ` ` ` ` ` ` ` ` / ..4.t.q J ` ` ` ` ` ` ` ` _ v W ' ' ) C 2 p.p.p.p.",
"p.O y ` ` ` ` ` ` ` j ~ ` ` ` ` ` ` ` ` ` ` ` I @.y.&.n ` ` ` ` ` ` ` ` _ G G ' ` ' ) x p.p.p.p.",
"p.o C _ ` ` ` ` ' ^ M ! ' ` ` ` ` ` ` ` ` ` ' _ o.8.3.f ` ` ` ` ` ` ` ` ' m H ' ` ` ' ( M > p.p.",
"p.p.L ' ` ` ` ` ' / v ! ' ` ` ` ` ` ` ` ` ` ` ` S q.>.A ( ` ` ` ` ` ` ` ` C H ` ` ` ` ' ` M ; p.",
"p.v P ' ` ` ` ` ' _ h ~ ' ` ` ` ` ` ` ` ` ` ' _ X.7.2.k _ ' ` ` ` ` ` ` _ H V ' ` ` ` ` ` ) b # ",
"p.a ( ' ` ` ` ` ` _ N F ' ` ` ` ` ` ` ` ` ` ' W #.6.-.c ' ` ` ` ` ` ` ` ' v H ` ` ` ` ` ` ' ( , ",
"p.y ' ` ` ` ` ` ` ' J m _ ' ` ' ` ` ` ` ` ` _ %.9.7.} P ` ` ` ` ` ` ` ` _ 6 ; g P ) ` ` ' ' N < ",
"O j ' ` ` ` ` ` ` ` L 5 d J ^ / ) ' ` ) _ ! %.:.t.>.k ` ` ` ` ` ` ` ` ' P g p.% % < c W _ ' 0 p.",
"p.C ` ` ` ` ' ) W m x d 0 p M H J F c D o.;.5.y.3.| K ' ` ` ` ` ` ` ` ' F p.p.p.p.p.% = 4 j > p.",
"p.b ' ' ` _ J c j G ~ _ J x F U Q Y 9 6.r.u.y.<.] W _ ` ` ` ` ` ` ` ' ) V p.p.p.p.p.p.p.p.O p.p.",
"; G ' / J c c F ) ` ' ` _ F j V I z *.q.7.1.t l R ' ` ` ` ` ` ` ` ` ' L v p.p.p.p.p.p.p.p.p.p.p.",
"p.G N x c L / ` ` ` ` ` ` ' / C s 7 +.9 ] A H / ' ` ` ` ` ` ` ` ` ` ' x p.p.p.p.p.p.p.p.p.p.p.p.",
"p.; @ i _ ' ' ` ` ` ` ` ` ` ` ' ` ~ I / ^ ` ` ` ` ` ` ` ` ` ` ` ` ` P < p.p.p.p.p.p.p.p.p.p.p.p.",
"p.p.p.u ~ ' ` ` ` ` ` ` ` ` ` ` ` ` ` ` ` ` ` ` ` ` ` ` ` ` ` ` ` ) j y < - p.p.p.p.p.p.p.p.p.p.",
"p.p.p.@ p ^ ' ` ` ` ` ` ` ` ` ` ` ` ` ` ` ` ` ` ` ` ` ` ` ` ` ` _ V i ) _ J p > = p.p.p.p.p.p.p.",
"p.p.p.p.p.a / ' ` ` ` ` ` ` ` ` ` ` ` ` ` ` ` ` ` ` ` ` ` ` ` _ G j J ` ` ` ' ( F y : @ p.p.p.p.",
"p.p.p.p.p.p.C ) ' ' ` ` ` ` ` ` ` ` ` ` ` ` ` ` ` ` ` ` ` ` ` C u J _ ' ` ' ` ` ' ' W < p.p.p.p.",
"p.p.p.p.p.p.* u E _ ` ` ` ` ` ` ` ` ` ` ` ` ` ` ` ` ` ` ` ( G u G ' ` ' ` ` ` ` ` ' F 0 p.p.p.p.",
"p.p.p.p.p.p.p.p.C P ` ' ` ` ` ` ` ` ` ` ` ` ` ` ` ` ` ` ! c x L ` ' ` ' ` ' ` ' ' ' x p.p.p.p.p.",
"p.p.p.p.p.p.p.p.p.% y L ' ' ` ` ` ' ` ` ` ` ' ' ` ` ^ G s N ) ` ` ' _ _ ` / ) / ~ E y p.p.p.p.p.",
"p.p.p.p.p.p.p.p.p.p.p.4 g N ^ ' ` _ ' ' ' ' _ / L g 4 5 i G v m V p i p 3 m 5 p.d = p.p.p.p.p.p.",
"p.p.p.p.p.p.p.p.p.p.p.p.p.p.0 5 i N v v N g u 5 @ .   p.; p.p.p.p.p.p.p.p.p.p.p.p.p.p.p.p.p.p.p.",
"p.p.p.p.p.p.p.p.p.p.p.p.p.p.p.p.O p.p.# p.p.p.p.p.p.p.p.p.p.p.p.p.p.p.p.p.p.p.p.p.p.p.p.p.p.p.p.",
"p.p.p.p.p.p.p.p.p.p.p.p.p.p.p.p.p.p.p.p.p.p.p.p.p.p.p.p.p.p.p.p.p.p.p.p.p.p.p.p.p.p.p.p.p.p.p.p.",
"p.p.p.p.p.p.p.p.p.p.p.p.p.p.p.p.p.p.p.p.p.p.p.p.p.p.p.p.p.p.p.p.p.p.p.p.p.p.p.p.p.p.p.p.p.p.p.p.",
"p.p.p.p.p.p.p.p.p.p.p.p.p.p.p.p.p.p.p.p.p.p.p.p.p.p.p.p.p.p.p.p.p.p.p.p.p.p.p.p.p.p.p.p.p.p.p.p.",
"p.p.p.p.p.p.p.p.p.p.p.p.p.p.p.p.p.p.p.p.p.p.p.p.p.p.p.p.p.p.p.p.p.p.p.p.p.p.p.p.p.p.p.p.p.p.p.p.",
"p.p.p.p.p.p.p.p.p.p.p.p.p.p.p.p.p.p.p.p.p.p.p.p.p.p.p.p.p.p.p.p.p.p.p.p.p.p.p.p.p.p.p.p.p.p.p.p."
};
