/* XPM */
static char *_3[] = {
/* columns rows colors chars-per-pixel */
"48 48 133 2 ",
"   c #1C1A06",
".  c #2D2A09",
"X  c #312F0A",
"o  c #36330B",
"O  c #38360B",
"+  c #3E3C0D",
"@  c #403C0D",
"#  c #46440F",
"$  c #4B480F",
"%  c #4D4A10",
"&  c #514F11",
"*  c #535111",
"=  c #595613",
"-  c #5D5A13",
";  c #615D14",
":  c #656215",
">  c #696516",
",  c #6F6C17",
"<  c #706C17",
"1  c #726E18",
"2  c #757219",
"3  c #7A771A",
"4  c #7D7A1B",
"5  c #817D1B",
"6  c #7C8243",
"7  c #778152",
"8  c #7B855B",
"9  c #788973",
"0  c #70847F",
"q  c #85821C",
"w  c #8A861D",
"e  c #8D891E",
"r  c #928E1F",
"t  c #A19C1F",
"y  c #828025",
"u  c #8C8A22",
"i  c #88862F",
"p  c #8B8B2E",
"a  c #938F20",
"s  c #969320",
"d  c #999621",
"f  c #9D9921",
"g  c #8A8A34",
"h  c #85893E",
"j  c #8F9037",
"k  c #A19D23",
"l  c #A6A223",
"z  c #AAA524",
"x  c #AEA925",
"c  c #A5A32E",
"v  c #B1AD26",
"b  c #B2AD28",
"n  c #B6B227",
"m  c #BBB727",
"M  c #BFBA26",
"N  c #B6B329",
"B  c #BAB628",
"V  c #BDBA29",
"C  c #A1A135",
"Z  c #ACAB35",
"A  c #BDBC37",
"S  c #B4B73F",
"D  c #C1BD2A",
"F  c #C6C22B",
"G  c #CAC62B",
"H  c #CECA2D",
"J  c #D1CD2C",
"K  c #D5D22E",
"L  c #DAD62F",
"P  c #DDD92E",
"I  c #C6C437",
"U  c #CFCE36",
"Y  c #D9D630",
"T  c #DEDA31",
"R  c #E2DE2E",
"E  c #E1DE31",
"W  c #E5E12E",
"Q  c #E8E42F",
"!  c #E5E232",
"~  c #EAE633",
"^  c #EDE933",
"/  c #F1ED33",
"(  c #F5F235",
")  c #F9F636",
"_  c #FFFB37",
"`  c #FFFE38",
"'  c #848A44",
"]  c #858B5A",
"[  c #8D9453",
"{  c #89935C",
"}  c #949C53",
"|  c #A8AC4D",
" . c #AFB046",
".. c #B9BA46",
"X. c #839060",
"o. c #829371",
"O. c #96A179",
"+. c #B1B566",
"@. c #C3C34A",
"#. c #CDCE48",
"$. c #6F8586",
"%. c #7F9387",
"&. c #7D928E",
"*. c #738D93",
"=. c #8A9D86",
"-. c #9EAB83",
";. c #91A291",
":. c #93AA9D",
">. c #8DA7A7",
",. c #8DA7A9",
"<. c #94AEA6",
"1. c #96B0AB",
"2. c #89A7B8",
"3. c #97B1B2",
"4. c #9FB6B2",
"5. c #A7BCB5",
"6. c #9ABAC5",
"7. c #9CBED9",
"8. c #9DC0DB",
"9. c #ADC5C4",
"0. c #AAC3C8",
"q. c #A0C1D6",
"w. c #A2C5DB",
"e. c #AECEDA",
"r. c #B8D4DB",
"t. c #A3C5E0",
"y. c #ABD0E7",
"u. c #B1D3E6",
"i. c #B4D6E9",
"p. c #BCDEED",
"a. c #B5DAF0",
"s. c #C2E3F5",
"d. c None",
/* pixels */
"d.d.d.d.d.d.d.d.d.d.d.d.d.d.d.d.d.d.d.d.d.d.d.d.d.d.d.d.d.d.d.d.d.d.d.d.d.d.d.d.d.d.d.d.d.d.d.d.",
"d.d.d.d.d.d.d.d.d.d.d.d.d.d.d.d.d.d.d.d.d.d.d.d.d.d.d.d.d.d.d.d.d.d.d.d.d.d.d.d.d.d.d.d.d.d.d.d.",
"d.d.d.d.d.d.d.d.d.d.d.d.d.d.d.d.d.d.d.d.d.d.d.d.d.d.d.d.d.d.d.d.d.d.. d.d.d.d.d.d.d.d.d.d.d.d.d.",
"d.d.d.d.d.d.d.d.d.d.d.d.d.d.d.d.d.d.d.d.d.d.d.d.d.d.d.d.d.d.d.# - f f > d.d.d.d.d.d.d.d.d.d.d.d.",
"d.d.d.d.d.d.d.d.d.d.d.d.d.d.d.d.d.d.d.d.d.d.d.d.d.d.d.d.d.= v z ~ ) ` v : d.d.d.d.d.d.d.d.d.d.d.",
"d.d.d.d.d.d.d.d.d.d.d.d.d.d.d.d.d.d.d.d.d.d.d.d.d.d.d.- b F ^ ` ` ` _ ` n $ d.d.d.d.d.d.d.d.d.d.",
"d.d.d.d.d.d.d.d.d.d.d.d.d.d.d.d.d.d.d.d.d.d.d.d.# > x E ( ` _ _ _ _ ` ` V O d.d.d.d.d.d.d.d.d.d.",
"d.d.d.d.d.d.d.d.d.d.d.d.d.d.d.d.d.d.d.d.d.d.: B N / ) ` _ _ _ _ _ _ _ V * d.d.d.d.d.d.d.d.d.d.d.",
"d.d.d.d.d.d.d.d.d.d.d.d.d.d.d.d.d.d.d.d.. w z K ) ( ` ` ` _ _ _ _ _ F & d.d.d.d.d.d.d.d.d.d.d.d.",
"d.d.d.d.d.d.d.d.d.d.d.d.d.d.d.d.d.% = > r k z z z l G K ) _ ` _ ` G * d.d.d.d.d.d.d.d.d.d.d.d.d.",
"d.d.d.d.d.d.d.d.d.d.d.d.d.# 4 w B H ~ ( ) ( ( ( ! K m x z H ~ ` H * d.d.d.d.d.d.d.d.d.d.d.d.d.d.",
"d.d.d.d.d.d.d.d.d.d.d.d.c d ! / ` ` ` ` _ _ _ _ ` ` ) ) G D k N * d.d.d.d.d.d.d.d.d.= 4 d.d.d.d.",
"d.d.d.d.d.d.d.d.d.d.= f E ` ` ` _ _ _ _ _ _ _ _ _ _ _ ` ` / Y 5 ; d.d.d.d.d.d.d.d.: ! T u d.d.d.",
"d.d.d.d.d.d.d.d.d.q B ` _ _ _ _ _ _ _ _ _ _ _ _ _ _ _ _ _ _ ` ~ l d.d.d.d.d.d.d.; Y ` ` E a d.d.",
"d.d.d.d.d.d.d.d.e F ` _ _ _ _ _ _ _ _ _ _ _ _ _ _ _ _ _ _ _ _ ` ^ V d.d.d.d.d.- J ` ` _ ` N O d.",
"d.d.d.d.d.d.d.e D ` ` _ _ _ _ _ _ _ _ _ _ _ _ _ _ _ _ _ _ _ _ _ ` ( V d.d.d.= H ` _ _ ` / k d.d.",
"d.d.d.d.d.d.4 B _ _ _ _ _ _ _ _ _ _ _ _ _ _ _ _ _ _ _ _ _ _ _ _ _ ` / k : * G ` _ _ _ ` ~ d.d.d.",
"d.d.d.d.d.- z ` _ _ _ _ _ _ _ _ _ _ _ _ _ ` _ _ _ _ _ _ _ _ _ _ _ _ ` ^ 2 d ` ` _ _ _ ` l d.d.d.",
"d.d.d.d.O q _ ` _ _ _ _ _ _ _ _ _ _ _ ` ` ` _ _ _ _ _ _ _ _ _ _ _ _ _ ` E w J ` _ _ _ / x d.d.d.",
"d.d.d.d.d.T _ _ _ _ _ _ _ _ _ _ _ _ R Y m n G J ( ) _ _ _ _ _ _ _ _ _ _ ) n v ( _ ` ` F # d.d.d.",
"d.d.d.d.d / ` _ _ _ _ _ _ _ ` ` P S ' 9 &.&.$.8 h M ~ ` _ _ _ _ _ _ _ _ ` L q E ` ` ) l d.d.d.d.",
"d.d.d.+ J ` _ _ _ _ _ _ _ ` ` B g $.w.a.s.p.i.i.2.=.p ! _ _ _ _ _ _ _ _ _ _ v l ) ` / * d.d.d.d.",
"d.d.d.q ! _ _ _ _ _ _ _ ` ` V t C [ >.3.;.O.-.;.e.8.1.p W _ _ _ _ _ _ _ _ _ D s ( ` n : d.d.d.d.",
"d.d.d.x _ _ _ _ _ _ _ _ ` K v K Q n 5 Z U E W I | 4.8.<.c ^ _ _ _ _ _ _ _ ` / d T ) V d.d.d.d.d.",
"d.d.d.D _ _ _ _ _ _ _ _ ( D B H F n Q ( ` ` _ _ W ..9.7.o.T ` ` _ _ _ _ _ _ ( r H K ; d.d.d.d.d.",
"d.d.= J ` ` ` _ _ ` ` ` ! w l G J ) ` _ _ _ _ _ ` ! +.p.>.C ) _ _ _ _ _ _ _ ` B B V d.d.d.d.d.d.",
"d.d.- D / ^ E E ! E K Y f > v ~ ) ` _ _ _ _ _ _ ` _ @.0.8.} ( _ _ _ _ _ _ _ _ F d > d.d.d.d.d.d.",
"d.o * f k k l z v v z z < 5 ) _ ` _ _ _ _ _ _ _ _ _ A 5.r.7 R _ _ _ _ _ _ _ _ G 3 d.d.d.d.d.d.d.",
"d.2 J ~ ~ ~ / / / ( ) ( m D _ _ ` _ _ _ _ _ _ _ _ _ #.9.y.{ ! _ _ _ _ _ _ _ ` F @ d.d.d.d.d.d.d.",
"d.X N ` _ _ _ _ _ _ ` ` D n ` _ _ _ _ _ _ _ _ _ _ /  .r.w.{ ^ _ _ _ _ _ _ _ ` n   d.d.d.d.d.d.d.",
"d.d.3 Y ` _ _ _ _ _ _ _ G v _ _ _ _ _ _ _ _ _ ` ` W ] w.6.j ^ ` _ _ _ _ _ _ ` x   d.d.d.d.d.d.d.",
"d.d.d.G ( _ _ _ _ _ _ _ ^ f K ` _ _ _ _ _ _ _ ` ` M i :.*.A _ ` _ _ _ _ _ _ ) d d.d.d.d.d.d.d.d.",
"d.d.d.- T ` _ _ _ _ _ _ ( D F ( ` _ _ _ _ _ _ _ T J T 6 h L ` _ _ _ _ _ _ ` ( 3 d.d.d.d.d.d.d.d.",
"d.d.d.d.5 ^ ` _ _ _ _ _ ` E k K ) _ _ _ _ _ _ ^ H J ^ k z _ _ _ _ _ _ _ _ ` J - d.d.d.d.d.d.d.d.",
"d.d.d.d.d.v ( ` _ _ _ _ _ ` K f K / ` ` ` _ _ H b Y b z _ _ _ _ _ _ _ _ ` ` v d.d.d.d.d.d.d.d.d.",
"d.d.d.d.d.d.Y ) ` _ _ _ _ _ _ E k V G ^ / _ F w f z x _ _ _ _ _ _ _ _ _ ` ~ > d.d.d.d.d.d.d.d.d.",
"d.d.d.d.d.d.3 ! _ _ _ _ _ _ _ ` ~ H l l k z > e B K _ ` _ _ _ _ _ _ _ _ _ B d.d.d.d.d.d.d.d.d.d.",
"d.d.d.d.d.d.o 3 / _ _ _ _ _ _ _ ` _ ) ! T K u G ` _ _ _ _ _ _ _ _ _ _ _ ~ 1 d.d.d.d.d.d.d.d.d.d.",
"d.d.d.d.d.d.d.+ 4 ) _ _ _ _ _ _ _ _ _ _ ` ^ k E ` _ _ _ _ _ _ _ _ _ _ ` f + d.d.d.d.d.d.d.d.d.d.",
"d.d.d.d.d.d.d.d.- w ( _ _ _ _ _ _ _ _ _ ` / z ! ` _ _ _ _ _ _ _ _ _ ` V , d.d.d.d.d.d.d.d.d.d.d.",
"d.d.d.d.d.d.d.d.d.- q ( _ _ _ _ _ _ _ _ _ / k E _ _ _ _ _ _ _ _ _ ` D w d.d.d.d.d.d.d.d.d.d.d.d.",
"d.d.d.d.d.d.d.d.d.d.; 4 ~ _ ` _ _ _ _ _ ` / k E ` _ _ _ _ _ _ _ ` D q d.d.d.d.d.d.d.d.d.d.d.d.d.",
"d.d.d.d.d.d.d.d.d.d.d.% : Y ) ` _ _ _ _ ` / k E _ _ _ _ _ ` _ ) z : d.d.d.d.d.d.d.d.d.d.d.d.d.d.",
"d.d.d.d.d.d.d.d.d.d.d.d.d.# B ! ` _ _ _ _ / k E ` _ _ ` _ ` K k + d.d.d.d.d.d.d.d.d.d.d.d.d.d.d.",
"d.d.d.d.d.d.d.d.d.d.d.d.d.d.d.x J ` ` ` _ _ k L ` ` ` / E s f d.d.d.d.d.d.d.d.d.d.d.d.d.d.d.d.d.",
"d.d.d.d.d.d.d.d.d.d.d.d.d.d.d.d.5 v ( _ ` ( k K ) K F w d.# d.d.d.d.d.d.d.d.d.d.d.d.d.d.d.d.d.d.",
"d.d.d.d.d.d.d.d.d.d.d.d.d.d.d.d.d.@ 5 D ( ) r 1 w - d.d.d.d.d.d.d.d.d.d.d.d.d.d.d.d.d.d.d.d.d.d.",
"d.d.d.d.d.d.d.d.d.d.d.d.d.d.d.d.d.d.d.d.q J =   d.d.d.d.d.d.d.d.d.d.d.d.d.d.d.d.d.d.d.d.d.d.d.d."
};
