/* XPM */
static char *_3[] = {
/* columns rows colors chars-per-pixel */
"48 48 134 2 ",
"   c #151304",
".  c #1D1A06",
"X  c #2C2A09",
"o  c #302E0A",
"O  c #36330B",
"+  c #39370C",
"@  c #3B390C",
"#  c #423F0D",
"$  c #45430E",
"%  c #49470F",
"&  c #4D4B10",
"*  c #504E11",
"=  c #555412",
"-  c #585612",
";  c #5D5A13",
":  c #615F15",
">  c #656215",
",  c #686616",
"<  c #6B6917",
"1  c #716C17",
"2  c #716E18",
"3  c #767219",
"4  c #787519",
"5  c #7D7A1B",
"6  c #757B4C",
"7  c #6B7F7C",
"8  c #817E1C",
"9  c #7F8544",
"0  c #768462",
"q  c #7A8265",
"w  c #73836E",
"e  c #7C8A68",
"r  c #728470",
"t  c #7B8E79",
"y  c #85811C",
"u  c #89861D",
"i  c #8E8A1E",
"p  c #928D1F",
"a  c #94901F",
"s  c #99951F",
"d  c #87882F",
"f  c #8C8C2D",
"g  c #908D24",
"h  c #969222",
"j  c #999521",
"k  c #9D9921",
"l  c #9D9B2C",
"z  c #8D8F36",
"x  c #81863D",
"c  c #939332",
"v  c #9A9B35",
"b  c #94963A",
"n  c #A29D22",
"m  c #A19F29",
"M  c #A6A124",
"N  c #AAA524",
"B  c #AEAA25",
"V  c #B2AE26",
"C  c #B6B227",
"Z  c #B8B427",
"A  c #B7B528",
"S  c #BAB628",
"D  c #BEBA29",
"F  c #A6A734",
"G  c #AAAA32",
"H  c #B6B430",
"J  c #B9B736",
"K  c #B1B13A",
"L  c #BCBB3D",
"P  c #C3BD24",
"I  c #C1BD2A",
"U  c #C5C12A",
"Y  c #CAC62B",
"T  c #CDC92C",
"R  c #D2CE2D",
"E  c #D5D22E",
"W  c #DAD62F",
"Q  c #DDD92F",
"!  c #C4C030",
"~  c #D6D436",
"^  c #DEDB30",
"/  c #D2D03D",
"(  c #E2DD2E",
")  c #E2DE31",
"_  c #EFEA2E",
"`  c #E6E232",
"'  c #E9E532",
"]  c #EDEA33",
"[  c #F2EE34",
"{  c #F5F235",
"}  c #F9F636",
"|  c #FFFB37",
" . c #FFFE38",
".. c #8E964C",
"X. c #9A9E4F",
"o. c #939B5E",
"O. c #A0A241",
"+. c #ABAE51",
"@. c #BBBC5B",
"#. c #808C62",
"$. c #899977",
"%. c #929D74",
"&. c #9CA87B",
"*. c #CFCE40",
"=. c #718786",
"-. c #788F92",
";. c #829682",
":. c #93AA9D",
">. c #A2B193",
",. c #839EA6",
"<. c #9BB2A3",
"1. c #8AA5B2",
"2. c #8AA8B8",
"3. c #90AEB9",
"4. c #94B2B4",
"5. c #A8B9A0",
"6. c #A6BCBD",
"7. c #9DB9C4",
"8. c #9EBFCD",
"9. c #A1BED3",
"0. c #A2C1CA",
"q. c #ACC4CB",
"w. c #AAC8D2",
"e. c #A2C7D9",
"r. c #A7C8DD",
"t. c #AACADB",
"y. c #A7CDE4",
"u. c #AECCE2",
"i. c #ADD3EA",
"p. c #B4D2E3",
"a. c #B8DDEE",
"s. c #BFE1F5",
"d. c #C4E6F8",
"f. c None",
/* pixels */
"f.f.f.f.f.f.f.f.f.f.f.f.f.f.f.f.f.f.f.f.f.f.f.f.f.f.f.f.f.f.f.f.f.f.f.f.f.f.f.f.f.f.f.f.f.f.f.f.",
"f.f.f.f.f.f.f.f.f.f.f.f.f.f.f.f.f.f.1 n g u = . f.f.f.f.f.f.& y f.f.f.f.f.f.f.f.f.f.f.f.f.f.f.f.",
"f.f.f.f.f.f.f.f.f.f.f.f.f.f.f.f.f.3 W  . . .k f.f.f.f.f.f.f.y Y D S 3 + f.f.f.f.f.f.f.f.f.f.f.f.",
"f.f.f.f.f.f.f.f.f.f.f.f.f.f.f.f.% M }  . .| i f.f.f.f.f.f.% V  . . .U f.f.f.f.f.f.f.f.f.f.f.f.f.",
"f.f.f.f.f.f.f.f.f.f.f.f.f.f.f.f.h ^  .|  .| 5 f.f.f.f.f.f.& S  .|  .' C f.f.f.f.f.f.f.f.f.f.f.f.",
"f.f.f.f.f.f.f.f.f.f.f.f.f.f.f.f.I }  .| | } 4 f.f.f.f.f.f.& U  .| |  .j f.f.f.f.f.f.f.f.f.f.f.f.",
"f.f.f.f.f.f.f.f.f.f.f.f.f.f.f.g ' | | | | } < f.f.f.f.f.f.& ~ | | |  .R f.f.f.f.f.f.f.f.f.f.f.f.",
"f.f.f.f.f.f.f.f.f.f.f.f.f.f.@ U | | | | | { > f.f.f.f.f.f.* Q | | |  .{ , f.f.f.f.f.f.f.f.f.f.f.",
"f.f.f.f.f.f.f.f.f.f.f.f.f.f.5 ] | | | |  .[ ; f.f.f.f.f.f.= ' | | | |  .M f.f.f.f.f.f.f.f.f.f.f.",
"f.f.f.f.f.f.f.f.f.f.f.f.f.X S  . .| | [ ` E & f.f.f.f.f.f.* ]  . .| |  .W @ f.f.f.f.f.f.f.f.f.f.",
"f.f.f.f.f.f.f.f.f.f.f.f.f.< [  .} ^ Y D B n i n B S V n 5 = M Y '  .| | | 8 f.f.f.f.f.f.f.f.f.f.",
"f.f.f.f.f.f.f.f.f.f.f.f.f.S  .R V Z C Y ' }  . .| | { [ Q Y C M N T ' |  .Y f.f.f.f.f.f.f.f.f.f.",
"f.f.f.f.f.f.f.f.f.f.f.f.8 W C B U ) |  .| | | | | | | |  .| } ^ C h M Q | Q ; f.f.f.f.f.f.f.f.f.",
"f.f.f.f.f.f.f.f.f.f.f.f.u N I ' |  . .| | | | | | | | | | |  . . .` N p Y ] N f.f.f.f.f.f.f.f.f.",
"f.f.f.f.f.f.f.f.f.f.f.@ i R {  .| | | | | | | | | | | | | | | | |  .| T p C B $ f.f.f.f.f.f.f.f.",
"f.f.f.f.f.f.f.f.f.f.f.1 ) |  .| | | | | | | | | | | | | | | | | | | |  .` M i 8 f.f.f.f.f.f.f.f.",
"f.f.f.f.f.f.f.f.f.  : E  .| | | | | | | | | | | | | | | | | | | | | | | | ' s $ f.f.f.f.f.f.f.f.",
"f.f.f.f.f.f.f.f.f.5 I | | | | | | | | | | | | | | | | | | | | | | | | | | | Q ; f.f.f.f.f.f.f.f.",
"f.f.f.f.f.f.f.f.% B } | | | | | | | | | | | |  .| | | | | | | | | | | | | | | U $ f.f.f.f.f.f.f.",
"f.f.f.f.f.f.f.f.M '  .| | | | | | | | |  .| } } | | |  .| | | | | | | | | | | | a f.f.f.f.f.f.f.",
"f.f.f.f.f.f.f.* T  .| | | | | | | | | | { Q U l d f M P _ |  .| | | | | | | | | Q : f.f.f.f.f.f.",
"f.f.f.f.f.f.f.g {  .| | | | | | | | | W G 6 =.2.8.8.4.;...I } | | | | | | | | |  .p f.f.f.f.f.f.",
"f.f.f.f.f.f.f.R | | | | | | | | | | R 9 -.r.a.t.7.7.u.i.0.$.G { | | | | | | | |  .R $ f.f.f.f.f.",
"f.f.f.f.f.f.= ` | | | | | | | | | ( ..,.s.q.%.O.J L @.>.u.r.t A } | | | | | | |  .{ , f.f.f.f.f.",
"f.f.f.f.f.f.y  .| | | | | | | | { v ,.d.6.X.( | | } { / &.p.e.#.E | | | | | | | | | M f.f.f.f.f.",
"f.f.f.f.f.f.j  .| | | | | | | | ~ w i.w.o.` | | |  . .} *.5.d.3.c } | | | | | | | | I X f.f.f.f.",
"f.f.f.f.f.f.N  .| } | | | | | { F r <.e D | | | | | | | { +.9.y.0 ( | | | | | | | | W $ f.f.f.f.",
"f.f.f.f.f.f.V  .| | | | | | | ' f b G a { | | | | | | | } I q :.w Z  .| | | | | | | ` , f.f.f.f.",
"f.f.f.f.f.f.Z  .| | | | | | | ) n W E D  .| | | | | | |  .` l K z M | | | | | | | | ` y f.f.f.f.",
"f.f.f.f.f.f.A  .| | | | | |  .Q C E U E  .| | | | | | |  .] T ' Y V  .| | | | | |  .Q y f.f.f.f.",
"f.f.f.f.f.f.Z  .| | | | | | | ` C D Y ' | | | | | | | | | [ R E U S  .| | | | |  . .R 8 f.f.f.f.",
"f.f.f.f.f.& B  .| | | | | | | [ V a T } | | | | | | | | | [ T I V Y  .| | | | | |  .D 2 f.f.f.f.",
"f.f.f.f.f.f.M }  .| | | | | |  .S < I  . .| | | | | | | | } D h V `  . .| | | | |  .k f.f.f.f.f.",
"f.f.f.f.f.f.M '  .| | | | | |  .Z ; A | | | | | | | | | |  .M 8 T | | | | | | | | } 5 f.f.f.f.f.",
"f.f.f.f.f.f.: W | | | | |  .| T M n n ^ | | | | | | | |  .} y 8 `  .| | | | | |  .^ u f.f.f.f.f.",
"f.f.f.f.f.f.X N } | | | | | T m E { U N E {  .| | |  . .^ V N h D } | | | | | |  .C f.f.f.f.f.f.",
"f.f.f.f.f.f.f.5 ] | | | | D V Q | | | Y n B R ` [ ' R B M D [ W n T | | | | | | { 4 f.f.f.f.f.f.",
"f.f.f.f.f.f.f.f.D |  .} Z B ) | | | |  .] T N h j n V Y ^ }  . .~ M Q | | | |  .U f.f.f.f.f.f.f.",
"f.f.f.f.f.f.f.f.: ) } V m ` | | | | | | |  .| } { { { }  .| | | | Y j ` | | | ' 4 f.f.f.f.f.f.f.",
"f.f.f.f.f.f.f.f.f.8 n N [  .| | | | | | | | | | | | | | | | | | | | D k ] | | C f.f.f.f.f.f.f.f.",
"f.f.f.f.f.f.f.f.f.O N [  .| | | | | | | | | | | | | | | | | | | | | } C M { T & f.f.f.f.f.f.f.f.",
"f.f.f.f.f.f.f.f.f., W  . . .| | | | | | | | | | | | | | | | | | | |  .[ B u 1 f.f.f.f.f.f.f.f.f.",
"f.f.f.f.f.f.f.f.f.f.% y C ) |  . . .| | | | | | | | | | | | | | | | |  .' 8 . f.f.f.f.f.f.f.f.f.",
"f.f.f.f.f.f.f.f.f.f.f.f.f.u u A E ' { | | | | | | | |  . . . . . .| } { [ S > f.f.f.f.f.f.f.f.f.",
"f.f.f.f.f.f.f.f.f.f.f.f.f.f.f.f.n U I D E ` { } | | } } [ ` W E T D C j < = f.f.f.f.f.f.f.f.f.f.",
"f.f.f.f.f.f.f.f.f.f.f.f.f.f.f.f.f.f.f.@ $ - , < 2 4 1 < > 8 f.p , @ f.f.f.f.f.f.f.f.f.f.f.f.f.f.",
"f.f.f.f.f.f.f.f.f.f.f.f.f.f.f.f.f.f.f.f.f.f.f.f.f.f.f.f.f.f.f.f.f.f.f.f.f.f.f.f.f.f.f.f.f.f.f.f.",
"f.f.f.f.f.f.f.f.f.f.f.f.f.f.f.f.f.f.f.f.f.f.f.f.f.f.f.f.f.f.f.f.f.f.f.f.f.f.f.f.f.f.f.f.f.f.f.f."
};
