/* XPM */
static char *_5[] = {
/* columns rows colors chars-per-pixel */
"48 48 126 2 ",
"   c #1C1A05",
".  c #211E06",
"X  c #252307",
"o  c #272408",
"O  c #2E2C09",
"+  c #312F0A",
"@  c #33310B",
"#  c #38360C",
"$  c #3C3A0D",
"%  c #43410E",
"&  c #49460F",
"*  c #4B480F",
"=  c #4E4B10",
"-  c #514F11",
";  c #555312",
":  c #585713",
">  c #5B5A13",
",  c #615D14",
"<  c #656215",
"1  c #696616",
"2  c #6F6A17",
"3  c #716D18",
"4  c #767219",
"5  c #7A761A",
"6  c #7D791A",
"7  c #757324",
"8  c #7C7728",
"9  c #70743F",
"0  c #666E4B",
"q  c #6C754B",
"w  c #717B51",
"e  c #817D1B",
"r  c #7A8144",
"t  c #7A865B",
"y  c #72857C",
"u  c #86831C",
"i  c #8A851D",
"p  c #8D891E",
"a  c #918E1F",
"s  c #96901F",
"d  c #9A951E",
"f  c #898520",
"g  c #8C8923",
"h  c #8C8B29",
"j  c #938F20",
"k  c #969220",
"l  c #9A9521",
"z  c #9E9A21",
"x  c #94942D",
"c  c #9A9A2F",
"v  c #828532",
"b  c #888932",
"n  c #828638",
"m  c #8D903B",
"M  c #A29E22",
"N  c #A6A224",
"B  c #AAA524",
"V  c #AEA926",
"C  c #A8A52C",
"Z  c #ACA828",
"A  c #B1AD26",
"S  c #B2AD28",
"D  c #B6B227",
"F  c #BAB427",
"G  c #B7B32A",
"H  c #BBB628",
"J  c #BEBA2A",
"K  c #ABAA30",
"L  c #A3A339",
"P  c #BBB933",
"I  c #C1BC27",
"U  c #C1BD29",
"Y  c #C2BF34",
"T  c #C5C12A",
"R  c #CAC62B",
"E  c #CECA2C",
"W  c #D2CE2D",
"Q  c #D5D12E",
"!  c #DAD62F",
"~  c #DDD82E",
"^  c #D1CE31",
"/  c #D3D031",
"(  c #D9D531",
")  c #DEDA30",
"_  c #E1DD2E",
"`  c #E2DE31",
"'  c #E6E12E",
"]  c #E5E131",
"[  c #E9E632",
"{  c #EDEA33",
"}  c #F1ED34",
"|  c #F5F135",
" . c #F9F636",
".. c #FFFB37",
"X. c #FFFE38",
"o. c #8E934B",
"O. c #969A4A",
"+. c #9FA142",
"@. c #9FA455",
"#. c #BFBD48",
"$. c #929960",
"%. c #8E9B7D",
"&. c #A0A977",
"*. c #A9B172",
"=. c #738884",
"-. c #748E94",
";. c #7A9294",
":. c #7F989D",
">. c #819A9B",
",. c #889B9D",
"<. c #87A6AE",
"1. c #8DACBC",
"2. c #9EB9BF",
"3. c #93B4C3",
"4. c #ACC7CF",
"5. c #A2C4D6",
"6. c #A7CADB",
"7. c #ABCBDA",
"8. c #B0CAD4",
"9. c #B0CBD9",
"0. c #B5D1DD",
"q. c #A9CEE2",
"w. c #B1D5E9",
"e. c #BADBEE",
"r. c #BADEF2",
"t. c None",
/* pixels */
"t.t.t.t.t.t.t.t.t.t.t.t.t.t.t.t.t.t.t.t.t.t.t.t.t.t.t.t.t.t.t.t.t.t.t.t.t.t.t.t.t.t.t.t.t.t.t.t.",
"t.t.t.t.t.t.t.t.t.t.t.t.t.t.t.t.+ 2 3 3 1 X t.t.t.t.t.t.# i g k u $ t.t.t.t.t.t.t.t.t.t.t.t.t.t.",
"t.t.t.t.t.t.t.t.t.t.t.t.t.t.t.t.i  .....[ = t.t.t.t.t.t.: } ..X. .6 t.t.t.t.t.t.t.t.t.t.t.t.t.t.",
"t.t.t.t.t.t.t.t.t.t.t.t.t.t.t.@ T X.....{ ; t.t.t.t.t.t.: | ....X.E t.t.t.t.t.t.t.t.t.t.t.t.t.t.",
"t.t.t.t.t.t.t.t.t.t.t.t.t.t.t.5  .....X.{ = t.t.t.t.t.t.: | X.....{ 3 t.t.t.t.t.t.t.t.t.t.t.t.t.",
"t.t.t.t.t.t.t.t.t.t.t.t.t.t.t.H X.......{ ; t.t.t.t.t.t.: } ......X.D t.t.t.t.t.t.t.t.t.t.t.t.t.",
"t.t.t.t.t.t.t.t.t.t.t.t.t.t.1 ] ........{ - t.t.t.t.t.t.: | ........` = t.t.t.t.t.t.t.t.t.t.t.t.",
"t.t.t.t.t.t.t.t.t.t.t.t.t.t.S X.........{ - t.t.t.t.t.t.: { ........X.a t.t.t.t.t.t.t.t.t.t.t.t.",
"t.t.t.t.t.t.t.t.t.t.t.t.t.= ( X.........{ ; t.t.t.t.t.t.: | ........X.R @ t.t.t.t.t.t.t.t.t.t.t.",
"t.t.t.t.t.t.t.t.t.t.t.t.t.l X.X...X... .` * t.t.t.t.t.t.- [ ..X.....X...6 t.t.t.t.t.t.t.t.t.t.t.",
"t.t.t.t.t.t.t.t.t.t.t.t.@ T X.X.X.} W B l 6 z V J D B p 1 e k T } X.X.X.T t.t.t.t.t.t.t.t.t.t.t.",
"t.t.t.t.t.t.t.t.t.t.t.t.4  .X.[ J l V Q } ........X.X...| ] U s e B [ X.{ 1 t.t.t.t.t.t.t.t.t.t.",
"t.t.t.t.t.t.t.t.t.t.t.t.U  .T k J [ ....................X.X.X...) z u T  .V t.t.t.t.t.t.t.t.t.t.",
"t.t.t.t.t.t.t.t.t.t.t.1 Q B B ] ....................................Q p N E ; t.t.t.t.t.t.t.t.t.",
"t.t.t.t.t.t.t.t.t.t.t.u z U  .X...................................X...} S d e t.t.t.t.t.t.t.t.t.",
"t.t.t.t.t.t.t.t.t.t.. 4 R ..X.X.......................................X. .I <   t.t.t.t.t.t.t.t.",
"t.t.t.t.t.t.t.t.t.t.% E .................................................. .V o t.t.t.t.t.t.t.t.",
"t.t.t.t.t.t.t.t.t.X B ....................................................X. .l   t.t.t.t.t.t.t.",
"t.t.t.t.t.t.t.t.t.i | X.....................................................X.} e t.t.t.t.t.t.t.",
"t.t.t.t.t.t.t.t.; ( ............................................................W % t.t.t.t.t.t.",
"t.t.t.t.t.t.t.t.B X.......................[ I x v b c H [ ........................p t.t.t.t.t.t.",
"t.t.t.t.t.t.t.; ` X...................} D 9 =.1.5.5.3.;.t C { ..................X.W $ t.t.t.t.t.",
"t.t.t.t.t.t.t.g X...................{ h y 5.r.7.2.2.0.r.w.>.n _ X................. .4 t.t.t.t.t.",
"t.t.t.t.t.t.t.E X.................| x ;.e.7.%.+.P Y #.&.4.r.<.m { ................X.A t.t.t.t.t.",
"t.t.t.t.t.t.- ] ..................U y e.8.$.(  .......' @.4.r.:.C ................X.E # t.t.t.t.",
"t.t.t.t.t.t.4 ..................{ r 5.r.%./ ............[ *.e.q.w ] ................} : t.t.t.t.",
"t.t.t.t.t.t.i X.................^ =.6.:.L ..X.............J ,.q.-.G ..................6 t.t.t.t.",
"t.t.t.t.t.t.k X... ...........X.N 0 O.7 ~ ..............X.' 8 o.q i ................X.a t.t.t.t.",
"t.t.t.t.t.t.k X...............X.d U [ N  ...............X.X.J ] ( s ..................p t.t.t.t.",
"t.t.t.t.t.t.k X...............X.z Q Q G ..................X.W W { k  ...............X.p t.t.t.t.",
"t.t.t.t.t.t.p X...............X.A R T E ....................` J ( l ..................4 t.t.t.t.",
"t.t.t.t.t.t.6 ..................E N D [ ..................X.[ V V A ................| ; t.t.t.t.",
"t.t.t.t.t.t.< | ................[ i u { X.X.................} j i ) ................) % t.t.t.t.",
"t.t.t.t.t.t.* ! X.................M : { X.................X. .4 l X.X.............X.R t.t.t.t.t.",
"t.t.t.t.t.t.t.D X.............X.{ i 3 U  .X.X.X.............W 4 g [ X.............X.k t.t.t.t.t.",
"t.t.t.t.t.t.t.5 | X.......X.X.{ z U ` M S { X.X.......X.| J l ( D z { X...........] : t.t.t.t.t.",
"t.t.t.t.t.t.t.$ T ........X.{ A F  .X.{ A z S ) [ } ) U z M ] X. .H N } ........X.D t.t.t.t.t.t.",
"t.t.t.t.t.t.t.t.u | ....X.} B U  .X...X. .` U M k l M F ) ..X...X. .A M { ......[ 1 t.t.t.t.t.t.",
"t.t.t.t.t.t.t.t.t.T ..X.} V F | ................ . ...X.X.X.......X. .V N { ..X.B t.t.t.t.t.t.t.",
"t.t.t.t.t.t.t.t.t.> !  .B Z } ........................................ .V N | Q = t.t.t.t.t.t.t.",
"t.t.t.t.t.t.t.t.t.t.5 M B  ............................................. .A a 2 t.t.t.t.t.t.t.t.",
"t.t.t.t.t.t.t.t.t.t.X l } ................................................ .M o t.t.t.t.t.t.t.t.",
"t.t.t.t.t.t.t.t.t.t.; U  ...................................................` 3 t.t.t.t.t.t.t.t.",
"t.t.t.t.t.t.t.t.t.t.t.@ < k R ] ..X.X.X...................X.X.X.X...| W A u > t.t.t.t.t.t.t.t.t.",
"t.t.t.t.t.t.t.t.t.t.t.t.t.t.t.= 3 z H ! ) [ }  . . . .} { ] E U B i > $ t.t.t.t.t.t.t.t.t.t.t.t.",
"t.t.t.t.t.t.t.t.t.t.t.t.t.t.t.t.t.t.t.t.$ = ; 1 1 1 3 , = $ O t.t.t.t.t.t.t.t.t.t.t.t.t.t.t.t.t.",
"t.t.t.t.t.t.t.t.t.t.t.t.t.t.t.t.t.t.t.t.t.t.t.t.t.t.t.t.t.t.t.t.t.t.t.t.t.t.t.t.t.t.t.t.t.t.t.t.",
"t.t.t.t.t.t.t.t.t.t.t.t.t.t.t.t.t.t.t.t.t.t.t.t.t.t.t.t.t.t.t.t.t.t.t.t.t.t.t.t.t.t.t.t.t.t.t.t."
};
