/* XPM */
static char *_1[] = {
/* columns rows colors chars-per-pixel */
"48 48 131 2 ",
"   c #110F03",
".  c #181605",
"X  c #1A1905",
"o  c #232107",
"O  c #2D2A09",
"+  c #34320B",
"@  c #3F3D0D",
"#  c #413E0D",
"$  c #46440F",
"%  c #49470F",
"&  c #4B4A10",
"*  c #534F12",
"=  c #565312",
"-  c #5A5613",
";  c #5C5913",
":  c #615E14",
">  c #666315",
",  c #686516",
"<  c #6B6816",
"1  c #6D6C1A",
"2  c #726F18",
"3  c #767319",
"4  c #787619",
"5  c #7D7A1B",
"6  c #707335",
"7  c #71763D",
"8  c #667155",
"9  c #6E7F6D",
"0  c #837E1C",
"q  c #7C854A",
"w  c #748268",
"e  c #7C8A69",
"r  c #728475",
"t  c #778974",
"y  c #85821C",
"u  c #8A861D",
"i  c #8D8A1E",
"p  c #918E1F",
"a  c #94911F",
"s  c #9B961F",
"d  c #858221",
"f  c #8A8720",
"g  c #8F8821",
"h  c #969221",
"j  c #9A9521",
"k  c #9E9A22",
"l  c #93922B",
"z  c #818435",
"x  c #888A37",
"c  c #898D3B",
"v  c #939335",
"b  c #999B36",
"n  c #9E9E38",
"m  c #A19D22",
"M  c #A09E2E",
"N  c #A6A223",
"B  c #AAA524",
"V  c #AEAA25",
"C  c #A1A02B",
"Z  c #A9A72A",
"A  c #B1AD26",
"S  c #B6B227",
"D  c #BFBA26",
"F  c #B5B128",
"G  c #BAB528",
"H  c #BDB929",
"J  c #A3A53C",
"K  c #B6B431",
"L  c #BCBA32",
"P  c #C1BD2A",
"I  c #C5C12B",
"U  c #CAC62B",
"Y  c #CDC92C",
"T  c #D1CE2D",
"R  c #D6D22E",
"E  c #DAD62F",
"W  c #DDD92F",
"Q  c #C5C131",
"!  c #CAC835",
"~  c #D3D033",
"^  c #DEDA31",
"/  c #E2DE2F",
"(  c #E2DE31",
")  c #EBE62D",
"_  c #E6E232",
"`  c #EAE632",
"'  c #EDE933",
"]  c #F2EE34",
"[  c #F5F235",
"{  c #FAF636",
"}  c #FFFB37",
"|  c #FFFF38",
" . c #838B4E",
".. c #999C44",
"X. c #9FA143",
"o. c #A8AA49",
"O. c #ADB25C",
"+. c #909B63",
"@. c #919A6A",
"#. c #84907A",
"$. c #A4AA6C",
"%. c #C3BF42",
"&. c #768B84",
"*. c #728A8E",
"=. c #7B969E",
"-. c #8E9C81",
";. c #91A08D",
":. c #86A1AB",
">. c #89A6B4",
",. c #8FAEBD",
"<. c #9EB8BD",
"1. c #A1BCBD",
"2. c #AAC1BD",
"3. c #91B2C2",
"4. c #98B8C4",
"5. c #93B4C8",
"6. c #A9C1C0",
"7. c #A1C3D5",
"8. c #AACADA",
"9. c #B2CEDB",
"0. c #B7D2D7",
"q. c #A7CCE2",
"w. c #AED5ED",
"e. c #B2D2E4",
"r. c #B3D6EB",
"t. c #BBDEED",
"y. c #B7DDF1",
"u. c #BDDFF3",
"i. c #BEE3F7",
"p. c #C2E5F7",
"a. c None",
/* pixels */
"a.a.a.a.a.a.a.a.a.a.a.a.a.a.a.a.a.a.a.a.a.a.a.a.a.a.a.a.a.a.a.a.a.a.a.a.a.a.a.a.a.a.a.a.a.a.a.a.",
"a.a.a.a.a.a.a.a.a.a.a.a.a.a.a.a.a.a.a.a.a.a.a.a.a.a.a.a.a.a.a.a.a.a.a.a.a.a.a.a.a.a.a.a.a.a.a.a.",
"a.a.a.a.a.a.a.a.a.a.a.a.a.a.a.a.a.a.a.a.a.a.a.a.a.a.a.a.a.a.a.a.a.a.a.a.a.a.a.a.a.a.a.a.a.a.a.a.",
"a.a.a.a.a.a.a.a.a.a.a.a.a.a.a.a.a.a.a.a.a.a.a.a.a.a.a.a.a.a.a.a.a.a.a.a.a.a.a.a.a.a.a.a.a.a.a.a.",
"a.a.a.a.a.a.a.a.a.a.a.a.a.a.a.a.a.a.a.a.a.a.a.+ & 3 h j k p 4 < y a.a.a.a.a.a.a.a.a.a.a.a.a.a.a.",
"a.a.a.a.a.a.a.a.a.a.a.a.a.a.a.a.a.a.a.a.O - j I ` } | | | | | { ( P h k a.a.a.a.a.a.a.a.a.a.a.a.",
"a.a.a.a.a.a.a.a.a.a.a.a.a.a.a.a.a.a.O > A _ } } | } } } } } | } | | | _ A m - a.a.a.a.a.a.a.a.a.",
"a.a.a.a.a.a.a.a.a.a.a.a.a.a.a.a.a.$ N ^ } } } } } } } } } } } } } } } | | ` B 0 O # a.a.a.a.a.a.",
"a.a.a.a.a.a.a.a.a.a.a.a.a.a.a.  * A ] } } } } } } } } } } } } } } } } } } | | G , j a a.a.a.a.a.",
"a.a.a.a.a.a.a.a.a.a.a.a.a., : > P } } } } } } } } } } } } } } } } } } } } | ` B G { S > a.a.a.a.",
"a.a.a.a.a.a.a.a.a.a.a.3 B k p U { | } } } } } } } } } } } } } } } } } } | ` V F ] | R k a.a.a.a.",
"a.a.a.a.a.a.a.a.a.a.S I R B P } } } } } } } } } } } } } } } } } } } } | ' V A ' | | ' p a.a.a.a.",
"a.a.a.a.a.a.a.3 i Y [ } G N [ } } } } } } } } } } } } | } } } | } | | ] S V ' | } } } V # a.a.a.",
"a.a.a.a.a.u a Y { | | E h R | } } } } } } } } } } } { ] ] ` ' ] } | ] G V _ | } } } } R 2 a.a.a.",
"a.a.a.k m ^ } | | } ] V N } } } } } } } } } } } ] ~ M d j k m F T ( H N ` | } } } } | _ j a.a.a.",
"a.= V _ | | } } } | ^ p E | } } } } } } } } } ( v 9 *.c ` ` T k y 5 f ^ | } } } } } } ' G a.a.a.",
"a.N | | } } } } } } P j } } } } } } } } } { T  .>.r.1.n / U P G N h j T | } } } } } } { B X a.a.",
"a.N | } } } } } } ] N H | } } } } } } } } E q 3.i.9.#.p U W ) [ } | ~ m R | } } } } } } P O a.a.",
"a.k | } } } } } | ` i ( | } } } } } } } ] o.:.u.1.O.Y ] | | } } } | } U m { | } } } } } T @ a.a.",
"a.d R Y I H F V B p 5 { } } } } } } } } ( e y.6.o.[ } } | } } } } } } ] B R | } } } } } ( = a.a.",
"a.+ & & & % & & % % y | } } } } } } } { K =.u.$.) } } } } } } } } } } } U A | } } } } } ` > a.a.",
"a.a.a.a.a.a.a.a.a.a.m | } } } } } } } { b 5.e.%.} } } } } } } } } } } } _ k } } } } } } ] > a.a.",
"a.a.a.a.a.a.a.a.a.a.S | } } } } } } } { x 4.1.P } } } } } } } } } } } } ' j { } } } } } [ , a.a.",
"a.a.a.a.a.a.a.a.a.a.H | } } } } } } } } z 7.1.L } } } } } } } } } } } } _ j { } } } } } { , a.a.",
"a.a.a.a.a.a.a.a.a.a.S } } } } } } } } } l ,.8.o.} } } } } } } } } } } | Y A } } } } } } [ ; a.a.",
"a.a.a.a.a.a.a.a.a.a.N } } } } } } } } } D &.y.#.~ } } } } } } } | } } } N Y } } } } } } ] = a.a.",
"a.a.a.a.a.a.a.a.a.a.y } } } } } } } } } ) 7 7.9.@.! [ } } } } } | } | ^ m ' } } } } } } ` & a.a.",
"a.O < 4 4 y y i h p y ' } } } } } } } } } S r e.9.;...Y ' ] [ } } | ' N I { } } } } } | ( a.a.a.",
"a.> ` } | } } { } } N E } } } } } } } } } [ j &.e.i.>.6 N A U ~ T I k A [ } } } } } } | U a.a.a.",
"a., ` } | | } } } | I G { } } } } } } } } } [ C w 4.q.+.^ E Y S y > > Y } } } } } } } | A a.a.a.",
"a.> _ | } } } } } } ' m _ } } } } } } } } } } } Y x t 8 Z U U V m H A B T } | } } } } | h a.a.a.",
"a.- I [ } | | } } } | S I { } } } } } } } } } } } [ W G N N G R ] | | U B T { } } } } } 3 a.a.a.",
"a.o > a P ( { | | | | ` N ^ | } } } } } } } } } } } } | | | | | | } } | E A U [ } } | ( a.a.a.a.",
"a.a.a.. * m S T ] | | | H F ' | } } } } } } } } } } } } } } } } } } } | | E V H ] | | P a.a.a.a.",
"a.a.a.a.a.a.a.i j F ^ | } S H [ | } } } } } } } } } } } } } } } } } } } } | ( B F ' | m a.a.a.a.",
"a.a.a.a.a.a.a.a.a.< 3 i I E A P { } } } } } } } } } } } } } } } } } } } } } | ` A A ^ 4 a.a.a.a.",
"a.a.a.a.a.a.a.a.a.a.a.a.a.j u u G { | } } } } } } } } } } } } } } } } } } } | | H ; ; ; a.a.a.a.",
"a.a.a.a.a.a.a.a.a.a.a.a.a.a.a.@ $ p _ | } } } } } } } } } } } } } } } } } | [ S y a.a.a.a.a.a.a.",
"a.a.a.a.a.a.a.a.a.a.a.a.a.a.a.a.a.O : I } | } } } } } } } } } } } } | | } R H a.a.a.a.a.a.a.a.a.",
"a.a.a.a.a.a.a.a.a.a.a.a.a.a.a.a.a.a.a.; 5 Y { } } } } } } } } | } } [ ~ N 4 a.a.a.a.a.a.a.a.a.a.",
"a.a.a.a.a.a.a.a.a.a.a.a.a.a.a.a.a.a.a.a.a.a.1 Z E ' { { [ [ ' _ E P B j & a.a.a.a.a.a.a.a.a.a.a.",
"a.a.a.a.a.a.a.a.a.a.a.a.a.a.a.a.a.a.a.a.a.a.a.a.a.; 4 i g p i 5 , % a.a.a.a.a.a.a.a.a.a.a.a.a.a.",
"a.a.a.a.a.a.a.a.a.a.a.a.a.a.a.a.a.a.a.a.a.a.a.a.a.a.a.a.a.a.a.a.a.a.a.a.a.a.a.a.a.a.a.a.a.a.a.a.",
"a.a.a.a.a.a.a.a.a.a.a.a.a.a.a.a.a.a.a.a.a.a.a.a.a.a.a.a.a.a.a.a.a.a.a.a.a.a.a.a.a.a.a.a.a.a.a.a.",
"a.a.a.a.a.a.a.a.a.a.a.a.a.a.a.a.a.a.a.a.a.a.a.a.a.a.a.a.a.a.a.a.a.a.a.a.a.a.a.a.a.a.a.a.a.a.a.a.",
"a.a.a.a.a.a.a.a.a.a.a.a.a.a.a.a.a.a.a.a.a.a.a.a.a.a.a.a.a.a.a.a.a.a.a.a.a.a.a.a.a.a.a.a.a.a.a.a.",
"a.a.a.a.a.a.a.a.a.a.a.a.a.a.a.a.a.a.a.a.a.a.a.a.a.a.a.a.a.a.a.a.a.a.a.a.a.a.a.a.a.a.a.a.a.a.a.a.",
"a.a.a.a.a.a.a.a.a.a.a.a.a.a.a.a.a.a.a.a.a.a.a.a.a.a.a.a.a.a.a.a.a.a.a.a.a.a.a.a.a.a.a.a.a.a.a.a."
};
