/* XPM */
static char *_[] = {
/* columns rows colors chars-per-pixel */
"48 48 133 2 ",
"   c #1D1D1D",
".  c #391F1B",
"X  c #242424",
"o  c #282626",
"O  c #292929",
"+  c #31302F",
"@  c #343434",
"#  c #383737",
"$  c #3B3B3B",
"%  c #5E180D",
"&  c #461F19",
"*  c #711E14",
"=  c #6C2217",
"-  c #4C2823",
";  c #5F2D25",
":  c #533029",
">  c #58342E",
",  c #403F3F",
"<  c #4F3C3A",
"1  c #573D38",
"2  c #643129",
"3  c #73342A",
"4  c #663730",
"5  c #7A3D34",
"6  c #7B4035",
"7  c #7C453C",
"8  c #3F4040",
"9  c #444343",
"0  c #484746",
"q  c #4B4B4A",
"w  c #574846",
"e  c #524F4E",
"r  c #535353",
"t  c #575758",
"y  c #5C5C5C",
"u  c #634D4A",
"i  c #774841",
"p  c #7F4C43",
"a  c #745F5D",
"s  c #78605B",
"d  c #626363",
"f  c #686867",
"g  c #6C6C6C",
"h  c #716C6C",
"j  c #7D716F",
"k  c #6F7070",
"l  c #747474",
"z  c #797777",
"x  c #7C7C7C",
"c  c #8B1D07",
"v  c #901D02",
"b  c #9B1E01",
"n  c #8F2207",
"m  c #9D2A15",
"M  c #A12009",
"N  c #A32B13",
"B  c #A72F19",
"V  c #AD361F",
"C  c #8F3425",
"Z  c #843826",
"A  c #853C2B",
"S  c #933D34",
"D  c #A73F27",
"F  c #B73E23",
"G  c #8F4536",
"H  c #8E463A",
"J  c #8F493C",
"K  c #914B3F",
"L  c #B54428",
"P  c #824F45",
"I  c #934E43",
"U  c #8F5247",
"Y  c #8D564A",
"T  c #915D52",
"R  c #8B6359",
"E  c #827877",
"W  c #8A7976",
"Q  c #807C7B",
"!  c #9E7F7B",
"~  c #A3776F",
"^  c #A4847F",
"/  c #7F8080",
"(  c #838384",
")  c #8A8584",
"_  c #8C8C8C",
"`  c #908583",
"'  c #918E8E",
"]  c #8F8F90",
"[  c #928F90",
"{  c #8F9090",
"}  c #949393",
"|  c #989696",
" . c #979898",
".. c #9B9B9B",
"X. c #A48780",
"o. c #A38984",
"O. c #AA8E8A",
"+. c #B5928B",
"@. c #AC9490",
"#. c #AE9995",
"$. c #A19E9D",
"%. c #AE9C9A",
"&. c #B69B96",
"*. c #AEA19E",
"=. c #B0A29F",
"-. c #9E9FA0",
";. c #A09FA0",
":. c #9FA0A0",
">. c #A3A3A3",
",. c #ACA4A3",
"<. c #A8A7A8",
"1. c #A7A8A8",
"2. c #ABABAB",
"3. c #B5A9A5",
"4. c #B2AFAE",
"5. c #AFAFB0",
"6. c #AFB0B0",
"7. c #B4B4B4",
"8. c #B9B5B5",
"9. c #BAB8B7",
"0. c #B8B7B8",
"q. c #B7B8B8",
"w. c #BCBCBC",
"e. c #C0BDBD",
"r. c #BFBFC0",
"t. c #BFC0C0",
"y. c #C3C3C4",
"u. c #C7C7C8",
"i. c #C8C7C8",
"p. c #C7C8C9",
"a. c #CACBCC",
"s. c #CDCFD0",
"d. c None",
/* pixels */
"d.d.d.d.d.d.d.d >.l d.d.d.d.d.d.d.d.d.d.d.d.d.d.d.d.d.d.d.d.d.d.d.d.d.d.d.d.d.d.d.d.d.d.d.d.d.d.",
"d.d.d.d.d.d.d.g  .} d.d.d.d.d.d.d.d.d.d.d.d.d.d.d.d.d.d.d.d.d.d.d.d.d.d.d.d.d.d.d.d.d.d.d.d.d.d.",
"d.d.d.d.d.d.d.)  .4.d.d.d.d.d.d.d.d.d.d.d.d.d.d.d.d.d.d.d.d.d.d.d.d.d.d.d.d.d.d.d.d.d.d.d.d.d.d.",
"d.d.d.d.d.d.d.x } w. .d.d.d.d.d.d.d.d.d.d.d.d.d.d.d.d.d.d.d.d.d.d.d.d.d.d.d.d.d.d.d.d.d.d.d.d.d.",
"d.d.d.d.d.d.d.k } y.<.d.d.d.d.d.d.d.d.d.d.d.d.d.d.d.d.d.d.d.d.d.d.d.d.d.d.d.d.d.d.d.d.d.d.d.d.d.",
"d.d.d.d.d.d.8 d  .0.7.d d.d.d.d.d.d.d.d.d.d.d.d.d.d.d.d.d.d.d.d.d.d.d.d.d.d.d.d.d.d.d.d.d.d.d.d.",
"d.d.d.d.d.f d y  .7.p.z r y y y q / z q t r 9 k x 9 q q 9 9 ) d.d.d.d.d.d.d.d.d.d.d.d.d.d.d.d.d.",
"d.d.d.d.d.d.d.f ..2.a.>.d.d.d.d.d._ } 0 q q # g ..9 0 9 9 y <.r 9 9 q q 0 q q q 9 g d d.d.d.d.d.",
"d.d.d.d.d.d.d.x -.>.a.0.d.d.d.d.d.z <.d.d.d.d._ 2.d.d.d.d.r <.l d.d.d.d.d.d.d.d.d.d.d.d.d.d.d.d.",
"d.d.d.d.d.d.d.g >.>.a.p.z d.d.d.d.g 7.d.d.d.d.z 7.l d.d.d.d.2.( d.d.d.d.d.d.d.d.d.d.d.d.d.d.d.d.",
"d.d.d.d.d.d.d.r ..| a.a.-./ >.y d.( 0.z d.d.d.t 7.( d.d.d.d.2.<.d.d.d.d.d.d.d.d.d.d.d.d.d.d.d.d.",
"d.d.d.d.d.d.d.d./ :.a.a.w.} u...d.d.0._ d.d.d.d.2...d.d.d.d. .5.d.d.d.d.d.d.d.d.d.d.d.d.d.d.d.d.",
"d.d.d.d.d.d.d.d._ >.<.<.<.x 8.0.d.d.7.>.d.d.d.d.6.2.d.d.d.d._ w.x d.d.d.d.d.d.d.d.d.d.d.d.d.d.d.",
"d.d.d.d.d.d.d.g k } $.....) >.i.( d.7.2.d.d.d.d.>.w.d d.d.d._ u.x d.d.d.d.d.d.d.d.d.d.d.d.d.d.d.",
"d.d.d.d.d.d.d._  .h W O.*.$._ i.<.d.2.r.f d.d.d.} u.z d.d.d.} u. .d.d.d.d.d.d.d.d.d.d.d.d.d.d.d.",
"d.d.d.d.d.d.r _ h > 2 B D C u 9.w.r } a.x d.d.d.} p.} d.d.d.) y.<.d.d.d.d.d.d.d.d.d.d.d.d.d.d.d.",
"d.d.d.d.d.d.d.<.} ' <.#.O.! h 2.a.x ) p._ d.d.d. .a.>.d.d.d.y w.q.d.d.d.d.* = - c v d.d.d.d.d.d.",
"d.d.d.d.d.d.d.:...2.s.a.a.a.<. .a.6._  .z r d.r d } ) e d.# q  .>.f d.O < S I w 5 L N n v d.d.d.",
"d.d.d.d.d.d.q 2.| 2.a.a.a.a.W ` a.a.t.t.w.w.0.7.7.7.2.<.>.$...<.>.} g k <.9.0.( ) 7.#.R Y 1 d.d.",
"d.d.d.d.d.d.q 2.| 2.a.i.a.y.U o.a.a.a.a.a.t.y.y.u.u.a.u.a.a.a.a.a.s. .:.a.w.<.x { p.p. .0._ d.d.",
"d.d.d.d.d.d.9 2.} 7.a.a.a.e.I O.a.a.a.p.-._ [ _ _ } } ' } } }  . .$.l z } } _ z { p.u.} 8.s d.d.",
"d.d.d.d.d.9 y 2.} 7.a.i.a.e.K @.a.a.a.<.} y.y.y.y.w.w.0.7.8.7.7.7.2.z [ r.p.7.( } p.u. .0.p d.d.",
"d.d.d.d.d.# q 7.} 7.a.u.a.w.J &.a.p.a.{ 2.a.a.a.a.a.a.a.a.a.a.a.a.a.[ 2.a.a.q./ } a.y. .8.p d.d.",
"d.d.d.d.d.d.r 7.} 0.a.a.a.0.H %.a.a.a.6.] q.y.t.y.u.u.u.u.p.i.i.a.a._ 2.a.a.7./  .a.y. .7.7 d.d.",
"d.d.d.d.d.d.d 7.} 0.a.a.a.8.G %.a.a.p.a.<.}  . .}  . . . . .......>.g _ 7.y.6.x  .a.u. .8.6 d.d.",
"d.d.d.d.d.d.d 7.] w.a.a.a.9.P *.s.a.a.a.a.a.a.p.u.u.y.t.w.y.w.w.q.7.z _ } { / z ..a.y. .7.5 d.d.",
"d.d.d.d.d.d.g 7.} t.a.a.a.i.E 2.a.0.2.5.4.7.7.q.0.r.t.r.y.u.i.u.a.p.) 2.a.t...x -.a.t. .8.i d.d.",
"d.d.d.d.d.d.g 2.x ,.3.3.3.,.) e.u.z ( } y e d.d z ' x z d.g k } _ / y } y.s.5.x >.s.t...w.h d.d.",
"d.d.d.d.d.d.d ( u : Z L L A ) a.>.r 7.w.g d.d.d.1.u.x d.d.d.z w.} @ d.q a ^ ' k ) @.~ U T < d.d.",
"d.d.d.d.d.d.y >.Q l X.+.&.W 2.p.z d u.<.d.d.d.d.7.w.g d.d.d. .a._ d.d.d.4 m 3 ; N N M d.d.d.d.d.",
"d.d.d.d.d.d.d.q x ..-.:. ._ y.7.d.*.y...d.d.d.g w.<.d.d.d.d.2.u.z d.d.d.d.& . % d.d.d.d.d.d.d.d.",
"d.d.d.d.d.d.d.l <.2.<.2./ } a._ d._ y.d.d.d.d.z u._ d.d.d.d.0.7.d.d.d.d.d.d.d.d.d.d.d.d.d.d.d.d.",
"d.d.d.d.d.d.d.f } u.a.i.} 8.7.d.d. .8.d.d.d.d.} t.) d.d.d.f w. .d.d.d.d.d.d.d.d.d.d.d.d.d.d.d.d.",
"d.d.d.d.d.d.O _ } e.a.q.x 2._ d.d.7...d.d.d.d...7.d.d.d.d.k y._ d.d.d.d.d.d.d.d.d.d.d.d.d.d.d.d.",
"d.d.d.d.d.d.q ....u.a.<.d.d.d.d.x 7.( d.d.d.$ >...d.d.d.d.} 7.d.d.d.d.d.d.d.d.d.d.d.d.d.d.d.d.d.",
"d.d.d.d.d.d.z >.>.p.p._ d.d.d.d.f 6.d.d.d.d.g 7.( d.d.d.d.-.>.d.d.d.d.d.d.d.d.d.d.d.d.d.d.d.d.d.",
"d.d.d.d.d.d._ ..2.a.0.d d.d.d.d.( >.d.d.d.d._ 6.d.d.d.d.$ <./ d.d.d.d.d.d.d.d.d.d.d.d.d.d.d.d.d.",
"d.d.d.d.f y l ..7.s.-.9 9 9 8 # _ ( 9 9 @ o l ..@ d.X d.q 2.y d.d.d.d.d.d.d.d.d.d.d.d.d.d.d.d.d.",
"d.d.d.d.d.0 (  .r.a.x O # $ 8 d._ q @ @ @ @ f g @ # # @ r { $ # # 9 q 9 9 , d.q l r d.d.d.d.d.d.",
"d.d.d.d.d.d.}  .u.w.z d.d.d.d.d.d.d.d.d.d.d.d.d.d.d.d.d.d.d.d.d.  d.d.d.d.d.d.d.f d.d.d.d.d.d.d.",
"d.d.d.d.d.d.....a.-.d.d.d.d.d.d.d.d.d.d.d.d.d.d.d.d.d.d.d.d.d.d.d.d.d.d.d.d.d.d.d.d.d.d.d.d.d.d.",
"d.d.d.d.d.d. .>.a.( d.d.d.d.d.d.d.d.d.d.d.d.d.d.d.d.d.d.d.d.d.d.d.d.d.d.d.d.d.d.d.d.d.d.d.d.d.d.",
"d.d.d.d.d.y ) 7.w.g d.d.d.d.d.d.d.d.d.d.d.d.d.d.d.d.d.d.d.d.d.d.d.d.d.d.d.d.d.d.d.d.d.d.d.d.d.d.",
"d.d.d.d.d.x <.w. .d.d.d.d.d.d.d.d.d.d.d.d.d.d.d.d.d.d.d.d.d.d.d.d.d.d.d.d.d.d.d.d.d.d.d.d.d.d.d.",
"d.d.d.d.d.d.} d.y d.d.d.d.d.d.d.d.d.d.d.d.d.d.d.d.d.d.d.d.d.d.d.d.d.d.d.d.d.d.d.d.d.d.d.d.d.d.d.",
"d.d.d.d.d.d.d.d.d.d.d.d.d.d.d.d.d.d.d.d.d.d.d.d.d.d.d.d.d.d.d.d.d.d.d.d.d.d.d.d.d.d.d.d.d.d.d.d.",
"d.d.d.d.d.d.d.d.d.d.d.d.d.d.d.d.d.d.d.d.d.d.d.d.d.d.d.d.d.d.d.d.d.d.d.d.d.d.d.d.d.d.d.d.d.d.d.d.",
"d.d.d.d.d.d.d.d.d.d.d.d.d.d.d.d.d.d.d.d.d.d.d.d.d.d.d.d.d.d.d.d.d.d.d.d.d.d.d.d.d.d.d.d.d.d.d.d."
};
