/* XPM */
static char *_06[] = {
/* columns rows colors chars-per-pixel */
"48 48 114 2 ",
"   c #351D1A",
".  c #2B2B2B",
"X  c #362726",
"o  c #363636",
"O  c #383837",
"+  c #3D3D3D",
"@  c #5A1003",
"#  c #4D1C16",
"$  c #66160A",
"%  c #7E1800",
"&  c #661B10",
"*  c #69261A",
"=  c #732618",
"-  c #4D2722",
";  c #592D27",
":  c #592F2A",
">  c #50312E",
",  c #5E342C",
"<  c #423332",
"1  c #403C3C",
"2  c #523531",
"3  c #643D33",
"4  c #793E33",
"5  c #444444",
"6  c #484847",
"7  c #474A4A",
"8  c #4B4B4B",
"9  c #504F4F",
"0  c #545454",
"q  c #5C5C5C",
"w  c #624B47",
"e  c #6F534E",
"r  c #6C5956",
"t  c #665C5B",
"y  c #735A56",
"u  c #646464",
"i  c #6F6564",
"p  c #6C6B6B",
"a  c #7F6962",
"s  c #737373",
"d  c #7D7472",
"f  c #787877",
"g  c #737778",
"h  c #7B7B7B",
"j  c #831500",
"k  c #801B04",
"l  c #901601",
"z  c #991A02",
"x  c #A41E0F",
"c  c #872409",
"v  c #8E2D17",
"b  c #902310",
"n  c #9C321F",
"m  c #AB2606",
"M  c #AF2E12",
"N  c #A9341B",
"B  c #B93717",
"V  c #81372D",
"C  c #8E392A",
"Z  c #A23F2B",
"A  c #99452D",
"S  c #8C4A3F",
"D  c #914334",
"F  c #A04431",
"G  c #934C41",
"H  c #8E514A",
"J  c #985544",
"K  c #915648",
"L  c #835A56",
"P  c #8B5D55",
"I  c #A04D41",
"U  c #93645C",
"Y  c #AF6450",
"T  c #9B6D65",
"R  c #936E68",
"E  c #837C7B",
"W  c #A47468",
"Q  c #AD796F",
"!  c #A07E78",
"~  c #96817E",
"^  c #A68179",
"/  c #848484",
"(  c #888887",
")  c #868989",
"_  c #8C8C8C",
"`  c #988583",
"'  c #978E8D",
"]  c #949494",
"[  c #9B9292",
"{  c #9B9C9C",
"}  c #A6918D",
"|  c #AC9A96",
" . c #AC9D9B",
".. c #AEA19E",
"X. c #A4A4A4",
"o. c #ADA4A2",
"O. c #A7A8A9",
"+. c #ABABAB",
"@. c #B4ACAA",
"#. c #B0B0AF",
"$. c #B3B3B3",
"%. c #BBB6B6",
"&. c #B4B7B8",
"*. c #B7B9B9",
"=. c #BCBCBC",
"-. c #C0BFBF",
";. c #C0C0BF",
":. c #BDBFC0",
">. c #C3C4C4",
",. c #C8C8C7",
"<. c #C7C7C8",
"1. c #C7C9CA",
"2. c #CBCBCB",
"3. c None",
/* pixels */
"3.3.3.3.3.3.3.3.3.3.3.3.3.3.3.3.3.3.3.3.3.3.3.3.3.3.%.>.] ] 3.3.3.3.3.3.3.3.3.3.3.3.3.3.3.3.3.3.",
"3.3.3.3.3.3.3.3.3.3.3.3.3.3.3.3.3.3.3.3.3.3.3.3.3.3.X.2.{ X.q 3.q 3.3.3.3.3.3.3.3.3.3.3.3.3.3.3.",
"3.3.3.3.3.3.3.3.3.3.3.3.3.3.3.3.3.3.3.3.3.3.3.3.3.3./ 1.=.] _ 0 p 3.3.3.3.3.3.3.3.3.3.3.3.3.3.3.",
"3.3.3.3.3.3.3.3.3.3.3.3.3.3.3.3.3.3.3.3.3.3.3.3.3.3.u >.1.] O.8 3.3.3.3.3.3.3.3.3.3.3.3.3.3.3.3.",
"3.3.3.3.3.3.3.3.3.3.3.3.3.3.3.3.3.3.3.3.3.3.3.3.3.3.3.O.2.%.{ _ 3.3.3.3.3.3.3.3.3.3.3.3.3.3.3.3.",
"3.3.3.3.3.3.3.3.3.3.3.3.3.3.3.3.3.3.3.3.3.3.3.3.3.3.5 _ 2.2.] O.3.3.3.3.3.3.3.3.3.3.3.3.3.3.3.3.",
"3.3.3.3.3.3.3.3.3.3.3.3.3.3.3.3.3.3.3.3.3.3.3.3.8 0 3.p 1.2.O.X./ 3.3.3.3.3.3.3.3.3.3.3.3.3.3.3.",
"3.3.3.3.3.3.3.3.3.3.3.3.3.3.3.3.3.3.3.3.3.3.8 0 8 3.3.3.*.2.>._ _ 3.3.3.3.3.3.3.3.3.3.3.3.3.3.3.",
"3.3.3.3.3.3.3.3.3.3.3.3.3.3.3.3.3.3.3.3.3.p { 3.3.3.3.3.{ 2.2.+.O.p 3.3.3.3.3.3.3.3.3.3.3.3.3.3.",
"3.3.3.3.3.3.3.3.3.3.3.3.3.3.3.3.3.3.3.5 0 0 %.p 3.3.3.0 / 1.2.,.{ q p 0 3.3.3.3.3.3.3.3.3.3.3.3.",
"3.3.3.3.3.3.3.3.3.3.3.3.3.3.3.3.3.o 8 5 3.3.X.{ 3.3.s >._ >.@.) { _ O.s + 3.3.3.3.3.3.3.3.3.3.3.",
"3.3.3.3.3.3.3.3.3.3.3.3.3.3.3.3./ p 3.3.3.3.h =.q 3./ 2.] h _ *.' 2 r { p 3.3.3.3.3.3.3.3.3.3.3.",
"3.3.3.3.3.3.3.3.3.3.3.3.3.3.O + h O.3.3.3.3.q =.] 3.p 1.O.) >.Q v w d O.+.5 3.3.3.3.3.3.3.3.3.3.",
"3.3.3.3.3.3.3.3.3.3.3.3.3.5 5 3.q *.p 3.3.3.3.O.*.3.0 =.=.E Y B W =.>./ =./ 5 3.3.3.3.3.3.3.3.3.",
"3.3.3.3.3.3.3.3.3.3.3.h 5 3.3.3.3.O.{ 3.3.3.3./ 2./ 3.$.2.r A | 1.2.2.O.] =.q 3.3.3.3.3.3.3.3.3.",
"3.3.3.3.3.3.3.3.3.3.5 O.s 3.3.3.3._ =.u 3.3.3.t >.#.O O.2._ O.2.2.2.2.1._ $.X.9 9 3.3.3.3.3.3.3.",
"3.3.3.3.3.3.3.3.5 5 3.] O.3.3.3.3.u >.] 3.3.3.3.O.2.p / 2.O.E >.1.2.2.2.=.( >.h 3.3.3.3.3.3.3.3.",
"3.3.3.3.3.3.+ 5 O 3.3.p =.u 3.3.3.3.+.*.0 3.3.3._ 2.] s 2.,.L U <.2.2.,.2.{ { $.8 3.3.3.3.3.3.3.",
"3.3.3.3.3.8 5 3.3.3.3.3.%.{ 3.3.3.3._ 2./ 3.3.3.u { / O.2.2.@.C } 2.2.1.2.>./ =.] 8 3.3.3.3.3.3.",
"3.3.3.5 8 3.3.3.3.3.3.3.] =.q 3.3.3.p >.$.3.3.3.5 _ =.2.2.2.2.! D %.2.2.2.2.#.( >.u 3.3.3.3.3.3.",
"3.u q o 3.3.3.3.3.3.3.3.s 1._ 3.3.3.3.$.1.f 3.s $.2.2.2.1.2.2.>.G T 2.1.2.1.2.' O.@.+ 3.3.3.3.3.",
"3.u 0 3.3.3.3.3.3.3.3.3.3.%.%.3.3.3.3.] $.h ] ,.2.>.+.-.2.1.2.1. .C o.2.1.2.2.>./ $._ . 3.3.3.3.",
"3.3.3.3.3.3.3.3.3.3.3.3.3.{ 1./ 3.3.3.8 _ *.2.1.@.] ] _ { ,.1.2.1.T K <.2.2.2.*.y t _ u 3.3.3.3.",
"3.3.3.3.3.3.3.3.3.3.3.3.3.g 1.#.3.3.u O.,.2.-.{ { >.2.>./ >.2.2.2.%.e *.2.=.! V - i { u 3.3.3.3.",
"3.3.3.3.3.3.3.3.3.3.3.3.3.3.=.%.q _ :.2.>.O.] %.1.1.1.<._ >.2.2.1.2.{ _ ` A M G [ O.f q 3.3.3.3.",
"3.3.3.3.3.3.3.3.3.3.3.3.3.3.h _ $.2.2.%.] X.>.2.2.2.>.{ ] 1.2.1.=.2.2.X.> G  .:.X.) +.] 0 3.3.3.",
"3.3.3.3.3.3.3.3.  = , 1 3.0  .>.2.>.{ { =.2.2.2.2.+./ O.1.2.=.] s E ,.2.+./ X._ { >.:./ +.q 3.3.",
"3.3.3.3.3.3.3.$ ; F P ( ] p >.1.#.] +.1.2.2.2.=.' _ =.2.>._ p %.=.0 u $.2.=.s ] 2.1.2.+.] X.3.3.",
"3.3.3.3.3.3.z b 0 { 1.2.2.{ / { { >.2.1.2.<.X./ +.2.2.+.p 3.3.X.2.*.8 6 { <.>.] ] >.2.2.X.{ _ 3.",
"3.3.3.3.3.l N ` h / =.>.+._ 0 { 2.2.2.2.$.) ] >.2.-._ 5 3.3.3.3.{ 2.+.3.3./ =.@.0 h =.2.,.{  .p ",
"3.3.3.3.j n | 2.X.h s _ { $.#.h ,.2.>.] _ $.2.1. ./ +.] 3.3.3.3.3.] 1.{ 3.3.q 8 3.3.u O.1.,.] O.",
"3.3.3.3.D E =.2.>.) s +.2.2.2.' ] +./ X.1.2.%.h 3.g ,.1.( 3.3.3.3.3.] 1._ 3.3.3.3.3.3.8 ] ,.>._ ",
"3.3.3.3.X.=.] >.2.$.h / >.2.2.=.9 / :.2.>._ 6 3.3.3.h >.>.f 3.3.3.3.3.' >.h 3.3.3.3.0 5 3.h >.>.",
"3.3.3.3.r %.X.O.2.2.] h { 2.1.] ~ / 1.+.) ] q 3.3.3.3.s >.=.u 3.3.3.3.3._ *.p 3.0 8 3.3.3.3.u O.",
"3.3.3.3.3.P =.] =.2.>.E h $.] X.1./ p 0 O.2.+.3.3.3.3.3.s =.$.0 3.3.3.3.3./ $.0 3.3.3.3.3.3.3.3.",
"3.3.3.3.3.& } $.] 2.2.O.h p { 1.=.u 3.3.u #.2.{ 3.3.3.3.3.p =.O.3.3.3.3.3.8 s 0 3.3.3.3.3.3.3.3.",
"3.3.3.3.3.3.4 *.{ +.2.1._ h O.=.L < 3.3.3.q $.2._ 3.3.3.3.3.p *.{ 3.3.5 0 3.3.3.3.3.3.3.3.3.3.3.",
"3.3.3.3.3.3.@ R :._ >.2.=._ s H x X 3.3.3.3.0 O.>.h 3.3.3.3.3.u $./ 5 3.3.3.3.3.3.3.3.3.3.3.3.3.",
"3.3.3.3.3.3.3.* o.+.{ <.@.P , : # 3.3.3.3.3.3.0 O.>.p 3.3.3.3.3.0 { 5 3.3.3.3.3.3.3.3.3.3.3.3.3.",
"3.3.3.3.3.3.3.3.E *.a J N m k 3.3.3.3.3.3.3.3.3.3.O.%.q 3.3.+ 5 3.3.3.3.3.3.3.3.3.3.3.3.3.3.3.3.",
"3.3.3.3.3.3.3.3.7 3 c % 3.3.3.3.3.3.3.3.3.3.3.3.3.3.X.O.5 5 + 3.3.3.3.3.3.3.3.3.3.3.3.3.3.3.3.3.",
"3.3.3.3.3.3.3.3.3.3.3.3.3.3.3.3.3.3.3.3.3.3.3.3.3.3.+ { _ . 3.3.3.3.3.3.3.3.3.3.3.3.3.3.3.3.3.3.",
"3.3.3.3.3.3.3.3.3.3.3.3.3.3.3.3.3.3.3.3.3.3.3.3.3.3.5 + 0 3.3.3.3.3.3.3.3.3.3.3.3.3.3.3.3.3.3.3.",
"3.3.3.3.3.3.3.3.3.3.3.3.3.3.3.3.3.3.3.3.3.3.3.3.5 5 3.3.3.3.3.3.3.3.3.3.3.3.3.3.3.3.3.3.3.3.3.3.",
"3.3.3.3.3.3.3.3.3.3.3.3.3.3.3.3.3.3.3.3.3.3.5 5 3.3.3.3.3.3.3.3.3.3.3.3.3.3.3.3.3.3.3.3.3.3.3.3.",
"3.3.3.3.3.3.3.3.3.3.3.3.3.3.3.3.3.3.3.3.3.8 5 3.3.3.3.3.3.3.3.3.3.3.3.3.3.3.3.3.3.3.3.3.3.3.3.3.",
"3.3.3.3.3.3.3.3.3.3.3.3.3.3.3.3.3.3.3.+ 5 3.3.3.3.3.3.3.3.3.3.3.3.3.3.3.3.3.3.3.3.3.3.3.3.3.3.3.",
"3.3.3.3.3.3.3.3.3.3.3.3.3.3.3.3.3.3.] 5 3.3.3.3.3.3.3.3.3.3.3.3.3.3.3.3.3.3.3.3.3.3.3.3.3.3.3.3."
};
