/* XPM */
static char *_09[] = {
/* columns rows colors chars-per-pixel */
"48 48 133 2 ",
"   c #1C1A05",
".  c #222007",
"X  c #262408",
"o  c #282608",
"O  c #2D2B09",
"+  c #312E0A",
"@  c #36340B",
"#  c #38360C",
"$  c #3D3A0D",
"%  c #403D0D",
"&  c #44420E",
"*  c #49470F",
"=  c #484710",
"-  c #4B4910",
";  c #514F11",
":  c #555312",
">  c #595712",
",  c #5C5A13",
"<  c #625E14",
"1  c #656215",
"2  c #696616",
"3  c #6C6917",
"4  c #6E6C18",
"5  c #716E18",
"6  c #757219",
"7  c #7B771A",
"8  c #7D7A1A",
"9  c #71722C",
"0  c #7A7937",
"q  c #70753E",
"w  c #6D7B64",
"e  c #817E1B",
"r  c #758260",
"t  c #798A6E",
"y  c #84811C",
"u  c #8A861D",
"i  c #8E8B1E",
"p  c #928E1F",
"a  c #94901F",
"s  c #85852C",
"d  c #918F26",
"f  c #969320",
"g  c #9A9622",
"h  c #9E9922",
"j  c #93922B",
"k  c #8E933F",
"l  c #919133",
"z  c #9E9F3B",
"x  c #A29D22",
"c  c #A6A223",
"v  c #AAA624",
"b  c #AEAA25",
"n  c #ADAA2A",
"m  c #B1AD26",
"M  c #B3AE28",
"N  c #B5B127",
"B  c #B9B427",
"V  c #B3B02B",
"C  c #BAB628",
"Z  c #BDBA29",
"A  c #A4A535",
"S  c #BCBB36",
"D  c #C1BD2A",
"F  c #C1BF31",
"G  c #C6C22B",
"H  c #C9C52B",
"J  c #CECB2D",
"K  c #D1CD2D",
"L  c #D5D22E",
"P  c #D9D52E",
"I  c #DCD82F",
"U  c #C4C132",
"Y  c #D1CD35",
"T  c #D9D630",
"R  c #DEDA30",
"E  c #E1DE31",
"W  c #E6E12E",
"Q  c #E9E32D",
"!  c #EEE92F",
"~  c #F3EF2F",
"^  c #E5E131",
"/  c #E9E632",
"(  c #EDEA33",
")  c #F2EE34",
"_  c #F5F235",
"`  c #F9F636",
"'  c #FFFB37",
"]  c #FFFE38",
"[  c #868C41",
"{  c #838949",
"}  c #8D9658",
"|  c #9A9E52",
" . c #9EA142",
".. c #A6AA4E",
"X. c #A8AB4F",
"o. c #A1A75C",
"O. c #85946C",
"+. c #899668",
"@. c #8D9C75",
"#. c #8E9B7F",
"$. c #A1A969",
"%. c #B0B761",
"&. c #A2A970",
"*. c #7F9388",
"=. c #7E99A1",
"-. c #809481",
";. c #819688",
":. c #839E9E",
">. c #8DA394",
",. c #90A797",
"<. c #A6B385",
"1. c #839EA6",
"2. c #8DA7AF",
"3. c #9EB9B2",
"4. c #9EB8BE",
"5. c #ABBDA6",
"6. c #B8C8A5",
"7. c #94B3C6",
"8. c #9BBCCA",
"9. c #9BBED9",
"0. c #A0BECD",
"q. c #A1BFD4",
"w. c #A5C4D2",
"e. c #AFCFD5",
"r. c #A3C5DC",
"t. c #B2CDD9",
"y. c #B5D3DE",
"u. c #A9CDE5",
"i. c #B9D7E5",
"p. c #B5D5E8",
"a. c #B9DBEF",
"s. c #BCE1F6",
"d. c None",
/* pixels */
"d.d.d.d.d.d.d.d.d.d.d.d.d.d.d.d.d.d.d.d.d.d.d.d.d.d.d.d.% f : d.d.d.d.d.d.d.d.d.d.d.d.d.d.d.d.d.",
"d.d.d.d.d.d.d.d.d.d.d.d.d.d.d.d.d.d.d.d.d.d.d.d.d.1 2 < < ^ Z i d.d.d.d.d.d.d.d.d.d.d.d.d.d.d.d.",
"d.d.d.d.d.d.d.d.d.d.d.d.d.d.d.d.d.d.d.d.d.2 M v L L ( D h ` ] K p # d.d.d.d.d.d.d.d.d.d.d.d.d.d.",
"d.d.d.d.d.d.d.d.d.d.d.d.d.d.d.d.d.d.& b Z ( ` ] ] ] ] K c ` ' ' _ f 6 d.d.d.d.d.d.d.d.d.d.d.d.d.",
"d.d.d.d.d.d.d.d.d.d.d.d.d.d.d.d.6 6 J _ ] ] ' ' ' ' ] H b ' ' ' ' ' b d.d.d.d.d.d.d.d.d.d.d.d.d.",
"d.d.d.d.d.d.d.d.d.d.d.d.d.d.d.y v _ ] ' ' ' ' ' ' ' ' N Z ] ' ' ' ] _ G > d.d.d.d.d.d.d.d.d.d.d.",
"d.d.d.d.d.d.d.d.d.d.d.d.d.d.y D ] ] ' ' ' ' ' ' ' ' ' c H ] ' ' ' ' ] _ G & d.d.d.d.d.d.d.d.d.d.",
"d.d.d.d.d.d.d.d.d.d.d.d.d.3 L ] ] ' ' ' ' ' ' ' ' ' ` v K ' ' ' ' ' ' ] ' Z ; d.d.d.d.d.d.d.d.d.",
"d.d.d.d.d.d.d.d.d.d.d.d.: L ] ' ' ' ' ' ' ' ' ' ' ' _ c E ' ' ' ' ' ' ' ' ' b < d.d.d.d.d.d.d.d.",
"d.d.d.d.d.d.d.d.d.d.d.d.Z _ ' ' ' ' ' ' ' ' ' ' ' ] E h ) ' ' ' ' ' ' ' ' ' ] f , d.d.d.d.d.d.d.",
"d.d.d.d.d.d.d.d.d.d.O y ( ] ' ' ' ' ' ' ' ' ' ] ' ] J h ( ] ' ] ' ' ' ' ' ' ' _ 8 d.d.d.d.d.d.d.",
"d.d.d.d.d.d.d.d.d.d.1 I ] ' ' ' ' ' ' ' ' ' ] ^ J N d 3 N Z K ` ' ] ' ' ' ' ' ] E 1 d.d.d.d.d.d.",
"d.d.d.d.d.d.d.d.d.# f _ ] ' ' ' ' ' ' ' ' ' D h b u e Z L B c N K ] ' ' ' ' ' ' ' N & d.d.d.d.d.",
"d.d.d.d.d.d.d.d.d.< P ] ' ' ' ' ' ' ' ' ` b c E D M E ] ] ` _ Z b G ' ' ' ' ' ' ' ` y o d.d.d.d.",
"d.d.d.d.d.d.d.d.d.8 ) ' ' ' ' ' ' ' ' ) c s ^ I H E ` ' ' ' ] _ E x L ' ' ' ' ' ' ' E d.d.d.d.d.",
"d.d.d.d.d.d.d.d.. v ] ' ' ' ' ' ' ' ' R O.w S K P ` ' ' ' ' ' ] ' I f ( ] ' ' ' ' ] ) Z d.d.d.d.",
"d.d.d.d.d.d.d.d.X H ' ' ' ' ' ' ' ' _ l =.r.0 Z ' ' ' ' ' ' ' ' ] ) D D ' ' ' ' ' ' ] L u d.d.d.",
"d.d.d.d.d.d.d.@ 1 I ' ' ' ' ' ' ' ' W +.u.8.| ! ] ' ' ' ' ' ' ' ' ] H B ) ' ' ' ' ' ' ] h & d.d.",
"d.d.d.d.d.d.d.e a ! ' ' ' ' ' ' ' ' G *.s.6.U ' ' ' ' ' ' ' ' ' ' ] ) f / ] ' ' ' ' ' ' ^ < d.d.",
"d.d.d.d.d.d.2 N h ) ' ' ' ' ' ' ' ' n :.a.<.) ' ' ' ' ' ' ' ' ' ' ] ( v E ' ' ' ' ' ' ] ) Z d.d.",
"d.d.d.d.d.d.x J x _ ' ' ' ' ' ' ' ' S 2.p.o.! ' ' ' ' ' ' ' ' ' ] ] _ x E ] ' ' ' ' ' ' ' Z 3 d.",
"d.d.d.d.d.6 P ( i / ' ' ' ' ' ' ' ' Z >.a.&.) ' ' ' ' ' ' ' ' ' ] ] E i P ) ) ' ' ` ' ' ' ` 2 d.",
"d.d.d.d.d.C ` ^ p / ] ' ' ' ' ' ' ' ^ t u.6.Y ' ' ' ' ' ' ] ' ' _ R 6 1 a x v C Z D D Y I P c d.",
"d.d.d.d.> ^ ] _ f H ] ' ' ' ' ' ' ' Q  .7.q.%.L ' ' ' ] ' ] ` L K b 7 m / E E P D D M c c 3 $ d.",
"d.d.d.d.B ] ] _ a H ' ' ' ' ' ' ' ' ] Z @.r.4...Y _ _ _ W P m D G m c ( ] ' ] ] ] ' ' ' P 3 d.d.",
"d.d.d.2 ^ ] ' ] D d ' ' ' ' ' ' ' ' ' ` j ,.9.e.#.o.X.| } 9 G W L C K ` ' ' ' ' ' ' ' ] G > d.d.",
"d.d.d.H ] ' ' ] P x R ] ' ' ' ' ' ' ' ' / j *.8.p.i.e.y.r.3.{ V x Z ' ] ' ' ' ' ' ' ' ' N d.d.d.",
"d.d.u / ] ' ' ] _ p G ] ' ' ' ' ' ' ' ' ] W F q *.2.7.0.8.1.r j G ] ' ' ' ' ' ' ' ' ] ^ u d.d.d.",
"d.d.L ] ' ' ' ' ] Z 6 ( ' ' ' ' ' ' ' ' ' ' ' W D d k k z A P ! ] ' ' ' ' ' ' ' ' ' ' C d.d.d.d.",
"d.h ) ] ' ' ' ' H , > c ] ' ' ' ' ' ' ' ' ' ' ' ' _ _ ` _ ' ' ' ' ' ' ' ' ' ' ' ' ] / 1 d.d.d.d.",
"% H ] ' ' ] ` c : d.d.h K ] ' ' ' ' ' ' ' ' ' ' ' ' ' ' ' ' ' ' ' ' ' ' ' ' ' ' ] _ m d.d.d.d.d.",
"d.h ` ] ] ) u - d.d.d.d.B ^ ] ' ' ' ' ' ' ' ' ' ' ' ' ' ' ' ' ' ' ' ' ' ' ' ' ' ] J 1 d.d.d.d.d.",
"d.s b ' R 4 = d.d.d.d.d.d.N ( ] ' ' ' ' ' ' ' ' ' ' ' ' ' ' ' ' ' ' ' ' ' ' ' ] J 1 d.d.d.d.d.d.",
"d.d.y a , d.d.d.d.d.d.d.d.d.c ` ' ' ' ' ' ' ' ' ' ' ' ' ' ' ' ' ' ' ' ` ' ] ] D 8 d.d.d.d.d.d.d.",
"d.d.d.@ d.d.d.d.d.d.d.d.d.d.< v ) ' ' ' ' ' ' ' ' ' ' ' ' ' ' ' ' ' ' ' ' ` b d d.d.d.d.d.d.d.d.",
"d.d.d.d.d.d.d.d.d.d.d.d.d., C b Z J ] ' ' ' ' ' ' ' ' ' ' ' ' ' ' ] ' ] ^ h u d.d.d.d.d.d.d.d.d.",
"d.d.d.d.d.d.d.d.d.d.d.& 6 E ' _ H v C R ` ' ] ] ' ' ' ' ' ' ] ' ] ` _ Z y d.d.d.d.d.d.d.d.d.d.d.",
"d.d.d.d.d.d.d.d.d.d.* p ( ' ] ] ` ) C m m J ) ` ` ' ] ' ] ] ` _ K Z f = d.d.d.d.d.d.d.d.d.d.d.d.",
"d.d.d.d.d.d.d.d.d.: b ` ' ' ' ' ] ] ` ( D m v v B D C D m b d a : d.d.d.d.d.d.d.d.d.d.d.d.d.d.d.",
"d.d.d.d.d.d.d.  : L ' ] ' ' ' ' ' ] ] ] ] _ T h e $ + o $ d.d.d.d.d.d.d.d.d.d.d.d.d.d.d.d.d.d.d.",
"d.d.d.d.d.d.d.d.6 _ ] ' ' ' ] ' ] ` _ L N f d., d.d.d.d.d.d.d.d.d.d.d.d.d.d.d.d.d.d.d.d.d.d.d.d.",
"d.d.d.d.d.d.d.d.< p ] ] ' ] ^ ^ Z m 4 y X d.d.d.d.d.d.d.d.d.d.d.d.d.d.d.d.d.d.d.d.d.d.d.d.d.d.d.",
"d.d.d.d.d.d.d.d.d.< m E H f h d.< d.d.d.d.d.d.d.d.d.d.d.d.d.d.d.d.d.d.d.d.d.d.d.d.d.d.d.d.d.d.d.",
"d.d.d.d.d.d.d.d.d.d.& , - O d.d.d.d.d.d.d.d.d.d.d.d.d.d.d.d.d.d.d.d.d.d.d.d.d.d.d.d.d.d.d.d.d.d.",
"d.d.d.d.d.d.d.d.d.d.d.d.d.d.d.d.d.d.d.d.d.d.d.d.d.d.d.d.d.d.d.d.d.d.d.d.d.d.d.d.d.d.d.d.d.d.d.d.",
"d.d.d.d.d.d.d.d.d.d.d.d.d.d.d.d.d.d.d.d.d.d.d.d.d.d.d.d.d.d.d.d.d.d.d.d.d.d.d.d.d.d.d.d.d.d.d.d.",
"d.d.d.d.d.d.d.d.d.d.d.d.d.d.d.d.d.d.d.d.d.d.d.d.d.d.d.d.d.d.d.d.d.d.d.d.d.d.d.d.d.d.d.d.d.d.d.d.",
"d.d.d.d.d.d.d.d.d.d.d.d.d.d.d.d.d.d.d.d.d.d.d.d.d.d.d.d.d.d.d.d.d.d.d.d.d.d.d.d.d.d.d.d.d.d.d.d."
};
