/* XPM */
static char *_11[] = {
/* columns rows colors chars-per-pixel */
"48 48 135 2 ",
"   c #341B18",
".  c #232322",
"X  c #282727",
"o  c #2C2C2C",
"O  c #392421",
"+  c #3B2928",
"@  c #333333",
"#  c #383434",
"$  c #3B3B3B",
"%  c #671707",
"&  c #6E180D",
"*  c #6C1D12",
"=  c #682115",
"-  c #7A2013",
";  c #512620",
":  c #542C26",
">  c #403F3E",
",  c #5F3C37",
"<  c #6B362D",
"1  c #793327",
"2  c #6D3A33",
"3  c #5D413C",
"4  c #64453F",
"5  c #444444",
"6  c #484747",
"7  c #4B4B4A",
"8  c #504F4F",
"9  c #54504F",
"0  c #4F5051",
"q  c #545454",
"w  c #585757",
"e  c #5D5C5C",
"r  c #754841",
"t  c #66524F",
"y  c #645452",
"u  c #685451",
"i  c #645B59",
"p  c #795A54",
"a  c #656464",
"s  c #686767",
"d  c #6B6B6B",
"f  c #726E6D",
"g  c #796F6E",
"h  c #6F7070",
"j  c #737374",
"k  c #797776",
"l  c #7B7B7C",
"z  c #8A1C05",
"x  c #8A1E0F",
"c  c #9C1700",
"v  c #921F09",
"b  c #8D2E18",
"n  c #A42708",
"m  c #B02007",
"M  c #862E21",
"N  c #833127",
"B  c #9B3C27",
"V  c #9A3E30",
"C  c #A43927",
"Z  c #B73C20",
"A  c #8E4637",
"S  c #944A3D",
"D  c #A9442B",
"F  c #AA4232",
"G  c #A7533F",
"H  c #824C44",
"J  c #914E42",
"K  c #80524A",
"L  c #8F564B",
"P  c #955449",
"I  c #855A51",
"U  c #865F58",
"Y  c #955C53",
"T  c #8A605A",
"R  c #98655C",
"E  c #A26357",
"W  c #836761",
"Q  c #866C67",
"!  c #9A7068",
"~  c #827470",
"^  c #817D7D",
"/  c #A26D64",
"(  c #AD7364",
")  c #97807D",
"_  c #A3857E",
"`  c #B4877D",
"'  c #7F8080",
"]  c #848384",
"[  c #8A8483",
"{  c #878788",
"}  c #8C8B8C",
"|  c #928E8D",
" . c #93908F",
".. c #8F9090",
"X. c #949494",
"o. c #989797",
"O. c #999897",
"+. c #979798",
"@. c #979898",
"#. c #9C9B9C",
"$. c #A5918E",
"%. c #AB9A97",
"&. c #A19F9F",
"*. c #AD9C99",
"=. c #B19D99",
"-. c #B2A29F",
";. c #9F9FA0",
":. c #9FA0A0",
">. c #A4A4A4",
",. c #A9A5A5",
"<. c #A6A7A8",
"1. c #A8A7A8",
"2. c #A6A8A8",
"3. c #ACACAC",
"4. c #B3A7A5",
"5. c #B2A9A7",
"6. c #B5ADAC",
"7. c #B6B0AF",
"8. c #AFAFB0",
"9. c #AFB0B1",
"0. c #B4B4B5",
"q. c #BAB5B5",
"w. c #B7B7B8",
"e. c #B8B7B8",
"r. c #B7B8B9",
"t. c #BBBBBC",
"y. c #C1BFBF",
"u. c #BFBFC0",
"i. c #BFC0C0",
"p. c #C4C4C4",
"a. c #C7C7C8",
"s. c #C8C7C8",
"d. c #C7C8C9",
"f. c #CACBCC",
"g. c None",
/* pixels */
"g.g.g.g.g.g.g.g.g.g.g.g.g.g.g.g.g.g.g.g.g.g.g.g.g.g.g.g.g.g.g.g.g.g.g.g.g.g.g.g.g.g.g.g.g.g.g.g.",
"g.g.g.g.g.g.g.g.g.g.g.g.g.g.g.g.g.g.g.g.s g.g.g.g.g.g.g.g.g.g.g.g.g.g.g.g.g.g.g.g.g.g.g.g.g.g.g.",
"g.g.g.g.g.g.g.g.g.g.g.g.g.g.g.g.g.g.g.g.s q g.g.g.g.g.g.g.g.g.g.g.g.g.g.g.g.g.g.g.g.g.g.g.g.g.g.",
"g.g.g.g.g.g.g.g.g.g.g.g.g.g.g.g.g.g.g.g.g.g.g.g.g.g.g.g.g.g.g.g.g.g.g.g.g.g.g.g.g.g.g.g.g.g.g.g.",
"g.g.g.g.g.g.g.g.g.g.g.g.g.g.g.g.g.g.g.g.g.g.g.5 g.g.g.g.g.g.g.g.g.g.g.g.g.g.g.g.g.g.g.g.g.g.g.g.",
"g.g.g.g.g.g.g.g.g.g.g.g.g.g.g.g.g.g.g.g.g.g.g.g.5 g.g.g.g.g.g.g.g.g.g.g.g.g.g.g.g.g.g.g.g.g.g.g.",
"g.g.g.g.g.g.g.g.g.g.g.g.g.g.g.g.g.g.g.g.g.g.g.g.g.$ $ g.g.g.g.g.g.g.g.g.g.g.g.g.g.g.g.g.g.g.g.g.",
"g.g.g.g.g.g.g.g.g.t | J v c g.g.g.g.g.g.g.g.g.g.g.g.@ @ g.g.g.g.g.g.g.g.g.g.g.g.g.g.g.g.g.g.g.g.",
"g.g.g.g.g.g.g.g.* ) p.| ! C m g.g.g.g.g.g.g.g.g.g.g.g.o @ 5 g.g.g.g.g.g.g.g.g.g.g.g.g.g.g.g.g.g.",
"g.g.g.g.g.g.g.& T t.#.3.d.4.P - ; g.g.g.g.g.g.g.g.g.g.q } ] g.g.g.g.g.g.g.g.g.g.g.g.g.g.g.g.g.g.",
"g.g.g.g.g.g.g.I q.>.>.d.f.0.l w 1 = g.g.g.g.g.g.g.g.] 9.O.7 # g.g.g.g.g.g.g.g.g.g.g.g.g.g.g.g.g.",
"g.g.g.g.g.g.K 7.>.#.d.f.w.{ ] >./ M g.g.g.g.g.g.i +.t.X.> g.X $ . g.g.g.g.g.g.g.g.g.g.g.g.g.g.g.",
"g.g.g.g.g.r 3.1.O.p.f.t.{ j +.f.6.y g.g.g.g.g.j w.t.+.g.g.g.g.X @ X g.g.g.g.g.g.g.g.g.g.g.g.g.g.",
"g.g.g.g.f 0.3.@.p.f.p.} ' ' X.a.f.] g.g.g.g.1.p.t.h g.g.g.g.g.g.5 { s g.g.g.g.g.g.g.g.g.g.g.g.g.",
"g.g.g.g.Q 8...i.f.p. .l +.i.O.2.p.] q g.j 3.f.8.} g.g.g.g.g.g.' 1.#.6 o g.g.g.g.g.g.g.g.g.g.g.g.",
"g.g.g.g.b T r.f.p.+.l X.p.f.t...{ { 3.k 1.f.#.e g.g.g.g.g.g.+.w.+.g.g.$ $ g.g.g.g.g.g.g.g.g.g.g.",
"g.g.g.g.g.B -.f.#.l { t.f.f.d.} e 3.f.t.| k 5 g.g.g.g.g.{ 0.w.k g.g.g.g.5 @ g.g.g.g.g.g.g.g.g.g.",
"g.g.g.g.g.z G | { k { 3.p.f.1.] 1.+.r.f.t.j g.g.g.g.e X.p.0.] g.g.g.g.g.g.q ' g.g.g.g.g.g.g.g.g.",
"g.g.g.g.g.g.n 4 l w.t.+.+.+.l q.f.w.@.0.f.p.] g.g.j w.f.<.f g.g.g.g.g.g.k 3.} 5 g.g.g.g.g.g.g.g.",
"g.g.g.g.g.g.% : H *.s.f.#.q | f.f.f.t.+.3.f.p.} j t.f.#.7 g.g.g.g.g.d #.0.k g.> 6 g.g.g.g.g.f #.",
"g.g.g.g.g.g.g.O x N g @.] >.X.#.p.f.f.y.O.1.s.p.O.X.} g.g.g.g.g.g.} 0.w.{ g.g.g.> 6 . g.g.} t.f.",
"g.g.g.g.g.g.g.g.  + @ $ l a.p.o.o.p.f.f.p.#.1.p.f.#.e g.g.g.g.d #.p.1.h g.g.g.g.g.@ $ a 8.a.a.2.",
"g.g.g.g.g.g.g.g.g.g.g.g.q +.a.d.#.X.t.f.f.p.>.:.p.f.2.a g.g.{ 6.p.>.8 g.g.' g.g.g.e } p.f.p.;.+.",
"g.g.g.g.g.g.g.g.g.g.g.g.} #.X.p.f.>.X.t.f.f.p.1.#.p.f.1.w { d.d.+.g.g.} 3.t. .9 l r.f.f.t.O.#.} ",
"g.g.g.g.g.g.g.g.g.g.g.e w.p.k j t.f.1.} w.f.f.f.1.#.t.f.0.} >.j 7 ) 3.i.f.2.} #.a.f.f.0.+.;.j g.",
"0 g.g.g.g.g.g.g.g.g.g.} f.#.g.g.f t.f.8.} 0.f.f.f.1.+.p.f.t.] j 1.a.f.9.' l e.f.f.d.3.O.>.' 7 j ",
"g.7 g.g.g.g.g.g.g.g.e w.t.s g.g.g.k 0.f.0.} 3.f.f.p.| p.f.f.p.f.f.t.~ ~ 2. .>.a.d.>.O.#.j g.g.q ",
"g.g.7 g.g.g.g.g.g.g.+.p.+.g.g.g.g.} } 0.f.q.| 1.p.9.} p.f.f.f.a.O.} I D $.q.X.#.t.} { q g.g.g.g.",
"g.g.g.7 g.g.g.g.g.a t.+.g.g.g.g.d p.3.s >.f.t.+.| X.1.f.f.f.f.$.p q.y.( Z R ,.X...} g.g.g.g.g.g.",
"g.g.g.g.7 g.g.g.g.+.0.a g.g.g.g.2.f.#.g.9 #.f.p.i.s.f.f.s.f.%.A _ s.f.p._ < 3 { e @ g.g.g.g.g.g.",
"g.g.g.g.g.7 5 g.k 0.+.g.g.g.g.{ p.1.g.g.g.5 X.f.f.f.f.f.f.4.S ! p.f.f.f.s.| 3 | X.g.g.g.g.g.g.g.",
"g.g.g.g.g.g.5 6 :.X.g.g.g.g.g.1.p.l g.g.g.q l >.p.f.f.f.6.J R y.f.f.f.f.p.X.} } w g.g.g.g.g.g.g.",
"g.g.g.g.g.g.g.s 1.w g.g.g.g.{ i.O.g.g.g.g.#.p.X.#.f.f.q.P Y t.f.f.f.f.p.+.#.t.j # g.g.g.g.g.g.g.",
"g.g.g.g.g.g.g.g.s 5 g.g.g.g.1.1.g.g.g.g.s 0.p.j +.f.w.T P q.f.f.f.f.f.#.+.t.j g.g.g.g.g.g.g.g.g.",
"g.g.g.g.g.g.g.g.g.7 5 g.g.{ w.j g.g.g.g...f.+.7 w.f...[ q.f.s.f.s.f.>.X.t.] 7 g.g.g.g.g.g.g.g.g.",
"g.g.g.g.g.g.g.g.g.g.g.5 5 1.+.g.g.g.g.s 0.w.g.{ p.3.] p.f.s.f.f.f.1.} t.] g.g.g.g.g.g.g.g.g.g.g.",
"g.g.g.g.g.g.g.g.g.g.g.g.k 1.g.g.g.g.g.X.t.j g.1.f.k 2 %.f.f.f.f.3.} r.X.7 g.g.g.g.g.g.g.g.g.g.g.",
"g.g.g.g.g.g.g.g.g.g.g.g...a g.g.g.g.h w.O.g.d t.t.^ S D =.f.f.0.{ w.>.w q g.g.g.g.g.g.g.g.g.g.g.",
"g.g.g.g.g.g.g.g.g.g.g.g.g.g.7 g.g.g.+.0.g.g.} d.+.+.4.F V &.w.{ 0.>.w g.g.g.g.g.g.g.g.g.g.g.g.g.",
"g.g.g.g.g.g.g.g.g.g.g.g.g.g.g.q 7 s 3.d g.g.>.p.] ] 1.*.2 , f 3.>.w 5 g.g.g.g.g.g.g.g.g.g.g.g.g.",
"g.g.g.g.g.g.g.g.g.g.g.g.g.g.g.g.8 +.X.g.g.g.:.:.#.t.} >.} t j 3.s g.g.g.g.g.g.g.g.g.g.g.g.g.g.g.",
"g.g.g.g.g.g.g.g.g.g.g.g.g.g.g.g.g.} q g.g.g.g.j w.f.t.X.} X.X.s g.g.g.g.g.g.g.g.g.g.g.g.g.g.g.g.",
"g.g.g.g.g.g.g.g.g.g.g.g.g.g.g.g.g.g.q q g.g.g.k d.f.p.1.] a s X g.g.g.g.g.g.g.g.g.g.g.g.g.g.g.g.",
"g.g.g.g.g.g.g.g.g.g.g.g.g.g.g.g.g.g.g.e q g.g.1.f.d.o.{ s g.g.g.g.g.g.g.g.g.g.g.g.g.g.g.g.g.g.g.",
"g.g.g.g.g.g.g.g.g.g.g.g.g.g.g.g.g.g.g.g.g.q d u.f.1.#.X.g.g.g.g.g.g.g.g.g.g.g.g.g.g.g.g.g.g.g.g.",
"g.g.g.g.g.g.g.g.g.g.g.g.g.g.g.g.g.g.g.g.g.g.} f.t.+.#.g.g.g.g.g.g.g.g.g.g.g.g.g.g.g.g.g.g.g.g.g.",
"g.g.g.g.g.g.g.g.g.g.g.g.g.g.g.g.g.g.g.g.g.g.9.a.O.#.] g.g.g.g.g.g.g.g.g.g.g.g.g.g.g.g.g.g.g.g.g.",
"g.g.g.g.g.g.g.g.g.g.g.g.g.g.g.g.g.g.g.g.g.j a.9.O.] g.g.g.g.g.g.g.g.g.g.g.g.g.g.g.g.g.g.g.g.g.g."
};
