/* XPM */
static char *_15[] = {
/* columns rows colors chars-per-pixel */
"48 48 134 2 ",
"   c #171404",
".  c #1B1905",
"X  c #222007",
"o  c #272508",
"O  c #2D2B09",
"+  c #35330B",
"@  c #38360B",
"#  c #3D3B0D",
"$  c #403F0D",
"%  c #45420E",
"&  c #48460F",
"*  c #4D4B10",
"=  c #504E11",
"-  c #555212",
";  c #585513",
":  c #5C5A13",
">  c #625F14",
",  c #666315",
"<  c #6A6616",
"1  c #6D6A17",
"2  c #6F6C18",
"3  c #706D17",
"4  c #726F18",
"5  c #757119",
"6  c #7A7619",
"7  c #7D7A1B",
"8  c #767937",
"9  c #75793F",
"0  c #727948",
"q  c #717D5A",
"w  c #807C1B",
"e  c #807E20",
"r  c #7F8851",
"t  c #76856D",
"y  c #7C8A6B",
"u  c #778973",
"i  c #85821C",
"p  c #89861D",
"a  c #8C891E",
"s  c #918D1F",
"d  c #95911F",
"f  c #878421",
"g  c #959120",
"h  c #9A9520",
"j  c #9E9B22",
"k  c #868730",
"l  c #888B3D",
"z  c #A19E23",
"x  c #A09C2D",
"c  c #A5A123",
"v  c #AAA524",
"b  c #ADA925",
"n  c #ACAA29",
"m  c #B1AD26",
"M  c #B6B227",
"N  c #B8B427",
"B  c #BDB826",
"V  c #B6B328",
"C  c #BBB628",
"Z  c #BDB929",
"A  c #A4A333",
"S  c #A0A23F",
"D  c #B4B334",
"F  c #BEBC3B",
"G  c #C1BD2A",
"H  c #C0BE38",
"J  c #C6C125",
"K  c #C6C22A",
"L  c #C9C52B",
"P  c #CECA2C",
"I  c #D2CE2D",
"U  c #D5D12E",
"Y  c #D9D52F",
"T  c #DEDA2F",
"R  c #CECC33",
"E  c #C3C43A",
"W  c #D0CE33",
"Q  c #DAD631",
"!  c #DFDC30",
"~  c #D6D439",
"^  c #E1DC2F",
"/  c #E1DE31",
"(  c #E6E12E",
")  c #E5E232",
"_  c #E9E632",
"`  c #EDEA33",
"'  c #E3E138",
"]  c #F2EE34",
"[  c #F5F235",
"{  c #F9F636",
"}  c #FFFB37",
"|  c #FFFE38",
" . c #8E934C",
".. c #939744",
"X. c #989C42",
"o. c #93994D",
"O. c #99A153",
"+. c #AAAD4C",
"@. c #B7B840",
"#. c #B4B553",
"$. c #778C84",
"%. c #7E9486",
"&. c #758E93",
"*. c #819587",
"=. c #8C9F87",
"-. c #819689",
";. c #84998C",
":. c #97A68F",
">. c #9EAD8E",
",. c #9EAE96",
"<. c #96AA9E",
"1. c #A7B696",
"2. c #899EA1",
"3. c #9FB6AB",
"4. c #84A2B3",
"5. c #93B0B2",
"6. c #9DB2B0",
"7. c #94B2B8",
"8. c #9AB7B8",
"9. c #A5B9AD",
"0. c #B4C7B3",
"q. c #9FC0DA",
"w. c #A6C7D2",
"e. c #A2C5DA",
"r. c #ADCDDA",
"t. c #B2CFD2",
"y. c #ACCDE5",
"u. c #A9D0E8",
"i. c #B1D4E4",
"p. c #B8D9EE",
"a. c #B6DCF4",
"s. c #BBDEF3",
"d. c #BCE1F6",
"f. c None",
/* pixels */
"f.f.f.f.f.f.f.f.f.f.f.f.f.f.f.f.f.f.f.f.f.f.f.O K N s f.X f.f.f.f.f.f.f.f.f.f.f.f.f.f.f.f.f.f.f.",
"f.f.f.f.f.f.f.f.f.f.f.f.f.f.f.f.f.f.f.f.f.- i 4 I | / L 5 : f.f.f.f.f.f.f.f.f.f.f.f.f.f.f.f.f.f.",
"f.f.f.f.f.f.f.f.f.f.f.f.f.f.f.f.f.f.f.w G ! ] b K | | } } Z h f.f.f.f.f.f.f.f.f.f.f.f.f.f.f.f.f.",
"f.f.f.f.f.f.f.f.f.f.f.f.f.f.f.f.2 i P [ } | } b K | } | } | ) G : o f.f.f.f.f.f.f.f.f.f.f.f.f.f.",
"f.f.f.f.f.f.f.f.f.f.f.f.f.f.f.f.V { } | } } | C C | } } } } | { / i % f.f.f.f.f.f.f.f.f.f.f.f.f.",
"f.f.f.f.f.f.f.f.f.f.f.f.f.& 5 / { | } } } } | K m { } } } } } | } { b , f.f.f.f.f.f.f.f.f.f.f.f.",
"f.f.f.f.f.f.f.f.f.f.f.f.f.i [ } | } } } } } | K b } } } } } } } } } | U 4 f.f.f.f.f.f.f.f.f.f.f.",
"f.f.f.f.f.f.f.f.f.f.f.f.g [ | } | } } } } } | I b { } } } } } } } } } | ) 7 ; f.f.f.f.f.f.f.f.f.",
"f.f.f.f.f.f.f.f.f.f.f.s / | } } } } } } } } } / v ] } } } } } } } } } } | [ 7 % f.f.f.f.f.f.f.f.",
"f.f.f.f.f.f.f.f.f.f.3 U | } } } } } } } } } | / z ` | } | | } } } } } } } } [ p + f.f.f.f.f.f.f.",
"f.f.f.f.f.f.f.f.f.@ z | } } } } } } } } } } | W f L K P / ] | | } } } } } } } ` c f.f.f.f.f.f.f.",
"f.f.f.f.f.f.f.f.f.< _ } } } } } } } } } | ) K s < b b m h N N [ } } } } } } } } / N f.f.f.f.f.f.",
"f.f.f.f.f.f.f.f.f.m { | } } } } } } } | I c j p C } } { ] W Z z ) | } } } } } } | P p f.f.f.f.f.",
"f.f.f.f.f.f.f.f.- U | } } } } } } } | ! h U C G { } } } | } [ P h / | } } } } } | | G * f.f.f.f.",
"f.f.f.f.f.f.f.f.w { } } } } } } } } ` d U / K ) { } } } } } } [ P M ` } } } } } } } | C f.f.f.f.",
"f.f.f.f.f.f.f.f.z } | } } } } } } { b 8 R ^ P { } } } } } } } } ) v I | } } } } } } } / j f.f.f.",
"f.f.f.f.f.f.f.# L | } } } } } } } [ O.&. .n ' | } } } } } } } } | I c ] | } } } } } } | L - f.f.",
"f.f.f.f.f.f.f.< I } } } } } } } | Y q u.2.j { | } } } } } } } } | / c _ | } } } } | | | } b f.f.",
"f.f.f.f.f.f.f.% _ } } } } } } } } P ;.a.9.K } } } } } } } } } } | [ b T } [ [ ` / Q I G N 6 * f.",
"f.f.f.f.f.f.f.& _ } } } } } } } } Z *.d.1.' } } } } } } } } } | | [ 6 s V v m b b z v N a O f.f.",
"f.f.f.f.f.f.  ; / | } } } } } } } P %.d.>.Y } } } } } } } } } } [ b : g I W / _ ] ] { | G f.f.f.",
"f.f.f.f.f.f.5 6 T } } } } } } } } Q y y.9.~ } } } } } } } } | ) U h p _ | } | } } } } | v % f.f.",
"f.f.f.f.f.f.1 g U | } } } } } } } ` ..w.t.#.` | } } } } } } U G K b C { } } } } } } } } L f.f.f.",
"f.f.f.f.f.f.C C G } } } } } } } } } E $.y.0.F ( } } } } _ K b Y U Z P } } } } } } } | [ g f.f.f.",
"f.f.f.f.f., K L d { } } } } } } } } ( S 7.q.9.O.E T P F  .0 A W B c { | | } } } } } | _ 4 f.f.f.",
"f.f.f.f.f.a [ / h _ } } } } } } } } } I  .8.q.u.<.,.:.3.r.e.*.0 h _ | } } } } } } } | L * f.f.f.",
"f.f.f.f.f.m { { h M } } } } } } } } } | U k O.4.i.y.d.p.e.5.y D / | } } } } } } } | { b f.f.f.f.",
"f.f.f.f.@ G | } C j { } } } } } } } } } | _ M S 0 t t y r A W ] | } } } } } } } } } _ 5 f.f.f.f.",
"f.f.f.f.5 _ | | [ a V } } } } } } } } } } | { [ T Y J Y _ [ | | } } } } } } } } } | j % f.f.f.f.",
"f.f.f.f.i { } } } L c / | } } } } } } } } } } } | | | | } } } } } } } } } } } } | L 1 f.f.f.f.f.",
"f.f.f.f.Z | } } | ] d b } } } } } } } } } } } } } } } } } } } } } } } } } { | | ) f f.f.f.f.f.f.",
"f.f.f.p Y | } } } | ) > c } | } } } } } } } } } } } } } } } } } } } } } } } | ` h f.f.f.f.f.f.f.",
"f.f.f.p { | } } } { a $ i V { | } } } } } } } } } } } } } } } } } } } } } | { z f.f.f.f.f.f.f.f.",
"f.f.f.P { } | } } j * f.f.f.G ] | } } } } } } } } } } } } } } } } } } } } | j i f.f.f.f.f.f.f.f.",
"f.f.; P | } } | C = f.f.f.f.f.m / | } } } } } } } } } } } } } } } } | } ) p : f.f.f.f.f.f.f.f.f.",
"f.f.= K | | | P ; f.f.f.f.f.f.f.d G { } | } } } } } } } } } } } | } [ n Z f.f.f.f.f.f.f.f.f.f.f.",
"f.f.f.a V | _ , f.f.f.f.f.f.f.f.% p m U _ | } | | } | | } | | [ _ V a - f.f.f.f.f.f.f.f.f.f.f.f.",
"f.f.f.f.e j 5 f.f.f.f.f.f.f.f.& p ] G Z j Z K / / ] ` _ _ I V a 4 - f.f.f.f.f.f.f.f.f.f.f.f.f.f.",
"f.f.f.f.f.& O f.f.f.f.f.f.f.% 6 ] } | ] _ G C z v v z d < # O f.f.f.f.f.f.f.f.f.f.f.f.f.f.f.f.f.",
"f.f.f.f.f.f.f.f.f.f.f.f.f.f., _ } } } | | | | [ { Q b i o f.f.f.f.f.f.f.f.f.f.f.f.f.f.f.f.f.f.f.",
"f.f.f.f.f.f.f.f.f.f.f.f.f.- Y } } } } } } | | [ Z m f.f.f.f.f.f.f.f.f.f.f.f.f.f.f.f.f.f.f.f.f.f.",
"f.f.f.f.f.f.f.f.f.f.f.f.= K } } } } } | } { K a % f.f.f.f.f.f.f.f.f.f.f.f.f.f.f.f.f.f.f.f.f.f.f.",
"f.f.f.f.f.f.f.f.f.f.f.o c | } } } | } { L g ; f.f.f.f.f.f.f.f.f.f.f.f.f.f.f.f.f.f.f.f.f.f.f.f.f.",
"f.f.f.f.f.f.f.f.f.f.f.@ 7 _ | | } { G h 1 f.f.f.f.f.f.f.f.f.f.f.f.f.f.f.f.f.f.f.f.f.f.f.f.f.f.f.",
"f.f.f.f.f.f.f.f.f.f.f.f.f.6 Y { L 7 w f.f.f.f.f.f.f.f.f.f.f.f.f.f.f.f.f.f.f.f.f.f.f.f.f.f.f.f.f.",
"f.f.f.f.f.f.f.f.f.f.f.f.f.f., < 4 . f.f.f.f.f.f.f.f.f.f.f.f.f.f.f.f.f.f.f.f.f.f.f.f.f.f.f.f.f.f.",
"f.f.f.f.f.f.f.f.f.f.f.f.f.f.f.f.f.f.f.f.f.f.f.f.f.f.f.f.f.f.f.f.f.f.f.f.f.f.f.f.f.f.f.f.f.f.f.f.",
"f.f.f.f.f.f.f.f.f.f.f.f.f.f.f.f.f.f.f.f.f.f.f.f.f.f.f.f.f.f.f.f.f.f.f.f.f.f.f.f.f.f.f.f.f.f.f.f."
};
