/* XPM */
static char *_16[] = {
/* columns rows colors chars-per-pixel */
"48 48 104 2 ",
"   c #1E1E1E",
".  c #3E1C17",
"X  c #301B1A",
"o  c #2D2D2D",
"O  c #3A2C2B",
"+  c #343434",
"@  c #3C3C3C",
"#  c #5A140A",
"$  c #6C1F0C",
"%  c #741F0D",
"&  c #6E271B",
"*  c #7F281B",
"=  c #4D2A24",
"-  c #532923",
";  c #582B26",
":  c #4E332F",
">  c #423C3C",
",  c #603029",
"<  c #7B332D",
"1  c #783A2F",
"2  c #763A32",
"3  c #40403F",
"4  c #7B4337",
"5  c #444443",
"6  c #4B4B4B",
"7  c #535353",
"8  c #5C5352",
"9  c #5C5B5B",
"0  c #6C4E49",
"q  c #69514B",
"w  c #665D5C",
"e  c #705A58",
"r  c #646463",
"t  c #6B6B6B",
"y  c #746664",
"u  c #736C6B",
"i  c #737373",
"p  c #7C7574",
"a  c #727778",
"s  c #7C7C7C",
"d  c #911702",
"f  c #911D02",
"g  c #981F08",
"h  c #A91D0B",
"j  c #91260A",
"k  c #902414",
"l  c #962A15",
"z  c #993217",
"x  c #AF250C",
"c  c #AC3316",
"v  c #B93717",
"b  c #8F392A",
"n  c #9D3B20",
"m  c #823F34",
"M  c #804131",
"N  c #8F4A3D",
"B  c #904132",
"V  c #914538",
"C  c #934D3F",
"Z  c #A24A3B",
"A  c #AC503E",
"S  c #845249",
"D  c #945348",
"F  c #9C584B",
"G  c #965C52",
"H  c #A1574B",
"J  c #876257",
"K  c #836966",
"L  c #926964",
"P  c #9B6F67",
"I  c #867875",
"U  c #9E7971",
"Y  c #9C7F7B",
"T  c #AB7767",
"R  c #9F827B",
"E  c #A4827C",
"W  c #B2877E",
"Q  c #848484",
"!  c #888686",
"~  c #8C8C8C",
"^  c #9C8581",
"/  c #939493",
"(  c #999493",
")  c #989897",
"_  c #9B9B9B",
"`  c #A58A85",
"'  c #A5908B",
"]  c #A09593",
"[  c #AE9994",
"{  c #A79D9B",
"}  c #AB9D99",
"|  c #A0A09F",
" . c #A3A3A3",
".. c #AFA3A1",
"X. c #ACACAC",
"o. c #B2A8A6",
"O. c #B4B3B3",
"+. c #BAB7B7",
"@. c #BCBCBC",
"#. c #BFC0C0",
"$. c #C4C4C4",
"%. c #C6C8C9",
"&. c #CBCBCB",
"*. c None",
/* pixels */
"*.*.*.*.*.*.*.*.*.*.*.*.*.*.*.*.*.) &.O.~  .3 9 Q *.*.*.*.*.*.*.*.*.*.*.*.*.*.*.*.*.*.*.*.*.*.*.",
"*.*.*.*.*.*.*.*.*.*.*.*.*.*.*.*.*.7 O.&.X./ _ 6 *.*.*.*.*.*.*.*.*.*.*.*.*.*.*.*.*.*.*.*.*.*.*.*.",
"*.*.*.*.*.*.*.*.*.*.*.*.*.*.*.*.*.*.i $.&.X.) _ *.*.*.*.*.*.*.*.*.*.*.*.*.*.*.*.*.*.*.*.*.*.*.*.",
"*.*.*.*.*.*.*.*.*.*.*.*.*.*.*.*.*.*.*.! &.&. .) _ *.*.*.*.*.*.*.*.*.*.*.*.*.*.*.*.*.*.*.*.*.*.*.",
"*.*.*.*.*.*.*.*.*.*.*.*.*.*.*.*.*.*.*.*. .&.&.{ _ _ *.*.*.*.*.*.*.*.*.*.*.*.*.*.*.*.*.*.*.*.*.*.",
"*.*.*.*.*.*.*.*.*.*.*.*.*.*.*.*.*.*.*.*.7 +.&.&. .| s *.*.*.*.*.*.*.*.*.*.*.*.*.*.*.*.*.*.*.*.*.",
"*.*.*.*.*.*.*.*.*.*.*.*.*.*.*.*.*.*.*.7 *.a %.&.&._ _ ! o t o *.*.*.*.*.*.*.*.*.*.*.*.*.*.*.*.*.",
"*.*.*.*.*.*.*.*.*.*.*.*.*.*.*.*.*.*.6 5 *.*./ &.&.&.@.s s X.i 5 *.*.*.*.*.*.*.*.*.*.*.*.*.*.*.*.",
"*.*.*.*.*.*.*.*.*.*.*.*.*.*.*.*.*.5 7 *.*.*.@ X.&.%.! X.t y _  .6 *.*.*.*.*.*.*.*.*.*.*.*.*.*.*.",
"*.*.*.*.*.*.*.*.*.*.*.*.*.*.*.*.i r *.*.*.*.Q ! @.) | { = 0 Q +.X.t *.*.*.*.*.*.*.*.*.*.*.*.*.*.",
"*.*.*.*.*.*.*.*.*.*.*.*.*.*.*.*.t O.t *.*.9 $.X.t / @.A 4 O.O.! X.@.s @ 7 *.*.*.*.*.*.*.*.*.*.*.",
"*.*.*.*.*.*.*.*.*.*.*.*.*.*.*.7 @ ~ +.r *.*. .&.~  .W v [ &.&.#.~ ) $./ 6 *.*.*.*.*.*.*.*.*.*.*.",
"*.*.*.*.*.*.*.*.*.*.*.*.*.*.5 6 *.*. .+.r *.t $.$.p z T &.&.&.&.%._ ! @.X.7 5 *.*.*.*.*.*.*.*.*.",
"*.*.*.*.*.*.*.*.*.*.*.*.*.+ 5 *.*.*.7 +.O.r *.) &.X.q @.&.&.&.%.&.&.X.! O.O.t *.*.*.*.*.*.*.*.*.",
"*.*.*.*.*.*.*.*.*.*.*.*.t s *.*.*.*.*.t $.O.7 7 @.&.) / +.&.&.&.&.&.&.+.Q _ $.! @ *.*.*.*.*.*.*.",
"*.*.*.*.*.*.*.*.*.*.*.*.9 O.Q *.*.*.*.*.Q &.O.6 s &.$.p M ` %.&.&.&.&.&.%.~ / @._ 5 *.*.*.*.*.*.",
"*.*.*.*.*.*.*.*.*.*.*.5 + a @.s *.*.*.*.*._ &.O.7 X.&.%.` b P #.&.&.&.%.&.&.) 8 ! { *.*.*.*.*.*.",
"*.*.*.*.*.*.*.*.*.*.5 5 *.*.~ %.s *.*.*.*.*.X.&.Q X.&.&.&...V D O.&.&.&.&.%.I - s s 5 *.*.*.*.*.",
"*.*.*.*.*.*.*.*.*.+ 5 *.*.*.*. .$.a *.*.*.*.t ~ ) &.%.%.&.&.+.G B } &.&.%.E k e X.Q _ r *.*.*.*.",
"*.*.*.*.*.*.*.*.r ! *.*.*.*.*.7 O.$.i *.*.*.*.i %.%.&.&.&.&.&.$.U 4 O.&.' c H +.~ X. ./ X.i *.*.",
"*.*.*.*.*.*.*.*.5 X./ *.*.*.*.*.t %.@.i *.*.r @.&.#.@.#.%.&.&.&.&.) Q ! * F @._ ) &.%. .~ X./ 5 ",
"*.*.*.*.*.*.*.5 + r +.~ *.*.*.*.*.! &.$.t 5 X.&.+.! / Q ..&.&.&.&.&.+.) w Q ) Q %.&.&.&.@._ /  .",
"*.*.*.*.*.*.@ 5 *.*.s %.! *.*.*.*.*._ &.~ ) &.$./ @.&.+.~ &.%.&.+.@.&.&.&.O./ Q / X.@.&.&.&.+._ ",
"*.*.*.*.*.*.5 *.*.*.*.) %.! *.*.*.*.7 ! / &.%._ X.&.&.%.! %.&.+.Q 9 r / O.$.&.&.X.6 9 Q  .@.&.&.",
"*.*.*.*.*.5 *.*.*.*.*.*.X.&.Q *.*.*.*.t $.&. .| &.&.&.| _ &.@.! @.+.s + *.r ! | s *.*.*.@ 7 a _ ",
"*.*.*.*.6 *.*.*.*.*.*.*.9 +.%.Q *.*.9 O.&.O.) %.&.&.X.~ %.&.s 9 X.&.&.O.i *.*.*.*.*.*.*.7 *.*.*.",
"*.*.*.6 5 *.*.*.*.*.*.*.*.a %.%.s @ X.&.@./ #.&.&.@.Q @.&.) *.*.*.t { $.%.| r *.*.*.*.7 *.*.*.*.",
"*.*.@ @ *.*.*.*.*.*.*.*.*.*.~ &.) / &.%.) O.&.&.%.! O.&. .*.*.*.*.*.*.r / +.@./ *.*.6 6 *.*.*.*.",
"*.7 s *.*.*.*.*.*.*.*.*.*.*.*.! ~ %.&._ X.&.&.&./ | &.+.s r *.*.*.*.*.*.*.7 ! O.O.a 5 *.*.*.*.*.",
"*.5 *.*.*.*.*.*.*.*.*.*.*.*.*.t $.&.X._ %.&.&. ./ &.$.! O.%.) 9 *.*.*.*.*.*.*.*.i _ 7 *.*.*.*.*.",
"*.*.*.*.*.*.*.*.*.*.*.*.> + @ ! &.+./ %.&.&.O.! #.&.! 7 | #.&.@.! *.*.*.*.*.*.*.6 *.*.*.*.*.*.*.",
"*.*.*.*.*.*.*.*.*.*.. l 2 ! O.! s ~ @.&.&.#.Q @.&._ *.*.*.9 / +.&.X.a *.*.*.*.6 *.*.*.*.*.*.*.*.",
"*.*.*.*.*.*.*.*.*.*.; D ..&.&.@.t r O.&.&.~ X.&.O.6 *.*.*.*.*.*.Q X.%. .r *.5 5 *.*.*.*.*.*.*.*.",
"*.*.*.*.*.*.*.*.*.d , a O.&.O.! O.O.a  ._ _ &.@.s t *.*.*.*.*.*.*.*.i  .+.~ 6 *.*.*.*.*.*.*.*.*.",
"*.*.*.*.*.*.*.*.*.x K s s Q ! #.&.&.#.t 9 $.%.! X.&. .r *.*.*.*.*.*.*.*.9 ~ t *.*.*.*.*.*.*.*.*.",
"*.*.*.*.*.*.*.*.d Z $.X.s i ~ $.&.%.&.~ Q Q ! 6 ) +.&.$./ 7 *.*.*.*.*.*.5 *.*.*.*.*.*.*.*.*.*.*.",
"*.*.*.*.*.*.*.*.j ^ &.&.@.! s ! +.&.O./ &.~   *.*.7 ! O.%.+.Q *.*.*.*.5 @ *.*.*.*.*.*.*.*.*.*.*.",
"*.*.*.*.*.*.*.*.C ~ O.&.&.%./ s s X./ O.&.p o *.*.*.*.*.s  .$.X.i *.@ 5 *.*.*.*.*.*.*.*.*.*.*.*.",
"*.*.*.*.*.*.*.*.] &.) | %.&.&. .s p i &.O.< O *.*.*.*.*.*.*.t _ O._ 7 *.*.*.*.*.*.*.*.*.*.*.*.*.",
"*.*.*.*.*.*.*.*.8 R #. ./ #.&.&.O.Q s ~ L h X *.*.*.*.*.*.*.*.*.7 ! i *.*.*.*.*.*.*.*.*.*.*.*.*.",
"*.*.*.*.*.*.*.*.*.# S O.O.~ O.&.&.$./ r : - *.*.*.*.*.*.*.*.*.*.5 *.*.*.*.*.*.*.*.*.*.*.*.*.*.*.",
"*.*.*.*.*.*.*.*.*.*.*.1 } @./  .%.&.' z & *.*.*.*.*.*.*.*.*.*.5 @ *.*.*.*.*.*.*.*.*.*.*.*.*.*.*.",
"*.*.*.*.*.*.*.*.*.*.*.*.& Y $._ ) R c f *.*.*.*.*.*.*.*.*.*.@ 5 *.*.*.*.*.*.*.*.*.*.*.*.*.*.*.*.",
"*.*.*.*.*.*.*.*.*.*.*.*.*.# I $.J j *.*.*.*.*.*.*.*.*.*.*.*.5 *.*.*.*.*.*.*.*.*.*.*.*.*.*.*.*.*.",
"*.*.*.*.*.*.*.*.*.*.*.*.*.*.@ w $ *.*.*.*.*.*.*.*.*.*.*.*.6 *.*.*.*.*.*.*.*.*.*.*.*.*.*.*.*.*.*.",
"*.*.*.*.*.*.*.*.*.*.*.*.*.*.*.*.*.*.*.*.*.*.*.*.*.*.*.*.6 *.*.*.*.*.*.*.*.*.*.*.*.*.*.*.*.*.*.*.",
"*.*.*.*.*.*.*.*.*.*.*.*.*.*.*.*.*.*.*.*.*.*.*.*.*.*.*.@ 5 *.*.*.*.*.*.*.*.*.*.*.*.*.*.*.*.*.*.*.",
"*.*.*.*.*.*.*.*.*.*.*.*.*.*.*.*.*.*.*.*.*.*.*.*.*.*.9 7 *.*.*.*.*.*.*.*.*.*.*.*.*.*.*.*.*.*.*.*."
};
