/* XPM */
static char *_2[] = {
/* columns rows colors chars-per-pixel */
"48 48 103 2 ",
"   c #3B1D1A",
".  c #222222",
"X  c #2E2E2E",
"o  c #333333",
"O  c #3D3D3D",
"+  c #4E1004",
"@  c #51221A",
"#  c #5E2719",
"$  c #602016",
"%  c #692117",
"&  c #6D261B",
"*  c #7B2510",
"=  c #77291B",
"-  c #442623",
";  c #4A2D2A",
":  c #522620",
">  c #5A2A20",
",  c #54322F",
"<  c #5B312B",
"1  c #593632",
"2  c #503936",
"3  c #6C362D",
"4  c #743126",
"5  c #6E3C37",
"6  c #7C463B",
"7  c #444443",
"8  c #4B4B4B",
"9  c #535353",
"0  c #5B5B5B",
"q  c #654944",
"w  c #7B4A44",
"e  c #7E5955",
"r  c #646464",
"t  c #6B6B6B",
"y  c #716563",
"u  c #73706F",
"i  c #747474",
"p  c #7C7372",
"a  c #7A7877",
"s  c #7C7C7C",
"d  c #831500",
"f  c #851A00",
"g  c #9A1A03",
"h  c #AB1D0C",
"j  c #872206",
"k  c #8B2B17",
"l  c #AD2C14",
"z  c #AB3517",
"x  c #A6351C",
"c  c #823722",
"v  c #8F3B2D",
"b  c #B23F22",
"n  c #924235",
"m  c #B84225",
"M  c #A24434",
"N  c #A84D36",
"B  c #A44A39",
"V  c #934E43",
"C  c #865147",
"Z  c #85524B",
"A  c #885952",
"S  c #975F52",
"D  c #80665E",
"F  c #9B6355",
"G  c #98635E",
"H  c #9A685F",
"J  c #A96659",
"K  c #906B63",
"L  c #8B756F",
"P  c #9B7267",
"I  c #9D756E",
"U  c #837C7B",
"Y  c #897E7D",
"T  c #9F7770",
"R  c #AE7A6A",
"E  c #80807F",
"W  c #A78078",
"Q  c #848484",
"!  c #8A8584",
"~  c #8B8B8B",
"^  c #958581",
"/  c #949494",
"(  c #9D9290",
")  c #9C9C9C",
"_  c #A38681",
"`  c #A68D88",
"'  c #AB9B99",
"]  c #9EA0A0",
"[  c #A4A4A4",
"{  c #A9A8A7",
"}  c #ABABAB",
"|  c #B0A6A4",
" . c #B1A9A7",
".. c #B3AFAE",
"X. c #B4B4B3",
"o. c #B9B2B1",
"O. c #BCBCBC",
"+. c #BEC0C0",
"@. c #C4C4C4",
"#. c #C7C9C9",
"$. c #CBCBCB",
"%. c #D0D0D0",
"&. c None",
/* pixels */
"&.&.&.&.&.&.&.&.&.&.&.&.&.&.&.&.&.&.&.&.&.&.&.&.&.&.&.&.&.&.&.&.&.&.&.&.&.&.&.&.&.&.&.&.&.&.&.&.",
"&.&.&.&.&.&.&.&.&.&.&.&.&.&.&.&.&.&.&.&.&.&.&.&.&.&.&.&.&.&.&.o U 0 &.&.&.&.&.&.&.&.&.&.&.&.&.&.",
"&.&.&.&.&.&.&.&.&.&.&.&.&.&.&.&.&.&.&.&.&.&.&.&.&.&.&.&.&.7 8 O &.&.&.&.&.&.&.&.&.&.&.&.&.&.&.&.",
"&.&.&.&.&.&.&.&.&.&.&.&.&.&.&.&.&.&.&.&.&.&.&.&.&.&.&.7 8 &.&.&.&.&.&.&.&.&.&.&.&.&.&.&.&.&.&.&.",
"&.&.&.&.&.&.&.&.&.&.&.&.&.&.&.&.&.&.&.&.&.&.&.&.&.7 7 &.&.&.&.&.&.&.&.&.&.&.&.&.&.&.&.&.&.&.&.&.",
"&.&.&.&.&.&.&.&.&.&.&.&.&.&.&.&.&.&.&.&.&.9 s O 7 &.&.&.&.&.&.&.&.&.&.&.&.&.&.&.&.&.&.&.&.&.&.&.",
"&.&.&.&.&.&.&.&.&.&.&.&.&.&.&.&.&.&.&.&.O 8 } s &.&.&.&.&.&.&.&.&.&.&.&.&.&.&.&.&.&.&.&.&.&.&.&.",
"&.&.&.&.&.&.&.&.&.&.&.&.&.&.&.&.8 &.7 7 O &.i O.t &.&.&.&.&.&.&.&.&.&.&.&.&.&.&.&.&.&.&.&.&.&.&.",
"&.&.&.&.&.&.&.&.&.&.&.&.&.&.&.7 [ r &.&.&.&.&.) X.9 &.&.&.&.&.&.&.&.&.&.&.&.&.&.&.&.&.&.&.&.&.&.",
"/ &.&.&.&.&.&.&.&.&.&.&.&.8 8 o s X.9 &.&.&.&.0 O.{ &.&.&.&.&.&.&.&.&.&.&.d f j # &.&.&.&.&.&.&.",
"X.) &.&.&.&.&.&.&.&.t 0 9 7 &.&.&.{ { &.&.&.&.&.Q #./ &.&.&.&.&.&.  ; * z N F y  .s &.&.&.&.&.&.",
"! @.) &.&.&.&.&.&.7 a { 7 &.&.&.&.r @./ &.&.&.&.&.{ #.U &.&.&.&.- h 5 0 ! @.#./ O.W + &.&.&.&.&.",
") ) #.) &.&.7 9 9 &.&.{ ) &.&.&.&.&.~ #.s &.&.&.&.r @.@.t &.&.&., H X.! ~ +.$.X./ X.3 &.&.&.&.&.",
"s / X.$./ 8 8 &.&.&.&.r O.~ &.&.&.&.&...+.t &.&.&.&.~ $.X.9 &.X ~ @.$.Q i [ $.#./ O.K &.&.&.&.&.",
"&./ / @.#./ &.&.&.&.&.&./ @.i &.&.&.&.i #.X.9 &.&.&.&...} i s t O.@./ ~ s Q @.$.} )  .& &.&.&.&.",
"r 0 ] ) $.$./ &.&.9 9 &.&.X.X.0 &.&.&.&.) $.{ &.&.&.&.r / O.$.] Q ~ { #./ a { $.@./ +.A &.&.&.&.",
"r &./ / o.$.#./ t O.X.r &.a #.{ &.&.&.&.0 O.#.Q &.t ) O.$.$.X.~ 8 } $.$.O.s ! #.$.{ { ' $ &.&.&.",
"&.&.0 } / @.$.#.) ) #.O.t &.] $./ &.&.&.&.i / ! [ @.$.#...~ ~ ..~ ) $.$.$.~ s X.$.@./ @.Y &.&.&.",
"&.&.&.~ ] [ $.$.O.i / $.O.r 8 O.#.~ &.&.8 s ..#.$.@.[ ! / X.#.%.O.s #.$.@.[ i ~ #.$.[ } ( &.&.&.",
"&.&.&.&.s { O.) ! [ / ] $.+.r i @./ 0 ~ X.$.$.O.) ! ) O.$.$.$.#.#.s Q ~ ~ ~ i s O.%.} C k &.&.&.",
"&.&.&.&.r ~ ~ } O. .T 1 ) $.@.a ~ [ O.$.$.o./ ~ [ @.$.#.#.$.#.X.) Q t O.@.$.{ s / ' M g &.&.&.&.",
"&.&.&.&.7 i ~ a n l x Z a ..$.@.@.$.$.O./ ~ } @.#.$.$.$.@.} / ) O.#.s } $.#.O.i q l g &.&.&.&.&.",
"&.&.&.&.i { y : w W ..#.o.i @.$.#.$.$.~ } $.$.$.$.$.+.{ / { +.$.$.#.! 9 i e B 3 $ d &.&.&.&.&.&.",
"&.&.&.&.7 ~ u U @.$.$.#.+.6 | $.$.$.@.~ #.$.$.$.O.) / } @.$.$.O./ s &.&.&.2 = @ &.&.&.&.&.&.&.&.",
"&.&.&.&.. ! +.Q @.$.$.#.#.S H #.#.$.@.! } @.X.) ) X.#.$.$...E r { ..&.&.&.&.&.&.&.&.&.&.&.&.&.&.",
"&.&.&.&.&.&.X./ { $.#.$.$.' v X.$.#.#.O./ ~ ) O.#.$.@.{ i &.&.9 O.@.0 &.&.&.&.&.&.&.&.&.&.&.&.&.",
"&.&.&.&.&.&.~ O.! #.$.$.$.@.V T $.$.$.$.#.@.$.$.+.) Q ~ 8 &.&.&.[ @.i &.&.&.&.&.&.&.&.&.&.&.&.&.",
"&.&.&.&.&.O 9 O.~ ..$.$.$.$.` n O.$.#.$.$.$.X./ 0 O ..@.i &.&.&.~ #.Q &.&.&.&.&.&.&.&.&.&.&.&.&.",
"&.&.&.&.&.&.&./ X.~ $.#.#.$.O.n _ $.$.#.X.~ 9 &.&.&.] $.E &.&.&.r @./ &.&.&.&.&.&.&.&.&.&.&.&.&.",
"&.&.&.&.&.&.7 t +.~ O.$.$.$.$._ w @.%./ s ..s &.&.&.s $./ &.&.&.&.X.{ &.&.&.&.&.&.&.&.&.&.t &.&.",
"&.&.&.&.&.&.&.7 [ { / #.$.#.$.#.U { %.U Q %.) &.&.&.0 @.{ &.&.&.&.) X.&.&.&.&.&.&.&.&.O 8 i &.&.",
"&.&.&.&.&.&.&.&.r @.~ @.$.#.$.$.) ) $.~ 0 #.{ &.&.&.&.{ X.&.&.&.&.s O.0 &.&.&.&.&.7 8 &.&.&.&.&.",
"&.&.&.&.&.&.&.&.9 { [ ) $.$.o.R 4 ! %./ O O.X.&.&.&.&.~ O.0 &.&.&.9 X.i &.&.&.7 7 &.&.&.&.&.&.&.",
"&.&.&.&.&.&.&.&.&.s O.! } L m m P ~ %.) &.) @.0 &.&.&.t @.t &.&.&.&.{ Q o 7 7 &.&.&.&.&.&.&.&.&.",
"&.&.&.&.&.&.&.&.&.7 X.t < > J X.X.! $.) &.s #.i &.&.&.&.O.Q &.&.&.&.s ! o &.&.&.&.&.&.&.&.&.&.&.",
"&.&.&.&.&.&.&.&.&.o i / y / X./ E a $.) &.0 +.! &.&.&.&.) / &.&.7 7 7 9 &.&.&.&.&.&.&.&.&.&.&.&.",
"&.&.&.&.&.&.&.&.&.&.8 ) a ~ ~ { +.~ #.) &.&.{ ) &.&.&.&.s { O 7 &.&.&.&.&.&.&.&.&.&.&.&.&.&.&.&.",
"&.&.&.&.&.&.&.&.&.&.&.&.r X.#.$.$.! Q 0 &.&.~ { &.&.&.O 9 ~ &.&.&.&.&.&.&.&.&.&.&.&.&.&.&.&.&.&.",
"&.&.&.&.&.&.&.&.&.&.&.&.r ~ } $.$.~ &.&.&.&.t X.8 9 8 7 &.&.&.&.&.&.&.&.&.&.&.&.&.&.&.&.&.&.&.&.",
"&.&.&.&.&.&.&.&.&.&.&.&.&.] / $.$.] &.&.&.&.8 { 0 7 &.&.&.&.&.&.&.&.&.&.&.&.&.&.&.&.&.&.&.&.&.&.",
"&.&.&.&.&.&.&.&.&.&.&.&.&.) / @.$.} &.&.7 9 7 0 &.&.&.&.&.&.&.&.&.&.&.&.&.&.&.&.&.&.&.&.&.&.&.&.",
"&.&.&.&.&.&.&.&.&.&.&.&.&.Q ) } %.o.8 9 8 &.&.&.&.&.&.&.&.&.&.&.&.&.&.&.&.&.&.&.&.&.&.&.&.&.&.&.",
"&.&.&.&.&.&.&.&.&.&.&.&.&.0 { ) $.+.9 &.&.&.&.&.&.&.&.&.&.&.&.&.&.&.&.&.&.&.&.&.&.&.&.&.&.&.&.&.",
"&.&.&.&.&.&.&.&.&.&.&.&.&.o ) / #.#.t &.&.&.&.&.&.&.&.&.&.&.&.&.&.&.&.&.&.&.&.&.&.&.&.&.&.&.&.&.",
"&.&.&.&.&.&.&.&.&.&.&.&.i 0 E ) O.$.E &.&.&.&.&.&.&.&.&.&.&.&.&.&.&.&.&.&.&.&.&.&.&.&.&.&.&.&.&.",
"&.&.&.&.&.&.&.&.&.&.&.&.&.&.r ) { $.~ &.&.&.&.&.&.&.&.&.&.&.&.&.&.&.&.&.&.&.&.&.&.&.&.&.&.&.&.&.",
"&.&.&.&.&.&.&.&.&.&.&.&.&.&.&.) ) $.) &.&.&.&.&.&.&.&.&.&.&.&.&.&.&.&.&.&.&.&.&.&.&.&.&.&.&.&.&.",
"&.&.&.&.&.&.&.&.&.&.&.&.&.&.&.~ / #.{ &.&.&.&.&.&.&.&.&.&.&.&.&.&.&.&.&.&.&.&.&.&.&.&.&.&.&.&.&."
};
