/* XPM */
static char *_2[] = {
/* columns rows colors chars-per-pixel */
"48 48 134 2 ",
"   c #2F1C19",
".  c #262525",
"X  c #2B2B2B",
"o  c #333333",
"O  c #383737",
"+  c #3B3B3B",
"@  c #411F1C",
"#  c #4A221D",
"$  c #59251C",
"%  c #662319",
"&  c #6F271D",
"*  c #65281E",
"=  c #71291A",
"-  c #5A2E29",
";  c #573530",
":  c #5A3730",
">  c #5A3935",
",  c #6D372D",
"<  c #75342A",
"1  c #7A3729",
"2  c #603A34",
"3  c #66433D",
"4  c #444444",
"5  c #484747",
"6  c #474748",
"7  c #4B4B4B",
"8  c #5F4845",
"9  c #524F4F",
"0  c #545354",
"q  c #595757",
"w  c #5B5B5B",
"e  c #6A5B59",
"r  c #725E59",
"t  c #7A5E5A",
"y  c #79615D",
"u  c #5F5F60",
"i  c #646464",
"p  c #6B6766",
"a  c #676868",
"s  c #6B6B6B",
"d  c #756361",
"f  c #7B6560",
"g  c #706D6D",
"h  c #6F7070",
"j  c #747374",
"k  c #7E7472",
"l  c #7C7C7C",
"z  c #841909",
"x  c #8F1D0D",
"c  c #991C06",
"v  c #A21F03",
"b  c #96220A",
"n  c #92280F",
"m  c #8B2817",
"M  c #842B1D",
"N  c #AC280E",
"B  c #A5301C",
"V  c #823E2E",
"C  c #A13623",
"Z  c #B23C21",
"A  c #824032",
"S  c #8E4537",
"D  c #934A3E",
"F  c #9C493B",
"G  c #A7432C",
"H  c #A94331",
"J  c #B3553F",
"K  c #904B41",
"L  c #815047",
"P  c #8C554C",
"I  c #945145",
"U  c #8A5F59",
"Y  c #915B51",
"T  c #A35C4D",
"R  c #87655C",
"E  c #A36051",
"W  c #A4685D",
"Q  c #B26D5D",
"!  c #9A6E66",
"~  c #8A726E",
"^  c #9E776F",
"/  c #817775",
"(  c #807C7C",
")  c #A07B75",
"_  c #AB8075",
"`  c #A3817B",
"'  c #7F7F80",
"]  c #7F8080",
"[  c #848383",
"{  c #898686",
"}  c #878889",
"|  c #8B8B8B",
" . c #9B8784",
".. c #928E8E",
"X. c #8F8F90",
"o. c #939393",
"O. c #999696",
"+. c #989798",
"@. c #979898",
"#. c #9B9B9B",
"$. c #A58580",
"%. c #A48884",
"&. c #A18C88",
"*. c #AB938F",
"=. c #B4958F",
"-. c #A49593",
";. c #AD9A95",
":. c #A19F9F",
">. c #9E9FA0",
",. c #9FA0A1",
"<. c #A3A4A4",
"1. c #ABA5A4",
"2. c #A6A7A8",
"3. c #A8A7A8",
"4. c #A7A8A8",
"5. c #ABACAC",
"6. c #B3ADAC",
"7. c #B8AFAE",
"8. c #AFAFB0",
"9. c #B0AFB0",
"0. c #AFB0B0",
"q. c #B3B3B4",
"w. c #B9B6B6",
"e. c #B7B7B8",
"r. c #B7B9BA",
"t. c #BBBBBC",
"y. c #BFBFC0",
"u. c #BFC0C0",
"i. c #C3C3C4",
"p. c #C7C7C8",
"a. c #C8C7C8",
"s. c #C7C8C8",
"d. c #CBCBCC",
"f. c None",
/* pixels */
"f.f.f.f.f.f.f.f.f.f.f.f.f.f.q 0 @.5.e.f.f.f.f.f.f.f.f.f.f.f.f.f.f.f.f.f.f.f.f.f.f.f.f.f.f.f.f.f.",
"f.f.f.f.f.f.f.f.f.f.f.f.f.f.7 s @.t.5.f.f.f.f.f.f.f.f.f.f.f.f.f.f.f.f.f.f.f.f.f.f.f.f.f.f.f.f.f.",
"f.f.f.f.f.f.f.f.f.f.f.f.f.f.f.o.#.d.4.7 f.f.f.f.f.f.f.f.f.f.f.f.f.f.f.f.f.f.f.f.f.f.f.f.f.f.f.f.",
"f.f.f.f.f.f.f.f.f.f.f.f.f.f.f.>.<.d.4.0 w f.f.f.f.f.f.f.f.f.f.f.f.f.f.f.f.f.f.f.f.f.f.f.f.f.f.f.",
"f.f.f.f.f.f.f.f.f.f.f.f.f.f.[ #.9.d.4.f.f.0 q 7 f.f.f.f.f.f.f.f.f.f.f.f.f.f.f.f.f.f.f.f.f.f.f.f.",
"f.f.f.f.f.f.f.f.f.f.f.f.f.f.@.O.i.d.<.f.f.f.f.5 [ l f.f.f.f.f.f.f.f.f.f.f.f.f.f.f.f.f.f.f.f.f.f.",
"f.f.f.f.f.f.f.f.f.f.f.f.f.q [ +.d.d.o.f.f.f.f.0 <.a 7 q f.f.f.f.f.f.f.f.f.f.f.f.f.f.f.f.f.f.f.f.",
"f.f.f.f.f.f.f.f.f.f.f.f.f.a >.t.d.d.#.[ f.f.f.w 5.i f.7 7 7 [ f.f.f.f.f.f.f.f.f.f.f.f.f.f.f.f.f.",
"f.f.f.f.f.f.f.f.f.f.f.+ [ j } o.5.i.#.q.4.f.f...2.f.f.f.f.w <.0 f.f.f.f.f.f.f.f.f.f.f.f.f.f.f.f.",
"f.f.f.f.f.f.f.f.f.f.f.w o.{ o.5.o.| l e.0.f.f.5.<.f.f.f.f.<.<.+ 5 7 5 f.f.f.f.f.f.f.f.f.f.f.f.f.",
"f.f.f.f.f.f.f.f.f.f.+ o.{ > ; ! 6.q.] t.5.7 0 t.o.f.f.f.f.<.#.f.f.f.4 q o.f.f.f.f.f.f.f.f.f.f.f.",
"f.f.f.f.f.f.f.f.f.f.i q.| { t B H ` { i.8.f.j u.l f.f.f.0 q.} f.f.f.f.[ @.4 7 f.f.f.f.f.f.f.f.f.",
"f.f.f.f.f.f.f.f.f.7 } e.} a.u.;.T M e a.q.f.<.i.a f.f.f.w t.[ f.f.f.f.#.| f.f.7 7 f.f.f.f.f.f.f.",
"f.f.f.f.f.f.f.f.f.q 5.#.<.d.d.d.u...l a.<.0 q.e.f.f.f.f.#.t.i f.f.f.f.e.j f.f.f.f.5 7 7 f.f.f.f.",
"f.f.f.f.f.f.f.f.+ j t.} i.d.d.d.d.5.@.d.,.i a.4.f.f.f.f.5.e.w f.f.f.[ e.l f.f.f.f.f.f.7 7 4 f.f.",
"f.f.f.f.f.f.f.f.w 4.<.#.d.d.d.d.7.t :.d.<.l t.<.f.f.f.w t.<.f.f.f.f.o.t.f.f.f.f.f.f.f.f.f.4 j w ",
"f.f.f.f.f.f.f.f.a t.} t.d.d.d.d.! Y i.d.i.3...a f.f.f...p.#.f.f.f.f.0.q.f.f.f.f.f.f.f.f.f.f.f.f.",
"f.f.f.f.f.f.f.0 :.4.+.d.p.d.d.7.S *.d.d.d.d.i.<.g f.f.<.d.} f.f.f.f.i.#.f.f.f.f.f.f.f.f.f.f.f.f.",
"f.f.f.f.f.f.f.a t.X.e.d.d.d.d.) K t.d.a.d.d.d.d.p.4.l [ <.l f.f.f.} s.X.f.f.f.f.f.f.f.f.f.f.f.f.",
"f.f.f.f.f.f.f.o.0.o.p.s.d.d.w.D $.d.d.d.a.5.o.,.t.d.d.e.@.p f.f.f.,.s.] f.f.f.f.f.f.f.f.f.f.f.f.",
"f.f.f.f.f.f.w t.@.8.d.d.d.d.%.D w.d.d.a.O.o.6.<.X.#.q.s.d.t.o.a q 5.y.f.f.f.f.f.f.f.f.f.f.f.f.f.",
"f.f.f.f.f.o j X.( i.d.d.d.i.Y ^ d.d.d.a...t.d.d.i.4.o.o.5.i.d.t.#.o.} 9 f.f.f.f.f.f.f.f.f.f.f.f.",
"f.f.f.f.f.6 @.k : y ;.r.d.u.t 6.d.d.a.d.#.<.d.d.d.d.a.6.@...3.i.d.d.5.j O + - x $ @ f.f.f.f.f.f.",
"f.f.f.f.f.f.j { e A Z J ) ..o.a.d.d.d.d.e.o.:.e.a.d.d.d.a.t.#.| #.t.d.#.[ <. .W 3 * v f.f.f.f.f.",
"f.f.f.f.f.f.s | ,.0.;.Q A / i.d.#.} 5.p.d.i.q.#.#.6.a.d.d.d.d.t.:.X.o.h 5.a.d.t.l r G b f.f.f.f.",
"f.f.f.f.f.a 4.q.@.o.4.,.} u.d.} q #.o.l <.i.d.p.e.>.#.4.y.d.d.d.d.i.} p X.o.#.| ' :.6.E n f.f.f.",
"f.f.f.f.0 o.o.a.u.u.] j u.s.+.7 | d.4.f.f.j #.t.d.d.t.<.+.<.t.a.d.p.} 5.a.t.3.j [ t.d.4.R 1 f.f.",
"f.f.f.f.| #.6.d.d.r.| r.a.| f.} i.q.s f.f.f.w [ #.q.s.d.i.4.#.#.w.5.} s.d.d.3.( @.d.p.#.q.O.f.f.",
"f.f.f.| <.#.s.d.t.l <.u.| f.4 5.i.l f.f.f.f.>.i.@.a [ 4.p.d.a.9.#.a o.d.d.a.| [ e.d.e.@.w.d f.f.",
"0 s 7 2.@.t.d.i.[ f.` ] f.f.} p.{ f.f.f.f.a i.t.[ f.f.0 j <.a.d.q.s } <.p.8.l o.p.d.#.5. .% f.f.",
"f.7 l #.5.d.s.o.f.f.f.f.f.[ t.#.f.f.f.f.q 2.i.o.f.f.f.f.l #.} >.} @.i.@.@.} [ 5.d.t.O.w.L f.f.f.",
"f.f.#.#.p.s.o.5 f.f.f.f.f.<.5.f.f.f.f.f.o.a.#.f.f.f.f.p t.a.j f.9 <.d.a.o.g | d.d.<.4.-.= f.f.f.",
"f.@.@.e.d.4.7 + 7 + f.f.l 8.a f.f.f.f.h u.<.f.f.f.f.f.<.d.@.f.f.f.i 6.d.#.l <.d.i.@.t.U f.f.f.f.",
"a #.<.d.0.s f.f.X + 4 q 5.l f.f.f.f.f.<.q.a f.f.f.f.| a.5.f.f.f.f.2 D -.[ } a.d.5.<.1.< f.f.f.f.",
"l @.a.t.l f.f.f.f.f.f.l l 4 f.f.f.f.o.e.s f.f.f.f.0 q.q.f.f.f.f.f.f.m , 8 ~ 6.t.#.t. .f.f.f.f.f.",
"5.t.a.l f.f.f.f.f.f.f.f.f.o 4 + . 0 8.} f.f.f.f.f.O.t.[ f.f.f.f.f.f.  # z N C F P &.s f.f.f.f.f.",
"#.:.l f.f.f.f.f.f.f.f.f.f.f.f.o + [ X.o f.f.f.f.[ t.o.f.f.f.f.f.f.f.f.f.f.f.f.f.c = f.f.f.f.f.f.",
"f.f.f.f.f.f.f.f.f.f.f.f.f.f.f.f.f.q 4 o o f.f.7 <.@.f.f.f.f.f.f.f.f.f.f.f.f.f.f.f.f.f.f.f.f.f.f.",
"f.f.f.f.f.f.f.f.f.f.f.f.f.f.f.f.f.f.f.f.+ + o [ 4.f.f.f.f.f.f.f.f.f.f.f.f.f.f.f.f.f.f.f.f.f.f.f.",
"f.f.f.f.f.f.f.f.f.f.f.f.f.f.f.f.f.f.f.f.f.f.7 | q X f.f.f.f.f.f.f.f.f.f.f.f.f.f.f.f.f.f.f.f.f.f.",
"f.f.f.f.f.f.f.f.f.f.f.f.f.f.f.f.f.f.f.f.f.f.f.+ . + O X f.f.f.f.f.f.f.f.f.f.f.f.f.f.f.f.f.f.f.f.",
"f.f.f.f.f.f.f.f.f.f.f.f.f.f.f.f.f.f.f.f.f.f.f.f.f.f.f.7 4 o f.f.f.f.f.f.f.f.f.f.f.f.f.f.f.f.f.f.",
"f.f.f.f.f.f.f.f.f.f.f.f.f.f.f.f.f.f.f.f.f.f.f.f.f.f.f.f.f.f.5 5 f.f.f.f.f.f.f.f.f.f.f.f.f.f.f.f.",
"f.f.f.f.f.f.f.f.f.f.f.f.f.f.f.f.f.f.f.f.f.f.f.f.f.f.f.f.f.f.f.f.5 i f.f.f.f.f.f.f.f.f.f.f.f.f.f.",
"f.f.f.f.f.f.f.f.f.f.f.f.f.f.f.f.f.f.f.f.f.f.f.f.f.f.f.f.f.f.f.f.f.u q f.f.f.f.f.f.f.f.f.f.f.f.f.",
"f.f.f.f.f.f.f.f.f.f.f.f.f.f.f.f.f.f.f.f.f.f.f.f.f.f.f.f.f.f.f.f.f.f.f.f.f.f.f.f.f.f.f.f.f.f.f.f.",
"f.f.f.f.f.f.f.f.f.f.f.f.f.f.f.f.f.f.f.f.f.f.f.f.f.f.f.f.f.f.f.f.f.f.f.f.f.f.f.f.f.f.f.f.f.f.f.f.",
"f.f.f.f.f.f.f.f.f.f.f.f.f.f.f.f.f.f.f.f.f.f.f.f.f.f.f.f.f.f.f.f.f.f.f.f.f.f.f.f.f.f.f.f.f.f.f.f."
};
