/* XPM */
static char *_24[] = {
/* columns rows colors chars-per-pixel */
"48 48 136 2 ",
"   c #1E1E1E",
".  c #2E1713",
"X  c #252424",
"o  c #2C2B2B",
"O  c #312725",
"+  c #302F2F",
"@  c #382B2A",
"#  c #2F3030",
"$  c #343334",
"%  c #3C3C3D",
"&  c #5F1F13",
"*  c #6B190C",
"=  c #691E10",
"-  c #57231B",
";  c #702216",
":  c #722C1F",
">  c #7C281B",
",  c #452A26",
"<  c #4E2A23",
"1  c #50312C",
"2  c #403F3F",
"3  c #533834",
"4  c #6C2A20",
"5  c #7F2F22",
"6  c #68332A",
"7  c #743127",
"8  c #623D38",
"9  c #763E31",
"0  c #77453E",
"q  c #444444",
"w  c #484747",
"e  c #474748",
"r  c #4B4B4B",
"t  c #504F4F",
"y  c #555454",
"u  c #5C5B5C",
"i  c #784B41",
"p  c #6D524E",
"a  c #7E544E",
"s  c #625F5F",
"d  c #6D5C5A",
"f  c #7E615D",
"g  c #5E5F60",
"h  c #636363",
"j  c #6C6462",
"k  c #6C6867",
"l  c #6B6B6B",
"z  c #746461",
"x  c #786966",
"c  c #75706F",
"v  c #747373",
"b  c #7A7574",
"n  c #7C7C7C",
"m  c #A61D05",
"M  c #87210D",
"N  c #9D2306",
"B  c #992D17",
"V  c #88311F",
"C  c #9F3016",
"Z  c #A4280A",
"A  c #A3311D",
"S  c #883125",
"D  c #893F2E",
"F  c #AC3E2C",
"G  c #874A3D",
"H  c #8F483C",
"J  c #904334",
"K  c #914A3D",
"L  c #B6432B",
"P  c #A34734",
"I  c #B24E34",
"U  c #884E43",
"Y  c #95594E",
"T  c #8A5E59",
"R  c #975C50",
"E  c #84655F",
"W  c #A5665A",
"Q  c #9D6B64",
"!  c #9C716A",
"~  c #847774",
"^  c #827E7E",
"/  c #997A75",
"(  c #A36F67",
")  c #AE786C",
"_  c #B67769",
"`  c #A57F76",
"'  c #7C7F80",
"]  c #848383",
"[  c #888787",
"{  c #878788",
"}  c #878889",
"|  c #8C8B8C",
" . c #9D8480",
".. c #918E8E",
"X. c #8F8F90",
"o. c #8F9090",
"O. c #949494",
"+. c #989696",
"@. c #979798",
"#. c #979899",
"$. c #9B9B9C",
"%. c #A68A86",
"&. c #A38F8C",
"*. c #A88D88",
"=. c #A5918E",
"-. c #A09696",
";. c #A69997",
":. c #AD9895",
">. c #A19F9F",
",. c #B19D99",
"<. c #9F9FA0",
"1. c #9FA0A0",
"2. c #A3A3A4",
"3. c #A7A7A8",
"4. c #A8A7A8",
"5. c #A7A8A8",
"6. c #ABABAC",
"7. c #B3A5A3",
"8. c #B4ACAA",
"9. c #AFAFB0",
"0. c #AFB0B1",
"q. c #B3B4B4",
"w. c #B9B5B5",
"e. c #B7B7B8",
"r. c #B8B7B8",
"t. c #B7B9BA",
"y. c #BBBBBB",
"u. c #BFBFC0",
"i. c #C0BFC0",
"p. c #BFC0C1",
"a. c #C3C4C4",
"s. c #C6C7C8",
"d. c #C7C8C9",
"f. c #CACBCC",
"g. c #CECFD0",
"h. c None",
/* pixels */
"h.h.h.h.h.h.h.h.h.h.h.h.h.h.h.h.h.h.h.h.h.h.h.h.h.h.h.h.h.h.h.h.h.h.h.h.h.h.h.h.h.h.h.h.h.h.h.h.",
"h.h.h.h.h.h.h.h.h.h.h.h.h.h.h.h.h.h.h.h.h.h.h.h.h.h.h.h.h.h.h.h.h.h.h.h.h.h.h.h.h.h.h.h.h.h.h.h.",
"h.h.h.h.h.h.h.h.h.h.h.h.h.h.h.h.h.h.r , h.h.h.h.h.h.h.h.h.h.l u h.h.h.h.h.h.h.h.h.h.h.h.h.h.h.h.",
"h.h.h.h.h.h.h.h.h.h.h.h.h.h.h.h.; a 6./ M h.h.h.h.h.h.h.h.h.u r h.h.h.h.h.h.h.h.h.h.h.h.h.h.h.h.",
"h.h.h.h.h.h.h.h.h.h.h.h.h.* 7 T -.w.q.O.J m h.h.h.h.h.h.h.h.h.h.h.h.h.h.h.h.h.h.h.h.h.h.h.h.h.h.",
"h.h.h.h.h.h.h.h.h.h.h.3 0 / 7.r.6.+.>.q.:.A h.h.h.h.h.h.h.h.h.q h.h.h.h.h.h.h.h.h.h.h.h.h.h.h.h.",
"h.h.h.h.h.h.h.h.h.h.d 8.q.q.1.@.2.y.f.g.s.( m h.h.h.h.h.h.h.h.o t h.h.h.h.h.h.h.h.h.h.h.h.h.h.h.",
"h.h.h.h.h.h.h.h.h.h.G 2.@.#.6.a.f.g.d.y.>.n 6 - h.h.h.h.h.h.h.h.% h.h.h.h.h.h.h.h.h.h.h.h.h.h.h.",
"h.h.h.h.h.h.h.h.h.h.V ..t.d.f.f.a.q.O.] ^ ] d 7 . h.h.h.h.h.h.h.o u h.h.h.h.h.h.h.h.h.h.h.h.h.h.",
"h.h.h.h.h.h.h.h.h.h.C ,.g.f.y.2.[ n n l @.y.*.B < h.h.h.h.h.h.h.h.% h.h.h.h.h.h.h.h.h.h.h.h.h.h.",
"h.h.h.h.h.h.h.h.h.h.Z ` 0.@.] ^ ] O.6.O.6.g.;.8 h.h.h.h.h.h.h.h.h.$ # h.h.h.h.h.h.h.h.h.h.h.h.h.",
"h.h.h.h.h.h.h.h.h.h.Z 0 ' n v $.y.d.f.2.6.g.2.r h.h.h.h.h.h.h.h.h.h.$ h.h.h.h.h.h.h.h.h.h.h.h.h.",
"h.h.h.h.h.h.h.h.h.h.& 3 ] 5.| 9.f.f.f.6.$.q.n h.h.h.h.h.h.h.h.h.h.h u r h.h.h.h.h.h.h.h.h.h.h.h.",
"h.r h.h.h.h.h.h.h.h.O > ( d.y.o.y.f.a.#.h n | l h.h h.| n @.$.6.6.0.2.v h.h.h.h.h.h.h.h.h.h.h.h.",
"h.v r h.h.h.h.h.h.h.h.= S -.f.4.] O.] [ ] q.f.| O.q.y.a.a.y.6.6.] h r % h.h.h.h.h.h.h.h.h.h.h.h.",
"h.e e h.h.h.h.h.h.h.h.h.@ y @.[ u ] y.f.6.2.g.6.#.y.q.2.$.l r h.h.h.h.o $ h.h.h.h.h.h.h.h.h.h.h.",
"h.h.r h.h.h.h.h.h.h.h.h.h.h.y 6.6.@.f.f.y.+.a.a.n t h.h.h.h.h.h.h.h.h.X % h.h.h.h.h.h.h.h.h.h.h.",
"h.h.r r h.h.h.h.h.h.h.h.h.h.s y.a...y.f.f.2.6.g.#.h.h.h.h.h.h.h.h.h.h.h.$ X h.h.h.h.h.h.h.h.h.h.",
"h.h.h.r h.h.h.h.h.h.h.h.h.] ] 2.f.2.$.f.f.w.#.f.y.h.h.h.h.h.h.h.h.h.h.u h l h.h.h.h.h.h.h.h.h.h.",
"h.h.h.r h.h.h.h.h.h.h.h.[ y.a.| a.y...a.f.s.#.y.f.] h.h.} v | @.6.6.q.q.2.^ $ h.h.h.h.h.h.h.h.h.",
"h.h.h.h.w h.h.h.h.h.u 1.s.u.O.u 2.f.+.6.f.f.6.2.f.6.] y.a.a.a.y.r.#.] h.h.$ $ h.h.h.h.h.h.h.h.h.",
"h.h.h.h.e h.h.h.h.n q.s.6.n h.h.] f.6.+.f.f.i.#.a.a.| 6.q.@.v h.h.h.h.h.h.h.$ h.h.h.h.h.h.h.h.h.",
"h.h.h.h.r e h.h.@.y.6.O.h.h.h.h.s w.a...r.f.f.>.q.f.@.u h.h.h.h.h.h.h.h.h.h.q o h.h.h.h.h.h.h.h.",
"h.h.h.h.h.q l $.y.@.g h.h.h.h.h.r O.f.3.>.f.f.r.$.f.y.l h.h.h.h.h.h.h.h.h.h.q % h.h.h.h.h.h.h.h.",
"h.h.h.h.h.l 3.@.h.h.h.h.h.h.h.l $.| a.y.X.a.f.d.#.y.f.| h.h.h.h.h.h.h.h.l n ] ] h.h.h.h.h.h.h.h.",
"h.h.h.h.h.] l h.h.h.h.h.h.h.n t.f.o.4.f.@.8.f.f.6.2.f.6.y v ] ..$.2.q.q.q.6.#.] r h.h.h.h.h.h.h.",
"h.h.h.h.h.h.2 h.h.h.h.h.u $.a.a.6.k ^ f.9.@.d.f.y.o.s.a.] q.f.f.a.q.<.| { y h.$ 2 h.h.h.h.h.h.h.",
"h.h.h.h.h.h.r e h.h.h.l 2.a.3.l h.h.s q.a.o.6.a.2.$.f.f.2.[ @.n ] y h.h.h.h.h.h.e $ h.h.h.h.h.h.",
"h.h.h.h.h.h.h.r h.h.n q.q.#.h.h.h.h.h.O.f.q.O...| y.f.f.y.n h l ^ b l b v h.h.h.q q h.h.h.h.h.h.",
"h.h.h.h.h.h.h.q e O.q.o.y h.h.h.h.h.h.v a.f.d.i.a.f.f.d.f.f.d.s.s.a.s.s.t.] h.h.h.%   h.h.h.h.l ",
"h.h.h.h.h.h.h.l $.6.h.h.h.h.h.h.h.l 6.@.6.f.f.f.f.f.f.f.f.a.q.8.3.6.2.#.$.c l h.v v n #.#.6.8.q.",
"h.h.h.h.h.h.h.h.l e h.h.h.h.h.h.n q.f.2.O.s.f.f.f.f.f.w.%.E ] ~ 9 ..] ^ 6.q.y.y.a.f.f.f.g.f.a.q.",
"h.h.h.h.h.h.h.h.r e h.h.h.h.h.O.a.u.X.g $.f.f.f.a.7.( U H  .a.w.I _ q.o.a.f.f.f.f.a.a.q.2.$.@.@.",
"h.h.h.h.h.h.h.h.h.r h.h.h.l 2.a.6.[ y | f.d.q.%.R J R *.w.f.f.d.) L 7.@.6.f.a.q.2.#.#.#.#.+.| h ",
"h.h.h.h.h.h.h.h.h.u r h.n q.q.n % h.2.f.a.@.z U ! 7.a.f.f.f.f.f.8.D E 6.#.q.| $.2.2.@.l u h.h.h.",
"h.h.h.h.h.h.h.h.h.h.y @.6.O.h.h.h.#.d.e.c O.y.y.d.f.f.f.f.f.f.f.s.x 1 [ n #.v v h h.h.y l h.h.h.",
"h.h.h.h.h.h.h.h.h.h.#.#.h h.h.h.2.f.q.b 4 &.f.f.f.d.f.d.f.f.f.u.6.b d <.u h.h.h.h.h.h.h.u h.h.h.",
"h.h.h.h.h.h.h.h.h.h.y r h.h.h.O.f.3.' 2.P W a.f.d.f.f.f.s.w.$.| $.9.X.^ y h.h.h.h.h.h.h.h.h.h.h.",
"h.h.h.h.h.h.h.h.h.h.h.y h.h.h.$.2.| ] t.W F w.f.f.f.i.3.....6.y.6.[ h % h.h.h.h.h.h.h.h.h.h.h.h.",
"h.h.h.h.h.h.h.h.h.h.h.u y h.h.u | u.<.<.%.V O.f.q.@.| @.q.w.$.v y h.h.h.h.h.h.h.h.h.h.h.h.h.h.h.",
"h.h.h.h.h.h.h.h.h.h.h.h.y h.h.] a.f.y.| 2.3 p [ | 2.y.6.] h h.h.h.h.h.h.h.h.h.h.h.h.h.h.h.h.h.h.",
"h.h.h.h.h.h.h.h.h.h.h.h.y y @.a.f.f.a.@.O.b j 6.y.$.n r % y h.h.h.h.h.h.h.h.h.h.h.h.h.h.h.h.h.h.",
"h.h.h.h.h.h.h.h.h.h.h.h.y | a.f.a.2.@.$.l $.| o.h h.w h.h.h.h.h.h.h.h.h.h.h.h.h.h.h.h.h.h.h.h.h.",
"h.h.h.h.h.h.h.h.h.h.h.h.2.f.s.q.@.>.] l r k r % h.h.h.h.h.h.h.h.h.h.h.h.h.h.h.h.h.h.h.h.h.h.h.h.",
"h.h.h.h.h.h.h.h.h.h.h 2.f.r.#.#.>.} r h.h.h.h.h.h.h.h.h.h.h.h.h.h.h.h.h.h.h.h.h.h.h.h.h.h.h.h.h.",
"h.h.h.h.h.h.h.h.h.k 6.y.2.@.#.| h.h.h.h.h.h.h.h.h.h.h.h.h.h.h.h.h.h.h.h.h.h.h.h.h.h.h.h.h.h.h.h.",
"h.h.h.h.h.h.h.h.l 2.6.@.@.n t q h.h.h.h.h.h.h.h.h.h.h.h.h.h.h.h.h.h.h.h.h.h.h.h.h.h.h.h.h.h.h.h.",
"h.h.h.h.h.h.h.  } $.| [ c h.h v h.h.h.h.h.h.h.h.h.h.h.h.h.h.h.h.h.h.h.h.h.h.h.h.h.h.h.h.h.h.h.h."
};
