/* XPM */
static char *_26[] = {
/* columns rows colors chars-per-pixel */
"48 48 82 1 ",
"  c #030303",
". c #0B0B0B",
"X c #141414",
"o c #1B1B1B",
"O c #1F1F20",
"+ c #222222",
"@ c #2A2A2A",
"# c #333333",
"$ c #3D3D3D",
"% c #444444",
"& c #4B4B4B",
"* c #4F5658",
"= c #4E595D",
"- c #545454",
"; c #5C5C5C",
": c #4D5B60",
"> c #526066",
", c #57666C",
"< c #5C6468",
"1 c #5C686E",
"2 c #5E737C",
"3 c #636363",
"4 c #6B6B6B",
"5 c #626C71",
"6 c #687174",
"7 c #757575",
"8 c #75797A",
"9 c #7A7A7B",
"0 c #6B8691",
"q c #6F8994",
"w c #7F8E94",
"e c #7A8F98",
"r c #76919D",
"t c #7D949D",
"y c #848484",
"u c #848788",
"i c #858B8D",
"p c #8B8B8B",
"a c #828D92",
"s c #8B9295",
"d c #869399",
"f c #949494",
"g c #979B9C",
"h c #9D9D9D",
"j c #83A0AC",
"k c #9EA1A2",
"l c #87A6B3",
"z c #8AA9B6",
"x c #8FAFBD",
"c c #91A7B0",
"v c #96A9B1",
"b c #9BB2BB",
"n c #A4A4A4",
"m c #A5A7A8",
"M c #ACACAC",
"N c #B5B5B5",
"B c #BCBCBC",
"V c #94B6C5",
"C c #9EBFCE",
"Z c #A3BFCB",
"A c #9FC6D6",
"S c #A1C3D1",
"D c #ABC6D2",
"F c #ACC8D4",
"G c #A5C9D8",
"H c #AFCEDB",
"J c #B3DBEC",
"K c #BBDEEC",
"L c #B8E0F0",
"P c #C5C5C5",
"I c #CBCBCB",
"U c #D3D3D3",
"Y c #D8D7D7",
"T c #DCDCDC",
"R c #C1E1EF",
"E c #C3E6F5",
"W c #CAEBF8",
"Q c #E4E4E4",
"! c #ECECEC",
"~ c #F4F4F4",
"^ c #FFFFFF",
"/ c None",
/* pixels */
"////////////////////////////////////////////////",
"//////////////.yhpuy4;$+////////////////////////",
"///////////////f^^^^^~~TBg3%X///////////////////",
"//////////////$&!^^^^^^^^^^QPp%/////////////////",
"////////////Xy~fh^^^^^^^^^^^^^~B7+//////////////",
"///////////+m^^!;!^^^^^^^^^^^^^^^Yy@////////////",
"//////////OM^^^^fh^^^^^^^^^^^^^^^^^Ty+//////////",
"//////////h^^^^^Q;!^^^^^^^^^^^^^^^^^^I3/////////",
"/////////9^^^^^^^ph^^^^^^^^^^^^^^^^^^^~fo///////",
"////////$Q^^^^^^^Q;!^^^~~~^^^^^^^^^^^^^^Y;//////",
"////////m^^^^^^^^^ph!M83;37m!^^^^^^^^^^^^U@/////",
"///////%!^^^^^^^^^Q$-pIQ!!If;M~^^^^^^^^~f@//////",
"///////g^^^^^^^^^^h+P^^^^^^^Q7u~^^^^^~M;hh//////",
"//////@Y^^^^^^^^^M39!^^^^^^^^~9f^^^~N;yT^!#/////",
"//////-~^^^^^^^^Q;If~^^^^^^^^^~;U^I37Y^^^^4/////",
"//////y^^^^^^^^^fnTh^^^^^^^^^^^B;44P^^^^^^n/////",
"//////m^^^^^^^^~4QIM^^^^^^^^^^^Iom^^^^^^^^P/////",
"//////B^^^^^^^^Q%IBN^^^^^^^^^^^f$U^^^^^^^^Y+////",
"//////P^^^^^^^^I>r4N^^^^^^^^^^Tf8B^^^^^^^^Q@////",
"//////I^^^^^^^^Y2Ktg^^^^^^^^^^fIyP^^^^^^^^Q@////",
"//////P^^^^^^^^Q,JFg^^^^^^^^^If~4T^^^^^^^^T+////",
"//////M^^^^^^^^~6AKi!^^^^^^^QyTT3~^^^^^^^^Uo////",
"//////u^^^^^^^^^m0EcM^^^^^^!81d-h^^^^^^^^^N/////",
"//////3^^^^^^^^^!<SRdN~^^^YibKV5!^^^^^^^^^p/////",
"//////@!^^^^^^^^^I1GRvskmsaFWS,P^^^^^^^^^~&/////",
"//////.M^^^^^^^^^^B>lKJDZHEKj=B^^^^^^^^^^UX/////",
"////// -~^^^^^^^^^^T9,rxVzq:7T^^^^^^^^^^^p//////",
"///////oI^^^^^^^^^^^~Tmu9ynY^^^^^^^^^^^^Q#//////",
"///////-3~^^^^^^^^^^^^^^^^^^^^^^^^^^^^^^y///////",
"///////f7h^^^^^^^^^^^^^^^^^^^^^^^^^^^^^P+///////",
"///////pQ-I^^^^^^^^^^^^^^^^^^^^^^^^^^^!%////////",
"///////8^P-Y^^^^^^^^^^^^^^^^^^^^^^^^^!3/////////",
"///////3^^M-Y^^^^^^^^^^^^^^^^^^^^^^^~4//////////",
"///////-~^^N-B^^^^^^^^^^^^^^^^^^^^^T-///////////",
"///////$~^^^I3u!^^^^^^^^^^^^^^^^^~M+////////////",
"///////#!^^^^!y%m~^^^^^^^^^^^^^~P-./////////////",
"///////+Y^^^^^P./%yP!^^^^^^^~Uf3;X//////////////",
"///////XI^^^^^y/////#;8pff9433nY7///////////////",
"////////P^^^^~%///////9BMMBU!~^f////////////////",
"////////M^^^^I///////+Y^^^^^^^mX////////////////",
"////////g^^^^u///////;^^^^^^^B+/////////////////",
"////////u^^^~%///////h^^^^^^I@//////////////////",
"////////&BQ^U///////oT^^^^^T$///////////////////",
"//////////&y3///////-~^^^^!&////////////////////",
"////////////////////f^^^^~3/////////////////////",
"///////////////////oY^^^~8//////////////////////",
"////////////////////4MT~f///////////////////////",
"//////////////////////$-X///////////////////////"
};
