/* XPM */
static char *_27[] = {
/* columns rows colors chars-per-pixel */
"48 48 111 2 ",
"   c #281412",
".  c #311F1E",
"X  c #2E2E2E",
"o  c #392E2D",
"O  c #333333",
"+  c #3D3636",
"@  c #3D3D3D",
"#  c #401E18",
"$  c #601609",
"%  c #671B0B",
"&  c #5D221A",
"*  c #61251C",
"=  c #74231B",
"-  c #572821",
";  c #512F2C",
":  c #593733",
">  c #702D21",
",  c #783422",
"<  c #7C3829",
"1  c #653F39",
"2  c #793B31",
"3  c #5D423C",
"4  c #444443",
"5  c #4D4342",
"6  c #4B4B4B",
"7  c #564643",
"8  c #5B4441",
"9  c #574D4C",
"0  c #5F504E",
"q  c #535252",
"w  c #5A5A5A",
"e  c #754B45",
"r  c #6F524C",
"t  c #7E5C52",
"y  c #71615E",
"u  c #646464",
"i  c #6F6360",
"p  c #6C6C6B",
"a  c #716968",
"s  c #7C6D69",
"d  c #737373",
"f  c #7A7170",
"g  c #7B7B7B",
"h  c #801700",
"j  c #A21D09",
"k  c #8F2206",
"l  c #8E2314",
"z  c #942C19",
"x  c #AF2806",
"c  c #AA260F",
"v  c #A42B17",
"b  c #A4331C",
"n  c #B53618",
"m  c #B53E1D",
"M  c #833C2A",
"N  c #8E3B2D",
"B  c #933F2F",
"V  c #A83F2C",
"C  c #8E4135",
"Z  c #924030",
"A  c #91473A",
"S  c #A5422A",
"D  c #A14C33",
"F  c #804D45",
"G  c #934F43",
"H  c #92574A",
"J  c #805B51",
"K  c #A35D4B",
"L  c #8D625B",
"P  c #986057",
"I  c #8B6964",
"U  c #9B6B62",
"Y  c #9E786F",
"T  c #807674",
"R  c #9D7975",
"E  c #A27971",
"W  c #A58076",
"Q  c #A2807A",
"!  c #848483",
"~  c #8B8B8B",
"^  c #958E8C",
"/  c #9D8F8D",
"(  c #949494",
")  c #989594",
"_  c #989897",
"`  c #979898",
"'  c #9B9C9C",
"]  c #A18583",
"[  c #A68B87",
"{  c #A48D89",
"}  c #AA918A",
"|  c #AA9592",
" . c #AA9C9A",
".. c #B69992",
"X. c #9FA09F",
"o. c #A4A4A4",
"O. c #ABABAB",
"+. c #B2A7A6",
"@. c #B4ACAB",
"#. c #B5B0AF",
"$. c #B4B3B3",
"%. c #B9B6B5",
"&. c #B6B9B9",
"*. c #BBBCBC",
"=. c #C4C4C4",
"-. c #C4C7C8",
";. c #C7C9C9",
":. c #CBCBCB",
">. c #CED0D0",
",. c #D0D0D0",
"<. c None",
/* pixels */
"<.<.<.<.<.<.<.<.<.<.<.<.<.<.<.<.<.<.<.<.<.<.<.<.<.<.<.<.<.<.<.<.<.<.<.<.<.<.<.<.<.<.<.<.<.<.<.<.",
"<.<.<.<.<.<.<.<.q g 4 <.<.<.<.q <.<.<.<.<.<.<.<.<.<.<.<.<.<.<.<.<.<.<.<.<.<.<.<.<.<.<.<.<.<.<.<.",
"<.<.<.<.<.<.<.<.~ O.~ ( p <.@ g <.<.<.<.<.<.<.<.<.<.<.<.<.<.<.<.<.<.<.<.<.<.<.<.<.<.<.<.<.<.<.<.",
"<.<.<.<.<.<.<.<.' =.o.( ' ' d 4 <.<.<.<.<.<.<.<.<.<.<.<.<.<.<.<.<.<.<.<.<.<.<.<.<.<.<.<.<.<.<.<.",
"<.<.<.<.<.<.<.<.d *.:.=.O.( ' O.( w <.<.<.<.<.<.<.<.<.<.<.<.<.<.<.<.<.<.<.<.<.<.<.<.<.<.<.<.<.<.",
"<.<.<.<.<.<.<.<.<.q ' =.:.;.O.) ' O.' w <.<.6 @ O <.<.<.<.<.<.<.<.<.<.<.<.<.<.<.<.<.<.<.<.<.<.<.",
"<.<.<.<.<.<.<.<.<.<.<.d O.:.:.:.$.) ) ! ' @ o.! ( u 4 6 <.<.4 <.<.<.<.<.<.<.<.<.<.<.<.<.<.<.<.<.",
"<.<.<.<.<.<.<.<.<.<.<.<.<.! *.:.:.:.&.$.o.! ! a ' =.$.o.g q u <.<.<.<.<.<.<.<.<.<.<.<.<.<.<.<.<.",
"<.<.<.<.<.<.<.<.<.<.<.<.<.4 w o.;.:.:.:.( O.7 1 ( ! ( o.*.*.O.~ u q <.<.<.<.<.<.<.<.<.<.<.<.<.<.",
"<.<.<.<.<.<.<.<.<.<.<.<.<.q <.<.g $.:.=.~ $.< s :.=.$.' ~ ~ ' $.=.*.' ! u O <.<.<.<.<.<.<.<.<.<.",
"<.<.<.<.<.<.<.<.<.<.<.<.4 6 <.<.<.p ' O.( +.n } >.:.:.:.:.*.O.~ ! ~ o.O.! X.@ <.<.<.<.<.<.p <.<.",
"<.<.<.<.<.<.<.<.<.<.<.<.q <.<.<.q $.o.p ' ..m @.:.:.:.:.:.:.:.:.=.$.` 8 T ~ u d u p <.<.X u <.<.",
"<.<.<.<.<.<.<.<.<.<.<.<.6 <.<.<.6 O.:.*.~ J D =.:.:.:.:.:.:.:.:.:.:.*.: 0 X.` ' ) O.o.' ~ p p w ",
"<.<.<.<.<.<.<.<.<.<.<.p o.g <.<.<.<.' :.;.~ i $.*.*.;.:.:.:.:.;.:.:.{ l / ' O.*.O.X.' ) ( ) ) ( ",
"<.<.<.<.<.<.<.<.<.<.<.4 g $.$.! <.<.<.~ =.>.&.T e C P [ #.=.:.:.:.-.K S *.~ *.:.:.:.:.;.=.=.*.$.",
"<.<.<.<.<.<.<.<.<.<.<.q <.<.( *.*.( w <.p *.>.=.%.| U A N G Y #.>.@.b R *.~ :.:.:.=.*.*.$.$.o.o.",
"<.<.<.<.<.<.<.<.<.<.<.q <.<.<.u o.:.=.' w q O.:.:.:.:.=.+.R H r ' f & ! ! g ( ! p u w q 4 <.<.<.",
"<.<.<.<.<.<.<.<.<.<.@ 4 <.<.<.<.<.d $.:.;.` g ;.:.:.:.:.:.:.;.$.O.o.o.O.$.$.*.( <.<.<.q <.<.<.<.",
"<.<.<.<.<.<.<.<.<.<.4 <.<.<.<.<.<.<.<.~ *.O._ :.:.;.:.:.:.;.:.:.,.:.:.=.*.*.$.p <.<.<.q <.<.<.<.",
"<.<.<.<.<.<.<.<.<.q o.! q <.<.<.<.<.<.<.u p @.:.:.=.$.=.:.:.:.$.! d p u w <.<.<.<.<.4 6 <.<.<.<.",
"<.<.<.<.<.<.<.<.<.<.u O.$.) u <.<.<.<.<.<.w =.;.X.~ ! ' :.:.;.~ ~ g d u q <.<.<.<.<.6 <.<.<.<.<.",
"<.<.<.<.<.<.<.<.<.4 O <.! &.*.' p <.<.<.<.! :.*.( =.:.~ O.:.&.) ,.:.:.=.*.$.O.' ~ d w <.<.<.<.<.",
"<.<.<.<.<.<.<.<.<.4 <.<.<.q ) =.:.o.g <.<.o.:.o.O.:.:.O.X.:.) u ( ~ ( ) ' ' o.o.o.o.( <.<.<.<.<.",
"<.<.<.<.<.<.<.<.<.4 <.<.<.<.<.u o.:.:.$.p *.:.' *.:.:.( $.:.g <.<.<.<.<.<.<.<.<.<.4 @ <.<.<.<.<.",
"<.<.<.<.<.<.<.<.@ O <.<.<.<.<.<.<.g $.*.~ ;.*.` :.:.=.! =.*.w <.<.<.<.<.<.<.<.<.<.q <.<.<.<.<.<.",
"<.<.<.<.<.<.<.<.( ~ w <.<.<.<.<.<.<.<.d ' >.$.o.:.:.$.( ,.o.<.<.<.<.<.<.<.<.<.<.<.6 <.<.<.<.<.<.",
"<.<.<.<.<.<.<.<.q o.*.' p <.<.<.<.<.<.<.O.:.' $.:.:.' o.>.~ ~ ( ! p w <.<.<.<.<.@ 4 <.<.<.<.<.<.",
"<.<.<.<.<.<.<.<.@ <.d $.=.o.d <.<.<.<.u =.:.) =.:.;.~ *.=.~ ;.:.:.=.=.*.O.o.( g u @ <.<.<.<.<.<.",
"<.<.<.<.<.<.<.4 <.<.<.<.~ *.:.O.! <.<.! :.*.' :.:.*.~ :.$.u ~ ^ ( ) ) ' ' o.o.o.' w <.<.<.<.<.<.",
"<.<.<.<.<.<.<.4 <.<.<.<.<.w ' :.:.*.d o.:.O.O.:.:.O.' :.' <.<.<.<.<.<.<.<.<.<.O @ <.<.<.<.<.<.<.",
"<.<.<.<.<.<.<.4 <.<.<.<.<.<.<.p O.:.~ *.:.` *.:.:.~ $.:.g <.<.<.<.<.<.<.<.<.<.4 <.<.<.<.<.<.<.<.",
"<.<.<.<.<.<.@ 4 <.<.<.<.<.<.<.<.<.g ! :.*.) :.:.=.~ =.*.6 <.<.<.<.<.<.<.<.<.<.4 <.<.<.<.<.<.<.<.",
"<.<.<.<.<.<.6 <.<.<.<.<.<.<.<.<.<.<.' ,.$.o.:.:.$.( :.O.g ( g p w <.<.<.<.<.<.4 <.<.<.<.<.<.<.<.",
"<.<.<.<.<.<.6 <.<.<.<.<.<.<.<.<.<.X p ` ! #.:.>.' O.:.( &.:.:.;.=.$.O. .~ ! u 6 <.<.<.<.<.<.<.<.",
"<.<.<.<.<.<.4 <.<.<.<.<.<.<.<.; 5 ) $.( w g ! X.! *.=.p ~ ( ) ' ' o.o.o.O.o.O.d <.<.<.<.<.<.<.<.",
"<.<.<.<.<.4 <.<.<.<.<.<.<.<.. N I ;.>.X.o.=.O.! q ! ! <.<.<.<.<.<.<.<.<.<.<.@ <.<.<.<.<.<.<.<.<.",
"<.<.<.<.<.! <.<.<.<.<.<.<.<.- B &.>.*.! ;.:.:.*.( &.g <.<.<.<.<.<.<.<.<.<.<.4 <.<.<.<.<.<.<.<.<.",
"<.<.<.<.<.4 <.<.<.<.<.<.<.<.* q ! ' ! O.:.:.:.*.( :._ + <.<.<.<.<.<.<.<.<.4 <.<.<.<.<.<.<.<.<.<.",
"<.<.<.<.<.<.<.<.<.<.<.<.<.<.j t ! g p g ) O.*.$.( >.] = <.<.<.<.<.<.<.<.<.4 <.<.<.<.<.<.<.<.<.<.",
"<.<.<.<.<.<.<.<.<.<.<.<.<.<.c  .*.O.( ! g g g g g &.R j   <.<.<.<.<.<.<.<.4 <.<.<.<.<.<.<.<.<.<.",
"<.<.<.<.<.<.<.<.<.<.<.<.<.<.v @.:.:.:.=.$.' ! ! g g 9 ; <.<.<.<.<.<.<.<.4 @ <.<.<.<.<.<.<.<.<.<.",
"<.<.<.<.<.<.<.<.<.<.<.<.<.<.z ( $.=.:.:.:.:.=.*.O.~ , % <.<.<.<.<.<.<.<.6 <.<.<.<.<.<.<.<.<.<.<.",
"<.<.<.<.<.<.<.<.<.<.<.<.<.<.B O.o.) _ o.*.=.:.:.>.W x <.<.<.<.<.<.<.<.<.6 <.<.<.<.<.<.<.<.<.<.<.",
"<.<.<.<.<.<.<.<.<.<.<.<.<.<.3 O.@.*.*.O.) ( ` $.@.S h <.<.<.<.<.<.<.<.<.@ <.<.<.<.<.<.<.<.<.<.<.",
"<.<.<.<.<.<.<.<.<.<.<.<.<.<.<.o * 2 L { @.=.$.' t k <.<.<.<.<.<.<.<.<.w @ <.<.<.<.<.<.<.<.<.<.<.",
"<.<.<.<.<.<.<.<.<.<.<.<.<.<.<.<.<.<.<.$ > F ^ $.M <.<.<.<.<.<.<.<.<.<.g <.<.<.<.<.<.<.<.<.<.<.<.",
"<.<.<.<.<.<.<.<.<.<.<.<.<.<.<.<.<.<.<.<.<.<.X 9 <.<.<.<.<.<.<.<.<.<.<.<.<.<.<.<.<.<.<.<.<.<.<.<.",
"<.<.<.<.<.<.<.<.<.<.<.<.<.<.<.<.<.<.<.<.<.<.<.<.<.<.<.<.<.<.<.<.<.<.<.<.<.<.<.<.<.<.<.<.<.<.<.<."
};
