/* XPM */
static char *_61[] = {
/* columns rows colors chars-per-pixel */
"48 48 108 2 ",
"   c #1D1D1D",
".  c #3D1C17",
"X  c #301B1A",
"o  c #2D2D2D",
"O  c #3A2C2B",
"+  c #343434",
"@  c #383737",
"#  c #3C3C3C",
"$  c #591107",
"%  c #5C180C",
"&  c #6C1F0C",
"*  c #74200D",
"=  c #6E271B",
"-  c #7F281B",
";  c #4C2A24",
":  c #552A25",
">  c #4F332F",
",  c #433D3C",
"<  c #603029",
"1  c #7B332E",
"2  c #783A2F",
"3  c #763B33",
"4  c #7B4337",
"5  c #444443",
"6  c #4B4B4B",
"7  c #535353",
"8  c #5C5353",
"9  c #5C5C5C",
"0  c #6C4D49",
"q  c #69514B",
"w  c #665D5C",
"e  c #705A58",
"r  c #646464",
"t  c #686867",
"y  c #6B6B6B",
"u  c #736664",
"i  c #736C6B",
"p  c #70706F",
"a  c #737373",
"s  c #7C7574",
"d  c #727778",
"f  c #7C7C7C",
"g  c #911702",
"h  c #911D02",
"j  c #981F08",
"k  c #A91D0B",
"l  c #91260A",
"z  c #902414",
"x  c #962A15",
"c  c #993217",
"v  c #AF250C",
"b  c #AC3316",
"n  c #B93717",
"m  c #8F392A",
"M  c #9D3B20",
"N  c #823F34",
"B  c #804131",
"V  c #8F4A3D",
"C  c #904132",
"Z  c #914538",
"A  c #934C3F",
"S  c #A24A3B",
"D  c #AC503E",
"F  c #84524A",
"G  c #945348",
"H  c #9C584B",
"J  c #965C52",
"K  c #A1574B",
"L  c #876257",
"P  c #836966",
"I  c #926964",
"U  c #9B6F67",
"Y  c #877876",
"T  c #9E7971",
"R  c #9C7F7B",
"E  c #AB7767",
"W  c #9F827B",
"Q  c #A4827C",
"!  c #B2877E",
"~  c #848484",
"^  c #888686",
"/  c #8C8C8C",
"(  c #9C8581",
")  c #8F908F",
"_  c #90908F",
"`  c #949494",
"'  c #9C9493",
"]  c #989897",
"[  c #9B9B9B",
"{  c #A58A85",
"}  c #A5908B",
"|  c #AE9994",
" . c #A79D9B",
".. c #AB9D99",
"X. c #A3A3A3",
"o. c #ABA5A4",
"O. c #A8A8A7",
"+. c #ACACAC",
"@. c #B2A8A6",
"#. c #B4B3B3",
"$. c #BAB7B7",
"%. c #BCBCBC",
"&. c #C0C0BF",
"*. c #BFC0C0",
"=. c #C4C4C4",
"-. c #C6C8C9",
";. c #CBCBCB",
":. c None",
/* pixels */
":.:.:.:.:.:.:.:.:.:.:.:.:.:.:.:.:.:.:.:.6 X.` ;.] :.:.:.:.:.:.:.:.:.:.:.:.:.:.:.:.:.:.:.:.:.:.:.",
":.:.:.:.:.:.:.:.:.:.:.:.:.:.:.:.:.:.:.:.` ` $.;.f :.:.:.:.:.:.:.:.:.:.:.:.:.:.:.:.:.:.:.:.:.:.:.",
":.:.:.:.:.:.:.:.:.:.:.:.:.:.:.:.:.:.:.a O.] ;.$.7 :.:.:.:.:.:.:.:.:.:.:.:.:.:.:.:.:.:.:.:.:.:.:.",
":.:.:.:.:.:.:.:.:.:.:.:.:.:.:.:.:.:.:.O.` =.;.X.# 7 :.:.:.:.:.:.:.:.:.:.:.:.:.:.:.:.:.:.:.:.:.:.",
":.:.:.:.:.:.:.:.:.:.:.:.:.:.:.:.:.:.t ` O.;.;.~ :.:.7 6 :.:.:.:.:.:.:.:.:.:.:.:.:.:.:.:.:.:.:.:.",
":.:.:.:.:.:.:.:.:.:.:.:.:.:.:.:.:.5 [ X.=.;.=.9 :.:.:.6 5 7 :.:.:.:.:.:.:.:.:.:.:.:.:.:.:.:.:.:.",
":.:.:.:.:.:.:.:.:.:.:.:.:.:.:.6 X.f ~ +.;.;.O.6 :.:.:.:.d ] :.:.:.:.:.:.:.:.:.:.:.:.:.:.:.:.:.:.",
":.:.:.:.:.:.:.:.:.:.:.:.:.:.# ` ^ f O./ ] ;.` O.f :.:.:.#.a 6 :.:.:.:.:.:.:.:.:.:.:.:.:.:.:.:.:.",
":.:.:.:.:.:.:.:.:.:.:.:.:.:.~ %.q : e $.[ ~ ~ ;.X.:.:.` +.:.:.6 5 :.:.:.:.:.:.:.:.:.:.:.:.:.:.:.",
":.:.:.:.:.:.:.:.:.:.:.:.5 y =.` [ s z H %.` ` ;.~ :.r *.~ :.:.:.# 6 y :.:.:.:.:.:.:.:.:.:.:.:.:.",
":.:.:.:.:.:.:.:.:.:.:.:.7 #.X./ ;.-.Q b H ~ #.=.t :.X.$.7 :.:.:.:./ _ :.:.:.:.:.:.:.:.:.:.:.:.:.",
":.:.:.:.:.:.:.:.:.:.7 6 O.#.~ =.;.;.-.' z w ;.#.:.a =.` :.:.:.:.t $.9 5 # :.:.:.:.:.:.:.:.:.:.:.",
":.:.:.:.:.:.:.:.:.:.# ` %.~ $.;.;.-.;.;.^ ` ;.] @ #.=.r :.:.:.:.X.X.:.:.5 5 :.:.:.:.:.:.:.:.:.:.",
":.:.:.:.:.:.:.:.:.:.f =./ +.;.;.;.;.;.#.~ %.;.t f ;.[ :.:.:.:.d =.d :.:.:.# 7 d :.:.:.:.:.:.:.:.",
":.:.:.:.:.:.:.:.:.t %.] [ ;.;.;.;.;. .4 ` ;.$.9 $.-.y :.:.:.:.#.+.:.:.:.:.:.[ ~ :.:.:.:.:.:.:.:.",
":.:.:.:.:.:.:.:.6 #.O./ ;.;.;.;.;.#.C T ;.;.%.~ %.+.:.:.:.:.^ ;.~ :.:.:.:.a $.7 5 # :.:.:.:.:.:.",
":.:.:.:.:.:.:.5 X.$.~ =.;.-.;.;.=.G J =.;.;.;.%.^ 9 :.:.:.9 $.$.:.:.:.:.:.+.] :.:.5 5 :.:.:.:.:.",
":.:.:.:.:.:.o p ] ~ $.;.;.;.;.-.U Z #.;.-.;.;.;.*.f :.:.:.] ;.) :.:.:.:.~ =.t :.:.:.# 5 :.:.:.:.",
":.:.:.:.:.:.t +.u q $.;.-.;.;.{ m o.;.;.;.;.;.=.;.-.` :.t =.=.9 :.:.:.7 $.O.:.:.:.:.:.:.6 :.:.:.",
":.:.:.:.:.:.+ f i ; 2 | ;.;.%.N { ;.;.;.;.O.) ^ [ -.;.O.f #.X.:.:.:.:.` ;.f :.:.:.:.:.:.:.6 5 :.",
":.:.:.:.:.:.^ f O. .D n E %.` s =.;.;.;.%.~ %.=.X./ *.;.%.~ 7 :.:.:.t -.#.:.:.:.:.:.:.:.:.:.# 7 ",
":.:.:.:.:.f [ *./ [ *.! c q ] =.;.;.;.;.$.` ;.;.-.+.~ #.;.=.^ :.:.:.X.;.~ :.:.:.:.:.:.:.:.:.:.9 ",
":.:.:.:.X.[ [ ;.=.] ) X.f O.;.;.+.O.;.;.=./ %.;.;.;.$.^ X.;.;.[ 5 y ;.%.7 :.:.:.:.:.:.:.:.:.:.:.",
"~ :.:.[ [ [ ;.;.;.%.p / =.;.$.~ 8 ~ ` -.;.$.) +.;.;.;.=.` ` =.;.O.W +.] :.:.:.:.:.:.:.:.:.:.:.:.",
"9 6 [ ] X.;.;.;.O.~ #.;.=.` 6 6 #.;./ a %.;.=.] X.=.;.;.;.O.~ %.;.=.^ 6 :.:.:.:.:.:.:.:.:.:.:.:.",
"5 [ ] O.;.;.=.` # ~ =.X.t :.7 #.;.+.t :.r #.;.;.O.] =.;.-.;.#.~ +.;.-./   o O X :.:.:.:.:.:.:.:.",
"X.` O.;.;.$.d :.:.:.9 :.:.r #.=.[ :.:.:.:.5 ] ;.;.#.` #.;.;.;.%./ ] =.~ / s 1 k : :.:.:.:.:.:.:.",
"/ O.;.;.X.7 :.:.:.:.:.:.t #.=.~ :.:.:.:.:.t ^ ` =.;.%.` O.;.;.;.-.[ 9 ~ ;.;.#.I > * :.:.:.:.:.:.",
"#.;.=.^ :.:.7 5 :.:.:.t $.#.y :.:.:.:.:.a %.;./ t #.;.-.[ [ =.;.;.X.y / ) #.=.) t c h :.:.:.:.:.",
";.#.y :.:.:.:.7 7 :.t $.O.7 :.:.:.:.:.a *.;.[ 7 :.9 O.;.;.+.` %.#.f %.;.#.) a f ` } b :.:.:.:.:.",
"] 7 :.:.:.:.:.:.# t #./ :.:.:.:.:.:.d =.=.^ :.:.:.:.# ) =.;.$.) t #.;.-.;.O.a ~ *.;.W l :.:.:.:.",
":.:.:.:.:.:.:.:.:.a a # :.:.:.:.:.f =.#.y :.:.:.:.:.f ] ) =.-.~ t #.;.-.%.~ ~ #.;.-.] L & :.:.:.",
":.:.:.:.:.:.:.:.:.:.:.7 6 :.:.:.f =.X.7 :.:.:.:.:.W *.-.^ y ~ ~ $.^ %.=.^ f X.;.;.X.[ =.w :.:.:.",
":.:.:.:.:.:.:.:.:.:.:.:.5 5 :.~ %./ :.:.:.:.:.:.~ -.*.) :.:.# %.;.#./ / f ` ;.;.#.) =.Y # :.:.:.",
":.:.:.:.:.:.:.:.:.:.:.:.:.+ f #.d :.:.:.:.:.:.~ -.%.d :.:.:.# ^ ;.;.~ p ^ -.;.*.) %.R % :.:.:.:.",
":.:.:.:.:.:.:.:.:.:.:.:.:.:.a 7 + :.:.:.:.:.^ ;.O.r :.:.:.:., 3 o.#.f ~ %.;.-.` #. .= :.:.:.:.:.",
":.:.:.:.:.:.:.:.:.:.:.:.:.:.:.:.5 # :.:.:./ =.` :.:.:.:.:.:.:.x V d ~ +.;.;.[ O.#.2 :.:.:.:.:.:.",
":.:.:.:.:.:.:.:.:.:.:.:.:.:.:.:.:.5 5 :.` %.f :.:.:.:.:.:.:.:.. : < P *.;.#.] *.F :.:.:.:.:.:.:.",
":.:.:.:.:.:.:.:.:.:.:.:.:.:.:.:.:.:.+ ~ +.t :.:.:.:.:.:.:.:.:.:.:.g v S ( ) -.( $ :.:.:.:.:.:.:.",
":.:.:.:.:.:.:.:.:.:.:.:.:.:.:.:.:.:.:.t 5 + :.:.:.:.:.:.:.:.:.:.:.:.:.g l A } 8 :.:.:.:.:.:.:.:.",
":.:.:.:.:.:.:.:.:.:.:.:.:.:.:.:.:.:.:.:.:.5 5 :.:.:.:.:.:.:.:.:.:.:.:.:.:.:.:.:.:.:.:.:.:.:.:.:.",
":.:.:.:.:.:.:.:.:.:.:.:.:.:.:.:.:.:.:.:.:.:.# 5 :.:.:.:.:.:.:.:.:.:.:.:.:.:.:.:.:.:.:.:.:.:.:.:.",
":.:.:.:.:.:.:.:.:.:.:.:.:.:.:.:.:.:.:.:.:.:.:.:.5 :.:.:.:.:.:.:.:.:.:.:.:.:.:.:.:.:.:.:.:.:.:.:.",
":.:.:.:.:.:.:.:.:.:.:.:.:.:.:.:.:.:.:.:.:.:.:.:.:.6 5 :.:.:.:.:.:.:.:.:.:.:.:.:.:.:.:.:.:.:.:.:.",
":.:.:.:.:.:.:.:.:.:.:.:.:.:.:.:.:.:.:.:.:.:.:.:.:.:.6 5 :.:.:.:.:.:.:.:.:.:.:.:.:.:.:.:.:.:.:.:.",
":.:.:.:.:.:.:.:.:.:.:.:.:.:.:.:.:.:.:.:.:.:.:.:.:.:.:.@ f :.:.:.:.:.:.:.:.:.:.:.:.:.:.:.:.:.:.:.",
":.:.:.:.:.:.:.:.:.:.:.:.:.:.:.:.:.:.:.:.:.:.:.:.:.:.:.:.7 5 :.:.:.:.:.:.:.:.:.:.:.:.:.:.:.:.:.:.",
":.:.:.:.:.:.:.:.:.:.:.:.:.:.:.:.:.:.:.:.:.:.:.:.:.:.:.:.:.:.:.:.:.:.:.:.:.:.:.:.:.:.:.:.:.:.:.:."
};
