/* XPM */
static char *_67[] = {
/* columns rows colors chars-per-pixel */
"48 48 139 2 ",
"   c #241512",
".  c #221F1F",
"X  c #242424",
"o  c #272828",
"O  c #2D2D2D",
"+  c #2F3030",
"@  c #353535",
"#  c #383333",
"$  c #373838",
"%  c #3B3B3B",
"&  c #481914",
"*  c #511D17",
"=  c #63261E",
"-  c #672A1F",
";  c #73261D",
":  c #7C2218",
">  c #4B2B26",
",  c #522E28",
"<  c #403E3E",
"1  c #5C3E3A",
"2  c #63302A",
"3  c #743329",
"4  c #7C3B2D",
"5  c #6A3D37",
"6  c #5F423D",
"7  c #3F4040",
"8  c #454545",
"9  c #484747",
"0  c #474848",
"q  c #4B4B4B",
"w  c #504F4F",
"e  c #4F504F",
"r  c #545454",
"t  c #575858",
"y  c #5B5A5A",
"u  c #684946",
"i  c #614B48",
"p  c #64504C",
"a  c #6E5855",
"s  c #605F5F",
"d  c #685A58",
"f  c #725753",
"g  c #765852",
"h  c #795B58",
"j  c #72615E",
"k  c #646464",
"l  c #686768",
"z  c #6C6B6B",
"x  c #7A6763",
"c  c #736F6E",
"v  c #7C6E6C",
"b  c #737373",
"n  c #797574",
"m  c #787778",
"M  c #76797A",
"N  c #7C7C7C",
"B  c #A01E06",
"V  c #AF1C03",
"C  c #9F2406",
"Z  c #96230D",
"A  c #8B2C1C",
"S  c #9A2B17",
"D  c #9E3016",
"F  c #AE2304",
"G  c #8B3623",
"H  c #813C2E",
"J  c #973926",
"K  c #A13A28",
"L  c #914A3D",
"P  c #B54329",
"I  c #A24336",
"U  c #AC4431",
"Y  c #A64D37",
"T  c #A14A3A",
"R  c #864D44",
"E  c #914E42",
"W  c #8C5549",
"Q  c #A75F51",
"!  c #8B645D",
"~  c #99665A",
"^  c #A16155",
"/  c #8F6C66",
"(  c #877674",
")  c #807F7F",
"_  c #A47064",
"`  c #A4746A",
"'  c #B37567",
"]  c #A27C76",
"[  c #81807F",
"{  c #A4837D",
"}  c #7F8080",
"|  c #838383",
" . c #888484",
".. c #888788",
"X. c #878888",
"o. c #8C8C8C",
"O. c #928E8D",
"+. c #8F9090",
"@. c #949494",
"#. c #999695",
"$. c #979798",
"%. c #9B9B9B",
"&. c #A38681",
"*. c #A68883",
"=. c #A88B87",
"-. c #A59896",
";. c #A09F9F",
":. c #AC9F9D",
">. c #B09892",
",. c #ADA19F",
"<. c #9F9FA0",
"1. c #A4A3A4",
"2. c #AAA5A5",
"3. c #A7A7A8",
"4. c #A8A7A8",
"5. c #A6A8A8",
"6. c #ABABAB",
"7. c #B0A8A7",
"8. c #B8A9A5",
"9. c #B1AFAE",
"0. c #B8ADAC",
"q. c #B8B0AE",
"w. c #AEAFB0",
"e. c #B4B4B4",
"r. c #B8B5B5",
"t. c #B7B7B8",
"y. c #B7B8B8",
"u. c #BBBBBB",
"i. c #C0BFBF",
"p. c #BEBFC0",
"a. c #C0BFC0",
"s. c #BFC0C1",
"d. c #C3C3C4",
"f. c #C7C7C8",
"g. c #C8C7C8",
"h. c #C7C9C9",
"j. c #CACBCC",
"k. c #CECFD0",
"l. c None",
/* pixels */
"l.l.l.l.l.l.l.l.l.l.l.l.l.l.l.l.l.l.l.l.l.l.l.l.l.l.l.l.l.l.l.k l l.l.l.l.l.l.l.l.l.l.l.l.l.l.l.",
"l.l.l.l.l.l.l.l.l.l.l.l.l.l.l.l.l.l.l.l.l.l.l.l.l.l.l.l.l.l.8 k z l.l.l.l.l.l.l.l.l.l.l.l.l.l.l.",
"l.l.l.l.l.l.l.l.l.l.l.l.l.l.l.l.l.l.l.l.l.l.l.l.l.l.l.l.q q 8 l.l.l.l.l.l.l.l.l.l.l.l.l.l.l.l.l.",
"l.l.l.l.l.l.l.l.l.l.l.l.l.l.l.l.l.l.l.l.l.l.l.l.l.l.q q q l.l.l.l.l.l.l.l.l.l.l.l.l.l.l.l.l.l.l.",
"l.l.l.l.l.l.l.l.l.l.l.l.l.l.l.l.l.l.l.l.l.l.l.l.0 q 9 l.l.l.l.l.l.l.l.l.l.l.l.l.l.l.l.l.l.l.l.l.",
"l.l.l.l.l.l.l.l.l.l.l.l.l.l.l.l.l.l.l.l.l.o.y 8 8 l.l.l.l.l.l.l.l.l.l.l.l.l.l.l.l.l.l.l.l.l.l.l.",
"l.l.l.l.l.l.l.l.l.l.l.l.l.l.l.l.l.l.l.l.% o.%.l.l.l.l.l.l.l.l.l.l.l.l.l.l.l.l.l.l.l.l.l.l.l.l.l.",
"l.l.l.l.l.l.l.l.l.l.l.l.l.l.l.l.l.l.q 0 l.r 1.@.l.l.l.l.l.l.l.l.l.l.l.l.l.l.l.l.l.l.l.l.l.l.l.l.",
"l.l.l.l.l.l.l.l.l.l.l.l.l.l.l.} N % l.l.l.l.X.y.@.l.l.l.l.l.l.l.l.l.l.l.l.l.l.l.l.l.l.l.l.l.l.l.",
"l.l.l.l.l.l.l.l.l.l.l.l.l.l.0 y 6.z l.l.l.l.l.$.u.X.l.l.l.l.l.l.l.. l.F F D G W v l.l.l.l.l.l.l.",
"b l.l.l.l.l.l.l.l.l.l.l.t q l.l.%.r.M l.l.l.l.r 1.y.l l.l.l.l.l.& = , 4 _ -.$.%.y.1 l.l.l.l.l.l.",
"r.@.l.l.l.l.l.l.l.q @.l l.l.l.l.l.%.w.z l.l.l.l.| d.t.c l.l.l.l.: I c M 5.j.d.@.r./ l.l.l.l.l.l.",
"$.u.%.l.l.l.l.s t q X.6.l.l.l.l.l.t e.6.l.l.l.l.l.@.j.1.k l.l.# h 0.t.} o.d.j.1.1.2.3 l.l.l.l.l.",
"@.6.d.o.7 l.t r l.l.l.%.<.l.l.l.l.l.| d.1.l.l.l.l.t 1.j.1.8 l.k u.j.6.b ) 6.j.d.@.r.! l.l.l.l.l.",
"o.@.y.f.@.r l.l.l.l.l.m y.+.l.l.l.l.l.%.d.o.l.l.l.l.k 6.@.) o.| u.1.@.1.| o.d.j.4.1.:.3 l.l.l.l.",
"8 @.$.f.f.1.l.l.l.l.l.l.O.d.@.l.l.l.l.t e.d.| l.l.l.q X.6.d.j.| m %.d.d.@.) 6.j.d.#.r.! l.l.l.l.",
"w z %.1.j.j.$.r l.<.m l.l.%.d.M l.l.l.l.X.d.y.c q m 1.j.j.u.;.N l u.j.j.e.} o.d.j.3.1.7.f l.l.l.",
"l.l.1.$.r.j.j.1.o.u.d.o.l.b u.u.l l.l.l.l.o.@.o.4.d.j.r.%.o.1.i.o.1.k.j.f.@.| 6.k.d.%.s. .l.l.l.",
"l.l.N 1.$.d.j.j.5.o.u.d.@.l.o.f.e.l l.l.t ) 6.j.j.r.%.O.1.i.j.j.e.| y.r.5.| b o.j.j.1./ H l.l.l.",
"l.l.l.o.o.6.j.r.@.M o.p.j.$.r %.f.X.r X.6.j.j.r.%.O.4.d.j.j.j.j.y.l m #.1.6.o.N 6.0.~ Z l.l.l.l.",
"l.l.l.l.) 6.$.O.1.u.O.n u.f.$.z @.@.r.f.j.r.$.@.4.d.j.j.j.j.r.;.%.$.M d.j.k.e.N v T B l.l.l.l.l.",
"l.l.l.l.s M %.6.=.^ K 2 } d.j.e.y.j.j.y.@.@.6.d.j.j.j.j.y.;.$.6.d.j.| @.w.:.&.p ; V l.l.l.l.l.l.",
"l.l.l.l.s O.v 1 A U _ 2.%.@.g.j.j.j.f.@.1.d.j.j.j.f.e.%.$.e.g.j.d.1.m 8 r 5 S - * l.l.l.l.l.l.l.",
"l.l.l.l.k @.d u O.r.j.k.r.g 0.j.j.j.d.o.d.j.j.j.e.;.%.e.f.j.d.1.o.} l.l.l.l.>   l.l.l.l.l.l.l.l.",
"l.l.l.l.8 @.@. .h.j.j.j.p.W ] g.j.j.i. .w.d.e.%.%.e.f.j.s.%.z t r.e.l.l.l.l.l.l.l.l.l.l.l.l.l.l.",
"l.l.l.l.l.b u.o.e.j.j.j.j.*.L r.j.j.j.e.@.+.%.r.g.j.s.%.b l.l.l.6.d.c l.l.l.l.l.l.l.l.l.l.l.l.l.",
"l.l.l.l.l.l.%.6.+.f.j.f.j.u.E ] j.j.j.j.d.u.j.j.i.@. .@.m l.l.l.@.j.@.l.l.l.l.l.l.l.l.l.l.l.l.l.",
"l.l.l.l.l.l.c y.o.r.j.j.j.j.&.L r.j.j.j.j.k.u.$.l q ,.f.N l.l.l.l.d.@.l.l.l.l.l.l.l.l.l.l.l.l.l.",
"l.l.l.l.l.l.l.%.6.@.j.j.j.j.u.L ] j.j.j.u.$.l l.l.l.@.j.@.l.l.l.l.e.6.l.l.l.l.l.l.l.l.l.l.l.l.l.",
"l.l.l.l.l.l.l.l u.o.r.j.j.j.j.{ R r.j.6.N 1.@.l.l.l.r d.1.l.l.l.l.o.y.l.l.l.l.l.l.l.l.l.q b t l.",
"l.l.l.l.l.l.8 y %.6.#.j.j.j.j.d.( @.k.%.l j.6.l.l.l.8 1.y.k l.l.l.N y.X.l.l.l.l.l.X % s l.l.l.l.",
"l.l.l.l.l.l.l.l.b y.o.r.j.j.j.j.9.O.j.1.q y.y.l.l.l.l.@.d.y l.l.l.l.e.| l.l.l.l.$ q l.l.l.l.l.l.",
"l.l.l.l.l.l.l.l.r 1.6.$.j.j.f.8.~ x f.6.l.6.d.m l.l.l...u.o.l.l.l.l.@.%.l.O $ 8 l.l.l.l.l.l.l.l.",
"l.l.l.l.l.l.l.l.8 N y.O.y.r.` P Y v d.e.l.M d.| l.l.l.l.5.$.l.l.l.l.m 1.8 $ O l.l.l.l.l.l.l.l.l.",
"l.l.l.l.l.l.l.l.l.l.6.$.j 5 J ' 0.+.y.r.r 9 r.<.l.l.l.l.@.6.l.l.l.O q | $ l.l.l.l.l.l.l.l.l.l.l.",
"l.l.l.l.l.l.l.l.l.l.M | a w -.e.$.b w.u.l.l.<.6.l.l.l.l.o.6.8 X $ $ O # l.l.l.l.l.l.l.l.l.l.l.l.",
"l.l.l.l.l.l.l.l.l.l.% O.$.@.$.+.6.@.3.y.l.l.o.r.l.l.l.l.8 1.k # O l.l.l.l.l.l.l.l.l.l.l.l.l.l.l.",
"l.l.l.l.l.l.l.l.l.l.l.e q | 6.d.j.6.o.@.l.l.q 6.b l.l.O $ l y l.l.l.l.l.l.l.l.l.l.l.l.l.l.l.l.l.",
"l.l.l.l.l.l.l.l.l.l.l.l.l.@.4.d.j.r.l l.l.l.l.%.X.% 8 $ X l.l.l.l.l.l.l.l.l.l.l.l.l.l.l.l.l.l.l.",
"l.l.l.l.l.l.l.l.l.l.l.l.l.b o.y.j.d.z l.l.l.l.m o.$ o l.l.l.l.l.l.l.l.l.l.l.l.l.l.l.l.l.l.l.l.l.",
"l.l.l.l.l.l.l.l.l.l.l.l.l.z 1.1.j.f.| l.l.8 8 8 l.l.l.l.l.l.l.l.l.l.l.l.l.l.l.l.l.l.l.l.l.l.l.l.",
"l.l.l.l.l.l.l.l.l.l.l.l.l.l.%.%.f.j.o.% 8 $ X l.l.l.l.l.l.l.l.l.l.l.l.l.l.l.l.l.l.l.l.l.l.l.l.l.",
"l.l.l.l.l.l.l.l.l.l.l.l.l.l.$.$.y.k.$.% l.l.l.l.l.l.l.l.l.l.l.l.l.l.l.l.l.l.l.l.l.l.l.l.l.l.l.l.",
"l.l.l.l.l.l.l.l.l.l.l.l.l.l.| ;.1.j.9.l.l.l.l.l.l.l.l.l.l.l.l.l.l.l.l.l.l.l.l.l.l.l.l.l.l.l.l.l.",
"l.l.l.l.l.l.l.l.l.l.l.l.l.b q $.$.j.y.l.l.l.l.l.l.l.l.l.l.l.l.l.l.l.l.l.l.l.l.l.l.l.l.l.l.l.l.l.",
"l.l.l.l.l.l.l.l.l.l.l.l.l.k 8 X.%.y.d.z l.l.l.l.l.l.l.l.l.l.l.l.l.l.l.l.l.l.l.l.l.l.l.l.l.l.l.l.",
"l.l.l.l.l.l.l.l.l.l.l.l.l.l.l.l.#.6.j.| l.l.l.l.l.l.l.l.l.l.l.l.l.l.l.l.l.l.l.l.l.l.l.l.l.l.l.l.",
"l.l.l.l.l.l.l.l.l.l.l.l.l.l.l.l.@.%.j.$.l.l.l.l.l.l.l.l.l.l.l.l.l.l.l.l.l.l.l.l.l.l.l.l.l.l.l.l."
};
