/* XPM */
static char *_68[] = {
/* columns rows colors chars-per-pixel */
"48 48 140 2 ",
"   c #1F1F1F",
".  c #3D1D19",
"X  c #242324",
"o  c #2D2D2D",
"O  c #302F2E",
"+  c #2F3030",
"@  c #333333",
"#  c #393635",
"$  c #373838",
"%  c #3C3C3C",
"&  c #522119",
"*  c #682116",
"=  c #762412",
"-  c #76281A",
";  c #4F2723",
":  c #4D2C28",
">  c #5E2B21",
",  c #532E28",
"<  c #5F3128",
"1  c #563532",
"2  c #5A3730",
"3  c #5C3D3A",
"4  c #6B2C23",
"5  c #733429",
"6  c #77382D",
"7  c #6E3930",
"8  c #72423B",
"9  c #444344",
"0  c #494443",
"q  c #474748",
"w  c #4B4B4B",
"e  c #535353",
"r  c #575758",
"t  c #5B5A5A",
"y  c #6D4B46",
"u  c #7E4C44",
"i  c #7F5047",
"p  c #7F5F5A",
"a  c #646464",
"s  c #686767",
"d  c #686867",
"f  c #686768",
"g  c #6C6C6C",
"h  c #706260",
"j  c #746967",
"k  c #756F6D",
"l  c #706F70",
"z  c #747474",
"x  c #7C7372",
"c  c #7D7877",
"v  c #787778",
"b  c #777878",
"n  c #7B7B7B",
"m  c #881D07",
"M  c #961B02",
"N  c #A21B03",
"B  c #A01F08",
"V  c #84230E",
"C  c #9C210F",
"Z  c #A72F19",
"A  c #AD321C",
"S  c #A8381E",
"D  c #863121",
"F  c #A53B25",
"G  c #834131",
"H  c #8E493D",
"J  c #904437",
"K  c #93493D",
"L  c #AF442D",
"P  c #A34C3B",
"I  c #B64930",
"U  c #82564F",
"Y  c #8A544A",
"T  c #915449",
"R  c #895E56",
"E  c #84655E",
"W  c #966157",
"Q  c #9B6457",
"!  c #A96A5D",
"~  c #8F6963",
"^  c #9B6660",
"/  c #9C6C62",
"(  c #9D716A",
")  c #8E7671",
"_  c #817877",
"`  c #827E7E",
"'  c #897F7E",
"]  c #AF796A",
"[  c #A07871",
"{  c #AB7D75",
"}  c #A3837E",
"|  c #807F80",
" . c #7F8080",
".. c #838383",
"X. c #8B8483",
"o. c #8C8B8C",
"O. c #968380",
"+. c #968886",
"@. c #908F8F",
"#. c #8F8F90",
"$. c #8F9293",
"%. c #939393",
"&. c #989797",
"*. c #979798",
"=. c #989798",
"-. c #979898",
";. c #9B9B9B",
":. c #A68A85",
">. c #A79693",
",. c #AB9693",
"<. c #A09E9E",
"1. c #AD9E9C",
"2. c #ADA19F",
"3. c #B1A29F",
"4. c #9F9FA0",
"5. c #9FA0A0",
"6. c #A3A3A4",
"7. c #AAA7A7",
"8. c #A7A7A8",
"9. c #A8A7A8",
"0. c #A7A8A9",
"q. c #ACACAC",
"w. c #B4ABA9",
"e. c #B9ABA9",
"r. c #AFAFB0",
"t. c #B4B4B4",
"y. c #BAB6B6",
"u. c #B7B7B8",
"i. c #B8B7B8",
"p. c #B7B8B8",
"a. c #BBBBBB",
"s. c #C0BFBF",
"d. c #BEBFC0",
"f. c #C0BFC0",
"g. c #C3C3C4",
"h. c #C7C7C8",
"j. c #C8C7C8",
"k. c #C7C8C9",
"l. c #CBCBCC",
"z. c None",
/* pixels */
"z.z.z.z.z.z.z.z.z.z.z.z.z.z.z.z.z.z.z.z.z.z.z.z.z.z.z.z.z.z.z.z.w w z.z.z.z.z.z.z.z.z.z.z.z.z.z.",
"z.z.z.z.z.z.z.z.z.z.z.z.z.z.z.z.z.z.z.z.z.z.z.z.z.z.z.z.z.z.z.q g t z.z.z.z.z.z.z.z.z.z.z.z.z.z.",
"z.z.z.z.z.z.z.z.z.z.z.z.z.z.z.z.z.z.z.z.z.z.z.z.z.z.z.z.z.w w 9 % z.z.z.z.z.z.z.z.z.z.z.z.z.z.z.",
"z.z.z.z.z.z.z.z.z.z.z.z.z.z.z.z.z.z.z.z.z.z.z.z.z.z.z.w w w z.z.z.z.z.z.z.z.z.z.z.z.z.z.z.z.z.z.",
"z.z.z.z.z.z.z.z.z.z.z.z.z.z.z.z.z.z.z.z.z.z.z.z.z.w w z.z.z.z.z.z.z.z.z.z.z.z.z.z.z.z.z.z.z.z.z.",
"z.z.z.z.z.z.z.z.z.z.z.z.z.z.z.z.z.z.z.z.z.z...q q z.z.z.z.z.z.z.z.z.z.z.z.z.z.z.z.z.z.z.z.z.z.z.",
"z.z.z.z.z.z.z.z.z.z.z.z.z.z.z.z.z.z.z.z.9 w 6. .z.z.z.z.z.z.z.z.z.z.z.z.z.z.z.z.z.z.z.z.z.z.z.z.",
"z.z.z.z.z.z.z.z.z.z.z.z.z.z.z.z.z.z.w q q z.k t.f z.z.z.z.z.z.z.z.z.z.z.z.z.z.z.z.z.z.z.z.z.z.z.",
"z.z.z.z.z.z.z.z.z.z.z.z.z.z.z.e %.a @ z.z.z.z.8.t.f z.z.z.z.z.z.z.z.z.z.z.z.z.z.z.z.z.z.z.z.z.z.",
"#.z.z.z.z.z.z.z.z.z.z.z.z.t w 9 n q.t z.z.z.z.n t.6.z.z.z.z.z.z.z.z.z.z.z.M m V > z.z.z.z.z.z.z.",
"q.%.w z.z.z.z.z.z.z.z f e w z.z.z.0.6.z.z.z.z.z.n g.%.z.z.z.z.z.z.. : = F P Q E 2.n z.z.z.z.z.z.",
"%.a.&.z.z.z.z.z.z.w b ;.t z.z.z.z.g u.-.z.z.z.z.z.q.g.%.z.z.z.z.; C 8 t ' a.g.;.t.} z.z.z.z.z.z.",
"%.;.h.;.z.z.z.t r z.z.6.%.z.z.z.z.z...g.` z.z.z.z.o.s.a.b z.z.z.1 Q q.o...d.l.w.;.q.6 z.z.z.z.z.",
"..%.q.k.o.e e z.z.z.z.t t.%.z.z.z.z.z.q.a.b z.z.z.z.o.k.t.f z.$ o.g.h.X.n 6.l.g.*.t.~ z.z.z.z.z.",
"$ o.%.f.k.&.z.z.z.z.z.z.;.a.b z.z.z.z. .g.q.d z.z.z.w 8.q.z z g t.g.;.o. .o.s.l.7.6.7.5 z.z.z.z.",
"r t ;.6.l.k.;.z.z.z.z.z.z.q.t.f z.z.z.z.%.k.6.z.z.z.z.g ;.a.l.;...%.0.g.-.n 8.l.g.&.y.R z.z.z.z.",
"a z.%.=.y.l.g.%.b t.r.n z.g g.8.z.z.z.z.z.a.j...0 g %.a.l.k.t.o.t 8.l.l.t...o.g.l.8.0.>.4 z.z.z.",
"z.z.z.6.=.g.l.j.;.4.k.t.a z.7.k.*.z.z.z.z.z %.o.;.g.l.g.q.%.%.q.o.4.l.l.h.%. .r.l.d.;.a.' z.z.z.",
"z.z.z.o.;.6.l.k.u.b %.l.t...a t.h.o.z.z.t n q.g.l.s.6.@.;.w.h.l.u...g.k.g.;.z %.k.l.6.q.+.z.z.z.",
"z.z.z.q n 8.t.&.o.4.$.5.l.a.f v a.%.t o.t.l.k.a.<.@.;.y.k.l.l.l.g.b ..%.%.o.b ..p.l.7.Y D z.z.z.",
"z.z.z.z.z o.#.6.t.7.( 7 ;.l.a.n o.8.a.l.k.t.;.@.8.a.l.l.l.k.g.q.;...g t.g.k.8.| %.,.P B z.z.z.z.",
"z.z.z.z.t b o._ K A F U n q.k.g.g.l.l.t.%.%.q.g.l.l.l.k.g.q.%.6.u.g...q.l.g.t.z y Z N z.z.z.z.z.",
"z.z.z.z.g 5.h , u { q.g.t.c g.l.l.l.k.%.7.k.l.l.l.k.a.6.%.7.a.l.l.a...t z E P 7 * z.z.z.z.z.z.z.",
"z.z.z.z.9 o.x n f.l.l.l.y.i 1.l.k.l.f.%.g.l.l.j.t.<.=.q.g.l.k.a.;.b q z.z.3 - & z.z.z.z.z.z.z.z.",
"z.z.z.z.z...u.o.g.l.k.l.g.W ^ h.l.l.s.o.8.g.q.;.;.t.g.l.g.q.n a 7.6.z.z.z.z.z.z.z.z.z.z.z.z.z.z.",
"z.z.z.z.z.r r.%.8.l.l.k.l.,.J e.l.k.k.a.%.@.6.u.k.l.g.6...z.z.w a.a.z.z.z.z.z.z.z.z.z.z.z.z.z.z.",
"z.z.z.z.z.z.o.t.o.g.l.l.l.g.Y [ k.l.l.l.k.g.l.l.a.%.o.o.z.z.z.z.6.g.%.z.z.z.z.z.z.z.z.z.z.z.z.z.",
"z.z.z.z.z.9 t t.%.q.l.k.l.l.:.K y.l.k.l.l.k.t.%.l e 7.g.z z.z.z.%.g...z.z.z.z.z.z.z.z.z.z.z.z.z.",
"z.z.z.z.z.z.z.o.w.%.k.k.l.l.a.H } l.k.h.q.%.r z.z.z.8.k.o.z.z.z.o.a.;.z.z.z.z.z.z.z.z.z.z.z.z.z.",
"z.z.z.z.z.z.9 g a.o.t.l.k.l.l.} U s.l.&...q. .z.z.z.z k.%.z.z.z.z.q.8.z.z.z.z.z.z.z.z.z.z.g z.z.",
"z.z.z.z.z.z.z.w ;.q.&.k.l.l.l.g.' 7.l.` n l.;.z.z.z.r a.q.z.z.z.z.;.t.z.z.z.z.z.z.z.z.z.w z z.z.",
"z.z.z.z.z.z.z.z.b a.o.a.l.l.l.g.&.<.l...t g.8.z.z.z.z.q.q.z.z.z.z.o.t.z.z.z.z.z.o $ q z.z.z.z.z.",
"z.z.z.z.z.z.z.z.t 8.5.5.l.k.e.] G X.l.%.z.a.t.z.z.z.z.<.p.z z.z.z.d q.z z.z.o 9 w z.z.z.z.z.z.z.",
"z.z.z.z.z.z.z.z.z.b p.o.8.) L I / @.l.;.z.6.a.z.z.z.z.a a.a z.z.z.z.5...@ # @ z.z.z.z.z.z.z.z.z.",
"z.z.z.z.z.z.z.z.z.t q.k 2 < ! e.q.o.k.%.z.z g.b z.z.z.r q.o.z.z.z.X n ..+ z.z.z.z.z.z.z.z.z.z.z.",
"z.z.z.z.z.z.z.z.z.% k %.j @.r.;...n k.6.z.z.a...z.z.z.z.6.o.z.z.$ @ 9 e z.z.z.z.z.z.z.z.z.z.z.z.",
"z.z.z.z.z.z.z.z.z.z.e o.b %.%.8.a.o.g.4.z.z.q.-.z.z.z.z.v ;.% % o z.z.z.z.z.z.z.z.z.z.z.z.z.z.z.",
"z.z.z.z.z.z.z.z.z.z.z.O a q.g.k.k.X.o.z.z.z. .8.z.z.z.o w ..# z.z.z.z.z.z.z.z.z.z.z.z.z.z.z.z.z.",
"z.z.z.z.z.z.z.z.z.z.z.z.k o.q.l.k.%.z.z.z.z.g q.e % 9 @ X z.z.z.z.z.z.z.z.z.z.z.z.z.z.z.z.z.z.z.",
"z.z.z.z.z.z.z.z.z.z.z.z.$ %.;.k.l.6.z.z.z.z.e ;.r @ z.z.z.z.z.z.z.z.z.z.z.z.z.z.z.z.z.z.z.z.z.z.",
"z.z.z.z.z.z.z.z.z.z.z.z.z.%.%.f.l.q.z.z.% q % f z.z.z.z.z.z.z.z.z.z.z.z.z.z.z.z.z.z.z.z.z.z.z.z.",
"z.z.z.z.z.z.z.z.z.z.z.z.z.o.;.r.l.t.w q % o z.z.z.z.z.z.z.z.z.z.z.z.z.z.z.z.z.z.z.z.z.z.z.z.z.z.",
"z.z.z.z.z.z.z.z.z.z.z.z.z.z.6.5.l.a.w X z.z.z.z.z.z.z.z.z.z.z.z.z.z.z.z.z.z.z.z.z.z.z.z.z.z.z.z.",
"z.z.z.z.z.z.z.z.z.z.z.z.z.w -.-.g.g...z.z.z.z.z.z.z.z.z.z.z.z.z.z.z.z.z.z.z.z.z.z.z.z.z.z.z.z.z.",
"z.z.z.z.z.z.z.z.z.z.z.z.g r b ;.i.k.b z.z.z.z.z.z.z.z.z.z.z.z.z.z.z.z.z.z.z.z.z.z.z.z.z.z.z.z.z.",
"z.z.z.z.z.z.z.z.z.z.z.z.z.z.b ;.q.l.o.z.z.z.z.z.z.z.z.z.z.z.z.z.z.z.z.z.z.z.z.z.z.z.z.z.z.z.z.z.",
"z.z.z.z.z.z.z.z.z.z.z.z.z.z.z.;.;.l.;.z.z.z.z.z.z.z.z.z.z.z.z.z.z.z.z.z.z.z.z.z.z.z.z.z.z.z.z.z.",
"z.z.z.z.z.z.z.z.z.z.z.z.z.z.z.o.%.g.q.z.z.z.z.z.z.z.z.z.z.z.z.z.z.z.z.z.z.z.z.z.z.z.z.z.z.z.z.z."
};
