/* XPM */
static char *_78[] = {
/* columns rows colors chars-per-pixel */
"48 48 134 2 ",
"   c #151304",
".  c #1D1A06",
"X  c #2C2A09",
"o  c #302E0A",
"O  c #36330B",
"+  c #39370C",
"@  c #3B390C",
"#  c #423F0D",
"$  c #45430E",
"%  c #49470F",
"&  c #4D4B10",
"*  c #504E11",
"=  c #555412",
"-  c #585612",
";  c #5D5A13",
":  c #615F15",
">  c #656215",
",  c #686616",
"<  c #6B6917",
"1  c #716C17",
"2  c #716E18",
"3  c #767219",
"4  c #787519",
"5  c #7D7A1B",
"6  c #757B4C",
"7  c #6B7F7C",
"8  c #817E1C",
"9  c #7F8544",
"0  c #768462",
"q  c #7A8265",
"w  c #73836E",
"e  c #7C8A68",
"r  c #728470",
"t  c #7B8E79",
"y  c #85811C",
"u  c #89861D",
"i  c #8E8A1E",
"p  c #928D1F",
"a  c #94901F",
"s  c #99951F",
"d  c #87882F",
"f  c #8C8C2D",
"g  c #908D24",
"h  c #969222",
"j  c #999521",
"k  c #9D9921",
"l  c #9D9B2C",
"z  c #8D8F36",
"x  c #81863D",
"c  c #939332",
"v  c #9A9B35",
"b  c #94963A",
"n  c #A29D22",
"m  c #A19F29",
"M  c #A6A124",
"N  c #AAA524",
"B  c #AEAA25",
"V  c #B2AE26",
"C  c #B6B227",
"Z  c #B8B427",
"A  c #B7B528",
"S  c #BAB628",
"D  c #BEBA29",
"F  c #A6A734",
"G  c #AAAA32",
"H  c #B6B430",
"J  c #B9B736",
"K  c #B1B13A",
"L  c #BCBB3D",
"P  c #C3BD24",
"I  c #C1BD2A",
"U  c #C5C12A",
"Y  c #CAC62B",
"T  c #CDC92C",
"R  c #D2CE2D",
"E  c #D5D22E",
"W  c #DAD62F",
"Q  c #DDD92F",
"!  c #C4C030",
"~  c #D6D436",
"^  c #DEDB30",
"/  c #D2D03D",
"(  c #E2DD2E",
")  c #E2DE31",
"_  c #EFEA2E",
"`  c #E6E232",
"'  c #E9E532",
"]  c #EDEA33",
"[  c #F2EE34",
"{  c #F5F235",
"}  c #F9F636",
"|  c #FFFB37",
" . c #FFFE38",
".. c #8E964C",
"X. c #9A9E4F",
"o. c #939B5E",
"O. c #A0A241",
"+. c #ABAE51",
"@. c #BBBC5B",
"#. c #808C62",
"$. c #899977",
"%. c #929D74",
"&. c #9CA87B",
"*. c #CFCE40",
"=. c #718786",
"-. c #788F92",
";. c #829682",
":. c #93AA9D",
">. c #A2B193",
",. c #839EA6",
"<. c #9BB2A3",
"1. c #8AA5B2",
"2. c #8AA8B8",
"3. c #90AEB9",
"4. c #94B2B4",
"5. c #A8B9A0",
"6. c #A6BCBD",
"7. c #9DB9C4",
"8. c #9EBFCD",
"9. c #A1BED3",
"0. c #A2C1CA",
"q. c #ACC4CB",
"w. c #AAC8D2",
"e. c #A2C7D9",
"r. c #A7C8DD",
"t. c #AACADB",
"y. c #A7CDE4",
"u. c #AECCE2",
"i. c #ADD3EA",
"p. c #B4D2E3",
"a. c #B8DDEE",
"s. c #BFE1F5",
"d. c #C4E6F8",
"f. c None",
/* pixels */
"f.f.f.f.f.f.f.f.f.f.f.f.f.f.f.f.f.f.f.f.f.f.f.f.f.f.f.f.f.f.f.f.f.f.f.f.f.f.f.f.f.f.f.f.f.f.f.f.",
"f.f.f.f.f.f.f.f.f.f.f.f.f.f.f.f.f.f.f.f.f.f.f.f.f.f.f.f.f.f.f.f.f.f.f.f.f.f.f.f.f.f.f.f.f.f.f.f.",
"f.f.f.f.f.f.f.f.f.f.f.f.f.f.f.f.f.f.f.f.f.f.f.f.f.f.f.f.f.f.f.f.f.f.f.f.f.f.f.f.f.f.f.f.f.f.f.f.",
"f.f.f.f.f.f.f.f.f.f.f.f.f.f.f.f.f.f.f.f.f.f.f.f.f.f.f.f.f.f.f.f.f.f.f.f.f.f.f.f.f.f.f.f.f.f.f.f.",
"f.f.f.f.f.f.f.f.f.f.f.f.f.f.f.f.f.f.f.f.f.f.f.f.f.f.f.f.f.f.f.f.f.f.f.f.f.f.f.f.f.f.f.f.f.f.f.f.",
"f.f.f.f.f.f.f.f.f.f.f.f.f.f.f.f.& f.f.f.f.f.f.f.f.f.f.f.f.f.f.f.f.f.f.f.f.f.f.f.f.f.f.f.f.f.f.f.",
"f.f.f.f.f.f.f.f.f.f.f.f.X : M M V C A C B N j d - f.f.f.f.f.f.f.f.f.f.f.f.f.f.f.f.f.f.f.f.f.f.f.",
"f.f.f.f.f.f.f.f.f.f.f.5 N W ' { |  . . . . . . .` E g & f.f.f.f.f.f.f.f.f.f.f.f.f.f.f.f.f.f.f.f.",
"f.f.f.f.f.f.f.f.f.: D ] } |  .| | | | | | | | | |  .{ Y M & f.f.f.f.f.f.f.f.f.f.f.f.f.f.f.f.f.f.",
"f.f.f.f.f.f., O 8 ) | | | | | | | | | | | } | | | | |  .' B 5   f.f.f.f.f.f.f.f.f.f.f.f.f.f.f.f.",
"f.f.f.f.f.% W N M }  .| | | | | | | | | | | | | | | | |  .} I : f.f.f.f.f.f.f.f.f.f.f.f.f.f.f.f.",
"f.f.f.f.f.y  .[ N V } | | | | | | | | | | | | | | | | | | |  .E 2 @ f.f.f.f.f.f.f.f.f.f.f.f.f.f.",
"f.f.f.f.f.Z  . .] M Z | | | | | | | | | | | | | | | | | | | |  .^ p u 5 f.f.f.f.f.f.f.f.f.f.f.f.",
"f.f.f.f.u )  .|  .` B I |  .| | | | | | | | | | | | | | | | | | | R N W S < X f.f.f.f.f.f.f.f.f.",
"f.f.f.f.u | | | | | ) V Y  .| |  . . . . .| | | | | | | | | | |  .} D C  .{ S 5 @ f.f.f.f.f.f.f.",
"f.f.f.f.Z  .| | |  .| Q n T  . .[ ) ^ ) ' [ | | | | | | | | | | |  .` B E  . .[ I g f.f.f.f.f.f.",
"f.f.f.n E  .| | | | | | W M C D B Z V n h G ~ [  .| | | | | | | | | | I V }  .| | ` I j $ f.f.f.",
"f.f.f.U ` | | | | | | | { k ; < h S R Q b 7 r v ( | | | | | | | | |  .) Z ^  .| | | } ^ M 3 f.f.",
"f.f.f.I {  .| | | |  .| U M C D Y Y U E G <.i.,.9 R  .| | | | | | | | | Z Y | | | |  . .} W 2 f.",
"f.f.O D | | | | | |  .Y N Q | | } ] E P p e w.d.1.x ( | | | | | | | |  .Y S [ | | | | |  . .n f.",
"f.f.$ W | | | | |  .] n ~ | | |  . . . .[ D o.6.s.-.F { | | | | | | |  .' B `  .| | |  . . .p f.",
"f.f.- ` | | | | |  .Y B { | | | | | | |  . .( X.q.r.6 ^ | | | | | | | | | n E [ { } |  .|  .u f.",
"f.f., { | | | | | | M E | | | | | | | | | | | ( %.a.=.I | | | | | | | |  .i * - : < 3 5 i k = f.",
"f.f.< } | | | | | } j ' | | | | | | | | | |  .| O.t.2.l } | | | | | | |  .n f.f.f.f.f.f.f.f.. f.",
"f.f.4 } | | | | | { j [  .| | | | | | | | | |  .J 7.8.d | | | | | | | | | B f.f.f.f.f.f.f.f.f.f.",
"f.f.4 | | | | | | [ n ' | | | | | | | | | | | } L 7.8.z | | | | | | | | | S f.f.f.f.f.f.f.f.f.f.",
"f.f.1 } | | | | | { V R  .| | | | | | | | | | } @.u.4.M | | | | | | | | { V f.f.f.f.f.f.f.f.f.f.",
"f.f.< }  .| | |  .} Y V  .| | | | | | | |  .} / >.i.;.P | | | | | | | | [ n f.f.f.f.f.f.f.f.f.f.",
"f.f.> {  .| | | |  .^ n ^  .| | |  . . .} { *.&.u.0..._ | | | | | | | | ^ 5 f.f.f.f.f.f.f.f.f.f.",
"f.f.5 )  .| | | | | } D B }  .} { [ ] ) ! +.5.p.t.$.U | | | | | | | |  .U - = = * & & & % f.f.f.",
"f.f.f.W  .| | | | |  .[ M y M I Y T T n 0 9.s.e.t G } | | | | | | | | } C M ] ` Q E U D V y & f.",
"f.f.p E  .| | | | |  .^ h 8 8 j I W ' K :.y.3.e A { | | | | | | | |  .Q M Y  .| | | |  .| U d f.",
"f.f., R  .| | | | | W n I ` T V V U Y z w 0 c W } | | | | | | | | | | Z N '  .| | | | |  .D f.f.",
"f.f.@ D | | |  .| U n T {  .| ` T S V n Z ( | | | | | | | | | | | | ` h Y  .| | | |  . . .S f.f.",
"f.f.f.V } | | } D k Q | | |  . . . . . .| | | | | | | | | | | | | | N M '  .| | |  . .' U 4 f.f.",
"f.f.f.k {  .[ Z k ) | | | | | | | | | | | | | | | | | | | | | | | T a Q |  . . .{ R k C f.O f.f.",
"f.f.f.< { ] B n ]  .| | | | | | | | | | | | | | | | | | | | | | ` i Y | | } Q M , f.f.f.f.f.f.f.",
"f.f.f.= D 5 u {  .| | | | | | | | | | | | | | | | | | | | | | ' M C ] ^ Y y @ f.f.f.f.f.f.f.f.f.",
"f.f.f.f.: . 1 Y |  .| | | | | | | | | | | | | | | | | | | | Q s i B M ; f.f.f.f.f.f.f.f.f.f.f.f.",
"f.f.f.f.f.f.f.* V ]  .| | | | | | | | | | | | | | | | | } U ; $ y $ f.f.f.f.f.f.f.f.f.f.f.f.f.f.",
"f.f.f.f.f.f.f.f.f.4 U {  . . .| | | | | | | | | |  . .Q h $ f.f.f.f.f.f.f.f.f.f.f.f.f.f.f.f.f.f.",
"f.f.f.f.f.f.f.f.f.f.f.3 C ^ }  . . . . . .} |  .{ R p : f.f.f.f.f.f.f.f.f.f.f.f.f.f.f.f.f.f.f.f.",
"f.f.f.f.f.f.f.f.f.f.f.f.f.u 5 k D E Q ` ` W I n < $ f.f.f.f.f.f.f.f.f.f.f.f.f.f.f.f.f.f.f.f.f.f.",
"f.f.f.f.f.f.f.f.f.f.f.f.f.f.f.f.2 y y y , $ X f.f.f.f.f.f.f.f.f.f.f.f.f.f.f.f.f.f.f.f.f.f.f.f.f.",
"f.f.f.f.f.f.f.f.f.f.f.f.f.f.f.f.f.f.f.f.f.f.f.f.f.f.f.f.f.f.f.f.f.f.f.f.f.f.f.f.f.f.f.f.f.f.f.f.",
"f.f.f.f.f.f.f.f.f.f.f.f.f.f.f.f.f.f.f.f.f.f.f.f.f.f.f.f.f.f.f.f.f.f.f.f.f.f.f.f.f.f.f.f.f.f.f.f.",
"f.f.f.f.f.f.f.f.f.f.f.f.f.f.f.f.f.f.f.f.f.f.f.f.f.f.f.f.f.f.f.f.f.f.f.f.f.f.f.f.f.f.f.f.f.f.f.f.",
"f.f.f.f.f.f.f.f.f.f.f.f.f.f.f.f.f.f.f.f.f.f.f.f.f.f.f.f.f.f.f.f.f.f.f.f.f.f.f.f.f.f.f.f.f.f.f.f."
};
