/* XPM */
static char *_79[] = {
/* columns rows colors chars-per-pixel */
"48 48 133 2 ",
"   c #1C1C1C",
".  c #3F1E18",
"X  c #222222",
"o  c #2D2D2D",
"O  c #3F2420",
"+  c #2F2F30",
"@  c #333333",
"#  c #393535",
"$  c #373738",
"%  c #3A3A3A",
"&  c #521C13",
"*  c #6D1A0E",
"=  c #4D2119",
"-  c #6B2416",
";  c #432521",
":  c #552A24",
">  c #542F29",
",  c #56332D",
"<  c #433F3F",
"1  c #682A21",
"2  c #673328",
"3  c #6B332B",
"4  c #77362C",
"5  c #793B32",
"6  c #4F413F",
"7  c #7C4037",
"8  c #434343",
"9  c #4A4A4A",
"0  c #5F4541",
"q  c #5F4A46",
"w  c #524D4C",
"e  c #5D4C4A",
"r  c #545454",
"t  c #5C5C5C",
"y  c #7D4840",
"u  c #714F4B",
"i  c #7C534B",
"p  c #605D5D",
"a  c #78635F",
"s  c #5F6060",
"d  c #636363",
"f  c #6D6564",
"g  c #6B6B6C",
"h  c #726E6D",
"j  c #7D6F6D",
"k  c #6F7070",
"l  c #747474",
"z  c #7A7575",
"x  c #7D7877",
"c  c #777878",
"v  c #7C7C7C",
"b  c #8E1B01",
"n  c #A11802",
"m  c #91220F",
"M  c #8E2B14",
"N  c #882E1E",
"B  c #8B301F",
"V  c #AF2503",
"C  c #AC2109",
"Z  c #AF331D",
"A  c #8E2F22",
"S  c #8E3120",
"D  c #9A3924",
"F  c #933B2B",
"G  c #A43721",
"H  c #AF3B20",
"J  c #9C412A",
"K  c #8E4636",
"L  c #8F4539",
"P  c #8E493D",
"I  c #944E3C",
"U  c #BA4327",
"Y  c #A54336",
"T  c #A74B35",
"R  c #A55F52",
"E  c #84625D",
"W  c #837572",
"Q  c #8C7975",
"!  c #817F7F",
"~  c #9F7C77",
"^  c #9E7F7B",
"/  c #A57D77",
"(  c #96827E",
")  c #A8877F",
"_  c #7E7F80",
"`  c #7F8080",
"'  c #848484",
"]  c #888788",
"[  c #878888",
"{  c #8C8C8C",
"}  c #9B8884",
"|  c #918F8F",
" . c #8F8F90",
".. c #8F9090",
"X. c #949494",
"o. c #999796",
"O. c #9A9897",
"+. c #979798",
"@. c #979898",
"#. c #9B9B9B",
"$. c #AB8984",
"%. c #AA938F",
"&. c #B1968F",
"*. c #A09391",
"=. c #AD9793",
"-. c #AF9B97",
";. c #A59F9D",
":. c #B29994",
">. c #B09F9C",
",. c #ADA09E",
"<. c #9F9FA0",
"1. c #9FA1A1",
"2. c #A3A3A3",
"3. c #AAA6A5",
"4. c #A7A8A8",
"5. c #ACACAC",
"6. c #B3A5A2",
"7. c #B4A8A5",
"8. c #B8A9A6",
"9. c #B4ADAC",
"0. c #AFB0B0",
"q. c #B4B4B4",
"w. c #B9B5B4",
"e. c #B7B8B8",
"r. c #BBBBBB",
"t. c #C1BFBE",
"y. c #C0C0BF",
"u. c #BFC0C0",
"i. c #C3C4C4",
"p. c #C7C8C8",
"a. c #CACCCC",
"s. c #CED0D0",
"d. c None",
/* pixels */
"d.d.d.d.d.    X d.d.d.d.d.d.d.d.d.d.d.d.d.d.d.d.d.d.d.d.d.d.d.d.d.d.d.d.d.d.d.d.d.d.d.d.d.d.d.d.",
"d.d.d.d.d.$ c ' d.d.d.d.d.d.d.d.d.d.d.d.d.d.d.d.d.d.d.d.d.d.d.d.d.d.d.d.d.d.d.d.d.d.d.d.d.d.d.d.",
"d.d.d.d.d.8 ' 5.d.d.d.d.d.d.d.d.d.d.d.d.d.d.d.d.d.d.d.d.d.d.d.d.d.d.d.d.d.d.d.d.d.d.d.d.d.d.d.d.",
"d.d.d.d.d.d. .5.X.d.d.d.d.d.d.d.d.d.d.d.d.d.d.d.d.d.d.d.d.d.d.d.d.d.d.d.d.d.d.d.d.d.d.d.d.d.d.d.",
"d.d.d.d.d.d.X.2.0.d d.d.d.d.d.d.d.d.d.d.d.d.d.d.d.d.d.d.d.d.d.d.d.d.d.d.d.d.d.d.d.d.d.d.d.d.d.d.",
"d.d.d.d.d.d.{ #.i.` d.d.d.d.d.d.d.d.d.d.d.d.d.d.d.d.d.d.d.d.d.d.d.d.d.d.d.d.d.d.d.d.d.d.d.d.d.d.",
"d.d.d.d.d.o v #.i.1.8 d.d.d.d.d.v d t s r 9 ' g 8 9 9 % d X.9 9 9 9 9 9 9 9 9 9 l 9 d.d.d.d.d.d.",
"d.d.d.d.c r g #.r.u.g w r r r 9 X.c 9 r 9 % ' { @ 9 9 8 d 4.d d.d.d.d.d.d.d.d.d.d.d.d.d.d.d.d.d.",
"d.d.d.d.d.d.c #.q.s.#.d.d.d.d.d...X.d.d.d.d.X.5.d.d.d.d.r 5._ d.d.d.d.d.d.d.d.d.d.d.d.d.d.d.d.d.",
"d.d.d.d.d.d.[ #.4.a.e.d.d.d.d.d.c 5.d.d.d.d.c q.l d.d.d.d.5.X.d.d.d.d.d.d.d.d.d.d.d.d.d.d.d.d.d.",
"d.d.d.d.d.d.g 2.1.a.a.' d.d.d.d.g e.g d.d.d.r 5.[ d.d.d.d.#.5.d.d.d.d.d.d.d.d.d.d.d.d.d.d.d.d.d.",
"d.d.d.d.d.d.9 #.X.p.a.5.' e.' d.d.e.[ d.d.d.d.2.5.d.d.d.d.' r.c d.d.d.d.d.d.d.d.d.d.d.d.d.d.d.d.",
"d.d.d.d.d.d.d.c X.a.a.i.X.i.e.d.9 5.5.d.d.d.d.#.r.d.d.d.d.g i.' d.d.d.d.d.d.d.d.d.d.d.d.d.d.d.d.",
"d.d.d.d.d.d.d.v 2.2.2.<.v #.p.` d.#.e.d.d.d.d.' p.{ d.d.d.' r.2.d.d.d.d.d.d.d.d.d.d.d.d.d.d.d.d.",
"d.d.d.d.d.d.9 d ] <.2.2.#...i.5.d.X.p.{ d.d.d.t i.2.d.d.d.d q.e.d.d.d.d.d.d.d.d.d.d.d.d.d.d.d.d.",
"d.d.d.d.d.d.g 1.x j ~ $.%.j q.i.c h a.2.d.d.d.d r.e.d.d.d.% #.a.#.d.d.d.; * : - V b d.d.d.d.d.d.",
"d.d.d.d.d.  d ' 0 , A Z G 1 ' s.#.t i.q.d.d.d.d.5.i.{ d.d.d.' i.X.d.d.# 3 Y u q I T D M - d.d.d.",
"d.d.d.d.d.d.l q.x 3.3.6.>.*.] y.i.c X.X.r 9 d.r v X.c f d.c c X.[ g 9 _ 3.r.2.v 1.r.;.Q } w d.d.",
"d.d.d.d.d.d.v q.{ i.a.a.a.a.! q.a.e.q.0.0.5.q.q.e.e.r.r.r.i.i.i.p.u.] e.a.r.X.v 4.s.r.#.r.e d.d.",
"d.d.d.d.d.d.l e.{ u.a.a.a.w.i 5.a.a.a.a.a.i.i.i.i.i.i.e.r.e.q.q.9.5.l { X.X.' c 2.s.e.#.9.3 d.d.",
"d.d.d.d.d.d.g q.{ u.a.p.a.8.K 7.a.a.a.p.,.{ X.{ | | | X.X.X.X.X.o.o.d X.r.a.5.v <.a.r.#.9.4 d.d.",
"d.d.d.d.d.d.d q.{ u.a.a.a.9.L 7.a.a.a.5.X.r.r.i.i.i.i.i.i.a.p.p.a.a.] q.a.a.5._ <.a.y.X.9.5 d.d.",
"d.d.d.d.d.8 t q.{ r.a.a.a.w.K 6.a.a.p.{ 0.a.a.a.a.a.a.a.a.a.a.a.a.a.{ q.a.a.5.v #.a.i.#.q.5 d.d.",
"d.d.d.d.d.9 s e.| r.a.p.a.w.K ,.a.a.a.2.@.i.i.i.i.y.t.r.r.e.q.q.q.5.l @.r.p.q.v #.a.i.X.w.5 d.d.",
"d.d.d.d.d.d.r q...e.a.a.a.e.K -.a.a.a.i.#.X.@.#.O.O.#.#.#.#.<.1.2.4.l ' X.X.' l o.a.i.o.e.P d.d.",
"d.d.d.d.d.d.t q.X.e.a.a.a.t.P =.a.a.a.a.p.i.i.i.p.p.p.p.a.a.a.a.a.a.[ 2.a.r.2.x X.a.i.#.u.W d.d.",
"d.d.d.d.d.d.r 0.+.q.a.a.a.p.E o.a.a.i.i.u.u.r.r.e.e.q.9.5.4.4.4.2.4.c { i.s.r.' X.a.i.| 2.h d.d.",
"d.d.d.d.d.d.9 5.O.q.a.a.a.a.| ,.a.2.! { c g d.d g | ' p d.8 9 O.o.d d.9 f ( *.h j / R F N & d.d.",
"d.d.d.d.d.d.9 2.{ O.3.>.&.) W q.a.g { i.| d.d.d.[ p.1.d.d.d.r i.q.d.d.d.< N S > m C n d.d.d.d.d.",
"d.d.d.d.d.d.8 ' f , 3 H U J f i.q.9 #.i.d.d.d.d.| a.o.d.d.d.g a.2.d.d.d.d.O ; = d.d.d.d.d.d.d.d.",
"d.d.d.d.d.d.o X.X.h ( :.8.*.#.a.<.t 9.r.d.d.d.d.X.i.d.d.d.d.{ i.#.d.d.d.d.d.d.d.d.d.d.d.d.d.d.d.",
"d.d.d.d.d.d.d.9 d X.#.#.#.v 5.i.l d.e.5.d.d.d.d.5.q.d.d.d.d.#.i.h d.d.d.d.d.d.d.d.d.d.d.d.d.d.d.",
"d.d.d.d.d.d.d.d.' 5.5.0.2.! i.5.d.d.r.X.d.d.d.d.e.2.d.d.d.d.#.e.z d.d.d.d.d.d.d.d.d.d.d.d.d.d.d.",
"d.d.d.d.d.d.d.d.' 5.a.a.q.X.i.| d.d.r.' d.d.d.d.e.X.d.d.d.d.2.2.d.d.d.d.d.d.d.d.d.d.d.d.d.d.d.d.",
"d.d.d.d.d.d.d.r X.#.a.a.#.c X.d.d.{ e.g d.d.d.g e.c d.d.d.d.q.#.d.d.d.d.d.d.d.d.d.d.d.d.d.d.d.d.",
"d.d.d.d.d.d.d.g 2.2.a.p.' d.d.d.d.c q.d.d.d.d.' q.d d.d.d.d.0.' d.d.d.d.d.d.d.d.d.d.d.d.d.d.d.d.",
"d.d.d.d.d.d.d.' 1.5.a.u.h d.d.d.d.' 2.d.d.d.d.X.4.d.d.d.d.t 5.c d.d.d.d.d.d.d.d.d.d.d.d.d.d.d.d.",
"d.d.d.d.d.d.d.{ #.5.a.q.r d.d.d.d.#.[ @ o X X c X.o d.@ d.d 2.< o o o @ @ % % d.9 c r d.d.d.d.d.",
"d.d.d.d.d.t r l #.q.s.O.% 9 9 8 8 [ g 8 8 % @ g l @ @ @ o 9 d + d.% d.d.d.d.d.d.d.r d.d.d.d.d.d.",
"d.d.d.d.d.d.r v #.r.a.v         d.d.d.d.d.d.d.d.d.d.d.d.d.d.d.d.d.d.d.d.d.d.d.d.d.d.d.d.d.d.d.d.",
"d.d.d.d.d.d.d.{ +.i.u.` d.d.d.d.d.d.d.d.d.d.d.d.d.d.d.d.d.d.d.d.d.d.d.d.d.d.d.d.d.d.d.d.d.d.d.d.",
"d.d.d.d.d.d.d.X.O.i.q.d.d.d.d.d.d.d.d.d.d.d.d.d.d.d.d.d.d.d.d.d.d.d.d.d.d.d.d.d.d.d.d.d.d.d.d.d.",
"d.d.d.d.d.d.d.[ #.a.,.d.d.d.d.d.d.d.d.d.d.d.d.d.d.d.d.d.d.d.d.d.d.d.d.d.d.d.d.d.d.d.d.d.d.d.d.d.",
"d.d.d.d.d.d.@ c #.a...d.d.d.d.d.d.d.d.d.d.d.d.d.d.d.d.d.d.d.d.d.d.d.d.d.d.d.d.d.d.d.d.d.d.d.d.d.",
"d.d.d.d.d.d.w { e.e.d.d.d.d.d.d.d.d.d.d.d.d.d.d.d.d.d.d.d.d.d.d.d.d.d.d.d.d.d.d.d.d.d.d.d.d.d.d.",
"d.d.d.d.d.d.d.{ d.v d.d.d.d.d.d.d.d.d.d.d.d.d.d.d.d.d.d.d.d.d.d.d.d.d.d.d.d.d.d.d.d.d.d.d.d.d.d.",
"d.d.d.d.d.d.d.d.d.d.d.d.d.d.d.d.d.d.d.d.d.d.d.d.d.d.d.d.d.d.d.d.d.d.d.d.d.d.d.d.d.d.d.d.d.d.d.d.",
"d.d.d.d.d.d.d.d.d.d.d.d.d.d.d.d.d.d.d.d.d.d.d.d.d.d.d.d.d.d.d.d.d.d.d.d.d.d.d.d.d.d.d.d.d.d.d.d."
};
