/* XPM */
static char *_6[] = {
/* columns rows colors chars-per-pixel */
"48 48 133 2 ",
"   c #0E0C02",
".  c #201E07",
"X  c #232107",
"o  c #282608",
"O  c #2D2B09",
"+  c #35330B",
"@  c #3C3A0D",
"#  c #403F0D",
"$  c #44420E",
"%  c #49460F",
"&  c #494710",
"*  c #4B4910",
"=  c #504C10",
"-  c #545212",
";  c #5C5A13",
":  c #625E14",
">  c #656215",
",  c #696516",
"<  c #6C6917",
"1  c #6E6D18",
"2  c #706C17",
"3  c #726E18",
"4  c #757219",
"5  c #7A761A",
"6  c #7D7A1B",
"7  c #707542",
"8  c #747943",
"9  c #737F5C",
"0  c #827E1B",
"q  c #7C885C",
"w  c #748163",
"e  c #7A8867",
"r  c #6F8175",
"t  c #718374",
"y  c #7C8872",
"u  c #798B7B",
"i  c #85811C",
"p  c #8A861D",
"a  c #8D891E",
"s  c #918E1F",
"d  c #98931F",
"f  c #888622",
"g  c #8C8921",
"h  c #959220",
"j  c #9B9721",
"k  c #9D9A22",
"l  c #838631",
"z  c #919235",
"x  c #9E9E38",
"c  c #A29E23",
"v  c #A5A123",
"b  c #AAA624",
"n  c #AEA925",
"m  c #B2AD26",
"M  c #B6B227",
"N  c #B9B527",
"B  c #B5B12A",
"V  c #BAB528",
"C  c #BEBA29",
"Z  c #AFAE30",
"A  c #B7B632",
"S  c #BCBA32",
"D  c #B1B33C",
"F  c #BDBC38",
"G  c #C2BD2A",
"H  c #C0BE36",
"J  c #C5C22B",
"K  c #CAC52B",
"L  c #CDCA2C",
"P  c #D2CE2C",
"I  c #D5D22E",
"U  c #DAD62F",
"Y  c #DCD82E",
"T  c #C6C433",
"R  c #C9C631",
"E  c #D4D130",
"W  c #DBD730",
"Q  c #DDDA30",
"!  c #E3DE2D",
"~  c #E1DE31",
"^  c #E7E32F",
"/  c #E6E231",
"(  c #EAE632",
")  c #EDE933",
"_  c #F2EE34",
"`  c #F5F235",
"'  c #F9F636",
"]  c #FFFB37",
"[  c #FFFE38",
"{  c #858B42",
"}  c #898E44",
"|  c #9B9D40",
" . c #8F9854",
".. c #8E975F",
"X. c #9FA242",
"o. c #9BA04B",
"O. c #ACAE4A",
"+. c #B8B74C",
"@. c #8B9761",
"#. c #A0AC7E",
"$. c #A8B27E",
"%. c #788F8D",
"&. c #8C9F88",
"*. c #819A9D",
"=. c #9BAB8E",
"-. c #8DA59C",
";. c #99AA9A",
":. c #9FB09F",
">. c #A4B49B",
",. c #839FA1",
"<. c #8AA4A5",
"1. c #98AEA3",
"2. c #83A1B2",
"3. c #9CB9BD",
"4. c #A0B5A7",
"5. c #A4BBBF",
"6. c #B5C6A7",
"7. c #93B3C0",
"8. c #98B6C8",
"9. c #9FBFD8",
"0. c #9FC1DB",
"q. c #ACC5C2",
"w. c #ABCCDA",
"e. c #ACCCE3",
"r. c #A8CEE8",
"t. c #AFD1E3",
"y. c #ADD2EA",
"u. c #B4D5EB",
"i. c #B9DAED",
"p. c #B7DCF4",
"a. c #BCDDF1",
"s. c #BFE3F4",
"d. c None",
/* pixels */
"d.d.d.d.d.d.d.d.d.d.d.d.d.d.d.d.d.d.d.d.d.d.d.d.d.d.d.d.d.d.d.d.d.d.d.d.d.d.d.d.d.d.d.d.d.d.d.d.",
"d.d.d.d.d.d.d.d.d.d.d.d.d.d.d.d.d.d.d.d.d.d.d.d.d.d.d.d.d.d.d.O + d.d.d.d.d.d.d.d.d.d.d.d.d.d.d.",
"d.d.d.d.d.d.d.d.d.d.d.d.d.d.d.d.d.d.d.d.d.d.d.d.d.d.d.d.d.o > s s > d.d.d.d.d.d.d.d.d.d.d.d.d.d.",
"d.d.d.d.d.d.d.d.d.d.d.d.d.d.d.d.d.d.d.d.d.d.d.d.d.d.d.d.d.p U ' [ B < d.d.d.d.d.d.d.d.d.d.d.d.d.",
"d.d.d.d.d.d.d.d.d.d.d.d.d.d.d.d.d.d.d.d.d.d.d.d.d.d.d.0 P ` [ [ ] [ L $ d.d.d.d.d.d.d.d.d.d.d.d.",
"d.d.d.d.d.d.d.d.d.d.d.d.d.d.d.d.d.d.d.d.d.d.d.d.d.3 K ` ] [ ] ] [ ] N @ d.d.d.d.d.d.d.d.d.d.d.d.",
"d.d.d.d.d.d.d.d.d.d.d.d.d.d.d.d.d.d.d.d.d.d.% ; M ` ] [ ] ] ] ] [ L - d.d.d.d.d.d.d.d.d.d.d.d.d.",
"d.d.d.d.d.d.d.d.d.d.d.d.d.d.d.d.d.d.d.d.d.d.c ) ' [ ] ] ] ] ] ] ( > d.d.d.d.d.d.d.d.d.d.d.d.d.d.",
"d.d.d.d.d.d.d.d.d.d.d.d.d.d.d.d.d.d.d.d.0 E ( ` ] ' [ [ [ ] ] ` 6 $ d.d.d.d.d.d.d.d.d.d.d.d.d.d.",
"d.d.d.d.d.d.d.d.d.d.d.d.d.d.d.d.d.d.@ 4 j n c m v J K ( _ [ ' k $ d.d.d.d.d.d.d.* ; i d.d.d.d.d.",
"d.d.d.d.d.d.d.d.d.d.d.d.d.d.@ 6 , c L W / / ( ~ E L n n m K N * d.d.d.d.d.d.d.d.1 ' C g d.d.d.d.",
"d.d.d.d.d.d.d.d.d.d.d.d.@ c h W ` ] [ [ [ [ [ ] ] ' [ / W b , d.d.d.d.d.d.d.d.; W ] [ Y p d.d.d.",
"d.d.d.d.d.d.d.d.d.d.d.f h ( ] [ [ ] ] ] ] ] ] ] ] ] ] [ ] ' C k d.d.d.d.d.d.* V [ ] ] [ k + d.d.",
"d.d.d.d.d.d.d.d.d.$ s P [ [ ] ] ] ] ] ] ] ] ] ] ] ] ] ] ] ] [ Q V d.d.d.d.* k ] [ ] [ _ b d.d.d.",
"d.d.d.d.d.d.d.d.d.p ) ' [ ] ] ] ] ] ] ] ] ] ] ] ] ] ] ] ] ] [ [ ` C c d.d.6 ` ] ] ] [ ( d.d.d.d.",
"d.d.d.d.d.d.d.d.h _ [ [ ] ] ] ] ] ] ] ] ] ] ] ] ] ] ] ] ] ] ] ] [ [ M 3 ; ( ] [ ] ] [ G , d.d.d.",
"d.d.d.d.d.d.d.g Q [ ] ] ] ] ] ] ] ] ] ] ] ] ] ] ] ] ] ] ] ] ] ] ] [ [ m 5 Y [ [ ] ] ] V d.d.d.d.",
"d.d.d.d.d.d.a K [ ] ' ] ] ] ] ] ] ] ] ] ] ] ] ] ] ] ] ] ] ] ] ] ] ] ] ] G k / [ ] [ ' < d.d.d.d.",
"d.d.d.d.d.5 n [ ] ] ] ] ] ] ] ] ] ] ] ] [ [ [ [ ] ] ] ] ] ] ] ] ] ] ] [ ~ j K [ [ [ Y i d.d.d.d.",
"d.d.d.d.d.0 ' [ ] ] ] ] ] ] ] ] ] [ ' _ ^ P Y / ` ] ] ] ] ] ] ] ] ] ] ] [ L 0 Q [ [ G o d.d.d.d.",
"d.d.d.d.* I [ ] ] ] ] ] ] ] ] [ ' ! Z { q 9 e 7 X.M ( ] ] ] ] ] ] ] ] ] [ _ v G [ ' k d.d.d.d.d.",
"d.d.d.d.b ` ] ] ] ] ] ] ] ] [ ) T q -.8.t.a.e.e.2.&.l E ] ] ] ] ] ] ] ] ] [ K a ) ` C d.d.d.d.d.",
"d.d.d.d.m [ ] ] ] ] ] ] ] [ ' v 7 ,.r.i.5.;.:.1.w.0.3.{ K ] ] ] ] ] ] ] ] ] ( h / I - d.d.d.d.d.",
"d.d.d.* ~ [ ] ] ] ] ] ] [ [ M b A x 9 @.O.T W H O.4.9.3.| ^ ] ] ] ] ] ] ] ] [ B m G d.d.d.d.d.d.",
"d.d.d.i ) ] ] ] ] ] ] [ [ W m I ^ m n Y ] ] ] [ / H 6.u.%.D ] ] ] ] ] ] ] ] ] K v i d.d.d.d.d.d.",
"d.d.d.j ] [ ] ] ] ] ] ] ' K M K C G ] ] ] ] ] ] [ ` +.q.t. .^ [ ] ] ] ] ] ] [ ! a 0 d.d.d.d.d.d.",
"d.d.d.V ' ] ] ] ] ] ] ] ' j j K I ] ] ] ] ] ] ] [ [ Q >.u.u J [ ] ] ] ] ] ] ] ( 3 o d.d.d.d.d.d.",
"d.d.d.c [ [ [ [ ] ] ' ' J 5 p ( ' [ ] ] ] ] ] ] ] [ / #.p.,.C ] ] ] ] ] ] ] ] _ -   d.d.d.d.d.d.",
"d.d.d.b ' ~ U P G N b b 0 ; I [ [ ] ] ] ] ] ] ] ] [ ) $.s.<.Z ] ] ] ] ] ] ] [ _ < d.d.d.d.d.d.d.",
"d.d.. 6 c c b m G P P ! Y k ( [ [ ] ] ] ] ] ] ] ] [ P =.p.<.m ] ] ] ] ] ] ] ] ` > d.d.d.d.d.d.d.",
"d.d.a K ~ _ _ ' ] [ [ [ ` c U [ ] ] ] ] ] ] ] ] [ [ M y y.r R [ ] ] ] ] ] ] ] ( 6 d.d.d.d.d.d.d.",
"d.d., _ [ ] ] ] ] ] ] ] ] m K [ ] ] ] ] ] ] ] ] [ ` M x r @.! [ ] ] ] ] ] ] [ I & d.d.d.d.d.d.d.",
"d.d.& s _ [ ] ] ] ] ] ] [ W j ~ [ ] ] ] ] ] ] ] ] E U / z h ` ] ] ] ] ] ] ] ] C d.d.d.d.d.d.d.d.",
"d.d.d.d.K ' ] ] ] ] ] ] ] _ G J _ ] ] ] ] ] ] ] ) L P / h ~ [ ] ] ] ] ] ] ] [ p X d.d.d.d.d.d.d.",
"d.d.d.d., Q [ ] ] ] ] ] ] [ ~ c J ' ] [ ] ] ] ] E m P c J [ ] ] ] ] ] ] ] [ Q 5 d.d.d.d.d.d.d.d.",
"d.d.d.d.d.4 Q [ ] ] ] ] ] ] [ / c M Y ) [ ] [ / a s b V ] ] ] ] ] ] ] ] [ ] J d.d.d.d.d.d.d.d.d.",
"d.d.d.d.d.d.b W ] ] ] ] ] ] ] [ ' V m v B M C 5 0 m ~ ] ] ] ] ] ] ] ] ] ] ' 4 d.d.d.d.d.d.d.d.d.",
"d.d.d.d.d.d.d.P ( ] ] ] ] ] ] ] ] [ ( / C J K j k ] ] [ ] ] ] ] ] ] ] ] [ G - d.d.d.d.d.d.d.d.d.",
"d.d.d.d.d.d.d.d.s ` ] ] ] ] ] ] ] ] [ [ [ ] [ G m ' [ ] ] ] ] ] ] ] ] [ / f d.d.d.d.d.d.d.d.d.d.",
"d.d.d.d.d.d.d.d.@ 0 _ [ ] ] ] ] ] ] ] ] ] ] [ P n ] ] ] ] ] ] ] ] ] [ ' h d.d.d.d.d.d.d.d.d.d.d.",
"d.d.d.d.d.d.d.d.d.% 6 ~ [ [ ] ] ] ] ] ] ] ] [ ~ c ` ] ] ] ] ] ] ] [ [ k d.d.d.d.d.d.d.d.d.d.d.d.",
"d.d.d.d.d.d.d.d.d.d.d.< J [ ] ] ] ] ] ] ] ] [ ~ k ) ] ] ] ] ] ] ] ] j > d.d.d.d.d.d.d.d.d.d.d.d.",
"d.d.d.d.d.d.d.d.d.d.d.d.> c _ ] [ [ ] ] ] ] ] ( c / [ ] ] ] ] [ Q b # d.d.d.d.d.d.d.d.d.d.d.d.d.",
"d.d.d.d.d.d.d.d.d.d.d.d.d.= 3 W ` [ [ ] ] ] ] ' c Q [ ] ] [ ] L v d.d.d.d.d.d.d.d.d.d.d.d.d.d.d.",
"d.d.d.d.d.d.d.d.d.d.d.d.d.d.d.# b P ] [ ] ] ] ] b K [ [ ' P C - d.d.d.d.d.d.d.d.d.d.d.d.d.d.d.d.",
"d.d.d.d.d.d.d.d.d.d.d.d.d.d.d.d.d.n b / [ [ [ ] m G _ G N : d.d.d.d.d.d.d.d.d.d.d.d.d.d.d.d.d.d.",
"d.d.d.d.d.d.d.d.d.d.d.d.d.d.d.d.d.d.d.> c U ` [ V , 0 $ d.d.d.d.d.d.d.d.d.d.d.d.d.d.d.d.d.d.d.d.",
"d.d.d.d.d.d.d.d.d.d.d.d.d.d.d.d.d.d.d.d.o d.s L b . d.d.d.d.d.d.d.d.d.d.d.d.d.d.d.d.d.d.d.d.d.d."
};
