/* XPM */
static char *_6[] = {
/* columns rows colors chars-per-pixel */
"48 48 134 2 ",
"   c #20100E",
".  c #361E1A",
"X  c #3D221F",
"o  c #262626",
"O  c #2E2E2F",
"+  c #343333",
"@  c #3C3C3C",
"#  c #6C1B10",
"$  c #5A2018",
"%  c #60241C",
"&  c #7F2817",
"*  c #71281D",
"=  c #4A2722",
"-  c #552D26",
";  c #5A2E29",
":  c #5A3A35",
">  c #703223",
",  c #663B34",
"<  c #5E403A",
"1  c #7A4037",
"2  c #764238",
"3  c #3F4041",
"4  c #454545",
"5  c #4A4545",
"6  c #474748",
"7  c #474849",
"8  c #4B4B4B",
"9  c #504F4F",
"0  c #4E4F50",
"q  c #545454",
"w  c #585757",
"e  c #575858",
"r  c #5C5C5C",
"t  c #724B45",
"y  c #714E48",
"u  c #6C5754",
"i  c #605E5E",
"p  c #6A5B58",
"a  c #7A5B56",
"s  c #765D58",
"d  c #6E615F",
"f  c #73605D",
"g  c #79625F",
"h  c #636263",
"j  c #6C6C6C",
"k  c #786360",
"l  c #726E6E",
"z  c #7F6C69",
"x  c #747474",
"c  c #7A7474",
"v  c #777778",
"b  c #787778",
"n  c #777A7B",
"m  c #7C7C7C",
"M  c #931C04",
"N  c #8B2F19",
"B  c #9E2A18",
"V  c #AC2607",
"C  c #A22008",
"Z  c #AE240C",
"A  c #A5341B",
"S  c #B73B1F",
"D  c #933323",
"F  c #993321",
"G  c #AC3D2B",
"H  c #8D4235",
"J  c #914234",
"K  c #A74128",
"L  c #904E41",
"P  c #994F41",
"I  c #86574F",
"U  c #94584C",
"Y  c #A6594C",
"T  c #89645C",
"R  c #A36254",
"E  c #A56559",
"W  c #8F6963",
"Q  c #936C65",
"!  c #9C6D64",
"~  c #906E68",
"^  c #817574",
"/  c #827D7D",
"(  c #8A7D7A",
")  c #AD7F73",
"_  c #B57F72",
"`  c #97827D",
"'  c #7F7F80",
"]  c #848384",
"[  c #8F8886",
"{  c #878788",
"}  c #878989",
"|  c #8C8C8C",
" . c #908E8E",
".. c #8F8F90",
"X. c #908F90",
"o. c #949494",
"O. c #999797",
"+. c #979798",
"@. c #979898",
"#. c #9C9C9C",
"$. c #A58681",
"%. c #A38984",
"&. c #A5928E",
"*. c #AC9692",
"=. c #A09E9E",
"-. c #AF9D9A",
";. c #B09E9C",
":. c #AEA09E",
">. c #9F9FA0",
",. c #9FA0A0",
"<. c #A4A4A4",
"1. c #ABA6A5",
"2. c #A6A7A8",
"3. c #A7A8A8",
"4. c #ABABAB",
"5. c #B4A7A6",
"6. c #B4ADAC",
"7. c #AEAFB0",
"8. c #AFB0B0",
"9. c #B3B3B4",
"0. c #BAB5B4",
"q. c #B7B7B8",
"w. c #B7B8B8",
"e. c #BBBBBB",
"r. c #C0BFBF",
"t. c #BEBFC0",
"y. c #C0BFC0",
"u. c #BFC0C0",
"i. c #C4C4C4",
"p. c #C6C7C8",
"a. c #C8C7C8",
"s. c #C7C8C8",
"d. c #CACBCB",
"f. c None",
/* pixels */
"f.f.f.f.f.f.f.f.f.f.f.f.f.f.f.f.f.f.f.f.f.f.f.f.f.f.j #.#.p.3.f.f.f.f.f.f.f.f.f.f.f.f.f.f.f.f.f.",
"f.f.f.f.f.f.f.f.f.f.f.f.f.f.f.f.f.f.f.f.f.f.f.f.f.| #.#.r.e.m f.f.f.f.f.f.f.f.f.f.f.f.f.f.f.f.f.",
"f.f.f.f.f.f.f.f.f.f.f.f.f.f.f.f.f.f.f.f.f.f.f.f.m <.o.r.d.o.f.f.f.f.f.f.f.f.f.f.f.f.f.f.f.f.f.f.",
"f.f.f.f.f.f.f.f.f.f.f.f.f.f.f.f.f.f.f.f.f.f.f.r <.o.e.d.9.i f.f.f.f.f.f.f.f.f.f.f.f.f.f.f.f.f.f.",
"f.f.f.f.f.f.f.f.f.f.f.f.f.f.f.f.f.f.f.f.6 r c o.| w.d.p.o.f.r f.f.f.f.f.f.f.f.f.f.f.f.f.f.f.f.f.",
"f.f.f.f.f.f.f.f.f.f.f.f.f.f.f.f.f.f.f.h | o.b <.p.d.d.<.f.f.q w f.f.f.f.f.f.f.f.f.f.f.f.f.f.f.f.",
"f.f.f.f.f.f.f.f.f.f.f.f.f.f.f.f.f.f.m 8.b c #.| 6.d.e.v f.f.f.q q f.f.f.f.f.f.f.f.f.f.f.f.f.f.f.",
"f.f.f.f.f.f.f.f.f.f.f.f.f.f.f.f.w ] w.,.p - ^ 4.| e.#...f.f.f.f.7 j f.f.f.f.f.f.f.f.f.f.f.f.f.f.",
"f.f.f.f.f.f.f.f.f.f.f.f.f.f.8 9 #.e...o.9.a D -.2.m  .i.o.f.f.f.o.o.f.f.f.f.f.f.f.f.f.f.f.f.f.f.",
"f.f.f.f.f.f.f.f.f.f.f.f.f.4 j 3.9.} <.s.d.5.G Y 9.' 9.r.b f.f.| 4.r 9 f.f.f.f.f.f.f.f.f.f.f.f.f.",
"f.f.f.f.f.f.f.f.f.f.f.4 8 b q.3.} 7.d.d.d.d.$.F k <.a.#.f.f.#.9.j f.8 w f.f.f.f.f.f.f.f.f.f.f.f.",
"f.f.f.f.f.f.f.f.f.f.f.w | e.#.| t.d.d.d.d.d.i.s h a.w.h f.| e.o.f.f.f.7 f.f.f.f.f.f.f.f.f.f.f.f.",
"f.f.f.f.f.f.f.f.f.O h <.w.o.#.p.d.s.d.d.d.s.9.} 4.d.o.f.| p.#.f.f.f.f.f.w ] f.f.f.f.f.f.f.f.f.f.",
"f.f.f.f.f.f.f.f.O h 3.4.| 3.s.d.d.d.d.d.0.Q k <.d.4.q | a.<.f.f.f.f.f.f.<.] f.f.f.f.f.f.f.f.f.f.",
"f.f.f.f.f.f.f.f.x +.l / q.d.d.d.d.d.s.-.P U 1.d.a.b b p.w.v f.f.f.f.h 4.+.@ 6 f.f.f.f.f.f.f.f.f.",
"f.f.f.f.f.f.f.f.q ..< u e.d.d.d.d.p.%.H ! 0.d.d.e.] w.a.m f.f.f.f.6 #.9.h f.6 7 f.f.f.f.f.f.f.f.",
"f.f.f.f.f.f.8 ] ' o.( & ! r.d.d.e.! H $.i.d.d.d.d.2.o.| f.f.f.f.f.>.e.b f.f.f.6 + f.f.f.f.f.f.f.",
"f.d f.f.f.b X.o.w...8.` S _ a.a.Q L -.s.s.d.d.d.d.s.| @ f.f.f.0 <.i.] f.f.f.f.f.r { f.f.f.f.f.f.",
"f.j 3 ] >.<.+.7.d.7.X.w._ K [  .z 6.d.d.d.d.s.y.i.d.e.l f.f.9 o.d.>.f.f.f.f.f.j 3.b f.f.f.f.f.f.",
"f.r { >.o.<.i.d.d.d.#.| O.s ^ 3.i.d.d.d.d.y. . .| <.d.0.h f.<.d.2.f.f.f.f.f.v 3.#.7 6 f.f.f.f.f.",
"o.#.#.#.e.d.d.d.r.,.| ' <.e.d.d.i.e.d.d.d.4.#.i.e.o.6.d.<.v u.9.x f.f.f.f.j 9.<.f.f.6 7 f.f.f.f.",
"o.#.9.d.d.a.w.#.b ` q.p.d.e.3.] h l 3.d.d.#.3.d.d.w.| w.d.#.o.m f.f.f.f.r 2.8.l f.f.f.7 f.f.f.f.",
"9.p.d.e.#.v f.f.f.f.2.,.b w f.w } 7.| 8.d.7.+.i.d.d.3.o.i.p.] f.f.f.f.f.4.i.' f.f.f.f.f.8 f.f.f.",
"p.9.o.| @ 3 f.f.f.f.f.f.f.@ o.w.d.i.] j i.d.2.,.d.d.d.#.#.d.w.l f.f.w 3.s.| f.f.f.f.f.f.6 8 f.f.",
"/ h f.f.f.O 7 f.f.f.f.f.] 4.p.w.o.l f.f.{ p.p.#.4.d.d.i.o.<.d.4.q q >.d.<.f.f.f.f.f.f.f.f.8 8 f.",
"f.f.f.f.f.f.@ 6 f.f.w <.e.7.] w f.f.f.f.f.o.d.i.#.9.d.d.e. .9.d.@.] i.8.i f.f.f.f.f.f.f.f.f.7 f.",
"f.f.f.f.f.f.f.@ r o.8.<...f.f.f.f.f.f.f.f.j 4.d.9.#.r.d.d.9. .y.s.>.o.} f.f.f.f.f.f.f.f.f.f.f.e ",
"f.f.f.f.f.f.f.f.o.o.] f.f.f.f.f.f.f.f.j 9.9.| w.d.4.#.p.d.d.<.o.i.u.n f.f.f.f.f.f.f.f.f.f.f.f.r ",
"f.f.f.f.f.f.f.f.@ 4 f.f.f.f.f.f.f.j o.i.a.9.] ] i.a.<.2.d.d.s.#.=.d.,.: f.f.f.f.f.f.f.f.f.f.f.f.",
"f.f.f.f.f.f.f.f.f.+ 4 f.f.f.f.6 #.w.p.3.o.f.f.f.| a.i.#.6.d.d.u.o.| ]  .h ; $   f.f.f.f.f.f.f.f.",
"f.f.f.f.f.f.f.f.f.f.+ + f.f.| 3.e.>.] f.f.f.f.f.f.,.d.e.o.w.d.s.{ e O.d.e.! B = f.f.f.f.f.f.f.f.",
"f.f.f.f.f.f.f.f.f.f.f.+ h <.9.o.x f.f.f.f.f.f.f.4 l 9.d.9.#.9.|  .9.o.=.a.e.f - f.f.f.f.f.f.f.f.",
"f.f.f.f.f.f.f.f.f.f.f.@ o.] w f.f.f.f.f.f.f.f.b 4.9.X.y.d...h #.i.d.i.>...} n , Z f.f.f.f.f.f.f.",
"f.f.f.f.f.f.f.f.f.f.f.f.+ + f.f.f.f.f.f.f.] 3.p.d.3.j ] @.n m q.d.d.d.3.x ' o.&.A f.f.f.f.f.f.f.",
"f.f.f.f.f.f.f.f.f.f.f.f.f.+ + f.f.f.f.f.o.w.i.3.b q f.f.l q.4.#.d.s.<.' ] >.p.p.E M f.f.f.f.f.f.",
"f.f.f.f.f.f.f.f.f.f.f.f.f.f.+ + f.3 #.9.w.<.j f.f.f.f.f.' d.i...7.o.' ] 4.d.d.t.( N f.f.f.f.f.f.",
"f.f.f.f.f.f.f.f.f.f.f.f.f.f.f.@ j <.4.o.x f.f.f.f.f.f.5 u e.d.+.l ' ..w.d.s.9.o.1.T f.f.f.f.f.f.",
"f.f.f.f.f.f.f.f.f.f.f.f.f.f.f.8 o.b h f.f.f.f.f.f.f.f.: D *.4.] m +.i.d.d.3.o.9.9.m f.f.f.f.f.f.",
"f.f.f.f.f.f.f.f.f.f.f.f.f.f.f.f.+ + f.f.f.f.f.f.f.f.f.. N y m ] <.s.d.i.>.#.w.%., f.f.f.f.f.f.f.",
"f.f.f.f.f.f.f.f.f.f.f.f.f.f.f.f.f.+ + f.f.f.f.f.f.f.f.f.. $ t <.d.d.t.@.<.w.~ * f.f.f.f.f.f.f.f.",
"f.f.f.f.f.f.f.f.f.f.f.f.f.f.f.f.f.f.@ + f.f.f.f.f.f.f.f.f.f.Z E 0.9.o.9.5.I # f.f.f.f.f.f.f.f.f.",
"f.f.f.f.f.f.f.f.f.f.f.f.f.f.f.f.f.f.f.6 o f.f.f.f.f.f.f.f.f.f.C P [ e.:.1 f.f.f.f.f.f.f.f.f.f.f.",
"f.f.f.f.f.f.f.f.f.f.f.f.f.f.f.f.f.f.f.f.7 f.f.f.f.f.f.f.f.f.f.f.M L #.g f.f.f.f.f.f.f.f.f.f.f.f.",
"f.f.f.f.f.f.f.f.f.f.f.f.f.f.f.f.f.f.f.f.f.@ f.f.f.f.f.f.f.f.f.f.f.f.f.f.f.f.f.f.f.f.f.f.f.f.f.f.",
"f.f.f.f.f.f.f.f.f.f.f.f.f.f.f.f.f.f.f.f.f.f.f.f.f.f.f.f.f.f.f.f.f.f.f.f.f.f.f.f.f.f.f.f.f.f.f.f.",
"f.f.f.f.f.f.f.f.f.f.f.f.f.f.f.f.f.f.f.f.f.f.6 e f.f.f.f.f.f.f.f.f.f.f.f.f.f.f.f.f.f.f.f.f.f.f.f.",
"f.f.f.f.f.f.f.f.f.f.f.f.f.f.f.f.f.f.f.f.f.f.w x f.f.f.f.f.f.f.f.f.f.f.f.f.f.f.f.f.f.f.f.f.f.f.f.",
"f.f.f.f.f.f.f.f.f.f.f.f.f.f.f.f.f.f.f.f.f.f.f.f.f.f.f.f.f.f.f.f.f.f.f.f.f.f.f.f.f.f.f.f.f.f.f.f."
};
