/* XPM */
static char *_9[] = {
/* columns rows colors chars-per-pixel */
"48 48 84 1 ",
"  c #020202",
". c #0D0D0D",
"X c #151515",
"o c #1C1C1C",
"O c #232323",
"+ c #2C2C2C",
"@ c #343434",
"# c #3C3C3C",
"$ c #444444",
"% c #4A4A4A",
"& c #4B5559",
"* c #4C585D",
"= c #535353",
"- c #5C5C5C",
"; c #535D62",
": c #5A6366",
"> c #56646A",
", c #5B6970",
"< c #646464",
"1 c #60686C",
"2 c #6C6C6C",
"3 c #656D70",
"4 c #6F6F70",
"5 c #677378",
"6 c #747474",
"7 c #7C7C7C",
"8 c #657B85",
"9 c #7C7F81",
"0 c #7B8083",
"q c #718188",
"w c #6E8690",
"e c #6E8995",
"r c #728C97",
"t c #848484",
"y c #818A8D",
"u c #8B8B8B",
"i c #848C90",
"p c #879195",
"a c #85969D",
"s c #959595",
"d c #919698",
"f c #979B9D",
"g c #9B9B9B",
"h c #8C9DA4",
"j c #829DA8",
"k c #9B9EA0",
"l c #9EA0A0",
"z c #90A5AE",
"x c #8EAEBC",
"c c #92AAB4",
"v c #95AEB8",
"b c #A3A4A4",
"n c #ABABAB",
"m c #B4B4B4",
"M c #B7B8B8",
"N c #BCBCBC",
"B c #92B4C1",
"V c #97B8C6",
"C c #9DB9C5",
"Z c #95BAC9",
"A c #9BBCCA",
"S c #A3BCC7",
"D c #A5C3D0",
"F c #ABC7D3",
"G c #ADCAD7",
"H c #A9CDDC",
"J c #ADD4E4",
"K c #B1D4E3",
"L c #BAD8E5",
"P c #B1D9E9",
"I c #BCDBE8",
"U c #BEE3F2",
"Y c #C2C2C2",
"T c #CCCCCC",
"R c #D3D3D3",
"E c #DBDBDB",
"W c #C0DDE9",
"Q c #C5E8F6",
"! c #CAEBF9",
"~ c #E4E4E4",
"^ c #ECECEC",
"/ c #F4F4F4",
"( c #FFFFFF",
") c None",
/* pixels */
"))))))))))))))))))))))))))))))))))))))))))))))))",
")))))))))))))))))))))))))))))<<)))))))))))))))))",
")))))))))))))))))))))))))))+n//b$)))))))))))))))",
"))))))))))))))))))))))))))-E((((R+))))))))))))))",
"))))))))))))))))))))))))Os/(((((M)))))))))))))))",
")))))))))))))))))))))))=T((((((^#)))))))))))))))",
")))))))))))))))))))))ot^(((((((t))))))))))))))))",
"))))))))))))))))))))$Y((((((((Yo)))))))o@)))))))",
"))))))))))))))))))X7^((((((((/=))))))))sE7))))))",
"))))))))))))))))) =su667unR^(g))))))))%/(/M#))))",
"))))))))))))))))o%tnNTTYms6<6O)))))))XY((((<))))",
"))))))))))))))$sE/((((((((/^M<o))))))7((((/%))))",
"))))))))))))#n/((((((((((((((/R<))))@~((((~+))))",
")))))))))))7~((((((((((((((((((/n@))n(((((T)))))",
")))))))))Ob/(((((((((((((((((((((E$#/(((((n)))))",
"))))))))oM((((((((((((((((((((((((~<b(((((u)))))",
")))))))on((((((((((((((((((((((((((~-N((((6)))))",
")))))))u((((((((((((((((((((((((((((R=E((/=)))))",
"))))))$/(((((((((((((((((((((((((((((b2((^@)))))",
")))))XN((((((((((((((///(((((((((((((/<N(Eo)))))",
")))))<((((((((((((~f2;::0M/(((((((((((N<(M))))))",
")))))N((((((((((/s;rCJKHv81T((((((((((/<Rb))))))",
"))))$/(((((((((/0eK!IScnGUV>M((((((((((btt))))))",
"))))7((((((((((9&jCzybSNdaLH>Y(((((((((E=%))))))",
"))))m(((((((((M2~n=l^((((TuWS1/((((((((/= ))))))",
")))oR((((((((/2REuR(((((((FhQqM(((((((((6 ))))))",
")))@^((((((((R6EuE((((((((/iIB6(((((((((u ))))))",
")))#/((((((((b9uR((((((((((fGJ5/((((((((b)))))))",
")))$/((((((((t#Y(((((((((((gFP,^((((((((m)))))))",
")))@^((((/Ts2+t((((((((((((tDJ:^((((((((n)))))))",
")))+~/Rb7-6gTbg(((((((((((/4qZ3(((((((((s)))))))",
"))).-<2sY/(((R</((((((((((RgF*u(((((((((t)))))))",
"))XtN^(((((((/2T((((((((((nY/-R((((((((/-)))))))",
")))t((((((((((Y</((((((((/u^bt(((((((((~@)))))))",
")))Xs((((((((((s7/(((((((YbM-^(((((((((m))))))))",
"))))Xn(((((((((/s2T(((((/722~(((((((((/<))))))))",
")))))+M((((((((((N26bNYm2Os/((((((((((TO))))))))",
"))))))OM((((((((((/Tgt7sb-/((((((((((/2)))))))))",
")))))))On(((((((((((((((/2E((((((((((Mo)))))))))",
"))))))))Xt/((((((((((((((un(((((((((~$))))))))))",
"))))))))))2~(((((((((((((Mt((((((((^-)))))))))))",
")))))))))))#M((((((((((((E</((((((/6))))))))))))",
"))))))))))))o7~((((((((((/<^(((((~<)))))))))))))",
"))))))))))))))#g^(((((((((6R((((Y$))))))))))))))",
"))))))))))))))))$n^(((((((bb((E7o)))))))))))))))",
"))))))))))))))))))$s~/((((T2T7O)))))))))))))))))",
"))))))))))))))))))))+6m^((^+.)))))))))))))))))))",
")))))))))))))))))))))))@<N^%))))))))))))))))))))"
};
