/* XPM */
static char *_[] = {
/* columns rows colors chars-per-pixel */
"48 48 132 2 ",
"   c #1C1C1C",
".  c #3A1C18",
"X  c #3E211D",
"o  c #212121",
"O  c #282727",
"+  c #272828",
"@  c #2B2B2B",
"#  c #333333",
"$  c #3C3C3C",
"%  c #5E1C11",
"&  c #771C10",
"*  c #642014",
"=  c #6F271A",
"-  c #4E2823",
";  c #54312A",
":  c #403F3F",
">  c #583530",
",  c #5E3D37",
"<  c #742E23",
"1  c #7D2F23",
"2  c #753027",
"3  c #603931",
"4  c #7A3C34",
"5  c #76413A",
"6  c #7A443D",
"7  c #7F493F",
"8  c #3F4040",
"9  c #454444",
"0  c #484646",
"q  c #474848",
"w  c #4B4B4B",
"e  c #544F4E",
"r  c #514F50",
"t  c #545454",
"y  c #585656",
"u  c #5C5C5C",
"i  c #694743",
"p  c #624F4C",
"a  c #794C43",
"s  c #60605F",
"d  c #78645F",
"f  c #5F6060",
"g  c #636363",
"h  c #6D6867",
"j  c #676768",
"k  c #6B6B6B",
"l  c #7B6460",
"z  c #766D6C",
"x  c #6F7070",
"c  c #737374",
"v  c #797373",
"b  c #7F7877",
"n  c #7B7B7B",
"m  c #991E03",
"M  c #8C2310",
"N  c #9D2A15",
"B  c #8D331E",
"V  c #A1260A",
"C  c #A2341C",
"Z  c #9A3E2B",
"A  c #AD3724",
"S  c #A53825",
"D  c #8F4538",
"F  c #88483C",
"G  c #A54A3C",
"H  c #B44730",
"J  c #AE513A",
"K  c #924D41",
"L  c #86584F",
"P  c #965242",
"I  c #93584C",
"U  c #845B54",
"Y  c #85635D",
"T  c #97635B",
"R  c #986258",
"E  c #A36558",
"W  c #9D7169",
"Q  c #887876",
"!  c #807E7E",
"~  c #957F7B",
"^  c #AC7D73",
"/  c #A58179",
"(  c #AC8279",
")  c #B48378",
"_  c #7F8080",
"`  c #838383",
"'  c #8A8585",
"]  c #8C8B8B",
"[  c #958582",
"{  c #918E8E",
"}  c #9D8B88",
"|  c #8E8F90",
" . c #908F90",
".. c #8F9090",
"X. c #939394",
"o. c #999493",
"O. c #989798",
"+. c #979898",
"@. c #9B9B9C",
"#. c #A28782",
"$. c #A88C87",
"%. c #AA908C",
"&. c #A19391",
"*. c #A19F9F",
"=. c #AE9D9A",
"-. c #A7A09F",
";. c #9F9FA0",
":. c #A19FA0",
">. c #A3A3A4",
",. c #ABA4A3",
"<. c #A7A7A8",
"1. c #A8A7A8",
"2. c #A7A8A8",
"3. c #ACACAC",
"4. c #B1A4A3",
"5. c #B4ABAA",
"6. c #B4B0AF",
"7. c #AFAFB0",
"8. c #B4B4B4",
"9. c #B9B4B4",
"0. c #B7B7B8",
"q. c #B7B8B8",
"w. c #BCBBBC",
"e. c #C0BEBE",
"r. c #BFBFC0",
"t. c #BFC0C1",
"y. c #C3C3C4",
"u. c #C7C7C8",
"i. c #C6C8C9",
"p. c #CBCBCC",
"a. c #CDCED0",
"s. c None",
/* pixels */
"s.s.s.s.s.s.s.s.s.` 3.h s.s.s.s.s.s.s.s.s.s.s.s.s.s.s.s.s.s.s.s.s.s.s.s.s.s.s.s.s.s.s.s.s.s.s.s.",
"s.s.s.s.s.s.s.s.s.] 3.X.s.s.s.s.s.s.s.s.s.s.s.s.s.s.s.s.s.s.s.s.s.s.s.s.s.s.s.s.s.s.s.s.s.s.s.s.",
"s.s.s.s.s.s.s.s.k ] 3.3.s.s.s.s.s.s.s.s.s.s.s.s.s.s.s.s.s.s.s.s.s.s.s.s.s.s.s.s.s.s.s.s.s.s.s.s.",
"s.s.s.s.s.s.s.s.w X.3.w.s.s.s.s.s.s.s.s.s.s.s.s.s.s.s.s.s.s.s.s.s.s.s.s.s.s.s.s.s.s.s.s.s.s.s.s.",
"s.s.s.s.s.s.s.u $ +.>.u.k s.s.s.s.s.s.s.s.s.s.s.s.s.s.s.s.s.s.s.s.s.s.s.s.s.s.s.s.s.s.s.s.s.s.s.",
"s.s.s.s.s.s.s.k q +.>.p.X.w u u u y u s.s.s.s.s.s.s.s.s.s.s.s.s.s.s.s.s.s.s.s.s.s.s.s.s.s.s.s.s.",
"s.s.s.s.s.s.s.s.g @.>.p.3.y w t y w c X.w u y 9 g ` $ s.s.s.s.s.s.s.s.s.s.s.s.s.s.s.s.s.s.s.s.s.",
"s.s.s.s.s.s.s.s.c @.:.p.w.s.s.s.s.s.c 2.s.s.s.$ u >.0 9 0 9 q +.g 9 w w s.s.s.s.s.s.s.s.s.s.s.s.",
"s.s.s.s.s.s.s.s.g >.@.p.y.` s.s.s.s.j 3.s.s.s.s.` 3.g s.s.s.t >.x 9 9 0 q q q w w 9 g s s.s.s.s.",
"s.s.s.s.s.s.s.s.y @.@.p.p.O.n X.s.s.c 0.k s.s.s.c 8.k s.s.s.s.>.] s.s.s.s.s.s.s.s.s.w s s.s.s.s.",
"s.s.s.s.s.s.s.s.s.` >.p.p.8.O.e.n s.s.w.g s.s.s.g 8.c s.s.s.s.8.X.s.s.s.s.s.s.s.s.s.s.s.s.s.s.s.",
"s.s.s.s.s.s.s.s.s.] >.3.0.3.] y.>.s.g t.` s.s.s.g 8...s.s.s.s.3.@.s.s.s.s.s.s.s.s.s.s.s.s.s.s.s.",
"s.s.s.s.s.s.s.s.c c @.@.X.] c w.0.y g y.X.s.s.s.c 0.+.s.s.s.s.>.3.s.s.s.s.s.s.s.s.s.s.s.s.s.s.s.",
"s.s.s.s.s.s.s.q @.' z #.,.0.O.3.y.] s.r.>.s.s.s.u 8.3.s.s.s.s.>.w.s.s.s.s.s.s.s.s.s.s.s.s.s.s.s.",
"s.s.s.s.s.s.s.g X.p ; 1 A G a ] u.+.j w.3.s.s.s.q 8.8.s.s.s.s.3.w.s.s.s.s.s.s.s.s.s.s.s.s.s.s.s.",
"s.s.s.s.s.s.s.c 0.n >.&.^ E 6 v p.3.u w.0.s.s.s.s.8.w.n s.s.s.@.i.n s.s.s.s.s.s.s.s.s.s.s.s.s.s.",
"s.s.s.s.s.s.s.x 0.] u.p.p.i.w.] y.r.c >.3.k s.s.s.0.u.k s.s.s.O.p.` s.s.s.s.s.s.s.s.s.s.s.s.s.s.",
"s.s.s.s.s.s.9 ` 8...p.u.i.p.9.v w.u.3.@. .c c s.t ` @.n s.s.s.] y.@.s.s.s.- & - % s.s.s.s.s.s.s.",
"s.s.s.s.s.s.s.] 3.X.p.p.p.p.#.L y.p.p.u.u.u.r.w.8.3.>.@.] n k n X.n q + 0 5 G i 3 C V m s.s.s.s.",
"s.s.s.s.s.s.s.X.2.@.p.p.i.p.W R i.u.p.p.u.q.q.e.y.u.p.p.p.p.u.y.r.q.@.k 3.q.y. .n &.( P B * s.s.",
"s.s.s.s.s.# u @.>.>.p.u.p.u.R W p.p.p.u.>.{ +.{ { X.O.@.>.>.3.0.w.y.3.' y.r.8.` ` r.a.;.o.[ s.s.",
"s.s.s.s.s.s.0 <.@.3.p.u.p.y.I / p.u.p.1.X.e.y.y.e.w.8.3.,.>.@.X. . .c k X.X...c ` y.u.;.8.{ s.s.",
"s.s.s.s.s.s.t 3.X.0.p.p.p.e.D %.p.u.p.@.:.p.p.p.p.p.p.p.p.p.u.u.y.y...| y.u.w.` ] y.u.@.8.Y s.s.",
"s.s.s.s.s.s.g 0.{ w.p.p.p.e.D =.a.i.p.r.] 3.w.y.y.u.p.p.p.p.p.p.p.p.+.>.p.p.w.` X.u.u.@.8.L s.s.",
"s.s.s.s.s.s.c 0.{ t.u.p.p.9.F 4.p.p.p.p.8.;.@.@.O.@.@.-.>.3.7.0.w.y.' 3.a.p.8._ +.p.y.+.0.F s.s.",
"s.s.s.s.s.s.c w.X.u.p.p.p.w.d 6.p.u.p.p.p.p.p.y.y.e.w.8.3.2.>.@.@.+.g ' 7.t.3._ @.p.w.+.8.4 s.s.",
"s.s.s.s.s.@ n @.n 1.5.9.e.6.' y.u.X.] +.@.3.3.0.w.y.u.u.p.p.p.p.u.e.n @.+.| _ c >.p.w.@.5.2 s.s.",
"s.s.s.s.s.@ k ` , ; Z H J a @.p.@.f 3.@.t s.s.u ` ] ! ` X.X.>.7.0.7.n r.a.r.] n 3.a.8.>.,.< s.s.",
"s.s.s.s.s.s.c @.c Q ( ) ^ l w.y.g c p.3.s.s.s.c 0.8.k s.s.@ n @.c j y +.y.p.@.! 0.p.8.2.8.s.s.s.",
"s.s.s.s.s.s.+ u X.@.>.3.+.@.p.>.s.>.y.c s.s.s.` i.3.s.s.s.0 3.u.k s.s.t U $.! c ,.5.} ~ [ s.s.s.",
"s.s.s.s.s.s.s.+.8.3.>.+.x 0.w.g s.0.8.s.s.s.s.| y.` s.s.s.n y.3.s.s.s.s.< N > < S C N M = s.s.s.",
"s.s.s.s.s.s.t ` 3.p.p.3.+.u.@.s.y y.O.s.s.s.s.3.0.u s.s.s.@.y.>.s.s.s.s.s.. X s.s.s.s.s.s.s.s.s.",
"s.s.s.s.s.s.c @.3.p.u.' @.8.s.s.` t._ s.s.s.` w.@.s.s.s.s.>.w.s.s.s.s.s.s.s.s.s.s.s.s.s.s.s.s.s.",
"s.s.s.s.s.s.X.@.w.p.w.g s.s.s.s.>.<.s.s.s.s.` t._ s.s.s.q 3.3.s.s.s.s.s.s.s.s.s.s.s.s.s.s.s.s.s.",
"s.s.s.s.s.s.>.@.u.u.>.s.s.s.s.s.3.] s.s.s.s.X.3.s.s.s.s.n w.' s.s.s.s.s.s.s.s.s.s.s.s.s.s.s.s.s.",
"s.s.s.s.t h @.>.p.y._ s.s.s.s.k 7.g s.s.s.s.7.X.s.s.s.s.*.8.c s.s.s.s.s.s.s.s.s.s.s.s.s.s.s.s.s.",
"s.s.s.s g k @.7.p.2.q $ s.$ # _ @.s.s.s.s.` 3.n s.s.s.s...@.s.s.s.s.s.s.s.s.s.s.s.s.s.s.s.s.s.s.",
"s.s.s.s.s.] @.r.p._ # $ $ $ $ ] k 9 9 # O k >.#   s.s.q >.n s.s.s.s.s.s.s.s.s.s.s.s.s.s.s.s.s.s.",
"s.s.s.s.s.@.@.u.w.k s.s.s.s.s.s.s.o @ s.@ g g # $ $ # y >.9 @ s.@ o s.s.s.s.s.s.s.s.s.s.s.s.s.s.",
"s.s.s.s.s.@.>.u.X.s.s.s.s.s.s.s.s.s.s.s.s.s.s.s.s.s.  9 y @ # # $ q 9 w q s.q k s.s.s.s.s.s.s.s.",
"s.s.s.s.u X.0.y.` s.s.s.s.s.s.s.s.s.s.s.s.s.s.s.s.s.s.s.s.s.s.s.s.s.s.s.s.s.s.n s.s.s.s.s.s.s.s.",
"s.s.s.s.g +.y.3.s.s.s.s.s.s.s.s.s.s.s.s.s.s.s.s.s.s.s.s.s.s.s.s.s.s.s.s.s.s.s.s.s.s.s.s.s.s.s.s.",
"s.s.s.s.` 8.0.c s.s.s.s.s.s.s.s.s.s.s.s.s.s.s.s.s.s.s.s.s.s.s.s.s.s.s.s.s.s.s.s.s.s.s.s.s.s.s.s.",
"s.s.s.s.s.s.s.s.s.s.s.s.s.s.s.s.s.s.s.s.s.s.s.s.s.s.s.s.s.s.s.s.s.s.s.s.s.s.s.s.s.s.s.s.s.s.s.s.",
"s.s.s.s.s.s.s.s.s.s.s.s.s.s.s.s.s.s.s.s.s.s.s.s.s.s.s.s.s.s.s.s.s.s.s.s.s.s.s.s.s.s.s.s.s.s.s.s.",
"s.s.s.s.s.s.s.s.s.s.s.s.s.s.s.s.s.s.s.s.s.s.s.s.s.s.s.s.s.s.s.s.s.s.s.s.s.s.s.s.s.s.s.s.s.s.s.s.",
"s.s.s.s.s.s.s.s.s.s.s.s.s.s.s.s.s.s.s.s.s.s.s.s.s.s.s.s.s.s.s.s.s.s.s.s.s.s.s.s.s.s.s.s.s.s.s.s.",
"s.s.s.s.s.s.s.s.s.s.s.s.s.s.s.s.s.s.s.s.s.s.s.s.s.s.s.s.s.s.s.s.s.s.s.s.s.s.s.s.s.s.s.s.s.s.s.s."
};
