/* XPM */
static char *_5[] = {
/* columns rows colors chars-per-pixel */
"48 48 115 2 ",
"   c #1C1C1C",
".  c #211413",
"X  c #2C2C2C",
"o  c #3C302D",
"O  c #343434",
"+  c #3D3C3C",
"@  c #4E1B12",
"#  c #64190E",
"$  c #7C1B03",
"%  c #44211C",
"&  c #51231E",
"*  c #6B2115",
"=  c #6F2E1D",
"-  c #502722",
";  c #5B2D27",
":  c #403F3F",
">  c #5C3631",
",  c #632722",
"<  c #683229",
"1  c #6A3D37",
"2  c #793C32",
"3  c #7A4435",
"4  c #7F443B",
"5  c #444444",
"6  c #4C4C4C",
"7  c #5A4442",
"8  c #504F4F",
"9  c #5D4F4E",
"0  c #50504F",
"q  c #545454",
"w  c #5C5C5C",
"e  c #724B44",
"r  c #645553",
"t  c #6F5A57",
"y  c #656565",
"u  c #6C6C6C",
"i  c #7A6A66",
"p  c #746B6A",
"a  c #757575",
"s  c #7A7473",
"d  c #7E7876",
"f  c #7B7B7B",
"g  c #921B08",
"h  c #A31B0A",
"j  c #A52202",
"k  c #AB270F",
"l  c #A92C0F",
"z  c #AA2C13",
"x  c #AD3115",
"c  c #A5311E",
"v  c #B63516",
"b  c #893B24",
"n  c #823828",
"m  c #8F3F2E",
"M  c #9D3927",
"N  c #943628",
"B  c #973A29",
"V  c #8F3F31",
"C  c #904235",
"Z  c #B34527",
"A  c #874F42",
"S  c #924F42",
"D  c #965D53",
"F  c #A05346",
"G  c #A35F4D",
"H  c #8C635D",
"J  c #986056",
"K  c #9A675F",
"L  c #A36553",
"P  c #9C6D65",
"I  c #936F68",
"U  c #8D726C",
"Y  c #827C7B",
"T  c #947972",
"R  c #A2726C",
"E  c #A37A74",
"W  c #81807F",
"Q  c #B38377",
"!  c #7E8080",
"~  c #848484",
"^  c #898382",
"/  c #8B8B8B",
"(  c #9C8683",
")  c #9A8C8B",
"_  c #949494",
"`  c #989393",
"'  c #989897",
"]  c #959898",
"[  c #9B9B9B",
"{  c #A38681",
"}  c #A48F8A",
"|  c #A8908C",
" . c #A99693",
".. c #AC9994",
"X. c #AD9D9A",
"o. c #AEA09E",
"O. c #B4A19E",
"+. c #9FA0A0",
"@. c #A4A4A4",
"#. c #ACA4A3",
"$. c #ACACAC",
"%. c #B3B3B3",
"&. c #B9B5B4",
"*. c #BCBCBC",
"=. c #C0BFBF",
"-. c #BDBFC0",
";. c #BFC0C0",
":. c #C4C4C4",
">. c #C8C8C7",
",. c #C5C7C8",
"<. c #C6C9C9",
"1. c #CBCBCB",
"2. c #CED0D0",
"3. c #D0D0D0",
"4. c None",
/* pixels */
"4.4.4.4.4.4.4.4.4.4.4.4.4.4.4.4.4.4.4.4.4.4.4.4.4.4.4.4.4.4.4.4.4.4.4.4.4.4.4.4.4.4.4.4.4.4.4.4.",
"4.4.4.4.4.4.4.4.4.4.4.4.4.y q 4.4.4.4.4.4.4.4.4.4.o 5 4.4.4.4.4.4.4.4.4.4.4.4.4.4.4.4.4.4.4.4.4.",
"4.4.4.4.4.4.4.4.4.4.4.4.4.y w 4.4.4.4.4.4.4.4.4.$ T $.e * 4.4.4.4.4.4.4.4.4.4.4.4.4.4.4.4.4.4.4.",
"4.4.4.4.4.4.4.4.4.4.4.4.4.+ 4.4.4.4.4.4.4.4.4.$ b / &.-.#.I 2 # 4.4.4.4.4.4.4.4.4.4.4.4.4.4.4.4.",
"4.4.4.4.4.4.4.4.4.4.4.4.5 4.4.4.4.4.4.4.4.4.4.l } %.] _ @.*.*. .H t 5 4.4.4.4.4.4.4.4.4.4.4.4.4.",
"4.4.4.4.4.4.4.4.4.4.4.4.6 4.4.4.4.4.4.4.4.4.j G >.1.1.:.$._ ' @.*.1.U 4.4.4.4.4.4.4.4.4.4.4.4.4.",
"4.4.4.4.4.4.4.4.4.4.4.4.5 4.4.4.4.4.4.4.4.@ = d @.*.1.1.1.1.*.$.' _ S 4.4.4.4.4.4.4.4.4.4.4.4.4.",
"4.4.4.4.4.4.4.4.4.4.4.5 4.4.4.4.4.4.4.4.4.; 7 ! f ! / #.=.1.1.1.1.%.B 4.4.4.4.4.4.4.4.4.4.4.4.4.",
"4.4.4.4.4.4.4.4.4.4.4.5 4.4.4.4.4.4.4.4.. h R ;.~ a f a ! _ %.:.1.%.c 4.4.4.4.4.4.4.4.4.4.4.4.4.",
"4.4.4.4.4.4.4.4.4.4.4.5 4.4.4.4.4.4.4.4.4., ( 2._ %.&.[ ~ f a ~ [ ) z 4.4.4.4.4.4.4.4.4.4.4.4.4.",
"4.4.4.4.4.4.4.4.4.4.5 4.4.4.4.4.4.4.4.4.4.+ +.1._ *.1.1.>.[ u ! f r g 4.4.4.4.4.4.4.4.4.4.4.4.4.",
"4.4.4.4.4.4.4.4.4.4.+ 4.4.4.4.4.4.4.4.4.4.  f &./ :.1.1.>./ %.:.@.7 & 4.4.4.4.4.4.4.4.4.4.4.4.4.",
"4.4.4.4.4.4.4.4.4./ @.[ ' / f a y w 4.4.4.w [ a q ' =.1.@.[ 1.1.{ z % 4.4.4.4.4.4.4.4.a 4.4.4.4.",
"4.4.4.4.4.4.4.4.4.6 a _ @.&.:.>.1.:.*.&._ / 2.$.^ ' f f u *.1.@.1 < 4.4.4.4.4.4.4.4.5 w 4.4.4.4.",
"4.4.4.4.4.4.4.4.4.5 4.4.4.4.y ! ' $.*.,._ %.1./ &.2.,./ a a f 6 + 4.4.4.4.4.4.4.4.4.5 4.4.4.4.4.",
"4.4.4.4.4.4.4.4.5 + 4.4.4.4.4.4.4.4.4.y a >.*./ >.1.,.' :.:.y 4.4.4.4.4.4.4.4.4.4.4.6 4.4.4.4.4.",
"4.4.4.4.4.4.4.4.5 4.4.4.4.4.4.4.4.4.4.4.' 1.@.[ 1.1.&.[ 1.*.w 4.4.4.4.4.4.4.4.4.4.5 4.4.4.4.4.4.",
"4.4.4.4.4.4.4.O 5 4.4.4.4.4.4.4.4.4.4.4.&.1./ *.1.1.[ %.2.[ @.[ 4.4.4.4.4.4.4.4.4.5 4.4.4.4.4.4.",
"4.4.4.4.4.4.4.' $.@.[ _ / f u y w 4.4.a 1.*./ 1.1.:._ ,.,.f *.1.%.u 4.4.4.4.4.4.4.5 4.4.4.4.4.4.",
"4.4.4.4.4.4.4.6 y / o.%.:.1.1.,.*.*.~ @.1.[ @.1.1.%.@.1.%.+ a $.,.:._ 4.4.4.4.4.5 4.4.4.4.4.4.4.",
"4.4.4.4.4.4.4.5 4.4.4.4.w a _ @.*.:./ *.,.^ =.1.1.[ &.1./ 4.4.4.f $.1.$.y 4.4.4.5 4.4.4.4.4.4.4.",
"4.4.4.4.4.4.q 4.4.4.4.4.4.4.4.4.4.q ~ 1.%._ 1.1.*.' >.:.w 4.4.4.4.4.f %.:./ 4.O 5 4.4.4.4.4.4.4.",
"4.4.4.4.4.4.q 4.4.4.4.4.4.4.4.4.4.4.$.1._ $.1.1.$.@.1.$.q 4.4.4.4.4.4.4.~ &.@.w 4.4.4.4.4.4.4.4.",
"4.4.4.4.4.6 8 4.4.4.4.4.4.4.4.4.4.y :.:.~ ,.1.1.[ *.1._ $.' 4.4.4.4.4.4.4.4./ [ 4.4.4.4.4.4.4.4.",
"4.4.4.4.4.[ %.$.$.[ ' / f a y w O / 1.$.[ 1.1.*.] 1.*.f :.1.%.u 4.4.4.4.4.4.O 5 4.4.4.4.4.4.4.4.",
"4.4.4.4.4.6 w f ' $.*.,.1.1.,.:.~ %.1.' %.1.1.@.$.1.@.X u @.>.,./ 4.4.4.4.4.5 4.4.4.4.4.4.4.4.4.",
"4.4.4.4.6 5 4.4.4.4.4.y ~ [ $.&._ >.1.$._ :.*./ ,.1.a 4.4.4.a $.1.$.y 4.4.4.5 4.4.4.4.4.4.4.4.4.",
"4.4.4.4.q 4.4.4.4.4.4.4.5 5 q y $.1.1.1.' ~ / $.1.&.5 4.4.4.4.4.f %.*./ 4.+ 4.4.4.4.4.4.4.4.4.4.",
"4.4.4.4.q 4.4.4._ &.&.*.=.=.:.:.>.1.1.1.,.=.1.1.1._ q 4.4.4.4.4.4.4.~ &.@.w 4.4.4.4.4.4.4.4.4.4.",
"4.4.4.5 4.4.4.6 $.*.*.*.*.-.=.,.1.1.>.1.1.1.1.1.,./ *.[ 4.4.4.4.4.4.4.4./ / 4.4.4.4.4.4.4.4.4.4.",
"f f f a f ~ ~ ~ _ / u / r 7 / s ( &.1.1.1.1.1.1.%.a :.1.%.p 4.4.4.4.4.4.+ O 4.4.4.4.4.4.4.4.4.4.",
"1.1.1.1.1.1.1.1.1.$.[ *.M J ,.$.A m J  .*.1.1.1.:.u q @.,.,._ 4.4.4.4.4.6 4.4.4.4.4.4.4.4.4.4.4.",
"' [ @.%.*.1.1.1.1._ %.T x o.1.1.:...K V C P X.:.1.,.f X u $.>.%.y 4.4.4.5 4.4.4.4.4.4.4.4.4.4.4.",
"/ ' [ [ ' ' [ $.*./ %.N F ,.1.1.1.1.<.*.| D 4 p @.1.,./ 4.4.a $.:./ 4.q 4.4.4.4.4.4.4.4.4.4.4.4.",
"4.+ 6 f _ @.@./ @.' s - ` 1.1.1.>.1.1.1.1.,.=.*.d ^ ,.1._ 4.4.4.f %.@.w 4.4.4.4.4.4.4.4.4.4.4.4.",
"4.f 6 4.4.4.6 y y f Y > X.:.1.1.1.1.>.1.1.1.1.1.L 3 / =.1.[ 4.4.4.4.~ f 4.4.4.4.4.4.4.4.4.4.4.4.",
"4.5 4.4.4.4.4.4.4.[ / ' ] ~ _ %.1.1.1.1.1.1.1.*.Z Q @.y &.>.y 4.4.4.6 4.4.4.4.4.4.4.4.4.4.4.4.4.",
"4.4.4.4.4.4.4.4.4.O y ' %.-.$./ ~ [ *.,.1.1.1...v O.+._ / / 4.4.4.4.q 4.4.4.4.4.4.4.4.4.4.4.4.4.",
"4.4.4.4.4.4.4.4.4.4.4.4.4.u ] *.*.$./ / @.*.1.i n &./ *.:./ : 4.4.6 4.4.4.4.4.4.4.4.4.4.4.4.4.4.",
"4.4.4.4.4.4.4.4.4.4.4.4.4.5 4.5 f @.*.*.[ / ^ > 9 $._ 1.1.1.$.y 4.q 4.4.4.4.4.4.4.4.4.4.4.4.4.4.",
"4.4.4.4.4.4.4.4.4.4.4.4.4.4.4.4.w 4.q ~ $.:.' p W / $.:.>.1.1.:.a + 4.4.4.4.4.4.4.4.4.4.4.4.4.4.",
"4.4.4.4.4.4.4.4.4.4.4.4.4.4.4.4.4.4.4.5 4.w / / _ 6 $.~ ' *.1.1.1.[ q 4.4.4.4.4.4.4.4.4.4.4.4.4.",
"4.4.4.4.4.4.4.4.4.4.4.4.4.4.4.4.4.4.4.4.4.4.O 5 6 4.6 ~ $._ [ *.1.1.%.p 4.4.4.4.4.4.4.4.4.4.4.4.",
"4.4.4.4.4.4.4.4.4.4.4.4.4.4.4.4.4.4.4.4.4.4.4.4.4.4.4.4.y [ @.' +.:.1.,./ 4.4.4.4.4.4.4.4.4.4.4.",
"4.4.4.4.4.4.4.4.4.4.4.4.4.4.4.4.4.4.4.4.4.4.4.4.4.4.4.4.4.4.y ] @._ @.:.1.@.6 4.4.4.4.4.4.4.4.4.",
"4.4.4.4.4.4.4.4.4.4.4.4.4.4.4.4.4.4.4.4.4.4.4.4.4.4.4.4.4.4.4.6 y [ [ _ $.:.y 4.4.4.4.4.4.4.4.4.",
"4.4.4.4.4.4.4.4.4.4.4.4.4.4.4.4.4.4.4.4.4.4.4.4.4.4.4.4.4.4.y u 4.4.u _ / %.4.4.4.4.4.4.4.4.4.4.",
"4.4.4.4.4.4.4.4.4.4.4.4.4.4.4.4.4.4.4.4.4.4.4.4.4.4.4.4.4.4.4.4.4.4.4.4.w f 4.4.4.4.4.4.4.4.4.4."
};
