/* XPM */
static char *_6[] = {
/* columns rows colors chars-per-pixel */
"48 48 131 2 ",
"   c #110F03",
".  c #181605",
"X  c #1A1905",
"o  c #232107",
"O  c #2D2A09",
"+  c #34320B",
"@  c #3F3D0D",
"#  c #413E0D",
"$  c #46440F",
"%  c #49470F",
"&  c #4B4A10",
"*  c #534F12",
"=  c #565312",
"-  c #5A5613",
";  c #5C5913",
":  c #615E14",
">  c #666315",
",  c #686516",
"<  c #6B6816",
"1  c #6D6C1A",
"2  c #726F18",
"3  c #767319",
"4  c #787619",
"5  c #7D7A1B",
"6  c #707335",
"7  c #71763D",
"8  c #667155",
"9  c #6E7F6D",
"0  c #837E1C",
"q  c #7C854A",
"w  c #748268",
"e  c #7C8A69",
"r  c #728475",
"t  c #778974",
"y  c #85821C",
"u  c #8A861D",
"i  c #8D8A1E",
"p  c #918E1F",
"a  c #94911F",
"s  c #9B961F",
"d  c #858221",
"f  c #8A8720",
"g  c #8F8821",
"h  c #969221",
"j  c #9A9521",
"k  c #9E9A22",
"l  c #93922B",
"z  c #818435",
"x  c #888A37",
"c  c #898D3B",
"v  c #939335",
"b  c #999B36",
"n  c #9E9E38",
"m  c #A19D22",
"M  c #A09E2E",
"N  c #A6A223",
"B  c #AAA524",
"V  c #AEAA25",
"C  c #A1A02B",
"Z  c #A9A72A",
"A  c #B1AD26",
"S  c #B6B227",
"D  c #BFBA26",
"F  c #B5B128",
"G  c #BAB528",
"H  c #BDB929",
"J  c #A3A53C",
"K  c #B6B431",
"L  c #BCBA32",
"P  c #C1BD2A",
"I  c #C5C12B",
"U  c #CAC62B",
"Y  c #CDC92C",
"T  c #D1CE2D",
"R  c #D6D22E",
"E  c #DAD62F",
"W  c #DDD92F",
"Q  c #C5C131",
"!  c #CAC835",
"~  c #D3D033",
"^  c #DEDA31",
"/  c #E2DE2F",
"(  c #E2DE31",
")  c #EBE62D",
"_  c #E6E232",
"`  c #EAE632",
"'  c #EDE933",
"]  c #F2EE34",
"[  c #F5F235",
"{  c #FAF636",
"}  c #FFFB37",
"|  c #FFFF38",
" . c #838B4E",
".. c #999C44",
"X. c #9FA143",
"o. c #A8AA49",
"O. c #ADB25C",
"+. c #909B63",
"@. c #919A6A",
"#. c #84907A",
"$. c #A4AA6C",
"%. c #C3BF42",
"&. c #768B84",
"*. c #728A8E",
"=. c #7B969E",
"-. c #8E9C81",
";. c #91A08D",
":. c #86A1AB",
">. c #89A6B4",
",. c #8FAEBD",
"<. c #9EB8BD",
"1. c #A1BCBD",
"2. c #AAC1BD",
"3. c #91B2C2",
"4. c #98B8C4",
"5. c #93B4C8",
"6. c #A9C1C0",
"7. c #A1C3D5",
"8. c #AACADA",
"9. c #B2CEDB",
"0. c #B7D2D7",
"q. c #A7CCE2",
"w. c #AED5ED",
"e. c #B2D2E4",
"r. c #B3D6EB",
"t. c #BBDEED",
"y. c #B7DDF1",
"u. c #BDDFF3",
"i. c #BEE3F7",
"p. c #C2E5F7",
"a. c None",
/* pixels */
"a.a.a.a.a.a.a.a.a.a.a.a.a.a.a.a.a.a.a.a.a.a.a.a.a.a.a.a.a.a.a.a.a.a.a.a.a.a.a.a.a.a.a.a.a.a.a.a.",
"a.a.a.a.a.a.a.a.a.a.a.a.a.a.a.o - > , , O a.a.a.a.a.a.+ y k N B = a.a.a.a.a.a.a.a.a.a.a.a.a.a.a.",
"a.a.a.a.a.a.a.a.a.a.a.a.a.a.a.: I _ ' ` , a.a.a.a.a.a.& ~ | | | B a.a.a.a.a.a.a.a.a.a.a.a.a.a.a.",
"a.a.a.a.a.a.a.a.a.a.a.a.a.a.. h [ | } } 4 a.a.a.a.a.a.& Y } | | ` k a.a.a.a.a.a.a.a.a.a.a.a.a.a.",
"a.a.a.a.a.a.a.a.a.a.a.a.a.a.* I } } | } 4 a.a.a.a.a.a.& I | } } | k a.a.a.a.a.a.a.a.a.a.a.a.a.a.",
"a.a.a.a.a.a.a.a.a.a.a.a.a.a.m ( | } | { y a.a.a.a.a.a.% H } } } | ^ i a.a.a.a.a.a.a.a.a.a.a.a.a.",
"a.a.a.a.a.a.a.a.a.a.a.a.a.a.S [ } } } } y a.a.a.a.a.a.& S } } } } } p a.a.a.a.a.a.a.a.a.a.a.a.a.",
"a.a.a.a.a.a.a.a.a.a.a.a.a.f T | } } } } i a.a.a.a.a.a.% V } } } | | Y 3 a.a.a.a.a.a.a.a.a.a.a.a.",
"a.a.a.a.a.a.a.a.a.a.a.a.a.j ] | } } } } h a.a.a.a.a.a.% B } | } } } { i a.a.a.a.a.a.a.a.a.a.a.a.",
"a.a.a.a.a.a.a.a.a.a.a.a.< S | | } } } } p a.a.a.a.a.a.% h ` ] { } } | Y a.a.a.a.a.a.a.a.a.a.a.a.",
"a.a.a.a.a.a.a.a.a.a.a.a.3 ^ | | | ' I N u y m S H S m y 4 i N I ^ [ | [ S a.a.a.a.a.a.a.a.a.a.a.",
"a.a.a.a.a.a.a.a.a.a.a.a.i | | _ S m G W ' { } } | | | | { _ H h i V E } I 3 a.a.a.a.a.a.a.a.a.a.",
"a.a.a.a.a.a.a.a.a.a.a.a.U { P N I _ { } } } } } } } } } } | | } E N j G R B a.a.a.a.a.a.a.a.a.a.",
"a.a.a.a.a.a.a.a.a.a.a.j E S A E { } } } } } } } } } } } } } } | | } R N B k , a.a.a.a.a.a.a.a.a.",
"a.a.a.a.a.a.a.a.a.a.a.u A H ' | } } } } } } } } } } } } } } } } } } } [ P p : a.a.a.a.a.a.a.a.a.",
"a.a.a.a.a.a.a.a.a.a.@ u I [ | | } } } } } } } } } } } } } } } } } } } } } U >   a.a.a.a.a.a.a.a.",
"a.a.a.a.a.a.a.a.a.a.# H [ | } } } } } } } } } } } } } } } } } } } } } } } } H & a.a.a.a.a.a.a.a.",
"a.a.a.a.a.a.a.a.a.O g { | } } } } } } } } } } } } } } } } } } } } } } } } } } S $ a.a.a.a.a.a.a.",
"a.a.a.a.a.a.a.a.a.: _ | } } } } } } } } } } } } } | } } } } } } } } } } } } } [ N O a.a.a.a.a.a.",
"a.a.a.a.a.a.a.a.: P | } } } } } } } } } } } } } } { { { } } } } } } } } } } } } ( > a.a.a.a.a.a.",
"a.a.a.a.a.a.a.a.0 { | } } } } } } } } } } ) D l z x b K ^ [ | } } } } } } } } } { F O a.a.a.a.a.",
"a.a.a.a.a.a.a.a.Y | } } } } } } } } } { S 7 &.,.7.7.5.=.e J W } } } } } } } } } } _ ; a.a.a.a.a.",
"a.a.a.a.a.a.a.1 [ | } } } } } } } } ] h r 7.t.8.4.1.0.t.r.:.q Y } } } } } } } } } { k a.a.a.a.a.",
"a.a.a.a.a.a.a.Z | } } } } } } } } { C &.r.9.-.X.P P %.$.6.u.3. .^ } } } } } } } } } I + a.a.a.a.",
"a.a.a.a.a.a.a.E } } } } } } } } } Y w e.9.@.~ { } | | ` o.2.i.>.v [ } } } } } } } } ` & a.a.a.a.",
"a.a.a.a.a.a.; ' } } } } } } } } [ x 4.p.;.! } } } } } } [ O.9.w.9 ~ } } } } } } } } } 4 a.a.a.a.",
"a.a.a.a.a.a.5 { } } } } } } } } / t q.>...[ | } } } } } } U #.1.*.M { } } } } } } } | h a.a.a.a.",
"a.a.a.a.a.a.i [ } } } } } } } | G 8 +.6 Y } } } } } } } } [ g n c d ] } } } } } } } | j a.a.a.a.",
"a.a.a.a.a.a.p [ | { } } } } } | N Z ^ m ' } } } } } } } } | Y / ` j ] } } } } } } } | k a.a.a.a.",
"a.a.a.a.a.a.g [ } } } } } } } | N U E F [ | } } } } } } } } E Y ` k ' } } } } } } } | p a.a.a.a.",
"a.a.a.a.a.a.i ' } } } } } } } | G U U U [ } } } } } } } } } ' P Y m ' } } } } } } | | 4 a.a.a.a.",
"a.a.a.a.a.a.4 ` | } } } } } | | T V S E { } } } } } } } } } [ S m A [ } } } } } } | { , a.a.a.a.",
"a.a.a.a.a.a., E | | } } } } } | ] m y R { | } } } } } } } } } N 0 T } } } } } } } | _ u a.a.a.a.",
"a.a.a.a.a.a.% H } } } } } } } } | H > P | | } } } } } } } | | h 0 ( | } } } } } } | P a.a.a.a.a.",
"a.a.a.a.a.a.a.V [ } } } } } } } | A : m ' | } } } } } } | { E j f G ' | } } } } } | h a.a.a.a.a.",
"a.a.a.a.a.a.a.j ~ } } } } } } | U B Y S N ^ } | } } } } [ U m T ^ B G ] | } } } | ( j a.a.a.a.a.",
"a.a.a.a.a.a.a.& N } | } } } } E B R } [ I k N Y _ ` _ U B m R } | ` V S ' | | } | A a.a.a.a.a.a.",
"a.a.a.a.a.a.a.a.4 R | } } | E A ~ { } } { ' Y A k j k A R { | } } | _ V A ` | | ` m a.a.a.a.a.a.",
"a.a.a.a.a.a.a.a.a.H [ | | ( V U { | } } } } } } { { } | | | } } } } | ' A V _ | B - a.a.a.a.a.a.",
"a.a.a.a.a.a.a.a.a.a.S | ` B H [ } } } } } } } } } } } } } } } } } } } | ' S B G 0 a.a.a.a.a.a.a.",
"a.a.a.a.a.a.a.a.a.a.y H A S ] | } } } } } } } } } } } } } } } } } } } } | ] G , O a.a.a.a.a.a.a.",
"a.a.a.a.a.a.a.a.a.a.a.; A ' | } } } } } } } } } } } } } } } } } } } } } | | { j # a.a.a.a.a.a.a.",
"a.a.a.a.a.a.a.a.a.a.a.; ^ | | | } } } } } } } } } } } } } } | } } | } } ' R S a a.a.a.a.a.a.a.a.",
"a.a.a.a.a.a.a.a.a.a.a.; 3 m P ( } | | | | } } } } } } } } } { { ' _ T V p k , a.a.a.a.a.a.a.a.a.",
"a.a.a.a.a.a.a.a.a.a.a.a.a.a.a.a.3 h A U ( ` ] [ { [ ] ' ^ R P B G j 2 # a.a.a.a.a.a.a.a.a.a.a.a.",
"a.a.a.a.a.a.a.a.a.a.a.a.a.a.a.a.a.a.a.a.a.& = ; , , > > = @ O . a.a.a.a.a.a.a.a.a.a.a.a.a.a.a.a.",
"a.a.a.a.a.a.a.a.a.a.a.a.a.a.a.a.a.a.a.a.a.a.a.a.a.a.a.a.a.a.a.a.a.a.a.a.a.a.a.a.a.a.a.a.a.a.a.a.",
"a.a.a.a.a.a.a.a.a.a.a.a.a.a.a.a.a.a.a.a.a.a.a.a.a.a.a.a.a.a.a.a.a.a.a.a.a.a.a.a.a.a.a.a.a.a.a.a."
};
