/* XPM */
static char *_8[] = {
/* columns rows colors chars-per-pixel */
"48 48 132 2 ",
"   c #1D1E1E",
".  c #391C17",
"X  c #3E201C",
"o  c #202020",
"O  c #272828",
"+  c #2B2B2B",
"@  c #333333",
"#  c #373838",
"$  c #3C3C3C",
"%  c #5D1C0F",
"&  c #771D11",
"*  c #662113",
"=  c #70271B",
"-  c #4E2722",
";  c #412B27",
":  c #4E2824",
">  c #55312B",
",  c #403F3F",
"<  c #593631",
"1  c #5E3C35",
"2  c #762F22",
"3  c #7E2F23",
"4  c #743027",
"5  c #623930",
"6  c #793D34",
"7  c #7A423B",
"8  c #403F40",
"9  c #454545",
"0  c #484747",
"q  c #474748",
"w  c #474848",
"e  c #4B4A4A",
"r  c #544E4D",
"t  c #545454",
"y  c #585757",
"u  c #575758",
"i  c #5B5B5B",
"p  c #674843",
"a  c #624F4C",
"s  c #7B4B42",
"d  c #605F5F",
"f  c #5F6161",
"g  c #646464",
"h  c #6C6B6B",
"j  c #796360",
"k  c #736F6E",
"l  c #6F7070",
"z  c #747474",
"x  c #7A7474",
"c  c #787778",
"v  c #777878",
"b  c #7C7B7B",
"n  c #9A1E04",
"m  c #8E2311",
"M  c #9C2A15",
"N  c #8E341F",
"B  c #A1270B",
"V  c #A3331C",
"C  c #9D3F2B",
"Z  c #AD3724",
"A  c #A53825",
"S  c #8E4638",
"D  c #89483D",
"F  c #B5472E",
"G  c #A54A3C",
"H  c #AE5038",
"J  c #914D40",
"K  c #965242",
"L  c #93574C",
"P  c #845A53",
"I  c #87635C",
"U  c #99645A",
"Y  c #A56557",
"T  c #9E7169",
"R  c #887976",
"E  c #807F7E",
"W  c #AB7A6E",
"Q  c #AB7D74",
"!  c #95807C",
"~  c #A5807A",
"^  c #AC8279",
"/  c #B5847A",
"(  c #838383",
")  c #898585",
"_  c #8C8B8B",
"`  c #938583",
"'  c #9B8A87",
"]  c #918E8E",
"[  c #9D8C89",
"{  c #98908F",
"}  c #908F90",
"|  c #8F9090",
" . c #939393",
".. c #999696",
"X. c #989798",
"o. c #9B9B9B",
"O. c #A28782",
"+. c #A78B87",
"@. c #A88F8B",
"#. c #A19290",
"$. c #A19E9E",
"%. c #AD9C99",
"&. c #A6A09F",
"*. c #9E9FA0",
"=. c #A09FA0",
"-. c #9FA0A0",
";. c #A3A3A4",
":. c #ABA5A4",
">. c #A7A7A8",
",. c #A7A9AA",
"<. c #ACACAC",
"1. c #B3A7A5",
"2. c #B4ABA9",
"3. c #B5B0AF",
"4. c #AEAFB0",
"5. c #AFB0B1",
"6. c #B4B4B4",
"7. c #B9B5B5",
"8. c #B7B7B8",
"9. c #B8B7B8",
"0. c #BCBCBC",
"q. c #C2BEBE",
"w. c #BFBFC0",
"e. c #C0BFC0",
"r. c #BFC0C0",
"t. c #C3C3C4",
"y. c #C7C7C8",
"u. c #C8C7C8",
"i. c #C7C8C8",
"p. c #CBCBCC",
"a. c #CECFD0",
"s. c None",
/* pixels */
"s.s.s.s.s.s.s.s.s.s.s.s.s.s.s.s.s.s.s.s.s.s.s.s.s.s.s.s.s.s.s.s.s.s.s.s.s.s.s.s.s.s.s.s.s.s.s.s.",
"s.s.s.s.s.s.s.s.s.s.s.s.s.s.s.s.s.s.s.s.s.s.s.s.s.s.s.s.s.s.s.s.s.s.s.s.s.s.s.s.s.s.s.s.s.s.s.s.",
"s.s.s.s.s.s.s.s.s.s.s.s.s.s.s.s.s.s.s.s.s.s.s.s.s.s.s.s.s.s.s.s.s.s.s.s.s.s.s.s.s.s.s.s.s.s.s.s.",
"s.s.s.s.s.s.s.s.s.s.s.i s.s.s.s.s.s.s.s.s.s.s.s.s.s.s.s.s.s.s.s.s.s.s.s.s.s.s.s.s.s.s.s.s.s.s.s.",
"s.s.s.s.s.) g i s.s.s.g u s.s.s.s.s.s.s.s.s.s.s.s.s.s.s.s.s.s.s.s.s.s.s.s.s.s.s.s.s.s.s.s.s.s.s.",
"s.s.s.s.s.6. . .X.X._ h g s.s.s.s.s.s.s.+ + s.s.s.s.s.# s.s.s.s.s.s.s.s.s.s.s.s.s.s.s.s.s.s.s.s.",
"s.s.s.s.s.8.t.6.>.o.X.X.;.;. .z u s.+ v h v z z g t q y s.s.w s.s.s.s.s.s.s.s.s.s.s.s.s.s.s.s.s.",
"s.s.s.s.s.v <.t.p.u.0.6.;.X.o.o.)  .y X.( o.9.9.8.<.,.-.| ) E z z g 0 s.s.s.s.s.s.s.h f s.s.s.s.",
"s.s.s.s.s.s.s.( | 8.u.p.p.y.0.<.<.3.] x 5 x  .] |  ...;.>.<.8.8.8. .X.z s.s.y g s.g w $ r h s.s.",
"s.s.s.s.s.s.s.s.s.z ( >.t.p.p.p.p.,.*.R > <.u.q.9.8.<.>.o. .] _ b a ) c _ ( o.;.o.X.X. .| _ ] ( ",
"s.s.s.s.s.s.s.s.s.s.@ 9 ( o.9.u.a.>.;.^ S 2.p.p.u.p.p.p.p.p.u.i.$.> k X.;.;.X.o.;.;.>.>.>.<.<.>.",
"s.s.s.s.s.s.s.s.s.s.# 9 s.s.g _ <. .1.Q F q.p.p.p.p.u.p.p.p.u.p...N [ o.<.p.p.p.p.p.p.i.0.<.] h ",
"s.s.s.s.s.s.s.s.s.s.# 9 s.s.h o. .z o.W H 0.p.p.p.p.p.u.p.p.p.p.Q Z 1. .8.p.u.y.0.>.} k s.s.s.s.",
"s.s.s.s.s.s.s.s.s.s., $ s.s.s.6.p.7.o.j s 7.0.3.7.q.t.y.u.p.p.i.Y G 8._ <.6.X.( s.u e s.s.s.s.s.",
"s.s.s.s.s.s.s.s.s.s.$ @ s.s.s.s.o.w.p.0.o.) j D S J L U T O.8.8.7 s  .c _ X.v s.s.t i s.s.s.s.s.",
"s.s.s.s.s.s.s.s.s.s.) ( h s.s.s.s.f ;.t.p.t.6.1.%.@.~ T U P x _ z _ 4.9.y.0.s.s.s.t i s.s.s.s.s.",
"s.s.s.s.s.s.s.s.s.s.h -.<.,.;.) y s.s.g o.y.p.p.a.p.p.p.i.t.9.t.p.p.y.6.;.c s.s.s.t f s.s.s.s.s.",
"s.s.s.s.s.s.s.s.s.  9 s.g _ ,.0.t.8.;.z d  .p.u.p.u.p.p.p.p.u.q.>.X. .t s.s.s.s.s.r u s.s.s.s.s.",
"s.s.s.s.s.s.s.s.s.+ 9 s.s.s.s.( ..3.y.p.<.| p.u.p.p.p.p.u.p.<.z u h s.g g s.z g z z y s.s.s.s.s.",
"s.s.s.s.s.s.s.s.s.@ # s.s.s.s.s.s.h z >.o.X.p.p.0.o.>.u.p.p.X.>.0.0.t.0.w.0.8.<.>. .s.s.s.s.s.s.",
"s.s.s.s.s.s.s.s.s.@ O s.s.s.s.s.s.s.s.s.u o.p.6._ =. .;.i.u. .<.8.>.>. .) g h s.s.e s.s.s.s.s.s.",
"s.s.s.s.s.s.s.s.s.i h E s.s.s.s.s.s.s.s.s.>.p.;.<.p.t._ 8.y.z h s.s.s.s.s.s.s.s.s.y s.s.s.s.s.s.",
"s.s.s.s.s.s.s.s.s.g o.4.5. .) s.s.s.s.s.u <.u.o.9.p.y. .9.r.z s.s.s.s.s.s.s.s.s.s.u s.s.s.s.s.s.",
"s.s.s.s.s.s.s.s.s.@ # b | <.r.0.,. .( s.y 8.u.X.t.p.t.] t.9.s.s.s.s.s.s.s.s.s.s.$ w s.s.s.s.s.s.",
"s.s.s.s.s.s.s.s.s.#   s.s.y ( X.9.i.i.8.( 0.y.X.y.u.t.] y.6.t s.s.w i z g g s.( u g s.s.s.s.s.s.",
"s.s.s.s.s.s.s.s.s.# s.s.s.s.s.s.i E <.6._ y.0.X.u.p.9. .y.>.( 8.6.<.8.8.6.8.6.<.-.) s.s.s.s.s.s.",
"s.s.s.s.s.s.s.s.  # s.s.s.s.s.s.s.s.s.h E i.9.o.u.p.8...p.>.o.y.0.8.<.X._ z h g w 8 s.s.s.s.s.s.",
"s.s.s.s.s.s.s.s.9 y w s.s.s.s.s.s.s.s.s.( u.6.;.u.p.<.o.p.X.b h z u s.s.s.s.s.s.9 s.s.s.s.s.s.s.",
"s.s.s.s.s.s.s.s.y ;.>. .o.s.w s.s.s.s.s.| p.<.>.p.p.>.;.p._ s.s.s.s.s.s.s.s.s.s.w s.s.s.s.s.s.s.",
"s.s.s.s.s.s.s.s.+ 9 v o.6.0.<.;.o.s.s.+  .a.>.<.p.u.$.>.p.E s.s.s.s.s.s.s.s.s.s.q s.s.s.s.s.s.s.",
"s.s.s.s.s.s.s.s.@ + s.s.z ) >.0.y.t.<.b ;.p.;.6.p.p.X.<.u.h s.s.s.s.s.s.s.s.s.t e s.s.s.s.s.s.s.",
"s.s.s.s.s.s.s.s.@ # s.s.s.s.s.s.;.5.i.o.2.p.o.9.p.u. .8.y.b _  .&.>.;.;.<.6.>.;. .s.s.s.s.s.s.s.",
"s.s.s.s.s.s.s.s.8 + s.s.s.s.s.s.s.i h v 8.u.X.0.p.t. .0.r. .i.u.i.w.9.<.=. .) l g s.s.s.s.s.s.s.",
"s.s.s.s.s.s.s.s.w o s.s.s.s.s.s.s.s.s.g 6.r.X.t.a.t._ t.9.v o.( b s.s.s.s.s.s.9 9 s.s.s.s.s.s.s.",
"s.s.s.s.s.s.s.s.9 s.s.s.s.s.s.s.s.s.s.u v b g )  . .z 4.X.q s.s.s.s.s.s.s.s.s.0 w s.s.s.s.s.s.s.",
"s.s.s.s.s.s.s.s.w s.s.s.s.s.s.s.s.s.t X.r.o.) <.;._ h ) h + s.s.s.s.s.s.s.s.s.w w s.s.s.s.s.s.s.",
"s.s.s.s.s.s.s.s.w s.s.s.s.s.s.s.s.4 P r.p.o.4.p.p.t. .t.<.9 s.s.s.s.s.s.s.s.s.w s.s.s.s.s.s.s.s.",
"s.s.s.s.s.s.s.s.s.s.s.s.s.s.s.s.. M +.p.r.| t.p.p.i. .0.8.7 : s.s.s.s.s.s.s.s.w s.s.s.s.s.s.s.s.",
"s.s.s.s.s.s.s.s.0 s.s.s.s.s.s.s.X < ( X._ E <.8.9.0. .6.t.G & s.s.s.s.s.s.s.s.w s.s.s.s.s.s.s.s.",
"s.s.s.s.s.s.s.v h s.s.s.s.s.s.s.s.4 z E b v b E ( ) z ( | p - s.s.s.s.s.s.s.s.e s.s.s.s.s.s.s.s.",
"s.s.s.s.s.s.s.s.s.s.s.s.s.s.s.s.s.A $.9.2.>.o.X.| _ ) ( v 5 % s.s.s.s.s.s.s.s.e s.s.s.s.s.s.s.s.",
"s.s.s.s.s.s.s.s.s.s.s.s.s.s.s.s.s.V 2.a.p.p.p.p.i.i.t.r.#.V s.s.s.s.s.s.s.s.s.9 s.s.s.s.s.s.s.s.",
"s.s.s.s.s.s.s.s.s.s.s.s.s.s.s.s.s.M ' 6.8.0.r.y.i.i.p.p.^ B s.s.s.s.s.s.s.s.e g s.s.s.s.s.s.s.s.",
"s.s.s.s.s.s.s.s.s.s.s.s.s.s.s.s.s.m ! >.;.X.X. .X.o.*.*.K n s.s.s.s.s.s.s.s.i g s.s.s.s.s.s.s.s.",
"s.s.s.s.s.s.s.s.s.s.s.s.s.s.s.s.s.= ' 6.&.2.7.7.8.6.5.{ N s.s.s.s.s.s.s.s.s.s.s.s.s.s.s.s.s.s.s.",
"s.s.s.s.s.s.s.s.s.s.s.s.s.s.s.s.s.s.s.s.4 4 6 s P I { ` * s.s.s.s.s.s.s.s.s.s.s.s.s.s.s.s.s.s.s.",
"s.s.s.s.s.s.s.s.s.s.s.s.s.s.s.s.s.s.s.s.s.s.s.s.s.s.; s.s.s.s.s.s.s.s.s.s.s.s.s.s.s.s.s.s.s.s.s.",
"s.s.s.s.s.s.s.s.s.s.s.s.s.s.s.s.s.s.s.s.s.s.s.s.s.s.s.s.s.s.s.s.s.s.s.s.s.s.s.s.s.s.s.s.s.s.s.s."
};
