/* XPM */
static char *_0[] = {
/* columns rows colors chars-per-pixel */
"48 48 81 1 ",
"  c #040404",
". c #0C0C0C",
"X c #141414",
"o c #1B1B1B",
"O c #232323",
"+ c #2B2B2B",
"@ c #353535",
"# c #3B3B3B",
"$ c #444444",
"% c #424A4D",
"& c #4C4C4C",
"* c #4B5356",
"= c #4A5459",
"- c #535353",
"; c #5B5B5B",
": c #585F62",
"> c #5E6365",
", c #54646B",
"< c #5C676B",
"1 c #5C696E",
"2 c #5F737C",
"3 c #636363",
"4 c #60676A",
"5 c #6B6B6B",
"6 c #616C70",
"7 c #696E71",
"8 c #677378",
"9 c #69767C",
"0 c #737474",
"q c #7D7D7D",
"w c #7A7F81",
"e c #7E898D",
"r c #73909C",
"t c #7D99A6",
"y c #838383",
"u c #828688",
"i c #8C8C8C",
"p c #8D8F90",
"a c #8D9193",
"s c #949494",
"d c #9B9B9B",
"f c #8A9DA5",
"g c #819FAC",
"h c #82A1AE",
"j c #89A3AE",
"k c #92A2A9",
"l c #8BA6B1",
"z c #89A8B5",
"x c #89ACBA",
"c c #91A6B0",
"v c #91B0BD",
"b c #A4A4A4",
"n c #A7A8A9",
"m c #ABABAB",
"M c #B3B3B3",
"N c #BBBBBB",
"B c #93B5C4",
"V c #9DBECC",
"C c #A0B6C0",
"Z c #ADC9D5",
"A c #B0CCD9",
"S c #AED2E1",
"D c #B8DCEB",
"F c #BDE0EF",
"G c #BFE3F2",
"H c #C3C3C3",
"J c #C8C7C7",
"K c #CBCBCB",
"L c #D4D4D4",
"P c #D7D8D8",
"I c #DBDBDA",
"U c #C0E0ED",
"Y c #C1E5F4",
"T c #C8E9F7",
"R c #C1E8F8",
"E c #CBEDFB",
"W c #E3E3E3",
"Q c #EDECEC",
"! c #F4F4F4",
"~ c #FFFFFF",
"^ c None",
/* pixels */
"^^^^^^^^^^^^^^^^^^^^^^^^^+&3y+^^^^^^^^^^^^^^^^^^",
"^^^^^^^^^^^^^^^^^^^^^^^^oN!!~d^^^^^^^^^^^^^^^^^^",
"^^^^^^^^^^^^^^@-0+^^^^^^^K~~~!3^^^^^^^^^^^^^^^^^",
"^^^^^^^^^^^^^bW!~0^^^^^^^m~~~~LO^^^^^^^^^^^^^^^^",
"^^^^^^^^^^^^@Q~~~d^^^^^^^y~~~~~d^^^^^^^^^^^^^^^^",
"^^^^^^^^^^^^;~~~~N^^^^^^^;~~~~~!-^^^^^^^^^^^^^^^",
"^^^^^^^^^^^^i~~~~Io^^^^^^#!~~~~~KO^^^^^^^^^^^^^^",
"^^^^^^^^^^^^H~~~~!#^^^^^^oI~~~~~~i^^^^^^^^^^^^^^",
"^^^^^^^^^^^+W~~~~!;^^^^^^^N~~~~~~Q-^^^^^^^^^^^^^",
"^^^^^^^^^^^-!~~~~~y^^^^^^X-ysMI!~~JO^^^^^^^^^^^^",
"^^^^^^^^^^^y~~~~~!y #3iMKKHMby;;sI~i^^^^^^^^^^^^",
"^^^^^^^^^^^M~~~!H55NQ~~~~~~~~~!Is-qK&^^^^^^^^^^^",
"^^^^^^^^^^oI~~I00L~~~~~~~~~~~~~~~Qb;$ ^^^^^^^^^^",
"^^^^^^^^^^&!~N-m!~~~~~~~~~~~~~~~~~~W0.^^^^^^^^^^",
"^^^^^^^^^^0~n;P~~~~~~~~~~~~~~~~~~~~~!do^^^^^^^^^",
"^^^^^^^^^^mM3Q~~~~~~~~~~~~~~~~~~~~~~~~Mo^^^^^^^^",
"^^^^^^^^^oi3Q~~~~~~~~~~~~~~~~~~~~~~~~~~bX^^^^^^^",
"^^^^^^^^^ @L~~~~~~~~~~~~~~~~~~~~~~~~~~~~y^^^^^^^",
"^^^^^^^^^ m~~~~~~~~~~~~~~~~~~~~~~~~~~~~~Q-^^^^^^",
"^^^^^^^^^-!~~~~~~~~~~~~~!QQ!~~~~~~~~~~~~~No^^^^^",
"^^^^^^^^XJ~~~~~~~~~~~!Nq1111uJ!~~~~~~~~~~!3^^^^^",
"^^^^^^^^;!~~~~~~~~~~L>2BSDDSv20W~~~~~~~~~~N^^^^^",
"^^^^^^^^m~~~~~~~~~~J=zYZcfkCDGh6I~~~~~~~~~!$^^^^",
"^^^^^^^+I~~~~~~~~~I=VYfaHILmeARx:Q~~~~~~~~~y^^^^",
"^^^^^^^&!~~~~~~~~~0hTjm!~~~~IeZRra~~~~~~~~~M^^^^",
"^^^^^^^q~~~~~~~~~L,GZa!~~~~~~L8jh%W~~~~~~~~IO^^^",
"^^^^^^^d~~~~~~~~~stEsK~~~~~~~~dqN3M~~~~~~~~W#^^^",
"^^^^^^^m~~~~~~~~~eBz1Q~~~~~~~~Qs!Mi~~~~~~~~!$^^^",
"^^^^^^^M~~~~~~~~!59au~~~~~~~~~~mHKq~~~~~~~~!&^^^",
"^^^^^^^M~~~~~~~~~5KLb~~~~~~~~~~IdHq~~~~~~~~!#^^^",
"^^^^^^^d~~~~~~~~~qHKm~~~~~~~~~~!sis~~~~~~~~Q#^^^",
"^^^^^^^0~~~~~~~~~MiKm~~~~~~~~~~~m@K~~~~~~~~LO^^^",
"^^^^^^^-!~~~~~~~~Q3mm~~~~~~~~~~~JXH~~~~~~~~M^^^^",
"^^^^^^^+W~~~~~~~~~b$s~~~~~~~~~~!5i3s!~~~~~~q^^^^",
"^^^^^^^^M~~~~~~~~~!->~~~~~~~~~!yu~Qy5I~~~~!$^^^^",
"^^^^^^^^3!~~~~~~~~Q;;0P~~~~~!L5i!~~!M;M~~~M^^^^^",
"^^^^^^^^oL~~~~~~~~yd!M30bNNd05N!~~~~~W5u!~3^^^^^",
"^^^^^^^^^5!~~~~~~N3!~~!JdiidK!~~~~~~~~!d;io^^^^^",
"^^^^^^^^^XM~~~~~Q;I~~~~~~~~~~~~~~~~~~~~~L#^^^^^^",
"^^^^^^^^^^@W~~~~us~~~~~~~~~~~~~~~~~~~~~~~W$^^^^^",
"^^^^^^^^^^^;Q~~N3!~~~~~~~~~~~~~~~~~~~~~!N3o^^^^^",
"^^^^^^^^^^^^3!Q;L~~~~~~~~~~~~~~~~~~~~QM-.^^^^^^^",
"^^^^^^^^^^^^^30s~~~~~~~~~~~~~~~~~~!Is$^^^^^^^^^^",
"^^^^^^^^^^^^^^$!~~~~~~~~~~~~~~~QKs-o^^^^^^^^^^^^",
"^^^^^^^^^^^^^ qKIW!!~~~!!!WLNs3#^^^^^^^^^^^^^^^^",
"^^^^^^^^^^^^^^^^X+&-;;;-&#@o^^^^^^^^^^^^^^^^^^^^",
"^^^^^^^^^^^^^^^^^^^^^^^^^^^^^^^^^^^^^^^^^^^^^^^^",
"^^^^^^^^^^^^^^^^^^^^^^^^^^^^^^^^^^^^^^^^^^^^^^^^"
};
