/* XPM */
static char *_2[] = {
/* columns rows colors chars-per-pixel */
"48 48 75 1 ",
"  c #020202",
". c #141414",
"X c #1C1C1C",
"o c #232323",
"O c #2C2C2C",
"+ c #333333",
"@ c #3C3C3C",
"# c #444444",
"$ c #4B4B4B",
"% c #4A4E50",
"& c #535353",
"* c #52595D",
"= c #5B5B5B",
"- c #546066",
"; c #596165",
": c #59666B",
"> c #546870",
", c #5E7077",
"< c #5D717A",
"1 c #646464",
"2 c #616A6E",
"3 c #6A6A6A",
"4 c #656F73",
"5 c #69797F",
"6 c #747475",
"7 c #7B7B7B",
"8 c #647C86",
"9 c #78868B",
"0 c #7895A1",
"q c #7D9AA6",
"w c #838383",
"e c #80898C",
"r c #8B8B8B",
"t c #838E93",
"y c #898F91",
"u c #8A9092",
"i c #8A979C",
"p c #8C989D",
"a c #939393",
"s c #9B9B9B",
"d c #8D9FA6",
"f c #9C9EA0",
"g c #8CA2AB",
"h c #9FA0A0",
"j c #86A4B1",
"k c #92A8B2",
"l c #97AFB9",
"z c #A4A4A4",
"x c #A5A7A8",
"c c #ABABAB",
"v c #B3B3B3",
"b c #BBBBBB",
"n c #96B7C6",
"m c #94B9C9",
"M c #A0B7C1",
"N c #A7C9D7",
"B c #ADCAD6",
"V c #A7CEDF",
"C c #ADD0DF",
"Z c #ADD4E5",
"A c #B6D9E8",
"S c #BEDCE8",
"D c #BEE2F1",
"F c #C4C4C4",
"G c #CBCBCB",
"H c #D4D4D4",
"J c #DCDCDC",
"K c #C3E6F5",
"L c #C5E8F6",
"P c #E3E3E3",
"I c #E8E8E7",
"U c #EBEBEB",
"Y c #F3F3F3",
"T c #FFFFFF",
"R c None",
/* pixels */
"RRRRRRRRRRRRRRRRRRRRRRRo$7brRRRRRRRRRRRRRRRRRRRR",
"RRRRRRRRRRRRRRRRRRRRRRR6YTTY1RRRRRRRRRRRRRRRRRRR",
"RRRRRRRRRRRRRRR.RRRRRRR1TTTTJ@RRRRRRRRRRRRRRRRRR",
"RRRRRRRRRRRR$7cz.RRRRRR+UTTTTbXRRRRRRRRRRRRRRRRR",
"RRRRRRRRRRR&ITTU@RRRRRRRGTTTTTaRRRRRRRRRRRRRRRRR",
"RRRRRRRRRRR7TTTT3RRRRRRRsTTTTTY3RRRRRRRRRRRRRRRR",
"RRRRRRRRRRRsTTTTzRRRRRRR1TTTTTTP@RRRRRRRRRRRRRRR",
"RRRRRRRRRRRbTTTTHRRRRRRR@UTTTTTTFoRRRRRRRRRRRRRR",
"RRRRRRRRRRXHTTTTY@RRRRRRRFTTTTTTTsRRRRRRRRRRRRRR",
"RRRRRRRRRR@UTTTTT3RRRRRR.$136rvJTT3RRRRRRRRRRRRR",
"RRRRRRRRRR&TTTTTTsRR+3sGHJJHFz7=1cJ#RRRRRRRRRRRR",
"RRRRRRRRRR6TTTTTF==bYTTTTTTTTTTYF6== RRRRRRRRRRR",
"RRRRRRRRRRaTTTI93FTTTTTTTTTTTTTTTTH6. RRRRRRRRRR",
"RRRRRRRRRRvTTG=sTTTTTTTTTTTTTTTTTTTTv+RRRRRRRRRR",
"RRRRRRRRRXHTb&GTTTTTTTTTTTTTTTTTTTTTTJ#RRRRRRRRR",
"RRRRRRRRR+IG&JTTTTTTTTTTTTTTTTTTTTTTTTI&RRRRRRRR",
"RRRRRRRRR&H=HTTTTTTTTTTTTTTTTTTTTTTTTTTP#RRRRRRR",
"RRRRRRRRR=1vTTTTTTTTTTTTTTTTTTTTTTTTTTTTGORRRRRR",
"RRRRRRRRR.wTTTTTTTTTTTTTTTTTTTTTTTTTTTTTTsRRRRRR",
"RRRRRRRRRoITTTTTTTTTTTTTUJHPYTTTTTTTTTTTTY$RRRRR",
"RRRRRRRR rTTTTTTTTTTTTb6:<,,4aPTTTTTTTTTTTvRRRRR",
"RRRRRRRRoPTTTTTTTTTTJ3<mADDDZ0-vTTTTTTTTTTU$RRRR",
"RRRRRRRR3TTTTTTTTTTJ*qDBgiidBKV<sTTTTTTTTTTrRRRR",
"RRRRRRRRvTTTTTTTTTY=jKguFIIGykKZ>vTTTTTTTTTFXRRR",
"RRRRRRRoJTTTTTTTTTh8LlsYTTTTYfgAm*ITTTTTTTTI#RRR",
"RRRRRRR#UTTTTTTTTY;NSeUTTTTTTY72t$cTTTTTTTTT=RRR",
"RRRRRRR=TTTTTTTTTG,LMcTTTTTTTTPwYG6TTTTTTTTT3RRR",
"RRRRRRR3TTTTTTTTTc0A8GTTTTTTTTTvvU1YTTTTTTTTwRRR",
"RRRRRRR7TTTTTTTTTx891PTTTTTTTTTUrI3ITTTTTTTTwRRR",
"RRRRRRR1TTTTTTTTTz1IaUTTTTTTTTTTxv3YTTTTTTTT7RRR",
"RRRRRRR=TTTTTTTTTF6TaUTTTTTTTTTTJ31TTTTTTTTT3RRR",
"RRRRRRR@YTTTTTTTTI1IaITTTTTTTTTTT=1TTTTTTTTY$RRR",
"RRRRRRRRHTTTTTTTTTrssPTTTTTTTTTTY&&6JTTTTTTJORRR",
"RRRRRRRRzTTTTTTTTTI=3GTTTTTTTTTTrrTv=aYTTTTvRRRR",
"RRRRRRRR3TTTTTTTTTTFozTTTTTTTTTs3UTTIr=FTTT6RRRR",
"RRRRRRRRoJTTTTTTTTTI#$zUTTTTTJ63UTTTTTH17UIORRRR",
"RRRRRRRRRwTTTTTTTTTarIr&7sza61vTTTTTTTTTc=&RRRRR",
"RRRRRRRRRoHTTTTTTTH=UTTUFczvHYTTTTTTTTTTTI3.RRRR",
"RRRRRRRRRR3TTTTTTT7vTTTTTTTTTTTTTTTTTTTTTTI$RRRR",
"RRRRRRRRRRRzTTTTTG1YTTTTTTTTTTTTTTTTTTTTYz@RRRRR",
"RRRRRRRRRRRXbTTTY3FTTTTTTTTTTTTTTTTTTTYb&RRRRRRR",
"RRRRRRRRRRRROFTTc7TTTTTTTTTTTTTTTTTTYb=RRRRRRRRR",
"RRRRRRRRRRRRRocU=JTTTTTTTTTTTTTTTTJa#RRRRRRRRRRR",
"RRRRRRRRRRRRRRR@rTTTTTTTTTTTTTTHz1ORRRRRRRRRRRRR",
"RRRRRRRRRRRRRRR+ITTTTTTTTYIGcw&oRRRRRRRRRRRRRRRR",
"RRRRRRRRRRRRRRRo173wrww6=#+.RRRRRRRRRRRRRRRRRRRR",
"RRRRRRRRRRRRRRRRRRRRRRRRRRRRRRRRRRRRRRRRRRRRRRRR",
"RRRRRRRRRRRRRRRRRRRRRRRRRRRRRRRRRRRRRRRRRRRRRRRR"
};
