/* XPM */
static char *_8[] = {
/* columns rows colors chars-per-pixel */
"48 48 135 2 ",
"   c #321A16",
".  c #242424",
"X  c #282626",
"o  c #2A2B2A",
"O  c #3F2A27",
"+  c #302F2F",
"@  c #2F3030",
"#  c #333333",
"$  c #3B3B3B",
"%  c #601C12",
"&  c #532119",
"*  c #5A251D",
"=  c #592721",
"-  c #5B332D",
";  c #413F3F",
":  c #503530",
">  c #5B3C37",
",  c #6D2C23",
"<  c #732F23",
"1  c #6A3428",
"2  c #743227",
"3  c #783328",
"4  c #72473E",
"5  c #434343",
"6  c #484747",
"7  c #494847",
"8  c #474848",
"9  c #4B4A4A",
"0  c #504F4F",
"q  c #4F5050",
"w  c #535353",
"e  c #585757",
"r  c #5A5857",
"t  c #5D5C5C",
"y  c #6A4540",
"u  c #764944",
"i  c #77554E",
"p  c #645654",
"a  c #6B5551",
"s  c #605F5F",
"d  c #6B5E5D",
"f  c #735E5B",
"g  c #795D5A",
"h  c #5F6060",
"j  c #636363",
"k  c #6A6666",
"l  c #666768",
"z  c #6C6B6C",
"x  c #706B6A",
"c  c #796E6C",
"v  c #70706F",
"b  c #737373",
"n  c #7C7473",
"m  c #7C7B7B",
"M  c #9A1E07",
"N  c #A11900",
"B  c #A81A03",
"V  c #9B290F",
"C  c #852A1D",
"Z  c #8E2E19",
"A  c #922713",
"S  c #AE2908",
"D  c #A52E1E",
"F  c #AF331A",
"G  c #A13623",
"H  c #8D4437",
"J  c #914B3E",
"K  c #9A503D",
"L  c #B74127",
"P  c #A44E3E",
"I  c #914D41",
"U  c #9A4D41",
"Y  c #845C55",
"T  c #895E57",
"R  c #965F55",
"E  c #A25748",
"W  c #A75E4D",
"Q  c #B35541",
"!  c #896059",
"~  c #A46353",
"^  c #8F6963",
"/  c #847370",
"(  c #827E7D",
")  c #9C7C77",
"_  c #917E7A",
"`  c #A6736B",
"'  c #A27B72",
"]  c #A97E75",
"[  c #A4827C",
"{  c #807F80",
"}  c #7F8182",
"|  c #848484",
" . c #888686",
".. c #898887",
"X. c #888788",
"o. c #8C8B8C",
"O. c #928685",
"+. c #9C8986",
"@. c #908E8F",
"#. c #93908F",
"$. c #8F8F90",
"%. c #949394",
"&. c #989797",
"*. c #9B9897",
"=. c #979798",
"-. c #979898",
";. c #9B9B9B",
":. c #A58D89",
">. c #B1928A",
",. c #AB9590",
"<. c #AF9994",
"1. c #A19F9F",
"2. c #AA9D9A",
"3. c #ACA09F",
"4. c #9F9FA0",
"5. c #9FA0A1",
"6. c #A3A3A4",
"7. c #ABABAC",
"8. c #B0AFAF",
"9. c #AFAFB0",
"0. c #B0AFB0",
"q. c #AFB0B1",
"w. c #B3B3B4",
"e. c #BAB7B6",
"r. c #BDB8B7",
"t. c #B6B7B8",
"y. c #B7B8B8",
"u. c #BBBBBB",
"i. c #BFBFC0",
"p. c #BFC1C2",
"a. c #C4C4C4",
"s. c #C7C7C8",
"d. c #C7C8C8",
"f. c #CACBCB",
"g. c None",
/* pixels */
"g.g.g.g.g.g.g.g.g.g.g.g.6.6.$.| g.g.g.s g.g.g.g.g.g.g.g.g.g.g.g.g.g.g.g.g.g.g.g.g.g.g.g.g.g.g.g.",
"g.g.g.g.g.g.g.g.g.g.g.g.7.a.;.&.;.v 9 l g.g.g.g.g.g.g.g.g.g.g.g.g.g.g.g.g.g.g.g.g.g.g.g.g.g.g.g.",
"g.g.g.g.g.g.g.g.g.g.g.g. .u.f.w.&.5.m w g.g.g.g.g.g.g.g.g.g.g.g.g.g.g.g.g.g.g.g.g.g.g.g.g.g.g.g.",
"g.g.g.g.g.g.g.g.g.g.g.g.g.m w.f.u.;.;.6. .g.g.g.g.g.g.g.g.g.g.g.g.g.g.g.g.g.g.g.g.g.g.g.g.g.g.g.",
"g.g.g.g.g.g.g.g.g.g.g.g.g.g.t 9.f.d.7.&.6.| $ g.g.g.g.g.g.g.g.g.g.g.g.g.g.g.g.g.g.g.g.g.g.g.g.g.",
"g.g.g.g.g.g.g.g.g.g.g.g.g.g.g.z 6.f.d.u.;.;.| z g.9 $ g.g.g.g.g.g.g.g.g.g.g.g.g.g.g.g.g.g.g.g.g.",
"g.g.g.g.g.g.g.g.g.g.g.g.g.g.g.g.9 ;.d.f.a.6.;.6.w %.m z g.g.g.g.g.g.g.g.g.g.g.g.g.g.g.g.g.g.g.g.",
"g.g.g.g.g.g.g.g.g.g.g.g.g.g.g.X 5 0 6.d.f.f.a.;.o.| n 7.5.b w g.g.g.g.g.g.g.g.g.g.g.g.g.g.g.g.g.",
"g.g.g.g.g.g.g.g.g.g.g.g.g.g.g.; $ g.g.&.a.f.w.%.;.: a o.7.u.;.m w q g.g.g.g.g.g.g.g.g.g.g.g.g.g.",
"g.g.g.g.g.g.g.g.g.g.g.g.g.g.# 9 g.g.g.k %.p.;.7.] 1 6.y.&.o.7.y.5.z g.g.g.g.g.g.g.g.g.g.g.g.g.g.",
"g.g.g.g.g.g.g.g.g.g.g.g.g.g.5 # g.g.g.6.1.( o.w.Q W p.f.d.u.&.o.6.u.6.m r g.g.g.g.g.g.g.g.g.g.g.",
"g.g.g.g.g.g.g.g.g.g.g.g.g.| X.w g.g.g.7.d.;.| <.L >.f.f.f.f.d.y.=.o.6.u.7.m 9 X g.g.g.g.g.g.g.g.",
"g.g.g.g.g.g.g.g.g.g.g.g.g.8 %.7.z g.g.g.7.f.6.i K u.f.f.f.f.d.f.f.u.-.X.6.w.o.z g.g.g.g.g.g.g.g.",
"g.g.g.g.g.g.g.g.g.g.g.g.# 8 9 o.w.;.g.g.z w.f.;.n u.s.f.f.f.f.d.f.f.f.u.%.p ( ;.w g.g.g.g.g.g.g.",
"g.g.g.g.g.g.g.g.g.g.g.g.$ $ g.g.o.w.7.z g. .u.d.6.c T [ r.f.f.f.f.d.d.f.6.- d  .m m w w g.g.g.m ",
"g.g.g.g.g.g.g.g.g.g.g.X $ g.g.g.g.m e.a.1.r z a.f.w.) J J [ u.f.f.d.f.a.R 3 ;.&.6.$.;.4.o.m 8 w ",
"g.g.g.g.g.g.g.g.g.g.g.w o g.g.g.g.g.v 7.f.7.j m d.f.d.r.[ I J ] u.f.f.,.F ` 7.$.a.y.6.-.;.;.o.j ",
"g.g.g.g.g.g.g.g.g.g.9 4.%.g.g.g.g.g.g.g.;.f.9.m a.f.f.f.d.r.:.I Y w.e.U P e.=.7.f.f.f.a.u.6.=.&.",
"g.g.g.g.g.g.g.g.g.g.# w 6.7.v g.g.g.g.g.g.4.&.5.f.f.f.f.d.f.s.e.O.X.m - / ;.m w.i.a.a.f.f.f.s.u.",
"g.g.g.g.g.g.g.g.g.X # g.t 5.y.X.g.g.g.g.g.g.z i.f.f.f.d.f.d.d.f.d.a.w.7.6.;.$.&. .b m ..o.o.;.7.",
"g.g.g.g.g.g.g.g.g.# o g.g.g.;.a.7.b g.g.g.g.;.f.u.;.%.;.d.f.f.f.u.u.a.a.s.d.d.a.=.g.g.g.w g.g.g.",
"g.g.g.g.g.g.g.g.X # g.g.g.g.g. .a.u. .g.g.z i.d.;.1.e.%.7.f.f.e.m t j g.m b o.| g.g.g.9 t g.g.g.",
"g.g.g.g.g.g.g.g.b q g.g.g.g.g.g.o.y.d.6.j =.f.w.;.d.f.w.%.d.s.=.q.7.%.&.w g.g.g.g.g.g.w g.g.g.g.",
"g.g.g.g.g.g.g.o m 7.m g.g.g.g.g.g.| w.a.o.u.s.;.w.f.f.7.;.d.7.b 7.a.s.a.7.%. .g.g.g.9 t g.g.g.g.",
"g.g.g.g.g.g.g.@ $ X.w.6.g.g.g.g.g.g.z ..;.f.w.;.d.f.a.#.w.f.m # g.z o.%.7.y.u.7.%.m w 6 g.g.g.g.",
"g.g.g.g.g.g.. $ g.g.b w.w.b g.g.g.g.g.b u.d.1.w.f.f.7.&.f.7.g.g.g.g.g.g.g.g.| m &.6.o.g.g.g.g.g.",
"g.g.g.g.g.g.# # g.g.g.x 9.a.6.g.g.g.g.;.f.y.;.d.f.a.#.w.d.m g.g.g.g.g.g.g.g.g.g.g.w j g.g.g.g.g.",
"g.g.g.g.g.g.5 g.g.g.g.g.j ;.a.w.b X t u.f.;.w.f.f.8.&.f.w.m %.g.g.g.g.g.g.g.g.g.g.w g.g.g.g.g.g.",
"g.g.g.g.g.g.# g.g.g.g.g.g.g.6.a.a.m o.d.w.;.a.f.a.@.w.d.%.7.f.u.;. .m g.g.g.g.g.9 g.g.g.g.g.g.g.",
"g.g.g.g.g.5 g.g.g.g.g.g.g.g.g.%.u.%.u.d.1.0.f.f.7.&.f.8.k o.6.w.u.a.u.4.| g.g.g.9 g.g.g.g.g.g.g.",
"g.g.g.g.g.$ g.g.g.g.g.g.g.g.g.g.s ;.f.u.&.s.f.s.%.w.d. .g.g.g.g.g. .%.7.7.w.7.| t g.g.g.g.g.g.g.",
"g.g.g.g.g.g.g.g.g.g.g.g.g.g.g.g.j w.f.4.8.f.f.7.%.d.w.g.g.g.g.g.g.g.g.g.t j b o.g.g.g.g.g.g.g.g.",
"g.g.g.j e g.g.g.g.g.g.g.g.g.g.w z  .6.-.s.f.a.%.w.d.o.g.g.g.g.g.g.g.g.g.g.g.$ g.g.g.g.g.g.g.g.g.",
"g.g.g.b g.g.g.g.g.g.g.g.g.2 4 %.u.;.h b w.d.q.%.a.u.@.6.| v g.g.g.g.g.g.g.g.9 g.g.g.g.g.g.g.g.g.",
"g.g.g.g.g.g.g.g.g.g.g.g.* G :.d.f.6.%.6. . .m 7.f.%.6.s.f.p.w.o.z g.g.g.g.8 g.g.g.g.g.g.g.g.g.g.",
"g.g.g.g.g.g.g.g.g.g.g.g.= d q.s.7.%.a.f.a.=.t  .;.t g.o.&.6.w.i.u.w.=.z r $ g.g.g.g.g.g.g.g.g.g.",
"g.g.g.g.g.g.g.g.g.g.g.B C v } X.m w.f.f.f.7.;.7.h g.g.g.g.g.t m m &.;.7.6.z g.g.g.g.g.g.g.g.g.g.",
"g.g.g.g.g.g.g.g.g.g.g.N E 6.o.m b %.w.s.f.;.7.f.z X g.g.g.g.g.g.g.g.g.t j g.g.g.g.g.g.g.g.g.g.g.",
"g.g.g.g.g.g.g.g.g.g.g.M [ f.s.7.o.| | o.7.$.u.u.u O g.g.g.g.g.g.g.g.g.5 5 g.g.g.g.g.g.g.g.g.g.g.",
"g.g.g.g.g.g.g.g.g.g.g.A +.a.f.f.a.7.o.| m b 7.2.D % g.g.g.g.g.g.g.g.g.9 g.g.g.g.g.g.g.g.g.g.g.g.",
"g.g.g.g.g.g.g.g.g.g.g.H ;.;.7.i.f.f.d.w.$.| } d ,   g.g.g.g.g.g.g.g.9 9 g.g.g.g.g.g.g.g.g.g.g.g.",
"g.g.g.g.g.g.g.g.g.g.g.f u.u.6.%.6.i.f.f.s.q.( 1 * g.g.g.g.g.g.g.g.g.8 g.g.g.g.g.g.g.g.g.g.g.g.g.",
"g.g.g.g.g.g.g.g.g.g.g.g.g ^ 2.u.6.=.6.u.f.a.~ S g.g.g.g.g.g.g.g.g.9 9 g.g.g.g.g.g.g.g.g.g.g.g.g.",
"g.g.g.g.g.g.g.g.g.g.g.g.g.g.2 T 2.u.6.%.5.' V g.g.g.g.g.g.g.g.g.g.9 g.g.g.g.g.g.g.g.g.g.g.g.g.g.",
"g.g.g.g.g.g.g.g.g.g.g.g.g.g.g.g.< T 2.u._ Z g.g.g.g.g.g.g.g.g.g.9 9 g.g.g.g.g.g.g.g.g.g.g.g.g.g.",
"g.g.g.g.g.g.g.g.g.g.g.g.g.g.g.g.g.g.> o.4 g.g.g.g.g.g.g.g.g.g.g.8 g.g.g.g.g.g.g.g.g.g.g.g.g.g.g.",
"g.g.g.g.g.g.g.g.g.g.g.g.g.g.g.g.g.g.g.g.g.g.g.g.g.g.g.g.g.g.g.j w g.g.g.g.g.g.g.g.g.g.g.g.g.g.g.",
"g.g.g.g.g.g.g.g.g.g.g.g.g.g.g.g.g.g.g.g.g.g.g.g.g.g.g.g.g.g.g.k g.g.g.g.g.g.g.g.g.g.g.g.g.g.g.g."
};
