/* XPM */
static char *_7[] = {
/* columns rows colors chars-per-pixel */
"48 48 132 2 ",
"   c #060401",
".  c #1A1805",
"X  c #211E06",
"o  c #242207",
"O  c #252308",
"+  c #282608",
"@  c #35330B",
"#  c #3C3A0C",
"$  c #403F0D",
"%  c #44420E",
"&  c #48460F",
"*  c #4E4B10",
"=  c #514E11",
"-  c #555312",
";  c #5A5612",
":  c #5D5A13",
">  c #625E14",
",  c #656316",
"<  c #686616",
"1  c #6D6B17",
"2  c #67661A",
"3  c #6F6B18",
"4  c #767219",
"5  c #79761A",
"6  c #7D791B",
"7  c #687351",
"8  c #6B7F7D",
"9  c #827E1B",
"0  c #7D8342",
"q  c #778358",
"w  c #7E8A66",
"e  c #718374",
"r  c #85811C",
"t  c #8A871D",
"y  c #8C891E",
"u  c #918D1F",
"i  c #95911F",
"p  c #8D8922",
"a  c #8C8C2E",
"s  c #959120",
"d  c #9A9521",
"f  c #9D9A22",
"g  c #828336",
"h  c #80853F",
"j  c #A29E23",
"k  c #A5A123",
"l  c #A9A424",
"z  c #ADA925",
"x  c #A5A32B",
"c  c #A9A728",
"v  c #B2AE26",
"b  c #B2AF29",
"n  c #B6B127",
"m  c #B8B427",
"M  c #B2B02A",
"N  c #BBB629",
"B  c #BDBA29",
"V  c #B1B136",
"C  c #BBB830",
"Z  c #B2B23D",
"A  c #C2BE2A",
"S  c #CDC927",
"D  c #C5C22B",
"F  c #C9C52B",
"G  c #CDC92C",
"H  c #D2CD2D",
"J  c #D6D22E",
"K  c #DAD62F",
"L  c #DBD82F",
"P  c #C2C137",
"I  c #C9C737",
"U  c #D0CD33",
"Y  c #DEDB30",
"T  c #E2DD2E",
"R  c #E1DE31",
"E  c #E6E32F",
"W  c #EAE52D",
"Q  c #E6E232",
"!  c #E8E532",
"~  c #EDEA33",
"^  c #F1ED34",
"/  c #F5F235",
"(  c #FAF635",
")  c #FFFB37",
"_  c #FFFF38",
"`  c #868847",
"'  c #929645",
"]  c #9B9E41",
"[  c #8C9550",
"{  c #9FA343",
"}  c #A6AC4D",
"|  c #A8AB4D",
" . c #B6B94D",
".. c #A9AE5A",
"X. c #B9BA53",
"o. c #8B9867",
"O. c #84917B",
"+. c #98A16E",
"@. c #9EA979",
"#. c #B2B874",
"$. c #C3C554",
"%. c #738889",
"&. c #7D9289",
"*. c #809383",
"=. c #8C9C83",
"-. c #819793",
";. c #839B9C",
":. c #8FA08D",
">. c #8EA49B",
",. c #93AA9A",
"<. c #94ADA5",
"1. c #91ADAF",
"2. c #8CABBC",
"3. c #9EB7B5",
"4. c #98B8C3",
"5. c #9BBBCD",
"6. c #97B9D3",
"7. c #9EC2DA",
"8. c #ADC6CA",
"9. c #A6C6D6",
"0. c #AEC9D4",
"q. c #A0C3DC",
"w. c #AECFD9",
"e. c #A6CBE0",
"r. c #B4D7EA",
"t. c #B8D7EB",
"y. c #BDDCEB",
"u. c #AED3F0",
"i. c #B8DDF4",
"p. c #BBE0F1",
"a. c #C3E4F4",
"s. c None",
/* pixels */
"s.s.s.s.s.s.s.s.s.s.s.s.s.s.s.s.s.s.s.s.s.s.s.s.s.s.s.s.s.s.s.s.s.s.s.s.s.s.s.s.s.s.s.s.s.s.s.s.",
"s.s.s.s.s.s.s.s.s.s.s.s.s.s., * s.s.s.s.s.s.s.s.s.s.s.s.s.s.s.s.s.s.s.s.s.s.s.s.s.s.s.s.s.s.s.s.",
"s.s.s.s.s.s.s.s.s.s.s.s.s.p B Y A y < s.s.s.s.s.s.s.s.s.s.s.s.s.s.s.s.s.s.s.s.s.s.s.s.s.s.s.s.s.",
"s.s.s.s.s.s.s.s.s.s.s.s.r B _ _ ) ~ B s - s.s.s.s.s.s.s.s.s.s.s.s.s.s.s.s.s.s.s.s.s.s.s.s.s.s.s.",
"s.s.s.s.s.s.s.s.s.s.s.@ k _ ) ) ) _ ) ( D f = s.s.s.s.s.s.s.s.s.s.s.s.s.s.s.s.s.s.s.s.s.s.s.s.s.",
"s.s.s.s.s.s.s.s.s.s.s.s., L _ ) ) ) ) ) _ ) Y B t > s.s.s.s.s.s.s.s.s.s.s.s.s.s.s.s.s.s.s.s.s.s.",
"s.s.s.s.s.s.s.s.s.s.s.s.s., Y ) ) ) ) ) _ ) _ ) / B f : s.s.s.s.s.s.s.s.s.s.s.s.s.s.s.s.s.s.s.s.",
"s.s.s.s.s.s.s.s.s.s.s.s.s.s., R ) ) ) _ ) _ / ! L A B y ; X s.  s.s.s.s.s.s.s.s.s.s.s.s.s.s.s.s.",
"s.s.s.s.s.s.s.s.s.s.s.s.s.s.s.< L ) _ ( ~ v k r f j b A n f i 1 r # s.s.s.s.s.s.s.s.s.s.s.s.s.s.",
"s.s.s.s.s.s.o s.s.s.s.s.s.s.s.s.1 ! Q l i i A L ^ ) ) ) ) ) ) ) Q B k * s.s.s.s.s.s.s.s.s.s.s.s.",
"s.s.s.s.s.3 f - s.s.s.s.s.s.s.s.s., 6 m H ) ) ) ) ) ) ) ) ) ) ) ) _ / R d s.O s.s.s.s.s.s.s.s.s.",
"s.s.s.s.3 G _ B * s.s.s.s.s.s.s.s.5 G ( ) ) ) ) ) ) ) ) ) ) ) ) ) ) ) _ ( J 5 - s.s.s.s.s.s.s.s.",
"s.s.s.: L _ ) ) B * s.s.s.s.s.s.l R _ _ ) ) ) ) ) ) ) ) ) ) ) ) ) ) ) ) _ ) ( k 9 s.s.s.s.s.s.s.",
"s.s.s.1 / _ ) ) ) n * s.s.s.s.B ~ _ ) ) ) ) ) ) ) ) ) ) ) ) ) ) ) ) ) ) ) ) _ _ v 9 s.s.s.s.s.s.",
"s.s.s.> H ) ) ) ) ) v * s.s.n ^ _ ) ) ) ) ) ) ) ) ) ) ) ) ) ) ) ) ) ) ) ) ) ) ) ) z 4 s.s.s.s.s.",
"s.s.s.+ d _ _ ) ) ) ) k - j ^ _ ) ) ) ) ) ) ) ) ) ) ) ) ) ) ) ) ) ) ) ) ) ) ) ) _ _ y & s.s.s.s.",
"s.s.s.s.s Y _ ) ) ) _ G i ~ ) ) ) ) ) ) ) ) ) ) ) ) ) ) ) ) ) ) ) ) ) ) ) ) ) ) ) _ ^ , s.s.s.s.",
"s.s.s.s.s.D _ ) ) _ Q l R ) ) ) ) ) ) ) ) ) ) _ ) ) ( ~ ^ ( ( ) ) ) ) ) ) ) ) ) ) ) ) J s.s.s.s.",
"s.s.s.s.s.d / _ ) ) J n ^ ) ) ) ) ) ) ) ) ) _ ^ T V } 0 [ ' x G W _ ) ) ) ) ) ) ) ) _ ! f s.s.s.",
"s.s.s.s.s.6 R _ _ ^ f H _ ) ) ) ) ) ) ) ) _ ~ x o.-.4.9.7.5.1.e ] A _ ) ) ) ) ) ) ) _ _ F * s.s.",
"s.s.s.s.s.% z _ _ L N / ) ) ) ) ) ) ) ) _ Q a ,.6.p.0.8.0.y.u.4.7 a A _ ) ) ) ) ) ) ) ) ~ z s.s.",
"s.s.s.s.s.s.y ~ _ M m ) ) ) ) ) ) ) ) ) ! a <.7.8.#.X.V $...O.` A T j A _ ) ) ) ) ) ) ) _ d s.s.",
"s.s.s.s.s.s.# G ) v L ) ) ) ) ) ) ) ) ( A =.7.3. .R ) ( ) W H l L Y Y j Y _ ) ) ) ) ) ) _ J s.s.",
"s.s.s.s.s.s.s.l Y j ~ _ ) ) ) ) ) ) ) ^ h 2.w.} T ) ) ) ) _ _ / H F N l G _ ) ) ) ) ) ) _ R : s.",
"s.s.s.s.s.s.s.u H z ^ _ ) ) ) ) ) ) _ G w r.:.I ) ) ) ) ) ) ) _ ( Q N t f / ) _ ) _ ) _ _ ( u s.",
"s.s.s.s.s.s.s.> t z ) ) ) ) ) ) ) ) _ m %.t.@.W ) ) ) ) ) ) ) ) _ ( ^ d 4 d v N m n B A N B < . ",
"s.s.s.s.s.s.s.s.> j ) ) ) ) ) ) ) ) _ b ;.y.+.Q ) ) ) ) ) ) ) ) ) ) _ ~ r b A A B B n n m v k 4 ",
"s.s.s.s.s.s.s.s.X u ) _ ) ) ) ) ) ) ) c ;.a.=.Y _ ) ) ) ) ) ) ) ) ) _ / j Q _ _ ) _ ) ) ) ) _ N ",
"s.s.s.s.s.s.s.s.s.9 ( ) ) ) ) ) ) ) ) I &.i.>.C ) ) ) ) ) ) ) ) ) ) ) R l ~ ) ) ) ) ) ) ) _ K 4 ",
"s.s.s.s.s.s.s.s.s.: / ) ) ) ) ) ) ) ) K q e.*.s / ) ) ) ) ) ) ) ) ) _ G j ( ) ) ) ) ) ) _ / n s.",
"s.s.s.s.s.s.s.s.s.9 T ) ) ) ) ) ) ) ) ( } 8 ] b D _ ) ) ) ) ) ) ) ) ~ n J _ ) ) ) ) ) ) _ K = s.",
"s.s.s.s.s.s.s.s.s.% B ) ) ) ) ) ) ) ) ) G g B T B R ) ) ) ) ) ) ) ) J l ! _ ) ) ) ) ) _ ^ 5 s.s.",
"s.s.s.s.s.s.s.s.s.s.n ( _ ) ) ) ) ) ) ) ( l z J F J / _ _ ) ) _ / Y f J _ ) ) ) ) ) _ ( l s.s.s.",
"s.s.s.s.s.s.s.s.s.s.< ^ _ ) ) ) ) ) ) ) _ / z B v k H _ _ _ _ Y G d J _ ) ) ) ) ) _ ( F s.s.s.s.",
"s.s.s.s.s.s.s.s.s.s.2 M _ ) ) ) ) ) ) ) ) _ ( G z 6 : N J B n k n Y _ ) ) ) ) ) ) ) R < s.s.s.s.",
"s.s.s.s.s.s.s.s.s.s.s.A ~ ) ) ) ) ) ) ) ) ) _ ( / F 5 r z m B ! / _ ) ) ) ) ) ) ) ^ 4 O s.s.s.s.",
"s.s.s.s.s.s.s.s.s.s.s.% z _ ) ) ) ) ) ) ) ) ) ) ) ) z F ) ) ) ) ) ) ) ) ) ) ) _ / r # s.s.s.s.s.",
"s.s.s.s.s.s.s.s.s.s.s.s.4 F _ ) ) ) ) ) ) ) ) ) ) ) k H ) ) ) ) ) ) ) ) ) ) _ ( s ; s.s.s.s.s.s.",
"s.s.s.s.s.s.s.s.s.s.s.s.s.p J _ ) ) ) ) ) ) ) ) ) ) n G ) ) ) ) ) ) ) ) ) ) ( y : s.s.s.s.s.s.s.",
"s.s.s.s.s.s.s.s.s.s.s.s.s.s.p K _ ) ) ) ) ) ) ) ) ) N J ) ) ) ) ) ) ) ) ) ^ t ; s.s.s.s.s.s.s.s.",
"s.s.s.s.s.s.s.s.s.s.s.s.s.s.s.u K _ _ ) ) ) ) ) ) ) z J ) ) ) ) ) ) _ ) ! 3 * s.s.s.s.s.s.s.s.s.",
"s.s.s.s.s.s.s.s.s.s.s.s.s.s.s.s.6 G ) _ ) ) ) ) ) ) z H ) ) ) ) ) _ ~ J : # s.s.s.s.s.s.s.s.s.s.",
"s.s.s.s.s.s.s.s.s.s.s.s.s.s.s.s.s.; v Y _ _ _ ) ) ) z D ) ) ) ) _ Y B s.s.s.s.s.s.s.s.s.s.s.s.s.",
"s.s.s.s.s.s.s.s.s.s.s.s.s.s.s.s.s.s.s.d k Y / ) _ ) z G _ _ ) ) A y s.s.s.s.s.s.s.s.s.s.s.s.s.s.",
"s.s.s.s.s.s.s.s.s.s.s.s.s.s.s.s.s.s.s.s.@ 3 u F A K j H _ ) H j * s.s.s.s.s.s.s.s.s.s.s.s.s.s.s.",
"s.s.s.s.s.s.s.s.s.s.s.s.s.s.s.s.s.s.s.s.s.s.s.s.* 4 * n Q u d s.s.s.s.s.s.s.s.s.s.s.s.s.s.s.s.s.",
"s.s.s.s.s.s.s.s.s.s.s.s.s.s.s.s.s.s.s.s.s.s.s.s.s.s.O 5 * s.s.s.s.s.s.s.s.s.s.s.s.s.s.s.s.s.s.s.",
"s.s.s.s.s.s.s.s.s.s.s.s.s.s.s.s.s.s.s.s.s.s.s.s.s.s.s.s.s.s.s.s.s.s.s.s.s.s.s.s.s.s.s.s.s.s.s.s."
};
