/* XPM */
static char *_6[] = {
/* columns rows colors chars-per-pixel */
"48 48 107 2 ",
"   c #1E1D1D",
".  c #370F07",
"X  c #2C1C1B",
"o  c #2F2F2F",
"O  c #323232",
"+  c #3D3D3D",
"@  c #6A1702",
"#  c #751600",
"$  c #7B1704",
"%  c #7A1901",
"&  c #5A251F",
"*  c #652317",
"=  c #65251C",
"-  c #6D261A",
";  c #68291B",
":  c #762A1A",
">  c #582A24",
",  c #552B28",
"<  c #5F302B",
"1  c #423C3B",
"2  c #523734",
"3  c #6F2F26",
"4  c #722C20",
"5  c #7F3B2D",
"6  c #643631",
"7  c #444444",
"8  c #4B4B4B",
"9  c #535353",
"0  c #5B5B5B",
"q  c #644A46",
"w  c #6C4A41",
"e  c #604F4D",
"r  c #6F534C",
"t  c #6C5A56",
"y  c #605F5F",
"u  c #7A5853",
"i  c #735C58",
"p  c #7F5F5B",
"a  c #646464",
"s  c #6F6766",
"d  c #6C6C6C",
"f  c #726D6C",
"g  c #747474",
"h  c #787575",
"j  c #7C7877",
"k  c #7C7C7C",
"l  c #8E1C0E",
"z  c #901B04",
"x  c #AA1F06",
"c  c #912D1C",
"v  c #87341D",
"b  c #89331C",
"n  c #B22E0D",
"m  c #AA2D14",
"M  c #A42F1D",
"N  c #A73519",
"B  c #B63415",
"V  c #8F3D2D",
"C  c #903F31",
"Z  c #904337",
"A  c #914639",
"S  c #924B3F",
"D  c #A04839",
"F  c #8D4F45",
"G  c #865951",
"H  c #8C5C52",
"J  c #AD5942",
"K  c #A45849",
"L  c #B55E48",
"P  c #A45A52",
"I  c #8D645D",
"U  c #866B66",
"Y  c #826F6D",
"T  c #9B6C63",
"R  c #8D706A",
"E  c #9E766F",
"W  c #A17F7A",
"Q  c #A4857F",
"!  c #7F8182",
"~  c #858585",
"^  c #8C8C8B",
"/  c #9C8582",
"(  c #998B87",
")  c #918D8D",
"_  c #939393",
"`  c #989897",
"'  c #9B9B9B",
"]  c #A58B86",
"[  c #B0908B",
"{  c #A99490",
"}  c #A99D99",
"|  c #B09891",
" . c #A6A09E",
".. c #A4A4A4",
"X. c #ADA6A5",
"o. c #A7A9AA",
"O. c #ABABAB",
"+. c #B0A5A3",
"@. c #B4ACAB",
"#. c #B4B4B4",
"$. c #B9B5B4",
"%. c #BCBCBC",
"&. c #BEC0C0",
"*. c #C3C4C4",
"=. c #CBCBCB",
"-. c #CED0D0",
";. c None",
/* pixels */
";.;.;.;.;.;.;.;.;.;.;.;.;.;.;.;.;.;.;.;.;.;.;.;.;.;.;.;.;.;.;.;.;.;.;.;.;.;.;.;.;.;.;.;.;.;.;.;.",
";.;.;.;.;.;.;.;.;.;.;.;.;.;.;.;.;.;.;.;.;.;.;.;.;.;.;.;.;.;.;.;.;.;.;.;.;.;.;.;.;.;.;.;.;.;.;.;.",
";.;.;.;.;.;.;.;.;.;.;.;.;.;.;.;.;.;.;.;.;.;.;.;.;.;.;.;.;.;.;.;.;.;.;.;.;.;.;.;.;.;.;.;.;.;.;.;.",
";.;.;.;.;.;.;.;.;.;.;.;.;.;.;.~ 8 ;.;.;.;.;.;.;.;.;.;.;.;.;.;.;.;.;.;.;.;.;.;.;.;.;.;.;.;.;.;.;.",
";.;.;.;.;.;.;.;.;.;.;.;.;.;.;.;.O 8 7 ;.;.;.;.;.;.;.;.;.;.;.;.;.;.;.;.;.;.;.;.;.;.;.;.;.;.;.;.;.",
";.;.;.;.;.;.;.;.;.;.;.;.;.;.;.;.;.;.+ 8 7 ;.;.;.;.;.;.;.;.;.;.;.;.;.;.;.;.;.;.;.;.;.;.;.;.;.;.;.",
";.;.;.;.;.;.;.;.;.;.;.;.;.;.;.;.;.;.;.;.+ 7 + ;.;.;.;.;.;.;.;.;.;.;.;.;.;.;.;.;.;.;.;.;.;.;.;.;.",
";.;.;.;.;.;.;.;.;.;.;.;.;.;.;.;.;.;.;.;.;.;.7 7 ;.;.;.;.;.;.;.;.;.;.;.;.;.;.;.;.;.;.;.;.;.;.;.;.",
";.;.;.;.;.;.;.;.;.;.;.;.;.;.;.;.;.;.;.;.;.;.;.;.8 ` 8 ;.;.;.;.;.;.;.;.;.;.;.;.;.;.;.;.;.;.;.;.;.",
";.;.;.;.;.;.;.;.;.;.;.;.;.;.;.;.;.;.;.;.;.;.;.;.O._ + 7 ;.;.;.;.;.;.;.;.;.;.;.;.;.;.;.;.;.;.;.;.",
";.;.;.;.;.;.;.: z ;.;.;.;.;.;.;.;.;.;.;.;.;.;...O.;.;.;.7 7 ;.;.;.;.;.;.;.;.;.;.;.;.;.;.;.;.;.;.",
";.;.;.;.;.;.) +.G D m x $ X ;.;.;.;.;.;.;.;.' %.a ;.;.;.;.O k ~ ;.;.;.;.;.;.;.;.;.;.;.;.;.;.;.;.",
";.;.;.;.;.= @.O.o.*.X.u 2 4 * ;.;.;.;.;.;._ =.~ ;.;.;.;.;.k %.0 7 7 ;.;.;.;.;.;.;.;.;.;.;.;.9 8 ",
";.;.;.;.;.H %._ *.=.#.k ! T c 1 ;.;.;.;.^ =.` ;.;.;.;.;.g %.k ;.;.;.9 7 ;.;.;.;.;.;.;.;.;.d %.%.",
";.;.;.;.- X.....=.=.^ k O.*.Y 1 ;.;.;.~ =.#.9 ;.;.;.;.d *.` ;.;.;.;.;.0 ' 9 ;.;.;.;.;.;.d #.=...",
";.;.;.;.I &._ *.=.#.k d &.-.*.d ;.;.~ *.*.d ;.;.;.;.a %.#.;.;.;.;.;.;.O._ 7 9 7 ;.;.;.a $.=..._ ",
";.;.;.4 @...O.=.=.~ k ) ^ &.=.g g 0 O.=.^ ;.;.;.;.0 $.*.d ;.;.;.;.;.o.O.;.;.;.8 9 ;.0 $.=.$._ ` ",
";.;.. R %._ *.=.O.k ^ =.#.~ ` ~ =.$.^ ! ;.;.;.;.9 O.=.~ ;.;.;.;.;.' %.a ;.;.;.;.;.0 #.=.*._ ..8 ",
";.;.f &.` O.=.*.~ ! #.=.=.#.9 ) *.=.=.O.g ;.;.;.O.=...;.;.;.;.;.` =.! ;.;.;.;.;.0 #.=.=.` ..d ;.",
";.;.r  ._ =.=.o.k _ =.=.=...~ O._ O.*.=.=...a j *.%.0 ;.;.;.;._ =.' ;.;.g g ;.9 O.=.=...' ~ 8 0 ",
";.;.@ v ( =.*.~ d ' *.=.*.k $.-.*..._ O.=.=.*...~ y ;.;.;.;.~ =.#.8 ;.~ *.&.g O.=.=.$._ ..;.0 d ",
";.;.;.% N Q ..~ ~ ` ^ ) k k =.=.=.=.%..._ #.=.=.*.` 0 ;.;.~ *.*.a + ` =.*.~ O.=.=.*._ O.a ;.;.;.",
";.;.;.;.$ n w g %.-.=.#.a ~ ` %.=.=.=.=.%.' ` $.=.=.*._ 9 ' =.k 7 O.=.&.k g %.=.=.` ..k ;.;.;.;.",
";.;.;.;.;.# ; 6 P ( O.) _ =...~ ' *.=.=.=.=.%.` ` %.=.=.%._ k y #.=.%.g o.#.~ _ %.O.g ;.;.;.;.;.",
";.;.;.;.;.;.;.> l , + O _ *.=.*...~ ..*.=.=.=.=.$.` ' *.=.=.$.&.=.%.d b L [ $.O.~ ~ 8 ;.;.;.;.;.",
";.;.;.;.;.;.;.;.;.;.;.;.7 ~ ..=.=.*.' ~ ..*.=.=.=.=.` o.=.=.=.=.&.k O.| J B 5 f ~ 0 ;.;.;.;.;.;.",
";.;.;.;.;.;.;.;.;.;.;.;.k *.^ a ..=.=.&.` ~ o.=.=.=.#.` =.=.=.=./ G =.=.*.} t > ) ..7 ;.;.;.;.;.",
";.;.;.;.;.;.;.;.;.;.;.;.) =.` ;.;.g O.=.=.%._ ^ #.$.^ ' =.=.=.&.Z / =.=.=.=.&.f ~ d   ;.;.;.;.;.",
";.;.;.;.;.;.;.;.;.;.;.;.O.*.d ;.;.;.a ^ #.=.=.$._ ^ O.=.=.=.=.W Z %.=.=.=.=.` ..$.8 ;.;.;.;.;.;.",
";.;.;.;.;.;.;.;.;.;.;.9 %.#.;.;.;.;...%.d k $.=.=.=.=.=.=.=.$.C ] =.=.=.=.*.~ *.g ;.;.;.;.;.;.;.",
"g 9 ;.;.;.;.;.;.;.;.;.g =.~ ;.;.;.;.%.*.a ;.8 ~ %.=.=.=.=.=.E F *.=.=.=.=._ ..O.7 ;.;.;.;.;.;.;.",
"a 9 7 ;.;.;.;.;.;.;.;.^ *.a ;.;.;.g *.O.;.;.;.+ k ..*.=.=.@.V { =.=.=.=.%.~ *.d + ;.;.;.;.;.;.;.",
";.;.;.8 7 ;.;.;.;.;.;.O...;.;.;.;.^ =.~ ;.;.;.g *.` ~ =.=.U H *.=.=.=.=._ #.' ;.;.;.;.;.;.;.;.;.",
";.;.;.;.+ 8 7 ;.;.;.;.%.~ ;.;.;.;...%.9 ;.;.;.) -._ k =.#.k %.=.=.=.=.#.~ &.g 9 ;.;.;.;.;.;.;.;.",
";.;.;.;.;.;.+ 7 + ;.d $.9 ;.;.;.;.%.' ;.;.;.;...=.a ~ =.' ` -.=.=.=.=.~ @.' ;.;.;.;.;.;.;.;.;.;.",
";.;.;.;.;.;.;.;.7 + ~ ..;.;.;.;.a *.k ;.;.;.;.%.#.O ' -.k 3 ] &.=.=.#.~ *.0 ;.;.;.;.;.;.;.;.;.;.",
";.;.;.;.;.;.;.;.;.;._ d ;.;.;.;.~ %.;.;.;.;.d *.) ;...=.k F m K X.=.~ $._ 8 ;.;.;.;.;.;.;.;.;.;.",
";.;.;.;.;.;.;.;.;.;.;.O 7 7 ;.;..._ ;.;.;.;.~ *.a ;.O.*.~ &.Q M < i ~ %.0 ;.;.;.;.;.;.;.;.;.;.;.",
";.;.;.;.;.;.;.;.;.;.;.;.;.;.7 7 #.d ;.;.;.;...O.;.;.$.%.g ^ $.O.e q ! ` ;.;.;.;.;.;.;.;.;.;.;.;.",
";.;.;.;.;.;.;.;.;.;.;.;.;.;.;.9 ` 7 ;.;.;.;.%.~ ;.;.%.#.` #.^ _ ..) ' 9 ;.;.;.;.;.;.;.;.;.;.;.;.",
";.;.;.;.;.;.;.;.;.;.;.;.;.;.;.;.+ ;.8 8 ;.d %.9 ;.;.g ~ ..=.=.O.~ a g ;.;.;.;.;.;.;.;.;.;.;.;.;.",
";.;.;.;.;.;.;.;.;.;.;.;.;.;.;.;.;.;.;.;.8 ~ ' ;.;.;.;.+ O.=.=...` 8 ;.;.;.;.;.;.;.;.;.;.;.;.;.;.",
";.;.;.;.;.;.;.;.;.;.;.;.;.;.;.;.;.;.;.;.;.~ d + ;.;.;.;.$.=.%._ ~ ;.;.;.;.;.;.;.;.;.;.;.;.;.;.;.",
";.;.;.;.;.;.;.;.;.;.;.;.;.;.;.;.;.;.;.;.;.;.;.8 9 7 ;.0 &.=.....k ;.;.;.;.;.;.;.;.;.;.;.;.;.;.;.",
";.;.;.;.;.;.;.;.;.;.;.;.;.;.;.;.;.;.;.;.;.;.;.;.;.8 9 a *.=._ O.;.;.;.;.;.;.;.;.;.;.;.;.;.;.;.;.",
";.;.;.;.;.;.;.;.;.;.;.;.;.;.;.;.;.;.;.;.;.;.;.;.;.;.;.g =.%._ ~ ;.;.;.;.;.;.;.;.;.;.;.;.;.;.;.;.",
";.;.;.;.;.;.;.;.;.;.;.;.;.;.;.;.;.;.;.;.;.;.;.;.;.;.;.~ =.....8 ;.;.;.;.;.;.;.;.;.;.;.;.;.;.;.;.",
";.;.;.;.;.;.;.;.;.;.;.;.;.;.;.;.;.;.;.;.;.;.;.;.;.;.;._ =._ ^ 8 k ;.;.;.;.;.;.;.;.;.;.;.;.;.;.;."
};
