/* XPM */
static char *_2[] = {
/* columns rows colors chars-per-pixel */
"48 48 111 2 ",
"   c #281412",
".  c #311F1C",
"X  c #2E2E2E",
"o  c #392E2D",
"O  c #333333",
"+  c #3D3636",
"@  c #3D3C3C",
"#  c #411E18",
"$  c #601609",
"%  c #671B0B",
"&  c #7F1700",
"*  c #5D221A",
"=  c #62251C",
"-  c #74231C",
";  c #562821",
":  c #512F2C",
">  c #593733",
",  c #702D21",
"<  c #773422",
"1  c #7C3829",
"2  c #653F39",
"3  c #793B31",
"4  c #5D423D",
"5  c #434343",
"6  c #4D4343",
"7  c #4B4B4B",
"8  c #564543",
"9  c #5B4441",
"0  c #574D4C",
"q  c #50504F",
"w  c #5F504E",
"e  c #535353",
"r  c #5B5B5B",
"t  c #754B46",
"y  c #7F4D45",
"u  c #6F524C",
"i  c #7F5B52",
"p  c #71615E",
"a  c #636363",
"s  c #6F6360",
"d  c #6B6B6B",
"f  c #716968",
"g  c #7C6D69",
"h  c #737373",
"j  c #7A7170",
"k  c #7B7B7B",
"l  c #A31D09",
"z  c #8F2206",
"x  c #8E2314",
"c  c #952C19",
"v  c #AF2806",
"b  c #AA260F",
"n  c #A32B16",
"m  c #A4331C",
"M  c #B73618",
"N  c #B63E1D",
"B  c #833C2A",
"V  c #8E3B2D",
"C  c #933F2F",
"Z  c #A93F2C",
"A  c #93402F",
"S  c #8E4135",
"D  c #91473A",
"F  c #A5422A",
"G  c #A14C33",
"H  c #934F43",
"J  c #92574A",
"K  c #A45D4B",
"L  c #8D625B",
"P  c #986057",
"I  c #8B6864",
"U  c #9B6B62",
"Y  c #807674",
"T  c #9E7972",
"R  c #A27971",
"E  c #A58076",
"W  c #A2807A",
"Q  c #7F8081",
"!  c #848484",
"~  c #8B8B8B",
"^  c #958E8C",
"/  c #9D8F8D",
"(  c #949494",
")  c #989594",
"_  c #989897",
"`  c #979898",
"'  c #9C9C9C",
"]  c #A18583",
"[  c #A68B86",
"{  c #A48D89",
"}  c #AB918A",
"|  c #AA9592",
" . c #AA9B99",
".. c #B69992",
"X. c #A0A09F",
"o. c #A4A4A4",
"O. c #ABABAB",
"+. c #B2A7A6",
"@. c #B4ACAB",
"#. c #B5B0AF",
"$. c #B4B3B3",
"%. c #B9B6B5",
"&. c #B6B9B9",
"*. c #BBBBBB",
"=. c #C4C4C4",
"-. c #C4C7C8",
";. c #C7C9C9",
":. c #CBCBCB",
">. c #CED0D0",
",. c #D0D0D0",
"<. c None",
/* pixels */
"<.<.<.<.<.<.<.<.<.<.<.<.<.<.<.<.<.<.<.<.<.<.<.<.<.<.<.<.<.<.<.<.<.<.<.<.<.<.<.<.<.<.<.<.<.<.<.<.",
"<.<.<.<.<.<.<.<.<.<.<.<.<.<.<.<.<.<.<.<.<.<.<.<.<.<.<.<.<.<.<.<.<.<.<.<.<.<.<.<.<.<.<.<.<.<.<.<.",
"<.<.<.<.<.<.<.<.<.<.<.<.<.<.<.<.<.<.<.<.<.<.<.<.<.<.<.<.<.<.<.<.<.<.<.<.<.<.<.<.<.<.<.<.<.<.<.<.",
"<.<.<.<.<.<.<.<.<.<.<.<.<.<.<.<.<.<.<.<.<.<.<.<.<.<.<.<.<.<.<.<.<.<.<.<.<.<.<.<.<.<.<.<.<.<.<.<.",
"<.<.<.<.<.<.<.<.<.<.<.<.<.<.<.<.<.<.<.<.<.<.<.<.<.<.<.<.<.<.<.<.<.<.<.<.<.<.<.<.<.<.<.<.<.<.<.<.",
"<.<.<.<.<.<.<.<.<.<.7 ! 5 <.<.<.<.<.<.<.<.<.<.<.<.<.<.<.<.<.<.<.<.<.<.<.<.<.<.<.<.<.<.<.<.<.<.<.",
"<.<.<.<.<.<.<.<.<.<.<.<.<.5 7 7 @ <.<.<.<.<.<.<.<.<.<.<.<.<.<.<.<.<.<.<.<.<.<.<.<.<.<.<.<.<.<.<.",
"<.<.<.<.<.<.<.<.<.<.<.<.<.<.<.<.@ 5 7 5 <.<.<.<.<.<.<.<.<.<.<.<.<.<.<.<.<.<.<.<.<.<.<.<.<.<.<.<.",
"<.<.<.<.<.<.<.<.<.<.<.<.<.<.<.<.<.<.<.<.@ e ( @ <.<.<.<.<.<.<.<.<.<.<.<.<.<.<.<.<.<.<.h ' ~ e <.",
"<.<.<.<.<.<.<.<.<.<.<.<.<.<.<.<.<.<.<.<.<.o.~ O 5 5 5 <.e <.<.<.<.<.<.<.<.<.<.<.<.<.e &.=.O.k <.",
"<.<.<.<.<.<.<.<.<.<.<.<.<.<.<.<.<.<.<.<.h *.r <.<.<.O a o.@ @ <.<.<.<.<.<.<.<.<.<.<.) :.o.~ 5 <.",
"<.<.<.<.<.<.<.<.<.<.<.<.<.<.<.<.<.<.<.<.$.' <.<.<.<.<.O.! <.5 e e 5 d <.<.<.<.<.<.h =.=.( ( <.<.",
"<.<.<.<.<.<.<.<.<.<.<.<.<.<.<.<.<.<.<.~ =.a <.<.<.<.! &.e <.<.<.<.k o.7 q 5 <.<.<.$.:.O.' d <.<.",
"<.<.<.<.<.<.<.<.<.<.<.<.<.<.<.<.<.<.r *.O.<.<.<.<.0 &.( <.<.<.<.<.$.k <.<.7 e @ ! :.=.( X.<.<.<.",
"<.<.<.<.4 A c n b l * * # <.<.<.<.<.' ;.h <.<.<.<.( =.a <.<.<.<.( $.<.<.<.<.<.r *.:.O.X.h @ <.<.",
"<.<.<.o O.O.^ @. .p e C c @ <.<.<.f ;.O.<.<.<.<.a =.' <.<.<.<.a =.! <.<.<.<.<.O.:.-.( O.5 k e <.",
"<.<.<.= @.o.$.>.*.k ~ %.I 6 <.<.<.O.:.! <.<.<.<.o.=.d <.<.<.<.o.&.<.<.7 q <.k ;.:.$._ ^ <.<.<.<.",
"<.<.<.3 &.( =.:.O.k X.,.;.( O <.k :.&.<.<.<.<.k ;.O.<.<.<.<.k ;.( <.<.O.&.d &.:.:._ O.r <.<.<.<.",
"<.<.<.L *._ ;.:.( d Q &.:.&.d ' ~ ~ h <.<.<.<.$.:.k <.<.<.<.$.*.a <.' :.X.' :.:.&.) ' <.<.<.<.<.",
"<.<.$ { O.o.:.=.! ! O.~ ' ( ( >.;.&.o.! a <.h =.$.<.<.<.<.~ :. .<.~ ;.&.a O.=.:.&.! r <.<.<.<.<.",
"<.<., $.) &.:.$.k ( :.=.X.r ! $.=.;.:.:.=.@.' ~ d <.<.<.a *.;.r d =.-.~ X.) ~ ( o.' <.<.<.<.<.<.",
"<.<.H *.( =.:.' k o.:.:.=.k #.o._ _ O.%.;.:.:.;.&.o.! r d O.` e *.>.~ J ..+.$.O.! @ <.<.<.<.<.<.",
"<.X ^ $.' :.;.~ Q *.:.:.O.~ :.:.;.*.O.' ) ' $.*.:.:.:.=.#.' k O.>.%.p D N M 1 8 ! o.e <.<.<.<.<.",
"<.e $.' @.:.*.k k $.&.=.! X.>.:.:.:.:.:.=.&.o.) _ O.&.;.:.:.;.:.;.Y %.=.@.} j 2 f k @ <.<.<.<.<.",
"<.<.B i #.:.O.k k ) ( ~ e ! _ #.=.;.:.:.:.:.:.;.*.O.( ' :.;.;.:.%.t *.>.:.:.:.~ X.( O <.<.<.<.<.",
"<.<.<.z F E ~ Q &.,.>.&.Q *.O.( ~ ( o.*.;.:.:.;.:.:.=.~ =.:.:.:.| S *.:.:.:.=.! =.a <.<.<.<.<.<.",
"<.<.<.<.& v < 0 T ] ( k ! ;.:.:.=.&.' ~ ~ ' #.=.:.:.;.! %.:.:.:.U P ;.:.:.:.$.( &.5 <.<.<.<.<.<.",
"<.<.<.<.<.<.% : l - + <.<.h ( O.*.;.,.:.*.o.( ~ ( O.^ ' ;.;.;.=.D [ :.;.;.:. .O.' 7 <.<.<.<.<.<.",
"<.<.<.<.<.<.<.<.  <.<.<.<.~ &.k 7 k _ $.=.:.>.=.$.o.@.:.;.:.:.+.C @.:.:.:.;.~ *.k <.<.<.<.<.<.<.",
"<.<.<.<.<.<.<.<.<.<.<.<.<.) :.( <.<.<.a ~ ^ o.*.;.>.:.;.:.:.:.W H =.:.;.:.*.~ *.r <.<.<.<.<.<.<.",
"<.<.<.<.<.<.<.<.<.<.<.<.<.) :.k <.<.<.~ ;.~ <.r k ( &.;.:.;.;.J R ;.:.;.:.O.' O.r 5 <.<.<.<.<.<.",
"<.<.<.<.<.<.<.<.<.<.<.<.<.' ;.d <.<.<.^ ,.~ <.<.<.a ) ~ @.:.&.u #.:.:.:.:.~ $.( <.<.<.<.<.<.<.<.",
"<.<.<.<.<.<.<.<.<.<.<.<.<.' *.r <.<.<.( :.Q <.<.<.( :.~ ! ,.o.' >.;.:.:.=.! *.d <.<.<.<.<.<.<.<.",
"<.<.<.<.<.<.<.<.<.<.<.<.<.o.&.<.<.<.<.) ;.d <.<.<.~ ,.k h >.o.j $.=.:.:.$.~ &.e <.<.<.<.<.<.<.<.",
"<.<.<.<.<.<.<.<.<.<.<.<.<.o.O.<.<.<.<.) =.r <.<.<.( :.h d :.o.* m K { &.` O.' <.<.<.<.<.<.<.<.<.",
"<.<.k r <.<.<.<.<.<.<.<.<.o.o.<.<.<.<.' &.<.<.<.<.) =.a a ;.O.! R F x > 9 O.! <.<.<.<.<.<.<.<.<.",
"<.<.<.@ @ 7 7 5 <.<.<.<.<.o.( <.<.<.<.' $.<.<.<.<.' *.e r *.$.! =.&./ w Y ! a <.<.<.<.<.<.<.<.<.",
"<.<.<.<.<.<.<.@ 5 5 5 <.<.O.! <.<.<.<.o.o.<.<.<.<.' &.<.<.&.&.h ~ ~ ' X.! o.+ <.<.<.<.<.<.<.<.<.",
"<.<.<.<.<.<.<.<.<.<.<.5 @ O.a <.<.<.<.o.( <.<.<.<.' O.<.<.$.*.( :.*.O.) a @ <.<.<.<.<.<.<.<.<.<.",
"<.<.<.<.<.<.<.<.<.<.<.<.<.h 5 5 5 5 O o.! <.<.<.<.o.' <.<.f ( ! ;.:.=.) h <.<.<.<.<.<.<.<.<.<.<.",
"<.<.<.<.<.<.<.<.<.<.<.<.<.<.<.<.<.<.@ ' a O <.<.<.o.~ <.<.<.<.d ;.:.O.) a <.<.<.<.<.<.<.<.<.<.<.",
"<.<.<.<.<.<.<.<.<.<.<.<.<.<.<.<.<.<.<.r @ @ 7 e 5 o.k <.<.<.<.d =.:.X.O.d <.<.<.<.<.<.<.<.<.<.<.",
"<.<.<.<.<.<.<.<.<.<.<.<.<.<.<.<.<.<.<.<.<.<.<.<.@ ~ r 7 5 <.<.r *.:.' o.<.<.<.<.<.<.<.<.<.<.<.<.",
"<.<.<.<.<.<.<.<.<.<.<.<.<.<.<.<.<.<.<.<.<.<.<.<.<.<.<.<.7 e 7 e *.:.) ' <.<.<.<.<.<.<.<.<.<.<.<.",
"<.<.<.<.<.<.<.<.<.<.<.<.<.<.<.<.<.<.<.<.<.<.<.<.<.<.<.<.<.<.<.5 &.;.) ~ O <.<.<.<.<.<.<.<.<.<.<.",
"<.<.<.<.<.<.<.<.<.<.<.<.<.<.<.<.<.<.<.<.<.<.<.<.<.<.<.<.<.<.<.<.#.*.( h r d <.<.<.<.<.<.<.<.<.<.",
"<.<.<.<.<.<.<.<.<.<.<.<.<.<.<.<.<.<.<.<.<.<.<.<.<.<.<.<.<.<.<.<.O.&.( d <.<.<.<.<.<.<.<.<.<.<.<.",
"<.<.<.<.<.<.<.<.<.<.<.<.<.<.<.<.<.<.<.<.<.<.<.<.<.<.<.<.<.<.<.<.X.#.( r <.<.<.<.<.<.<.<.<.<.<.<."
};
