/* XPM */
static char *_2[] = {
/* columns rows colors chars-per-pixel */
"48 48 136 2 ",
"   c #1C1C1C",
".  c #3B1814",
"X  c #222222",
"o  c #2E2E2E",
"O  c #382521",
"+  c #2F3030",
"@  c #343435",
"#  c #3B3231",
"$  c #3C3B3B",
"%  c #741E0F",
"&  c #762514",
"*  c #74271C",
"=  c #542A23",
"-  c #53302B",
";  c #5E3029",
":  c #563732",
">  c #593934",
",  c #783128",
"<  c #7E3B2D",
"1  c #6E3930",
"2  c #793B31",
"3  c #6A413D",
"4  c #75463A",
"5  c #7C433A",
"6  c #444444",
"7  c #484747",
"8  c #4B4B4B",
"9  c #4F504F",
"0  c #535353",
"q  c #5C5B5B",
"w  c #664E4B",
"e  c #695552",
"r  c #6E5F5C",
"t  c #715955",
"y  c #7E5953",
"u  c #705C59",
"i  c #5F5F60",
"p  c #646464",
"a  c #676768",
"s  c #6C6B6B",
"d  c #776562",
"f  c #7A6864",
"g  c #706E6F",
"h  c #796D6C",
"j  c #736F70",
"k  c #6F7070",
"l  c #737273",
"z  c #777878",
"x  c #7C7C7C",
"c  c #961702",
"v  c #A61500",
"b  c #B11E05",
"n  c #8B240E",
"m  c #AF2505",
"M  c #A02513",
"N  c #8F3A29",
"B  c #973620",
"V  c #9F3E2A",
"C  c #8E4639",
"Z  c #994533",
"A  c #93493C",
"S  c #9F483A",
"D  c #AA4636",
"F  c #A34D3C",
"G  c #B64F39",
"H  c #B2553D",
"J  c #824E45",
"K  c #935044",
"L  c #995347",
"P  c #93584D",
"I  c #865B53",
"U  c #955C52",
"Y  c #A75E51",
"T  c #95635A",
"R  c #A86358",
"E  c #A0685C",
"W  c #856964",
"Q  c #976E65",
"!  c #93736B",
"~  c #9F756C",
"^  c #807F7F",
"/  c #927671",
"(  c #997B77",
")  c #977F7B",
"_  c #B17363",
"`  c #B17969",
"'  c #A77C75",
"]  c #A48078",
"[  c #807F80",
"{  c #7F8080",
"}  c #848383",
"|  c #888787",
" . c #878889",
".. c #8C8C8C",
"X. c #928784",
"o. c #908F8F",
"O. c #8F8F90",
"+. c #908F90",
"@. c #8F9090",
"#. c #939393",
"$. c #999696",
"%. c #979798",
"&. c #979898",
"*. c #9B9B9C",
"=. c #A68984",
"-. c #A78E8B",
";. c #AA928E",
":. c #A09F9F",
">. c #AE9B98",
",. c #B0A19F",
"<. c #9F9FA0",
"1. c #A09FA0",
"2. c #9FA0A0",
"3. c #A3A3A4",
"4. c #A8A7A7",
"5. c #A7A7A8",
"6. c #A8A7A8",
"7. c #A6A9AA",
"8. c #ACABAC",
"9. c #B2ACAB",
"0. c #AFAFB0",
"q. c #B0AFB0",
"w. c #AFB0B0",
"e. c #B3B3B4",
"r. c #BAB6B5",
"t. c #B7B7B8",
"y. c #B9B7B8",
"u. c #B6B8B8",
"i. c #BBBBBB",
"p. c #BEBFC0",
"a. c #C3C3C4",
"s. c #C7C7C8",
"d. c #C7C9CA",
"f. c #CBCBCC",
"g. c #CECFD0",
"h. c None",
/* pixels */
"h.h.h.h.h.h.h.h.h.h.h.h.h.h.h.h.h.h.h.h.h.h.h.h.h.h.h.h.h.h.h.h.h.h.h.h.h.h.h.h.h.h.h.h.h.h.h.h.",
"h.h.h.h.h.h.h.h.h.h.h.h.h.h.h.h.h.h.h.h.h.h.h.h.h.h.h.h.h.h.h.h.h.h.h.h.h.h.h.h.h.h.h.h.h.h.h.h.",
"h.h.h.h.h.h.h.h.h.h.h.h.h.h.h.h.h.h.h.h.h.h.h.h.h.h.h.h.h.h.h.h.h.h.h.h.h.h.h.h.h.h.h.h.h.h.h.h.",
"h.h.h.h.h.h.h.h.h.h.h.h.h.h.h.h.h.h.h.h.h.h.h.h.h.h.h.h.h.h.h.h.h.h.h.h.h.h.h.h.h.h.h.h.h.h.h.h.",
"h.h.h.h.h.h.h.h.h.h.h.h.h.h.h.h.h.h.h.h.h.h.h.h.h.h.h.h.h.h.h.h.h.h.h.h.h.h.h.h.| 3.&.h.h.h.h.h.",
"h.h.h.h.h.h.h.h.h.h.h.h.h.h.h.h.h.h.h.h.h.h.h.h.h.h.h.h.h.h.h.h.h.h.h.h.h.h.h.#.a.e. .h.h.h.h.h.",
"h.h.h.h.h.h.h.h.h.h.h.h.h.h.h.h.h.h.h.h.h.h.h.h.h.h.h.h.h.h.h.h.h.h.h.h.h.h.h.*.s.&.x h.h.h.h.h.",
"h.h.h.h.h.h.h.h.h.h.h.h.h.h.h.h.h.h.h.h.h.h.h.h.h.h.h.h.h.h.h.h.h.h.h.h.h.h.0 e.a.$.} h.h.h.h.h.",
"h.h.h.h.h.h.h.s p h.h.0 q h.h.h.@ h.o 7 X h.h.h.h.h.h.h.h.h.h.h.h.h.h.h.h.h.x s.e.%.#.h.h.h.h.h.",
"h.h.h.h.h.h.h.h.h.h.h.@ $ @ o o @ @ s ..@ @ $ @ 6 } $ o $ 6 o h.8   h.h.h.h.4.f.6.*.h.h.h.h.h.h.",
"h.h.h.h.h.h.h.h.h.h.h.h.h.h.h.h.h.h.3.} h.h.X X p 3.$ @ @ $ 8 3.q 6 7 7 6 0 i.f.*.*.0 l h.h.h.h.",
"h.h.h.h.h.h.h.h.h.h.h.h.h.h.h.h.h.h.0.a h.h.h.h.#.3.h.h.h.h.x 4.0 h.h.h.o } f.s.&.3.8 a h.h.h.h.",
"h.h.h.h.h.h.h.h.h.h.h.h.h.h.h.h.h.%.e.h.h.h.h.h.w.} h.h.h.h.&.%.h.h.h.h.h.8.f.i.&.&.h.h.h.h.h.h.",
"h.h.h.h.h.h.h.h.h.h.h.h.h.h.h.h.h.*.e.h.h.h.h.l i.l h.h.h.h.w.#.h.h.h.h.} p.f.8.*.} h.h.h.h.h.h.",
"h.h.h.h.h.h.h.h.h.h.h.h.h.h.h.h.g i.%.h.h.h.h.&.u.h.h.h.h.a i.h.h.h.o.x &.f.f.3.3.z h.h.h.h.h.h.",
"h.h.h.h.h.h.h.h.h.h.h.h.h.h.h.h.x s...h.h.h.q e.8.h.h.h.h.&.i.h.h.o.s.o.e.f.f.%.} h.h.h.h.h.h.h.",
"h.h.h.h.h.h.h.h.h.h.h.h.h.h.h.h.4.a.h.h.h.h.^ a.%.h.h.h.h.e.8.$ q y.i.} i.a.s.e...h.h.h.h.h.h.h.",
"h.h.h.h.h.v c b % = & > h.h.h.h.i.e.h.h.h.h.&.f.k h.h.h.| a.3.h.#.f.&.z O.O.#.+.q h.h.h.h.h.h.h.",
"h.h.h.< N S Y U w t F 1 h.h.h.| f.*.h.h.h.h.e.a.a h.h.h.#.f.} p i.a.| 9.e.9.6...z q h.h.h.h.h.h.",
"h.h.r 9.#.0.s.7.x :.i.*.s h.h.} q.l   h.h.} i.6.h.h.h.h.e.f.q } f.3.4 H G Z : e *.a h.h.h.h.h.h.",
"h.h.3 y.*.i.g.5.x 3.f.g.e.k *.*.*.| x x x x o.x 0 h.h.q $.%.a e.s.X.! ` _ Q f e | a h.h.h.h.h.h.",
"h.h., 9.*.i.g.3.z x 1.i.8.} d.g.f.f.f.f.s.a.a.i.y.e.8.3.3.&.6.f.e.^ a.f.d.d.a...e.l h.h.h.h.h.h.",
"h.h.2 e.&.a.g.*.x *.4.%.^ a 3.6.8.8.e.e.i.i.a.s.s.f.f.g.g.f.f.f.9.I i.f.f.f.a.#.i.l h.h.h.h.h.h.",
"h.h.5 y.%.a.f.&.x e.f.s.<.x q.6.6.4.3.*.*.&.&.&.&.&.&.8.f.f.f.f.4.C e.f.f.f.i...t.p h.h.h.h.h.h.",
"h.h.J r.$.a.f.#.} e.f.g.6.#.g.f.f.f.f.f.d.s.s.a.a.i.e.o.y.f.s.f.>.C y.f.f.f.i.#.e.q h.h.h.h.h.h.",
"h.h.I e.$.s.s.#.} i.f.f.1.#.f.f.f.f.f.f.f.f.f.f.f.f.f.4.%.f.f.f.;.A i.f.f.f.e.#.8.9 h.h.h.h.h.h.",
"h.h.W e.$.s.a...x 8.8.3.z l *.<.3.4.6.9.e.y.i.a.a.s.p.#.4.f.f.f.=.K p.f.f.f.9.$.8.q h.h.h.h.h.h.",
"h.h.+.i.*.f.s...z ..:.6.^ ..9.6.4.:.:.&.#.#.#...o.#.o.:.s.s.f.f.' P a.f.f.f.6.&.4.8 h.h.h.h.h.h.",
"h.h.u ( X.i.p...| a.g.f.| 3.f.f.f.f.f.f.f.s.s.s.a.i.i.f.f.f.f.s.~ T s.f.f.f.3.2.3.h.h.h.h.h.h.h.",
"h.h.h.n B F T r l -.( l 6 0 x #.....%.:.4.6.8.e.e.i.a.s.s.f.f.d.W ) f.f.f.f.*.4.&.8 h.h.h.h.h.h.",
"h.h.h.h.h.h.m & - M * # h.h.l i.&.h.h.h.s %...q h.h.a } %.%.a.s.} e.f.f.f.f.&.8.#.8 h.h.h.h.h.h.",
"h.h.h.h.h.h.h.h.O . h.h.h.h.} s.6.h.h.h.p e.a.h.h.h.h.3.i.s 3.f.#.$.9.i.p.f.#.w...h.h.h.h.h.h.h.",
"h.h.h.h.h.h.h.h.h.h.h.h.h.h.h.i.e.h.h.h.h.6.a.a h.h.h.3.f.s x f.*.; Z D L d e $.| h.h.h.h.h.h.h.",
"h.h.h.h.h.h.h.h.h.h.h.h.h.h.h.e.u.h.h.h.h.*.a.p h.h.h...f.} l p.e.h ' R A : w ..s h.h.h.h.h.h.h.",
"h.h.h.h.h.h.h.h.h.h.h.h.h.h.h.3.i.h.h.h.h.#.a.} h.h.h.} s.%.h.e.s...6.e.w.4.} %.a h.h.h.h.h.h.h.",
"h.h.h.h.h.h.h.h.h.h.h.h.h.h.h...i.h.h.h.h.a p.*.h.h.h.a i.#.h...f...^ #...#.| q h.h.h.h.h.h.h.h.",
"h.h.h.h.h.h.h.h.h.h.h.h.h.h.h.s i.h.h.h.h.q i.} h.h.h.p e.*.h.l p.8.*.f.s.i.3.s h.h.h.h.h.h.h.h.",
"h.h.h.h.h.h.h.h.h.h.h.h.h.h.h.l u.@.h.h.h.8 8...h.h.h.h.3.6.h.h.&.8...s.f.e...a h.h.h.h.h.h.h.h.",
"h.h.h.h.h.h.h.h.h.h.h.h.h.h.h.h.8.l h.h.h.h.2.&.h.h.h.h.#.5.h.h.h.h.a e.f.i.*...h.h.h.h.h.h.h.h.",
"h.h.h.h.h.l 0 7 8 8 7 7 h.h.h.h.3.{ h.h.h.h...4.h.h.h.h.z 3.h.h.h.h.h.*.g.p.$.#.h.h.h.h.h.h.h.h.",
"h.h.h.h.h.q 8 7 8 8 8 8 7 8 7 6 | x $ 8 7 $ l &.@ 7 h.h.x 4.0 h.h.h.h...f.p.$.%.h.h.h.h.h.h.h.h.",
"h.h.h.h.h.h.h.h.h.h.h.h.h.h.h.h.h.a h.h.h.8 p  .7 8 0 q q %.8 0 0 0 0 p i.a.$.| 8 h.h.h.h.h.h.h.",
"h.h.h.h.h.h.h.h.h.h.h.h.h.h.h.h.h.h.h.h.h.h.h.h.h.h.h.h.h.h.h.h.h.h.h.8 3.s.&.[ 8 x h.h.h.h.h.h.",
"h.h.h.h.h.h.h.h.h.h.h.h.h.h.h.h.h.h.h.h.h.h.h.h.h.h.h.h.h.h.h.h.h.h.h.h.| s.*.} h.h.h.h.h.h.h.h.",
"h.h.h.h.h.h.h.h.h.h.h.h.h.h.h.h.h.h.h.h.h.h.h.h.h.h.h.h.h.h.h.h.h.h.h.h.x i.*...h.h.h.h.h.h.h.h.",
"h.h.h.h.h.h.h.h.h.h.h.h.h.h.h.h.h.h.h.h.h.h.h.h.h.h.h.h.h.h.h.h.h.h.h.h.h.8.3...h.h.h.h.h.h.h.h.",
"h.h.h.h.h.h.h.h.h.h.h.h.h.h.h.h.h.h.h.h.h.h.h.h.h.h.h.h.h.h.h.h.h.h.h.h.h.$.4.| h.h.h.h.h.h.h.h.",
"h.h.h.h.h.h.h.h.h.h.h.h.h.h.h.h.h.h.h.h.h.h.h.h.h.h.h.h.h.h.h.h.h.h.h.h.h.} 3.a h.h.h.h.h.h.h.h."
};
