/* XPM */
static char *_5[] = {
/* columns rows colors chars-per-pixel */
"48 48 84 1 ",
"  c #050505",
". c #0B0B0B",
"X c #141414",
"o c #1B1B1B",
"O c #242423",
"+ c #2B2B2B",
"@ c #343434",
"# c #3B3B3B",
"$ c #444444",
"% c #41494C",
"& c #4B4B4B",
"* c #4B5356",
"= c #4A5459",
"- c #535353",
"; c #5B5B5B",
": c #585F62",
"> c #5E6364",
", c #54646B",
"< c #5C686E",
"1 c #5F737C",
"2 c #636363",
"3 c #686867",
"4 c #60676A",
"5 c #606A6E",
"6 c #6B6B6B",
"7 c #616C70",
"8 c #696E70",
"9 c #677378",
"0 c #69767C",
"q c #737474",
"w c #7C7C7C",
"e c #7A7F81",
"r c #7D898E",
"t c #73909C",
"y c #7C99A5",
"u c #828282",
"i c #828688",
"p c #80888C",
"a c #8C8C8C",
"s c #8D9192",
"d c #949494",
"f c #969898",
"g c #9C9C9C",
"h c #8A9CA4",
"j c #819FAC",
"k c #8B9FA8",
"l c #82A1AE",
"z c #8AA3AE",
"x c #92A2A9",
"c c #8BA6B1",
"v c #89A8B5",
"b c #89ACBA",
"n c #91A7B0",
"m c #91B0BE",
"M c #A3A3A3",
"N c #A7A8A9",
"B c #ABABAB",
"V c #B2B3B3",
"C c #BBBBBB",
"Z c #93B5C4",
"A c #9DBECD",
"S c #A0B7C0",
"D c #ADC9D5",
"F c #B0CCD9",
"G c #AFD2E1",
"H c #B8DCEB",
"J c #BCE0EF",
"K c #BFE3F2",
"L c #C3C3C3",
"P c #C8C7C7",
"I c #CBCBCB",
"U c #D4D3D3",
"Y c #DBDADA",
"T c #C0E0ED",
"R c #C1E3F1",
"E c #C8E9F7",
"W c #C1E7F8",
"Q c #C1E8F8",
"! c #CBEDFB",
"~ c #E4E4E4",
"^ c #ECECEC",
"/ c #F4F4F4",
"( c #FFFFFF",
") c None",
/* pixels */
"))))))))))))))))))))))))))))))))))))))))))))))))",
"))))))))))))))))))))))))))))))))))))))))))))))))",
"))))))))))))))))))))))))))))))))))))))))))))))))",
")))))))))))))))))))))))))O#$$$#O))))))))))))))))",
"))))))))))))))))))))))$uVY~///~YVw$)))))))))))))",
")))))))))))))))))))o3C^(((((((((((/C3X)$o)))))))",
"))))))))))))))))))&C(((((((((((((((((a#~2)))))))",
"))))))))))))))))Xu/(((((((((((((((((^;U(C.))))))",
")))))))))))))))oM(((((((((((((((((((ug((/-))))))",
"))))))))))))))oV(((((((((((((((((((V6((((V))))))",
"))))))))))))  g(((((((((((((((((((Y;~((((^$)))))",
")))))))))))&$q(((((((((((((((((((/3V((((((d)))))",
")))))))))oaP;~(((((((((((((((((((dw(((((((Yo))))",
"))))))))-P(wx((((((((((((~VawwdPL;^(((((((/-))))",
"))))))Od/(Y-^((((((((((^s%3CIPa@Xa(((((((((d))))",
")))))-I(((dd((((((((((Y>tyV/PgdBPqu/(((((((P))))",
")))Od/(((/;Y(((((((((~<bWzwaBY(((/uu(((((((^#)))",
"))2U(((((Y;/(((((((((qlWF9g^((((((/6C(((((((6)))",
"+g/((((((Vu(((((((((P1JDrU(((((((((U3/((((((d)))",
"w((((((((dM(((((((((imTrY(((((((((((qP((((((C)))",
"6((((((((uV((((((((/5GSB((((((((((((gg((((((Uo))",
"&~((((/YL&P((((((((^<HxU((((((((((((Ca((((((~+))",
"+CIBu;#O).P((((((((^<HhY((((((((((((La((((((/#))",
")o))))))))P((((((((/<GnL((((((((((((Mg((((((/&))",
"))))))))))V(((((((((eZDs((((((((((((qP(((((((-))",
"))))))))))a(((((((((C1KkN/(((((((((Y;/((((((/;))",
"))))))))))3(((((((((/>lKksP^(((((((wV((((((((;))",
"))))))))))#~(((((((((U*DEDh4uMBBBd;;(((((((((;))",
")))))))))) C((((((((((L=lK!cdYIPB$&;g/((((((/-))",
"))))))o#;uu6(((((((((((Yq,yZ0PPa2B(~w3Y(((((/&))",
"))+qgCY/((/6U((((((((((((Ude53wV~((((C;d/(((~+))",
"))q((((((((C6(((((((((((((((((((((((((/u2Y((Yo))",
"))-/(((((((/qB((((((((((((((((((((((((((C;d/P)))",
"))#Y((((((((Y-Y((((((((((((((((((((((((((^q&w)))",
")))M~((((((((C;~(((((((((((((((((((((((((^2) )))",
"))))@2aL~(((((M3~(((((((((((((((((((((((^3))))))",
"))))))))O-uVY/(B2Y(((((((((((((((((((((~;)))))))",
"))))))))))))O&qBa@M/(((((((((((((((((/V@))))))))",
"))))))))))))))))o. -L(((((((((((((((I6o)))))))))",
"))))))))))))))))))))X-N~(((((((((~B3o)))))))))))",
")))))))))))))))))))))))+&wgBVVgq-+))))))))))))))",
"))))))))))))))))))))))))))))))))))))))))))))))))",
"))))))))))))))))))))))))))))))))))))))))))))))))",
"))))))))))))))))))))))))))))))))))))))))))))))))",
"))))))))))))))))))))))))))))))))))))))))))))))))",
"))))))))))))))))))))))))))))))))))))))))))))))))",
"))))))))))))))))))))))))))))))))))))))))))))))))",
"))))))))))))))))))))))))))))))))))))))))))))))))"
};
