/* XPM */
static char *_8[] = {
/* columns rows colors chars-per-pixel */
"48 48 135 2 ",
"   c #1C1905",
".  c #211E06",
"X  c #232107",
"o  c #2A2608",
"O  c #2D2B09",
"+  c #35330B",
"@  c #39360C",
"#  c #3E3B0D",
"$  c #413F0D",
"%  c #45430E",
"&  c #48460F",
"*  c #4C4A10",
"=  c #555312",
"-  c #5A5713",
";  c #5D5B14",
":  c #625E15",
">  c #646215",
",  c #6A6616",
"<  c #6C6816",
"1  c #6E6D18",
"2  c #706D17",
"3  c #726E18",
"4  c #757219",
"5  c #79761A",
"6  c #7D7A1B",
"7  c #717332",
"8  c #7B7830",
"9  c #777E46",
"0  c #817E1C",
"q  c #7E8039",
"w  c #6E8178",
"e  c #778770",
"r  c #778877",
"t  c #768979",
"y  c #85821D",
"u  c #8A861D",
"i  c #8D8A1E",
"p  c #918E1F",
"a  c #94901F",
"s  c #959220",
"d  c #9A9622",
"f  c #9E9A21",
"g  c #848634",
"h  c #8B8C31",
"j  c #898D3D",
"k  c #939332",
"l  c #979A38",
"z  c #9D9F3E",
"x  c #A29E22",
"c  c #A6A224",
"v  c #A9A624",
"b  c #AEAA25",
"n  c #B1AD26",
"m  c #B4AF28",
"M  c #B6B127",
"N  c #B8B427",
"B  c #B3B028",
"V  c #BAB628",
"C  c #BDB92A",
"Z  c #A2A334",
"A  c #A9A934",
"S  c #B7B530",
"D  c #BBBB37",
"F  c #B6B73C",
"G  c #C1BC29",
"H  c #CBC526",
"J  c #C5C12A",
"K  c #C9C52B",
"L  c #CDC92C",
"P  c #D1CD2D",
"I  c #D5D22E",
"U  c #D9D52E",
"Y  c #DDD92E",
"T  c #CDCB33",
"R  c #C7C539",
"E  c #DBD630",
"W  c #DEDB30",
"Q  c #E1DD2F",
"!  c #E2DE31",
"~  c #E6E12C",
"^  c #E8E32D",
"/  c #EDE92F",
"(  c #E5E231",
")  c #EAE632",
"_  c #EDEA34",
"`  c #EEEC38",
"'  c #F1EE34",
"]  c #F5F235",
"[  c #F9F636",
"{  c #FFFB37",
"}  c #FFFE38",
"|  c #868F59",
" . c #8E985D",
".. c #A1A441",
"X. c #A0A34A",
"o. c #A9AC4B",
"O. c #B0B143",
"+. c #B2B550",
"@. c #879465",
"#. c #82926F",
"$. c #98A16E",
"%. c #B2B873",
"&. c #718682",
"*. c #7F9587",
"=. c #7D9494",
"-. c #7B949D",
";. c #889C87",
":. c #849B95",
">. c #839B98",
",. c #90A382",
"<. c #9AA781",
"1. c #96A885",
"2. c #A0AD8C",
"3. c #B0BC84",
"4. c #A8B797",
"5. c #85A1A7",
"6. c #99AFA5",
"7. c #8EAAB2",
"8. c #A0B5A6",
"9. c #A7BEBE",
"0. c #9CB8C2",
"q. c #9BBBCA",
"w. c #AAC2C4",
"e. c #A3C2D1",
"r. c #A3C5DD",
"t. c #A2C4E0",
"y. c #A5C9E1",
"u. c #ACD1E3",
"i. c #ACD1EA",
"p. c #B8D5E6",
"a. c #B2D6EC",
"s. c #BBDBEC",
"d. c #BADCF0",
"f. c #BBE0F2",
"g. c None",
/* pixels */
"g.g.g.g.g.g.g.g.g.g.g.g.g.g.g.g.g.g.g.g.g.g.g.g.g.g.g.g.g.g.g.g.g.g.g.g.g.g.g.g.g.g.g.g.g.g.g.g.",
"g.g.g.g.g.g.g.g.g.g.g.g.g.g.g.g.g.g.g.g.g.g.g.g.g.g.g.g.g.g.g.g.g.g.g.g.g.g.g.g.g.g.g.g.g.g.g.g.",
"g.g.g.g.g.g.g.g.g.g.g.g.g.g.g.g.g.g.g.g.g.g.g.g.g.g.+ g.g.g.g.g.g.g.g.g.g.g.g.g.g.g.g.g.g.g.g.g.",
"g.g.g.g.g.g.g.g.g.g.g.g.g.g.g.g.g.g.g.g.g.g.g.y 6 5 i J B s b p 3 g.+ g.g.g.g.g.g.g.g.g.g.g.g.g.",
"g.g.g.g.g.g.g.g.g.g.g.g.g.g.g.g.g.g.g.+ > i b I [ { { [ { { [ ] ) J v 4 @ x , g.g.g.g.g.g.g.g.g.",
"g.g.g.g.g.g.g.g.g.g.g.g.g.g.g.g.g.g.g.y I } { } { } { { } } { { } { { n x ' n 5 g.g.g.g.g.g.g.g.",
"g.g.g.g.g.g.g.g.g.g.g.g.g.g.g.g.O 4 V ` { { { { { { { { { { { { { } ) f L { ) v g.g.g.g.g.g.g.g.",
"g.g.g.g.g.g.g.g.g.g.g.g.g.g.g.g.i ! { { } { { { { { { } { { { { } { V b { } } I % g.g.g.g.g.g.g.",
"g.g.g.g.g.g.g.g.g.g.g.g.g.g.@ y ~ { { { { { { { { { { { { { { { } ! f ! } } } { s g.g.g.g.g.g.g.",
"g.g.g.g.g.g.g.g.g.g.g.g.g.O f ] { { { { { { { { { { { { { { { { } B N [ { { { } I i g.g.g.g.g.g.",
"g.g.g.g.g.g.g.g.g.g.g.g.g.3 ` { { { { { { { { { { { { { { { { { I c ( { { { { { [ n g.g.g.g.g.g.",
"g.g.g.g.g.g.g.g.g.g.g.  % L } { { { { { { { { { { { { { { { { [ c J { { { { { { { I - g.g.g.g.g.",
"g.g.g.g.g.g.g.g.g.g.4 < b [ { { { { { { { { { } } } ' I K W ) C c ` { { { { { { { ] u o g.g.g.g.",
"g.g.g.g.g.g.g.g.g.p x f ~ } { { { { { { { { { / G x a v B s u 3 v ] { { { { { { { { I $ g.g.g.g.",
"g.g.g.g.g.g.g.g.5 L M m { { { { { { { { { } ] F 9 Z ) ( C f s c b v ( } { { { { { { ] , g.g.g.g.",
"g.g.g.g.g.g.3 G ' [ p W { { { { { { { { } ^ k &.5.z ( L T ( ] } ` C f ) { { { { { { { f g.g.g.g.",
"g.g.g.g.g.% c ` { L x ` { { { { { { { { ] A >.a.q.8 C E ] [ { { } [ V C ) { { { { { } T ; g.g.g.",
"g.g.g.g., C } { } V x { { { { { { { { { L #.u.s.$.D [ { { { { { { } ) C V } { { { { { [ , g.g.g.",
"g.g.g.v I { { { [ d G { { { { { { { { { l 7.s.4.R ] { { { { { { { { } ( f [ { { { { { { u g.g.g.",
"g.g.i W { { { { [ u E { { { { { { } } Y  .r.w.O.{ } { { { { { { { { } ] f W { { { { { { v % g.g.",
", C ] { { { { { ( c L { { { { { { { { ! e d.2.! { { { { { { { { { { { ] V J { { { { { { E % g.g.",
"x { { { { { { { ( s W { { { { { { { } H *.a.%.` { { { { { { { { { { { [ G J { { { { { { ) * g.g.",
"B { { { { { } { [ 6 ) { { { { { { { } J ,.t.3.Y { { { { { { { { { { { { v I { { { { { { ) g.g.g.",
"s { { { { [ I v 1 = I { { { { { { { } W | r.8.J { { { { { { { { { { { ] c E { { { { { { _ B g.g.",
"y ( ` K i > = & g.g.M { { { { { { { { [ g q.e.X.` } } } { { { { { { { I v ` { { { { { { { f g.g.",
"= ; ; * g.g.g.g.g.g.m { { { { { { { { { b ;.y.6.+.W [ { { } } { [ { ] n J { { { { { { { { p g.g.",
"g.g.g.g.g.g.g.g.g.g.M ] { { { { { { { { ~ ..=.p.9.$.o.S I I K P E M 1 > L [ { { { { { { { f + g.",
"g.g.g.g.g.g.g.g.g.g.M E { { { { { { { { [ ~ g -.s.p.w.>.7 M K K V u y s v N W { { { { { ] L g.g.",
"g.g.g.g.g.g.g.g.g.g.g.M } { { { { { { { { } Y h r 0.i.i.1.D Y I V b E { ) V b J ) { { { { v g.g.",
"g.g.g.g.g.g.g.g.g.g.g.p [ { { { { { { { { { } / C j @.t w q c x C ) { { { { ( n v C ` { { d g.g.",
"g.g.g.g.g.g.g.g.g.* * 4 I { { { { { { { { { { { } ] U L P C L ' { } { { { { { { I n x J ) x X g.",
"g.g.g.g.g.% * > i J ) L n _ { { { { { { { { { { { } } { { } } } { { { { { { { { { [ W s < 5 g.g.",
"g.g.g.@ 5 v E ] } [ { ] V N { { { { { { { { { { { { { { { { { { { { { { { { { { { } ` y . g.g.g.",
"g.g.g.5 { { { { { { { { ) x I [ { { { { { { { { { { { { { { { { { { { { { { { { { ' p g.g.g.g.g.",
"g.g.g., ' { { { { { { { { I V T { { { { { { { { { { { { { { { { { { { { { { { { ] J g.g.g.g.g.g.",
"g.g.g.: J { { { { { { { { [ U f L { { { { { { { { { { { { { { { { { { { { } } [ b 3 g.g.g.g.g.g.",
"g.g.g.g.u E ) { ] { { { { { } I c K ' { } { { { { { { { { { { [ { { { { { } E p @ g.g.g.g.g.g.g.",
"g.g.g.g.O 5 : 5 b v B T I W ] [ P N b I [ } { } { { { { { { { [ { { { } [ K c g.g.g.g.g.g.g.g.g.",
"g.g.g.g.g.g.g.g.g.g.g.g.; 5 = u G i y , p T ] [ { { { { { { { } } { W n 5 * g.g.g.g.g.g.g.g.g.g.",
"g.g.g.g.g.g.g.g.g.g.g.g.g.g.g.g.g.g.g.  o # 3 n C W ` ) _ [ _ L v s u g.g.g.g.g.g.g.g.g.g.g.g.g.",
"g.g.g.g.g.g.g.g.g.g.g.g.g.g.g.g.g.g.g.g.g.g.g.g.: 4 > d v > 3 y g.g.g.g.g.g.g.g.g.g.g.g.g.g.g.g.",
"g.g.g.g.g.g.g.g.g.g.g.g.g.g.g.g.g.g.g.g.g.g.g.g.g.g.g.g.g.g.g.g.g.g.g.g.g.g.g.g.g.g.g.g.g.g.g.g.",
"g.g.g.g.g.g.g.g.g.g.g.g.g.g.g.g.g.g.g.g.g.g.g.g.g.g.g.g.g.g.g.g.g.g.g.g.g.g.g.g.g.g.g.g.g.g.g.g.",
"g.g.g.g.g.g.g.g.g.g.g.g.g.g.g.g.g.g.g.g.g.g.g.g.g.g.g.g.g.g.g.g.g.g.g.g.g.g.g.g.g.g.g.g.g.g.g.g.",
"g.g.g.g.g.g.g.g.g.g.g.g.g.g.g.g.g.g.g.g.g.g.g.g.g.g.g.g.g.g.g.g.g.g.g.g.g.g.g.g.g.g.g.g.g.g.g.g.",
"g.g.g.g.g.g.g.g.g.g.g.g.g.g.g.g.g.g.g.g.g.g.g.g.g.g.g.g.g.g.g.g.g.g.g.g.g.g.g.g.g.g.g.g.g.g.g.g.",
"g.g.g.g.g.g.g.g.g.g.g.g.g.g.g.g.g.g.g.g.g.g.g.g.g.g.g.g.g.g.g.g.g.g.g.g.g.g.g.g.g.g.g.g.g.g.g.g.",
"g.g.g.g.g.g.g.g.g.g.g.g.g.g.g.g.g.g.g.g.g.g.g.g.g.g.g.g.g.g.g.g.g.g.g.g.g.g.g.g.g.g.g.g.g.g.g.g."
};
