/* XPM */
static char *_57[] = {
/* columns rows colors chars-per-pixel */
"32 32 123 2 ",
"   c #343434",
".  c #3E3E3E",
"X  c #4C1502",
"o  c #561500",
"O  c #5A1902",
"+  c #651C03",
"@  c #6A1E04",
"#  c #761F01",
"$  c #7D2304",
"%  c #712B13",
"&  c #503E37",
"*  c #653524",
"=  c #434343",
"-  c #4F4F4F",
";  c #575453",
":  c #7D5547",
">  c #7D594D",
",  c #6B5A54",
"<  c #785E55",
"1  c #72605A",
"2  c #7E655C",
"3  c #646464",
"4  c #6E6E6E",
"5  c #797472",
"6  c #7C7C7C",
"7  c #822302",
"8  c #882908",
"9  c #982B05",
"0  c #9B300B",
"q  c #993B1A",
"w  c #A32C03",
"e  c #BA3507",
"r  c #A23611",
"t  c #A03D1A",
"y  c #B33E16",
"u  c #BC3D11",
"i  c #C03607",
"p  c #C73807",
"a  c #CB3907",
"s  c #C23C0E",
"d  c #D33B06",
"f  c #DB3D06",
"g  c #DB3E08",
"h  c #E53E05",
"j  c #954529",
"k  c #8B4A34",
"l  c #8B4E39",
"z  c #984B30",
"x  c #86513E",
"c  c #925039",
"v  c #E34008",
"b  c #EB4208",
"n  c #F54305",
"m  c #FC4606",
"M  c #F24409",
"N  c #FE4709",
"B  c #FF4809",
"V  c #F85907",
"C  c #FF5409",
"Z  c #FF5D09",
"A  c #FB6E06",
"S  c #FF6409",
"D  c #FF6E09",
"F  c #CF562C",
"G  c #CB5B2E",
"H  c #C77E31",
"J  c #C1793D",
"K  c #845443",
"L  c #8C5643",
"P  c #895847",
"I  c #865848",
"U  c #885848",
"Y  c #925641",
"T  c #955C48",
"R  c #8F6252",
"E  c #82685F",
"W  c #8E6A5D",
"Q  c #996654",
"!  c #BF6343",
"~  c #8B7066",
"^  c #90776E",
"/  c #8D7B75",
"(  c #917C75",
")  c #C16341",
"_  c #FF8509",
"`  c #F69B07",
"'  c #FF9409",
"]  c #FF9B09",
"[  c #FAAC07",
"{  c #FFA709",
"}  c #FFAB09",
"|  c #FFB309",
" . c #C68535",
".. c #C08239",
"X. c #94827C",
"o. c #838383",
"O. c #8C8C8C",
"+. c #958680",
"@. c #968A86",
"#. c #9A8882",
"$. c #998D89",
"%. c #939292",
"&. c #9D9491",
"*. c #97999A",
"=. c #9B9B9B",
"-. c #A39B98",
";. c #ABAAA9",
":. c #B7A9A4",
">. c #B8ACA7",
",. c #B9AFAB",
"<. c #B9B1AE",
"1. c #B3B3B3",
"2. c #BBB4B2",
"3. c #BDB8B6",
"4. c #B6B7B8",
"5. c #B7B9B9",
"6. c #BABCBD",
"7. c #BDC0C1",
"8. c #C4C5C6",
"9. c #C5C7C8",
"0. c #C6C8C9",
"q. c #CACBCB",
"w. c None",
/* pixels */
"w.w.w.w.w.w.w.w.w.w.w.w.w.w.w.w.w.w.w.w.w.w.w.w.w.w.w.w.w.w.w.w.",
"w.w.w.w.w.w.w.w.w.w.w.w.w.w.w.w.w.w.w.w.w.w.w.w.w.w.w.w.w.w.w.w.",
"w.w.w.w.w.w.w.w.w.w.w.w.w.w.w.w.w.w.w.w.w.w.w.w.w.w.w.w.w.w.w.w.",
"w.w.w.w.w.w.w.w.w.w.w.w.w.w.w.w.w.w.w.w.w.O $ $ @ w.w.w.w.w.w.w.",
"w.w.w.w.w.w.w.w.w.w.w.w.w.w.w.w.w.w.w.7 i b m m M p + w.w.w.w.w.",
"w.w.w.w.w.w.w.w.w.w.w.w.w.w.w.w.w.w., u B B B N B B g + w.w.w.w.",
"w.w.w.w.w.w.w.w.w.w.w.w.w.w.w.w.w.-.0.^ s N B B B B B e w.w.w.w.",
"w.w.w.w.w.w.w.w.w.w.w.w.w.w.w.w.*.q.q.0.( s N B B B B v w.w.w.w.",
"w.w.w.w.w.w.w.w.w.w.w.w.w.w.w.*.q.q.q.q.0.( u N B B B b @ w.w.w.",
"w.w.w.w.w.w.w.w.w.w.w.w.w.w.%.q.q.q.0.8.0.0.X.y B B B v w.w.w.w.",
"w.w.w.w.w.w.w.w.w.w.w.w.w.%.q.0.q.6.W T L $.q.+.y m B p w.w.w.w.",
"  O.O.3 . w.w.w.w.w.w.w.%.q.q.q.5.x f n h W q.q.@.y m 9 w.w.w.w.",
"*.q.q.9.1.%.4 = w.w.w.O.0.q.q.6.L f N B n R q.q.0.$.q O w.w.w.w.",
"K #.7.q.q.q.0.6.-.= o.q.q.q.6.I f N N B d ~ q.0.q.8.; w.w.w.w.w.",
"o 8 l @.8.q.q.q.O.o.0.q.q.6.: d B B B f P 6.q.0.8.6 w.w.w.w.w.w.",
"w.w.$ 0 c &.0.O.o.0.0.q.6.: d B B B f x 6.q.q.8.6 w.w.w.w.w.w.w.",
"w.w.w.X $ < O./ 8.q.0.6.> a B B B f x 6.q.q.8.o.w.w.w.w.w.w.w.w.",
"w.w.w.w.w.& 5 8.q.0.0.E a B B B v l 4.q.q.q.o.w.w.w.w.w.w.w.w.w.",
"w.w.w.w.w.h ) 6.q.q.8.l n B B h k 5.q.q.0.o.w.w.w.w.w.w.w.w.w.w.",
"w.w.w.w.w.B M ) 3.q.8.l n N h k 1.q.q.0.O.w.w.w.w.w.w.w.w.w.w.w.",
"w.w.w.w.w.B N V J 2.0.2 j z I 1.q.q.q.%.w.w.w.w.w.w.w.w.w.w.w.w.",
"w.w.w.w.w.N B D `  .,.8.7.7.9.q.q.0.o.w.w.w.w.w.w.w.w.w.w.w.w.w.",
"w.w.w.w.w.B B _ | [  .,.q.q.q.q.q.o.- w.w.w.w.w.w.w.w.w.w.w.w.w.",
"w.w.w.w.w.N C ] } | [ H >.q.q.q.O.o.;.w.w.w.w.w.w.w.w.w.w.w.w.w.",
"w.w.w.w.w.N Z ] { ' _ A G :.q.%.o.8.8.3 w.w.w.w.w.w.w.w.w.w.w.w.",
"w.w.w.w.w.B C D S C B B B F / o.8.q.q.O.w.w.w.w.w.w.w.w.w.w.w.w.",
"w.w.w.w.w.w.B N N N N B B N * < / 0.q.1.w.w.w.w.w.w.w.w.w.w.w.w.",
"w.w.w.w.w.w.w.w.w.w.w.w.w.w.w.+ t ;.q.8.3 w.w.w.w.w.w.w.w.w.w.w.",
"w.w.w.w.w.w.w.w.w.w.w.w.w.w.w.w.w Q 8.q.%.w.w.w.w.w.w.w.w.w.w.w.",
"w.w.w.w.w.w.w.w.w.w.w.w.w.w.w.w.O r -.q.5.= w.w.w.w.w.w.w.w.w.w.",
"w.w.w.w.w.w.w.w.w.w.w.w.w.w.w.w.w.7 Y 8.;.  w.w.w.w.w.w.w.w.w.w.",
"w.w.w.w.w.w.w.w.w.w.w.w.w.w.w.w.w.w.% &.- w.w.w.w.w.w.w.w.w.w.w."
};
