/* XPM */
static char *_0[] = {
/* columns rows colors chars-per-pixel */
"32 32 138 2 ",
"   c #292B2B",
".  c #3E2B25",
"X  c #3E2E29",
"o  c #3C3C3C",
"O  c #461201",
"+  c #551701",
"@  c #5E1A03",
"#  c #611700",
"$  c #631A01",
"%  c #6D1D02",
"&  c #42251B",
"*  c #72493B",
"=  c #3F4141",
"-  c #454545",
";  c #4B4B4B",
":  c #535354",
">  c #5D5D5D",
",  c #61534E",
"<  c #656565",
"1  c #6E6E6E",
"2  c #747373",
"3  c #7B7B7B",
"4  c #842403",
"5  c #8B2704",
"6  c #932803",
"7  c #8C3516",
"8  c #84381E",
"9  c #9C3917",
"0  c #933D1F",
"q  c #A32E06",
"w  c #A3340E",
"e  c #B53306",
"r  c #BA390D",
"t  c #AB3710",
"y  c #AF3F17",
"u  c #A33D1A",
"i  c #B53B10",
"p  c #BA3C10",
"a  c #843B22",
"s  c #C73705",
"d  c #CA3906",
"f  c #CC3A08",
"g  c #D23B07",
"h  c #D13D0A",
"j  c #DB3E08",
"k  c #C23E10",
"l  c #E33E05",
"z  c #E83F05",
"x  c #AD431F",
"c  c #BD4014",
"v  c #8F442A",
"b  c #9D4526",
"n  c #96492E",
"m  c #954E36",
"M  c #9C4F34",
"N  c #924F38",
"B  c #8E533E",
"V  c #A04323",
"C  c #DC4C1A",
"Z  c #E64006",
"A  c #EC4105",
"S  c #E54108",
"D  c #E9440B",
"F  c #F44305",
"G  c #FD4607",
"H  c #F14409",
"J  c #FE4708",
"K  c #FF4809",
"L  c #F75C07",
"P  c #F55208",
"I  c #FF5209",
"U  c #FF5B09",
"Y  c #FF6E09",
"T  c #FF7409",
"R  c #C85832",
"E  c #855443",
"W  c #8F5743",
"Q  c #8C5C4B",
"!  c #925B48",
"~  c #93604F",
"^  c #8C6457",
"/  c #84655B",
"(  c #8D675A",
")  c #8A685C",
"_  c #BF6D51",
"`  c #856B62",
"'  c #936F63",
"]  c #857068",
"[  c #92766C",
"{  c #877B77",
"}  c #8A7973",
"|  c #8F7F79",
" . c #EC8D0B",
".. c #FB8606",
"X. c #FF9009",
"o. c #FF9C09",
"O. c #E19216",
"+. c #FEAC06",
"@. c #FFA209",
"#. c #FFAA09",
"$. c #FFB607",
"%. c #FFB408",
"&. c #D18C26",
"*. c #C1853E",
"=. c #B9865A",
"-. c #92817A",
";. c #B8856E",
":. c #B78D78",
">. c #848484",
",. c #8A8481",
"<. c #8D8D8D",
"1. c #988781",
"2. c #988984",
"3. c #9B8E8A",
"4. c #9B918D",
"5. c #949494",
"6. c #999594",
"7. c #9C9C9C",
"8. c #B59B8B",
"9. c #A39E9C",
"0. c #B79D94",
"q. c #A6A19F",
"w. c #A6A5A5",
"e. c #A9A6A5",
"r. c #A9A8A7",
"t. c #ACACAC",
"y. c #B8ABA5",
"u. c #B0AFAF",
"i. c #B9AEAA",
"p. c #B2B3B3",
"a. c #B7BABB",
"s. c #BABABB",
"d. c #BEC2C3",
"f. c #C4C5C5",
"g. c #C4C7C8",
"h. c #C7C9CA",
"j. c #CBCCCC",
"k. c None",
/* pixels */
"k.k.k.k.k.k.k.k.k.k.k.k.k.k.k.k.k.k.k.k.k.k.k.k.k.k.k.k.k.k.k.k.",
"k.k.k.k.k.k.k.k.k.k.k.k.k.K k.k.k.k.k.k.k.k.k.k.k.k.k.k.k.k.k.k.",
"k.k.k.k.k.k.k.k.k.k.k.k.K K K K k.k.k.k.k.k.k.k.k.k.k.k.k.k.k.k.",
"k.k.k.k.k.k.k.k.k.k.k.K K T T K K k.k.k.k.k.k.k.k.k.k.k.k.k.k.k.",
"k.k.k.k.k.k.k.k.k.k.k.K U o.@.Y K K K k.k.k.k.k.k.O $ , k.k.k.k.",
"k.k.k.k.k.k.k.k.k.k.K K Y #.#.o.Y K K K k.k.k.@ 4 7 ^ e.; k.k.k.",
"k.k.k.k.k.k.k.k.k.k.K I X.%.$.+.T P D C a X 6 9 ^ r.h.h.< k.k.k.",
"k.k.k.k.k.k.k.k.k.G G L  .O.&.*.=.:.0.i.2 ,./ e.g.j.j.w.- k.k.k.",
"  . # % $ $ + k.a R _ ;.8.y.s.g.j.j.j.j.>.r.h.j.j.g.<.o k.k.k.k.",
"= { ! m V y w * 2 t.h.j.j.j.6.6.h.j.j.j.5.6.j.j.s.2 k.k.k.k.k.k.",
"k.r.h.f.s.p.q.t.6.7.j.h.h.t.0 t ` a.j.j.w.>.j.t.: k.k.k.k.k.k.k.",
"k.>.f.h.j.j.j.j.t.>.j.j.f.Q z K d ] h.j.a.2 5.o k.k.k.k.k.k.k.k.",
"k.k.> 3 w.s.j.j.a.3 g.j.p.u G K F E f.h.f.: k.k.k.k.k.k.k.k.k.k.",
"k.k.k.k.k.; 2 7.t.2 f.j.f.n G K G v s.j.h.2 k.k.k.k.k.k.k.k.k.k.",
"k.k.k.k.k.k.k.k.- - a.j.h.Q F K G u t.j.j.<.k.k.k.k.k.k.k.k.k.k.",
"k.k.k.k.k.k.k.k.k.k.t.j.j.[ j K K r 6.j.j.9.k.k.k.k.k.k.k.k.k.k.",
"k.k.k.k.k.k.k.k.k.k.q.j.j.4.f K K g | j.j.u.k.k.k.k.k.k.k.k.k.k.",
"k.k.k.k.k.k.k.k.k.k.<.j.j.r.i K K z ) j.j.s.: k.k.k.k.k.k.k.k.k.",
"k.k.k.k.k.k.k.k.k.k.2 j.h.a.x F K F B g.h.g.< k.k.k.k.k.k.k.k.k.",
"k.k.k.k.k.k.k.k.k.k.> f.j.f.m G K K b s.j.j.3 k.k.k.k.k.k.k.k.k.",
"k.k.k.k.k.k.k.k.k.k.; p.j.j.^ A K K y t.j.j.5.k.k.k.k.k.k.k.k.k.",
"k.k.k.k.k.k.k.k.k.k.k.t.j.j.-.f K G b p.j.j.w.k.k.k.k.k.k.k.k.k.",
"k.k.k.k.k.k.k.k.k.k.k.6.j.j.a.) p r 2.j.j.j.p.k.k.k.k.k.k.k.k.k.",
"k.k.k.k.k.k.k.k.k.k.k.>.j.h.j.h.4.} g.j.j.j.d.: k.k.k.k.k.k.k.k.",
"k.k.k.k.k.k.k.k.k.k.k.1 h.j.j.j.h.d.p.9.1.' W & k.k.k.k.k.k.k.k.",
"k.k.k.k.k.k.k.k.k.k.k.: t.r.3.[ ! M x k j z z @ k.k.k.k.k.k.k.k.",
"k.k.k.k.k.k.k.k.k.k.k.k.a c h Z H G G K K K g k.k.k.k.k.k.k.k.k.",
"k.k.k.k.k.k.k.k.k.k.k.k.5 G K K K K K K K K w k.k.k.k.k.k.k.k.k.",
"k.k.k.k.k.k.k.k.k.k.k.k.k.e K K K K K K K S $ k.k.k.k.k.k.k.k.k.",
"k.k.k.k.k.k.k.k.k.k.k.k.k.k.d K K K K K H 5 k.k.k.k.k.k.k.k.k.k.",
"k.k.k.k.k.k.k.k.k.k.k.k.k.k.k.q j D D d 4 k.k.k.k.k.k.k.k.k.k.k.",
"k.k.k.k.k.k.k.k.k.k.k.k.k.k.k.k.k.% @ k.k.k.k.k.k.k.k.k.k.k.k.k."
};
