/* XPM */
static char *_56[] = {
/* columns rows colors chars-per-pixel */
"64 64 158 2 ",
"   c #020200",
".  c #0D0B03",
"X  c #090602",
"o  c #120F04",
"O  c #161405",
"+  c #1C1A05",
"@  c #181605",
"#  c #211E06",
"$  c #242207",
"%  c #252308",
"&  c #282608",
"*  c #2C2A09",
"=  c #312F0A",
"-  c #34310B",
";  c #39360C",
":  c #3D3B0D",
">  c #403D0D",
",  c #44420E",
"<  c #49460F",
"1  c #4C4A10",
"2  c #514F10",
"3  c #555212",
"4  c #595613",
"5  c #5D5913",
"6  c #59541F",
"7  c #635E14",
"8  c #656215",
"9  c #696516",
"0  c #6E6917",
"q  c #736E18",
"w  c #767219",
"e  c #7A751A",
"r  c #7E7A1A",
"t  c #515635",
"y  c #5D633C",
"u  c #5B6237",
"i  c #61652F",
"p  c #6F702C",
"a  c #727125",
"s  c #7D7922",
"d  c #676C38",
"f  c #6E733B",
"g  c #777B39",
"h  c #575F43",
"j  c #4A5A5D",
"k  c #576145",
"l  c #5E6A53",
"z  c #6F7959",
"x  c #707B59",
"c  c #5C6E6D",
"v  c #5E747C",
"b  c #697D7E",
"n  c #827D1B",
"m  c #7E8244",
"M  c #7B8767",
"N  c #7D8978",
"B  c #73847B",
"V  c #85811C",
"C  c #8A851D",
"Z  c #8E891E",
"A  c #918D1F",
"S  c #95901F",
"D  c #98921F",
"F  c #A09C1F",
"G  c #8D8A22",
"H  c #928F20",
"J  c #969221",
"K  c #9A9521",
"L  c #9E9A22",
"P  c #9E9C29",
"I  c #858839",
"U  c #8D8F3E",
"Y  c #949536",
"T  c #A29D23",
"R  c #A09E33",
"E  c #A5A124",
"W  c #ABA624",
"Q  c #AEA925",
"!  c #AAA629",
"~  c #B1AD25",
"^  c #B2AE2C",
"/  c #B6B127",
"(  c #BAB527",
")  c #BEB827",
"_  c #B7B42A",
"`  c #BAB528",
"'  c #BDB928",
"]  c #A8A63A",
"[  c #A5A63B",
"{  c #B9B736",
"}  c #C2BD25",
"|  c #C2BE29",
" . c #C0BE3A",
".. c #C8C327",
"X. c #C5C12A",
"o. c #C9C52C",
"O. c #CDC92C",
"+. c #CAC526",
"@. c #D2CE2D",
"#. c #D4D22E",
"$. c #DAD62E",
"%. c #DDD92D",
"&. c #C8C533",
"*. c #DEDA30",
"=. c #E1DE31",
"-. c #E8E42F",
";. c #F2ED2F",
":. c #E5E232",
">. c #E9E532",
",. c #EDEA33",
"<. c #F1EE34",
"1. c #F5F335",
"2. c #FAF636",
"3. c #FFFB37",
"4. c #FFFF38",
"5. c #949857",
"6. c #999B51",
"7. c #BDBC47",
"8. c #9FA873",
"9. c #A1A876",
"0. c #617882",
"q. c #67808C",
"w. c #718680",
"e. c #6D8791",
"r. c #708D9F",
"t. c #7A9498",
"y. c #7D9AA8",
"u. c #879C98",
"i. c #889C96",
"p. c #9CAA90",
"a. c #829AA8",
"s. c #91A7A5",
"d. c #90A3A8",
"f. c #88A5B1",
"g. c #8BAAB3",
"h. c #8BABBC",
"j. c #88A6BB",
"k. c #97AEB7",
"l. c #96B8C6",
"z. c #96B8C9",
"x. c #A6BFCE",
"c. c #9DC1D5",
"v. c #ADCAD5",
"b. c #ACCAD8",
"n. c #A1C4D6",
"m. c #B0CEDB",
"M. c #AACFE5",
"N. c #ACD5EB",
"B. c #B0D7EC",
"V. c #BBDBEB",
"C. c #BADEF1",
"Z. c #BBE1F5",
"A. c #BFE6FB",
"S. c #C6E7F6",
"D. c #C6E8F7",
"F. c #C4EAFB",
"G. c #CAECFA",
"H. c None",
/* pixels */
"H.H.H.H.H.H.H.H.H.H.H.H.H.H.H.H.H.H.H.H.H.H.H.H.H.H.H.H.H.H.H.H.H.H.H.H.H.H.H.H.H.H.H.H.H.H.H.H.H.H.H.H.H.H.H.H.H.H.H.H.H.H.H.H.",
"H.H.H.H.H.H.H.H.H.H.H.H.H.H.H.H.H.H.H.H.H.H.H.H.H.H.H.- 3 @ H.H.H.H.H.H.H.H.H.H.H.H.H.H.H.H.H.H.H.H.H.H.H.H.H.H.H.H.H.H.H.H.H.H.",
"H.H.H.H.H.H.H.H.H.H.H.H.H.H.H.H.H.H.H.H.H.H.H.H.+ < K ` / = H.H.H.H.H.H.H.H.H.H.H.H.H.H.H.H.H.H.H.H.H.H.H.H.H.H.H.H.H.H.H.H.H.H.",
"H.H.H.H.H.H.H.H.H.H.H.H.H.H.H.H.H.H.H.H.H.H.H.q e @.,.4.| < r 8 ; &   H.H.H.H.H.H.H.H.H.H.H.H.H.H.H.H.H.H.H.H.H.H.H.H.H.H.H.H.H.",
"H.H.H.H.H.H.H.H.H.H.H.H.H.H.H.H.H.H.H.H.H.* C | 4.4.4.4.' n ,.*.X.T 7 3 @ H.H.H.H.H.H.H.H.H.H.H.H.H.H.H.H.H.H.H.H.H.H.H.H.H.H.H.",
"H.H.H.H.H.H.H.H.H.H.H.H.H.H.H.H.H.H.H.H.q @.1.4.4.3.3.4.~ Z 2.4.4.3.1.@.S q @ H.H.H.H.H.H.H.H.H.H.H.H.H.H.H.H.H.H.H.H.H.H.H.H.H.",
"H.H.H.H.H.H.H.H.H.H.H.H.H.H.H.H.H.. w W <.4.4.3.3.3.3.4./ L 2.3.3.3.4.3.4.*.L 7 H.H.H.H.H.H.H.H.H.H.H.H.H.H.H.H.H.H.H.H.H.H.H.H.",
"H.H.H.H.H.H.H.H.H.H.H.H.H.H.H.H.* Z $.2.4.3.3.3.3.3.3.3.~ T 3.3.3.3.3.3.4.4.4.O./ * H.H.H.H.H.H.H.H.H.H.H.H.H.H.H.H.H.H.H.H.H.H.",
"H.H.H.H.H.H.H.H.H.H.H.H.H.H.H.1 ~ 1.4.3.3.3.3.3.3.3.3.4.Q E 4.3.3.3.3.3.3.3.3.4.>.~ , H.H.H.H.H.H.H.H.H.H.H.H.H.H.H.H.H.H.H.H.H.",
"H.H.H.H.H.H.H.H.H.H.H.H.H.H.4 O.4.4.3.3.3.3.3.3.3.3.3.3.Q ~ 3.3.3.3.3.3.3.3.3.3.3.4.' 5 H.H.H.H.H.H.H.H.H.H.H.H.H.H.H.H.H.H.H.H.",
"H.H.H.H.H.H.H.H.H.H.H.H.H.r =.4.3.3.3.3.3.3.3.3.3.3.3.3.~ E 2.3.3.3.3.3.3.3.3.3.3.3.4.| 9 H.H.H.H.H.H.H.H.H.H.H.H.H.H.H.H.H.H.H.",
"H.H.H.H.H.H.H.H.H.H.H.8 V 1.4.3.3.3.3.3.3.3.3.3.3.3.3.3.Q _ 4.3.3.3.3.3.3.3.3.3.3.3.4.4.~ 7 H.H.H.H.H.H.H.H.H.H.H.H.H.H.H.H.H.H.",
"H.H.H.H.H.H.H.H.H.H.9 A 4.4.3.3.3.3.3.3.3.3.3.3.3.3.3.3.L ( 4.3.3.3.3.3.3.3.3.3.3.3.3.3.4.E 7 H.H.H.H.H.H.H.H.H.H.H.H.H.H.H.H.H.",
"H.H.H.H.H.H.H.H.H.3 T 3.4.3.3.3.3.3.3.3.3.3.3.3.3.3.4.2.L ( 4.3.3.3.3.3.3.3.3.3.3.3.3.3.4.4.K 3 H.H.H.H.H.H.H.H.H.H.H.H.H.H.H.H.",
"H.H.H.H.H.H.H.H.: J 4.4.3.3.3.3.3.3.3.3.3.3.3.3.3.3.4.3.K ` 4.3.3.3.3.3.3.3.3.3.3.3.3.3.3.4.3.w = H.H.H.H.H.H.H.H.H.H.H.H.H.H.H.",
"H.H.H.H.H.H.H.& K 4.3.3.3.3.3.3.3.3.3.3.3.3.4.4.3.4.2.1.V ( 4.3.3.3.3.3.3.3.3.3.3.3.3.3.3.3.3.=., H.H.H.H.H.H.H.H.H.H.H.H.H.H.H.",
"H.H.H.H.H.H.+ A 2.3.3.3.3.3.3.3.3.3.3.4.3.3.*.o.T K L K 5 n ,.3.4.4.3.3.3.3.3.3.3.3.3.3.3.3.4.1.T H.H.H.H.H.H.H.H.H.H.H.H.H.H.H.",
"H.H.H.H.H.. V ,.3.3.3.3.3.3.3.3.3.3.4.<.:.J A n Q Q ` W 4 > e / #.4.3.3.3.3.3.3.3.3.3.3.3.3.3.4.#.0 H.H.H.H.H.H.H.H.H.H.H.H.H.H.",
"H.H.H.H.H.L #.4.3.3.3.3.3.3.3.3.3.4.:.( C E $.<.3.4.4.3.=.r V L n O.3.4.3.3.3.3.3.3.3.3.3.3.3.3.4.Z O H.H.H.H.H.H.H.H.H.H.H.H.H.",
"H.H.H.H.0 | 4.4.3.3.3.3.3.3.3.3.4.=.( A | 4.3.4.3.3.3.4.1.| / O.O.e | <.4.3.3.3.3.3.3.3.3.3.3.3.3.O.4 H.H.H.H.H.H.H.H.H.H.H.H.H.",
"H.H.H.* ~ 4.3.3.3.3.3.3.3.3.3.4.<.( A $.4.3.3.3.3.3.3.3.4.,.~ @.1.O.9 o.2.4.4.3.3.3.3.3.3.3.2.3.4.<.8 H.H.H.H.H.H.H.H.H.H.H.H.H.",
"H.H.O Z 3.3.3.3.3.3.3.3.3.3.3.4.o.r *.4.3.3.3.3.3.3.3.3.3.4.$.G =.4.~ 7 =.4.3.3.3.3.3.3.3.3.3.3.3.4.L H.H.H.H.H.H.H.H.H.H.H.H.H.",
"H.H.G @.4.3.3.3.3.3.3.3.3.3.4.=.C O.4.3.3.3.3.3.3.3.3.3.3.4.4.^ T 3.&.h a 2.3.3.3.3.3.3.3.3.3.3.3.4.( : H.H.H.H.H.H.H.H.H.H.H.H.",
"H.: W 4.3.3.3.3.3.3.3.3.3.3.4.O.J >.4.3.3.3.3.3.3.3.3.3.3.3.3.>.^ ` m r.5.+.4.3.3.3.3.3.3.3.3.3.3.4.*., H.H.H.H.H.H.H.H.H.H.H.H.",
"o n 3.3.3.3.3.3.3.3.3.3.3.4.1.C / 4.3.3.3.3.3.3.3.3.3.3.3.3.3.2.T q i.N.v ! 4.3.3.3.3.3.3.3.3.3.3.4.>.3 H.H.H.H.H.H.H.H.H.H.H.H.",
"w %.4.3.4.3.3.3.3.3.3.3.3.3.>.n O.4.3.3.3.3.3.3.3.3.3.3.3.3.3.4.=.h k.G.f.e <.4.3.3.3.3.3.3.3.3.3.4.1.8   H.H.H.H.H.H.H.H.H.H.H.",
"K 4.4.4.4.4.4.4.4.4.3.4.3.3.=.n ,.4.3.3.3.3.3.3.3.3.3.3.3.3.3.3.,.U x.G.h.d <.4.3.3.3.3.3.3.3.3.3.4.4.e X H.H.H.H.H.H.H.H.H.H.H.",
"K T _ X.o.@.$.$.=.>.>.<.2.2.O.G <.4.3.3.3.3.3.3.3.3.3.3.3.3.3.3.4.R d.G.n.d %.3.3.3.3.3.3.3.3.3.3.3.4.K . H.H.H.H.H.H.H.H.H.H.H.",
"O # 7 C C n e V n r H H n Z V 0 @.4.3.3.3.3.3.3.3.3.3.3.3.3.3.3.3.^ s.D.c.u $.4.3.3.3.3.3.3.3.3.3.3.3.Z ; H.H.H.H.H.H.H.H.H.H.H.",
"H.> | 2.<.<.>.>.=.$.$.#.` / Q : J o.4.4.3.3.3.3.3.3.3.3.3.3.3.3.4.^ u.G.h.i ,.4.3.3.3.3.3.3.3.3.3.3.3.A 8 $ H.H.H.H.H.H.H.H.H.H.",
"H.# ~ 4.3.4.4.3.4.4.4.4.3.4.>.n J T &.4.3.3.3.3.3.3.3.3.3.3.3.3.4.] k.G.y.a <.3.3.3.3.3.3.3.3.3.3.3.1.Z T n H.H.H.H.H.H.H.H.H.H.",
"H.H.W 3.3.3.3.3.3.3.3.3.3.3.3.K V @.T o.2.4.3.3.3.3.3.3.3.3.3.4.$.m b.C.b E 3.3.3.3.3.3.3.3.3.3.3.4.,.J @.w H.H.H.H.H.H.H.H.H.H.",
"H.H.w 3.4.3.3.3.3.3.3.3.3.3.2.| A @.>.P o.-.4.2.3.3.3.3.3.3.3.,.{ i.C.n.t } 4.3.3.3.3.3.3.3.3.3.3.4.=.n =.X.H.H.H.H.H.H.H.H.H.H.",
"H.H.7 ,.3.3.3.3.3.3.3.3.3.3.4.,.n ( 2.<./ ) ' -.3.4.4.3.3.4.,.7.M v.V.0.Y 2.4.3.3.3.3.3.3.3.3.3.3.4.#.K 1.#.7 H.H.H.H.H.H.H.H.H.",
"H.H.- O.4.3.3.3.3.3.3.3.3.3.3.4.@.q $.4.;.^ 6 6.( <.<.;.1.%.7.5.b.A.h.f } 4.3.3.3.3.3.3.3.3.3.3.3.4.T E 4.3.w X H.H.H.H.H.H.H.H.",
"H.H.H.W 2.4.3.3.3.3.3.3.3.3.3.3.4.} r ( [ z d.j.p.8.6.Y 5.9.k.V.C.z.h L 4.3.3.3.3.3.3.3.3.3.2.3.4.1.K } 3.3.~ H.H.H.H.H.H.H.H.H.",
"H.H.  8 2.4.3.3.3.3.3.3.3.3.3.3.3.2.~ 4 j l.A.F.S.B.v.b.v.C.G.M.g.u F 3.4.3.3.3.3.3.3.3.3.3.3.4.4.O.C ,.4.4.=.1 H.H.H.H.H.H.H.H.",
"H.H.H.7 | 4.3.3.3.3.3.3.3.3.3.3.3.3.4.~ I c g.x.Z.Z.D.F.C.B.a.B p } 4.3.3.3.3.3.3.3.3.3.3.3.3.3.4.( Q 1.3.3.3.K H.H.H.H.H.H.H.H.",
"H.H.H.H.J 2.3.3.3.3.3.3.3.3.3.3.3.3.3.4.%.^ p l w.e.q.t.b x g F $.4.3.3.3.3.3.3.3.3.3.3.3.3.3.4.$.e $.4.3.3.4.Q : H.H.H.H.H.H.H.",
"H.H.H.H.: $.4.3.3.3.3.3.3.3.3.3.3.3.3.3.4.4.-.@.^ P J J ( +.1.1.4.4.3.3.3.3.3.3.3.3.3.3.3.3.3.2._ Q <.3.3.3.3.,.q H.H.H.H.H.H.H.",
"H.H.H.H.H.r 1.4.3.3.3.3.3.3.3.3.3.3.3.3.3.3.4.4.2.3.4.3.4.4.3.3.3.3.3.3.3.3.3.3.3.3.3.3.3.3.4.>.r o.4.3.3.3.4.1.L H.H.H.H.H.H.H.",
"H.H.H.H.H.H.Q 2.4.3.3.3.3.3.3.3.3.3.3.3.3.3.3.3.3.3.3.3.3.3.3.3.3.3.3.3.3.3.3.3.3.3.3.3.3.4.,.L / 3.3.3.3.3.3.4.' % H.H.H.H.H.H.",
"H.H.H.H.H.H.4 *.4.3.3.3.3.3.3.3.3.3.3.3.3.3.3.3.3.3.3.3.3.3.3.3.3.3.3.3.3.3.3.3.3.3.3.3.4.2.o.K %.4.3.3.3.3.3.4.*.7 H.H.H.H.H.H.",
"H.H.H.H.H.H.. Z <.4.3.3.3.3.3.3.3.3.3.3.3.3.3.3.3.3.3.3.3.3.3.3.3.3.3.3.3.3.3.3.3.3.3.3.3.$.1 5 2.4.3.3.3.3.3.3.4.n $ H.H.H.H.H.",
"H.H.H.H.H.H.H.* E 1.4.4.3.3.3.3.3.3.3.3.3.3.3.3.3.3.3.3.3.3.3.3.3.3.3.3.3.3.3.3.3.3.3.4.=.4 H.: V 3.4.3.3.3.3.3.4.o.> H.H.H.H.H.",
"H.H.H.H.H.H.H.H.* ( 1.4.3.3.3.3.3.3.3.3.3.3.3.3.3.3.3.3.3.3.3.3.3.3.3.3.3.3.3.3.3.3.4.=.8 H.H.H.: J 3.3.3.3.3.3.4.$.5 H.H.H.H.H.",
"H.H.H.H.H.H.H.H.H.; W :.4.3.3.3.3.3.3.3.3.3.3.3.3.3.3.3.3.3.3.3.3.3.3.3.3.3.3.3.3.4.@.q H.H.H.H.H.: E 4.3.3.3.3.3.4.n H.H.H.H.H.",
"H.H.H.H.H.H.H.H.H.H.H.T @.4.3.3.3.3.3.3.3.3.3.3.3.3.3.3.3.3.3.3.3.3.3.3.3.3.3.4.2.~ 3 H.H.H.H.H.H.H., ~ 4.4.3.3.4.2.W H.H.H.H.H.",
"H.H.H.H.H.H.H.H.H.H.H.H.5 ' ,.4.3.3.3.3.3.3.3.3.3.3.3.3.3.3.3.3.3.3.3.3.4.4.2.*.C : H.H.H.H.H.H.H.H.H.< X.4.4.4.2.$.5   H.H.H.H.",
"H.H.H.H.H.H.H.H.H.H.H.H.H.- E | 3.4.4.4.3.3.3.3.3.3.3.3.3.3.3.3.3.3.3.4.3.>.P 9   H.H.H.H.H.H.H.H.H.H.H.1 #.4.1.@.3   H.H.H.H.H.",
"H.H.H.H.H.H.H.H.H.H.H.H.H.H.H.< Z | 2.3.4.4.4.3.3.3.3.3.3.4.3.4.4.3.3.@.( 7 Z e V H.H.H.H.H.H.H.H.H.H.H.H.4 #.o.,   H.H.H.H.H.H.",
"H.H.H.H.H.H.H.H.H.H.H.H.H.H.H.H.H.2 9 W $.>.3.3.4.4.4.4.4.2.2.<.#./ n n w ' :.2.Q H.H.H.H.H.H.H.H.H.H.H.H.H.< -   H.H.H.H.H.H.H.",
"H.H.H.H.H.H.H.H.H.H.H.H.H.H.H.H.H.H.H.H.; 4 r Z D / X./ / T r V 7 n A o.>.4.4.4.2.E H.H.H.H.H.H.H.H.H.H.H.H..   H.H.H.H.H.H.H.H.",
"H.H.H.H.H.H.H.H.H.H.H.H.H.H.H.H.H.H.H.H.H.H.  X - 0 Z C C E T | *.>.4.3.4.3.3.3.4.1.L H.H.H.H.H.H.H.H.H.H.H.H.H.H.H.H.H.H.H.H.H.",
"H.H.H.H.H.H.H.H.H.H.H.H.H.H.H.H.H.H.H.H.H.H.H.H.$ n r @.<.4.4.4.4.3.3.3.3.3.3.3.3.4.>.K H.H.H.H.H.H.H.H.H.H.H.H.H.H.H.H.H.H.H.H.",
"H.H.H.H.H.H.H.H.H.H.H.H.H.H.H.H.H.H.H.H.H.H.H.H.H.H.% H.q #.,.4.4.4.3.3.3.3.3.3.3.3.4.:.J H.H.H.H.H.H.H.H.H.H.H.H.H.H.H.H.H.H.H.",
"H.H.H.H.H.H.H.H.H.H.H.H.H.H.H.H.H.H.H.H.H.H.H.H.H.H.H.H.O - n | >.4.4.4.3.3.3.3.3.3.3.4.$.H H.H.H.H.H.H.H.H.H.H.H.H.H.H.H.H.H.H.",
"H.H.H.H.H.H.H.H.H.H.H.H.H.H.H.H.H.H.H.H.H.H.H.H.H.H.H.H.H.H.H.& C W :.4.4.4.3.3.3.3.3.3.4.O.G H.H.H.H.H.H.H.H.H.H.H.H.H.H.H.H.H.",
"H.H.H.H.H.H.H.H.H.H.H.H.H.H.H.H.H.H.H.H.H.H.H.H.H.H.H.H.H.H.H.H.H.$ Z J ,.2.4.3.3.3.3.3.4.4.^ , H.H.H.H.H.H.H.H.H.H.H.H.H.H.H.H.",
"H.H.H.H.H.H.H.H.H.H.H.H.H.H.H.H.H.H.H.H.H.H.H.H.H.H.H.H.H.H.H.H.H.H.H.$ 2 K ,.1.4.3.3.4.2.=.9 O H.H.H.H.H.H.H.H.H.H.H.H.H.H.H.H.",
"H.H.H.H.H.H.H.H.H.H.H.H.H.H.H.H.H.H.H.H.H.H.H.H.H.H.H.H.H.H.H.H.H.H.H.H.H., 2 T $.2.4.2.$.3 + H.H.H.H.H.H.H.H.H.H.H.H.H.H.H.H.H.",
"H.H.H.H.H.H.H.H.H.H.H.H.H.H.H.H.H.H.H.H.H.H.H.H.H.H.H.H.H.H.H.H.H.H.H.H.H.H.H.H.< E ( o.< + H.H.H.H.H.H.H.H.H.H.H.H.H.H.H.H.H.H.",
"H.H.H.H.H.H.H.H.H.H.H.H.H.H.H.H.H.H.H.H.H.H.H.H.H.H.H.H.H.H.H.H.H.H.H.H.H.H.H.H.H.H.1 : H.H.H.H.H.H.H.H.H.H.H.H.H.H.H.H.H.H.H.H.",
"H.H.H.H.H.H.H.H.H.H.H.H.H.H.H.H.H.H.H.H.H.H.H.H.H.H.H.H.H.H.H.H.H.H.H.H.H.H.H.H.H.H.H.H.H.H.H.H.H.H.H.H.H.H.H.H.H.H.H.H.H.H.H.H."
};
