/* XPM */
static char *_70[] = {
/* columns rows colors chars-per-pixel */
"64 64 162 2 ",
"   c #030201",
".  c #090702",
"X  c #0C0B03",
"o  c #141304",
"O  c #1D1B06",
"+  c #191705",
"@  c #201E06",
"#  c #232107",
"$  c #262308",
"%  c #292608",
"&  c #2D2A09",
"*  c #34320B",
"=  c #39350C",
"-  c #3D3B0D",
";  c #443F0D",
":  c #44420F",
">  c #48450F",
",  c #4B480F",
"<  c #4A4710",
"1  c #4D4B10",
"2  c #534F11",
"3  c #555112",
"4  c #5A5613",
"5  c #5F5B14",
"6  c #54531E",
"7  c #625E14",
"8  c #656115",
"9  c #696516",
"0  c #6C6917",
"q  c #6F6B18",
"w  c #706716",
"e  c #706B17",
"r  c #736E18",
"t  c #757017",
"y  c #767219",
"u  c #7A761A",
"i  c #7D791A",
"p  c #565C3A",
"a  c #646222",
"s  c #646627",
"d  c #7C7B25",
"f  c #7A7B2D",
"g  c #64693E",
"h  c #6F713C",
"j  c #7B7F38",
"k  c #55604A",
"l  c #546058",
"z  c #66704F",
"x  c #606F5E",
"c  c #64725D",
"v  c #6A7655",
"b  c #5E7171",
"n  c #62787D",
"m  c #827D1B",
"M  c #817D22",
"N  c #7F8035",
"B  c #7D854B",
"V  c #7B835A",
"C  c #748162",
"Z  c #7B8C78",
"A  c #85811C",
"S  c #8B861D",
"D  c #8E8A1E",
"F  c #918D1E",
"G  c #95911F",
"H  c #838226",
"J  c #948E20",
"K  c #969220",
"L  c #9A9621",
"P  c #9D9922",
"I  c #9D9A29",
"U  c #818538",
"Y  c #979731",
"T  c #97973E",
"R  c #A29D23",
"E  c #A6A224",
"W  c #A9A524",
"Q  c #AEAA25",
"!  c #AAA728",
"~  c #AFA92A",
"^  c #A5A32B",
"/  c #B1AD26",
"(  c #B2AE29",
")  c #B5B127",
"_  c #B9B427",
"`  c #BAB528",
"'  c #BEBA29",
"]  c #BAB526",
"[  c #A5A233",
"{  c #A3A43B",
"}  c #BBB730",
"|  c #B3B038",
" . c #C2BE29",
".. c #C6C22A",
"X. c #C9C52B",
"o. c #CDCA2C",
"O. c #D2CE2D",
"+. c #D5D12D",
"@. c #DAD62F",
"#. c #DCD82F",
"$. c #D8D225",
"%. c #CBC731",
"&. c #C7C533",
"*. c #DEDA30",
"=. c #DBD734",
"-. c #E2DD2D",
";. c #E2DE31",
":. c #E9E42F",
">. c #F2EE2F",
",. c #E5E232",
"<. c #E9E632",
"1. c #EDEA33",
"2. c #F1EE34",
"3. c #F4F235",
"4. c #F9F636",
"5. c #FFFB37",
"6. c #FFFF38",
"7. c #8A8F42",
"8. c #898F58",
"9. c #A6A644",
"0. c #878F68",
"q. c #8F9C75",
"w. c #C0BF42",
"e. c #627B87",
"r. c #6C848B",
"t. c #7B8F8E",
"y. c #758D8C",
"u. c #6C8693",
"i. c #738994",
"p. c #7B9597",
"a. c #7B97A8",
"s. c #7C97A8",
"d. c #889789",
"f. c #899D91",
"g. c #97A58D",
"h. c #A2B098",
"j. c #8FA5AB",
"k. c #95A8AA",
"l. c #82A1B1",
"z. c #8FAEB9",
"x. c #96ACB4",
"c. c #94B0BD",
"v. c #A7BEBD",
"b. c #96B8C8",
"n. c #A3C8DD",
"m. c #A9C6D8",
"M. c #B1CEDC",
"N. c #AACEE1",
"B. c #A4CBE1",
"V. c #ACD3E8",
"C. c #B7D5E0",
"Z. c #B5DBEE",
"A. c #BCDAEB",
"S. c #BDDFF1",
"D. c #BDE2F5",
"F. c #BCE4FA",
"G. c #C1DFED",
"H. c #C2E5F6",
"J. c #C1E7F9",
"K. c #C5E9FA",
"L. c #CBECF9",
"P. c None",
/* pixels */
"P.P.P.P.P.P.P.P.P.P.P.P.P.P.P.P.P.P.P.P.P.P.P.P.P.P.P.P.P.P.P.P.P.P.P.P.P.P.P.P.P.P.P.P.P.P.P.P.P.P.P.P.P.P.P.P.P.P.P.P.P.P.P.P.",
"P.P.P.P.P.P.P.P.P.P.P.P.P.P.P.P.P.P.P.P.P.P.P.P.P.P.P.P.P.P.P.P.P.P.P.P.P.P.P.P.P.P.P.P.P.P.P.P.P.P.P.P.P.P.P.P.P.P.P.P.P.P.P.P.",
"P.P.P.P.P.P.P.P.P.P.P.P.P.P.P.P.P.P.P.P.P.P.P.P.P.P.P.P.P.P.P.P.P.P.P.P.P.P.P.P.P.P.P.P.P.P.P.P.P.P.P.P.P.P.P.P.P.P.P.P.P.P.P.P.",
"P.P.P.P.P.P.P.P.P.P.P.P.P.P.P.P.P.P.P.P.P.P.P.P.P.P.P.P.P.P.P.P.P.P.P.P.P.P.P.P.P.P.P.P.P.P.P.P.P.P.P.P.P.P.P.P.P.P.P.P.P.P.P.P.",
"P.P.P.P.P.P.P.P.P.P.P.P.P.P.P.P.P.P.P.P.P.P.P.P.P.P.P.P.P.P.P.P.P.P.P.P.P.P.P.P.P.P.P.P.P.P.P.P.P.P.P.P.P.P.P.P.P.P.P.P.P.P.P.P.",
"P.P.P.P.P.P.P.P.P.P.P.P.P.P.P.P.P.P.P.P.P.P.P.& P.o P.P.P.P.P.P.P.P.P.P.P.P.P.P.P.P.P.P.P.P.P.P.P.P.P.P.P.P.P.P.P.P.P.P.P.P.P.P.",
"P.P.P.P.P.P.P.P.P.P.P.P.P.P.- & P.P.P.* 1 8 D K W ( R W / 0 3 1 P.P.P.P.P.P.P.P.P.P.P.P.P.P.P.P.P.P.P.P.P.P.P.P.P.P.P.P.P.P.P.P.",
"P.P.P.P.P.P.P.P.P.P.P.P.P.; W 0 = A L ..;.5.3.6.6.5.6.5.3.5.3.o.K e 7 P.P.P.P.P.P.P.P.P.P.P.P.P.P.P.P.P.P.P.P.P.P.P.P.P.P.P.P.P.",
"P.P.P.P.P.P.P.P.P.P.P.P.P.K 6...4 @.6.5.6.5.5.5.5.5.5.5.5.5.5.6.6.3.' S 8 : P.P.P.P.P.P.P.P.P.P.P.P.P.P.P.P.P.P.P.P.P.P.P.P.P.P.",
"P.P.P.P.P.P.P.P.P.P.P.O t ;.6.3.G ( 6.5.5.5.5.5.5.5.5.5.5.5.5.5.5.6.6.6.<.K < X P.P.P.P.P.P.P.P.P.P.P.P.P.P.P.P.P.P.P.P.P.P.P.P.",
"P.P.P.P.P.P.P.P.P.P.P.4 @.5.6.6.' S <.6.5.5.5.5.5.5.5.5.5.5.5.5.5.5.5.5.6.5.*.S P.P.P.P.P.P.P.P.P.P.P.P.P.P.P.P.P.P.P.P.P.P.P.P.",
"P.P.P.P.P.P.P.P.P.P.- Q 6.5.5.6.1.m ` 5.5.5.5.5.5.5.5.5.5.5.5.5.5.5.5.5.5.5.6.<.L = P.P.P.P.P.P.P.P.P.P.P.P.P.P.P.P.P.P.P.P.P.P.",
"P.P.P.P.P.P.P.P.P.o H 1.6.5.5.5.6. .S 1.5.5.5.5.5.5.5.5.5.5.5.5.5.5.5.5.5.5.5.6.6.' t P.P.P.P.P.P.P.P.P.P.P.P.P.P.P.P.P.P.P.P.P.",
"P.P.P.P.P.P.P.P.P.2 <.5.5.5.5.5.6.2.P ' 5.5.5.5.5.5.5.5.5.5.5.5.5.5.5.5.5.5.5.5.6.4.' : P.P.P.P.P.P.P.P.P.P.P.P.P.P.P.P.P.P.P.P.",
"P.P.P.P.P.P.P.P.P.E 6.6.5.5.5.5.5.6...J <.6.5.5.5.5.5.5.5.5.5.5.5.5.5.5.5.5.5.5.5.6.6. .4 P.P.P.P.P.P.P.P.P.P.P.P.P.P.P.P.P.P.P.",
"P.P.P.P.P.P.P.P.L ,.6.5.5.5.5.5.5.5.2.P ..6.5.5.5.5.5.5.5.5.5.5.5.5.5.5.5.5.5.5.5.5.6.6.Q : P.P.P.P.P.P.P.P.P.P.P.P.P.P.P.P.P.P.",
"P.P.P.P.P.P.P.& ..6.5.5.5.5.5.5.5.5.6.' D <.6.5.5.5.5.5.5.5.5.5.5.5.5.5.5.5.5.5.5.5.5.6.2.A X P.P.P.P.P.P.P.P.P.P.P.P.P.P.P.P.P.",
"P.P.P.P.P.P.O A 2.6.5.5.5.5.5.5.5.5.6.1.S  .5.5.5.6.5.5.5.5.5.5.5.5.5.5.5.5.5.5.5.5.5.5.6.,.7 . P.P.P.P.P.P.P.P.P.P.P.P.P.P.P.P.",
"P.P.P.P.P.P.- +.5.6.5.5.5.5.5.5.5.5.5.6...J 1.6.4.5.6.5.5.6.6.5.5.5.5.5.5.5.5.5.5.5.5.5.6.6.o.= . P.P.P.P.P.P.P.P.P.P.P.P.P.P.P.",
"P.P.P.P.P.P.0 5.5.5.5.5.5.5.5.5.5.5.5.6.,.t m Q / P R O.,.2.5.5.5.5.5.5.5.5.5.5.5.5.5.5.5.6.4.m : & P.P.P.P.P.P.P.P.P.P.P.P.P.P.",
"P.P.P.P.P.> ) 6.5.5.5.5.5.5.5.5.6.6.6.@.L 8 # 3 i / / m 0 F O.5.5.5.5.5.5.5.5.5.5.5.5.5.5.5.5.o.t H P.P.P.P.P.P.P.P.P.P.P.P.P.P.",
"P.P.P.P.P.q 3.5.5.5.5.5.5.5.5.5.6.<.) i P o.o.P W X.<.4.,.F 6 d O.5.6.5.5.5.5.5.5.5.5.5.5.5.6.1.F E G * P.P.P.P.P.P.P.P.P.P.P.P.",
"P.P.P.P.P.L 6.6.5.5.5.5.5.5.5.6.<.G K o.4.6.5.,.X./ ` #.6.-.c y.7.#.6.5.5.5.5.5.5.5.5.5.5.5.5.6.] R 1.] q P.P.P.P.P.P.P.P.P.P.P.",
"P.P.P.P.8 @.6.5.5.5.5.5.5.5.5.3.F G <.5.6.5.5.6.6.1.! H ' %.C n.r.a O.6.5.5.5.5.5.5.5.5.5.5.5.5.,.A <.5.E * P.P.P.P.P.P.P.P.P.P.",
"P.P.P.P.u 5.5.5.5.5.5.5.5.6.3.` G ;.6.5.5.5.5.5.5.5.6.;.) A Z A.Z.r.H 1.5.5.5.5.5.5.5.5.5.5.5.5.3.R ' 6.4.Q 4 P.P.P.P.P.P.P.P.P.",
"P.P.P.P.Q 6.5.5.5.5.5.5.5.6.+.S @.5.5.5.5.5.5.5.5.5.6.5.#.G k m.L.M.c ) 5.5.5.5.5.5.5.5.5.5.5.5.6.E Q 4.6.6. .8 P.P.P.P.P.P.P.P.",
"P.P.P.3 ;.6.5.5.5.5.5.5.5.3.( D 6.5.5.5.5.5.5.5.5.5.5.5.5.3.^ d.A.K.a.s 1.5.5.5.5.5.5.5.5.5.5.5.5.X.S 4.6.5.5.) 2 P.P.P.P.P.P.P.",
"P.P.P.8 5.5.5.5.5.5.5.5.6.#.E X.6.5.5.5.5.5.5.5.5.5.5.5.5.5.1.T k.L.n.k ' 5.5.5.5.5.5.5.5.5.5.5.6.+.J <.6.5.6.6.+.E P.P.P.P.P.P.",
"P.P.& L 6.6.5.5.5.5.5.5.5.O.S 1.6.5.5.5.5.5.5.5.5.5.5.5.5.5.5.O.V M.J.n P 5.5.5.5.5.5.5.5.5.5.5.6.,.L ;.6.5.5.5.4.X.3 . P.P.P.P.",
"P.P.# O.5.5.5.5.5.5.5.5.4.X.J 6.5.5.5.5.5.5.5.5.5.5.5.5.5.5.5.4.[ x.L.a.d 3.5.5.5.5.5.5.5.5.5.5.6.1.u <.5.5.5.5.6.6.+.t P.P.P.P.",
"P.P.: ,.6.5.5.5.5.5.5.5.6.E Q 5.5.5.5.5.5.5.5.5.5.5.5.5.5.5.5.5.} d.J.z.8 4.5.5.5.5.5.5.5.5.5.5.6.;.P O.6.5.5.5.5.6.6.@.8 P.P.P.",
"P.P.t 1.6.5.5.5.5.5.5.5.5./ W 4.5.5.5.5.5.5.5.5.5.5.5.5.5.5.5.6.] f.J.s.N 1.5.5.5.5.5.5.5.5.5.5.6.2.S +.6.5.5.5.5.5.6.6.@.t @ P.",
"P.P.E 4.5.5.5.5.5.5.5.5.5.X.S 5.5.5.5.5.5.5.5.5.5.5.5.5.5.5.5.4.&.t.K.l.f 3.5.5.5.5.5.5.5.5.5.5.5.3.A ,.5.5.5.5.5.5.5.5.6.,.A P.",
"P.P.E 6.5.5.5.5.5.5.5.5.6. .S ,.6.5.5.5.5.5.5.5.5.5.5.5.5.5.5.>.9.j.F.p.u 6.5.5.5.5.5.5.5.5.5.5.6.@.R #.6.5.5.5.5.5.5.5.5.6. .* ",
"P.< X.6.5.5.5.5.5.5.5.5.6.<.t +.6.5.5.5.5.5.5.5.5.5.5.5.5.5.5.,.0.C.V.x ~ 5.5.5.5.5.5.5.5.5.5.5.6.#.r ..6.6.5.5.5.5.5.5.5.6...o ",
"P.* <.5.5.5.5.5.5.5.5.5.5.5.( E 5.6.6.5.5.5.5.5.5.5.5.5.5.5.2.w.k.K.b.s 1.5.5.5.5.5.5.5.5.5.5.5.5.X.% : 9 W <.6.6.5.6.5.6.1.m   ",
"P.2 ;.6.5.5.5.5.5.5.5.5.6.6.X.t Q X.*.6.6.5.5.6.5.5.5.5.5.$.9.h.A.N.Z G 6.5.5.5.5.5.5.5.5.5.5.5.5.K @ P.P.- < y ) 3.6.5.6.*.= P.",
"P.J ,.6.5.5.5.5.5.5.6.5.<./ m 4 : J ^ R _ *.,.*.:.#.+.*.| 8.k.G.J.u.N #.6.5.5.5.5.5.5.5.5.5.5.5.5.8 P.P.P.P.P.P.- 3 A o.3.) X P.",
"P.8 3.6.5.5.5.6.6.4.@.Q F m ` ;.P u ' *...^ Q  .0 z q.g.v.m.K.D.z.g o.5.5.5.5.5.5.5.5.5.5.5.5.6.;.5 P.P.P.P.P.P.P.P.P.: 3 :   P.",
"P.q 5.6.5.6.6.5.O.R i R O.2.5.6.<.L F o.3.5.2.@.h c.A.J.J.J.V.i.B ' 5.5.5.5.5.5.5.5.5.5.5.5.5.6.E P.P.P.P.P.P.P.P.P.P.P.P.X P.P.",
"X K 4.6.6.2.o.L A K @.3.6.6.5.5.5.*.L i / <.:.{ t.F.D.Z.B.l.l f +.5.5.5.5.5.5.5.5.5.5.5.5.5.5.3.8 P.P.P.P.P.P.P.P.P.P.P.P.P.P.P.",
"P.K 5.2. .J i Q +.5.5.6.5.5.5.5.5.6.6.O.J u t p e.u.y.b v N / :.6.5.5.5.5.5.5.5.5.5.5.5.5.5.5.' - P.P.P.P.P.P.P.P.P.P.P.P.P.P.P.",
"P.u ( r u W ,.5.5.5.5.5.5.5.5.5.5.5.5.5.5.1. .S I Y F ) o.1.5.6.5.5.5.5.5.5.5.5.5.5.5.5.5.5.1.8 P.P.P.P.P.P.P.P.P.P.P.P.P.P.P.P.",
"  & % O D 5.6.5.5.5.5.5.5.5.5.5.5.5.5.5.5.5.5.5.4.4.6.5.6.6.6.5.5.5.5.5.5.5.5.5.5.5.5.5.5.5.( o P.P.P.P.P.P.P.P.P.P.P.P.P.P.P.P.",
"P.P.P.P.3 O.6.5.5.5.5.5.5.5.5.5.5.5.5.5.5.5.5.5.5.5.5.5.5.5.5.5.5.5.5.5.5.5.5.5.5.5.5.5.6.X.i 5 L P.P.P.P.P.P.P.P.P.P.P.P.P.P.P.",
"P.P.P.P.P.J <.6.5.5.5.5.5.5.5.5.5.5.5.5.5.5.5.5.5.5.5.5.5.5.5.5.5.5.5.5.5.5.5.5.5.5.5.5.3.t R *.+.W J J P.P.P.P.P.P.P.P.P.P.P.P.",
"P.P.P.P.P.P.S 2.5.5.5.5.5.5.5.5.5.5.5.5.5.5.5.5.5.5.5.5.5.5.5.5.5.5.5.5.5.5.5.5.5.5.5.2.) 9 ,.6.6.6.1...P J P.P.P.P.P.P.P.P.P.P.",
"P.P.P.P.P.P.& P 3.5.5.5.5.5.5.5.5.5.5.5.5.5.5.5.5.5.5.5.5.5.5.5.5.5.5.5.5.5.5.5.5.5.5.E A ` 6.6.6.4.6.6.6.,.' P J P.P.P.P.P.P.P.",
"P.P.P.P.P.P.P.1 W 5.6.6.5.5.5.5.5.5.5.5.5.5.5.5.5.5.5.5.5.5.5.5.5.5.5.5.5.5.5.5.6.4.) 4 ..3.5.5.5.5.5.5.5.6.6.5.@.J O P.P.P.P.P.",
"P.P.P.P.P.P.P.P.% D <.5.5.5.5.5.5.5.5.5.5.5.5.5.5.5.5.5.5.5.5.5.5.5.5.5.5.5.5.6.2.( t E 6.5.5.5.5.5.5.5.5.5.5.6.4.J O P.P.P.P.P.",
"P.P.P.P.P.P.P.P.P.P.P ,.6.6.5.5.5.5.5.5.5.5.5.5.5.5.5.5.5.5.5.5.5.5.5.5.5.5.5.<.S m  .3.6.5.5.5.5.5.5.5.5.5.6.6.<.> P.P.P.P.P.P.",
"P.P.P.P.P.P.P.P.P.P.o 3 Q 3.6.6.5.5.5.5.5.5.5.5.5.5.5.5.5.5.5.5.5.5.5.6.6.4.O.J r +.6.5.5.5.5.5.5.5.5.5.5.5.5.4.' # P.P.P.P.P.P.",
"P.P.P.P.P.P.P.P.P.P.P.P.9 J ..1.5.6.5.5.5.5.5.5.5.5.5.5.5.5.5.5.5.6.6.5.,.P m E ,.6.5.6.6.6.6.6.6.6.6.5.6.6.6.3.y O P.P.P.P.P.P.",
"P.P.P.P.P.P.P.P.P.P.P.P.P.P.* K @.3.5.6.6.6.5.5.5.5.5.5.5.6.5.5.6.2.O.L y K X.2.5.1.2.1.*.;.o...O.` ' ' R W P i - P.P.P.P.P.P.P.",
"P.P.P.P.P.P.P.P.P.P.P.P.P.P.P.+ * 9 ) *.*.1.6.5.5.6.6.5.6.3.3.O.E y * * y u K m 4 0 7 < u = P.< O : * P.P.P.P.P.P.P.P.P.P.P.P.P.",
"P.P.P.P.P.P.P.P.P.P.P.P.P.P.P.P.P.P.% & J S r J / K K E u u 9 * #   P.O P.P.P.P.P.P.P.P.P.P.P.P.P.P.P.P.P.P.P.P.P.P.P.P.P.P.P.P.",
"P.P.P.P.P.P.P.P.P.P.P.P.P.P.P.P.P.P.P.P.P.P.P.@ P.P.O P.P.P.P.P.P.P.P.P.P.P.P.P.P.P.P.P.P.P.P.P.P.P.P.P.P.P.P.P.P.P.P.P.P.P.P.P.",
"P.P.P.P.P.P.P.P.P.P.P.P.P.P.P.P.P.P.P.P.P.P.P.P.P.P.P.P.P.P.P.P.P.P.P.P.P.P.P.P.P.P.P.P.P.P.P.P.P.P.P.P.P.P.P.P.P.P.P.P.P.P.P.P.",
"P.P.P.P.P.P.P.P.P.P.P.P.P.P.P.P.P.P.P.P.P.P.P.P.P.P.P.P.P.P.P.P.P.P.P.P.P.P.P.P.P.P.P.P.P.P.P.P.P.P.P.P.P.P.P.P.P.P.P.P.P.P.P.P.",
"P.P.P.P.P.P.P.P.P.P.P.P.P.P.P.P.P.P.P.P.P.P.P.P.P.P.P.P.P.P.P.P.P.P.P.P.P.P.P.P.P.P.P.P.P.P.P.P.P.P.P.P.P.P.P.P.P.P.P.P.P.P.P.P.",
"P.P.P.P.P.P.P.P.P.P.P.P.P.P.P.P.P.P.P.P.P.P.P.P.P.P.P.P.P.P.P.P.P.P.P.P.P.P.P.P.P.P.P.P.P.P.P.P.P.P.P.P.P.P.P.P.P.P.P.P.P.P.P.P.",
"P.P.P.P.P.P.P.P.P.P.P.P.P.P.P.P.P.P.P.P.P.P.P.P.P.P.P.P.P.P.P.P.P.P.P.P.P.P.P.P.P.P.P.P.P.P.P.P.P.P.P.P.P.P.P.P.P.P.P.P.P.P.P.P.",
"P.P.P.P.P.P.P.P.P.P.P.P.P.P.P.P.P.P.P.P.P.P.P.P.P.P.P.P.P.P.P.P.P.P.P.P.P.P.P.P.P.P.P.P.P.P.P.P.P.P.P.P.P.P.P.P.P.P.P.P.P.P.P.P.",
"P.P.P.P.P.P.P.P.P.P.P.P.P.P.P.P.P.P.P.P.P.P.P.P.P.P.P.P.P.P.P.P.P.P.P.P.P.P.P.P.P.P.P.P.P.P.P.P.P.P.P.P.P.P.P.P.P.P.P.P.P.P.P.P."
};
