/* XPM */
static char *_72[] = {
/* columns rows colors chars-per-pixel */
"64 64 160 2 ",
"   c #030301",
".  c #090702",
"X  c #0C0B03",
"o  c #151204",
"O  c #1D1A06",
"+  c #201F07",
"@  c #232107",
"#  c #262408",
"$  c #2A2708",
"%  c #2D2A09",
"&  c #312E0A",
"*  c #34320B",
"=  c #39370C",
"-  c #3C3A0D",
";  c #413E0D",
":  c #44420E",
">  c #49450F",
",  c #4C490F",
"<  c #4A4710",
"1  c #4D4B10",
"2  c #514E11",
"3  c #565312",
"4  c #595613",
"5  c #5E5B14",
"6  c #635E15",
"7  c #656115",
"8  c #6A6516",
"9  c #6D6A16",
"0  c #6F6D18",
"q  c #716C17",
"w  c #726E18",
"e  c #75721A",
"r  c #7A751A",
"t  c #7D791A",
"y  c #55572C",
"u  c #595E39",
"i  c #646327",
"p  c #706F21",
"a  c #7E7C22",
"s  c #73732A",
"d  c #7D7D2B",
"f  c #646937",
"g  c #666B3B",
"h  c #7C7D31",
"j  c #595F49",
"k  c #4F5E5C",
"l  c #566149",
"z  c #5E684C",
"x  c #586558",
"c  c #606548",
"v  c #747B4D",
"b  c #65725F",
"n  c #667769",
"m  c #657A7D",
"M  c #6B7D72",
"N  c #807A15",
"B  c #827D1B",
"V  c #77845E",
"C  c #7E8B5E",
"Z  c #798675",
"A  c #86821C",
"S  c #8A851D",
"D  c #8E8A1E",
"F  c #928D1F",
"G  c #95901F",
"H  c #9F981F",
"J  c #969221",
"K  c #9A9521",
"L  c #9D9922",
"P  c #95942E",
"I  c #878936",
"U  c #8A8D3D",
"Y  c #95973C",
"T  c #A29D23",
"R  c #A5A124",
"E  c #AAA524",
"W  c #AEAA25",
"Q  c #B1AD26",
"!  c #B6B227",
"~  c #B9B425",
"^  c #BAB529",
"/  c #BDB929",
"(  c #BCB825",
")  c #ACA930",
"_  c #A2A13B",
"`  c #B2B131",
"'  c #C3BE2A",
"]  c #C6C22A",
"[  c #CAC62B",
"{  c #CDC92C",
"}  c #D1CE2D",
"|  c #D1CC27",
" . c #D5D12E",
".. c #D9D52E",
"X. c #DDD92F",
"o. c #C9C634",
"O. c #DEDA30",
"+. c #DAD530",
"@. c #E2DE31",
"#. c #EBE62B",
"$. c #F4EE2F",
"%. c #F7F12F",
"&. c #E5E232",
"*. c #EAE632",
"=. c #EDEB33",
"-. c #F1ED33",
";. c #F5F235",
":. c #F9F636",
">. c #FFFB37",
",. c #FFFE38",
"<. c #878A4C",
"1. c #8D9244",
"2. c #9B9C46",
"3. c #848A59",
"4. c #999B50",
"5. c #979B5B",
"6. c #B1B140",
"7. c #979D6A",
"8. c #8E9978",
"9. c #6E878F",
"0. c #7C8D8A",
"q. c #738A94",
"w. c #7D989D",
"e. c #7995A1",
"r. c #7A96A8",
"t. c #7E99A3",
"y. c #899D96",
"u. c #879B9E",
"i. c #9EAA85",
"p. c #8CA29D",
"a. c #98A597",
"s. c #819DA2",
"d. c #809DB5",
"f. c #93ABAB",
"g. c #85A5B7",
"h. c #85A6BB",
"j. c #8CABBA",
"k. c #99B0B4",
"l. c #93B4BF",
"z. c #A0B5B9",
"x. c #90B2C4",
"c. c #99B6C6",
"v. c #9CC1D7",
"b. c #9FC2D8",
"n. c #A9C4CE",
"m. c #A0C5D6",
"M. c #ABC6D0",
"N. c #A3CADE",
"B. c #B3CEDE",
"V. c #BCDDED",
"C. c #B9D6E3",
"Z. c #B5DBF0",
"A. c #BEE1F2",
"S. c #BEE6F9",
"D. c #C4E5F4",
"F. c #C8E8F6",
"G. c #C0E6FA",
"H. c #C4E9FB",
"J. c #CAECFC",
"K. c None",
/* pixels */
"K.K.K.K.K.K.K.K.K.K.K.K.K.K.K.K.K.K.K.K.K.K.K.K.K.K.K.K.K.K.K.K.K.K.K.K.K.K.K.K.K.K.K.K.K.K.K.K.K.K.K.K.K.K.K.K.K.K.K.K.K.K.K.K.",
"K.K.K.K.K.K.K.K.K.K.K.K.K.K.K.K.K.K.K.K.K.K.K.K.K.K.K.K.K.K.K.K.K.K.K.K.K.K.K.K.K.K.K.K.K.K.K.K.K.K.K.K.K.K.K.K.K.K.K.K.K.K.K.K.",
"K.K.K.K.K.K.K.K.K.K.K.K.K.K.K.K.K.K.K.K.K.K.K.K.K.K.K.K.K.K.K.K.K.K.K.K.K.K.K.K.K.K.K.K.K.K.K.K.K.K.K.K.K.K.K.K.K.K.K.K.K.K.K.K.",
"K.K.K.K.K.K.K.K.K.K.K.K.K.K.K.K.K.K.K.K.K.K.K.K.K.K.K.K.K.K.K.K.K.K.K.K.K.K.K.K.K.K.K.K.K.K.K.K.K.K.K.K.K.K.K.K.K.K.K.K.K.K.K.K.",
"K.K.K.K.K.K.K.K.K.K.K.K.K.K.K.K.K.K.K.K.K.K.K.K.K.K.K.K.K.K.K.K.K.K.K.K.K.K.K.K.K.K.K.K.K.K.K.K.K.K.K.K.K.K.K.K.K.K.K.K.K.K.K.K.",
"K.K.K.K.K.K.K.K.K.K.K.K.K.K.K.K.K.K.K.K.K.K.K.K.K.K.K.K.K.K.K.K.K.K.K.K.K.K.K.K.K.K.K.K.K.K.K.K.K.K.K.K.K.K.K.K.K.K.K.K.K.K.K.K.",
"K.K.K.K.K.K.K.K.K.K.K.K.K.K.K.K.K.K.K.K.K.& 8 < 3 S E : > : K.K.K.K.K.K.K.K.K.K.K.K.K.K.K.K.K.K.K.K.K.K.K.K.K.K.K.K.K.K.K.K.K.K.",
"K.K.K.K.K.K.K.K.K.K.K.K.K.+ K.K.K.* 5 r E }  .*.:.=.&.*.=.] L r 7 7 K.K.K.K.K.K.K.K.K.K.K.K.K.K.K.K.K.K.K.K.K.K.K.K.K.K.K.K.K.K.",
"K.K.K.K.K.K.K.K.K.K.K.K.3 D % 8 S ] &.>.,.,.,.,.>.,.,.>.>.,.,.,.&.! A 4 * K.K.K.K.K.K.K.K.K.K.K.K.K.K.K.K.K.K.K.K.K.K.K.K.K.K.K.",
"K.K.K.K.K.K.K.K.K.K.K.e ' &.9 F >.,.,.>.>.>.>.>.>.>.>.>.>.>.>.>.,.,.,.=.W 2 K.K.K.K.K.K.K.K.K.K.K.K.K.K.K.K.K.K.K.K.K.K.K.K.K.K.",
"K.K.K.K.K.K.K.K.K.K.O Q ;.,.! F *.,.>.>.>.>.>.>.>.>.>.>.>.>.>.>.>.>.,.>.:.+.L 2 o K.K.K.K.K.K.K.K.K.K.K.K.K.K.K.K.K.K.K.K.K.K.K.",
"K.K.K.K.K.K.K.K.K.K.3 *.,.>.-.A ^ ,.>.>.>.>.>.>.>.>.>.>.>.>.>.>.>.>.>.>.,.,.,.] 5 K.K.K.K.K.K.K.K.K.K.K.K.K.K.K.K.K.K.K.K.K.K.K.",
"K.K.K.K.K.K.K.K.K.K.W ,.,.>.,.' e @.,.>.>.>.>.>.>.>.>.>.>.>.>.>.>.>.>.>.>.>.>.>.} e O K.K.K.K.K.K.K.K.K.K.K.K.K.K.K.K.K.K.K.K.K.",
"K.K.K.K.K.K.K.K.. F =.,.>.>.,.;.L E :.,.>.>.>.>.>.>.>.>.>.>.>.>.>.>.>.>.>.>.>.>.,.=.L - K.K.K.K.K.K.K.K.K.K.K.K.K.K.K.K.K.K.K.K.",
"K.K.K.K.K.K.K.K.= @.,.>.>.>.>.,.@.D } >.>.>.>.>.>.>.>.>.>.>.>.>.>.>.>.>.>.>.>.>.,.,.=.t K.K.K.K.K.K.K.K.K.K.K.K.K.K.K.K.K.K.K.K.",
"K.K.K.K.K.K.K.K.D ,.,.>.>.>.>.>.:.! K ;.>.>.>.>.>.>.>.>.>.>.>.>.>.>.>.>.>.>.>.>.>.>.,.O.9 . K.K.K.K.K.K.K.K.K.K.K.K.K.K.K.K.K.K.",
"K.K.K.K.K.K.K.B  .,.,.>.>.>.>.>.>.*.K [ ,.>.>.>.>.>.>.>.>.>.>.>.>.>.>.>.>.>.>.>.>.>.>.,.X.4 . K.K.K.K.K.K.K.K.K.K.K.K.K.K.K.K.K.",
"K.K.K.K.K.K.o E :.>.>.>.>.>.>.>.>.,.^ D &.,.>.>.>.,.>.>.>.>.>.>.>.>.>.>.>.>.>.>.>.>.>.>.,.{ ; X K.K.K.K.K.K.K.K.K.K.K.K.K.K.K.K.",
"K.K.K.K.K.K.; ..,.>.>.>.>.>.>.>.>.,.-.D W :.>.,.,.,.>.,.,.>.>.>.>.>.>.>.>.>.>.>.>.>.>.>.>.>.F < * K.K.K.K.K.K.K.K.K.K.K.K.K.K.K.",
"K.K.K.K.K.+ D :.,.>.>.>.>.>.>.>.>.>.,.+.A [ :.*.{ O.;.-.;.>.,.>.>.>.>.>.>.>.>.>.>.>.>.>.>.,.O.B L S K.K.K.K.K.K.K.K.K.K.K.K.K.K.",
"K.K.K.K.K.-  .>.>.>.>.>.>.>.>.>.>.>.,.=.A 3 B B J A r B E +.:.,.,.>.>.>.>.>.>.>.>.>.>.>.>.>.:.E D ] 9 K.K.K.K.K.K.K.K.K.K.K.K.K.",
"K.K.K.K.K.4 :.>.>.>.>.>.>.>.>.>.,.,.O.K r : , A ~ @.*.] S 4 p ' -.,.>.>.>.>.>.>.>.>.>.>.>.>.,.O.F } &.D & K.K.K.K.K.K.K.K.K.K.K.",
"K.K.K.K.K.D ,.>.>.>.>.>.>.>.>.>.>.' t E ..=.{ ~ / } *.>.-.1.m 3.^ >.,.>.>.>.>.>.>.>.>.>.>.>.>.>.K ! >.:.T 1 K.K.K.K.K.K.K.K.K.K.",
"K.K.K.K.7  .,.>.>.>.>.>.>.>.,.:.{ t / :.,.,.,.=.} T a / *.U x.h.j H ;.,.>.>.>.>.>.>.>.>.>.>.>.,. .D ;.>.-.E 1 K.K.K.K.K.K.K.K.K.",
"K.K.K.K.w :.,.>.>.>.>.>.>.>.,./ G ( >.,.>.>.>.,.,.>.+.^ E s c.H.x.l W :.>.>.>.>.>.>.>.>.>.>.>.,.*.D } ,.,.,. .r & K.K.K.K.K.K.K.",
"K.K.K.K.F ,.>.>.>.>.>.>.>.>.;.B ' :.,.>.>.>.>.>.>.>.>.&.E i q.D.J.j.g  .>.>.>.>.>.>.>.>.>.>.>.>.:.T ! >.>.>.>.O.D K.K.K.K.K.K.K.",
"K.K.K.7 / ,.>.>.>.>.>.>.>.:.] A :.>.>.>.>.>.>.>.>.>.>.,.,.} <.z.F.Z.m S >.>.>.>.>.>.>.>.>.>.>.>.>.E Q ;.,.>.>.>.*.F % K.K.K.K.K.",
"K.K.K.9 =.>.>.>.>.>.>.>.,.&.L W ,.>.>.>.>.>.>.>.>.>.>.>.,.:.{ 3.n.J.j.f ..>.>.>.>.>.>.>.>.>.>.>.,...D >.>.>.>.>.,.>.W 7 K.K.K.K.",
"K.K.K.q ,.>.>.>.>.>.>.>.,.} L @.,.>.>.>.>.>.>.>.>.>.>.>.>.>.>.! Z D.V.k ^ >.>.>.>.>.>.>.>.>.>.>.,. .D *.,.>.>.>.>.,.:.^ 3 K.K.K.",
"K.K.K.D ,.>.>.>.>.>.>.>.>.' F ,.>.>.>.>.>.>.>.>.>.>.>.>.>.>.>.-.2.l.S.q.t >.>.>.>.>.>.>.>.>.>.>.>.+.K ..,.>.>.>.>.>.>.,.} 9 O K.",
"K.K.& ' >.>.>.>.>.>.>.>.:./ K ,.>.>.>.>.>.>.>.>.>.>.>.>.>.>.>.,.W p.H.t.d :.>.>.>.>.>.>.>.>.>.>.>.;.t *.>.>.>.>.>.>.>.,.,.*.J K.",
"K.K.$ O.>.>.>.>.>.>.>.>.,.T Q >.>.>.>.>.>.>.>.>.>.>.>.>.>.>.>.,.^ y.D.r.I #.>.>.>.>.>.>.>.>.>.>.,.=.D &.>.>.>.>.>.>.>.>.>.,.[ * ",
"K.K.> *.,.>.>.>.>.>.>.>.,.E W :.>.>.>.>.>.>.>.>.>.>.>.>.>.>.>.>.o.0.F.g.p :.,.>.>.>.>.>.>.>.>.>.,.O.T } ,.,.,.>.>.>.>.>.:.,.[ O ",
"K.K.9 *.,.>.>.>.>.>.>.>.>.[ S >.>.>.>.>.>.>.>.>.>.>.>.>.>.>.>.;.` u.S.s.e ,.>.>.>.>.>.>.>.>.>.>.,.&.6 B { -.>.,.>.,.>.,.,.:.L   ",
"K.K.T ;.,.>.>.>.>.>.>.>.>.{ A X.,.>.>.>.>.>.>.>.>.>.>.>.>.>.>.#.7.n.Z.M L >.>.>.>.>.>.>.>.>.>.>.>.@.% K.- 1 e W O.:.,.,.,.=.5   ",
"K.K.F ,.>.>.>.>.>.>.>.>.>.;.A / ,.>.>.>.>.>.>.>.>.>.>.>.>.>.>.[ a.D.v.g &.>.>.>.>.>.>.>.>.>.>.>.>.] * K.K.K.K.- : 5 F [ ;.+.$ K.",
"K.K.K ,.>.>.>.>.>.>.>.>.>.>./ K -.,.,.,.>.>.>.,.>.>.>.>.>.%.o.7.B.A.w.t ,.>.>.>.>.>.>.>.>.>.>.>.,.J K.K.K.K.K.K.K.K.K.- 1 3 . K.",
"K.@ Q ,.>.>.>.>.>.>.>.>.>.>.=.B T [ } =.,.>.:.>.>.>.$.:..._ 8.n.H.j.v ~ ,.>.>.>.>.>.>.>.>.>.>.>.,.r K.K.K.K.K.K.K.K.K.K.K.K.K.K.",
"K.o ^ >.>.>.>.>.>.>.>.,.>.&.W w * w E T T ) { o.! L Y 4.i.k.V.J.b.n ` -.,.>.>.>.>.>.>.>.>.>.>.>.=.7 K.K.K.K.K.K.K.K.K.K.K.K.K.K.",
"K.K.Q ,.>.>.>.>.>.,.,.*.] r F ] / r J } &.} / ] E z r.C.V.H.S.m.n K :.>.>.>.>.>.>.>.>.>.>.>.>.,.Q < K.K.K.K.K.K.K.K.K.K.K.K.K.K.",
"K.2 W ,.>.>.>.,.>.:.] J S ] *.,.>.' S E O.>.,.;.Y f.V.H.S.N.e.z P =.>.>.>.>.>.>.>.>.>.>.>.>.,.:.0 K.K.K.K.K.K.K.K.K.K.K.K.K.K.K.",
"K.+ ] ,.>.,.,.;.{ F S W =.,.,.>.>.;.o.S e T  .! x x.m.h.9.n h ] $.>.>.>.>.>.>.>.>.>.>.>.>.>.,. .* K.K.K.K.K.K.K.K.K.K.K.K.K.K.K.",
"K.# [ ,.,.,. .L r W &.>.,.>.>.>.>.,.,.>.X.E B 6 y V u s P ( -.>.>.>.>.>.>.>.>.>.>.>.>.>.>.,.=.F . K.K.K.K.K.K.K.K.K.K.K.K.K.K.K.",
"K.K.! ,.@.E B J O.>.>.>.>.>.>.>.>.>.>.>.>.:.:.=.| | *.-.:.>.>.>.>.>.>.>.>.>.>.>.>.>.>.>.>.,.! w e J K.K.K.K.K.K.K.K.K.K.K.K.K.K.",
"K.; T T 6 F { :.>.>.>.>.>.>.>.>.>.>.>.>.>.>.>.>.,.,.>.,.>.>.>.>.>.>.>.>.>.>.>.>.>.>.>.>.>.:.9 W -.&./ R J D K.K.K.K.K.K.K.K.K.K.",
"K.X ; O + E ,.,.>.>.>.>.>.>.>.>.>.>.>.>.>.>.>.>.>.>.>.>.>.>.>.>.>.>.>.>.>.>.>.>.>.>.>.>.;.~ 8 *.,.,.,.,.;.{ W K F K.K.K.K.K.K.K.",
"K.K.K.K.K.1 ' >.>.>.>.>.>.>.>.>.>.>.>.>.>.>.>.>.>.>.>.>.>.>.>.>.>.>.>.>.>.>.>.>.>.>.>.>./ A Q ,.,.>.>.>.,.,.,.>.@./ D @ K.K.K.K.",
"K.K.K.K.K.K.A  .>.>.>.>.>.>.>.>.>.>.>.>.>.>.>.>.>.>.>.>.>.>.>.>.>.>.>.>.>.>.>.>.>.>.,. .7 W =.,.>.>.>.>.>.>.>.,.,.,.^ @ K.K.K.K.",
"K.K.K.K.K.K.K.q O.,.,.>.>.>.>.>.>.>.>.>.>.>.>.>.>.>.>.>.>.>.>.>.>.>.>.>.>.>.>.>.>.>.&.r A ;.>.>.>.>.>.>.>.>.>.>.,.;.t O K.K.K.K.",
"K.K.K.K.K.K.K.X 4 [ :.>.,.>.>.>.>.>.>.>.>.>.>.>.>.>.>.>.>.>.>.>.>.>.>.>.>.>.>.,.>.{ D S &.,.>.>.>.>.>.>.>.>.>.>.,.*.< K.K.K.K.K.",
"K.K.K.K.K.K.K.K.K.5 [ >.,.>.>.>.>.>.>.>.>.>.>.>.>.>.>.>.>.>.>.>.>.>.>.>.>.>.,.>.] w T &.,.>.>.>.>.,.>.>.,.,.,.,.,.{ # K.K.K.K.K.",
"K.K.K.K.K.K.K.K.K.X > E *.>.>.>.>.>.>.>.>.>.>.>.>.>.>.>.>.>.>.>.>.>.>.>.>.>.:.' q E ;.,.>.,.,.,.,.,.:.,.:.=.=. .Q S O K.K.K.K.K.",
"K.K.K.K.K.K.K.K.K.K.K.* 9 [ ,.,.,.,.>.>.>.>.>.>.>.>.>.>.>.>.>.>.>.>.,.,.:.} L B / >.>.>.,.*.&. .! W T S e A 1 K.2 K.K.K.K.K.K.K.",
"K.K.K.K.K.K.K.K.K.K.K.K.K.3 S ! =.:.,.,.,.>.>.>.>.>.>.>.>.>.>.,.,.,.:. .A w A / ' T R D 7 e 4 = K.# . K.K.K.K.K.K.K.K.K.K.K.K.K.",
"K.K.K.K.K.K.K.K.K.K.K.K.K.K.K.* r ] *.;.:.,.,.,.>.,.,.,.>.,.,.;.-.! B = X - B : K.K.X K.K.K.K.K.K.K.K.K.K.K.K.K.K.K.K.K.K.K.K.K.",
"K.K.K.K.K.K.K.K.K.K.K.K.K.K.K.K.. # : r Q [ [ { @.&.} }  .Q D F 1 & X   K.K.K.K.K.K.K.K.K.K.K.K.K.K.K.K.K.K.K.K.K.K.K.K.K.K.K.K.",
"K.K.K.K.K.K.K.K.K.K.K.K.K.K.K.K.K.K.K.O # @ K.w > : K.3 $ K.@ K.K.K.K.K.K.K.K.K.K.K.K.K.K.K.K.K.K.K.K.K.K.K.K.K.K.K.K.K.K.K.K.K.",
"K.K.K.K.K.K.K.K.K.K.K.K.K.K.K.K.K.K.K.K.K.K.K.K.K.K.K.K.K.K.K.K.K.K.K.K.K.K.K.K.K.K.K.K.K.K.K.K.K.K.K.K.K.K.K.K.K.K.K.K.K.K.K.K.",
"K.K.K.K.K.K.K.K.K.K.K.K.K.K.K.K.K.K.K.K.K.K.K.K.K.K.K.K.K.K.K.K.K.K.K.K.K.K.K.K.K.K.K.K.K.K.K.K.K.K.K.K.K.K.K.K.K.K.K.K.K.K.K.K.",
"K.K.K.K.K.K.K.K.K.K.K.K.K.K.K.K.K.K.K.K.K.K.K.K.K.K.K.K.K.K.K.K.K.K.K.K.K.K.K.K.K.K.K.K.K.K.K.K.K.K.K.K.K.K.K.K.K.K.K.K.K.K.K.K.",
"K.K.K.K.K.K.K.K.K.K.K.K.K.K.K.K.K.K.K.K.K.K.K.K.K.K.K.K.K.K.K.K.K.K.K.K.K.K.K.K.K.K.K.K.K.K.K.K.K.K.K.K.K.K.K.K.K.K.K.K.K.K.K.K.",
"K.K.K.K.K.K.K.K.K.K.K.K.K.K.K.K.K.K.K.K.K.K.K.K.K.K.K.K.K.K.K.K.K.K.K.K.K.K.K.K.K.K.K.K.K.K.K.K.K.K.K.K.K.K.K.K.K.K.K.K.K.K.K.K.",
"K.K.K.K.K.K.K.K.K.K.K.K.K.K.K.K.K.K.K.K.K.K.K.K.K.K.K.K.K.K.K.K.K.K.K.K.K.K.K.K.K.K.K.K.K.K.K.K.K.K.K.K.K.K.K.K.K.K.K.K.K.K.K.K.",
"K.K.K.K.K.K.K.K.K.K.K.K.K.K.K.K.K.K.K.K.K.K.K.K.K.K.K.K.K.K.K.K.K.K.K.K.K.K.K.K.K.K.K.K.K.K.K.K.K.K.K.K.K.K.K.K.K.K.K.K.K.K.K.K."
};
