/* XPM */
static char *_0[] = {
/* columns rows colors chars-per-pixel */
"64 64 161 2 ",
"   c #010100",
".  c #080601",
"X  c #0C0A02",
"o  c #141304",
"O  c #1C1A06",
"+  c #1A1705",
"@  c #201E06",
"#  c #242207",
"$  c #292608",
"%  c #2B2909",
"&  c #302E0A",
"*  c #35330B",
"=  c #38360C",
"-  c #3C3A0D",
";  c #403F0E",
":  c #44420E",
">  c #4A470F",
",  c #4C490F",
"<  c #4F4C11",
"1  c #524E11",
"2  c #555212",
"3  c #595613",
"4  c #5D5A14",
"5  c #625C14",
"6  c #666215",
"7  c #6A6516",
"8  c #6E6A17",
"9  c #6F6B18",
"0  c #706B17",
"q  c #726E18",
"w  c #757219",
"e  c #79751A",
"r  c #7E7A1A",
"t  c #747017",
"y  c #505124",
"u  c #575B30",
"i  c #525A3D",
"p  c #5C613C",
"a  c #666121",
"s  c #686A2F",
"d  c #696A23",
"f  c #7A7925",
"g  c #666B39",
"h  c #576143",
"j  c #586142",
"k  c #50605F",
"l  c #606644",
"z  c #646B43",
"x  c #707541",
"c  c #737C51",
"v  c #5D6C66",
"b  c #5F706A",
"n  c #5C7179",
"m  c #63766F",
"M  c #667976",
"N  c #827D1B",
"B  c #7B876A",
"V  c #7F8E7E",
"C  c #86811C",
"Z  c #8B851D",
"A  c #8E891E",
"S  c #928D1F",
"D  c #96921F",
"F  c #A19C1F",
"G  c #8F8D2B",
"H  c #948E22",
"J  c #969120",
"K  c #9A9521",
"L  c #9E9922",
"P  c #808132",
"I  c #878937",
"U  c #8A8B34",
"Y  c #A29D23",
"T  c #A19E2A",
"R  c #A5A223",
"E  c #AAA524",
"W  c #AEAA25",
"Q  c #A9A62B",
"!  c #AFAC29",
"~  c #B1AD26",
"^  c #B4AF2A",
"/  c #B5B127",
"(  c #B9B427",
")  c #BAB628",
"_  c #BEBA29",
"`  c #A2A33C",
"'  c #BCBC3A",
"]  c #C5BF26",
"[  c #C1BD29",
"{  c #C0BD33",
"}  c #C5C22A",
"|  c #C9C52B",
" . c #CDC92C",
".. c #C7C126",
"X. c #D1CD2D",
"o. c #D1CC27",
"O. c #D7D22E",
"+. c #D9D62F",
"@. c #DDD92F",
"#. c #D9D631",
"$. c #DDDA30",
"%. c #E1DD2F",
"&. c #E2DE31",
"*. c #EAE52D",
"=. c #EFE92E",
"-. c #F3EE2E",
";. c #E5E232",
":. c #E9E632",
">. c #EDEA33",
",. c #F1ED34",
"<. c #F5F335",
"1. c #F9F636",
"2. c #FFFB37",
"3. c #FFFE38",
"4. c #888C4F",
"5. c #8A9054",
"6. c #969952",
"7. c #8D997F",
"8. c #87967B",
"9. c #919F7E",
"0. c #97A27F",
"q. c #C0BF42",
"w. c #627881",
"e. c #6B8386",
"r. c #7E8E87",
"t. c #778F8D",
"y. c #7A928E",
"u. c #799195",
"i. c #7895A8",
"p. c #8D9A8C",
"a. c #869998",
"s. c #809295",
"d. c #9DA98C",
"f. c #9DAA93",
"g. c #8098A7",
"h. c #89A1A6",
"j. c #85A3B0",
"k. c #86A7BA",
"l. c #94B3B8",
"z. c #99B8C9",
"x. c #A1BBC3",
"c. c #9EC1D3",
"v. c #A5C0CD",
"b. c #A3C4D6",
"n. c #A0C4D8",
"m. c #AAC8D8",
"M. c #ABCDE1",
"N. c #ADD5E8",
"B. c #B6D3E2",
"V. c #B7DDEF",
"C. c #B5DAF0",
"Z. c #B9DEF3",
"A. c #BCE2F4",
"S. c #BFE5F8",
"D. c #C3E4F4",
"F. c #C4E8F7",
"G. c #C9E9F7",
"H. c #C0E6F8",
"J. c #CAEEFE",
"K. c #C6E9F9",
"L. c None",
/* pixels */
"L.L.L.L.L.L.L.L.L.L.L.L.L.L.L.L.L.L.L.L.L.L.L.L.L.L.L.L.L.L.L.L.L.L.L.L.L.L.L.L.L.L.L.L.L.L.L.L.L.L.L.L.L.L.L.L.L.L.L.L.L.L.L.L.",
"L.L.L.L.L.L.L.L.L.L.L.L.L.L.L.L.L.L.L.L.L.L.L.L.L.L.L.L.L.L.L.L.L.L.L.L.L.L.0 -   L.L.L.L.L.L.L.L.L.L.L.L.L.L.L.L.L.L.L.L.L.L.L.",
"L.L.L.L.L.L.L.L.L.L.L.L.L.L.L.L.L.L.L.L.L.L.L.L.L.L.L.L.L.L.L.L.L.L.L.L.1 Z #.$.H %   L.L.L.L.L.L.L.L.L.L.L.L.L.L.L.L.L.L.L.L.L.",
"L.L.L.L.L.L.L.L.L.L.L.L.L.L.L.L.L.L.L.L.L.L.L.L.L.L.L.L.L.L.L.L.L.L.L.3 ( 2.3.3.>. .t o   L.L.L.L.L.L.L.L.L.L.L.L.L.L.L.L.L.L.L.",
"L.L.L.L.L.L.L.L.L.L.L.L.L.L.L.L.L.L.L.L.L.L.L.L.L.L.L.L.L.L.L.L.L.O N @.2.3.2.1.3.2.;.2 L.L.L.L.L.L.L.L.L.L.L.L.L.L.L.L.L.L.L.L.",
"L.L.L.L.L.L.L.L.L.L.L.L.L.L.L.L.L.L.L.L.L.L.L.L.L.L.L.L.L.L.L.L.6 L ;.3.3.2.2.2.3.3._ - L.L.L.L.L.L.L.L.L.L.L.L.L.L.L.L.L.L.L.L.",
"L.L.L.L.L.L.L.L.L.L.L.L.L.L.L.L.L.L.L.L.L.L.L.L.L.L.L.L.L.L.L.0 } 2.3.2.2.2.2.2.3.<.4 L.L.L.L.L.L.L.L.L.L.L.L.L.L.L.L.L.L.L.L.L.",
"L.L.L.L.L.L.L.L.L.L.L.L.L.L.L.L.L.L.L.L.L.L.L.L.L.L.L.L.L.- C $.2.3.2.2.2.2.2.3.3.Y - L.L.L.L.L.L.L.L.L.L.L.L.L.L.L.L.L.L.L.L.L.",
"L.L.L.L.L.L.L.L.L.L.L.L.L.L.L.L.L.L.L.L.L.L.L.L.L.L.L.L.2 Y *.3.2.2.2.2.2.2.2.2.&.< L.L.L.L.L.L.L.L.L.L.L.L.L.L.L.L.L.L.L.L.L.L.",
"L.L.L.L.L.L.L.L.L.L.L.L.L.L.L.L.L.L.L.L.L.L.L.L.L.L.L.1 / 3.2.2.2.2.2.2.2.2.2.3.C - L.L.L.L.L.L.L.L.L.L.9 2 O L.L.L.L.L.L.L.L.L.",
"L.L.L.L.L.L.L.L.L.L.L.L.L.L.L.L.L.L.L.L.L.L.L.L.L.L.Z $.2.3.2.2.2.2.2.2.2.3.3. .: L.L.L.L.L.L.L.L.L.L.S } ,.L - O L.L.L.L.L.L.L.",
"L.L.L.L.L.L.L.L.L.L.L.L.L.L.L.L.L.L.L.L.L.L.L.L.2 R :.3.3.3.3.3.3.2.3.2.3.3.1.8 L.L.L.L.L.L.L.L.L.L.L.Y 3.3.1.$.r * L.L.L.L.L.L.",
"L.L.L.L.L.L.L.L.L.L.L.L.L.L.L.L.L.L.L.L.L.L.% 4 E &. .} _ W _ )  .O.$.1.1.3.) - L.L.L.L.L.L.L.L.L.L.H @.3.2.3.1.>.4 L.L.L.L.L.L.",
"L.L.L.L.L.L.L.L.L.L.L.L.L.L.L.L.L.L.L.L.L.  ; w C S Z L D E D ~ Z H Z A _ ~ 2 L.L.L.L.L.L.L.L.L.L.L.W 3.2.2.2.3.#.e L.L.L.L.L.L.",
"L.L.L.L.L.L.L.L.L.L.L.L.L.L.L.L.L.L.L.  + 2 r / | ;.1.1.3.1.3.<.2.&.:.| R K = + L.L.L.L.L.L.L.L.L.J >.3.2.2.2.2.:.2 L.L.L.L.L.L.",
"L.L.L.L.L.L.L.L.L.L.L.L.L.L.L.L.L.L.- 1 L :.1.3.3.3.2.3.2.2.2.2.2.3.2.3.3.>.+.Z 1 L.L.L.L.L.L.L.H _ 3.3.2.2.2.3.} < L.L.L.L.L.L.",
"L.L.L.L.L.L.L.L.L.L.L.L.L.L.L.L.L.< E >.1.3.3.2.2.2.2.2.2.2.2.2.2.2.2.2.2.3.2.2.&.J 6 L.L.L.L.L.K 1.3.3.2.2.2.3.[ L.L.L.L.L.L.L.",
"L.L.L.L.L.L.L.L.L.L.L.L.L.L.L.* R &.3.3.3.3.2.2.2.2.2.2.2.2.2.2.2.2.2.2.2.2.2.2.3.3.X.7 = L.L.H  .3.2.2.2.2.2.3.R # L.L.L.L.L.L.",
"L.L.L.L.L.L.L.L.L.L.L.L.L.X e ) 3.3.2.2.2.2.2.2.2.2.2.2.2.2.2.2.2.2.2.2.2.2.2.2.2.2.3.<.L % # R 3.2.2.2.2.2.3.1.K L.L.L.L.L.L.L.",
"L.L.L.L.L.L.L.L.L.L.L.L.L.7 $.3.2.2.2.2.2.2.2.2.2.2.2.2.2.2.2.2.2.2.2.2.2.2.2.2.2.2.2.2.1.) 6 H >.3.2.2.2.2.2.2.w   L.L.L.L.L.L.",
"L.L.L.L.L.L.L.L.L.L.L.o J $.3.2.2.2.2.2.2.2.2.2.2.2.2.2.2.2.2.2.2.2.2.2.2.2.2.2.2.2.2.2.3.<.~ t / 3.3.2.2.2.3.<.5 L.L.L.L.L.L.L.",
"L.L.L.L.L.L.L.L.L.L.% e $.3.2.2.2.2.2.2.2.2.2.2.2.2.2.2.2.2.2.2.2.2.2.2.2.2.2.2.2.2.2.2.2.3.3.} 6 Y <.3.2.2.3.&.Z L.L.L.L.L.L.L.",
"L.L.L.L.L.L.L.L.L.L.4 :.2.3.2.2.2.2.2.2.2.2.2.2.2.2.2.2.2.2.2.2.2.2.2.2.2.2.2.2.2.2.2.2.2.2.2.1._ N  .3.2.2.3.&.= L.L.L.L.L.L.L.",
"L.L.L.L.L.L.L.L.L.5 } 3.2.2.2.2.2.2.2.2.2.2.2.2.2.2.2.2.2.2.2.2.2.2.2.2.2.2.2.2.2.2.2.2.2.2.2.2.1.K 6 O.3.2.3.} 8 L.L.L.L.L.L.L.",
"L.L.L.L.L.L.L.L.L.A 3.3.2.2.2.2.2.2.2.2.2.2.2.2.2.2.2.2.2.2.2.2.2.2.2.2.2.2.2.2.2.2.2.2.2.2.2.2.3.>.Z Y 1.3.2.} @ L.L.L.L.L.L.L.",
"L.L.L.L.L.L.L.L.7 ;.3.2.2.2.2.2.2.2.2.2.2.2.2.2.2.2.2.2.3.2.3.2.2.2.2.2.2.2.2.2.2.2.2.2.2.2.2.2.2.3.| 7 } 3.3.R = L.L.L.L.L.L.L.",
"L.L.L.L.L.L.L.5 Y 3.2.2.2.2.2.2.2.2.2.2.2.2.2.3.3.3.2.,.@.%.o.>.:.3.3.2.2.2.2.2.2.2.2.2.2.2.2.2.2.2.1.K A 1.2.L o L.L.L.L.L.L.L.",
"L.L.L.L.L.L.L.t <.3.2.2.2.2.2.2.2.2.2.2.2.2.2.3.<...K d g i l u I Z } 1.2.2.2.2.2.2.2.2.2.2.2.2.2.2.3.$.w | 3.w . L.L.L.L.L.L.L.",
"L.L.L.L.L.L.: W 3.2.2.2.2.2.2.2.2.2.2.2.2.3.1.| G j w.j.z.b.b.x.i.t.j e %.3.3.2.2.2.2.2.2.2.2.2.2.2.3.<.J S ;.r L.L.L.L.L.L.L.L.",
"L.L.L.L.L.L.3 1.2.2.2.2.2.2.2.2.2.2.2.2.3.<.( p u.z.H.J.G.D.V.C.F.A.c.y.s E <.3.2.2.2.2.2.2.2.2.2.2.2.3.@.N X.e L.L.L.L.L.L.L.L.",
"L.L.L.L.L.L.K 1.2.2.2.2.2.2.2.2.2.2.2.2.2.K B k.H.J.G.x.a.p.B 8.u.x.D.V.k.c ~ 1.2.2.2.2.2.2.2.2.2.2.2.3.1.H K 4 L.L.L.L.L.L.L.L.",
"L.L.L.L.L.L. .3.2.2.2.2.2.2.2.2.2.2.2.1.[ y n l.b.z.p.4.Q  .%.] { 5.s.B.D.g.z o.3.2.2.2.2.2.2.2.2.2.2.2.2.R 0 6 L.L.L.L.L.L.L.L.",
"L.L.L.L.L.0 $.3.2.2.2.2.2.2.2.2.2.2.3.%.9 L q.N x l Q >.2.3.3.3.1.*.q.d.B.F.h.U :.3.2.2.2.2.2.2.2.2.2.2.3.} : O L.L.L.L.L.L.L.L.",
"L.L.L.L.L.6 2.3.2.2.2.2.2.2.2.2.2.2.1.E P 2.2.( A ..<.2.2.2.2.2.3.3.,._ f.D.M.v ! 3.2.2.2.2.2.2.2.2.2.2.3.:.; L.L.L.L.L.L.L.L.L.",
"L.L.L.L.X J 1.2.2.2.2.2.2.2.2.2.2.3.,.e @.1.) W X.3.2.2.2.2.2.2.2.2.3.,.6.m.J.j.f 2.2.2.2.2.2.2.2.2.2.2.3.,.7   L.L.L.L.L.L.L.L.",
"L.L.L.L.L.Y 3.2.2.2.2.2.2.2.2.2.3.3.( D =.O.f ;.1.3.2.2.2.2.2.2.2.2.2.2.! h.J.z.z X.3.2.2.2.2.2.2.2.2.2.2.3.w L.L.L.L.L.L.L.L.L.",
"L.L.L.L.+ / 3.2.2.2.2.2.2.2.2.2.2.1.Y E  .~  .3.2.2.2.2.2.2.2.2.2.2.2.3.X.d.A.N.m [ 3.2.2.2.2.2.2.2.2.2.2.2.S X L.L.L.L.L.L.L.L.",
"L.L.L.L.L.E 3.2.2.2.2.2.2.2.2.2.2.2.L r ~ } 3.3.2.2.2.2.2.2.2.2.2.2.2.3.:.d.A.A.M ! 3.2.2.2.2.2.2.2.2.2.2.2.K L.L.L.L.L.L.L.L.L.",
"L.L.L.L.+ _ 2.2.2.2.2.2.2.2.3.3.3.<.N 2 / >.3.2.2.2.2.2.2.2.2.2.2.2.2.3.| 9.A.V.e.E 2.2.2.2.2.2.2.2.2.2.2.2.L L.L.L.L.L.L.L.L.L.",
"L.L.L.L.% R 3.2.2.2.2.2.3.2.2.>.| D - 6 ,.3.2.2.2.2.2.2.2.2.2.2.2.2.2.2.| m m.V.m R 2.2.2.2.2.2.2.2.2.2.2.3.r L.L.L.L.L.L.L.L.L.",
"L.L.L.L.L.E 3.3.3.3.3.1.+.| Y Z A A N R 1.3.2.2.2.2.2.2.2.2.2.2.2.2.2.3.E a s.b.m } 2.2.2.2.2.2.2.2.2.2.2.1.J L.L.L.L.L.L.L.L.L.",
"L.L.L.L.L.H 3.1.>.X.^ D A L ~ X.>.3.( A <.3.2.2.2.2.2.2.2.2.2.2.2.2.3.<.[  .T k g o.3.2.2.2.2.2.2.2.2.2.2.2.4 L.L.L.L.L.L.L.L.L.",
"L.L.L.L.L.9 ~ K Z r L } &.<.3.3.3.2.@.N +.3.2.2.2.2.2.2.2.2.2.2.2.2.2.,.^ $.>.H 7 1.2.2.2.2.2.2.2.2.2.2.3.+.7 L.L.L.L.L.L.L.L.L.",
"L.L.L.L.% < r E  .:.<.3.3.2.2.2.2.3.1.R ~ 2.3.2.2.2.2.2.2.2.2.2.2.2.2.+.L 2.2.N _ 3.2.2.2.2.2.2.2.2.2.3.3. .L.L.L.L.L.L.L.L.L.L.",
"L.L.L.O A @.<.2.3.3.3.2.2.2.2.2.2.2.3.| e | 3.3.2.2.2.2.2.2.2.2.2.2.3.R X.1._ C <.2.2.2.2.2.2.2.2.2.2.2.3.E # L.L.L.L.L.L.L.L.L.",
"L.L.L.L.: [ 3.3.2.2.2.2.2.2.2.2.2.2.3.2./ D =.3.2.2.2.2.2.2.2.2.2.3.#.R &. .0 O.2.2.2.2.2.2.2.2.2.2.2.2.3.w L.L.L.L.L.L.L.L.L.L.",
"L.L.L.L.L.S  .3.2.2.2.2.2.2.2.2.2.2.2.3.>.D C @.3.3.2.2.2.2.2.2.3.2.E _ Y H E 3.2.2.2.2.2.2.2.2.2.2.2.3.X.C L.L.L.L.L.L.L.L.L.L.",
"L.L.L.L.L.L.3 #.3.2.2.2.2.2.2.2.2.2.2.2.3.<.( C / ,.3.2.3.3.3.3.3.@.A r q _ 1.3.2.2.2.2.2.2.2.2.2.3.3.1._ L.L.L.L.L.L.L.L.L.L.L.",
"L.L.L.L.L.L.L.9  .3.3.2.2.2.2.2.2.2.2.2.2.2.>._ E A ( :.%.<.:.:.X.K * K O.1.3.2.2.2.2.2.2.2.2.2.2.2.3.,.w X L.L.L.L.L.L.L.L.L.L.",
"L.L.L.L.L.L.L.L.9 $.3.2.2.2.2.2.2.2.2.2.2.2.3.1.@.} K N L r C q H H 0 &.3.2.2.2.2.2.2.2.2.2.2.2.2.3.2.| * L.L.L.L.L.L.L.L.L.L.L.",
"L.L.L.L.L.L.L.L.X 2 X.3.3.2.2.2.2.2.2.2.2.2.2.2.3.1.1.:.O.+.} @.,.>.N } 2.2.2.2.2.2.2.2.2.2.2.2.3.3.>.5 L.L.L.L.L.L.L.L.L.L.L.L.",
"L.L.L.L.L.L.L.L.L.L.9 ~ 1.3.2.2.2.2.2.2.2.2.2.2.2.3.2.3.3.3.3.2.3.1.J L 2.2.2.2.2.2.2.2.2.2.2.2.3.<.E $ L.L.L.L.L.L.L.L.L.L.L.L.",
"L.L.L.L.L.L.L.L.L.L.L.S / ,.3.3.2.2.2.2.2.2.2.2.2.2.2.2.2.2.2.2.2.3.[ L 1.3.2.2.2.2.2.2.2.2.2.2.2.[ * L.L.L.L.L.L.L.L.L.L.L.L.L.",
"L.L.L.L.L.L.L.L.L.L.L.L.$ L ,.2.2.2.2.2.2.2.2.2.2.2.2.2.2.2.2.2.2.3.@.A :.3.2.2.2.2.2.2.2.2.2.3.} 7   L.L.L.L.L.L.L.L.L.L.L.L.L.",
"L.L.L.L.L.L.L.L.L.L.L.L.L.# 6 X.3.3.2.2.2.2.2.2.2.2.2.2.2.2.2.2.2.3.,.N } 2.2.2.2.2.2.2.2.3.3.:.w L.L.L.L.L.L.L.L.L.L.L.L.L.L.L.",
"L.L.L.L.L.L.L.L.L.L.L.L.L.L.L.: A <.3.2.2.2.2.2.2.2.2.2.2.2.2.2.2.3.1.L Y 2.2.2.2.2.2.2.3.3.:.0 L.L.L.L.L.L.L.L.L.L.L.L.L.L.L.L.",
"L.L.L.L.L.L.L.L.L.L.L.L.L.L.L.L.2 w ) 3.3.3.2.2.2.2.2.2.2.2.2.2.2.2.3._ S <.3.2.2.2.2.3.3. .S o L.L.L.L.L.L.L.L.L.L.L.L.L.L.L.L.",
"L.L.L.L.L.L.L.L.L.L.L.L.L.L.L.L.L.L.6 N X.3.3.2.2.2.2.2.2.2.2.2.2.2.3.$.r ;.2.2.2.3.3.1.X.3 L.L.L.L.L.L.L.L.L.L.L.L.L.L.L.L.L.L.",
"L.L.L.L.L.L.L.L.L.L.L.L.L.L.L.L.L.L.L.L.9 A &.3.2.2.2.3.2.2.2.2.2.2.2.<.Z ) 3.2.3.3.,.J > X L.L.L.L.L.L.L.L.L.L.L.L.L.L.L.L.L.L.",
"L.L.L.L.L.L.L.L.L.L.L.L.L.L.L.L.L.L.L.L.L.L.: A $.,.2.3.2.2.2.2.2.2.2.2.R K 3.3.,./ 0 # L.L.L.L.L.L.L.L.L.L.L.L.L.L.L.L.L.L.L.L.",
"L.L.L.L.L.L.L.L.L.L.L.L.L.L.L.L.L.L.L.L.L.L.L.$ & N _ #.3.3.2.3.2.2.2.3.| A &.| Z : L.L.L.L.L.L.L.L.L.L.L.L.L.L.L.L.L.L.L.L.L.L.",
"L.L.L.L.L.L.L.L.L.L.L.L.L.L.L.L.L.L.L.L.L.L.L.L.L.. * K J X.1.<.3.3.2.3.&.5 , ; L.L.L.L.L.L.L.L.L.L.L.L.L.L.L.L.L.L.L.L.L.L.L.L.",
"L.L.L.L.L.L.L.L.L.L.L.L.L.L.L.L.L.L.L.L.L.L.L.L.L.L.L.L.L.: 3 Y W ;.2.2.2.5 . L.L.L.L.L.L.L.L.L.L.L.L.L.L.L.L.L.L.L.L.L.L.L.L.L.",
"L.L.L.L.L.L.L.L.L.L.L.L.L.L.L.L.L.L.L.L.L.L.L.L.L.L.L.L.L.L.L.L.L.; 0 R ^ S O L.L.L.L.L.L.L.L.L.L.L.L.L.L.L.L.L.L.L.L.L.L.L.L.L."
};
