/* XPM */
static char *_2[] = {
/* columns rows colors chars-per-pixel */
"64 64 162 2 ",
"   c #010000",
".  c #080702",
"X  c #0C0A02",
"o  c #100E03",
"O  c #151304",
"+  c #181705",
"@  c #1E1B06",
"#  c #221F06",
"$  c #242207",
"%  c #292708",
"&  c #2D2B09",
"*  c #242208",
"=  c #322F0A",
"-  c #34320B",
";  c #39360C",
":  c #3D3B0D",
">  c #413E0D",
",  c #43410E",
"<  c #49450F",
"1  c #4C480F",
"2  c #4D4A10",
"3  c #514E11",
"4  c #555212",
"5  c #595513",
"6  c #5E5A14",
"7  c #625D14",
"8  c #666316",
"9  c #6A6516",
"0  c #6C6917",
"q  c #6A661A",
"w  c #726E18",
"e  c #757218",
"r  c #7A751A",
"t  c #7D781A",
"y  c #585F3A",
"u  c #53593B",
"i  c #5F6124",
"p  c #666224",
"a  c #686B2D",
"s  c #777621",
"d  c #787624",
"f  c #72732D",
"g  c #616738",
"h  c #6B6E3C",
"j  c #6D7138",
"k  c #505842",
"l  c #5B6441",
"z  c #556255",
"x  c #70774E",
"c  c #717C5A",
"v  c #58696A",
"b  c #576B71",
"n  c #5E7276",
"m  c #60726B",
"M  c #637573",
"N  c #827E1C",
"B  c #807F2B",
"V  c #7D854E",
"C  c #768058",
"Z  c #798459",
"A  c #78836C",
"S  c #6B807A",
"D  c #77867F",
"F  c #78877F",
"G  c #86811C",
"H  c #8A861D",
"J  c #8E891E",
"K  c #918C1F",
"L  c #95921F",
"P  c #9E981B",
"I  c #B1AD1F",
"U  c #8A8828",
"Y  c #938F22",
"T  c #969220",
"R  c #9A9521",
"E  c #9D9922",
"W  c #8C8B35",
"Q  c #A29D23",
"!  c #A19E2C",
"~  c #A19723",
"^  c #A6A224",
"/  c #AAA524",
"(  c #AEAA25",
")  c #A9A82F",
"_  c #B2AE26",
"`  c #B3AF2A",
"'  c #B5B127",
"]  c #BAB525",
"[  c #B4B028",
"{  c #BBB628",
"}  c #BDBA29",
"|  c #A3A330",
" . c #BDBA30",
".. c #C2BE2A",
"X. c #C2BF37",
"o. c #C5C12A",
"O. c #C9C52B",
"+. c #CDC92C",
"@. c #D2CE2D",
"#. c #D6D22E",
"$. c #D9D52E",
"%. c #DCD92F",
"&. c #CAC839",
"*. c #DEDA30",
"=. c #D3D135",
"-. c #E3DE2D",
";. c #E2DE30",
":. c #E5E02F",
">. c #EAE62E",
",. c #E4E131",
"<. c #E9E532",
"1. c #EEEB33",
"2. c #F1ED34",
"3. c #F5F335",
"4. c #F9F636",
"5. c #FFFB37",
"6. c #FFFE38",
"7. c #81864D",
"8. c #8E9342",
"9. c #808553",
"0. c #B9B841",
"q. c #B9BA53",
"w. c #8D9668",
"e. c #959E6E",
"r. c #869071",
"t. c #8A9679",
"y. c #607781",
"u. c #7D948E",
"i. c #768F9E",
"p. c #79939D",
"a. c #7C9AAA",
"s. c #879A9A",
"d. c #9EA988",
"f. c #87A5AF",
"g. c #8CA9AF",
"h. c #88A7B8",
"j. c #92ACBE",
"k. c #9DB3B5",
"l. c #89AEC8",
"z. c #92B3C2",
"x. c #99B8C1",
"c. c #95B9CB",
"v. c #9CBFD5",
"b. c #A3BBC5",
"n. c #A0BFD1",
"m. c #ABC2CB",
"M. c #ACC8D5",
"N. c #A4CCE0",
"B. c #AED4E8",
"V. c #B3D5E5",
"C. c #B3D6EB",
"Z. c #B7DBEE",
"A. c #BBDDF1",
"S. c #B6DDF1",
"D. c #BEE5F7",
"F. c #C5E7F6",
"G. c #C8E7F6",
"H. c #C6E8F7",
"J. c #C5E9FA",
"K. c #CBEDFC",
"L. c #C2E7FA",
"P. c None",
/* pixels */
"P.P.P.P.P.P.P.P.P.P.P.P.P.P.P.P.P.P.P.P.P.P.P.P.P.        P.P.P.P.P.P.P.P.P.P.P.P.P.P.P.P.P.P.P.P.P.P.P.P.P.P.P.P.P.P.P.P.P.P.P.",
"P.P.P.P.P.P.P.P.P.P.P.P.P.P.P.P.P.P.P.P.P.P.P.P.P.w Y N q 4 , O P.P.P.P.P.P.P.P.P.P.P.P.P.P.P.P.P.P.P.P.P.P.P.P.P.P.P.P.P.P.P.P.",
"P.P.P.P.P.P.P.P.P.P.P.P.P.P.P.P.P.P.P.P.P.P.P.P.& O.3.1.1.,.$.< P.P.P.P.P.P.P.P.P.% - % $ @ @ P.P.P.P.P.P.P.P.P.P.P.P.P.P.P.P.P.",
"P.P.P.P.P.P.P.P.P.P.P.P.P.P.P.P.P.P.P.P.P.P.P.P.t 4.5.5.6.6.3.2 P.P.P.P.P.P.P.P.P.U ;.$.O._ L 2 P.P.P.P.P.P.P.P.P.P.P.P.P.P.P.P.",
"P.P.P.P.P.P.P.P.P.P.P.P.P.P.P.P.P.P.P.P.P.P.P., #.6.5.5.5.5.,., P.P.P.P.P.P.P.P.P.E 6.5.6.4.1.w P.P.P.P.P.P.P.P.P.P.P.P.P.P.P.P.",
"P.P.P.P.P.P.P.P.P.P.P.P.P.P.P.P.P.P.P.P.P.P.P.K 6.5.5.5.5.6.@.: P.P.P.P.P.P.P.P.P.^ 6.6.5.6.4.{ P.P.P.P.P.P.P.P.P.P.P.P.P.P.P.P.",
"P.P.P.P.P.P.P.P.P.P.P.P.P.P.P.P.P.P.P.P.P.P.2 #.6.5.5.5.5.6.{ : P.P.P.P.P.P.P.P.P._ 6.5.5.5.6.#.2 P.P.P.P.P.P.P.P.P.P.P.P.P.P.P.",
"P.P.P.P.P.P.P.P.P.P.P.P.P.P.P.P.P.P.P.P.P.P.^ 5.6.5.5.5.5.6.^ : P.P.P.P.P.P.P.P.P.} 6.5.5.5.6.<.J P.P.P.P.P.P.P.P.P.P.P.P.P.P.P.",
"P.P.P.P.P.P.P.P.P.P.P.P.P.P.P.P.P.P.P.P.P./ ,.6.5.5.5.5.5.6.L P.P.P.P.P.P.P.P.P.P.O.6.5.5.5.5.6.L % P.P.P.P.P.P.P.P.P.P.P.P.P.P.",
"P.P.P.P.P.P.P.P.P.P.P.P.P.P.P.P.P.P.P.P., } 5.5.5.5.5.5.6.6.r P.P.P.P.P.P.P.P.P.J $.6.5.5.5.5.6.} 5 P.P.P.P.P.P.P.P.P.P.P.P.P.P.",
"P.P.P.P.P.P.P.P.P.P.P.P.P.P.P.P.P.P.P.P.T 1.5.5.5.5.5.5.5.5.0 P.P.P.P.P.P.P.P.P.Y ,.6.5.5.5.5.6.,.< P.P.P.P.P.P.P.P.P.P.P.P.P.P.",
"P.P.P.P.P.P.P.P.P.P.P.P.P.P.P.P.P.P.P.> $.5.5.5.5.5.5.5.6.5.6 P.P.P.P.P.P.P.P.P.J 1.6.5.5.5.5.6.6.r P.P.P.P.P.P.P.P.P.P.P.P.P.P.",
"P.P.P.P.P.P.P.P.P.P.P.P.P.P.P.P.P.P.+ H 6.5.5.5.5.6.6.5.1.$.1 P.P.P.P.P.P.P.P.P.T 4.5.5.5.5.5.5.6._ P.P.P.P.P.P.P.P.P.P.P.P.P.P.",
"P.P.P.P.P.P.P.P.P.P.P.P.P.P.P.P.P.P.> $.6.5.5.6.5.$.( Q / R 4 : 2 4 7 6 < ; P.P.Y 4.6.5.5.5.5.5.6.,.> P.P.P.P.P.P.P.P.P.P.P.P.P.",
"P.P.P.P.P.P.P.P.P.P.P.P.P.P.P.P.P.P.T 6.5.4.,.{ Y G / { ..+.<.2.3.2.1.$.{ R w > 6 / $.5.6.5.5.5.6.4.J P.P.P.P.P.P.P.P.P.P.P.P.P.",
"P.P.P.P.P.P.P.P.P.P.P.P.P.P.P.P.P.w *.6.$./ N R @.,.1.5.6.6.6.6.5.5.5.6.5.6.3.*./ r 6 t } 4.6.5.5.5.' + P.P.P.P.P.P.P.P.P.P.P.P.",
"P.P.P.P.P.P.P.P.P.P.P.P.P.P.P.P.P.Q ,._ K E $.4.5.5.5.5.5.5.5.5.5.5.5.5.5.5.6.6.6.5.*.^ w N O.4.6.6.$.6 P.P.P.P.P.P.P.P.P.P.P.P.",
"P.P.P.P.P.P.P.P.P.P.P.P.P.P.P.P.t / R R @.5.6.5.5.5.5.5.5.5.5.5.5.5.5.5.5.5.5.5.5.5.5.4.$.T r _ 2.6.1.e   P.P.P.P.P.P.P.P.P.P.P.",
"P.P.P.P.P.P.P.P.P.P.P.P.P.P.P.: 9 H { 2.6.5.5.5.5.5.5.5.5.5.5.5.5.5.5.5.5.5.5.5.5.5.5.5.6.<.' N Q <.6.T % P.P.P.P.P.P.P.P.P.P.P.",
"P.P.P.P.P.P.P.P.P.P.P.P.P.P.  * N @.5.6.5.5.5.5.5.5.5.5.5.5.5.5.5.5.5.5.5.5.5.5.5.5.5.5.6.6.5.O.r T <.o.P.P.P.P.P.P.P.P.P.P.P.P.",
"P.P.P.P.P.P.P.P.P.P.P.P.P.P.O H ,.6.5.5.5.5.5.5.5.5.5.5.5.5.5.5.5.5.5.5.5.5.5.5.5.5.5.5.5.5.5.5.*.H J @.9 P.P.P.P.P.P.P.P.P.P.P.",
"P.P.P.P.P.P.P.P.P.P.P.P.P.. 0 1.6.5.5.5.5.5.5.5.5.5.5.5.5.5.5.5.5.5.5.5.5.5.5.5.5.5.5.5.5.5.5.5.6.2.K K G P.P.P.P.P.P.P.P.P.P.P.",
"P.P.P.P.P.P.P.P.P.P.P.P.P.6 ,.6.5.5.5.5.5.5.5.5.5.5.5.5.5.5.5.5.5.5.5.5.5.5.5.5.5.5.5.5.5.5.5.5.6.6.3.H 0 & P.P.P.P.P.P.P.P.P.P.",
"P.P.P.P.P.P.P.P.P.P.P.P., O.6.5.5.5.5.5.5.5.5.5.5.5.5.5.5.5.5.5.5.5.5.5.5.5.5.5.5.5.5.5.5.5.5.5.5.5.6.*.7 X P.P.P.P.P.P.P.P.P.P.",
"P.P.P.P.P.P.P.P.P.P.P.P./ 6.6.5.5.5.5.5.5.5.5.5.5.5.5.5.5.5.5.5.5.5.5.5.5.5.5.5.5.5.5.5.5.5.5.5.5.5.5.6.o.-   P.P.P.P.P.P.P.P.P.",
"P.P.P.P.P.P.P.P.P.P.P.e 1.6.5.5.5.5.5.5.5.5.5.5.5.5.5.5.5.5.5.5.5.5.5.5.5.5.5.5.5.5.5.5.5.5.5.5.5.5.5.6.4.E + P.P.P.P.P.P.P.P.P.",
"P.P.P.P.P.P.P.P.P.P.w +.6.5.5.5.5.5.5.5.5.5.5.5.5.5.5.5.5.5.4.4.3.3.5.6.6.5.5.5.5.5.5.5.5.5.5.5.5.5.5.5.5.*.7 P.P.P.P.P.P.P.P.P.",
"P.P.P.P.P.P.P.P.P.+ J 3.5.5.5.5.5.5.5.5.5.5.5.5.5.5.5.4.#.} | d i i s R ] -.5.5.5.5.5.5.5.5.5.5.5.5.5.5.5.5./ : P.P.P.P.P.P.P.P.",
"P.P.P.P.P.P.P.P.P.7 $.6.5.5.5.5.5.5.5.5.5.5.5.5.5.5.#.R j z y.a.z.z.g.u.c W O.3.5.5.5.5.5.5.5.5.5.5.5.5.5.6.*.0 P.P.P.P.P.P.P.P.",
"P.P.P.P.P.P.P.P.P.T 3.6.5.5.5.5.5.5.5.5.5.5.5.5.5.I a M h.Z.H.H.H.L.L.A.m.i.c | <.5.5.5.5.5.5.5.5.5.5.5.5.6.5.N P.P.P.P.P.P.P.P.",
"P.P.P.P.P.P.P.P.$ } 6.5.5.5.5.5.5.5.5.5.5.5.5.5.I l p.C.J.V.x.s.u.D s.n.A.L.v.n d <.6.5.5.5.5.5.5.5.5.5.5.5.6...2 P.P.P.P.P.P.P.",
"P.P.P.P.P.P.P.P.2 1.5.5.5.5.5.5.5.5.5.5.5.5.6...y h.D.H.x.r.W ] @.O.&.q.d.M.K.B.b U 2.5.5.5.5.5.5.5.5.5.5.5.6.2.3 P.P.P.P.P.P.P.",
"P.P.P.P.P.P.P.P.0 5.5.5.5.5.5.5.5.5.5.5.5.6.-.p a.H.H.k.7.O.4.6.5.5.4.1.X.w.M.J.M.m / 6.6.5.5.5.5.5.5.5.5.5.5.5.N P.P.P.P.P.P.P.",
"P.P.P.P.P.P.P.P.Y 6.5.5.5.5.5.5.5.5.5.5.6.3.) n Z.K.m.V +.5.5.5.5.5.5.5.4.} t.A.L.c.g *.6.5.5.5.5.5.5.5.5.5.5.6.{ P.P.P.P.P.P.P.",
"P.P.P.P.P.P.P.P.E 6.5.5.5.5.5.5.5.5.5.5.5.$.V l.C.z.A _ 6.6.5.5.5.5.5.5.6.4. .k.J.V.M P 6.5.5.5.5.5.5.5.5.5.5.5.@.= P.P.P.P.P.P.",
"P.P.P.P.P.P.P.P._ 6.5.5.5.5.5.5.5.5.5.5.6.[ k M c h Y 2.6.5.5.5.5.5.5.5.5.6.;.e.C.H.h.f 1.5.5.5.5.5.5.5.5.5.5.5.*.4 P.P.P.P.P.P.",
"P.P.P.P.P.P.P.7 o.6.5.5.5.5.5.5.5.5.5.6.5.Y N =...T O.5.5.5.5.5.5.5.5.5.5.6.<.8.i.V.c.Z @.6.5.5.5.5.5.5.5.5.5.6.;.G P.P.P.P.P.P.",
"P.P.P.P.P.P.P.9 *.6.5.5.5.5.5.5.5.5.5.6.2.N ..6...{ 1.6.5.5.5.5.5.5.5.5.5.5.5.Q p x v u ] 5.5.5.5.5.5.5.5.5.5.6.,.T P.P.P.P.P.P.",
"P.P.P.P.P.P.P.5 ,.5.5.5.5.5.5.5.5.5.5.6.1.r =.3.Y +.5.5.5.5.5.5.5.5.5.5.5.5.6.+...;.} 9 ..5.5.5.5.5.5.5.5.5.5.6.2.9 P.P.P.P.P.P.",
"P.P.P.P.P.P.P.< 1.5.5.5.5.5.5.5.5.5.5.5.4.N ;.<.Y <.5.5.5.5.5.5.5.5.5.5.5.5.6.;.` 1.4.H +.5.5.5.5.5.5.5.5.5.5.6.3.8 P.P.P.P.P.P.",
"P.P.P.P.P.P.P.; ,.6.5.5.5.5.5.5.5.5.5.5.5.N @.@.( 4.6.5.5.5.5.5.5.5.5.5.5.5.5.3.E 2.3.s *.5.5.5.5.5.5.5.5.5.5.6.1.2 P.P.P.P.P.P.",
"P.P.P.P.P.P.P.: @.6.5.5.5.5.5.5.5.5.5.6.4.Q R _ ..6.5.5.5.5.5.5.5.5.5.5.5.5.5.4.R 2.;.w 1.5.5.5.5.5.5.5.5.5.5.6.<.: P.P.P.P.P.P.",
"P.P.P.P.P.P.P.P.' 6.5.5.5.5.5.5.5.5.5.5.5.+.0 G +.6.5.5.5.5.5.5.5.5.5.5.5.5.6.4.~ ;...N 5.5.5.5.5.5.5.5.5.5.5.6.#.& P.P.P.P.P.P.",
"P.P.P.P.P.P.P.P.J 6.5.5.5.5.5.5.5.5.5.5.6.<.0 4 1.6.5.5.5.5.5.5.5.5.5.5.5.5.6.3.! ..N ( 6.5.5.5.5.5.5.5.5.5.6.4._ o P.P.P.P.P.P.",
"P.P.P.P.P.P.P.P.0 3.6.5.5.5.5.5.5.5.5.5.5.+.4 4 ,.6.5.5.5.5.5.5.5.5.5.5.5.5.6.1.Q J N <.6.5.5.5.5.5.5.5.5.5.5.3.H   P.P.P.P.P.P.",
"P.P.P.P.P.P.P.P.7 $.6.5.5.5.5.5.5.5.6.6.+.H K H E 4.6.5.5.5.5.5.5.5.5.5.5.5.6.<.H 8 ..5.5.5.5.5.5.5.5.5.5.5.6.,.t P.P.P.P.P.P.P.",
"P.P.P.P.P.P.P.P.: ' 5.5.5.5.5.5.5.6.4...G ' 4.$.J / 2.6.6.5.5.5.5.5.5.5.5.6.6.#.7 0 2.6.5.5.5.5.5.5.5.5.5.5.6.{ 4 P.P.P.P.P.P.P.",
"P.P.P.P.P.P.P.P.P.N 1.5.5.5.5.5.6.1.{ K o.4.6.6.#.K Q %.4.5.5.5.5.5.5.6.5.1.o.K R N ( 4.6.5.5.5.5.5.5.5.5.6.4.G $ P.P.P.P.P.P.P.",
"P.P.P.P.P.P.P.P.P.: @.6.5.5.5.6.1.E R *.6.5.5.6.5.#.Q R ..<.4.6.6.6.5.;.o.R r ..5.O.r o.6.5.5.5.5.5.5.5.5.6.@.7 P.P.P.P.P.P.P.P.",
"P.P.P.P.P.P.P.P.P.X G 4.6.5.6.,.E R ;.5.5.5.5.5.5.6.2.' K G N R E R T R L Q ;.5.5.5.{ K *.6.5.5.5.5.5.5.6.6.H P.P.P.P.P.P.P.P.P.",
"P.P.P.P.P.P.P.P.P.P.: +.6.6.#.G Q 1.6.5.5.5.5.5.5.5.6.6.4.;...} { } ..+.<.5.6.5.5.6.3.^ T 1.6.5.5.5.5.5.6.#.: P.P.P.P.P.P.P.P.P.",
"P.P.P.P.P.P.P.P.P.P.P.t 1.O.r ^ 2.6.5.5.5.5.5.5.5.5.5.5.6.6.6.5.4.3.5.6.6.5.5.5.5.5.6.<.Y Q 2.6.5.5.5.5.4.N P.P.P.P.P.P.P.P.P.P.",
"P.P.P.P.P.P.P.P.P.P.P.P.7 r } 4.6.5.5.5.5.5.5.5.5.5.5.5.5.5.5.5.6.5.5.5.5.5.5.5.5.5.5.5.*.N ' 5.5.5.6.6.{ % P.P.P.P.P.P.P.P.P.P.",
"P.P.P.P.P.P.P.P.P.P.P.P.6 +.5.6.5.5.5.5.5.5.5.5.5.5.5.5.5.5.5.5.5.5.5.5.5.5.5.5.5.5.5.5.6.O.N O.5.5.5.#.5 P.P.P.P.P.P.P.P.P.P.P.",
"P.P.P.P.P.P.P.P.P.P.P.3 +.6.6.6.5.5.5.5.5.5.5.5.5.5.5.5.5.5.5.5.5.5.5.5.5.5.5.5.5.5.5.5.6.4.' G $.6.,.H P.P.P.P.P.P.P.P.P.P.P.P.",
"P.P.P.P.P.P.P.P.P.P.P.% < T @.4.6.6.6.5.5.5.5.5.5.5.5.5.5.5.5.5.5.5.5.5.5.5.5.5.5.5.5.5.5.6.3.Q K $.H $ P.P.P.P.P.P.P.P.P.P.P.P.",
"P.P.P.P.P.P.P.P.P.P.P.P.P.P.4 r { ,.4.6.5.5.5.5.5.5.5.5.5.5.5.5.5.5.5.5.5.5.5.5.5.5.5.5.5.5.6.<.H : - P.P.P.P.P.P.P.P.P.P.P.P.P.",
"P.P.P.P.P.P.P.P.P.P.P.P.P.P.P.P.P.e / $.4.6.6.6.6.6.5.5.5.5.5.5.5.5.5.5.5.5.5.5.5.5.5.5.5.5.6.6.#.3 P.P.P.P.P.P.P.P.P.P.P.P.P.P.",
"P.P.P.P.P.P.P.P.P.P.P.P.P.P.P.P.P.  O < e Q ..<.4.5.5.5.5.5.5.5.5.5.5.5.6.6.6.5.5.5.6.6.6.6.5.4.5.{ ; P.P.P.P.P.P.P.P.P.P.P.P.P.",
"P.P.P.P.P.P.P.P.P.P.P.P.P.P.P.P.P.P.P.P.P.P.% 2 0 L / O.,.3.6.6.6.6.6.6.4.4.4.4.6.6.5.,.O.} ( Q G 3 O P.P.P.P.P.P.P.P.P.P.P.P.P.",
"P.P.P.P.P.P.P.P.P.P.P.P.P.P.P.P.P.P.P.P.P.P.P.P.P.P.; 2 8 9 w t H J J R E Q Q / Y e 7 3 G 5 # o P.P.P.P.P.P.P.P.P.P.P.P.P.P.P.P.",
"P.P.P.P.P.P.P.P.P.P.P.P.P.P.P.P.P.P.P.P.P.P.P.P.P.P.P.P.P.P.P.P.P.P.P.- + O   P.P.P.P.P.P.P.P.P.P.P.P.P.P.P.P.P.P.P.P.P.P.P.P.P.",
"P.P.P.P.P.P.P.P.P.P.P.P.P.P.P.P.P.P.P.P.P.P.P.P.P.P.P.P.P.P.P.P.P.P.P.P.P.P.P.P.P.P.P.P.P.P.P.P.P.P.P.P.P.P.P.P.P.P.P.P.P.P.P.P.",
"P.P.P.P.P.P.P.P.P.P.P.P.P.P.P.P.P.P.P.P.P.P.P.P.P.P.P.P.P.P.P.P.P.P.P.P.P.P.P.P.P.P.P.P.P.P.P.P.P.P.P.P.P.P.P.P.P.P.P.P.P.P.P.P."
};
