/* XPM */
static char *_8[] = {
/* columns rows colors chars-per-pixel */
"64 64 162 2 ",
"   c #020201",
".  c #080601",
"X  c #0C0B03",
"o  c #110F03",
"O  c #151304",
"+  c #1D1B06",
"@  c #191605",
"#  c #211E06",
"$  c #252207",
"%  c #262408",
"&  c #292709",
"*  c #2C2A09",
"=  c #312E0A",
"-  c #35330B",
";  c #39360C",
":  c #3B3A0D",
">  c #413D0D",
",  c #42400E",
"<  c #49460F",
"1  c #494610",
"2  c #4D4A10",
"3  c #514D11",
"4  c #555212",
"5  c #595613",
"6  c #5E5A14",
"7  c #635E14",
"8  c #666215",
"9  c #6A6616",
"0  c #6D6917",
"q  c #6D6C19",
"w  c #716B17",
"e  c #736E18",
"r  c #757219",
"t  c #7A751A",
"y  c #7D791A",
"u  c #4E553A",
"i  c #525730",
"p  c #585D3A",
"a  c #5E633A",
"s  c #7F7E26",
"d  c #78792F",
"f  c #676935",
"g  c #6F7230",
"h  c #6B703B",
"j  c #5C664B",
"k  c #58655A",
"l  c #717A47",
"z  c #667050",
"x  c #6F7952",
"c  c #767E53",
"v  c #5E6E74",
"b  c #68786A",
"n  c #677667",
"m  c #6D7E74",
"M  c #807917",
"N  c #827D1C",
"B  c #7E8548",
"V  c #7F8551",
"C  c #798468",
"Z  c #86811C",
"A  c #8A851D",
"S  c #8E891E",
"D  c #928D1F",
"F  c #95901F",
"G  c #9F991F",
"H  c #8C8A23",
"J  c #80812B",
"K  c #928F21",
"L  c #959221",
"P  c #9A9521",
"I  c #9D9A22",
"U  c #99972A",
"Y  c #939331",
"T  c #9D9D36",
"R  c #979738",
"E  c #9A9B38",
"W  c #A29D23",
"Q  c #A89F24",
"!  c #A09E2B",
"~  c #A5A123",
"^  c #A9A524",
"/  c #AEAA25",
"(  c #A7A429",
")  c #ADAB2C",
"_  c #B1AC25",
"`  c #B2AE29",
"'  c #B5B127",
"]  c #B9B426",
"[  c #BFBA27",
"{  c #BAB628",
"}  c #BDB928",
"|  c #B5B12F",
" . c #AEAD3B",
".. c #BCB834",
"X. c #C2BE2A",
"o. c #C6C22B",
"O. c #CAC62B",
"+. c #CDCA2C",
"@. c #C4C025",
"#. c #D1CD2D",
"$. c #D5D22E",
"%. c #D9D52F",
"&. c #DCD82E",
"*. c #CDCA36",
"=. c #D4D030",
"-. c #DEDA30",
";. c #E1DD2D",
":. c #E1DD31",
">. c #E6E02E",
",. c #EAE62E",
"<. c #F7F22F",
"1. c #E5E232",
"2. c #E9E632",
"3. c #EDEA33",
"4. c #F1EE34",
"5. c #F5F234",
"6. c #F9F636",
"7. c #FFFB37",
"8. c #FFFE38",
"9. c #84874A",
"0. c #989844",
"q. c #9E9F4D",
"w. c #96994E",
"e. c #B7B746",
"r. c #848D6C",
"t. c #647C84",
"y. c #6D868C",
"u. c #71858F",
"i. c #768D8D",
"p. c #789298",
"a. c #708DA0",
"s. c #7794A6",
"d. c #7A98A5",
"f. c #859998",
"g. c #A1AF9B",
"h. c #83A0AE",
"j. c #92A7A9",
"k. c #89AABA",
"l. c #97AEB6",
"z. c #9CB3B6",
"x. c #8FB1C1",
"c. c #93B4C5",
"v. c #96BACE",
"b. c #9CB5C2",
"n. c #A3BDC4",
"m. c #A6BFCC",
"M. c #9CC0D3",
"N. c #ADC9D5",
"B. c #A7C9D8",
"V. c #ABCADF",
"C. c #B7D1DA",
"Z. c #A9CEE1",
"A. c #B4DAEE",
"S. c #BEDCEC",
"D. c #B4D5E3",
"F. c #BADEF0",
"G. c #BEE2F4",
"H. c #C1E4F5",
"J. c #C1E6FA",
"K. c #C6EBFB",
"L. c #C9ECFB",
"P. c None",
/* pixels */
"P.P.P.P.P.P.P.P.P.P.P.P.P.P.P.P.P.P.P.P.P.P.P.P.P.P.P.P.P.P.P.P.P.P.P.P.P.P.P.P.P.P.P.P.P.P.P.P.P.P.P.P.P.P.P.P.P.P.P.P.P.P.P.P.",
"P.P.P.P.P.P.P.P.P.P.P.P.P.P.P.P.P.P.P.P.P.P.P.P.P.P.P.P.P.P.P.P.P.P.P.P.P.P.P.P.P.P.P.P.P.P.P.P.P.P.P.P.P.P.P.P.P.P.P.P.P.P.P.P.",
"P.P.P.P.P.P.P.P.P.P.P.P.P.P.P.P.P.+ 4 4 P.P.P.P.P.P.P.P.P.P.P.P.P.P.P.P.P.P.P.P.P.P.P.P.P.P.P.P.P.P.P.P.P.P.P.P.P.P.P.P.P.P.P.P.",
"P.P.P.P.P.P.P.P.P.P.P.P.P.P.P.P.+ 4 $.=.} e e + P.P.P.P.P.P.P.P.P.P.P.P.P.P.P.P.P.P.P.P.P.P.P.P.P.P.P.P.P.P.P.P.P.P.P.P.P.P.P.P.",
"P.P.P.P.P.P.P.P.P.P.P.P.P.P.P.+ 2 %.6.8.7.7.O.I 0 * O P.P.P.P.P.P.P.P.P.P.P.P.P.P.P.P.P.P.P.P.P.P.P.P.P.P.P.P.P.P.P.P.P.P.P.P.P.",
"P.P.P.P.P.P.P.P.P.P.P.P.P.P.O 2 $.6.8.8.7.7.8.8.1.X.e y + P.P.P.P.P.P.P.P.P.P.P.P.P.P.P.P.P.P.P.P.P.P.P.P.P.P.P.P.P.P.P.P.P.P.P.",
"P.P.P.P.P.P.P.P.P.P.P.P.P.P.& P 8.8.7.7.7.7.7.7.8.8.6.#.I N - % P.P.P.P.P.P.P.P.P.P.P.P.P.P.P.P.P.P.P.P.P.P.P.P.P.P.P.P.P.P.P.P.",
"P.P.P.P.P.P.P.P.P.P.P.P.P.P.P.S ] 8.7.7.7.7.7.7.7.7.8.8.8.2.#.S 6 + P.P.P.P.P.P.P.P.P.P.P.P.P.P.P.P.P.P.P.P.P.P.P.P.P.P.P.P.P.P.",
"P.P.P.P.P.P.P.P.P.P.P.P.P.P.P.P.D ' 8.8.7.7.7.7.7.7.7.7.7.8.7.6.2./ K 3 P.P.P.P.P.P.P.P.P.P.P.P.P.P.P.P.P.P.P.P.P.P.P.P.P.P.P.P.",
"P.P.P.P.P.P.P.P.P.P.P.P.P.P.P.P.P.H ' 7.7.7.7.7.7.7.7.7.7.7.8.8.6.8.#.{ A 2 o P.P.P.P.P.P.P.P.P.P.P.P.P.P.P.P.P.P.P.P.P.P.P.P.P.",
"P.P.P.P.P.P.P.P.P.P.P.P.P.P.P.P.P.P.S _ 8.8.7.7.7.7.7.8.7.3.#.} A Z Z y t 0 : : * ; @ P.P.P.P.P.P.P.P.P.P.P.P.P.P.P.P.P.P.P.P.P.",
"P.P.P.P.P.P.P.P.P.P.P.P.P.P.P.P.P.P.P.S / 7.8.7.7.8.4.:.L Z w y W ' -.1.1.2.1.-.%.} W D > P.P.P.P.P.P.P.P.P.P.P.P.P.P.P.P.P.P.P.",
"P.P.P.P.P.P.P.P.P.P.P.P.P.P.P.P.P.P.P.P.S / 6.8.6.#.S e N ~ 1.3.7.7.7.8.7.8.7.8.8.7.8.5.:.{ q 4 P.P.P.P.P.P.P.P.P.P.P.P.P.P.P.P.",
"P.P.P.P.P.P.P.X $ P.P.P.P.P.P.P.P.P.P.P.P.H / +./ 7 W X.6.7.7.7.7.7.7.7.7.7.7.7.7.7.7.7.8.7.7.} ^ ; P.P.P.P.P.P.P.P.P.P.P.P.P.P.",
"P.P.P.P.P.P.O Z 6 : P.P.P.P.P.P.P.P.P.P.P.P.: 8 t O.5.8.7.7.7.7.7.7.7.7.7.7.7.7.7.7.7.7.7.7.8.8.5.+.r P.P.P.P.P.P.P.P.P.P.P.P.P.",
"P.P.P.P.P.X S 2.5.q : P.P.P.P.P.P.P.P.P.P.P.- / :.8.7.7.7.7.7.7.7.7.7.7.7.7.7.7.7.7.7.7.7.7.7.7.8.8.3.{ 6 + P.P.P.P.P.P.P.P.P.P.",
"P.P.P.P.X A 2.8.7.4.e : P.P.P.P.P.P.P.P.P.5 #.5.7.7.7.7.7.7.7.7.7.7.7.7.7.7.7.7.7.7.7.7.7.7.7.7.7.7.8.6.&.r + P.P.P.P.P.P.P.P.P.",
"P.P.P.. y 1.8.8.7.8.5.r : P.P.P.P.P.P.P.9 1.8.8.7.7.7.7.7.7.7.7.7.7.7.7.7.7.7.7.7.7.7.7.7.7.7.7.7.7.7.8.6.2.r + P.P.P.P.P.P.P.P.",
"P.P.P.P./ 8.7.6.7.8.7.4.y : P.P.P.P.P.t 2.8.7.7.7.7.7.7.7.7.7.7.7.7.7.7.7.7.7.7.7.7.7.7.7.7.7.7.7.7.7.7.8.7.2.r O P.P.P.P.P.P.P.",
"P.P.P.P.0 6.8.8.7.7.7.7.6.y : P.P.P.8 2.8.7.7.7.7.7.7.7.7.7.7.7.7.7.7.7.7.7.7.7.7.7.7.7.7.7.7.7.7.7.7.7.7.8.7.-.5   P.P.P.P.P.P.",
"P.P.P.P.4 X.8.7.7.7.7.7.8.6.Z : P.1 %.8.8.7.7.7.7.7.7.7.7.7.7.7.7.7.7.7.7.7.7.7.7.7.7.7.7.7.7.7.7.7.7.7.7.7.7.6.{ t P.P.P.P.P.P.",
"P.P.P.P.P.P 8.7.7.7.7.7.8.7.8.y - { 7.7.7.7.7.7.7.7.7.7.7.7.7.7.7.7.7.7.7.7.7.7.7.7.7.7.7.7.7.7.7.7.7.7.7.7.7.8.6.L 4 P.P.P.P.P.",
"P.P.P.P.P.6 -.8.7.7.7.7.7.8.5.~ / 4.8.7.7.7.7.7.7.7.7.7.7.7.7.7.7.7.7.7.7.7.7.7.8.7.7.7.7.7.7.7.7.7.7.7.7.7.7.7.8.6.9 O P.P.P.P.",
"P.P.P.P.P.* / 8.7.7.7.7.7.7.:.P +.8.7.7.7.7.7.7.7.7.7.7.7.7.7.7.7.7.7.5.4.;.,.4.5.8.7.7.7.7.7.7.7.7.7.7.7.7.7.7.7.7.#.1 P.P.P.P.",
"P.P.P.P.P.X 9 5.8.7.7.7.8.7.L ~ 8.7.7.7.7.7.7.7.7.7.7.7.7.7.7.7.5.+./ d h h l g U _ ;.6.7.7.7.7.7.7.7.7.7.7.7.7.7.8.3.K P.P.P.P.",
"P.P.P.P.P.P.P.#.7.7.7.7.7.$.P :.7.7.7.7.7.7.7.7.7.7.7.7.7.8.8.] U j p.h.x.M.v.k.p.k B G 3.7.7.7.7.7.7.7.7.7.7.7.7.7.8.+.* P.P.P.",
"P.P.P.P.P.P.P.Z 7.7.7.7.8.{ S 5.8.7.7.7.7.6.7.7.7.7.7.7.7.7.W x u.B.G.L.L.L.J.K.H.A.a.u 0 ;.7.7.7.7.7.7.7.7.7.7.7.7.7.4.t P.P.P.",
"P.P.P.P.P.P.P.8 +.8.7.8.3.D #.8.7.7.7.7.7.7.7.7.7.7.7.7.6.L z c.G.G.C.l.j.z.n.D.V.n.n E G y -.7.7.7.7.7.7.7.7.7.7.7.7.8.~ # P.P.",
"P.P.P.P.P.P.P.P.^ 8.8.7.-.D 1.7.7.7.7.7.7.7.7.7.7.7.7.8.I j M.J.N.g.q. ._ } e.w.n f ) 5.8.{ e ;.8.7.7.7.7.7.7.7.7.7.7.7.-.2 P.P.",
"P.P.P.P.P.P.P.P.6 1.8.8./ I 7.7.7.7.7.7.7.7.7.7.7.7.8.@.f x.J.n.r.*.,.7.8.8.7.;.O.D X.X.7.4._ Z 3.8.7.7.7.7.7.7.7.7.7.8.5.9 P.P.",
"P.P.P.P.P.P.P.P.- { 8.6.~ / 7.7.7.7.7.7.7.7.7.7.7.7.5.! t.A.N.C *.<.8.7.7.7.7.7.7.6.%.| ( 3.#.D o.7.7.7.7.7.7.7.7.7.7.7.7.~ P.P.",
"P.P.P.P.P.P.P.P.X 0 6.5.F %.8.7.7.7.7.7.7.7.7.7.7.8.&.i c.G.f...<.8.7.7.7.7.7.7.7.8.7.5.} Q #.Z D 6.8.8.7.7.7.8.7.7.8.7.8.{ & P.",
"P.P.P.P.P.P.P.P.P.P.+.3.A $.8.7.7.7.7.7.7.7.7.7.7.7.) b A.D.9.$.8.7.7.7.7.7.7.7.7.7.7.7.8.+.! F y -.7.5.7.6.6.6.6.6.5.5.6.O., P.",
"P.P.P.P.P.P.P.P.P.P.S :.F 1.7.7.7.7.7.7.7.7.7.7.7.8.H t.J.b.R 7.7.7.7.7.7.7.7.7.7.7.7.7.7.8.=.W : Z K S W I D P L Z K K Z e = # ",
"P.P.P.P.P.P.P.P.P.P.r / Z 3.8.7.7.7.7.7.7.7.7.7.7.5.N s.K.z.T 7.7.7.7.7.7.7.7.7.7.7.7.7.7.7.8.1.D Z _ _ [ { ' { { } [ X.o.X.{ X.",
"P.P.P.P.P.P.P.P.P.P.P.Z A 2.7.7.7.7.7.7.7.7.7.7.7.4.q h.K.n.R 5.7.7.7.7.7.7.7.7.7.7.7.7.7.7.7.8.~ ` 8.8.7.8.8.7.8.8.8.8.8.8.8.{ ",
"P.P.P.P.P.P.P.P.P.P.P., r 2.8.7.7.7.7.7.7.7.7.7.7.6.J s.L.m.9.5.7.7.7.7.7.7.7.7.7.7.7.7.7.7.8.8.P ~ 7.7.7.7.7.7.7.7.7.8.7.8.4.A ",
"P.P.P.P.P.P.P.P.P.P.P.X 4 3.8.7.7.7.7.7.7.7.7.7.7.7.H y.L.S.r.+.7.7.7.7.7.7.7.7.7.7.7.7.7.7.7.5.D X.7.7.7.7.7.7.7.7.7.7.7.8.X.& ",
"P.P.P.P.P.P.P.P.P.P.P.  > 2.8.7.7.7.7.7.7.7.7.7.7.7.' m A.S.v ! 7.7.7.7.7.7.7.7.7.7.7.7.7.7.8.2.t #.7.7.7.7.7.7.7.7.7.7.8.1.8 P.",
"P.P.P.P.P.P.P.P.P.P.P.P.* o.8.7.7.7.7.7.7.7.7.7.7.7.$.p v.Z.c M =.8.7.7.7.7.7.7.7.7.7.7.7.7.7.X.W 4.7.7.7.7.7.7.7.7.7.8.6._ P.P.",
"P.P.P.P.P.P.P.P.P.P.P.P.O ~ 8.8.7.7.7.7.7.6.7.7.7.8.5.E d.i.Y _ X.6.7.7.7.7.7.7.7.7.7.7.7.7.6.I ^ 7.7.7.7.7.7.7.7.7.7.7.2.4 P.P.",
"P.P.P.P.P.P.P.P.P.P.P.P.P.S 6.7.7.7.7.7.7.7.7.7.7.7.8.X.a x 1.1.H =.8.7.7.7.7.7.7.7.7.7.8.8.{ A 3.8.7.7.7.7.7.7.7.7.8.8.A $ P.P.",
"P.P.P.P.P.P.P.P.P.P.P.P.P.4 3.8.7.7.7.7.7.7.7.7.7.7.7.7.I 7 :.8.o.K 1.8.7.7.7.7.7.7.7.7.8.O.D +.6.7.7.7.7.7.7.7.7.7.8.' 7 P.P.P.",
"P.P.P.P.P.P.P.P.P.P.P.P.P.P.O.7.7.7.7.7.7.7.7.7.7.7.7.7.6.P r 2.4.O.{ 3.8.7.7.7.7.8.7.8.o.F } 3.8.7.7.7.7.7.7.7.7.8.=.P P.P.P.P.",
"P.P.P.P.P.P.P.P.P.P.P.P.P.O Z 8.7.7.7.7.7.7.7.7.7.7.7.7.7.2.W M =.O._ X.6.8.7.8.8.8.4.{ Z { 2.8.7.7.7.7.7.7.7.7.8.3.K P.P.P.P.P.",
"P.P.P.P.P.P.P.P.P.P.P.P.P.P.t %.7.7.7.7.7.7.7.7.7.7.7.7.8.8.6.} Z P t 8 +.3.5.3.&.~ P N %.4.7.7.7.7.7.7.7.7.7.7.6.{ & P.P.P.P.P.",
"P.P.P.P.P.P.P.P.P.P.P.P.P.P.O ~ 7.7.7.7.7.7.7.7.7.7.7.7.7.7.7.8.=.} A 2 : Z S y Z F X.3.7.7.7.7.7.7.7.7.7.7.7.8.$.; P.P.P.P.P.P.",
"P.P.P.P.P.P.P.P.P.P.P.P.P.P.P.8 $.8.7.7.7.7.7.7.7.7.7.7.7.7.7.7.8.7.6.I 9 o.+.$.1.7.7.8.7.7.7.7.7.7.7.7.7.7.8.:.4 P.P.P.P.P.P.P.",
"P.P.P.P.P.P.P.P.P.P.P.P.P.P.P.P.I 5.8.7.7.7.7.7.7.7.7.7.7.7.7.7.7.7.8.+.A 5.8.8.8.7.7.7.7.7.7.7.7.7.7.7.8.8.3.w P.P.P.P.P.P.P.P.",
"P.P.P.P.P.P.P.P.P.P.P.P.P.P.P.P.- #.8.7.7.7.7.7.7.7.7.7.7.7.7.7.7.7.8.%.M 3.7.7.7.7.7.7.7.7.7.7.7.7.7.7.8.4.Z P.P.P.P.P.P.P.P.P.",
"P.P.P.P.P.P.P.P.P.P.P.P.P.P.P.P.P.5 1.8.7.7.7.7.7.7.7.7.7.7.7.7.7.7.7.%.H 2.8.7.7.7.7.7.7.7.7.7.7.7.7.8.6.Z P.P.P.P.P.P.P.P.P.P.",
"P.P.P.P.P.P.P.P.P.P.P.P.P.P.P.P.P.P.r 1.8.7.7.7.7.7.7.7.7.7.7.7.7.7.8.:.D 4.7.7.7.7.7.7.7.7.7.7.7.7.8.6.Z P.P.P.P.P.P.P.P.P.P.P.",
"P.P.P.P.P.P.P.P.P.P.P.P.P.P.P.P.P.P.P.r 1.8.7.7.7.7.7.7.7.7.7.7.7.7.8.1.K 1.7.7.7.7.7.7.7.7.7.7.7.7.3.y 8 P.P.P.P.P.P.P.P.P.P.P.",
"P.P.P.P.P.P.P.P.P.P.P.P.P.P.P.P.P.P.P.P.e -.8.7.7.7.7.7.7.7.7.7.7.7.8.-.Z 1.8.7.7.7.7.7.7.7.7.8.7.4.0 , P.P.P.P.P.P.P.P.P.P.P.P.",
"P.P.P.P.P.P.P.P.P.P.P.P.P.P.P.P.P.P.P.P.P.r %.8.7.7.7.7.7.7.7.7.7.7.8.2.F :.7.7.7.7.7.7.7.7.7.7.:.8 : P.P.P.P.P.P.P.P.P.P.P.P.P.",
"P.P.P.P.P.P.P.P.P.P.P.P.P.P.P.P.P.P.P.P.P.P.4 o.6.8.7.7.7.7.7.7.7.7.8.3.A %.8.6.7.7.7.7.7.8.5.O.4 $ P.P.P.P.P.P.P.P.P.P.P.P.P.P.",
"P.P.P.P.P.P.P.P.P.P.P.P.P.P.P.P.P.P.P.P.P.P.P.; P %.8.8.7.7.7.7.7.7.8.3.t #.8.7.7.7.7.8.8.2.~ < X P.P.P.P.P.P.P.P.P.P.P.P.P.P.P.",
"P.P.P.P.P.P.P.P.P.P.P.P.P.P.P.P.P.P.P.P.P.P.P.P.P.P P 2.6.8.8.7.7.7.8.3.A #.8.7.7.8.8.6.=.r P.P.P.P.P.P.P.P.P.P.P.P.P.P.P.P.P.P.",
"P.P.P.P.P.P.P.P.P.P.P.P.P.P.P.P.P.P.P.P.P.P.P.P.P.P.= < L O.1.8.7.8.8.5.A +.8.7.8.8.-./ : P.P.P.P.P.P.P.P.P.P.P.P.P.P.P.P.P.P.P.",
"P.P.P.P.P.P.P.P.P.P.P.P.P.P.P.P.P.P.P.P.P.P.P.P.P.P.P.P.P.* w r ~ X.+.-.9 o.8.8.6.' Z + P.P.P.P.P.P.P.P.P.P.P.P.P.P.P.P.P.P.P.P.",
"P.P.P.P.P.P.P.P.P.P.P.P.P.P.P.P.P.P.P.P.P.P.P.P.P.P.P.P.P.P.P.. & ; 6 9 > } 8.o.Z - P.P.P.P.P.P.P.P.P.P.P.P.P.P.P.P.P.P.P.P.P.P.",
"P.P.P.P.P.P.P.P.P.P.P.P.P.P.P.P.P.P.P.P.P.P.P.P.P.P.P.P.P.P.P.P.P.P.P.P.* I y e P.P.P.P.P.P.P.P.P.P.P.P.P.P.P.P.P.P.P.P.P.P.P.P.",
"P.P.P.P.P.P.P.P.P.P.P.P.P.P.P.P.P.P.P.P.P.P.P.P.P.P.P.P.P.P.P.P.P.P.P.P.X - $ P.P.P.P.P.P.P.P.P.P.P.P.P.P.P.P.P.P.P.P.P.P.P.P.P.",
"P.P.P.P.P.P.P.P.P.P.P.P.P.P.P.P.P.P.P.P.P.P.P.P.P.P.P.P.P.P.P.P.P.P.P.P.P.P.P.P.P.P.P.P.P.P.P.P.P.P.P.P.P.P.P.P.P.P.P.P.P.P.P.P."
};
