/* XPM */
static char *_[] = {
/* columns rows colors chars-per-pixel */
"64 64 168 2 ",
"   c #020101",
".  c #090702",
"X  c #0B0A02",
"o  c #100F04",
"O  c #151304",
"+  c #191704",
"@  c #1E1C06",
"#  c #221F07",
"$  c #242107",
"%  c #272308",
"&  c #292608",
"*  c #2C2A09",
"=  c #312E0A",
"-  c #35330B",
";  c #39350C",
":  c #3C3A0D",
">  c #423F0E",
",  c #44420E",
"<  c #49450F",
"1  c #4B480F",
"2  c #494610",
"3  c #4D4C11",
"4  c #514F11",
"5  c #555312",
"6  c #595512",
"7  c #5E5B14",
"8  c #625D14",
"9  c #666216",
"0  c #696416",
"q  c #6D6917",
"w  c #6E6C18",
"e  c #716D17",
"r  c #726E18",
"t  c #757219",
"y  c #79751A",
"u  c #7E791A",
"i  c #7D7717",
"p  c #55592A",
"a  c #5B6236",
"s  c #636226",
"d  c #676C3B",
"f  c #6C7137",
"g  c #70753E",
"h  c #4C5648",
"j  c #525E51",
"k  c #5B664D",
"l  c #586458",
"z  c #586558",
"x  c #747C4A",
"c  c #636C55",
"v  c #5A6B6B",
"b  c #5E747B",
"n  c #62716D",
"m  c #6B7D6F",
"M  c #697B7D",
"N  c #627779",
"B  c #827D1B",
"V  c #807E24",
"C  c #7E864C",
"Z  c #7C8653",
"A  c #7A8562",
"S  c #778876",
"D  c #7E8D72",
"F  c #86811C",
"G  c #8A851D",
"H  c #8D891E",
"J  c #928D1F",
"K  c #95901F",
"L  c #8E8B21",
"P  c #888729",
"I  c #878423",
"U  c #938F20",
"Y  c #969220",
"T  c #9A9621",
"R  c #9E9A22",
"E  c #9C982C",
"W  c #A29E22",
"Q  c #A5A123",
"!  c #AAA524",
"~  c #AEA925",
"^  c #ADAA2B",
"/  c #B2AD26",
"(  c #B1AE2E",
")  c #B5B127",
"_  c #BDB727",
"`  c #BFB925",
"'  c #B7B329",
"]  c #BAB628",
"[  c #BDBA29",
"{  c #B3AF30",
"}  c #BAB73B",
"|  c #C1BD29",
" . c #C2BC23",
".. c #C1BF30",
"X. c #C5C125",
"o. c #C5C12A",
"O. c #CAC62B",
"+. c #CDCA2C",
"@. c #D2CE2D",
"#. c #D6D22E",
"$. c #D9D52F",
"%. c #DDD92F",
"&. c #C4C134",
"*. c #D8D532",
"=. c #DEDA30",
"-. c #E2DD2C",
";. c #E1DD30",
":. c #E7E22E",
">. c #E9E42F",
",. c #F0EC2E",
"<. c #E6E332",
"1. c #E9E632",
"2. c #EDEA33",
"3. c #F1EE34",
"4. c #F5F335",
"5. c #F9F636",
"6. c #FFFB37",
"7. c #FFFF38",
"8. c #8F9446",
"9. c #999D4F",
"0. c #8C9051",
"q. c #959750",
"w. c #999B50",
"e. c #ACAD4A",
"r. c #BEBD46",
"t. c #828B60",
"y. c #8A9266",
"u. c #8E9B7F",
"i. c #687C83",
"p. c #698083",
"a. c #768E8C",
"s. c #7D9290",
"d. c #7B99A3",
"f. c #809087",
"g. c #899C92",
"h. c #9AADAD",
"j. c #87A8BE",
"k. c #8CABBB",
"l. c #85A0B0",
"z. c #9CB1B8",
"x. c #A1B5A8",
"c. c #A1B6B1",
"v. c #8CAEC0",
"b. c #9CBAC3",
"n. c #97B6C6",
"m. c #A5BEC8",
"M. c #9EC3D8",
"N. c #AAC1C9",
"B. c #A9C7D9",
"V. c #A6CBDE",
"C. c #A0C1D5",
"Z. c #B0CCDA",
"A. c #B7D2DB",
"S. c #AACEE3",
"D. c #ABD0E5",
"F. c #BCDDED",
"G. c #B7D9E9",
"H. c #B6DDF2",
"J. c #B9DFF1",
"K. c #BDE3F6",
"L. c #BFE5FB",
"P. c #C2E0EE",
"I. c #C2E4F4",
"U. c #C4E9FA",
"Y. c #CAEBFB",
"T. c #C2E7F9",
"R. c #CDF0FF",
"E. c None",
/* pixels */
"E.E.E.E.E.E.E.E.E.E.E.E.E.E.E.E.E.E.E.E.E.E.E.E.E.E.E.E.E.E.E.E.E.E.E.E.E.E.E.E.E.E.E.E.E.E.E.E.E.E.E.E.E.E.E.E.E.E.E.E.E.E.E.E.",
"E.E.E.E.E.E.E.E.E.E.E.E.E.E.E.E.E.E.E.E.E.E.E.E.E.E.E.E.E.E.E.E.E.E.E.E.E.E.E.E.E.E.E.E.E.E.E.E.E.E.E.E.E.E.E.E.E.E.E.E.E.E.E.E.",
"E.E.E.E.E.E.E.E.E.E.E.E.E.E.E.E.E.E.E.E.E.E.E.E.E.E.E.E.E.E.E.E.E.E.E.E.E.E.E.E.E.E.E.E.E.E.E.E.E.E.E.E.E.E.E.E.E.E.E.E.E.E.E.E.",
"E.E.E.E.E.E.E.E.E.E.E.E.E.E.E.E.E.E.E.E.E.E.E.E.E.E.E.E.E.E.E.E.E.E.E.E.E.E.E.E.E.E.E.E.E.E.E.E.E.E.E.E.E.E.E.E.E.E.E.E.E.E.E.E.",
"E.E.E.E.E.E.E.E.E.E.E.E.E.E.E.E.E.E.E.E.E.E.E.E.E.E.E.E.E.E.E.E.E.E.E.E.E.E.E.E.E.E.E.E.E.E.E.E.E.E.E.E.E.E.E.E.E.E.E.E.E.E.E.E.",
"E.E.E.E.E.E.E.E.E.E.E.E.E.E.E.E.E.E.E.E.E.E.E.E.E.E.E.E.E.E.E.E.E.E.E.E.E.E.E.E.E.E.E.E.E.E.E.E.E.E.E.E.E.E.E.E.E.E.E.E.E.E.E.E.",
"E.E.E.E.E.E.E.E.E.E.E.E.E.E.E.E.E.E.E.E.E.E.E.E.E.E.E.E.E.E.E.E.E.E.E.E.E.E.E.E.E.E.E.E.E.E.E.E.E.E.E.E.E.E.E.E.E.E.E.E.E.E.E.E.",
"E.E.E.E.E.E.E.E.E.E.E.E.E.E.E.E.E.E.E.E.E.E.E.E.E.E.E.E.E.E.E.E.E.E.E.E.E.E.E.E.E.E.E.E.E.E.E.E.E.E.E.E.E.E.E.E.E.E.E.E.E.E.E.E.",
"E.E.E.E.E.E.E.E.E.E.E.E.E.E.E.E.E.E.E.E.E.E.E.E.E.E.E.E.E.E.E.E.E.E.E.E.E.E.E.E.E.E.E.E.E.E.E.E.E.E.E.E.E.E.E.E.E.E.E.E.E.E.E.E.",
"E.E.E.E.E.E.E.E.E.E.E.E.E.E.E.E.E.E.E.E.E.E.E., ; * 5 7 % $ E.E.E.E.E.E.E.E.E.E.E.E.E.E.E.E.E.E.E.E.E.E.E.E.E.E.E.E.E.E.E.E.E.E.",
"E.E.E.E.E.E.E.E.E.E.E.E.E.E.E.E.E.E.E.8 0 y Y ] #.$.o.o.O.~ G t 9 @ E.E.E.E.E.E.E.E.E.E.E.E.E.E.E.E.E.E.E.E.E.E.E.E.E.E.E.E.E.E.",
"E.E.E.E.E.E.E.E.E.E.E.E.E.E.E.$ 2 0 T | 2.7.7.7.6.7.7.7.6.7.7.3.=.] t : +   E.E.E.E.E.E.E.E.E.E.E.E.E.E.E.E.E.E.E.E.E.E.E.E.E.E.",
"E.E.E.E.E.E.E.E.E.E.E.E.E.E.E.H =.6.7.7.6.6.6.6.6.6.6.6.6.6.6.6.7.7.6.#.! 7 > 5 G 8 2 E.* . E.E.E.E.E.E.E.E.E.E.E.E.E.E.E.E.E.E.",
"E.E.E.E.E.E.E.E.E.E.E.. ; H +.4.6.6.6.6.6.6.6.6.6.6.6.6.6.6.6.6.6.7.6.7.7.;.! F T ;.%.' Q H q 7 y - E.E.X E.E.E.E.E.E.E.E.E.E.E.",
"E.E.E.E.E.E.E.E.E.E.E.9 | 6.7.7.6.6.6.6.6.6.6.6.6.6.6.6.6.6.6.6.6.6.6.6.6.7.5.O.U T 1.7.7.4.6.3.+.O.o.H q e , , E.E.E.E.E.E.E.E.",
"E.E.E.E.E.E.E.E.E.@ q #.5.6.6.6.6.6.6.6.6.6.6.6.6.6.6.6.6.6.6.6.6.6.6.6.6.6.7.7.<.T T $.6.7.6.7.7.7.6.7.4.<.1.o.T T 0   E.E.E.E.",
"E.E.E.E.E.E.E.E.$ F 1.7.6.6.6.6.6.6.6.6.6.6.6.6.6.6.6.6.6.6.6.6.6.6.6.6.6.6.6.6.6.3.) J O.7.6.6.6.6.6.6.7.7.6.7.7.4.[ + E.E.E.E.",
"E.E.E.E.E.E.E.- G 4.7.6.6.6.6.6.6.6.6.6.6.6.6.6.6.6.6.6.6.6.6.6.6.6.6.6.6.6.6.6.6.6.4.] F =.7.6.6.6.6.6.6.6.6.6.6.7.<.; E.E.E.E.",
"E.E.E.E.E.E.E.u 1.7.6.6.6.6.6.6.6.6.6.6.6.6.6.6.6.6.6.6.6.6.6.6.6.6.6.6.6.6.6.6.6.6.6.6.! T 3.6.6.6.6.6.6.6.6.6.6.7.2.w   E.E.E.",
"E.E.E.E.E.E.y =.6.6.6.6.6.6.6.6.6.6.6.6.6.6.6.6.6.6.6.6.6.6.6.6.6.6.6.6.6.6.6.6.6.6.6.7.3.T ! 2.7.6.6.6.6.6.6.6.6.7.4.Q   E.E.E.",
"E.E.E.< 3 ; ! 7.7.6.6.6.6.6.6.6.6.6.6.6.6.6.6.6.6.6.6.6.6.6.6.6.6.6.6.6.6.6.6.6.6.6.6.6.7.*.W / 7.6.6.6.6.6.6.7.7.7.7.[ O E.E.E.",
"E.E.E.w #.J u / 2.6.6.6.6.6.6.6.6.6.6.6.6.6.6.6.6.6.6.7.6.6.6.6.6.6.6.6.6.6.6.6.6.6.6.6.6.5.@.u 1.6.6.7.6.7.6.4.@.R t < o E.E.E.",
"E.E.E.F 7.4.O.F F +.5.6.6.6.6.6.6.6.6.6.6.7.7.6.7.6.6.5.7.7.7.6.6.6.6.6.6.6.6.6.6.6.6.6.6.7.6.T _ 4.7.4.+.R w 4 : ; E.E.E.E.E.E.",
"E.E.E./ 5.7.7.1.~ G ! *.4.7.6.6.6.6.6.7.7.4.=.O.! I R ] ` -.7.7.6.6.6.6.6.6.6.6.6.6.6.6.6.6.7.+.J F r 3 , ; E.E.E.E.E.E.E.E.E.E.",
"E.E.+ W 6.7.6.7.6.;.! I ~ 1.7.7.6.7.7.2.| J 0 e r j d.b c f H $.5.6.6.6.6.6.6.6.6.6.6.6.6.6.7.4.W $ E.E.E.E.E.E.E.E.E.E.E.E.E.E.",
"E.E.E.Y 7.7.6.6.6.6.5.%.! G ] 3.6.7.;.T T | 1.7.:.0.n.H.D.k.p.a W >.6.6.6.6.6.6.6.6.6.6.6.6.6.6.$.- E.E.E.E.E.E.E.E.E.E.E.E.E.E.",
"E.E.E.! 7.6.6.6.6.6.7.7.5.o.B J _ ] u F o.<.1.2.:.E D B.Y.R.F.k.z I <.6.6.6.6.6.6.6.6.6.6.6.6.6.5.9 E.E.E.E.E.E.E.E.E.E.E.E.E.E.",
"E.E.X ' 6.6.6.6.6.6.6.6.7.7.3.~ 0 - 1 K _ / L I ! T s n h.N.K.Y.V.v u 3.6.6.6.6.6.6.6.6.6.6.6.6.7.T E.E.E.E.E.E.E.E.E.E.E.E.E.E.",
"E.E.+ / 6.6.6.6.6.6.6.6.6.6.7.2.F u o.O.#.=.2.3.<.*.%.| E 0.s.Z.Y.M.l ^ 4.6.6.6.6.6.6.6.6.6.6.6.7.@.8 E.E.E.E.E.E.E.E.E.E.E.E.E.",
"E.E.E.W 7.6.6.6.6.6.6.6.6.6.7._ G 1.7.7.7.7.7.6.6.6.6.6.6.:.{ y.z.L.l.x X.7.6.6.6.6.6.6.6.6.6.6.6.4.8 E.E.E.E.E.E.E.E.E.E.E.E.E.",
"E.E.E.T 7.6.6.6.6.6.6.6.6.7.2.B O.7.6.6.6.6.6.6.6.6.6.6.6.6.5.o.t.C.J.a.u 6.6.6.6.6.6.6.6.6.6.6.6.6.9 E.E.E.E.E.E.E.E.E.E.E.E.E.",
"E.E.E.Q 6.6.6.6.6.6.6.6.6.7.] J 1.7.6.6.6.6.6.6.6.6.6.6.6.6.6.5.{ s.U.n.p 2.6.6.6.6.6.6.6.6.6.6.6.6.B E.E.E.E.E.E.E.E.L Y W H $ ",
"E.E.  H 4.6.6.6.6.6.6.6.6.6./ R 6.6.6.6.6.6.6.6.6.6.6.6.6.6.6.7.:.A A.D.k @.7.6.6.6.6.6.6.6.6.6.6.5.R   E.E.E.L Y Q [ =.4.7.<.- ",
"E.E.O y 4.7.6.6.6.6.6.6.6.4.K _ 7.6.6.6.6.6.6.6.6.6.6.6.6.6.6.7.,.9.m.J.S ~ 7.6.6.6.6.6.6.6.6.6.6.5.~ ; T Q _ =.4.7.7.7.7.7.3.5 ",
"E.E.E.6 5.7.6.6.6.6.6.6.6.5.B $.6.6.6.6.6.6.6.6.6.6.6.6.6.6.6.7.4.r.z.K.s.K 7.6.6.6.6.6.6.6.6.6.7.7.R G <.7.7.7.7.6.6.6.6.7.4.I ",
"E.E.E.< 3.6.6.6.6.6.6.6.6.4.J @.7.6.6.6.6.6.6.6.6.6.6.6.6.6.6.6.5.} N.I.M Q 5.6.6.6.6.6.6.6.6.6.6.7.T K 3.7.6.6.6.6.6.6.6.7.6._ ",
"E.E.E.; +.7.6.6.6.6.6.6.7.1.W / 7.6.6.6.6.6.6.6.6.6.6.6.6.6.6.7.4.9.A.K.n ..6.6.6.6.6.6.6.6.6.6.6.5.! B 7.6.6.6.6.6.6.6.6.7.1.J ",
"E.E.E.3 Q 7.6.6.6.6.6.6.6.4.' W 7.6.6.6.6.6.6.6.6.6.6.6.6.6.6.7.` u.F.S.A o.6.6.6.6.6.6.6.6.6.6.7.5.! H 7.6.6.6.6.6.6.7.7.1.Q 3 ",
"E.E.E.E.H 7.6.6.6.6.6.6.6.7.| U 4.6.6.6.6.6.6.6.6.6.6.6.6.6.6.>.9.b.U.n.g >.6.6.6.6.6.6.6.6.6.6.6.7.u / 5.6.6.6.6.6.6.5.[ 9 E.E.",
"E.E.E.E.r 5.6.6.6.6.6.6.6.7.=.U @.7.6.6.6.6.6.6.5.6.6.6.6.5.-.e.c.L.H.i.Y 6.6.6.6.6.6.6.6.6.6.6.7.1.r _ 7.6.6.6.7.7.4.! 6 E.E.E.",
"E.E.E.E.0 =.6.6.6.6.6.6.6.6.5./ R 2.7.6.6.6.6.6.6.6.6.7.7.@.0.x.P.L.k.d %.6.6.6.6.6.6.6.6.6.6.6.7.+.y O.7.6.6.7.7.2.H 6 E.E.E.E.",
"E.E.E.E.9 ) 7.6.6.6.6.6.6.6.7.1.U ^ 6.6.6.6.6.6.6.6.5.1._ 0 i.G.U.V.S ^ 5.6.6.6.6.6.6.6.6.6.6.6.7.o.r 3.7.6.6.5.' 6 X E.E.E.E.E.",
"E.E.E.E.E.G 7.7.6.6.6.6.6.6.6.6.$.u | 5.7.7.7.7.7.3.@.' ..W g.J.M.b I :.6.6.6.6.6.6.6.6.6.6.6.6.6.B Q 6.6.7.4.W t E.E.E.E.E.E.E.",
"E.E.E.E.E.7 4.6.6.6.6.6.6.6.6.6.6.] B ! 2.7.<.o.! T ^ *.4...i.v.z F :.7.6.6.6.6.6.6.6.6.6.6.6.6.=.r O.7.7.1.W , E.E.E.E.E.E.E.E.",
"E.E.E.E.E.: +.6.6.6.6.6.6.6.6.6.7.6.@.R H W Y W O.<.5.6.5.~ h Z ^ 4.6.6.6.6.6.6.6.6.6.6.6.6.6.7./ G 2.6.| 7 O E.E.E.E.E.E.E.E.E.",
"E.E.E.E.E.= G 6.7.6.6.6.6.6.6.6.6.6.6.4.U ; 7 y F / _ W G 0 i X.,.7.6.6.6.6.6.6.6.6.6.6.6.6.6.3.J / 5./ 4 E.E.E.E.E.E.E.E.E.E.E.",
"E.E.E.E.E.E., 1.7.6.6.6.6.6.6.6.6.6.7.;.B _ @.' ! Y F ! @.2.7.7.6.6.6.6.6.6.6.6.6.6.6.6.6.6.6.o.F @.R - E.E.E.E.E.E.E.E.E.E.E.E.",
"E.E.E.E.E.E.@ | 6.7.6.6.6.6.6.6.6.6.5.W U 2.7.7.4.6.7.7.6.6.6.6.6.6.6.6.6.6.6.6.6.6.6.6.6.6.1.u G 0 E.E.E.E.E.E.E.E.E.E.E.E.E.E.",
"E.E.E.E.E.E.  T 1.7.6.6.6.6.6.6.6.7.#.J @.6.6.6.7.6.6.6.6.6.6.6.6.6.6.6.6.6.6.6.6.6.6.6.7.6.U 2 8 E.E.E.E.E.E.E.E.E.E.E.E.E.E.E.",
"E.E.E.E.E.E.E.E.[ 7.6.6.6.6.6.6.7.3.T ~ 6.6.6.6.6.6.6.6.6.6.6.6.6.6.6.6.6.6.6.6.6.6.6.6.7.[ - . E.E.E.E.E.E.E.E.E.E.E.E.E.E.E.E.",
"E.E.E.E.E.E.E.E.G 7.6.6.6.6.6.6.7.) F 1.6.6.6.6.6.6.6.6.6.6.6.6.6.6.6.6.6.6.6.6.6.6.6.7.+.3 . E.E.E.E.E.E.E.E.E.E.E.E.E.E.E.E.E.",
"E.E.E.E.E.E.E.E., <.6.6.6.6.6.7.=.u | 7.6.6.6.6.6.6.6.6.6.6.6.6.6.6.6.6.6.6.6.6.6.6.7.<.q E.E.E.E.E.E.E.E.E.E.E.E.E.E.E.E.E.E.E.",
"E.E.E.E.E.E.E.E.O Y 2.7.6.6.7.4.R K 5.6.6.6.6.6.6.6.6.6.6.6.6.6.6.6.6.6.6.6.6.6.7.7.=.G $ E.E.E.E.E.E.E.E.E.E.E.E.E.E.E.E.E.E.E.",
"E.E.E.E.E.E.E.E.E.G _ 7.6.6.7.+.F *.7.6.6.6.6.6.6.6.6.6.6.6.6.6.6.6.6.6.6.6.6.6.6.| 6 E.E.E.E.E.E.E.E.E.E.E.E.E.E.E.E.E.E.E.E.E.",
"E.E.E.E.E.E.E.E.E.E.e 5.7.7.4.U ~ 5.6.6.6.6.6.6.6.6.6.6.6.6.6.6.6.6.6.6.6.6.7.3.~ 6 E.E.E.E.E.E.E.E.E.E.E.E.E.E.E.E.E.E.E.E.E.E.",
"E.E.E.E.E.E.E.E.E.E.& +.7.7./ F 1.6.6.6.6.6.6.6.6.6.6.6.6.6.6.6.6.6.6.6.7.6.$.T < E.E.E.E.E.E.E.E.E.E.E.E.E.E.E.E.E.E.E.E.E.E.E.",
"E.E.E.E.E.E.E.E.E.E.. F 1.=.8 T 6.7.6.6.6.6.6.6.6.6.6.6.6.6.6.6.7.7.7.5.#.H , E.E.E.E.E.E.E.E.E.E.E.E.E.E.E.E.E.E.E.E.E.E.E.E.E.",
"E.E.E.E.E.E.E.E.E.E.E.E.H F + 4 B ' 2.4.7.7.7.7.7.7.6.7.7.7.7.6.5.4.$.) F E.E.E.E.E.E.E.E.E.E.E.E.E.E.E.E.E.E.E.E.E.E.E.E.E.E.E.",
"E.E.E.E.E.E.E.E.E.E.E.E.& = E.E.@ E.5 H ! O.2.2.2.5.7.4.<.=.=.@.Q r : E.E.E.E.E.E.E.E.E.E.E.E.E.E.E.E.E.E.E.E.E.E.E.E.E.E.E.E.E.",
"E.E.E.E.E.E.E.E.E.E.E.E.  E.E.E.E.E.E.. * : : e G 0 q u y < ; * @ E.E.E.E.E.E.E.E.E.E.E.E.E.E.E.E.E.E.E.E.E.E.E.E.E.E.E.E.E.E.E.",
"E.E.E.E.E.E.E.E.E.E.E.E.E.E.E.E.E.E.E.E.E.E.E.E.E.E.E.E.E.E.E.E.E.E.E.E.E.E.E.E.E.E.E.E.E.E.E.E.E.E.E.E.E.E.E.E.E.E.E.E.E.E.E.E.",
"E.E.E.E.E.E.E.E.E.E.E.E.E.E.E.E.E.E.E.E.E.E.E.E.E.E.E.E.E.E.E.E.E.E.E.E.E.E.E.E.E.E.E.E.E.E.E.E.E.E.E.E.E.E.E.E.E.E.E.E.E.E.E.E.",
"E.E.E.E.E.E.E.E.E.E.E.E.E.E.E.E.E.E.E.E.E.E.E.E.E.E.E.E.E.E.E.E.E.E.E.E.E.E.E.E.E.E.E.E.E.E.E.E.E.E.E.E.E.E.E.E.E.E.E.E.E.E.E.E.",
"E.E.E.E.E.E.E.E.E.E.E.E.E.E.E.E.E.E.E.E.E.E.E.E.E.E.E.E.E.E.E.E.E.E.E.E.E.E.E.E.E.E.E.E.E.E.E.E.E.E.E.E.E.E.E.E.E.E.E.E.E.E.E.E."
};
