/* XPM */
static char *_1[] = {
/* columns rows colors chars-per-pixel */
"64 64 165 2 ",
"   c #030201",
".  c #0D0C03",
"X  c #100E03",
"o  c #131204",
"O  c #1C1A06",
"+  c #1A1705",
"@  c #211E06",
"#  c #242107",
"$  c #262308",
"%  c #292608",
"&  c #2C2A09",
"*  c #302E0A",
"=  c #35330C",
"-  c #3C3A0D",
";  c #38360B",
":  c #433D0E",
">  c #44420E",
",  c #49460F",
"<  c #4C480F",
"1  c #4A4410",
"2  c #4C4A10",
"3  c #524E11",
"4  c #555212",
"5  c #595413",
"6  c #5E5A14",
"7  c #5C591A",
"8  c #615E14",
"9  c #635F1A",
"0  c #666215",
"q  c #696416",
"w  c #6C6917",
"e  c #706B17",
"r  c #726E18",
"t  c #767119",
"y  c #7A761A",
"u  c #7E7A1B",
"i  c #5D6337",
"p  c #787621",
"a  c #797821",
"s  c #7B7828",
"d  c #6E7138",
"f  c #737630",
"g  c #575E41",
"h  c #5E6647",
"j  c #5C644C",
"k  c #58675E",
"l  c #626B45",
"z  c #65704F",
"x  c #737B47",
"c  c #616F5F",
"v  c #68755D",
"b  c #4C5D61",
"n  c #5D6C65",
"m  c #536464",
"M  c #697760",
"N  c #637365",
"B  c #657772",
"V  c #817D1B",
"C  c #7E8760",
"Z  c #7C8C7F",
"A  c #738479",
"S  c #86811C",
"D  c #8A851D",
"F  c #8E8A1E",
"G  c #928D1F",
"H  c #95911F",
"J  c #98901B",
"K  c #8D8C2A",
"L  c #898723",
"P  c #928E22",
"I  c #969220",
"U  c #9A9521",
"Y  c #9D9922",
"T  c #99972B",
"R  c #9C9C2E",
"E  c #959335",
"W  c #A29D23",
"Q  c #A6A123",
"!  c #AAA524",
"~  c #AEA925",
"^  c #ADAA2A",
"/  c #B2AD25",
"(  c #B5B127",
")  c #B8B427",
"_  c #B6B328",
"`  c #BAB629",
"'  c #BEBA29",
"]  c #BDB826",
"[  c #BAB735",
"{  c #C1BD2A",
"}  c #C1BB22",
"|  c #C7C327",
" . c #C6C22A",
".. c #CAC52B",
"X. c #CDC92C",
"o. c #C9C427",
"O. c #D2CE2D",
"+. c #D6D22E",
"@. c #DAD62E",
"#. c #DDD92F",
"$. c #C5C231",
"%. c #D6D230",
"&. c #D9D530",
"*. c #DDDA30",
"=. c #E0DB2E",
"-. c #E1DD31",
";. c #EEE92F",
":. c #E5E232",
">. c #E9E532",
",. c #EDEA33",
"<. c #F2EE34",
"1. c #F5F235",
"2. c #F9F636",
"3. c #FFFB37",
"4. c #FFFE38",
"5. c #898E45",
"6. c #8F924E",
"7. c #838957",
"8. c #8A905E",
"9. c #999D5A",
"0. c #828C63",
"q. c #8D986F",
"w. c #969C64",
"e. c #A4A963",
"r. c #AFB469",
"t. c #667C80",
"y. c #698288",
"u. c #718A8C",
"i. c #6F8A98",
"p. c #7A959B",
"a. c #829587",
"s. c #819891",
"d. c #829698",
"f. c #829C9F",
"g. c #93A49A",
"h. c #829DAE",
"j. c #819FB0",
"k. c #91A8AC",
"l. c #96ADB7",
"z. c #A1B6BB",
"x. c #83A7C0",
"c. c #8FB2C6",
"v. c #97B7CA",
"b. c #96B8CB",
"n. c #9FC0D1",
"m. c #ACC9D7",
"M. c #A5C3D5",
"N. c #B3D1DF",
"B. c #AFCFE2",
"V. c #A5CBE0",
"C. c #AED5E8",
"Z. c #ABD1E4",
"A. c #B5D3E3",
"S. c #B5D9EC",
"D. c #BCDDEB",
"F. c #B2D7EB",
"G. c #B5DDF0",
"H. c #BDDDF0",
"J. c #BDE3F4",
"K. c #C2E3F3",
"L. c #C6E8F6",
"P. c #C0E7FA",
"I. c #C3E8FA",
"U. c #CCECFB",
"Y. c None",
/* pixels */
"Y.Y.Y.Y.Y.Y.Y.Y.Y.Y.Y.Y.Y.Y.Y.Y.Y.Y.Y.Y.Y.Y.Y.Y.Y.Y.Y.Y.Y.Y.Y.Y.Y.Y.Y.Y.Y.Y.Y.Y.Y.Y.Y.Y.Y.Y.Y.Y.Y.Y.Y.Y.Y.Y.Y.Y.Y.Y.Y.Y.Y.Y.Y.Y.",
"Y.Y.Y.Y.Y.Y.Y.Y.Y.Y.Y.Y.Y.Y.Y.Y.Y.Y.Y.Y.Y.Y.Y.Y.Y.Y.Y.Y.Y.Y.Y.Y.Y.Y.Y.Y.Y.Y.Y.Y.Y.Y.Y.Y.Y.Y.Y.Y.Y.Y.Y.Y.Y.Y.Y.Y.Y.Y.Y.Y.Y.Y.Y.Y.",
"Y.Y.Y.Y.Y.Y.Y.Y.Y.Y.Y.Y.Y.Y.Y.Y.Y.Y.Y.Y.Y.Y.Y.Y.Y.Y.Y.Y.Y.Y.Y.Y.Y.Y.Y.Y.Y.Y.Y.Y.Y.Y.Y.Y.Y.Y.Y.Y.Y.Y.Y.Y.Y.Y.Y.Y.Y.Y.Y.Y.Y.Y.Y.Y.",
"Y.Y.Y.Y.Y.Y.Y.Y.Y.Y.Y.Y.Y.Y.Y.Y.Y.Y.Y.Y.Y.Y.Y.Y.Y.Y.Y.Y.Y.Y.Y.Y.Y.Y.Y.Y.Y.Y.Y.Y.Y.Y.Y.Y.Y.Y.Y.Y.Y.Y.Y.Y.Y.Y.Y.Y.Y.Y.Y.Y.Y.Y.Y.Y.",
"Y.Y.Y.Y.Y.Y.Y.Y.Y.Y.Y.Y.Y.Y.# S F Y 4 0 Y.Y.Y.Y.Y.Y.Y.Y.Y.Y.Y.Y.Y.Y.Y.Y.Y.Y.Y.Y.Y.Y.Y.Y.Y.Y.Y.Y.Y.Y.Y.Y.Y.Y.Y.Y.Y.Y.Y.Y.Y.Y.Y.Y.",
"Y.Y.Y.Y.Y.Y.Y.Y.Y.Y.Y.Y.Y.O q ,.4.<.,.' W r 3 O Y.Y.Y.Y.Y.Y.Y.Y.Y.Y.Y.Y.Y.Y.Y.Y.Y.Y.Y.Y.Y.Y.Y.Y.Y.Y.Y.Y.Y.Y.Y.Y.Y.Y.Y.Y.Y.Y.Y.Y.",
"Y.Y.Y.Y.Y.Y.Y.Y.Y.Y.Y.Y.Y., *.3.3.4.4.4.4.2.@.) F w 1 Y.. Y.Y.Y.Y.Y.Y.Y.Y.Y.Y.Y.Y.Y.Y.Y.Y.Y.Y.Y.Y.Y.Y.Y.Y.Y.Y.Y.Y.Y.Y.Y.Y.Y.Y.Y.",
"Y.Y.Y.Y.Y.Y.Y.Y.Y.Y.Y.Y.= X.2.4.3.3.3.3.3.4.4.4.2.<.X.` y t $ * Y.Y.Y.Y.Y.Y.Y.Y.Y.Y.Y.Y.Y.Y.Y.Y.Y.Y.Y.Y.Y.Y.Y.Y.Y.Y.Y.Y.Y.Y.Y.Y.",
"Y.Y.Y.Y.Y.Y.Y.Y.Y.Y.Y.Y.0 +.4.4.3.3.3.3.3.3.3.3.4.3.4.3.4.:.@.U Q 4 Y.# Y.Y.Y.Y.Y.Y.Y.Y.Y.Y.Y.Y.Y.Y.Y.Y.Y.Y.Y.Y.Y.Y.Y.Y.Y.Y.Y.Y.",
"Y.Y.Y.Y.Y.Y.Y.Y.Y.Y.Y.Y.Y.G  .4.4.4.3.3.3.3.3.3.3.3.3.3.4.4.2.,...W t - X O O @ # Y.Y.Y.Y.Y.Y.Y.Y.Y.Y.Y.Y.Y.Y.Y.Y.Y.Y.Y.Y.Y.Y.Y.",
"Y.Y.Y.Y.Y.Y.Y.Y.Y.Y.Y.Y.Y.Y.P ~ 2.4.3.3.3.3.3.3.3.3.4.4.-.{ J t V P I Y ~ / ~ ~ U G 5 w @ Y.Y.Y.Y.Y.Y.Y.Y.Y.Y.Y.Y.Y.Y.Y.Y.Y.Y.Y.",
"Y.Y.Y.Y.Y.Y.Y.Y.Y.Y.Y.Y.Y.Y.Y.Y.Y >.4.4.3.3.3.3.4.3...Q y r W { ,.3.2.4.4.4.4.3.4.2.1.#.( S S # Y.Y.Y.Y.Y.Y.Y.Y.Y.Y.Y.Y.Y.Y.Y.Y.",
"Y.Y.Y.Y.Y.Y.Y.Y.Y.Y.Y.Y.Y.Y.Y.Y.Y.I O.4.4.3.3.4.O.W 0 V  .-.4.4.4.3.3.3.3.3.3.3.4.3.4.4.4.1.-.Q q Y.Y.Y.Y.Y.Y.Y.Y.Y.Y.Y.Y.Y.Y.Y.",
"Y.Y.Y.Y.Y.Y.Y.Y.Y.Y.Y.Y.Y.Y.Y.Y.Y.Y.P ` 4.4.1.) u V X.>.4.3.3.3.3.3.3.3.3.3.3.3.3.3.3.3.3.4.3.4.>.( y # Y.Y.Y.Y.Y.Y.Y.Y.Y.Y.Y.Y.",
"Y.Y.Y.Y.Y.Y.Y.Y.Y.Y.Y.Y.Y.Y.Y.Y.Y.Y.Y.P ~ X.! 6 ' :.4.4.3.3.3.3.3.3.3.3.3.3.3.3.3.3.3.3.3.3.3.3.4.2.>.~ ; Y.Y.Y.Y.Y.Y.Y.Y.Y.Y.Y.",
"Y.Y.Y.Y.Y.Y.Y.Y.Y.Y.Y.Y.Y.Y.Y.Y.Y.Y.Y.Y.6 4 V ..3.4.3.3.3.3.3.3.3.3.3.3.3.3.3.3.3.3.3.3.3.3.3.3.4.4.4.2.X.3 O Y.Y.Y.Y.Y.Y.Y.Y.Y.",
"Y.Y.Y.Y.Y.o = Y.Y.Y.Y.Y.Y.Y.Y.Y.Y.Y.Y.Y.o D +.4.3.3.3.3.3.3.3.3.3.3.3.3.3.3.3.3.3.3.2.3.3.3.3.3.3.3.3.4.2.-.8   Y.Y.Y.Y.Y.Y.Y.Y.",
"Y.Y.Y.Y.  P { 8 - Y.Y.Y.Y.Y.Y.Y.Y.Y.Y.= F ,.4.4.3.3.3.3.3.3.3.3.3.3.3.3.3.3.3.3.3.3.3.3.3.3.3.3.3.3.3.3.4.2.O.0 Y.Y.Y.Y.Y.Y.Y.Y.",
"Y.Y.Y.  0 -.4.,.y - Y.Y.Y.Y.Y.Y.Y.Y.2 u 2.3.4.3.3.3.3.3.3.3.3.3.3.3.3.3.3.3.3.3.3.3.3.3.3.3.3.3.3.3.3.3.3.4.4.' u Y.Y.Y.Y.Y.Y.Y.",
"Y.Y.  > O.4.4.4.2.Y > Y.Y.Y.Y.Y.Y.Y.u 1.3.3.3.3.3.3.3.3.3.3.3.3.3.3.3.3.3.3.3.3.3.3.3.3.3.3.3.3.3.3.3.3.3.3.4.4.' > Y.Y.Y.Y.Y.Y.",
"Y.Y.O ' 2.4.3.3.4.3.{ 4 Y.Y.Y.Y.Y.0 :.4.3.3.3.3.3.3.3.3.3.3.3.3.3.3.3.3.3.3.3.3.3.3.3.3.3.3.3.3.3.3.3.3.3.3.3.3.4.( & Y.Y.Y.Y.Y.",
"Y.Y.q  .4.3.3.3.3.3.4.-.0 - Y.Y.: ( 4.3.3.3.3.3.3.3.3.3.3.3.3.3.3.3.3.3.3.3.3.3.3.3.3.3.3.3.3.3.3.3.3.3.3.3.3.3.4.>.I Y.Y.Y.Y.Y.",
"Y.Y.Y.u 3.4.3.3.3.3.3.4.1.D - O u 3.3.3.3.3.3.3.3.3.3.3.3.3.3.3.3.3.4.4.3.3.3.2.4.3.3.3.3.3.3.3.3.3.3.3.3.3.3.3.3.4.O.; Y.Y.Y.Y.",
"Y.Y.Y.6 { 3.3.3.3.3.3.4.4.4.P 5 *.3.3.3.3.3.3.3.3.3.3.3.3.3.3.3.4.1.=.] W R P ^ / =.,.4.3.3.3.3.3.3.3.3.3.3.3.3.3.4.3.Y Y.Y.Y.Y.",
"Y.Y.Y.Y.V 4.4.3.3.3.3.3.3.1./ ~ 1.4.3.3.3.3.3.3.3.3.3.3.3.3.4.1.+.T l N t.i.p.t.c z K / 2.3.3.3.3.3.3.3.3.3.3.3.3.3.4.+.> Y.Y.Y.",
"Y.Y.Y.Y.3 ( 3.3.3.3.3.3.3.<.I ..4.3.3.3.3.3.3.3.3.3.3.3.3.4.#.W h f.v.G.J.J.I.G.S.c.b 7 S >.3.3.3.3.3.3.3.3.3.3.3.3.3.2.I Y.Y.Y.",
"Y.Y.Y.Y.Y.w 1.4.3.3.3.3.4.( G 3.3.3.3.3.3.3.3.3.3.3.3.3.4.<.p A l.J.L.I.A.A.D.H.N.s.5.{ ! V @.4.3.3.3.3.3.3.3.3.3.3.3.4.{ > Y.Y.",
"Y.Y.Y.Y.Y.- ~ 3.3.3.3.3.<.Q ' 2.4.3.3.3.3.3.3.3.3.3.3.2.<.u u.V.I.A.g.q.8.e.w.a.n s =.3.2.] e X.4.3.3.3.3.3.3.3.3.3.3.3.,.V Y.Y.",
"Y.Y.Y.Y.Y.Y.Q <.3.3.3.4.<.S X.4.3.3.3.3.3.3.3.3.3.3.4.4.P N V.I.k.r.` +.<.<.>.o.W W { { 2.<./ U -.3.3.3.3.3.3.3.3.3.3.3.4.U @ Y.",
"Y.Y.Y.Y.Y.Y.* U 3.3.3.4.X.Y 1.4.3.3.3.3.3.3.3.3.3.3.4. .i b.I.k.9.#.3.3.4.4.4.3.4.,.&.[ Y #...y ) 3.3.4.3.3.4.4.4.4.3.2.2.) & Y.",
"Y.Y.Y.Y.Y.Y.Y.V :.4.3.3. .U 1.4.3.3.3.3.3.3.3.3.3.3.1.U y.S.M.C #.3.4.3.3.3.3.3.3.3.3.2.%.W ' H S >.3.1.2.<.-.&...~ ~ Y V e : 1 ",
"Y.Y.Y.Y.Y.Y.Y.% F 4.4.3.Y / 4.3.3.3.3.3.3.3.3.3.3.3.,.d h.L.d.{ 1.4.3.3.3.3.3.3.3.3.3.3.3.<.^ P > P U D G D V S S P Q / { O.O.:.",
"Y.Y.Y.Y.Y.Y.Y.Y.0 X.4.2.W ( 4.3.3.3.3.3.3.3.3.3.3.4.} g C.A.0.X.4.3.3.3.3.3.3.3.3.3.3.3.3.4.3.+.S e Q ) X.@.-.:.1.3.3.4.4.4.4. .",
"Y.Y.Y.Y.Y.Y.Y.Y.. u 3.2.I O.4.3.3.3.3.3.3.3.3.3.3.4.' n S.m.7.<.4.3.3.3.3.3.3.3.3.3.3.3.3.3.3.4.' P 3.4.4.4.4.4.4.3.3.3.3.3.2.W ",
"Y.Y.Y.Y.Y.Y.Y.Y.Y.6 { 2.G  .4.3.3.3.3.3.3.3.3.3.3.4.Q B K.N.6.;.4.3.3.3.3.3.3.3.3.3.3.3.3.3.3.4.X.D <.3.3.2.3.3.3.3.3.3.3.4.>.> ",
"Y.Y.Y.Y.Y.Y.Y.Y.Y.Y.F ,.I X.3.3.3.3.3.3.3.3.3.3.3.4.~ m K.A.7.=.4.3.3.3.3.3.3.3.3.3.3.3.3.3.3.4.{ D 1.3.3.3.3.3.3.3.3.3.3.4.Y , ",
"Y.Y.Y.Y.Y.Y.Y.Y.Y.Y.> ~ S  .4.3.3.3.3.3.3.3.3.3.3.4./ k S.H.u...4.3.3.3.3.3.3.3.3.3.3.3.3.3.3.4. .V 1.4.3.3.3.3.3.3.3.3.4.:.G Y.",
"Y.Y.Y.Y.Y.Y.Y.Y.Y.Y.Y.y F ` 4.4.3.3.3.3.3.3.3.3.3.4.X.l B.U.z.E ;.3.3.3.3.3.3.3.3.3.3.3.3.3.3.3.W ( 3.3.3.3.3.3.3.3.3.3.4. .$ Y.",
"Y.Y.Y.Y.Y.Y.Y.Y.Y.Y.Y.& 2 ! 3.3.3.3.3.3.3.3.3.3.3.3.<.f j.U.M.j X.4.3.3.3.3.3.3.3.3.3.3.3.3.4.1.W ` 4.3.3.3.3.3.3.3.3.3.4.w Y.Y.",
"Y.Y.Y.Y.Y.Y.Y.Y.Y.Y.Y.Y.+ F 3.3.3.3.3.3.3.3.3.3.3.3.3.J B G.n.d F =.3.3.3.3.3.3.3.3.3.3.3.3.4.O.u ,.4.3.3.3.3.3.3.3.4.4.( 8 Y.Y.",
"Y.Y.Y.Y.Y.Y.Y.Y.Y.Y.Y.Y.  8 2.4.3.3.3.3.3.3.3.3.3.3.4.-.x x.s.K / { 2.3.3.3.3.3.3.3.3.3.3.4.1.G ] 2.3.3.3.3.3.3.3.3.4.-.U Y.Y.Y.",
"Y.Y.Y.Y.Y.Y.Y.Y.Y.Y.Y.Y.Y.- O.4.3.3.3.3.3.3.3.3.3.3.4.1.~ M M >.:.L ' 4.4.3.3.3.3.3.3.3.4.4.! Q @.4.3.3.3.3.3.3.3.4.2.( = Y.Y.Y.",
"Y.Y.Y.Y.Y.Y.Y.Y.Y.Y.Y.Y.Y.o Y 4.3.3.3.3.3.3.3.3.3.3.3.4.1.V 9 &.4.&.Y ..4.4.3.3.3.3.3.3.4.~ G  .4.3.3.3.3.3.3.3.3.3.-.4   Y.Y.Y.",
"Y.Y.Y.Y.Y.Y.Y.Y.Y.Y.Y.Y.Y.Y.y 2.3.3.3.3.3.3.3.3.3.3.3.3.3.<.U e +.1.%.` X.2.4.4.3.4.4.:.) D X.1.4.3.3.3.3.3.3.3.3.4.G + Y.Y.Y.Y.",
"Y.Y.Y.Y.Y.Y.Y.Y.Y.Y.Y.Y.Y.Y.-  .3.3.3.3.3.3.3.3.3.3.3.3.4.3.<./ r ) X.! Y @.2.4.3.=.) H S =.2.4.3.3.3.3.3.3.3.3.4...- Y.Y.Y.Y.Y.",
"Y.Y.Y.Y.Y.Y.Y.Y.Y.Y.Y.Y.Y.Y.Y.H 3.3.3.3.3.3.3.3.3.3.3.3.3.3.4.1.-.G P y 4 > Q Q U G V  .:.4.3.3.3.3.3.3.3.3.3.4.<.8 Y.Y.Y.Y.Y.Y.",
"Y.Y.Y.Y.Y.Y.Y.Y.Y.Y.Y.Y.Y.Y.Y.> X.4.3.3.3.3.3.3.3.3.3.3.3.3.3.3.4.3.+...W , y Y ( @.,.4.4.3.3.3.3.3.3.3.3.3.4.4.F Y.Y.Y.Y.Y.Y.Y.",
"Y.Y.Y.Y.Y.Y.Y.Y.Y.Y.Y.Y.Y.Y.Y.Y.F 1.3.3.3.3.3.3.3.3.3.3.3.3.3.3.3.4.4.4.2.G H 4.4.4.4.3.4.3.3.3.3.3.3.3.3.3.4.! q Y.Y.Y.Y.Y.Y.Y.",
"Y.Y.Y.Y.Y.Y.Y.Y.Y.Y.Y.Y.Y.Y.Y.Y.& ( 4.4.3.3.3.3.3.3.3.3.3.3.3.3.3.3.3.3.2./ W 4.3.3.2.3.3.3.3.3.3.3.3.3.2.4...q Y.Y.Y.Y.Y.Y.Y.Y.",
"Y.Y.Y.Y.Y.Y.Y.Y.Y.Y.Y.Y.Y.Y.Y.Y.Y.V X.4.3.3.3.3.3.3.3.3.3.3.3.3.3.3.3.3.4...G <.4.3.3.3.3.3.3.3.3.3.3.3.4.>.t Y.Y.Y.Y.Y.Y.Y.Y.Y.",
"Y.Y.Y.Y.Y.Y.Y.Y.Y.Y.Y.Y.Y.Y.Y.Y.Y.Y.u <.3.3.3.3.3.3.3.3.3.3.3.3.3.3.3.3.4.*.V ,.4.3.3.3.3.3.3.3.3.3.3.3.<.t Y.Y.Y.Y.Y.Y.Y.Y.Y.Y.",
"Y.Y.Y.Y.Y.Y.Y.Y.Y.Y.Y.Y.Y.Y.Y.Y.Y.Y.% D 3.4.3.3.3.3.3.3.3.3.3.3.3.3.3.3.4.>.U -.3.3.3.3.3.3.3.3.3.4.3.2.y - Y.Y.Y.Y.Y.Y.Y.Y.Y.Y.",
"Y.Y.Y.Y.Y.Y.Y.Y.Y.Y.Y.Y.Y.Y.Y.Y.Y.Y.Y.> D 1.4.4.3.3.3.3.3.3.3.3.3.3.3.3.4.>.P @.4.3.3.3.3.3.3.3.3.4.1.G - Y.Y.Y.Y.Y.Y.Y.Y.Y.Y.Y.",
"Y.Y.Y.Y.Y.Y.Y.Y.Y.Y.Y.Y.Y.Y.Y.Y.Y.Y.Y.Y.Y.y &.4.3.3.3.3.3.3.3.3.3.3.3.3.3.2.U { 4.3.3.3.3.3.3.3.4.,.W & Y.Y.Y.Y.Y.Y.Y.Y.Y.Y.Y.Y.",
"Y.Y.Y.Y.Y.Y.Y.Y.Y.Y.Y.Y.Y.Y.Y.Y.Y.Y.Y.Y.Y.Y.q ' 4.3.3.3.3.3.3.3.3.3.3.3.3.3.! Q 4.3.3.3.3.3.3.4.*.W @ Y.Y.Y.Y.Y.Y.Y.Y.Y.Y.Y.Y.Y.",
"Y.Y.Y.Y.Y.Y.Y.Y.Y.Y.Y.Y.Y.Y.Y.Y.Y.Y.Y.Y.Y.Y.Y.q U 2.4.4.3.3.3.3.3.3.3.3.3.3.' Y 2.3.3.3.3.4.4.>.S Y.Y.Y.Y.Y.Y.Y.Y.Y.Y.Y.Y.Y.Y.Y.",
"Y.Y.Y.Y.Y.Y.Y.Y.Y.Y.Y.Y.Y.Y.Y.Y.Y.Y.Y.Y.Y.Y.Y.Y.2 0 X.,.4.4.3.3.3.3.3.3.3.4. .F <.4.3.3.4.2.-.0 Y.Y.Y.Y.Y.Y.Y.Y.Y.Y.Y.Y.Y.Y.Y.Y.",
"Y.Y.Y.Y.Y.Y.Y.Y.Y.Y.Y.Y.Y.Y.Y.Y.Y.Y.Y.Y.Y.Y.Y.Y.Y.Y.& ! ( ,.2.4.4.3.3.3.3.4.+.t >.4.4.4.3.` 2 + Y.Y.Y.Y.Y.Y.Y.Y.Y.Y.Y.Y.Y.Y.Y.Y.",
"Y.Y.Y.Y.Y.Y.Y.Y.Y.Y.Y.Y.Y.Y.Y.Y.Y.Y.Y.Y.Y.Y.Y.Y.Y.Y.Y.Y.Y.4 G ) :.:.4.3.4.4.:.u *.4.4.1.D y Y.Y.Y.Y.Y.Y.Y.Y.Y.Y.Y.Y.Y.Y.Y.Y.Y.Y.",
"Y.Y.Y.Y.Y.Y.Y.Y.Y.Y.Y.Y.Y.Y.Y.Y.Y.Y.Y.Y.Y.Y.Y.Y.Y.Y.Y.Y.Y.Y.. 5 ; e 0 S G H U 3 X.4...y % Y.Y.Y.Y.Y.Y.Y.Y.Y.Y.Y.Y.Y.Y.Y.Y.Y.Y.Y.",
"Y.Y.Y.Y.Y.Y.Y.Y.Y.Y.Y.Y.Y.Y.Y.Y.Y.Y.Y.Y.Y.Y.Y.Y.Y.Y.Y.Y.Y.Y.Y.Y.Y.Y.  Y.Y.Y.Y.& ! Y t Y.Y.Y.Y.Y.Y.Y.Y.Y.Y.Y.Y.Y.Y.Y.Y.Y.Y.Y.Y.Y.",
"Y.Y.Y.Y.Y.Y.Y.Y.Y.Y.Y.Y.Y.Y.Y.Y.Y.Y.Y.Y.Y.Y.Y.Y.Y.Y.Y.Y.Y.Y.Y.Y.Y.Y.Y.Y.Y.Y.Y.X 2 % Y.Y.Y.Y.Y.Y.Y.Y.Y.Y.Y.Y.Y.Y.Y.Y.Y.Y.Y.Y.Y.Y.",
"Y.Y.Y.Y.Y.Y.Y.Y.Y.Y.Y.Y.Y.Y.Y.Y.Y.Y.Y.Y.Y.Y.Y.Y.Y.Y.Y.Y.Y.Y.Y.Y.Y.Y.Y.Y.Y.Y.Y.Y.Y.Y.Y.Y.Y.Y.Y.Y.Y.Y.Y.Y.Y.Y.Y.Y.Y.Y.Y.Y.Y.Y.Y.Y.",
"Y.Y.Y.Y.Y.Y.Y.Y.Y.Y.Y.Y.Y.Y.Y.Y.Y.Y.Y.Y.Y.Y.Y.Y.Y.Y.Y.Y.Y.Y.Y.Y.Y.Y.Y.Y.Y.Y.Y.Y.Y.Y.Y.Y.Y.Y.Y.Y.Y.Y.Y.Y.Y.Y.Y.Y.Y.Y.Y.Y.Y.Y.Y.Y."
};
