/* XPM */
static char *_9[] = {
/* columns rows colors chars-per-pixel */
"64 64 161 2 ",
"   c #030201",
".  c #080702",
"X  c #0D0B02",
"o  c #100F04",
"O  c #151304",
"+  c #1D1B06",
"@  c #191604",
"#  c #211F07",
"$  c #232107",
"%  c #272408",
"&  c #292608",
"*  c #2D2A09",
"=  c #312E0A",
"-  c #35320B",
";  c #3A370C",
":  c #3C3B0D",
">  c #413D0D",
",  c #44420E",
"<  c #4B480F",
"1  c #48430E",
"2  c #4A4710",
"3  c #4D4A10",
"4  c #524D10",
"5  c #555212",
"6  c #595613",
"7  c #5D5914",
"8  c #625D14",
"9  c #656215",
"0  c #6A6516",
"q  c #6D6917",
"w  c #6A6619",
"e  c #716D17",
"r  c #726E18",
"t  c #767219",
"y  c #79761A",
"u  c #7E791A",
"i  c #5C5720",
"p  c #5D5D22",
"a  c #51573A",
"s  c #595A35",
"d  c #5E6330",
"f  c #5D623D",
"g  c #636427",
"h  c #7F7F2A",
"j  c #7A7E38",
"k  c #747835",
"l  c #505E56",
"z  c #59634A",
"x  c #5D6A56",
"c  c #757B43",
"v  c #797E40",
"b  c #657052",
"n  c #5B6B69",
"m  c #6C7E6E",
"M  c #64787A",
"N  c #687B75",
"B  c #837E1B",
"V  c #7E8B5D",
"C  c #74846D",
"Z  c #6A807F",
"A  c #7B8873",
"S  c #86821C",
"D  c #8A851D",
"F  c #8D8A1E",
"G  c #928D1F",
"H  c #96901F",
"J  c #B2AD1F",
"K  c #878627",
"L  c #928E20",
"P  c #969221",
"I  c #9A9521",
"U  c #9E9A22",
"Y  c #949229",
"T  c #898B37",
"R  c #A19C23",
"E  c #A5A224",
"W  c #AAA525",
"Q  c #ADA925",
"!  c #B1AC25",
"~  c #B6B226",
"^  c #B9B425",
"/  c #B6B32A",
"(  c #BAB629",
")  c #BDB929",
"_  c #BEB825",
"`  c #A7A636",
"'  c #AEA930",
"]  c #B2B035",
"[  c #C1BD2A",
"{  c #C3BE27",
"}  c #C3BF30",
"|  c #C5C12A",
" . c #C9C62B",
".. c #CECA2C",
"X. c #C9C323",
"o. c #D1CD2D",
"O. c #D1CB27",
"+. c #D6D22E",
"@. c #DAD62F",
"#. c #DDD92E",
"$. c #C8C530",
"%. c #C7C539",
"&. c #DBD730",
"*. c #DEDB30",
"=. c #E3DE2E",
"-. c #E1DD31",
";. c #E5E12E",
":. c #F1EC2E",
">. c #E5E232",
",. c #E9E632",
"<. c #EDEA33",
"1. c #F1EE34",
"2. c #F5F235",
"3. c #F9F736",
"4. c #FFFB37",
"5. c #FFFF38",
"6. c #80864F",
"7. c #8C9248",
"8. c #9A9B4B",
"9. c #9FA148",
"0. c #A1A148",
"q. c #B9BA51",
"w. c #848D6E",
"e. c #88936F",
"r. c #6B7C83",
"t. c #68818B",
"y. c #7E8F8F",
"u. c #718A8F",
"i. c #708990",
"p. c #7C9699",
"a. c #7E9BAC",
"s. c #859788",
"d. c #859B9A",
"f. c #9BAD9A",
"g. c #839EAE",
"h. c #94A9AD",
"j. c #9EB1AD",
"k. c #87A7BB",
"l. c #8FA8BA",
"z. c #97ACB2",
"x. c #96B2BD",
"c. c #A8BAAF",
"v. c #8DB0C4",
"b. c #97B8C6",
"n. c #95B6C3",
"m. c #9EC2D1",
"M. c #A2C5DA",
"N. c #ACC9D6",
"B. c #B7D1DD",
"V. c #ACD2E6",
"C. c #ABD1E8",
"Z. c #B0D3E7",
"A. c #B9DCED",
"S. c #B7D9E9",
"D. c #BBE1F4",
"F. c #BFE5F8",
"G. c #C3E4F4",
"H. c #C3E7F9",
"J. c #C4E9F9",
"K. c #CBEDFC",
"L. c None",
/* pixels */
"L.L.L.L.L.L.L.L.L.L.L.L.L.L.L.L.L.L.L.L.L.L.L.L.L.L.L.L.L.L.L.L.L.L.L.L.L.L.L.L.L.L.L.L.L.L.L.L.L.L.L.L.L.L.L.L.L.L.L.L.L.L.L.L.",
"L.L.L.L.L.L.L.L.L.L.L.L.L.L.L.L.L.L.L.L.L.L.L.L.L.L.L.L.L.L.L.L.L.L.L.L.L.L.L.L.L.L.L.L.L.L.L.L.L.L.L.L.L.L.L.L.L.L.L.L.L.L.L.L.",
"L.L.L.L.L.L.L.L.L.L.L.L.L.L.L.L.L.L.L.L.L.L.L.L.L.L.L.L.L.L.L.L.L.L.L.L.L.L.L.L.L.L.L.L.L.L.L.L.L.L.L.L.L.L.L.L.L.L.L.L.L.L.L.L.",
"L.L.L.L.L.L.L.L.L.L.L.L.L.L.L.L.L.L.L.L.L.L.L.L.L.L.L.L.L.L.L.L.L.L.L.L.L.L.L.L.L.L.L.L.L.L.L.L.L.L.L.L.L.L.L.L.L.L.L.L.L.L.L.L.",
"L.L.L.L.L.L.L.L.L.L.L.L.L.L.L.L.L.L.L.L.L.L.L.L.L.L.L.L.L.L.L.L.L.L.L.L.L.L.L.L.L.L.L.L.L.L.L.L.L.L.L.L.L.L.L.L.L.L.L.L.L.L.L.L.",
"L.L.L.L.L.L.L.L.L.L.L.L.L.L.L.L.L.L.L.L.L.L.L.L.L.L.L.L.L.L.L.L.L.L.L.L.L.L.L.L.L.L.L.L.L.L.L.L.L.L.L.L.L.L.L.L.L.L.L.L.L.L.L.L.",
"L.L.L.L.L.L.L.L.L.L.L.L.L.L.L.L.L.L.L.L.L.L.L.L.L.L.L.L.L.L.L.L.L.L.L.L.L.L.L.L.L.L.L.L.L.L.L.L.L.L.L.L.L.L.L.L.L.L.L.L.L.L.L.L.",
"L.L.L.L.L.L.L.L.L.L.L.L.L.L.L.L.L.L.L.L.L.L.L.L.L.L.L.L.L.L.L.L.L.L.L.L.L.L.L.L.L.L.L.L.L.L.L.L.L.L.L.L.L.L.L.L.L.L.L.L.L.L.L.L.",
"L.L.L.L.L.L.L.L.L.L.L.L.L.L.L.L.. L.L.L.L.X L.. + L.L.L.L.O L.. = - r 8 e D q D S 4 7 L.L.O L.L.L.L.L.L.L.L.L.L.L.L.L.L.L.L.L.L.",
"L.L.L.L.L.L.L.L.3 9 I t S S y S t u U y U L L U F E W D 0 - 1 D W @.,.1.3.3.5.2.<.2.@.) ( D 2 $ L.L.L.L.L.L.L.L.L.L.L.L.L.L.L.L.",
"L.L.L.L.L.L.L.+ U 1.<.5.3.3.5.2.5.5.2.5.3.5.5.4.5.*.W D S Q ,.3.5.4.5.5.4.4.4.5.5.4.5.5.4.2.,.~ 0 $   L.L.L.L.L.L.L.L.L.L.L.L.L.",
"L.L.L.L.L.L.L.; -.4.4.4.4.5.4.5.4.4.5.4.5.4.5.3.( y P ..2.5.5.5.4.4.4.4.4.4.4.4.4.4.4.4.4.5.5.3.<.( 7 L.L.L.L.L.L.L.L.L.L.L.L.L.",
"L.L.L.L.L.L.+ u 2.5.4.4.4.4.4.4.4.4.4.4.4.5.*.R q ! 2.5.4.4.4.4.4.4.4.4.4.4.4.4.4.4.4.4.4.4.4.5.5.3.+.H 6 L.L.L.L.L.L.L.L.L.L.L.",
"L.L.L.L.L.L.& ..3.5.4.4.4.4.4.4.4.4.4.4.5...t L ..4.5.4.4.4.4.4.4.4.4.4.4.4.4.4.4.4.4.4.4.4.4.4.4.4.5.5.| 5 O L.L.L.L.L.L.L.L.L.",
"L.L.L.L.L.L.: | 4.5.5.4.4.4.4.4.4.4.5.3. .t D 2.4.4.4.4.4.4.4.4.4.4.4.4.4.4.4.4.4.4.4.4.4.4.4.4.4.4.3.5.4.*.I L.L.L.L.L.L.L.L.L.",
"L.L.L.L.L.L.L.K I ( ,.5.5.4.4.4.4.4.5.[ t R ,.5.4.4.4.4.4.4.4.4.4.4.4.4.4.4.4.4.4.4.4.4.4.4.4.4.4.4.4.5.5.5.>.u O L.L.L.L.L.L.L.",
"L.L.L.L.L.L.L.L.L.L.L W +.3.5.5.5.4.*.r R 3.5.4.4.4.4.4.4.4.4.4.4.4.4.4.4.4.4.4.4.4.4.4.4.4.4.4.4.4.4.4.4.5.5.,.S * L.L.L.L.L.L.",
"L.L.L.L.L.L.L.L.L.L.L.L.L I ) ,.5.-.S P ,.5.4.4.4.4.4.4.4.4.4.4.4.4.4.4.4.4.4.4.4.4.4.4.4.4.4.4.4.4.4.4.4.4.4.5.,.q L.L.L.L.L.L.",
"L.L.L.L.L.L.L.L.L.L.L.L.L.L.L.L W D t ,.4.4.4.4.4.4.4.4.4.4.4.4.4.4.4.4.4.4.4.4.4.4.4.4.4.4.4.4.4.4.4.4.4.4.4.4.4.o.5 L.L.L.L.L.",
"L.L.L.L.L.L.L.L.L.L.L.L.L.L.L.L.& 6 [ 5.4.4.4.4.4.4.4.4.4.4.4.4.4.4.4.4.4.4.4.4.4.4.4.4.4.4.4.4.4.4.4.4.4.4.4.4.5.5.[ 5 L.L.L.L.",
"L.L.L.L.L.L.L.L.L.L.L.L.L.L.L.L.+ R 2.5.4.4.4.4.4.4.4.4.4.4.4.4.4.4.4.5.5.5.5.4.4.5.4.4.4.4.4.4.4.4.4.4.4.4.4.4.4.4.3.F L.L.L.L.",
"L.L.L.L.L.L.L.L.L.L.L.L.L.L.L.L.6 <.5.4.4.4.4.4.4.4.4.4.4.4.4.4.4.5.4.=.+.! ( ( ! -.3.4.4.4.4.4.4.4.4.4.4.4.4.4.4.4.5.o.- X ; . ",
"L.L.L.L.L.L.L.L.L.L.L.L.L.L.L.1 Q 5.4.4.4.4.4.4.4.4.4.4.4.4.4.5.2.O.Y c z m n N a 8 B [ 1.5.5.4.4.4.4.4.4.4.4.5.4.>.! L 8 F Q ; ",
"L.L.. L.L.L.L.L.L.L.L.L.L.L.L.0 1.4.4.4.4.4.4.4.4.4.4.4.4.4.4.>.K z u.v.C.C.D.n.b [  .F r / 1.4.4.4.4.4.4.5.2.&.E y G ( ,.5.) L.",
"L.L.* 6 , L.L.L.L.L.L.L.L.L.L.R 5.4.4.4.4.4.4.4.4.4.4.4.4.4.@.T M M.G.G.J.J.N.A ] 3.5.1. .L Q 2.4.5.4.5.1.[ P B P ..1.5.5.5.[ % ",
"L.  I <.@.S 3 : L.L.L.L.L.L.3 @.5.4.4.4.4.4.4.4.4.4.4.4.4...k p.Z.K.S.N.j.f.M p [ ( $.,.,.! r W 2.3.@.) G S Q *.3.5.5.4.5.5.E O ",
"L.$ ..5.4.5.1.W 9 , L.L.L.L.9 3.4.4.4.4.4.4.4.4.4.4.4.4.,.K r.A.G.x.e.0.%.)  .{ | o.) I R } I q W P B G  .>.4.5.4.4.4.4.4.5.B L.",
"  q ,.5.4.4.5.5.5...S 3 : + P 4.5.4.4.4.4.4.4.4.4.4.4.5.E C M.G.c.8.X.4.5.4.4.4.5.3.4.3.-.( R y > I o.3.4.5.4.4.4.4.4.4.5.2.L L.",
"X ) 3.3.4.5.4.4.4.5.5.<.E 3 ..5.4.4.4.4.4.4.4.4.4.4.3.1.g x.J.j.q.-.5.4.5.4.4.4.4.4.4.4.5.5.3.*.G ! 5.5.4.4.4.4.4.4.4.4.5.<.r L.",
"* ( 5.4.4.4.4.4.4.4.4.5.-.U ..5.4.4.4.4.4.4.4.4.4.4.4./ x C.S.A =.4.4.4.5.4.4.4.4.4.4.4.4.4.4.5. .G 1.4.4.4.4.4.4.4.4.4.4.1., L.",
"L.t *.5.4.4.4.4.4.4.4.4.>.G >.4.4.4.4.4.4.4.4.4.4.4.5.h p.D.z.9.:.5.4.4.4.4.4.4.4.4.4.4.4.4.4.5.-.u @.5.4.4.4.4.4.4.4.4.5.+.2 L.",
"L.# r *.5.4.4.4.4.4.4.5.*.B 3.4.4.4.4.4.4.4.4.4.4.4.<.B a.J.y.%.3.4.4.4.4.4.4.4.4.4.4.4.4.4.4.4.2.G ( 5.4.4.4.4.4.4.4.4.5.Q L.L.",
"L.L.L.0 *.5.5.4.4.4.4.5. .U >.4.4.4.4.4.4.4.4.4.4.5.,.j g.D.s._ 5.4.4.4.4.4.4.4.4.4.4.4.4.4.4.4.4.L | 3.4.4.4.4.4.4.4.5.3.E L.L.",
"L.L.L.L.B -.5.4.4.4.4.4.&.S 2.4.4.4.4.4.4.4.4.4.4.5.2.7 n.F.s.[ 4.4.4.4.4.4.4.4.4.4.4.4.4.4.4.4.2.! Q 5.4.4.4.4.4.4.4.5.,.t L.L.",
"L.L.L.L.X q *.5.4.4.4.5.@.F 2.4.4.4.4.4.4.4.4.4.4.4.:.h a.K.h.' 4.4.4.4.4.4.4.4.4.4.4.4.4.4.4.4.4.P ) 5.4.4.4.4.4.4.4.4.-.; L.L.",
"L.L.L.L.L.L.Q ,.5.4.4.5.&.I >.5.4.4.4.4.4.4.4.4.4.5.4.K u.J.N.6.#.4.4.4.4.4.4.4.4.4.4.4.4.4.4.4.3.S +.4.4.4.4.4.4.4.4.4.) + L.L.",
"L.L.L.L.L.L.L.0 +.4.4.5.,.S >.4.4.4.4.4.4.4.4.4.4.4.4.! l S.G.d.` 3.4.4.4.4.4.4.4.4.4.4.4.4.5.5...I @.5.4.4.4.4.4.4.4.4.B L.L.L.",
"L.L.L.L.L.L.L.L.F 1.5.5.,.I | 4.4.4.4.4.4.4.4.4.4.4.4.@.d k.K.B.w.( 4.4.4.4.4.4.4.4.4.4.4.4.4.5.U ~ 2.5.4.4.4.4.4.4.4.1.3 L.L.L.",
"L.L.L.L.L.L.L.L.& t &.4.4.I [ 5.4.4.4.4.4.4.4.4.4.4.4.4.U N A.K.l.f ! 2.4.4.4.4.4.4.4.4.4.4.4.#.S  .5.4.4.4.4.4.4.4.5.) 2 L.L.L.",
"L.L.L.L.L.L.L.L.L.$ q ,.5.[ H 4.4.4.4.4.4.4.4.4.4.4.4.4.#.k a.F.M.c G [ 2.4.4.4.4.4.4.4.4.5.2.H ~ <.5.4.4.4.4.4.4.4.5.D L.L.L.L.",
"L.L.L.L.L.L.L.L.L.L.= D >...G >.4.4.4.4.4.4.4.4.4.4.4.4.3.^ s a.m.v ..E Y &.5.5.5.4.4.4.4.<.! B 1.4.4.4.4.4.4.4.4.5.-.0 L.L.L.L.",
"L.L.L.L.L.L.L.L.L.L.L.L.t +.S  .4.4.4.4.4.4.4.4.4.4.4.4.4.4.| V t.7.3.3.( R ( -.3.5.5.5.-.I U ..5.4.4.4.4.4.4.4.4.5.U L.L.L.L.L.",
"L.L.L.L.L.L.L.L.L.L.L.L.L.P U I 3.4.4.4.4.4.4.4.4.4.4.4.4.5.3.( p 9 | 3.3.&.[ !  .2.>.[ S G ,.4.5.4.4.4.4.4.4.4.5.3.r L.L.L.L.L.",
"L.L.L.L.L.L.L.L.L.L.L.L.L.# 2 q #.5.4.4.4.4.4.4.4.4.4.4.4.4.4.4.<.! r r ! ..R t , 6 u L ( 2.5.4.4.4.4.4.4.4.4.4.5.~ 8 L.L.L.L.L.",
"L.L.L.L.L.L.L.L.L.L.L.L.L.L.L.$ W 5.4.4.4.4.4.4.4.4.4.4.4.4.4.4.4.3.>...R S I F B 2 E 2.4.5.4.4.4.4.4.4.4.4.4.4.3.0 L.L.L.L.L.L.",
"L.L.L.L.L.L.L.L.L.L.L.L.L.L.L.  , ..5.4.4.4.4.4.4.4.4.4.4.4.4.4.4.5.5.4.5.4.,.3.2.R L 4.4.4.4.4.4.4.4.4.4.4.4.4. .> L.L.L.L.L.L.",
"L.L.L.L.L.L.L.L.L.L.L.L.L.L.L.L.X y 2.5.4.4.4.4.4.4.4.4.4.4.4.4.4.4.4.4.4.5.5.5.5.#.B ..5.4.4.4.4.4.4.4.4.4.5.2.q L.L.L.L.L.L.L.",
"L.L.L.L.L.L.L.L.L.L.L.L.L.L.L.L.L.- W 4.4.4.4.4.4.4.4.4.4.4.4.4.4.4.4.4.4.4.4.4.4.5.E R 3.5.4.4.4.4.4.4.5.5.3...* L.L.L.L.L.L.L.",
"L.L.L.L.L.L.L.L.L.L.L.L.L.L.L.L.L.L.: | 5.4.4.4.4.4.4.4.4.4.4.4.4.4.4.4.4.4.4.4.4.5.-.P >.5.4.4.4.4.4.4.4.5.&.0 . L.L.L.L.L.L.L.",
"L.L.L.L.L.L.L.L.L.L.L.L.L.L.L.L.L.L.L.B *.5.4.4.4.4.4.4.4.4.4.4.4.4.4.4.4.4.4.4.4.5.3.R ( 4.4.4.4.4.4.4.4.5.U L.L.L.L.L.L.L.L.L.",
"L.L.L.L.L.L.L.L.L.L.L.L.L.L.L.L.L.L.L.O q +.3.5.4.4.4.4.4.4.4.4.4.4.4.4.4.4.4.4.4.4.4.[ B ,.4.4.4.4.4.4.5. .r L.L.L.L.L.L.L.L.L.",
"L.L.L.L.L.L.L.L.L.L.L.L.L.L.L.L.L.L.L.L.L.0 -.5.5.4.4.4.4.4.4.4.4.4.4.4.4.4.4.4.4.4.5.1.R ~ 5.5.4.4.4.5.1.8 L.L.L.L.L.L.L.L.L.L.",
"L.L.L.L.L.L.L.L.L.L.L.L.L.L.L.L.L.L.L.L.L.+ 9 ) 1.5.4.4.4.4.4.4.4.4.4.4.4.4.4.4.4.4.4.5.| G <.5.4.4.5.<.U O L.L.L.L.L.L.L.L.L.L.",
"L.L.L.L.L.L.L.L.L.L.L.L.L.L.L.L.L.L.L.L.L.L.L.2 Q 1.5.5.4.4.4.4.4.4.4.4.4.4.4.4.4.4.4.5.<.B [ 5.4.4.5.W q L.L.L.L.L.L.L.L.L.L.L.",
"L.L.L.L.L.L.L.L.L.L.L.L.L.L.L.L.L.L.L.L.L.L.L.L.* 9 ) 3.5.5.5.4.4.4.4.4.4.4.4.4.4.4.4.4.5.Q D 2.5.4.&.3 L.L.L.L.L.L.L.L.L.L.L.L.",
"L.L.L.L.L.L.L.L.L.L.L.L.L.L.L.L.L.L.L.L.L.L.L.L.L.L.7 r R >.5.5.4.4.4.4.4.4.4.4.4.4.4.4.5.>.y ..5.+.B O L.L.L.L.L.L.L.L.L.L.L.L.",
"L.L.L.L.L.L.L.L.L.L.L.L.L.L.L.L.L.L.L.L.L.L.L.L.L.L.L.L.L.0 D [ 1.4.3.5.5.5.5.5.5.5.3.3.&.| 4 D 3.u L.L.L.L.L.L.L.L.L.L.L.L.L.L.",
"L.L.L.L.L.L.L.L.L.L.L.L.L.L.L.L.L.L.L.L.L.L.L.L.L.L.L.L.L.L.L.5 5 t ! ( ) +. . .) R L 0 0 L.L.2 u = L.L.L.L.L.L.L.L.L.L.L.L.L.L.",
"L.L.L.L.L.L.L.L.L.L.L.L.L.L.L.L.L.L.L.L.L.L.L.L.L.L.L.L.L.L.L.L.L.@ L.L.2 % , > & L.. L.L.L.L.X L.L.L.L.L.L.L.L.L.L.L.L.L.L.L.L.",
"L.L.L.L.L.L.L.L.L.L.L.L.L.L.L.L.L.L.L.L.L.L.L.L.L.L.L.L.L.L.L.L.L.L.L.L.L.L.L.L.L.L.L.L.L.L.L.L.L.L.L.L.L.L.L.L.L.L.L.L.L.L.L.L.",
"L.L.L.L.L.L.L.L.L.L.L.L.L.L.L.L.L.L.L.L.L.L.L.L.L.L.L.L.L.L.L.L.L.L.L.L.L.L.L.L.L.L.L.L.L.L.L.L.L.L.L.L.L.L.L.L.L.L.L.L.L.L.L.L.",
"L.L.L.L.L.L.L.L.L.L.L.L.L.L.L.L.L.L.L.L.L.L.L.L.L.L.L.L.L.L.L.L.L.L.L.L.L.L.L.L.L.L.L.L.L.L.L.L.L.L.L.L.L.L.L.L.L.L.L.L.L.L.L.L.",
"L.L.L.L.L.L.L.L.L.L.L.L.L.L.L.L.L.L.L.L.L.L.L.L.L.L.L.L.L.L.L.L.L.L.L.L.L.L.L.L.L.L.L.L.L.L.L.L.L.L.L.L.L.L.L.L.L.L.L.L.L.L.L.L.",
"L.L.L.L.L.L.L.L.L.L.L.L.L.L.L.L.L.L.L.L.L.L.L.L.L.L.L.L.L.L.L.L.L.L.L.L.L.L.L.L.L.L.L.L.L.L.L.L.L.L.L.L.L.L.L.L.L.L.L.L.L.L.L.L."
};
