/* XPM */
static char *_[] = {
/* columns rows colors chars-per-pixel */
"64 64 161 2 ",
"   c #020100",
".  c #080501",
"X  c #0D0C03",
"o  c #110F03",
"O  c #1D1B06",
"+  c #151304",
"@  c #211F07",
"#  c #222007",
"$  c #272408",
"%  c #292709",
"&  c #2D2B0A",
"*  c #312E0A",
"=  c #34310B",
"-  c #39350C",
";  c #3C3B0D",
":  c #423E0E",
">  c #43410E",
",  c #49460F",
"<  c #494610",
"1  c #4D4A10",
"2  c #514C10",
"3  c #565312",
"4  c #5A5613",
"5  c #5D5B14",
"6  c #625D14",
"7  c #656015",
"8  c #696416",
"9  c #6E6A17",
"0  c #6D6C1B",
"q  c #716B17",
"w  c #726E18",
"e  c #767219",
"r  c #7A751A",
"t  c #7D7A1A",
"y  c #767015",
"u  c #555423",
"i  c #585D3B",
"p  c #555B31",
"a  c #5E653F",
"s  c #79782F",
"d  c #79772D",
"f  c #6A6E36",
"g  c #4B5645",
"h  c #4C5951",
"j  c #576452",
"k  c #636D4C",
"l  c #6A734F",
"z  c #757B44",
"x  c #646F5E",
"c  c #62705D",
"v  c #5F6D61",
"b  c #677561",
"n  c #687D7B",
"m  c #827D1B",
"M  c #7A803D",
"N  c #738367",
"B  c #888216",
"V  c #85811C",
"C  c #8A851D",
"Z  c #8E8A1E",
"A  c #928D1F",
"S  c #94901F",
"D  c #A8A21D",
"F  c #8A8520",
"G  c #8A8827",
"H  c #918F25",
"J  c #969220",
"K  c #9A9521",
"L  c #9E9A22",
"P  c #9D9B28",
"I  c #9C9A36",
"U  c #969738",
"Y  c #A29D23",
"T  c #A6A223",
"R  c #AAA524",
"E  c #ADAA25",
"W  c #A5A229",
"Q  c #B1AC26",
"!  c #B2AB28",
"~  c #B6B127",
"^  c #B9B527",
"/  c #BEB925",
"(  c #BAB528",
")  c #BEBA29",
"_  c #B7B32A",
"`  c #A1A030",
"'  c #A1A33E",
"]  c #B0AE3E",
"[  c #B5B131",
"{  c #BEB932",
"}  c #C2BD2A",
"|  c #C5C12B",
" . c #C9C52B",
".. c #CECA2C",
"X. c #C8C426",
"o. c #D2CE2D",
"O. c #D1CC26",
"+. c #D5D22E",
"@. c #DAD62F",
"#. c #DDD92F",
"$. c #CECB33",
"%. c #D0CC37",
"&. c #DDD930",
"*. c #E0DC2F",
"=. c #E1DE30",
"-. c #E5E12D",
";. c #E9E42D",
":. c #E5E232",
">. c #E9E632",
",. c #EDEA33",
"<. c #F1EE34",
"1. c #F6F335",
"2. c #F9F636",
"3. c #FFFB37",
"4. c #FFFE38",
"5. c #828649",
"6. c #90934B",
"7. c #81895C",
"8. c #ABAC46",
"9. c #889366",
"0. c #848F78",
"q. c #869171",
"w. c #9CA678",
"e. c #667E89",
"r. c #788C8D",
"t. c #78908F",
"y. c #768F95",
"u. c #788E9A",
"i. c #7A949D",
"p. c #7D99AB",
"a. c #879893",
"s. c #829B98",
"d. c #849FA5",
"f. c #879EAC",
"g. c #86A4AF",
"h. c #8BA0A4",
"j. c #96A6A4",
"k. c #88A7B9",
"l. c #87A8BA",
"z. c #96ABB0",
"x. c #A8BAAF",
"c. c #A0B4B3",
"v. c #9EBECC",
"b. c #9ABED0",
"n. c #A1BEC4",
"m. c #9DC4DC",
"M. c #A6CBDE",
"N. c #A8C7D6",
"B. c #B2CCD4",
"V. c #B1CFD9",
"C. c #AFD6EC",
"Z. c #ACD4E7",
"A. c #B9D7E7",
"S. c #B5DAED",
"D. c #B8D7E6",
"F. c #BDE2F5",
"G. c #C4E6F6",
"H. c #C7E9F7",
"J. c #C4E9FB",
"K. c #CAEBFA",
"L. c None",
/* pixels */
"L.L.L.L.L.L.L.L.L.L.L.L.L.L.L.L.L.L.L.L.L.L.L.L.L.L.L.L.L.L.L.L.L.L.L.L.L.L.L.L.L.L.L.L.L.L.L.L.L.L.L.L.L.L.L.L.L.L.L.L.L.L.L.L.",
"L.L.L.L.L.L.L.L.L.L.L.L.L.L.L.L.L.L.L.L.L.L.L.L.L.L.L.L.L.L.L.L.L.L.L.L.L.L.L.L.L.L.L.L.L.L.L.L.L.L.L.L.L.L.L.L.L.L.L.L.L.L.L.L.",
"L.L.L.L.L.L.L.L.L.L.L.L.L.L.L.L.L.L.L.L.L.L.L.L.L.L.L.L.L.L.L.L.L.L.L.L.L.L.L.L.L.L.L.L.L.L.L.L.L.L.L.L.L.L.L.L.L.L.L.L.L.L.L.L.",
"L.L.L.L.L.L.L.L.L.L.L.L.L.L.L.L.L.L.L.L.L.L.L.L.L.L.L.L.L.L.L.L.L.L.L.L.L.L.L.L.L.L.L.L.L.L.L.L.L.L.L.L.L.L.L.L.L.L.L.L.L.L.L.L.",
"L.L.L.L.L.L.L.L.L.L.L.L.L.L.L.L.L.L.L.L.L.L.L.L.L.L.L.L.L.L.L.L.L.L.L.L.L.L.L.L.L.L.L.L.L.L.L.L.L.L.L.L.L.L.L.L.L.L.L.L.L.L.L.L.",
"L.L.L.L.L.L.L.L.L.L.L.L.L.L.L.L.L.L.L.L.L.L.L.L.L.L.L.L.L.L.L.L.L.L.L.L.L.L.L.L.L.L.L.L.L.L.L.L.L.L.L.L.L.L.L.L.L.L.L.L.L.L.L.L.",
"L.L.L.L.L.L.L.L.L.L.L.L.L.L.L.L.L.L.L.L.L.L.L.L.L.L.L.L.L.L.L.L.L.L.L.L.L.L.L.L.L.L.L.L.L.L.L.L.L.L.L.L.L.L.L.L.L.L.L.L.L.L.L.L.",
"L.L.L.L.L.L.L.L.L.L.L.L.L.L.L.L.L.L.L.L.L.L.L.L.L.L.L.L.L.L.L.L.L.L.L.L.L.L.L.L.L.L.L.L.L.L.L.L.L.L.L.L.L.L.L.L.L.L.L.L.L.L.L.L.",
"L.L.L.L.L.L.L.L.L.L.L.L.L.L.L.L.L.L.L.L.L.L.L.L.L.L.L.L.L.L.L.L.L.L.L.L.L.L.L.L.L.L.L.L.L.L.L.L.L.L.L.L.L.L.L.L.L.L.L.L.L.L.L.L.",
"L.L.L.L.L.L.L.L.L.L.L.L.L.L.L.L.L.L.L.L.L.L.L.L.  L.L.. L.L.L.L.L.L.L.L.L.L.L.L.L.L.L.L.L.L.L.L.L.L.L.L.L.L.L.L.L.L.L.L.L.L.L.L.",
"L.L.L.L.L.L.L.L.L.L.L.L.L.L.L.L.L.L.L.L.L.4 4 r Z J C C Z 5 t - L.X L.L.L.L.L.L.L.L.L.L.L.L.L.L.L.L.L.L.L.L.L.L.L.L.L.L.L.L.L.L.",
"L.L.L.L.L.L.L.L.L.L.L.L.L.L.L.L.L.6 7 t E =.2.2.1.4.4.1.3.2.=.+.R e 1 O X : & L.* L.L.X L.L.L.L.L.L.L.L.L.L.L.L.L.L.L.L.L.L.L.L.",
"L.L.L.L.L.L.L.L.L.L.L.L.L.L.= , r Q :.4.4.4.3.3.4.3.3.3.3.3.4.4.4.2.:.| q 6 J R E ) C t m 5 q 7 > L.; + L.@ L.L.L.L.L.L.L.L.L.L.",
"L.L.L.L.L.L.L.L.L.L.L.L.L.> C #.4.4.4.4.3.3.3.3.3.3.3.3.3.3.3.3.4.4.4.4.,.} Z J ..3.4.3.1.4.>.#.:...} Q S H A 6 r :   L.L.L.L.L.",
"L.L.L.L.L.L.L.L.L.L.L.< J ..1.3.3.3.3.3.3.3.3.3.3.3.3.3.3.3.3.3.3.3.3.3.4.4.,.~ m ^ 1.4.4.3.4.4.3.4.4.4.4.4.1.3.:.L . L.L.L.L.L.",
"L.L.L.L.L.L.L.L.L.L.& Z >.4.4.3.3.3.3.3.3.3.3.3.3.3.3.3.3.3.3.3.3.3.3.3.4.3.4.3...J T &.4.3.3.3.3.3.3.3.3.3.3.4.4.+.% L.L.L.L.L.",
"L.L.L.L.L.L.L.L.L.4 Q 1.4.3.3.3.3.3.3.3.3.3.3.3.3.3.3.3.3.3.3.3.3.3.3.3.3.3.3.3.4.=.Y A :.4.3.3.3.3.3.3.3.3.3.2.4.,.7   L.L.L.L.",
"L.L.L.L.L.L.L.L.3 } 3.4.3.3.3.3.3.3.3.3.3.3.3.3.3.3.3.3.3.3.3.3.3.3.3.3.3.3.3.3.4.3.1.L Y ,.3.3.3.3.3.3.3.3.3.3.4.1.R   L.L.L.L.",
"L.L.L.L.L.L.L.= R 2.3.3.3.3.3.3.3.3.3.3.3.3.3.3.3.3.3.3.3.3.3.3.3.3.3.3.3.3.3.3.3.3.4.>.Y Y :.4.3.3.3.3.3.3.4.4.3.4...# L.L.L.L.",
"L.L.L.L.L.L.- T 3.4.3.3.3.3.3.3.3.3.3.3.3.3.3.3.3.3.3.3.3.3.3.3.3.3.3.3.3.3.3.3.3.3.3.4.>.Y Y 4.3.3.3.3.3.3.4.3.&.L 5 O L.L.L.L.",
"L.L.L.L.L.L.A 1.4.3.3.3.3.3.3.3.3.3.3.3.3.3.3.3.3.3.3.3.3.3.3.3.3.3.3.3.3.3.3.3.3.3.3.3.4.=.m o.2.4.3.4.1.@.J 6 > ; L.L.L.L.L.L.",
"L.L.L.L.L.t #.4.3.3.3.3.3.3.3.3.3.3.3.3.3.3.3.3.3.3.3.3.3.3.3.3.3.3.3.3.3.3.3.3.3.3.3.3.3.4.) Y #.3.+.J 5 > ; L.L.L.L.L.L.L.L.L.",
"L.L.* 5 - w ,.4.4.3.3.3.3.3.3.3.3.3.3.3.3.3.4.4.3.4.4.4.3.3.3.3.3.3.3.3.3.3.3.3.3.3.3.3.3.3.<.R 6 5 ; ; L.L.L.L.L.L.L.L.L.L.L.L.",
"L.L.; #.~ t Z ) ,.3.4.3.3.3.3.3.3.3.3.3.4.2.1.1.>...O.;.>.3.3.3.3.3.3.3.3.3.3.3.3.3.3.3.3.3.3.=.: L.L.L.L.L.L.L.L.L.L.L.L.L.L.L.",
"L.L.6 :.4.,.Q C C } >.3.4.3.3.3.3.3.4.4.3.+.Y q 3 k N i d G / ,.3.4.3.3.3.3.3.3.3.3.3.3.3.3.4.2.C * L.L.L.L.L.L.L.L.L.L.L.L.L.L.",
"L.L.Z @.4.4.4.,.} J Z ! ,.4.4.3.3.4.1. .C e H / 6.r.m.N.k.y.j 0 } 2.3.3.3.3.3.3.3.3.3.3.3.3.3.3.#., L.L.L.L.L.L.L.L.L.L.L.L.L.L.",
"L.L.; >.4.3.3.3.4.<.} L L ~ :.3.4.3.) A } <.4.4.,.z v.H.K.J.m.r.f Y >.3.3.3.3.3.3.3.3.3.3.3.3.3.3.w L.L.L.L.L.L.L.L.L.L.L.L.L.L.",
"L.L.< =.4.3.3.3.3.4.4.<. .K m E  .R q L ..&. ._ ~ t c f.B.D.J.G.b.j m 2.3.3.3.3.3.3.3.3.3.3.3.3.4.E 5 L.L.L.L.L.L.L.L.L.L.L.L.L.",
"L.L.t ..4.3.3.3.3.3.3.3.4.<.o.C 4 = 5 T ^ T J _ } Y P U 5.q.h.A.G.m.g _ 2.3.3.3.3.3.3.3.3.3.3.3.4.&.2 L.L.L.L.L.L.L.L.L.L.L.; L.",
"L.L.& +.4.3.3.3.3.3.3.3.4.4.4.&.w H +.+.:.1.3.3.2.4.3.1.1.X.I 0.N.J.p.z X.4.3.3.3.3.3.3.3.3.3.3.3.1.5 L.L.L.L.L.L.L.L.H J R H # ",
"L.L.# +.3.3.3.3.3.3.3.3.3.3.3.Q Z ,.3.4.3.3.3.3.4.3.3.4.3.3.1._ 9.N.S.t.e 3.3.3.3.3.3.3.3.3.3.3.4.3.t L.L.L.L.L.Z K E +.1.4.:.= ",
"L.L.> Q 4.3.3.3.3.3.3.3.3.3.,.t ..3.3.3.3.3.3.3.3.3.3.3.3.3.3.1.! r.J.b.p :.3.3.3.3.3.3.3.3.3.3.3.3.Y . L.H K E @.1.4.4.4.3.1.8 ",
"L.L.L.L 4.3.3.3.3.3.3.3.3.4.} A >.3.3.3.3.3.3.3.3.3.3.3.3.3.3.3.-.7.V.C.b ( 4.3.3.3.3.3.3.3.3.3.3.4.~ 2 E @.2.4.4.4.3.3.3.4.2.R ",
"L.L.L.T 2.3.3.3.3.3.3.3.3.3./ S 3.3.3.3.3.3.3.3.3.3.3.3.3.3.3.3.1.8.z.F.s.Z 4.3.3.3.3.3.3.3.2.3.3.4.E Z :.4.4.3.3.3.3.3.3.3.4.@.",
"L.L.  r 1.4.3.3.3.3.3.3.3.2.T R 4.3.3.3.3.3.3.3.3.3.3.3.3.3.3.3.2.%.j.J.p.F 1.3.3.3.3.3.3.3.3.3.3.4...9 ,.4.3.3.3.3.3.3.3.3.,.H ",
"L.L.L.3 ,.4.3.3.3.3.3.3.4.4.A } 2.3.3.3.3.3.3.3.3.3.3.3.3.3.3.3.3.| x.H.y.U <.3.3.3.3.3.3.3.3.3.3.3.o.8 <.3.3.3.3.3.3.3.4.1.Q L.",
"L.L.L.= :.3.3.3.3.3.3.3.3.3.E R 4.3.3.3.3.3.3.3.3.3.3.3.3.3.3.3.3.8.c.J.d.G 4.4.3.3.3.3.3.3.3.3.3.4.) C &.4.3.3.3.3.3.4.=.V = L.",
"L.L.L.; ( 3.3.3.3.3.3.3.3.2.} C 4.3.3.3.3.3.3.3.3.3.3.3.3.3.3.3.;.6.M.G.y.T 3.3.3.3.3.3.3.3.3.3.3.4.( e <.3.3.3.3.4.4.=.e L.L.L.",
"L.L.L.L.t 4.3.3.3.3.3.3.3.4. .A ,.4.3.3.3.3.3.3.3.3.3.3.3.3.3.3.} a.G.C.v  .3.3.3.3.3.3.3.3.3.3.4.3.! e 3.3.3.3.4.4...r * L.L.L.",
"L.L.L.L.6 2.3.3.3.3.3.3.3.4.=.Y ) 4.3.3.3.3.3.3.3.3.3.3.3.3.2.%.w.D.J.g.f #.4.3.3.3.3.3.3.3.3.3.3.4.V Y 1.3.3.4.1.Q :   L.L.L.L.",
"L.L.L.L.7 +.4.3.3.3.3.3.3.3.1.) Z 4.4.3.3.3.3.3.3.3.3.3.3.3.| 9.B.G.Z.n Y 3.3.3.3.3.3.3.3.3.3.3.3.<.Z E 4.3.4.3.( t L.L.L.L.L.L.",
"L.L.L.L.L.L 4.3.3.3.3.3.3.3.3.>.m ..1.3.3.3.3.3.3.3.3.3.,.E u p.G.F.g.s =.4.3.3.3.3.3.3.3.3.3.3.4.=.q +.4.3.,.Y = L.L.L.L.L.L.L.",
"L.L.L.L.L.r 3.3.3.3.3.3.3.3.3.4.) K } 4.4.3.3.3.3.3.3.=.) X.d n.F.l.k ) 3.3.3.3.3.3.3.3.3.3.3.3.3.) e ,.4.<.Z < L.L.L.L.L.L.L.L.",
"L.L.L.L.L.7 #.4.3.3.3.3.3.3.3.4.1.| t } 3.4.4.4.2.%.R P } ,.' i.p.a T 2.3.3.3.3.3.3.3.3.3.3.3.3.3.K Y 4.>.Z ; L.L.L.L.L.L.L.L.L.",
"L.L.L.L.L.L.L 4.3.3.3.3.3.3.3.3.3.3.Q t R =.:.} Y ! o.1.3.2.` h M | 4.4.3.3.3.3.3.3.3.3.3.3.3.4.:.m } ..5 X L.L.L.L.L.L.L.L.L.L.",
"L.L.L.L.L.L.5 2.3.3.3.3.3.3.3.3.3.4.2.o.R m w 0 L ^ o.=...T 8 q $.2.4.3.3.3.3.3.3.3.3.3.3.3.3.3.( Z  .J L.L.L.L.L.L.L.L.L.L.L.L.",
"L.L.L.L.L.L.;  .3.3.3.3.3.3.3.3.3.3.3.4.2.K 5 C q V A y m E &.4.4.4.2.3.3.3.3.3.3.3.3.3.3.3.4.>.t V 5 L.L.L.L.L.L.L.L.L.L.L.L.L.",
"L.L.L.L.L.L.L.e 1.4.3.3.3.3.3.3.3.3.3.4.&.t  .<.,.#.o.,.3.3.3.3.3.3.4.3.3.3.3.3.3.3.3.3.3.4.3.L ; , L.L.L.L.L.L.L.L.L.L.L.L.L.L.",
"L.L.L.L.L.L.L.* #.4.4.3.3.3.3.3.3.3.3.3.T C <.4.3.4.4.3.3.3.3.3.3.3.3.3.3.3.3.3.3.3.3.3.3.4.#.>   L.L.L.L.L.L.L.L.L.L.L.L.L.L.L.",
"L.L.L.L.L.L.L.X Z ,.4.3.3.3.3.3.3.3.3.:.Z +.3.3.3.3.3.3.3.3.3.3.3.3.3.3.3.3.3.3.3.3.3.3.4.,.e X L.L.L.L.L.L.L.L.L.L.L.L.L.L.L.L.",
"L.L.L.L.L.L.L.L.V | 4.3.3.3.3.3.3.3.3.T T 2.3.3.3.3.3.3.3.3.3.3.3.3.3.3.3.3.3.3.3.3.3.4.4.Y - L.L.L.L.L.L.L.L.L.L.L.L.L.L.L.L.L.",
"L.L.L.L.L.L.L.L.L.Z 4.3.3.3.3.3.3.3.+.V ..3.3.3.3.3.3.3.3.3.3.3.3.3.3.3.3.3.3.3.3.3.4.3.~ 2 L.L.L.L.L.L.L.L.L.L.L.L.L.L.L.L.L.L.",
"L.L.L.L.L.L.L.L.L.3 ..3.3.3.3.3.3.1.Y H 2.3.3.3.3.3.3.3.3.3.3.3.3.3.3.3.3.3.3.3.3.3.1.R ; L.L.L.L.L.L.L.L.L.L.L.L.L.L.L.L.L.L.L.",
"L.L.L.L.L.L.L.L.L.L.9 ,.4.3.3.3.4.@.r @.4.3.3.3.3.3.3.3.3.3.3.3.3.3.3.3.3.3.3.4.4.3.~ 9 L.L.L.L.L.L.L.L.L.L.L.L.L.L.L.L.L.L.L.L.",
"L.L.L.L.L.L.L.L.L.L.$ ! 4.3.3.4.3.L T 2.3.3.3.3.3.3.3.3.3.3.3.3.3.3.3.3.3.3.3.3.&.C = L.L.L.L.L.L.L.L.L.L.L.L.L.L.L.L.L.L.L.L.L.",
"L.L.L.L.L.L.L.L.L.L.L.w o.4.3.4.+.V +.4.3.3.3.3.3.3.3.3.3.3.3.3.3.3.3.3.3.4.4.o.V L.L.L.L.L.L.L.L.L.L.L.L.L.L.L.L.L.L.L.L.L.L.L.",
"L.L.L.L.L.L.L.L.L.L.L.L.e 1.4.2.L L 2.3.3.3.3.3.3.3.3.3.3.3.3.4.3.3.4.4.2.o.Z , O L.L.L.L.L.L.L.L.L.L.L.L.L.L.L.L.L.L.L.L.L.L.L.",
"L.L.L.L.L.L.L.L.L.L.L.L.$ ( 4...5  .4.3.3.4.3.3.3.3.3.3.3.3.4.4.4.2.1.>.Q L L.L.L.L.L.L.L.L.L.L.L.L.L.L.L.L.L.L.L.L.L.L.L.L.L.L.",
"L.L.L.L.L.L.L.L.L.L.L.L.L.e  .w O 9 Z ) =.,.4.4.4.4.4.3.4.4.<.:.:.| V 1 # L.L.L.L.L.L.L.L.L.L.L.L.L.L.L.L.L.L.L.L.L.L.L.L.L.L.L.",
"L.L.L.L.L.L.L.L.L.L.L.L.L.L.1 : L.L.@ L.1 9 r Y E R ) / K H C 4 - % O L.L.L.L.L.L.L.L.L.L.L.L.L.L.L.L.L.L.L.L.L.L.L.L.L.L.L.L.L.",
"L.L.L.L.L.L.L.L.L.L.L.L.L.L.  L.L.L.L.L.L.L.L.o O L.& # L.L.L.  L.L.L.L.L.L.L.L.L.L.L.L.L.L.L.L.L.L.L.L.L.L.L.L.L.L.L.L.L.L.L.L.",
"L.L.L.L.L.L.L.L.L.L.L.L.L.L.L.L.L.L.L.L.L.L.L.L.L.L.L.L.L.L.L.L.L.L.L.L.L.L.L.L.L.L.L.L.L.L.L.L.L.L.L.L.L.L.L.L.L.L.L.L.L.L.L.L.",
"L.L.L.L.L.L.L.L.L.L.L.L.L.L.L.L.L.L.L.L.L.L.L.L.L.L.L.L.L.L.L.L.L.L.L.L.L.L.L.L.L.L.L.L.L.L.L.L.L.L.L.L.L.L.L.L.L.L.L.L.L.L.L.L.",
"L.L.L.L.L.L.L.L.L.L.L.L.L.L.L.L.L.L.L.L.L.L.L.L.L.L.L.L.L.L.L.L.L.L.L.L.L.L.L.L.L.L.L.L.L.L.L.L.L.L.L.L.L.L.L.L.L.L.L.L.L.L.L.L."
};
