/* XPM */
static char *_3[] = {
/* columns rows colors chars-per-pixel */
"64 64 166 2 ",
"   c #030201",
".  c #0D0B02",
"X  c #100D03",
"o  c #151404",
"O  c #191705",
"+  c #1D1B06",
"@  c #221F07",
"#  c #242207",
"$  c #252308",
"%  c #282608",
"&  c #2D2B09",
"*  c #302E0A",
"=  c #35330B",
"-  c #39360C",
";  c #3D3B0D",
":  c #413E0E",
">  c #45420F",
",  c #48450F",
"<  c #4B4710",
"1  c #4C4A10",
"2  c #514D11",
"3  c #555312",
"4  c #595513",
"5  c #5D5A13",
"6  c #615D14",
"7  c #656115",
"8  c #6A6516",
"9  c #6C6A17",
"0  c #6E6C18",
"q  c #726C17",
"w  c #736E19",
"e  c #757119",
"r  c #7A751A",
"t  c #7E7A1B",
"y  c #545528",
"u  c #555B33",
"i  c #5E6437",
"p  c #606122",
"a  c #66652C",
"s  c #78792F",
"d  c #7C7C24",
"f  c #62673A",
"g  c #6D7137",
"h  c #777B3B",
"j  c #515A43",
"k  c #586040",
"l  c #5C6748",
"z  c #57624E",
"x  c #576452",
"c  c #6C7449",
"v  c #747A49",
"b  c #626C53",
"n  c #6F7A50",
"m  c #747E55",
"M  c #5B6E72",
"N  c #617161",
"B  c #827D1B",
"V  c #7F8248",
"C  c #7E865F",
"Z  c #718069",
"A  c #78836D",
"S  c #788A73",
"D  c #86821D",
"F  c #8A851D",
"G  c #8E891E",
"H  c #928D1F",
"J  c #95901F",
"K  c #8A8827",
"L  c #969220",
"P  c #999521",
"I  c #9D9922",
"U  c #93922C",
"Y  c #80833D",
"T  c #A29D23",
"R  c #A19723",
"E  c #A6A223",
"W  c #AAA624",
"Q  c #AEA925",
"!  c #A5A12A",
"~  c #AAA72A",
"^  c #ADAA2C",
"/  c #B2AE26",
"(  c #B3AF2C",
")  c #B5B127",
"_  c #BAB527",
"`  c #BCB827",
"'  c #BAB528",
"]  c #BEBA29",
"[  c #AAA830",
"{  c #BCB938",
"}  c #C2BD26",
"|  c #C2BD29",
" . c #CEC826",
".. c #C5C12A",
"X. c #CAC62B",
"o. c #CECA2C",
"O. c #C8C327",
"+. c #D1CD2D",
"@. c #D6D22E",
"#. c #D9D52D",
"$. c #DCD82F",
"%. c #C3C031",
"&. c #D7D331",
"*. c #D9D530",
"=. c #DEDB30",
"-. c #E1DB2B",
";. c #E2DE31",
":. c #E6E12D",
">. c #EAE52D",
",. c #E5E232",
"<. c #E9E532",
"1. c #EDEA33",
"2. c #F1EE34",
"3. c #F6F335",
"4. c #F9F636",
"5. c #FFFB37",
"6. c #FFFF38",
"7. c #898C49",
"8. c #9D9D43",
"9. c #909555",
"0. c #A0A048",
"q. c #A0A355",
"w. c #979D69",
"e. c #808A77",
"r. c #A9B27F",
"t. c #6B848B",
"y. c #6F8583",
"u. c #748F9C",
"i. c #77929F",
"p. c #7F999B",
"a. c #7796AA",
"s. c #7D9EB1",
"d. c #809395",
"f. c #A0AF9D",
"g. c #809CA4",
"h. c #8A9EA3",
"j. c #8CA0A2",
"k. c #91A9AC",
"l. c #8EA7B9",
"z. c #8BA8B7",
"x. c #91ADBD",
"c. c #A3B9B6",
"v. c #93B7C8",
"b. c #97BBCE",
"n. c #98B8CD",
"m. c #91B4C5",
"M. c #9DBFD3",
"N. c #A0B9C5",
"B. c #9DC2D5",
"V. c #A7C2CF",
"C. c #AEC8CB",
"Z. c #A0C1D0",
"A. c #A2C7DF",
"S. c #AACCDD",
"D. c #ABCFE0",
"F. c #A6CBE1",
"G. c #BBDAE5",
"H. c #B5D7E8",
"J. c #B7D8E7",
"K. c #B5DCF0",
"L. c #BDE3F4",
"P. c #C3E4F4",
"I. c #C2E7FA",
"U. c #C6EAFB",
"Y. c #CBEDFD",
"T. c None",
/* pixels */
"T.T.T.T.T.T.T.T.T.T.T.T.T.T.T.T.T.T.T.T.T.T.T.T.T.T.T.T.T.T.T.T.T.T.T.T.T.T.T.T.T.T.T.T.T.T.T.T.T.T.T.T.T.T.T.T.T.T.T.T.T.T.T.T.",
"T.T.T.T.T.T.T.T.T.T.T.T.T.T.T.T.T.T.T.T.T.T.T.T.T.T.T.T.T.T.T.T.T.T.T.T.T.T.T.T.T.T.T.T.T.T.T.T.T.T.T.T.T.T.T.T.T.T.T.T.T.T.T.T.",
"T.T.T.T.T.T.T.T.T.T.T.T.T.T.T.T.T.T.T.T.T.T.T.T.T.T.T.T.T.T.T.T.T.T.T.T.T.T.T.T.T.T.T.T.T.T.T.T.T.T.T.T.T.T.T.T.T.T.T.T.T.T.T.T.",
"T.T.T.T.T.T.T.T.T.T.T.T.T.T.T.T.T.T.T.T.T.T.T.T.T.T.T.T.T.T.T.T.T.T.T.T.T.T.T.T.T.T.T.T.T.T.T.T.T.T.T.T.T.T.T.T.T.T.T.T.T.T.T.T.",
"T.T.T.T.T.T.T.T.T.T.T.T.T.T.T.T.T.T.T.T.T.T.T.T.T.T.T.T.T.T.T.T.T.T.T.+ + .   T.T.T.T.T.T.T.T.T.T.T.T.T.T.T.T.T.T.T.T.T.T.T.T.T.",
"T.T.T.T.T.T.T.T.T.T.T.T.T.T.T.T.T.T.T.T.T.T.T.T.T.T.T.T.T.T.T.T.- 4 9 B P I H H t 6 , 8 T.. T.T.T.T.T.T.T.T.T.T.T.T.T.T.T.T.T.T.",
"T.T.T.T.T.T.T.T.T.T.T.T.T.T.T.T.T.T.T.T.T.T.T.T.T.T.T.T.+ ; w E o.1.3.4.4.3.4.4.6.5.<.X.I r 6 @ T.T.T.T.T.T.T.T.T.T.T.T.T.T.T.T.",
"T.T.T.T.T.T.T.T.T.T.T.T.T.T.T.T.T.T.T.T.T.T.T.T.T.T.* B Q @.3.6.6.6.6.6.6.6.6.6.5.6.6.6.6.3.@.Q q ; T.T.T.T.  T.T.T.T.T.T.T.T.T.",
"T.T.T.T.T.T.T.T.T.T.T.T.T.T.T.T.T.T.T.T.T.T.T.T.T.8 L +.3.5.5.5.5.5.5.5.5.5.5.5.5.5.5.5.6.6.6.5.1.| 6 = T.@ : $ T.T.T.T.T.T.T.T.",
"T.T.T.T.T.T.T.T.T.T.T.T.T.T.T.T.T.T.T.T.T.T.T.< 9 X.4.6.5.5.5.5.5.5.5.5.5.5.5.5.5.5.5.5.5.5.5.5.5.6.3.T % 5 ..6 T.T.T.T.T.T.T.T.",
"T.T.T.T.T.T.T.T.T.T.T.T.T.T.T.T.T.T.T.T.T.T.: W 2.6.6.5.5.5.5.5.5.5.5.5.5.5.5.5.5.5.5.5.5.5.5.5.5.6.5.| w +.4.P X T.T.T.T.T.T.T.",
"T.T.T.T.T.T.T.T.T.T.T.T.T.T.T.T.T.T.T.T.. 1 | 6.6.5.5.5.5.5.5.5.5.5.5.5.5.5.5.5.5.5.5.5.5.5.5.5.5.5.o.r ..6.6.+.$ T.T.T.T.T.T.T.",
"T.T.T.T.T.T.T.T.T.T.T.T.T.T.T.T.T.T.+   2 #.6.6.5.5.5.5.5.5.5.5.5.5.5.5.5.5.5.5.5.5.5.5.5.5.5.5.6.;.t / 6.5.6.3.4 T.T.T.T.T.T.T.",
"T.T.T.T.T.T.T.T.T.T.T.T.T.T.T.T.T.B 2 2 o.6.5.5.5.5.5.5.5.5.5.5.5.5.5.5.5.5.5.5.5.5.5.5.5.5.5.6.1.B T 4.6.5.5.6.P T.T.T.T.T.T.T.",
"T.T.T.T.T.T.T.T.T.T.T.T.T.T.T.T.D L w | 6.6.5.5.5.5.5.5.5.5.5.5.5.5.5.5.5.5.5.5.5.5.5.5.5.5.6.3.L L 1.6.5.5.5.6.o.< T.T.T.T.T.T.",
"T.T.T.T.T.T.T.T.T.T.T.T.T.# 4 / +.D ) 4.5.5.5.5.5.5.5.5.5.5.5.5.5.5.5.5.5.5.5.5.5.5.5.5.5.5.4.W G =.6.5.5.5.5.6.3.w T.T.T.T.T.T.",
"T.T.T.T.T.T.T.T.T.T.T.o 3 Q 2.6.T L 1.6.5.5.5.5.5.5.5.5.5.5.5.5.5.5.5.5.5.5.5.5.5.5.5.5.5.6.| H o.5.5.5.5.5.5.5.6.W 2 T.T.T.T.T.",
"T.T.T.T.T.T.T.T.T.T.5 W 1.6.6.X.B o.6.5.5.5.5.5.5.5.5.5.5.5.5.5.5.6.6.6.5.5.5.6.5.5.5.6.5.X.G ..5.5.5.5.5.5.5.5.6.+.r T.T.T.T.T.",
"T.T.T.T.T.T.T.o 6 I #.5.6.6.3.H H 3.6.5.5.5.5.5.5.5.5.5.5.5.5.5.5.2.$.) I J B t L | ;.3.;.F E 4.6.5.5.5.5.5.5.5.6.<.I T.T.T.T.T.",
"T.T.T.T.T.T.< w ..1.5.5.5.6.+.B | 6.5.5.5.5.5.5.5.5.5.5.5.5.5.6.;.^ h y H X.o.X.E e r L F L 1.6.5.5.5.5.5.5.5.5.6.3.I   T.T.T.T.",
"T.T.T.T.T.7 ) 1.6.6.5.5.5.3.T B 4.5.5.5.5.5.5.5.5.5.5.5.5.6.4.' a M a.b -.6.5.2.;.| H 3 2 T 3.5.5.5.5.5.5.5.5.5.6.5.X.+ T.T.T.T.",
"T.T.T.4 W 1.6.6.5.5.5.5.6.,.e / 6.5.5.5.5.5.5.5.5.5.5.5.6.3.T z z.K.D.c ;.X.[ I R T ( o.o.L I 2.6.5.5.5.5.5.5.5.5.6.;.* T.T.T.T.",
"T.3 E 1.6.6.6.5.5.5.5.5.5.o.6 <.6.5.5.5.5.5.5.5.5.5.5.5.5.E N M.I.P.x.a ) | &.,.5.6.6.6.6.;.B T 4.6.5.5.5.5.5.5.5.5.4.3 T.T.T.T.",
"= ..5.6.5.5.5.5.5.5.5.5.6.L H 6.5.5.5.5.5.5.5.5.5.5.5.6.| i m.L.P.C.S H o.1.5.5.5.5.5.5.5.6.@.B o.4.5.5.5.5.5.5.5.5.6.0 T.T.T.T.",
"% @.5.5.5.5.5.5.5.5.5.5.5.q ] 4.5.5.5.5.5.5.5.5.5.5.5.2.h s.K.I.c.q.} 2.6.6.5.5.5.5.5.5.5.5.6./ I ,.6.5.5.5.5.5.5.5.6.H T.T.T.T.",
"# X.5.6.5.5.5.5.5.5.5.6.,.8 @.5.5.5.5.5.5.5.5.5.5.5.6.} m S.Y.k.0.>.6.6.5.5.5.5.5.5.5.5.5.5.6.1.L ] 5.5.5.5.5.5.5.5.6./ T.T.T.T.",
"+ ) 4.6.6.6.6.6.6.6.6.6...t *.6.5.5.5.5.5.5.5.5.5.5.5.U p.L.V.9.#.6.5.5.5.5.5.5.5.5.5.5.5.5.5.6.' T 1.6.5.5.5.5.5.5.6.| 7 T.T.T.",
"+ I 5.5.3.1.$.o.] ) W E 8 r ,.6.5.5.5.5.5.5.5.5.5.6.-.Y k.P.f.{ 5.5.5.5.5.5.5.5.5.5.5.5.5.5.5.6.@.P #.6.5.5.5.5.5.5.6.@.7 T.T.T.",
"o 3 P P L H H K T.T.T.T.T.7 1.6.5.5.5.5.5.5.5.5.5.6.+.v n.G.r.-.6.5.5.5.5.5.5.5.5.5.5.5.5.5.5.6.<.I +.6.5.5.5.5.5.5.5.,.7 T.T.T.",
"T.T.T.T.T.T.T.T.T.T.T.T.T.9 4.6.5.5.5.5.5.5.5.5.5.6.=.c F.G.w.>.6.5.5.5.5.5.5.5.5.5.5.5.5.5.5.5.3.D X.6.5.5.5.5.5.5.5.3.8 T.T.T.",
"T.T.T.T.T.T.T.T.T.T.T.T.T.9 6.6.5.5.5.5.5.5.5.5.5.5.;.i F.G.A :.6.5.5.5.5.5.5.5.5.5.5.5.5.5.5.5.4.B @.6.5.5.5.5.5.5.5.4.6 T.T.T.",
"T.T.T.T.T.T.T.T.T.T.T.T.T.8 5.5.5.5.5.5.5.5.5.5.5.5.<.u B.P.A -.6.5.5.5.5.5.5.5.5.5.5.5.5.5.5.5.2.t <.6.5.5.5.5.5.5.5.5.3 T.T.T.",
"T.T.T.T.T.T.T.T.T.T.T.T.T.w 6.5.5.5.5.5.5.5.5.5.5.5.3.p x.P.d./ 5.5.5.5.5.5.5.5.5.5.5.5.5.5.5.6.o.B 2.5.5.5.5.5.5.5.5.5.7 T.T.T.",
"T.T.T.T.T.T.T.T.T.T.T.T.T.7 3.5.5.5.5.5.5.5.5.5.5.5.6.F t.P.M.V -.6.5.5.5.5.5.5.5.5.5.5.5.5.5.6.I Q 3.6.5.5.5.5.5.5.6.4.7 T.T.T.",
"T.T.T.T.T.T.T.T.T.T.T.T.T.< =.5.5.5.5.5.5.5.5.5.5.5.6.O.l B.P.h.[ =.4.6.6.5.5.5.5.5.5.5.5.5.6.;.D X.6.5.5.5.5.5.5.5.6.3.9 T.T.T.",
"T.T.T.T.T.T.T.T.T.T.T.T.T.- ..5.5.5.5.5.5.5.5.5.5.5.6.4.t y.J.P.g.7.| <.4.6.6.5.5.5.5.6.6.6.4.E I 2.6.5.5.5.5.5.5.5.6.<.8 T.T.T.",
"T.T.T.T.T.T.T.T.T.T.T.T.T.+ P 5.5.5.5.5.5.5.5.5.5.5.5.6. .g i.L.P.N.e.7.[ | *.2.5.6.4.4.4.4.] G +.6.5.5.5.5.5.5.5.5.6.=.H T.T.T.",
"T.T.T.T.T.T.T.T.- - : > < ; D 1.6.5.5.5.5.5.5.5.5.5.5.6.5.` f u.P.Y.P.l.x B / U K E ' ' ) H e _ 5.6.5.5.5.5.5.5.5.5.6.;.r T.T.T.",
"T.T.+ , 3 7 w D P ) X.=.1.+.T ..6.5.5.5.5.5.5.5.5.5.5.5.6.4.] i t.D.P.P.k.K ;.;.#.#...P 3 - 3 Q 6.6.5.5.5.5.5.5.5.5.5.;.2 T.T.T.",
"T.T.> @.4.6.6.6.6.6.5.6.5.3.` T 6.5.5.5.5.5.5.5.5.5.5.5.5.5.4.+.d x g.b.v.m ,.6.4.1...H F ] / G I 1.6.5.5.5.5.5.5.5.6.$.% T.T.T.",
"T.T.= =.6.6.5.6.5.5.5.5.5.5.=.B -.6.5.5.5.5.5.5.5.5.5.5.5.5.5.5.2._ w n S j w B w r B Q <.6.6.#.J K <.5.5.5.5.5.5.5.6.| o T.T.T.",
"T.T.$ *.6.6.5.5.5.5.5.5.5.6.3.T T 5.6.5.5.5.5.5.5.5.5.5.5.5.5.5.6.6.5.#.) W ) ] o.1.5.6.6.5.5.6.1./ H +.4.6.5.5.5.5.6.T T.T.T.T.",
"T.T.o o.6.4.5.5.5.5.5.5.5.5.5.=.B ,.6.5.5.5.5.5.5.5.5.5.5.5.5.5.5.5.6.6.6.6.5.4.4.5.5.6.5.5.5.5.6.4.' B ] 2.6.5.5.6.6.r T.T.T.T.",
"T.T.. ] 5.6.5.5.5.5.5.5.5.5.5.6.T W 3.5.5.5.5.5.5.5.5.5.5.5.5.5.5.5.5.5.5.5.5.5.6.5.5.5.5.5.5.5.5.6.4.#.H T ;.6.6.6.2.5 T.T.T.T.",
"T.T.  e | ,.3.6.6.6.6.5.5.5.5.6.:.F ..5.5.5.5.5.5.5.5.5.5.5.5.5.5.5.5.5.5.5.5.5.5.5.5.5.5.5.5.5.5.5.5.6.,.L G o.5.6.@.G T.T.T.T.",
"T.T.T.T.% 5 L ` @.3.6.6.5.5.5.5.6.] H @.6.5.5.5.5.5.5.5.5.5.5.5.5.5.5.5.5.5.5.5.5.5.5.5.5.5.5.5.5.5.5.5.6.1.E F ' 5.| 4 T.T.T.T.",
"T.T.T.T.T.T.T.: 5 e W =.5.5.5.6.6.3./ J @.6.5.5.5.5.5.5.5.5.5.5.5.5.5.5.5.5.5.5.5.5.5.5.5.5.5.5.5.5.5.5.5.6.5./ 2 G L $ T.T.T.T.",
"T.T.T.T.T.T.T.T.T.T.T.6 8 Q ;.2.4.6.3./ H $.6.6.5.5.5.5.5.5.5.5.5.5.5.5.5.5.5.5.5.5.5.5.5.5.5.5.5.5.5.5.5.6.2.W T.& ; T.T.T.T.T.",
"T.T.T.T.T.T.T.T.T.T.T.T.T.T.: e P | ,.1./ K +.6.6.5.5.5.5.5.5.5.5.5.5.5.5.5.5.5.5.5.5.5.5.5.5.5.5.5.5.5.6.1.I 3 T.T.T.T.T.T.T.T.",
"T.T.T.T.T.T.T.T.T.T.T.T.T.T.T.T.o 4 P B W I B ..5.6.5.5.5.5.5.5.5.5.5.5.5.5.5.5.5.5.5.5.5.5.5.5.5.5.6.6.<.B & T.T.T.T.T.T.T.T.T.",
"T.T.T.T.T.T.T.T.T.T.T.T.T.T.T.T.T.T.T.T.T.> > ; / <.6.6.5.5.5.5.5.5.5.5.5.5.5.5.5.5.5.5.5.5.5.6.6.6.6.] 6 . T.T.T.T.T.T.T.T.T.T.",
"T.T.T.T.T.T.T.T.T.T.T.T.T.T.T.T.T.T.T.T.T.T.T.  O 5 ) ,.6.6.5.6.5.5.5.5.5.5.5.5.5.5.5.5.5.5.6.6.5.+.F * T.T.T.T.T.T.T.T.T.T.T.T.",
"T.T.T.T.T.T.T.T.T.T.T.T.T.T.T.T.T.T.T.T.T.T.T.T.T.  = w Q ,.6.6.5.6.5.5.5.5.5.5.5.5.5.5.5.4.1...D : T.T.T.T.T.T.T.T.T.T.T.T.T.T.",
"T.T.T.T.T.T.T.T.T.T.T.T.T.T.T.T.T.T.T.T.T.T.T.T.T.T.T.T.T.5 F ] 1.4.4.4.6.6.6.6.6.6.5.2.$.W E T.T.T.T.T.T.T.T.T.T.T.T.T.T.T.T.T.",
"T.T.T.T.T.T.T.T.T.T.T.T.T.T.T.T.T.T.T.T.T.T.T.T.T.T.T.T.T.T.T.& > r P Q ) / W P D t e 5 , # T.T.T.T.T.T.T.T.T.T.T.T.T.T.T.T.T.T.",
"T.T.T.T.T.T.T.T.T.T.T.T.T.T.T.T.T.T.T.T.T.T.T.T.T.T.T.T.T.T.T.T.T.T.T.+ = < T.T.T.T.T.T.T.T.T.T.T.T.T.T.T.T.T.T.T.T.T.T.T.T.T.T.",
"T.T.T.T.T.T.T.T.T.T.T.T.T.T.T.T.T.T.T.T.T.T.T.T.T.T.T.T.T.T.T.T.T.T.T.T.T.T.T.T.T.T.T.T.T.T.T.T.T.T.T.T.T.T.T.T.T.T.T.T.T.T.T.T.",
"T.T.T.T.T.T.T.T.T.T.T.T.T.T.T.T.T.T.T.T.T.T.T.T.T.T.T.T.T.T.T.T.T.T.T.T.T.T.T.T.T.T.T.T.T.T.T.T.T.T.T.T.T.T.T.T.T.T.T.T.T.T.T.T.",
"T.T.T.T.T.T.T.T.T.T.T.T.T.T.T.T.T.T.T.T.T.T.T.T.T.T.T.T.T.T.T.T.T.T.T.T.T.T.T.T.T.T.T.T.T.T.T.T.T.T.T.T.T.T.T.T.T.T.T.T.T.T.T.T.",
"T.T.T.T.T.T.T.T.T.T.T.T.T.T.T.T.T.T.T.T.T.T.T.T.T.T.T.T.T.T.T.T.T.T.T.T.T.T.T.T.T.T.T.T.T.T.T.T.T.T.T.T.T.T.T.T.T.T.T.T.T.T.T.T.",
"T.T.T.T.T.T.T.T.T.T.T.T.T.T.T.T.T.T.T.T.T.T.T.T.T.T.T.T.T.T.T.T.T.T.T.T.T.T.T.T.T.T.T.T.T.T.T.T.T.T.T.T.T.T.T.T.T.T.T.T.T.T.T.T.",
"T.T.T.T.T.T.T.T.T.T.T.T.T.T.T.T.T.T.T.T.T.T.T.T.T.T.T.T.T.T.T.T.T.T.T.T.T.T.T.T.T.T.T.T.T.T.T.T.T.T.T.T.T.T.T.T.T.T.T.T.T.T.T.T.",
"T.T.T.T.T.T.T.T.T.T.T.T.T.T.T.T.T.T.T.T.T.T.T.T.T.T.T.T.T.T.T.T.T.T.T.T.T.T.T.T.T.T.T.T.T.T.T.T.T.T.T.T.T.T.T.T.T.T.T.T.T.T.T.T.",
"T.T.T.T.T.T.T.T.T.T.T.T.T.T.T.T.T.T.T.T.T.T.T.T.T.T.T.T.T.T.T.T.T.T.T.T.T.T.T.T.T.T.T.T.T.T.T.T.T.T.T.T.T.T.T.T.T.T.T.T.T.T.T.T."
};
