/* XPM */
static char *_8[] = {
/* columns rows colors chars-per-pixel */
"64 64 163 2 ",
"   c #020201",
".  c #080601",
"X  c #0F0D03",
"o  c #100F03",
"O  c #151404",
"+  c #181604",
"@  c #1D1B06",
"#  c #201D06",
"$  c #242207",
"%  c #272608",
"&  c #292608",
"*  c #2D2B09",
"=  c #302E0A",
"-  c #36330B",
";  c #3B3A0D",
":  c #3A350C",
">  c #413E0D",
",  c #45420E",
"<  c #4A460F",
"1  c #4C4910",
"2  c #524E11",
"3  c #565312",
"4  c #595613",
"5  c #5E5A14",
"6  c #59561C",
"7  c #625E14",
"8  c #656115",
"9  c #696516",
"0  c #6C6917",
"q  c #726E18",
"w  c #757219",
"e  c #7A7619",
"r  c #7E7A1B",
"t  c #555A2E",
"y  c #5F633C",
"u  c #666727",
"i  c #7A7B2C",
"p  c #696B3E",
"a  c #6A703F",
"s  c #6F7334",
"d  c #4D584A",
"f  c #585F4C",
"g  c #5C664B",
"h  c #566358",
"j  c #586556",
"k  c #757D48",
"l  c #616E58",
"z  c #647157",
"x  c #6E7854",
"c  c #717751",
"v  c #5D6D66",
"b  c #667566",
"n  c #827D1B",
"m  c #807A15",
"M  c #807F2B",
"N  c #7F885F",
"B  c #788B7E",
"V  c #85811C",
"C  c #8A841D",
"Z  c #8E891E",
"A  c #918D1F",
"S  c #94901F",
"D  c #9E981B",
"F  c #84842F",
"G  c #948F20",
"H  c #969121",
"J  c #9A9521",
"K  c #9E9922",
"L  c #8D8B37",
"P  c #8F9131",
"I  c #969738",
"U  c #A29D23",
"Y  c #A09D2B",
"T  c #A5A123",
"R  c #AAA524",
"E  c #ADA925",
"W  c #A8A72F",
"Q  c #AEAA2A",
"!  c #B1AD26",
"~  c #B5B126",
"^  c #B9B427",
"/  c #B5B32B",
"(  c #BBB628",
")  c #BEBA29",
"_  c #A7A532",
"`  c #ABA93E",
"'  c #B3B030",
"]  c #BEBA31",
"[  c #BDBB3B",
"{  c #C0BB27",
"}  c #C1BD2A",
"|  c #CDC726",
" . c #C6C22A",
".. c #CAC62B",
"X. c #CEC92C",
"o. c #C5C125",
"O. c #D2CD2D",
"+. c #D6D22C",
"@. c #DAD62F",
"#. c #DDDA2F",
"$. c #C7C53E",
"%. c #C4C130",
"&. c #D0CD30",
"*. c #DEDC30",
"=. c #D8D531",
"-. c #E4DF2B",
";. c #E1DE31",
":. c #E4E02E",
">. c #EBE62F",
",. c #F2EE2F",
"<. c #E5E231",
"1. c #E9E632",
"2. c #EDEA33",
"3. c #F1ED34",
"4. c #F5F235",
"5. c #F9F635",
"6. c #FFFB37",
"7. c #FFFE38",
"8. c #A1A248",
"9. c #858E63",
"0. c #87906F",
"q. c #8D9563",
"w. c #637880",
"e. c #6D818A",
"r. c #72868A",
"t. c #778F8D",
"y. c #7D8F8E",
"u. c #779089",
"i. c #7C9186",
"p. c #6C8797",
"a. c #708D99",
"s. c #789192",
"d. c #7D989E",
"f. c #7B97A3",
"g. c #849796",
"h. c #93A286",
"j. c #9CAB94",
"k. c #809BAC",
"l. c #8EA5A8",
"z. c #98AAAE",
"x. c #9DB4BB",
"c. c #AABEBF",
"v. c #8FB1C4",
"b. c #99BBCD",
"n. c #9ABBD1",
"m. c #A7BEC5",
"M. c #9DC2D6",
"N. c #A9C3CB",
"B. c #A8CDDF",
"V. c #A2C5D9",
"C. c #B0CBDA",
"Z. c #B5D4DF",
"A. c #ADD3EA",
"S. c #B6D4E4",
"D. c #B4D9EC",
"F. c #B8D8E8",
"G. c #B8DEF3",
"H. c #BDE0F2",
"J. c #C3E7F7",
"K. c #C2E6F8",
"L. c #C4E9FA",
"P. c #CAECFB",
"I. c None",
/* pixels */
"I.I.I.I.I.I.I.I.I.I.I.I.I.I.I.I.I.I.I.I.I.I.I.I.I.I.I.I.I.I.I.I.I.I.I.I.I.I.I.I.I.I.I.I.I.I.I.I.I.I.I.I.I.I.I.I.I.I.I.I.I.I.I.I.",
"I.I.I.I.I.I.I.I.I.I.I.I.I.I.I.I.I.I.I.I.I.I.I.I.I.I.I.I.I.I.I.I.I.I.I.I.I.I.I.I.I.I.I.I.I.I.I.I.I.I.I.I.I.I.I.I.I.I.I.I.I.I.I.I.",
"I.I.I.I.I.I.I.I.I.I.I.I.I.I.I.I.I.I.I.I.I.I.I.I.I.I.I.I.I.I.I.I.I.I.I.I.I.I.I.I.I.I.I.I.I.I.I.I.I.I.I.I.I.I.I.I.I.I.I.I.I.I.I.I.",
"I.I.I.I.I.I.I.I.I.I.I.I.I.I.I.I.I.I.I.I.I.I.I.I.I.I.I.I.I.I.I.I.I.  I.I.I.+ I.I.I.I.I.I.I.I.I.I.I.I.I.I.I.I.I.I.I.I.I.I.I.I.I.I.",
"I.I.I.I.I.I.I.I.I.I.I.I.I.I.I.I.I.I.I.I.I.I.I.I.I.I.I.I.I.I.@ & : 3 V V V H R C w q < * I.I.I.I.I.O O I.I.I.I.I.I.I.I.I.I.I.I.I.",
"I.I.I.I.I.I.I.I.I.I.I.I.I.I.I.I.I.I.I.I.I.I.I.I.I.I.I.I.* 8 J X.;.<.2.7.7.6.5.7.6.1.1...J A > I.. 7 q I.I.I.I.I.I.I.I.I.I.I.I.I.",
"I.I.I.I.I.I.I.I.I.I.I.I.I.I.I.I.I.I.I.I.I.I.I.I.I.I.I.R ..3.5.6.7.7.7.6.6.6.7.7.7.7.6.7.7.3.;.Z : E ;.n . I.I.I.I.I.I.I.I.I.I.I.",
"I.I.I.I.I.I.I.I.I.I.I.I.I.I.I.I.I.I.I.I.I.I.I.I.& 8 ! 1.7.7.7.7.6.6.6.6.6.6.6.6.6.6.6.6.6.7.7.( V 2.7...& I.I.I.I.I.I.I.I.I.I.I.",
"I.I.I.I.I.I.I.I.I.I.I.I.I.I.I.I.I.I.I.I.I.I.I.A ^ 3.7.7.6.6.6.6.6.6.6.6.6.6.6.6.6.6.6.6.6.7.;.e ..6.7.5.w I.I.I.I.I.I.I.I.I.I.I.",
"I.I.I.I.I.I.I.I.I.I.I.I.I.I.I.I.I.I.I.I.I.# 5 } 5.7.6.6.6.6.6.6.6.6.6.6.6.6.6.6.6.6.6.6.7.5.K J 4.7.7.7...V I.I.I.I.I.I.I.I.I.I.",
"I.I.I.I.I.I.I.I.I.I.I.I.I.I.I.I.I.I.I.I.= A 2.7.7.6.6.6.6.6.6.6.6.6.6.6.6.6.6.6.6.6.6.6.7.O.r +.7.7.6.6.4.E O I.I.I.I.I.I.I.I.I.",
"I.I.I.I.I.I.I.I.I.I.I.I.I.I.I.I.I.I.I.I.A 4.7.6.6.6.6.6.6.6.6.6.6.6.6.6.6.6.6.6.6.6.6.6.4.J U 6.6.6.6.7.7.2.4 I.I.I.I.I.I.I.I.I.",
"I.I.I.I.I.I.I.I.I.I.I.I.I.I.I.I.I.I.@ A 1.6.6.6.6.6.6.6.6.6.6.6.6.6.6.6.6.6.6.6.6.6.6.7.X.n *.7.6.6.6.6.6.7.E 7 I.I.I.I.I.I.I.I.",
"I.I.I.I.I.I.I.I.I.I.I.I.I.I.I.I.I.O e 3.7.6.6.6.6.6.6.6.6.6.6.6.6.6.6.6.6.6.6.6.6.6.7.3.G ! 6.6.6.6.6.6.6.7.1.V I.I.I.I.I.I.I.I.",
"I.I.I.I.I.I.I.I.I.I.I.I.I.I.I.I.. 4 <.7.6.6.6.6.6.6.6.6.6.6.6.6.6.6.6.6.6.6.6.6.6.6.6.} Z <.7.6.6.6.6.6.6.6.7.! I.I.I.I.I.I.I.I.",
"I.I.I.I.I.I.I.I.I.I.I.I.I.I.I.$ & ^ 7.7.6.6.6.6.6.6.6.6.6.6.6.6.6.6.6.6.6.6.7.7.6.6.;.e  .7.6.6.6.6.6.6.6.7.7.*.2 I.I.I.I.I.I.I.",
"I.I.I.I.I.I.I.I.I.I.I.I.I.I.n 9 C 4.6.6.6.6.6.6.6.6.6.6.6.6.6.6.6.6.6.6.6.4.<.3.6.6.U G 3.7.6.6.6.6.6.6.6.6.7.4.U + I.I.I.I.I.I.",
"I.I.I.I.I.I.I.I.I.I.I.I.I.V T r X.7.6.6.6.6.6.6.6.6.6.6.6.6.6.7.6.4.O.R r n H Z U ! e X.7.6.6.6.6.6.6.6.6.6.6.6.;.: I.I.I.I.I.I.",
"I.I.I.I.I.I.I.I.I.I.I.@ e X.K J 7.6.6.6.6.6.6.6.6.6.6.6.6.6.6.:.D 8 e E ..O.E H w > 7 U 1.7.6.6.6.6.6.6.6.6.6.6.6.0 I.I.I.I.I.I.",
"I.I.I.I.I.I.I.I.I.I.5 T 5.2.e =.7.7.6.6.6.6.6.6.6.6.6.6.6.7.*.I l a +.6.6.2.O.Q U } X.U e ..6.7.6.6.6.6.6.6.6.6.7.E 1 I.I.I.I.I.",
"I.I.I.I.I.I.I.I.I., Q 4.7.! C 2.6.6.6.6.6.6.6.6.6.6.6.6.7.X.u b v.x >.;.' H Q &.2.7.7.4.E V } 5.6.6.6.6.6.6.6.6.7.1.9 I.I.I.I.I.",
"I.I.I.I.I.I.I.@ q ..6.7.5.V T 6.6.6.6.6.6.6.6.6.6.6.6.6.+.s a.D.D.c } ( X.2.7.7.7.6.7.7.5. .A } 7.6.6.6.6.6.6.6.6.7.n I.I.I.I.I.",
"I.I.I.I.I.I.I.A ;.7.7.7.;.n  .7.6.6.6.6.6.6.6.6.6.6.6.4.P s.Z.P.b.f C O.4.6.6.6.6.6.6.6.7.5.} n 3.6.6.6.6.6.6.6.6.7.T I.I.I.I.I.",
"I.I.I.I.I.$ V *.6.6.6.6.X.9 3.6.6.6.6.6.6.6.6.6.6.6.7.) z M.J.J.h._ 3.7.7.6.6.6.6.6.6.6.6.7.5.Z ( 4.7.6.6.6.6.6.7.7.+.8 I.I.I.I.",
"I.I.I.I.9 ! 7.7.7.6.6.7.K C 3.6.6.6.6.6.6.6.6.6.6.6.3.i p.H.H.j.[ 2.6.6.6.6.6.6.6.6.6.6.6.6.7...K @.7.6.6.6.6.6.6.6.5.w I.I.I.I.",
"I.I.I.8 ..5.7.6.6.6.6.6.G H 6.6.6.6.6.6.6.6.6.6.6.6.-.g B.P.l.8.4.6.6.6.6.6.6.6.6.6.6.6.6.6.6.4.J ..7.6.6.6.6.6.6.6.7.n I.I.I.I.",
"I.* w O.6.6.6.6.6.6.7.3.H U 7.6.6.6.6.6.6.6.6.6.6.6.! B D.S.q.+.6.6.6.6.6.6.6.6.6.6.6.6.6.6.6.7.A ~ 4.7.6.6.6.6.6.6.7.R : I.I.I.",
"I.E 4.7.7.6.6.6.6.6.6.5.q ) 6.6.6.6.6.6.6.6.6.6.6.6.W r.J.N.8.5.6.6.6.6.6.6.6.6.6.6.6.6.6.6.6.7.E R 3.6.6.6.6.6.6.6.6.@.> I.I.I.",
"A 1.6.6.6.6.6.6.6.6.7.4.q } 7.6.6.6.6.6.6.6.6.6.6.4.Y e.L.c.] 6.6.6.6.6.6.6.6.6.6.6.6.6.6.6.6.6.X.A 6.6.6.6.6.6.6.6.7.3., I.I.I.",
"X.7.6.6.6.6.6.6.6.6.7.2.Z R 7.6.6.6.6.6.6.6.6.6.6.6.C d.H.z.$.5.6.6.6.6.6.6.6.6.6.6.6.6.6.6.6.6. .C 6.6.6.6.6.6.6.6.7.4.0 I.I.I.",
"K 5.7.6.6.6.6.7.7.7.4...0 E 7.7.6.6.6.6.6.6.6.6.6.6.D i.H.x.8.,.6.6.6.6.6.6.6.6.6.6.6.6.6.6.6.7.U ! 4.6.6.6.6.6.6.6.7.4.C   I.I.",
"8 3.7.7.7.7.7.1. .T H G # E 5.7.6.6.6.6.6.6.6.6.6.6...l A.S.N :.6.6.6.6.6.6.6.6.6.6.6.6.6.6.6.4.S ! 7.6.6.6.6.6.6.6.7.5.T I.I.I.",
": <.7.4.+.^ K A I.I.I.I.X G 5.7.6.6.6.6.6.6.6.6.6.6.1.t b.L.t.' 4.6.6.6.6.6.6.6.6.6.6.6.6.6.7.*.V =.7.7.6.6.6.6.6.6.6.7.K I.I.I.",
"@ G T H G I.I.I.I.I.I.I.I.q 7.6.6.6.6.6.6.6.6.6.6.6.7.e t.D.V.9.) 5.6.6.6.6.6.6.6.6.6.7.7.7.7.! J 5.7.6.6.6.6.6.6.6.6.7.Q > I.I.",
"I.< I.I.I.I.I.I.I.I.I.I.I.4 4.6.6.6.6.6.6.6.6.6.6.6.7.o.k k.L.N.0._ +.6.5.7.6.6.6.7.7.5.2.4.X.e X.7.6.6.6.6.6.6.6.6.6.6. .# I.I.",
"I.I.I.I.I.I.I.I.I.I.I.I.I.5 =.7.6.6.6.6.6.6.6.6.6.6.6.4.^ d M.P.S.g.9.L Q ) ) +.=.} ( ) ! r * 9 X.7.7.6.6.6.6.6.6.6.6.7...@ I.I.",
"I.I.I.I.I.I.I.I.I.I.I.I.I.I.R 7.6.6.6.6.6.6.6.6.6.6.6.6.5.r v b.J.J.C.m.r.p C E H T .. .S 7 w n C U ;.6.6.6.6.6.6.6.6.7.) I.I.I.",
"I.I.I.I.I.I.I.I.I.I.I.I.I.I.9 5.6.6.6.6.6.6.6.6.6.6.6.6.6.>.H g f.D.P.P.G.l.F 3.6.5.2.O.H U 1.6.O.K V ) <.7.7.6.6.6.6.7.} > I.I.",
"I.I.I.I.I.I.I.I.I.I.I.I.I.I.; *.6.6.6.6.6.6.6.6.6.6.6.6.6.6.3.~ u v f.M.D.V.b  .1.} S r U 1.6.6.6.4.+.U G ! 2.7.7.6.6.7.O.% I.I.",
"I.I.I.I.I.I.I.I.I.I.I.I.I.I.+ Z 4.6.6.6.6.6.6.6.6.6.6.6.6.6.6.6.-.U i p h t.j 6 8 r ^ 2.7.7.6.6.6.6.7.4.} U n ( 1.7.7.7.} I.I.I.",
"I.I.I.I.I.I.I.I.I.I.I.I.I.; : 8 +.7.6.6.6.6.6.6.6.6.6.6.6.6.6.6.6.6.4.+.+.~ E X.<.2.4.7.6.6.6.6.6.6.6.6.7.4...n Z ( 3.7.~ I.I.I.",
"I.I.I.I.I.I.I.I.I.I.; 1 0 T +.T U 6.6.6.6.6.6.6.6.6.6.6.6.6.6.6.6.6.6.6.6.6.7.6.7.7.7.6.6.6.6.6.6.6.6.6.6.7.6.2.~ A r } ^ % I.I.",
"I.I.I.I.I.I.; ; 4 V ) 2.7.7.7.;.G X.6.7.6.6.6.6.6.6.6.6.6.6.6.6.6.6.6.6.6.6.6.6.6.6.6.6.6.6.6.6.6.6.6.6.6.6.6.7.7.*.2 - 5 I.I.I.",
"I.I.I.. - 0 U *.5.6.7.6.7.7.6.6.) H &.7.6.6.6.6.6.6.6.6.6.6.6.6.6.6.6.6.6.6.6.6.6.6.6.6.6.6.6.6.6.6.6.6.6.6.6.6.5.R I.I.I.I.I.I.",
"I.I.I.  w 2.7.7.6.7.6.6.6.6.6.6.4.! C 4.7.6.6.6.6.6.6.6.6.6.6.6.6.6.6.6.6.6.6.6.6.6.6.6.6.6.6.6.6.6.6.6.6.6.6.7. .8 I.I.I.I.I.I.",
"I.I.I.I., *.7.7.6.6.6.6.6.6.6.6.6.3.A ^ 2.7.6.6.6.6.6.6.6.6.6.6.6.6.6.6.6.6.6.6.6.6.6.6.6.6.6.6.6.6.6.6.6.6.7.*.7 I.I.I.I.I.I.I.",
"I.I.I.I.O ..7.5.6.6.6.6.6.6.6.6.6.7.=.U R 2.7.6.6.6.6.6.6.6.6.6.6.6.6.6.6.6.6.6.6.6.6.6.6.6.6.6.6.6.6.6.6.6.O.5 . I.I.I.I.I.I.I.",
"I.I.I.I.  K 4.7.6.6.6.6.6.6.6.6.6.6.6.*.G K 4.7.6.6.6.6.6.6.6.6.6.6.6.6.6.6.6.6.6.6.6.6.6.6.6.6.6.6.6.6.7.X.5 I.I.I.I.I.I.I.I.I.",
"I.I.I.I.  5 =.7.7.6.7.7.7.7.7.6.6.6.6.7.;.S K #.6.6.6.6.6.6.6.6.6.6.6.6.6.6.6.6.6.6.6.6.6.6.6.6.6.7.7.6.} q I.I.I.I.I.I.I.I.I.I.",
"I.I.I.I.I.@ C e G ( } ..3.2.4.7.6.6.7.7.7.1.R H ) 2.7.6.6.6.6.6.6.6.6.6.6.6.6.6.6.6.6.6.6.6.6.6.7.5.*.C =   I.I.I.I.I.I.I.I.I.I.",
"I.I.I.I.I.I.I.I.I.$ < , , V J r E ) ) =.2.2.2...n H +.5.7.7.6.6.6.6.6.6.6.6.6.6.6.6.6.6.6.6.7.7.4.) E I.I.I.I.I.I.I.I.I.I.I.I.I.",
"I.I.I.I.I.I.I.I.I.I.I.I.I.I.I.I.I.* 4 - 3 K w A H 5 1 K X.2.7.7.7.7.6.6.6.6.6.7.6.6.7.7.7.6.;.K 7 $ I.I.I.I.I.I.I.I.I.I.I.I.I.I.",
"I.I.I.I.I.I.I.I.I.I.I.I.I.I.I.I.I.I.I.I.I.I.I.I.@ : o X - 5 A X.;.5.7.5.7.7.7.5.7.7.4...J e 9 1 I.I.I.I.I.I.I.I.I.I.I.I.I.I.I.I.",
"I.I.I.I.I.I.I.I.I.I.I.I.I.I.I.I.I.I.I.I.I.I.I.I.I.I.I.I.I.  I.% w 0 G T R R ! ^ H e 0 8 I.I.I.I.I.I.I.I.I.I.I.I.I.I.I.I.I.I.I.I.",
"I.I.I.I.I.I.I.I.I.I.I.I.I.I.I.I.I.I.I.I.I.I.I.I.I.I.I.I.I.I.I.I.I.I.I.X & I.# @ = I.I.I.I.I.I.I.I.I.I.I.I.I.I.I.I.I.I.I.I.I.I.I.",
"I.I.I.I.I.I.I.I.I.I.I.I.I.I.I.I.I.I.I.I.I.I.I.I.I.I.I.I.I.I.I.I.I.I.I.I.I.I.I.I.I.I.I.I.I.I.I.I.I.I.I.I.I.I.I.I.I.I.I.I.I.I.I.I.",
"I.I.I.I.I.I.I.I.I.I.I.I.I.I.I.I.I.I.I.I.I.I.I.I.I.I.I.I.I.I.I.I.I.I.I.I.I.I.I.I.I.I.I.I.I.I.I.I.I.I.I.I.I.I.I.I.I.I.I.I.I.I.I.I.",
"I.I.I.I.I.I.I.I.I.I.I.I.I.I.I.I.I.I.I.I.I.I.I.I.I.I.I.I.I.I.I.I.I.I.I.I.I.I.I.I.I.I.I.I.I.I.I.I.I.I.I.I.I.I.I.I.I.I.I.I.I.I.I.I.",
"I.I.I.I.I.I.I.I.I.I.I.I.I.I.I.I.I.I.I.I.I.I.I.I.I.I.I.I.I.I.I.I.I.I.I.I.I.I.I.I.I.I.I.I.I.I.I.I.I.I.I.I.I.I.I.I.I.I.I.I.I.I.I.I.",
"I.I.I.I.I.I.I.I.I.I.I.I.I.I.I.I.I.I.I.I.I.I.I.I.I.I.I.I.I.I.I.I.I.I.I.I.I.I.I.I.I.I.I.I.I.I.I.I.I.I.I.I.I.I.I.I.I.I.I.I.I.I.I.I.",
"I.I.I.I.I.I.I.I.I.I.I.I.I.I.I.I.I.I.I.I.I.I.I.I.I.I.I.I.I.I.I.I.I.I.I.I.I.I.I.I.I.I.I.I.I.I.I.I.I.I.I.I.I.I.I.I.I.I.I.I.I.I.I.I.",
"I.I.I.I.I.I.I.I.I.I.I.I.I.I.I.I.I.I.I.I.I.I.I.I.I.I.I.I.I.I.I.I.I.I.I.I.I.I.I.I.I.I.I.I.I.I.I.I.I.I.I.I.I.I.I.I.I.I.I.I.I.I.I.I.",
"I.I.I.I.I.I.I.I.I.I.I.I.I.I.I.I.I.I.I.I.I.I.I.I.I.I.I.I.I.I.I.I.I.I.I.I.I.I.I.I.I.I.I.I.I.I.I.I.I.I.I.I.I.I.I.I.I.I.I.I.I.I.I.I.",
"I.I.I.I.I.I.I.I.I.I.I.I.I.I.I.I.I.I.I.I.I.I.I.I.I.I.I.I.I.I.I.I.I.I.I.I.I.I.I.I.I.I.I.I.I.I.I.I.I.I.I.I.I.I.I.I.I.I.I.I.I.I.I.I."
};
