/* XPM */
static char *_00[] = {
/* columns rows colors chars-per-pixel */
"32 32 210 2 ",
"   c #4F000A",
".  c #59000B",
"X  c #61000C",
"o  c #63000C",
"O  c #66000C",
"+  c #67000C",
"@  c #6A000D",
"#  c #6C000D",
"$  c #6D000E",
"%  c #76000F",
"&  c #7B000F",
"*  c #7D000F",
"=  c #7E0010",
"-  c #810010",
";  c #820010",
":  c #890010",
">  c #890011",
",  c #8F0011",
"<  c #900011",
"1  c #920012",
"2  c #920112",
"3  c #940012",
"4  c #960012",
"5  c #980013",
"6  c #9A0013",
"7  c #9C0013",
"8  c #A00013",
"9  c #A10013",
"0  c #A10215",
"q  c #A40014",
"w  c #A50014",
"e  c #A50114",
"r  c #A60014",
"t  c #A70014",
"y  c #A60015",
"u  c #AA0015",
"i  c #AC0015",
"p  c #AD0015",
"a  c #AE0015",
"s  c #AF0015",
"d  c #B00015",
"f  c #B00016",
"g  c #B40016",
"h  c #B50016",
"j  c #B60016",
"k  c #B70016",
"l  c #B70017",
"z  c #B60217",
"x  c #BA0017",
"c  c #BB0017",
"v  c #BC0017",
"b  c #BD0017",
"n  c #BD051A",
"m  c #B3091E",
"M  c #A41629",
"N  c #B2172B",
"B  c #B01E31",
"V  c #B91D32",
"C  c #B82539",
"Z  c #C00017",
"A  c #C10017",
"S  c #C20017",
"D  c #C30017",
"F  c #C90017",
"G  c #C10118",
"H  c #C30018",
"J  c #C20118",
"K  c #C00219",
"L  c #C40018",
"P  c #C50018",
"I  c #C60018",
"U  c #C70018",
"Y  c #C5051B",
"T  c #C80018",
"R  c #C90018",
"E  c #C90019",
"W  c #CA0018",
"Q  c #CA0019",
"!  c #CB0019",
"~  c #CA021A",
"^  c #CC0019",
"/  c #CD0019",
"(  c #CE0019",
")  c #CF0019",
"_  c #D00019",
"`  c #D10019",
"'  c #D30019",
"]  c #D0001A",
"[  c #D2001A",
"{  c #D4001A",
"}  c #D6001A",
"|  c #D7001A",
" . c #D90018",
".. c #D80019",
"X. c #D80119",
"o. c #D8001A",
"O. c #D9001A",
"+. c #DA001B",
"@. c #DB001B",
"#. c #DA011B",
"$. c #DC001B",
"%. c #DD001B",
"&. c #DE001B",
"*. c #DF001B",
"=. c #DE011B",
"-. c #DF001C",
";. c #E60016",
":. c #E1001A",
">. c #E0001B",
",. c #E1001B",
"<. c #E3001B",
"1. c #E2001C",
"2. c #E3001C",
"3. c #E4001C",
"4. c #E5001C",
"5. c #E6001C",
"6. c #EB001B",
"7. c #EF0019",
"8. c #E8001C",
"9. c #E8011D",
"0. c #EA001C",
"q. c #EA001D",
"w. c #EB001D",
"e. c #EC001D",
"r. c #ED001D",
"t. c #EE001D",
"y. c #EF001D",
"u. c #EE011D",
"i. c #FF0017",
"p. c #F00019",
"a. c #F0001B",
"s. c #F1001B",
"d. c #F3001B",
"f. c #F60019",
"g. c #F0001D",
"h. c #F1001D",
"j. c #F2001D",
"k. c #F3001D",
"l. c #F1021D",
"z. c #F0001E",
"x. c #F3001E",
"c. c #F4001E",
"v. c #F5001E",
"b. c #F6001E",
"n. c #F7001E",
"m. c #F7001F",
"M. c #FF0019",
"N. c #FE001A",
"B. c #FF001B",
"V. c #FA001C",
"C. c #FB001D",
"Z. c #F8001E",
"A. c #F9001E",
"S. c #F8001F",
"D. c #F9001F",
"F. c #FA001E",
"G. c #FB001E",
"H. c #FB001F",
"J. c #FA011F",
"K. c #FF001C",
"L. c #FF001D",
"P. c #FD001E",
"I. c #FC001F",
"U. c #FD001F",
"Y. c #FC011F",
"T. c #FF001E",
"R. c #FE001F",
"E. c #FF001F",
"W. c #DB0D26",
"Q. c #C9162E",
"!. c #DF162D",
"~. c #D51E36",
"^. c #E10520",
"/. c #E50721",
"(. c #EE0520",
"). c #FD0020",
"_. c #FE0020",
"`. c #FF0020",
"'. c #DE243B",
"]. c #9C2E40",
"[. c #883242",
"{. c #903746",
"}. c #A62F42",
"|. c #AD3B4E",
" X c #B63C4F",
".X c #C23044",
"XX c #984858",
"oX c #A94A5D",
"OX c #BD4C5E",
"+X c #975F6F",
"@X c #A35C6C",
"#X c #976979",
"$X c #A36071",
"%X c #A36D7C",
"&X c #B66A7A",
"*X c #A27687",
"=X c #AC8998",
"-X c #8394A1",
";X c #9D97A5",
":X c #A596A4",
">X c #93A6B2",
",X c #98A7B3",
"<X c #97B1BE",
"1X c #A0B1BE",
"2X c #9AB4C1",
"3X c #9EBECA",
"4X c #AAB4C1",
"5X c #A2C0CC",
"6X c #A6C2D0",
"7X c None",
/* pixels */
"7X7X7X7X7X7X7X7X7X7X7X7X7X7X7X7X7X7X7X7X7X7X7X7X7X7X7X7X7X7X7X7X",
"7X7X7X7X7X7X7X7X7X7X7X7X7X7X7X7X7X7X@ 7X7X7X7X7X7X7X7X7X7X7X7X7X",
"7X7X7X7X7X7X7X7X7X7X7X7X7X7X7X{ T H [ +.c Z < X q 7X7X7X7X7X7X7X",
"7X7X7X7X7X7X7X7X7X7X7X7XA O.5.h.I.`.E.E.`.E.! U 3.= 7X7X7X7X7X7X",
"7X7X7X7X7X7X7X7X7X7X7X9 @.F.E.E.E.E.E.E.E.t.b 2.E.) : 7X7X7X7X7X",
"7X7X7X7X7X7X7X7X7X7X$.S.`.E.E.E.E.E.E.E.E.| A U.E.R.k 7X7X7X7X7X",
"7X7X7X7X7X7X7X7X7XL g.E.E.E.E.E.E.E.E.E.b.D 4.E.E.`.$.7X7X7X7X7X",
"7X7X7X7X7X7X7X7X1 h.E.E.E.E.E.E.E.U.k.U.} T D.E.E.E.b.&.7X7X7X7X",
"7X7X7X7X7X7X7X> o.E.E.E.E.E.E.g.) Z G e 2 b H.E.E.E.E.r.& 7X7X7X",
"7X7X7X7X7Xo - s Z.E.E.E.E.L.p.V M X.K z J c / h.E.E.E.R.d O 7X7X",
"7X7X7X7X7XH A } E.E.E.E.E.a.}.-X{.Y #.u.I.h.( ! b.E.E.R.5.# 7X7X",
"7X7X7X7Xa 5.f w.E.E.E.E.K.Q.;X6X X6.E.E.E.E.Z.P %.R.E.E.A.> 7X7X",
"7X7X, ( G.0.h g.E.E.E.E.d.|.3X&X/.P.E.E.E.E.E.} ' c.E.E.F.>.7X7X",
"7X7X( Z.`.O.v Z.E.E.E.E.l.+X4X~.N.E.E.E.E.E.E.8.I c.E.E.U.<.7X7X",
"; ^ Z.E.E.q.p E.E.E.E.E.;.*X:X'.M.E.E.E.E.E.E.v.h n.E.E.E.*.7X7X",
"b E.E.E.).] l g.E.E.E.E.9.oX1X.Xi.E.E.E.E.E.E.-.U v.E.E.E.0.d 7X",
"1.m.t.} ^ 3 * e.E.E.E.E.Y.N 2X%X!.f.B.G.J.R.z.h ^ E.E.E.E.U.5 7X",
"7Xv P 7X7X7X7Xc.E.E.E.E.T. .$X>X=XOXC F =.~ 0 1 s ,.c.E.E.E.6 7X",
"7X7X7X7X7X7X7XS I.E.E.E.E.V.W.XX<X5X,X].n j p _ *.W T ` r.S.} 7X",
"7X7X7X7X7X7X7X7Xj.E.E.E.E.E.L.:.B @X#X[.m ..x.`.E.F.8.] g v 5 7X",
"7X7X7X7X7X7X7X  ^ H.E.E.E.E.E.T.C.7.^.(.s.b.E.E.E.E.E._.*.4 7X7X",
"7X7X7X7X7X7X7Xv W ,.`.E.E.E.E.E.E.E.E.T.E.E.E.E.E.E.E.F.c & 7X7X",
"7X7X7X7Xq.0.h.b.4.b y.E.E.E.E.E.E.E.E.E.E.E.E.E.E.E.Z.E 7X7X7X7X",
"7X7X7X) A.E.E.E.E.` I 8.U.E.E.E.E.E.E.E.E.E.E.E.E.U.*.y 7X7X7X7X",
"7X7X7X) v.E.H.E.E.Z.,.T | Z.E.E.E.E.E.E.E.E.`.I.*.w * 7X7X7X7X7X",
"7X7X7X7Xk t / j P 8.I R 9 7 Q 4.c.E.F.E.E.w.( x u 7X7X7X7X7X7X7X",
"7X7X7X7X7X7X7X$ 7X7X7X7X+ 7X. % k 8 ^ r 9 i 7X7X7X7X7X7X7X7X7X7X",
"7X7X7X7X7X7X7X7X7X7X7X7X7X7X7X7X7X7X7X7X7X7X7X7X7X7X7X7X7X7X7X7X",
"7X7X7X7X7X7X7X7X7X7X7X7X7X7X7X7X7X7X7X7X7X7X7X7X7X7X7X7X7X7X7X7X",
"7X7X7X7X7X7X7X7X7X7X7X7X7X7X7X7X7X7X7X7X7X7X7X7X7X7X7X7X7X7X7X7X",
"7X7X7X7X7X7X7X7X7X7X7X7X7X7X7X7X7X7X7X7X7X7X7X7X7X7X7X7X7X7X7X7X",
"7X7X7X7X7X7X7X7X7X7X7X7X7X7X7X7X7X7X7X7X7X7X7X7X7X7X7X7X7X7X7X7X"
};
