/* XPM */
static char *_03[] = {
/* columns rows colors chars-per-pixel */
"32 32 217 2 ",
"   c #4D000A",
".  c #5A000B",
"X  c #5C000B",
"o  c #60000C",
"O  c #66000C",
"+  c #67000C",
"@  c #66000D",
"#  c #68000D",
"$  c #6E000E",
"%  c #72000E",
"&  c #75000E",
"*  c #78000E",
"=  c #78000F",
"-  c #79000F",
";  c #7A000F",
":  c #7F0010",
">  c #830010",
",  c #860010",
"<  c #860011",
"1  c #8A0011",
"2  c #8D0011",
"3  c #8E0011",
"4  c #910112",
"5  c #940012",
"6  c #950012",
"7  c #970012",
"8  c #990013",
"9  c #9D0013",
"0  c #9E0013",
"q  c #9A0214",
"w  c #A00013",
"e  c #A10013",
"r  c #A10014",
"t  c #A40014",
"y  c #A60014",
"u  c #A60015",
"i  c #A60115",
"p  c #A80015",
"a  c #A90015",
"s  c #AA0015",
"d  c #AB0015",
"f  c #AD0015",
"g  c #AE0015",
"h  c #AF0015",
"j  c #AF0016",
"k  c #B20016",
"l  c #B30016",
"z  c #B20217",
"x  c #B40016",
"c  c #B50016",
"v  c #B60016",
"b  c #B70016",
"n  c #B70017",
"m  c #B90017",
"M  c #BE0015",
"N  c #BC0017",
"B  c #BD0017",
"V  c #BD0117",
"C  c #BE0017",
"Z  c #BF0017",
"A  c #BF0118",
"S  c #9E0F21",
"D  c #AA0D20",
"F  c #A11A2C",
"G  c #B21226",
"H  c #AE1D31",
"J  c #C00016",
"K  c #C00017",
"L  c #C20017",
"P  c #C30017",
"I  c #C40017",
"U  c #C10018",
"Y  c #C30018",
"T  c #C40018",
"R  c #C50018",
"E  c #C60018",
"W  c #C70018",
"Q  c #C80018",
"!  c #C90018",
"~  c #C90019",
"^  c #CB0018",
"/  c #CA0019",
"(  c #C8021A",
")  c #CD0019",
"_  c #CD0119",
"`  c #CE0019",
"'  c #CF0019",
"]  c #CC041C",
"[  c #CE081E",
"{  c #D10019",
"}  c #D1001A",
"|  c #D2001A",
" . c #D3001A",
".. c #D60019",
"X. c #D4001A",
"o. c #D5001A",
"O. c #D5011B",
"+. c #D6001A",
"@. c #D7001A",
"#. c #D8001A",
"$. c #D9001A",
"%. c #D9001B",
"&. c #D9011B",
"*. c #DA001A",
"=. c #DB001A",
"-. c #DA011A",
";. c #DB001B",
":. c #DF0018",
">. c #DC001A",
",. c #DC001B",
"<. c #DD001B",
"1. c #DE001B",
"2. c #DF001B",
"3. c #E0001B",
"4. c #E1001B",
"5. c #E50019",
"6. c #E70019",
"7. c #E7001B",
"8. c #E2001C",
"9. c #E3001C",
"0. c #E4001C",
"q. c #E5001C",
"w. c #E5011C",
"e. c #E6001C",
"r. c #E7001C",
"t. c #E1041E",
"y. c #E2041E",
"u. c #E2061F",
"i. c #ED0019",
"p. c #EC001B",
"a. c #E8001C",
"s. c #E9001C",
"d. c #EB001C",
"f. c #EA001D",
"g. c #EB001D",
"h. c #EC001C",
"j. c #EC001D",
"k. c #ED001D",
"l. c #EE001D",
"z. c #EF001D",
"x. c #FF0017",
"c. c #F1001B",
"v. c #F0001D",
"b. c #F1001D",
"n. c #F0011D",
"m. c #F2001D",
"M. c #F3001D",
"N. c #F0001E",
"B. c #F2001E",
"V. c #F3001E",
"C. c #F2011E",
"Z. c #F5001C",
"A. c #F4001D",
"S. c #F4001E",
"D. c #F6001E",
"F. c #F7001E",
"G. c #F6001F",
"H. c #F7021F",
"J. c #FE0019",
"K. c #FD001A",
"L. c #FD001B",
"P. c #FF001B",
"I. c #F8001C",
"U. c #F8001E",
"Y. c #F9001E",
"T. c #FA001E",
"R. c #FB001E",
"E. c #FA001F",
"W. c #FB001F",
"Q. c #FD001D",
"!. c #FF001C",
"~. c #FF001D",
"^. c #FC001F",
"/. c #FD001F",
"(. c #FF001E",
"). c #FE001F",
"_. c #FF001F",
"`. c #C40B22",
"'. c #D10A22",
"]. c #D20A23",
"[. c #D70B24",
"{. c #D70E27",
"}. c #CA1027",
"|. c #D91F35",
" X c #FF0020",
".X c #EA142D",
"XX c #C72A3F",
"oX c #9D3647",
"OX c #9B3C4D",
"+X c #AC3042",
"@X c #AA3C4F",
"#X c #B13246",
"$X c #C43B4F",
"%X c #A54958",
"&X c #A85A6B",
"*X c #8D6776",
"=X c #926473",
"-X c #966D7C",
";X c #87707D",
":X c #A76678",
">X c #A26C7B",
",X c #B56C7D",
"<X c #988290",
"1X c #96919F",
"2X c #AC8795",
"3X c #A78F9E",
"4X c #979CAA",
"5X c #A99FAE",
"6X c #8FA1AE",
"7X c #A2A4B1",
"8X c #B2A3B2",
"9X c #9AB8C4",
"0X c #9FB9C4",
"qX c #97BFCB",
"wX c #A7B5C1",
"eX c #A2C1CF",
"rX c None",
/* pixels */
"rXrXrXrXrXrXrXrXrXrXrXrXrXrXrXrXrXrXrXrXrXrXrXrXrXrXrXrXrXrXrXrX",
"rXrXrXrXrXrXrXrXrXrXrXrXrXrXrXrX> = h - rX  O rXrXrXrXrXrXrXrXrX",
"rXrXrXrXrXrXrXrXrXrXrXrXrXrX) R #.z.r.k.;.f T { . rXrXrXrXrXrXrX",
"rXrXrXrXrXrXrXrXrXrXrXrX;.9.v._. X_._._.m.B B._.f rXrXrXrXrXrXrX",
"rXrXrXrXrXrXrXrXrXrX0 ` m._._._._._._._.#.W /._.m.v rXrXrXrXrXrX",
"rXrXrXrXrXrXrXrXrXrX@._._._._._._._._.T.R @._._. X>.rXrXrXrXrXrX",
"rXrXrXrXrXrXrXrXe ,.)._._._._._._._._.f.K v._._._.Y.4.rXrXrXrXrX",
"rXrXrXrXrXrXrXrX;.)._._._._._._.W.s.l.R L _._._._._.V.9 X rXrXrX",
"rXrXrXrXrXrXrX> j._._._._._.E.O.J V q 4 s *.z._._._.).q.% rXrXrX",
"rXrXrXrXrXrXrXQ _._._._._.J.'.F [ _ ( &.2.` B A._._._.).w o rXrX",
"rXrXrXrXrX& 7 g._._._._.(.[.*X;XD -.C._._./.W X.v._._.).<.# rXrX",
"rXrXrXrXrXY C U._._._._.I.#XeX3X].(._._._._.b./ 2._._._.m.rXrXrX",
"rXrXrX; T ) U ^._._._._.5.-XwX$XZ._._._._._._.` #.W._._.Y.=.rXrX",
"rXrXrX#._.$.N )._._._.~.{.<X8Xu.!._._._._._._.0.B )._._._.@.rXrX",
"rXrXg z. XE ^ )._._._.(.t.1X2X.XP._._._._._._.1.~ Y._._._.g.w rX",
"rXX.F._._.2.l _._._._._.:.:X7XXXx.(._._._._. XE ` _._._._. X6 rX",
"2 e._._. X+.n z._._._._.H.H 9X>X|.i.I.p.n.w.z 1 f 1.k.T._._.Q rX",
"o. X_.h.| p % q._._._._.(...&X6X5X,X%XG ] A i c +.' W U X.l.~ rX",
"rX%.} I rXrXrXN.^._._._._.R.y.OX4X0XqX=XS M @./._./.B.8.R k : rX",
"rXj rXrXrXrXrX5 M._._._._._.!.6.}.+X@XoX`.7.F._._._._._.G.y rXrX",
"rXrXrXrXrXrXrXrXq.Y._._._._._._.(.K.c.Q.L.)._._._._._._.0.6 rXrX",
"rXrXrXrXrXrXrXrX< 4._._._._._._._._._._._._._._._._._.2.u rXrXrX",
"rXrXrXrXrXrXrXe.^ R s.)._._._._._._._._._._._._._. XV.o.rXrXrXrX",
"rXrXrXrXrXa.d.D.E.3.Y 1._._._._._._._._._._._._._.,.8 rXrXrXrXrX",
"rXrXrXrXo.U._._._._.4.P +.g.)._._._._._._. X_.8.Z a rXrXrXrXrXrX",
"rXrXrXrX+.^._.T._.T.F.a.! x v o.e.v.S.k.b. .m l rXrXrXrXrXrXrXrX",
"rXrXrXrXb T d / t x rXr R * + @ $ c 3 K * , rXrXrXrXrXrXrXrXrXrX",
"rXrXrXrXrXrXrXrXrXrXrXrXrXrXrXrXrXrXrXrXrXrXrXrXrXrXrXrXrXrXrXrX",
"rXrXrXrXrXrXrXrXrXrXrXrXrXrXrXrXrXrXrXrXrXrXrXrXrXrXrXrXrXrXrXrX",
"rXrXrXrXrXrXrXrXrXrXrXrXrXrXrXrXrXrXrXrXrXrXrXrXrXrXrXrXrXrXrXrX",
"rXrXrXrXrXrXrXrXrXrXrXrXrXrXrXrXrXrXrXrXrXrXrXrXrXrXrXrXrXrXrXrX",
"rXrXrXrXrXrXrXrXrXrXrXrXrXrXrXrXrXrXrXrXrXrXrXrXrXrXrXrXrXrXrXrX"
};
