/* XPM */
static char *_08[] = {
/* columns rows colors chars-per-pixel */
"32 32 215 2 ",
"   c #450008",
".  c #4D0009",
"X  c #57000B",
"o  c #5E000B",
"O  c #64000C",
"+  c #66000D",
"@  c #67000D",
"#  c #68000C",
"$  c #6F000D",
"%  c #6F000E",
"&  c #76000E",
"*  c #7B000F",
"=  c #7E000F",
"-  c #7F000F",
";  c #800010",
":  c #810010",
">  c #850011",
",  c #860010",
"<  c #8C0011",
"1  c #8D0011",
"2  c #8E0011",
"3  c #900011",
"4  c #900012",
"5  c #920012",
"6  c #960012",
"7  c #970012",
"8  c #9C0013",
"9  c #9D0013",
"0  c #9F0013",
"q  c #9F0214",
"w  c #A10014",
"e  c #A20014",
"r  c #A30014",
"t  c #A50014",
"y  c #A70014",
"u  c #A80014",
"i  c #A90014",
"p  c #A90015",
"a  c #AB0015",
"s  c #AB0115",
"d  c #AD0015",
"f  c #AF0015",
"g  c #AF0016",
"h  c #AC0216",
"j  c #B00015",
"k  c #B20015",
"l  c #B10016",
"z  c #B20016",
"x  c #B50016",
"c  c #B70016",
"v  c #B60017",
"b  c #B50217",
"n  c #B80015",
"m  c #B80016",
"M  c #B90117",
"N  c #BB0016",
"B  c #BA0017",
"V  c #BC0017",
"C  c #BF0016",
"Z  c #BE0017",
"A  c #BF0017",
"S  c #BF0018",
"D  c #9C1628",
"F  c #A80F21",
"G  c #A61023",
"H  c #932536",
"J  c #B6283C",
"K  c #B6283D",
"L  c #BB2A3F",
"P  c #C00017",
"I  c #C10017",
"U  c #C30017",
"Y  c #C40017",
"T  c #C00018",
"R  c #C10018",
"E  c #C00118",
"W  c #C20018",
"Q  c #C30018",
"!  c #C40018",
"~  c #C50018",
"^  c #C50118",
"/  c #C60018",
"(  c #C70018",
")  c #C5031A",
"_  c #C80018",
"`  c #C90018",
"'  c #C80019",
"]  c #C90019",
"[  c #CA0018",
"{  c #CA0019",
"}  c #CB0019",
"|  c #CC0019",
" . c #CD0019",
".. c #CE0019",
"X. c #CD011A",
"o. c #D00019",
"O. c #D10019",
"+. c #D30019",
"@. c #D1001A",
"#. c #D2001A",
"$. c #D3001A",
"%. c #D50019",
"&. c #D4001A",
"*. c #D5001A",
"=. c #D6001A",
"-. c #D7001A",
";. c #D6021C",
":. c #D0041D",
">. c #D3041C",
",. c #D5051C",
"<. c #D5041D",
"1. c #D8001A",
"2. c #D8001B",
"3. c #D9001B",
"4. c #DA001A",
"5. c #DA001B",
"6. c #DC001B",
"7. c #DD001B",
"8. c #DE001B",
"9. c #DF001B",
"0. c #DF011B",
"q. c #DA021C",
"w. c #E00017",
"e. c #E1001A",
"r. c #E0001B",
"t. c #E0001C",
"y. c #E1001C",
"u. c #E3001C",
"i. c #E5001C",
"p. c #E6001C",
"a. c #E7001C",
"s. c #E8001C",
"d. c #E9001C",
"f. c #E8011D",
"g. c #EA001D",
"h. c #EB001D",
"j. c #ED001C",
"k. c #EC001D",
"l. c #ED001D",
"z. c #EE001D",
"x. c #F60017",
"c. c #FF0017",
"v. c #F6001A",
"b. c #F0001D",
"n. c #F1001D",
"m. c #F2001D",
"M. c #F1001E",
"N. c #F3001E",
"B. c #F4001D",
"V. c #F4001E",
"C. c #F5001E",
"Z. c #F5011E",
"A. c #F5001F",
"S. c #F6001E",
"D. c #F7001E",
"F. c #F4041F",
"G. c #F9001B",
"H. c #FB001B",
"J. c #FF001B",
"K. c #FA001C",
"L. c #FA001D",
"P. c #FB001D",
"I. c #F8001E",
"U. c #F9001E",
"Y. c #FA001E",
"T. c #FB001E",
"R. c #FB001F",
"E. c #FF001C",
"W. c #FE001D",
"Q. c #FF001D",
"!. c #FC001E",
"~. c #FD001E",
"^. c #FC001F",
"/. c #FD001F",
"(. c #FF001E",
"). c #FE001F",
"_. c #FF001F",
"`. c #C80A21",
"'. c #D00821",
"]. c #D00A23",
"[. c #DA0921",
"{. c #D30F28",
"}. c #D91028",
"|. c #C51930",
" X c #E50822",
".X c #FF0020",
"XX c #D22137",
"oX c #AC3044",
"OX c #AC3548",
"+X c #D02E43",
"@X c #A5495C",
"#X c #A85465",
"$X c #876471",
"%X c #986675",
"&X c #9D707F",
"*X c #A36A79",
"=X c #BA6C7C",
"-X c #C05769",
";X c #927C8B",
":X c #B27D8C",
">X c #958594",
",X c #9E8F9B",
"<X c #95909D",
"1X c #A88694",
"2X c #9D99A8",
"3X c #AD97A6",
"4X c #8DA0AC",
"5X c #95A1AE",
"6X c #96A4B0",
"7X c #99B1BE",
"8X c #9DB2BE",
"9X c #9BBDC9",
"0X c #A4B6C3",
"qX c #A4C6D2",
"wX c None",
/* pixels */
"wXwXwXwXwXwXwXwXwXwXwXwXwXwXwXwXwXwXwX  6 wXwXwXwXwXwXwXwXwXwXwX",
"wXwXwXwXwXwXwXwXwXwXwXwXwXwX% d 0 V i 8 3.e @ wXwXwXwXwXwXwXwXwX",
"wXwXwXwXwXwXwXwXwXwXwXwXR c 7.V.T..Xu.Q /.~.j wXwXwXwXwXwXwXwXwX",
"wXwXwXwXwXwXwXwXwXwXwX4.9.^..X_._._.*.` _._.Y./ wXwXwXwXwXwXwXwX",
"wXwXwXwXwXwXwXwXwXwX7.n._._._._._._...} _._._.m.1.wXwXwXwXwXwXwX",
"wXwXwXwXwXwXwXwX9 | I._._._._._._.)._ 8._._._._.n.( o wXwXwXwXwX",
"wXwXwXwXwXwXwXwXm )._._._._._._._.D.A z._._._._._.U.r + wXwXwXwX",
"wXwXwXwXwXwXwX' V._._._._._._.l.9.M 7 U a.R._._._.).m.; wXwXwXwX",
"wXwXwXwXwXwXwX ._._._._._._.=.C b q E _ ~ ( b.)._._._.-.wXwXwXwX",
"wXwXwXwXwXwXa V._._._._.~.%.G ,.X.q.S.).I._ O.s._._._.m.p.wXwXwX",
"wXwXwXwXwXwXu _._._._._.v.@X$XF 0./._._._.I.} 1.D._._._.9.wXwXwX",
"wXwXwXwXwX: ` _._._._.W.].>X8X|.P._._._._._.s.A B._._._.N.N wXwX",
"wXwXwXwX$ 7 g._._._._.E.J 7X:X X(._._._._._._.! 6._._._..Xo.; wX",
"wXwXwXwXZ W u._._._._.G.K qX-Xx._._._._._._./.~ u._._._._.^.1 wX",
"wXwXwX4 y.z r._._._._.J.L 5X=XH.(._._._._._.S.y / m.S.Y./.^.6.wX",
"wXwXwX1._./ #._._._._.~.<.2X1XXXc.Q.Q.!.Z.f.h 5 k ( ~ S ` *.w > ",
"wXwXt l._.P _ _._._._._.f.oX9X*X+X[.}.) >.^ s I D.B.z.i.3./ ; wX",
"wXwXp..X_.h.g n._._._._.Q.:.#X4X0X3X,X&XD n O.R._._._._..XZ * wX",
"wXQ S._..Xt.p 2.)._._._._.).w.OX%X<X6X;XH ;.b.)._._._._.U.&.wXwX",
"- p..X_.8.] . e S._._._._._.W.K.e.`.{.'.F.L._._._._._.).{ wXwXwX",
"wXa.A.O.Y wXwXwX-.!._._._._._._.(.(.(._.(._._._._._._.V.&.wXwXwX",
"wX .B wXwXwXwXwX3 b.^._._._._._._._._._._._._._._._.I.y wXwXwXwX",
"wXwXwXwXwXwXwXwXwX< r._._._._._._._._._._._._._._.d.x wXwXwXwXwX",
"wXwXwXwXwXwXwXwXwXf [ *.I._._._._._._._._._._._.*.v wXwXwXwXwXwX",
"wXwXwXwXwXwXwXwXk.V.M.P ..4.N.)._._._._._.I.d.x g wXwXwXwXwXwXwX",
"wXwXwXwXwXwXg.j.T._._.S.i.( ( } T @.} $.k P & wXwXwXwXwXwXwXwXwX",
"wXwXwXwXwXW i._._._._.N.C.' ' = # X O wXwXwXwXwXwXwXwXwXwXwXwXwX",
"wXwXwXwXwXwX+.m.8.5.l x wX2 wXwXwXwXwXwXwXwXwXwXwXwXwXwXwXwXwXwX",
"wXwXwXwXwXwXwXd , wXwXwXwXwXwXwXwXwXwXwXwXwXwXwXwXwXwXwXwXwXwXwX",
"wXwXwXwXwXwXwXwXwXwXwXwXwXwXwXwXwXwXwXwXwXwXwXwXwXwXwXwXwXwXwXwX",
"wXwXwXwXwXwXwXwXwXwXwXwXwXwXwXwXwXwXwXwXwXwXwXwXwXwXwXwXwXwXwXwX",
"wXwXwXwXwXwXwXwXwXwXwXwXwXwXwXwXwXwXwXwXwXwXwXwXwXwXwXwXwXwXwXwX"
};
