/* XPM */
static char *_29[] = {
/* columns rows colors chars-per-pixel */
"32 32 212 2 ",
"   c #4D0009",
".  c #5D000B",
"X  c #5E000B",
"o  c #5F000B",
"O  c #5E000C",
"+  c #5F000C",
"@  c #63000C",
"#  c #66000C",
"$  c #67000D",
"%  c #72000E",
"&  c #76000E",
"*  c #78000F",
"=  c #7B000F",
"-  c #7C000F",
";  c #7E0010",
":  c #840010",
">  c #860010",
",  c #8B0011",
"<  c #8D0011",
"1  c #8E0011",
"2  c #910011",
"3  c #920012",
"4  c #930012",
"5  c #980013",
"6  c #990013",
"7  c #9C0013",
"8  c #9D0013",
"9  c #9E0014",
"0  c #A00013",
"q  c #A00014",
"w  c #A00114",
"e  c #A20014",
"r  c #A30215",
"t  c #A40014",
"y  c #A50014",
"u  c #A60014",
"i  c #A80014",
"p  c #A80015",
"a  c #AC0015",
"s  c #AD0015",
"d  c #AE0015",
"f  c #AF0015",
"g  c #B00015",
"h  c #B10015",
"j  c #B20015",
"k  c #B10016",
"l  c #B30016",
"z  c #B00217",
"x  c #B40016",
"c  c #B50016",
"v  c #B60016",
"b  c #B60116",
"n  c #B80016",
"m  c #B80017",
"M  c #B90017",
"N  c #BB0016",
"B  c #BA0017",
"V  c #BB0017",
"C  c #BD0017",
"Z  c #BF0017",
"A  c #BA0218",
"S  c #BF0218",
"D  c #BE041A",
"F  c #BE091F",
"G  c #BF0C22",
"H  c #A31B2E",
"J  c #B81127",
"K  c #892A3A",
"L  c #942B3B",
"P  c #AF263A",
"I  c #C10017",
"U  c #C20017",
"Y  c #C30017",
"T  c #C40017",
"R  c #C60017",
"E  c #C10018",
"W  c #C30018",
"Q  c #C00218",
"!  c #C10219",
"~  c #C40018",
"^  c #C50018",
"/  c #C60018",
"(  c #C70019",
")  c #C80018",
"_  c #CA0019",
"`  c #CB0019",
"'  c #CC0019",
"]  c #CD0019",
"[  c #CE0019",
"{  c #CF0019",
"}  c #CF001A",
"|  c #D00019",
" . c #D10019",
".. c #D2001A",
"X. c #D3001A",
"o. c #D1021B",
"O. c #D1031B",
"+. c #D4001A",
"@. c #D6001A",
"#. c #D7001A",
"$. c #D6011A",
"%. c #D7041B",
"&. c #D8001A",
"*. c #D9001A",
"=. c #D9001B",
"-. c #DB001A",
";. c #DA001B",
":. c #DB001B",
">. c #DD001B",
",. c #DE001B",
"<. c #DF001B",
"1. c #DE031E",
"2. c #E10019",
"3. c #E0001B",
"4. c #E1001B",
"5. c #E2001B",
"6. c #E3001B",
"7. c #E50019",
"8. c #E2001C",
"9. c #E3001C",
"0. c #E4001C",
"q. c #E5001C",
"w. c #E6001C",
"e. c #E7001C",
"r. c #E8001A",
"t. c #E8001C",
"y. c #EA001D",
"u. c #EB001D",
"i. c #EC001D",
"p. c #ED001D",
"a. c #EC011D",
"s. c #EE001D",
"d. c #EF001D",
"f. c #F90016",
"g. c #F10018",
"h. c #F0001C",
"j. c #F0001D",
"k. c #F1001D",
"l. c #F3001C",
"z. c #F2001D",
"x. c #F3001D",
"c. c #F1001E",
"v. c #F2001E",
"b. c #F3001E",
"n. c #F7001D",
"m. c #F4001E",
"M. c #F5001E",
"N. c #F6001E",
"B. c #F9001B",
"V. c #FF0019",
"C. c #FC001A",
"Z. c #FC001B",
"A. c #FF001A",
"S. c #FF001B",
"D. c #F8001E",
"F. c #F9001E",
"G. c #F9011E",
"H. c #F9001F",
"J. c #FA001E",
"K. c #FB001E",
"L. c #FB001F",
"P. c #F9031E",
"I. c #FC001D",
"U. c #FD001D",
"Y. c #FF001C",
"T. c #FE001D",
"R. c #FF001D",
"E. c #FC001F",
"W. c #FD001F",
"Q. c #FF001E",
"!. c #FE001F",
"~. c #FF001F",
"^. c #C20921",
"/. c #C20D23",
"(. c #C50F26",
"). c #C5152B",
"_. c #C7162D",
"`. c #C8142A",
"'. c #D21028",
"]. c #D01229",
"[. c #D21830",
"{. c #E20D26",
"}. c #E10F28",
"|. c #FF0020",
" X c #E8172F",
".X c #A33D4F",
"XX c #BA4C5F",
"oX c #905D6D",
"OX c #AD4F60",
"+X c #A15062",
"@X c #A25464",
"#X c #AA5F71",
"$X c #906E7C",
"%X c #AD6675",
"&X c #C15F71",
"*X c #967988",
"=X c #AC7686",
"-X c #AB7C8A",
";X c #8F808E",
":X c #98808E",
">X c #B08A99",
",X c #AA9BAA",
"<X c #9EA0AF",
"1X c #8FA3B0",
"2X c #8DA9B6",
"3X c #9CA8B4",
"4X c #9AB7C3",
"5X c #97BDC9",
"6X c #A2BCCA",
"7X c #A2C0CC",
"8X c #A7C5D2",
"9X c None",
/* pixels */
"9X9X9X9X9X9X9X9X9X9X9X9X9X9X9X9X9X9X9X9X9X9X9X9X9X9X9X9X9X9X9X9X",
"9X9X9X9X9X9X9X9X. / 6 0 j ~ +.9X- % $ O 9X9X9X9X9X9X9X9X9X9X9X9X",
"9X9X9X9X9X9X9X9X+ } ~.~.~.D.k.v.M.k.&.v 9X9X9X9X9X9X9X9X9X9X9X9X",
"9X9X9X9X9X9X9Xy s / m.~.~.~.~.~.~.~.!.K.s.3.) i ; 9X9X9X9X9X9X9X",
"9X9X9X9X9X9X= X.M./ X.W.~.~.~.~.~.~.~.~.~.~.L.e.x < 9X9X9X9X9X9X",
"9X9X9X9X9X9X_ ~.~.t.N y.~.~.~.W.E.~.~.~.~.~.~.~.~.u.y 9X9X9X9X9X",
"9X9X9X9X9X4 D.~.~.!.@.~ L.x.;.>.:.,.d.!.~.~.~.~.K.9.5 9X9X9X9X9X",
"9X9X9X9X9X{ |.~.~.~.M.Z j I ) ) ' ) ^ &.D.~.~.x.[ m ] > 9X9X9X9X",
"9X9X9X9X/ s.~.~.~.~.~.b w ;.D.|.~.J.q.^ =.J.6.) ' c.H.Y 9X9X9X9X",
"9X9X9X9X*.E.~.~.~.~.3.r S N.~.~.~.~.~.e.x h / 3.J.~.~.#.9X9X9X9X",
"9X9X9X9X5.~.~.~.~.!.U ! o.W.~.~.~.~.~.|.q 9 t.~.~.~.~.>.9X9X9X9X",
"9X9X9X9X0.~.~.~.~.b.A %.$.~.~.~.~.~.~.E.z u D.~.~.~.~.m.7 9X9X9X",
"9X9X9XV 0.~.~.~.~.r.H L F I.~.~.~.~.W.a.Q M M.~.~.~.~.L.3 9X9X9X",
"9X9X9X4 t.~.~.~.~.g.+X2XXXl.Q.~.~.~.h.O.D R j.~.~.~.~.j.u 9X9X9X",
"9X9X9X9Xd.~.~.~.~.S.P 6X>X}.A.Q.Q.V.`..XK G n.~.~.~.~.3.k 9X9X9X",
"9X9X9X9X} ~.~.~.~.Q.1.$X8X&X XP.f.].-X5XoX{.T.~.~.~.|.{ 9X9X9X9X",
"9X9X9X9X^ !.~.~.~.~.Z.).*X3X=XOX%X,X7X:X(.U.~.~.~.~.~.C 9X9X9X9X",
"9X9X9X9Xa w.~.~.~.~.~.G.[.#X<X4X1X;X@X/.C.~.~.~.~.~.F.e 9X9X9X9X",
"9X9X9X9XX E ~.~.~.~.~.~.B.2.^.J _.'.7.Y.~.~.~.~.~.W.[ & 9X9X9X9X",
"9X9X9X9X9X1 i.~.~.~.~.~.~.Q.R.~.K.R.~.~.~.~.~.~.~.6.N 9X9X9X9X9X",
"9X9X9X9X9X: C p.~.~.~.~.~.~.~.~.~.~.~.~.~.~.~.~.m.t 9X9X9X9X9X9X",
"9X9X9X9X9X3 ) M q.!.~.~.~.~.~.~.~.~.~.~.~.~.~.N.l 9X9X9X9X9X9X9X",
"9X9X9X9X9XB 8.{ Z w.!.~.~.~.~.~.~.~.~.~.~.~.w.p   9X9X9X9X9X9X9X",
"9X9X9X9X9X- 4.M._ d C <.M.E.W.~.~.|.W.L.d...8 # 9X9X9X9X9X9X9X9X",
"9X9X9X9X9X9X-.~.|.d.p @ } ^ j.3.4.:.>./ W / 2 9X9X9X9X9X9X9X9X9X",
"9X9X9X9X9X9Xf ~.~.E.( 9X9Xo 9X@ Y | ` 9.b.x 9X9X9X9X9X9X9X9X9X9X",
"9X9X9X9X9X9X| F.~.s.T 9X9X9X9X9Xe.W.~.!.u.9X9X9X9X9X9X9X9X9X9X9X",
"9X9X9X9X9X9XV u.|.4.9X9X9X9X9X9Xz.~.~.t.n 9X9X9X9X9X9X9X9X9X9X9X",
"9X9X9X9X9X9X* =.E...9X9X9X9X9Xt.N.~.N.g * 9X9X9X9X9X9X9X9X9X9X9X",
"9X9X9X9X9X9X9X .3.c 9X9X9X9X9Xy.!.|./ 9X9X9X9X9X9X9X9X9X9X9X9X9X",
"9X9X9X9X9X9X9X9X9X9X9X9X9X9X9X' w.,., 9X9X9X9X9X9X9X9X9X9X9X9X9X",
"9X9X9X9X9X9X9X9X9X9X9X9X9X9X9X9X9Xc 9X9X9X9X9X9X9X9X9X9X9X9X9X9X"
};
