/* XPM */
static char *_38[] = {
/* columns rows colors chars-per-pixel */
"32 32 210 2 ",
"   c #4C0009",
".  c #4F000A",
"X  c #58000B",
"o  c #62000C",
"O  c #66000C",
"+  c #69000C",
"@  c #6A000D",
"#  c #6B000D",
"$  c #6D000D",
"%  c #6E000D",
"&  c #6F000E",
"*  c #70000D",
"=  c #7A000F",
"-  c #7B000F",
";  c #7E000F",
":  c #7F0010",
">  c #820010",
",  c #850010",
"<  c #890010",
"1  c #880011",
"2  c #890011",
"3  c #8A0010",
"4  c #8C0011",
"5  c #8E0012",
"6  c #930012",
"7  c #960012",
"8  c #990012",
"9  c #9A0013",
"0  c #A20013",
"q  c #A00014",
"w  c #A10014",
"e  c #A40014",
"r  c #A50014",
"t  c #A70015",
"y  c #A80014",
"u  c #A80115",
"i  c #AA0014",
"p  c #AA0015",
"a  c #AB0015",
"s  c #AA0115",
"d  c #AD0015",
"f  c #AE0015",
"g  c #AD0216",
"h  c #B10015",
"j  c #B10016",
"k  c #B20016",
"l  c #B30016",
"z  c #B60016",
"x  c #B60117",
"c  c #B90017",
"v  c #BA0016",
"b  c #BA0017",
"n  c #BB0017",
"m  c #BC0017",
"M  c #BD0017",
"N  c #BE0016",
"B  c #BE0017",
"V  c #BF0017",
"C  c #BA0218",
"Z  c #B90419",
"A  c #B20A1E",
"S  c #B30A1F",
"D  c #BD0E23",
"F  c #BC0F25",
"G  c #B01024",
"H  c #B7152A",
"J  c #BA182C",
"K  c #9A293A",
"L  c #AD2134",
"P  c #AD2135",
"I  c #AF2438",
"U  c #B42338",
"Y  c #B7253A",
"T  c #B6263C",
"R  c #C00017",
"E  c #C10017",
"W  c #C20017",
"Q  c #CB0017",
"!  c #C20018",
"~  c #C30018",
"^  c #C40018",
"/  c #C50018",
"(  c #C60018",
")  c #C70018",
"_  c #C3051B",
"`  c #C80018",
"'  c #C90018",
"]  c #C90019",
"[  c #CA0018",
"{  c #CA0019",
"}  c #CB0019",
"|  c #CD0019",
" . c #CE0019",
".. c #CF0019",
"X. c #D10019",
"o. c #D20018",
"O. c #D30019",
"+. c #D1001A",
"@. c #D2001A",
"#. c #D3001A",
"$. c #D2011A",
"%. c #D4001A",
"&. c #D5001A",
"*. c #D6001A",
"=. c #D7001A",
"-. c #D4031B",
";. c #D8001A",
":. c #DA001B",
">. c #DB001B",
",. c #DC001B",
"<. c #DD001B",
"1. c #DE001B",
"2. c #DE001C",
"3. c #DE041E",
"4. c #E10017",
"5. c #E0001B",
"6. c #E1001B",
"7. c #E0001C",
"8. c #E1001C",
"9. c #E0011C",
"0. c #E2001C",
"q. c #E3011C",
"w. c #E4001C",
"e. c #E5001C",
"r. c #E6001C",
"t. c #E7001C",
"y. c #E8001B",
"u. c #E8001C",
"i. c #E9001C",
"p. c #EA001C",
"a. c #EA001D",
"s. c #EB001D",
"d. c #EC001D",
"f. c #ED001D",
"g. c #EC011D",
"h. c #EE001D",
"j. c #EF001D",
"k. c #EC061F",
"l. c #FF0016",
"z. c #F1001B",
"x. c #F40019",
"c. c #F6001A",
"v. c #F1001C",
"b. c #F0001D",
"n. c #F2001D",
"m. c #F3001D",
"M. c #F0011E",
"N. c #F1011E",
"B. c #F2001E",
"V. c #F4001E",
"C. c #F5001E",
"Z. c #F4011E",
"A. c #F6001E",
"S. c #F7001E",
"D. c #F7011E",
"F. c #FA001A",
"G. c #FA001B",
"H. c #FF0019",
"J. c #FF001A",
"K. c #FA001C",
"L. c #FB001C",
"P. c #F8001E",
"I. c #F9001E",
"U. c #F8001F",
"Y. c #F9001F",
"T. c #FA001E",
"R. c #FB001E",
"E. c #FA001F",
"W. c #FB001F",
"Q. c #FB021F",
"!. c #FF001C",
"~. c #FE001D",
"^. c #FF001D",
"/. c #FC001F",
"(. c #FD001F",
"). c #FF001E",
"_. c #FE001F",
"`. c #FF001F",
"'. c #D70D26",
"]. c #DC0C25",
"[. c #DF1028",
"{. c #E10822",
"}. c #FF0020",
"|. c #C92138",
" X c #B73E50",
".X c #B54B5E",
"XX c #885E6C",
"oX c #945969",
"OX c #A45C6C",
"+X c #BA5869",
"@X c #926C7B",
"#X c #A56C7B",
"$X c #C3495B",
"%X c #877B89",
"&X c #987280",
"*X c #9D7180",
"=X c #B87F8E",
"-X c #9D828E",
";X c #988E9C",
":X c #939EAB",
">X c #979CA9",
",X c #96B0BC",
"<X c #97B4C1",
"1X c #9CB6C3",
"2X c #9CBECA",
"3X c #A0B5C2",
"4X c #A8BFCC",
"5X c #A7C2CE",
"6X c #A7C8D5",
"7X c None",
/* pixels */
"7X7X7X7X7X7X7X7X7X7X7X7X7X7X7X7X7X7X7X7X7X7X7X7X7X7X7X7X7X7X7X7X",
"7X7X7X7X7X7X7X7X7X7X7X7Xo # @ 7X7X7X7X7X& 7X7X7X7X7X7X7X7X7X7X7X",
"7X7X7X7X7X7X7X7X7X7X7X{ [ 5.u.d.i.6.*.} V / c > 7X7X7X7X7X7X7X7X",
"7X7X7X7X7X7X% 0 ` 1.d.P._._._.`.`.`.`.}.}.W.} - 7X7X7X7X7X7X7X7X",
"7X7X7X7X+ +.b.`.}.`.`.`.`.`.`.`.`.`.`.`.`.p.c B , 7X7X7X7X7X7X7X",
"7X7X7X7X  m U.`.`.`.`.`.`.`.`.`.`.`.`.`.C.^ &.E.O.7X7X7X7X7X7X7X",
"7X7X7X7X8 ^ V h.`.`.`.`.P.e.1.e.b.S.`.R.X. .P.`.I.a 7X7X7X7X7X7X",
"7X7X7X& >.R.| v r.`./.:.~ ) [ W z ] u.*.' n.`.`.`.8.7X7X7X7X7X7X",
"7X7X7Xr V.`._.;.R ,.O.) 7.C.W.`.U.#.i r w.`.`.`.`.(.w 7X7X7X7X7X",
"7X7X7X) /.`.`.`.0.y p 6._.`.`.`.`.}.d 9 t.`.`.`.`.}.~ 7X7X7X7X7X",
"7X7X; &.`.`.`.`.`.s g N.`.`.`.`.`.`.$.u %.(.`.`.`.`.=.7X7X7X7X7X",
"7X7Xi ,.`.`.`.`.f.x C g.`.`.`.`.`./.9.N Q m.`.`.`.`.0.l 7X7X7X7X",
"7X7X7X8.`.`.`.`.r.E o.q.`.`.`.`.`.S.-.A S v.`.`.`.`.s.k 7X7X7X7X",
"7X7X7Xe.`.`.`.`.d.Z D _ L.`.`.`.`.M.L oXK F.`.`.`.`.n.t 7X7X7X7X",
"7X7X7Xe.`.`.`.`.Z.G XXOX{.!.`.`.~.[.-X<XI !.`.`.`.`.C.3 7X7X7X7X",
"7X7X7X,.`.`.`.`.(.'.%X6X+Xy.l.H.k..X5X&X3.`.`.`.`.`.r.* 7X7X7X7X",
"7X7X7XW `.`.`.`.`.G.U >X4X=X$X X#X3X;XJ K.`.`.`.`.`.) 7X7X7X7X7X",
"7X7X7X7 B.`.`.`.`.).z.Y *X:X1X2X,X@XH x.).`.`.`.`.P.9 7X7X7X7X7X",
"7X7X7X7Xe./.`.`.`.`.`.c.].|.T P F 4.J.).`.`.`.`.}...7X7X7X7X7X7X",
"7X7X7X7Xf e.`.`.`.`.`.`.^.K.D.Q.).`.`.`.`.`.`.`.n.2 7X7X7X7X7X7X",
"7X7X7X7X7X:.b.`.`.`.`.`.`.`.`.`.`.`.`.`.`.`.`.W.l $ 7X7X7X7X7X7X",
"7X7X7X7X7X7Xy V.`.`.`.`.`.`.`.`.`.`.`.`.`.`.P.X.7 O 7X7X7X7X7X7X",
"7X7X7X7X7X7X7Xd B./.`.`.`.`.`.`.`.`.`.`._.a.[ ` ( 7X7X7X7X7X7X7X",
"7X7X7X7X7X7X7X1 m %.u.R.}.`.`.`.`.(.T.j.>.} ;.w.q 7X7X7X7X7X7X7X",
"7X7X7X7X7X7X7X= ..n b / } :.e.A.t.j.B [ | 5.I.h.7X7X7X7X7X7X7X7X",
"7X7X7X7X7X7X7X7XM _.5.{ ] e X 7X$ 7X.  .Y.`.`.^ 7X7X7X7X7X7X7X7X",
"7X7X7X7X7X7X7X7X: u.`.`.Y.! 7X7X7X7X7Xj._.`.T.6 7X7X7X7X7X7X7X7X",
"7X7X7X7X7X7X7X7X7XV A.`.}.X.7X7X7X7X7Xu.R.`.5.7X7X7X7X7X7X7X7X7X",
"7X7X7X7X7X7X7X7X7X< 0._.`.&.7X7X7X7X7Xi.T.}.z 7X7X7X7X7X7X7X7X7X",
"7X7X7X7X7X7X7X7X7X7X@.h.}.<.7X7X7X7X7X2.u.6.h 7X7X7X7X7X7X7X7X7X",
"7X7X7X7X7X7X7X7X7X7X5 m B.+.j 7X7X7X7X7X{ / 7X7X7X7X7X7X7X7X7X7X",
"7X7X7X7X7X7X7X7X7X7X7X4 7X7X7X7X7X7X7X7X7X7X7X7X7X7X7X7X7X7X7X7X"
};
