/* XPM */
static char *_76[] = {
/* columns rows colors chars-per-pixel */
"32 32 214 2 ",
"   c #5A000B",
".  c #5E000B",
"X  c #60000C",
"o  c #61000C",
"O  c #64000D",
"+  c #66000C",
"@  c #6C000D",
"#  c #6D000D",
"$  c #6E000D",
"%  c #71000E",
"&  c #75000F",
"*  c #76000E",
"=  c #78000F",
"-  c #7C000F",
";  c #800010",
":  c #810010",
">  c #830010",
",  c #870010",
"<  c #890011",
"1  c #8F0011",
"2  c #8F0012",
"3  c #8F0112",
"4  c #920012",
"5  c #920112",
"6  c #910212",
"7  c #940012",
"8  c #950012",
"9  c #980013",
"0  c #9A0013",
"q  c #9C0013",
"w  c #9D0013",
"e  c #9F0013",
"r  c #A00014",
"t  c #A30014",
"y  c #A90014",
"u  c #A80015",
"i  c #AB0015",
"p  c #AE0015",
"a  c #AF0015",
"s  c #AF0016",
"d  c #AC0216",
"f  c #A90A1D",
"g  c #B00015",
"h  c #B30016",
"j  c #B50016",
"k  c #B70016",
"l  c #B60017",
"z  c #B80016",
"x  c #B90016",
"c  c #B90117",
"v  c #BB0016",
"b  c #BA0017",
"n  c #BB0017",
"m  c #BC0017",
"M  c #BD0017",
"N  c #BE0016",
"B  c #BF0017",
"V  c #BF0117",
"C  c #B80218",
"Z  c #BF0018",
"A  c #BF071D",
"S  c #BF0B22",
"D  c #A81224",
"F  c #A51629",
"G  c #B51328",
"H  c #B72639",
"J  c #B42C3F",
"K  c #BD293E",
"L  c #C10017",
"P  c #C20017",
"I  c #C30017",
"U  c #C60016",
"Y  c #C10018",
"T  c #C30018",
"R  c #C50018",
"E  c #C60018",
"W  c #C70018",
"Q  c #C90018",
"!  c #C80019",
"~  c #C90019",
"^  c #CA0018",
"/  c #CA0019",
"(  c #CB0019",
")  c #CC0018",
"_  c #CC0019",
"`  c #CD0019",
"'  c #CE0019",
"]  c #CF0019",
"[  c #CE021A",
"{  c #DB0017",
"}  c #D00019",
"|  c #D10019",
" . c #D20019",
".. c #D30019",
"X. c #D1001A",
"o. c #D2001A",
"O. c #D60018",
"+. c #D4001A",
"@. c #D5001A",
"#. c #D6001A",
"$. c #D6011B",
"%. c #D2071F",
"&. c #D8001A",
"*. c #D9001A",
"=. c #D9001B",
"-. c #D9011B",
";. c #DB001A",
":. c #DD001A",
">. c #DC001B",
",. c #DD001B",
"<. c #DE001B",
"1. c #DF001B",
"2. c #DF011B",
"3. c #D8061F",
"4. c #E00019",
"5. c #E0001B",
"6. c #E1001B",
"7. c #E2001A",
"8. c #E2001B",
"9. c #E3001B",
"0. c #E2001C",
"q. c #E3001C",
"w. c #E0021C",
"e. c #E4001C",
"r. c #E4011C",
"t. c #E5001D",
"y. c #E6001C",
"u. c #E7001C",
"i. c #E7011D",
"p. c #EC001B",
"a. c #E8001C",
"s. c #E9001C",
"d. c #E8001D",
"f. c #EA001C",
"g. c #EB001C",
"h. c #EA001D",
"j. c #EB001D",
"k. c #EC001C",
"l. c #EC001D",
"z. c #ED001D",
"x. c #EE001D",
"c. c #EF001D",
"v. c #EE011D",
"b. c #EF001E",
"n. c #F70018",
"m. c #F0001D",
"M. c #F1001D",
"N. c #F2001D",
"B. c #F3001D",
"V. c #F3001E",
"C. c #F5001D",
"Z. c #F4001E",
"A. c #F5001E",
"S. c #F4011E",
"D. c #F6001E",
"F. c #F7001E",
"G. c #F80018",
"H. c #F90018",
"J. c #FD0018",
"K. c #FB011C",
"L. c #FA001D",
"P. c #F8001E",
"I. c #F9001E",
"U. c #F9011E",
"Y. c #FA001E",
"T. c #FB001E",
"R. c #FA001F",
"E. c #FF001C",
"W. c #FE001D",
"Q. c #FF001D",
"!. c #FC001E",
"~. c #FC001F",
"^. c #FD001F",
"/. c #FF001E",
"(. c #FE001F",
"). c #FF001F",
"_. c #D40922",
"`. c #DB0D26",
"'. c #C61229",
"]. c #CA1028",
"[. c #C91B31",
"{. c #EB0722",
"}. c #F10722",
"|. c #FF0020",
" X c #F00D26",
".X c #C92339",
"XX c #843D4C",
"oX c #A73E50",
"OX c #9E4254",
"+X c #994455",
"@X c #AF4B5C",
"#X c #945F6F",
"$X c #995F6E",
"%X c #9D6C7B",
"&X c #AB6877",
"*X c #B66777",
"=X c #B06B7B",
"-X c #C94257",
";X c #8C7886",
":X c #A27788",
">X c #908592",
",X c #94909E",
"<X c #9C98A6",
"1X c #AB95A2",
"2X c #90A7B4",
"3X c #9EABB9",
"4X c #A1A5B2",
"5X c #A8A8B6",
"6X c #9BB9C6",
"7X c #97BDC9",
"8X c #9DBCC8",
"9X c #A9B5C2",
"0X c #A1C9D6",
"qX c None",
/* pixels */
"qXqXqXqXqXqXqXqXqXqXqXqXqXqXqXqXqXqXqXqXqXqXqXqXqXqXqXqXqXqXqXqX",
"qXqXqXqXqXqXqXqXqXqXqXqXqXqXqXqXqXqXqXqXqXqXqXqXqXqXqXqXqXqXqXqX",
"qXqXqXqXqXqXqXqXqXqXqXqXqXqXqXqXqXqXqXqXqXqXqXqXqXqXqXqXqXqXqXqX",
"qXqXqXqXqXqXqXqXqXqXqX> r qXqXqXqXqXqXqXqXqXqXqXqXqXqXqXqXqXqXqX",
"qXqXqXqXqXqXqXqXs m e.6.<.#._ Y i > qXqXqXqXqXqXqXqXqXqXqXqXqXqX",
"qXqXqXqX> & 0 R Z.).(.).).).).).).l.` q qXqXqXqXqXqXqXqXqXqXqXqX",
"qXqXqXqXZ l M A.).).).).).).).).).).P.o.z qXqXqXqXqXqXqXqXqXqXqX",
"qXqXqXO 5.I.E X.Y.).).).).).).).).).).).e.< qXqXqXqXqXqXqXqXqXqX",
"qXqXqX2 ~.).M.Y ,.(.).).).).).).).).).).).j.1 $ qXqXqXqXqXqXqXqX",
"qXqXqXM |.).).g.L y.|.).F.C.!./.).).).).).).d.g Q 9 qXqXqXqXqXqX",
"qXqXqX;.).).).).>.a b B ) [ _.}./.).).).).).T.o.' e.<.qXqXqXqXqX",
"qXqX:.z.).).).(.1.w 3 d N f XXOX3.E.).).).).).a.I A.M.W 9 qXqXqX",
"qXqXf.F.).).).<.T >.m.i.2.A %X7X$X%.Q.).).).).A.] <.|.).g.h , qX",
"qXo +.^.).).P.M 5.^.).).U.7.H 1X8XoXp.).).).).).} =.).).).).@.qX",
"qX@ g.(.).).e.P I.).).).).).J.[.5X;X`.W.).).).).&.| m.F.Y.).8.qX",
"qX= D.).).(.*._ ).).).).).)./.n.&X2X'.~.).).).).1.; ( s.a.h._ qX",
"qX- A.).).~.<.^ ).).).).).).).K.@X6XG /.).).).).c.qXqXqXqXqXqXqX",
"qXqXm.).).).9.T ).).).).).).Q. X=X3XS Q.).).).(.,.+ qXqXqXqXqXqX",
"qXqXg.).).).s.R u.).).)./.L.{.-X4X:X{ /.).).).R.z.qXqXqXqXqXqXqX",
"qXP l.).).).(.^ c $.w.r.-..X*X9X<XK H.).).).).A.e qXqXqXqXqXqXqX",
"qXy m.).).).V.T 5 6 C O.D >X0X,XJ v./.).).).).0.r 8 qXqXqXqXqXqX",
"qX> B.).).q.T ^ c.&.V U F #X+X].S./.).).).).).Y ~ t.q.&.o.M qXqX",
"qXX k.^.#.v #.~.).~.c.6...4.G.Q.).).).).).).f.i h.|.).).|.d.qXqX",
"qXqX` ! P 9.).).).).).).).).).).).).).).).P.l Q ^.).).P.Z. .qXqX",
"qXqX  % _ |.).).).).).).).).).).).).).).I.' j ~.T.1.` 1.u $ qXqX",
"qXqXqXqXy ] I.).).).).).).).).).).).).c.R p ' n w qXqXqXqXqXqXqX",
"qXqXqXqXqX4 ~ m.).).).).).).).).).I.~ t : * # qXqXqXqXqXqXqXqXqX",
"qXqXqXqXqXqX. < k +.y.x.N.Z.A.b.E W qXqXqXqXqXqXqXqXqXqXqXqXqXqX",
"qXqXqXqXqXqXqXqXqXqXqXqX+.x 7 qXqXqXqXqXqXqXqXqXqXqXqXqXqXqXqXqX",
"qXqXqXqXqXqXqXqXqXqXqXqXqXqXqXqXqXqXqXqXqXqXqXqXqXqXqXqXqXqXqXqX",
"qXqXqXqXqXqXqXqXqXqXqXqXqXqXqXqXqXqXqXqXqXqXqXqXqXqXqXqXqXqXqXqX",
"qXqXqXqXqXqXqXqXqXqXqXqXqXqXqXqXqXqXqXqXqXqXqXqXqXqXqXqXqXqXqXqX"
};
