/* XPM */
static char *_78[] = {
/* columns rows colors chars-per-pixel */
"32 32 213 2 ",
"   c #4B0009",
".  c #4B000A",
"X  c #57000A",
"o  c #57000B",
"O  c #58000A",
"+  c #64000C",
"@  c #67000D",
"#  c #69000C",
"$  c #68000D",
"%  c #69000D",
"&  c #6A000D",
"*  c #70000E",
"=  c #73000E",
"-  c #77000F",
";  c #79000F",
":  c #7F0010",
">  c #840010",
",  c #860010",
"<  c #8C0011",
"1  c #8D0011",
"2  c #8E0011",
"3  c #8F0011",
"4  c #8D0012",
"5  c #900012",
"6  c #910012",
"7  c #940012",
"8  c #980012",
"9  c #980013",
"0  c #990013",
"q  c #9C0013",
"w  c #9C0113",
"e  c #9F0013",
"r  c #A00013",
"t  c #A10013",
"y  c #A40014",
"u  c #A60115",
"i  c #A80014",
"p  c #AA0015",
"a  c #AE0015",
"s  c #AE0116",
"d  c #B00016",
"f  c #B10016",
"g  c #B00116",
"h  c #B30016",
"j  c #B60016",
"k  c #B70016",
"l  c #BB0014",
"z  c #B80016",
"x  c #BA0016",
"c  c #BA0017",
"v  c #BB0017",
"b  c #BD0017",
"n  c #BE0017",
"m  c #BF0017",
"M  c #BF0018",
"N  c #BF0219",
"B  c #BF071C",
"V  c #951324",
"C  c #BC0D25",
"Z  c #AE1226",
"A  c #B2162A",
"S  c #AF263A",
"D  c #AA2B3E",
"F  c #B1263A",
"G  c #C10017",
"H  c #C20017",
"J  c #C30017",
"K  c #C90017",
"L  c #C00018",
"P  c #C10018",
"I  c #C30018",
"U  c #C20118",
"Y  c #C30118",
"T  c #C40018",
"R  c #C50018",
"E  c #C60018",
"W  c #C70018",
"Q  c #C80018",
"!  c #C90018",
"~  c #C90019",
"^  c #C90119",
"/  c #CA0018",
"(  c #CB0019",
")  c #CC0019",
"_  c #CD0019",
"`  c #CE0019",
"'  c #CF011A",
"]  c #D00019",
"[  c #D10019",
"{  c #D20018",
"}  c #D20019",
"|  c #D30019",
" . c #D1001A",
".. c #D3001A",
"X. c #D0021A",
"o. c #D40119",
"O. c #D4001A",
"+. c #D5001A",
"@. c #D6001A",
"#. c #D7001A",
"$. c #D7001B",
"%. c #D80018",
"&. c #D8001A",
"*. c #D9001A",
"=. c #D8001B",
"-. c #D9001B",
";. c #DA001A",
":. c #DB001A",
">. c #DA001B",
",. c #DB001B",
"<. c #DC0019",
"1. c #DC001B",
"2. c #DD001B",
"3. c #DE001B",
"4. c #DF001B",
"5. c #D9021C",
"6. c #DF001C",
"7. c #E0001B",
"8. c #E1001B",
"9. c #E2001A",
"0. c #E2001B",
"q. c #E3001B",
"w. c #E7011B",
"e. c #E2001C",
"r. c #E3001C",
"t. c #E3021C",
"y. c #E4001C",
"u. c #E5001C",
"i. c #E7001C",
"p. c #E9001C",
"a. c #E8011C",
"s. c #E8011D",
"d. c #EA001C",
"f. c #EB001C",
"g. c #EA001D",
"h. c #EB001D",
"j. c #EC001D",
"k. c #ED001D",
"l. c #ED011D",
"z. c #EE001D",
"x. c #EF001D",
"c. c #F90017",
"v. c #F40019",
"b. c #F70019",
"n. c #F0001D",
"m. c #F1001D",
"M. c #F2001D",
"N. c #F2011D",
"B. c #F2001E",
"V. c #F3001E",
"C. c #F2011E",
"Z. c #F4001C",
"A. c #F4001E",
"S. c #F5001E",
"D. c #F6001E",
"F. c #F7001E",
"G. c #F6001F",
"H. c #F5021E",
"J. c #F7051F",
"K. c #FD001B",
"L. c #FB001C",
"P. c #F8001E",
"I. c #F9001E",
"U. c #FA001E",
"Y. c #FB001E",
"T. c #FA011E",
"R. c #FB001F",
"E. c #FF001D",
"W. c #FC001E",
"Q. c #FD001E",
"!. c #FC001F",
"~. c #FD001F",
"^. c #FE001E",
"/. c #FF001E",
"(. c #FE001F",
"). c #FF001F",
"_. c #FE011F",
"`. c #C00D22",
"'. c #C30F26",
"]. c #DA0A24",
"[. c #E00721",
"{. c #E90620",
"}. c #FF0020",
"|. c #C2273C",
" X c #D2273D",
".X c #AA374A",
"XX c #AA3C4D",
"oX c #894958",
"OX c #8E4C5B",
"+X c #9B4252",
"@X c #954A59",
"#X c #9F495A",
"$X c #BF4457",
"%X c #B14759",
"&X c #8C6C7B",
"*X c #A96979",
"=X c #B46171",
"-X c #8B7381",
";X c #9A8A99",
":X c #9A98A6",
">X c #AC9FAD",
",X c #92AAB7",
"<X c #96B2BE",
"1X c #A7A2AF",
"2X c #ABACB8",
"3X c #A6B2BF",
"4X c #9EB3C1",
"5X c #98B5C1",
"6X c #9CB4C2",
"7X c #9BBCC8",
"8X c #A1B5C3",
"9X c #9FC3D0",
"0X c None",
/* pixels */
"0X0X0X0X0X0X0X0X0X0X0X0X0X0X0X0X0X0X0X0X0X0X0X0X0X0X0X0X0X0X0X0X",
"0X0X0X0X0X0X0X0X0X0X0X0X0X0X0X0X0X0X0X0X0X0X0X0X0X0X0X0X0X0X0X0X",
"0X0X0X0X0X0X0X0X0X0X0X0X0X0X0X0X0X0X0X0X0X0X0X0X0X0X0X0X0X0X0X0X",
"0X0X0X0X0X0X0X0X0X0X0X0X0X0X0X0X0X0X0X0X0X0X0X0X0X0X0X0X0X0X0X0X",
"0X0X0X0X0X0X0X0Xy ` f L E R M d 3 # 0X0X0X0X0X0X0X0X0X0X0X0X0X0X",
"0X0X0X0X0X0X7 :.-.V.).}.}.).).).I.2.h ; 0X0X0X0X0X0X0X0X0X0X0X0X",
"0X0X0X0X: 0 ..R.).).).).).).).).).(.A.O.5 0X0X0X0X0X0X0X0X0X0X0X",
"0X0X0X0X .I ` R.).).).).).).).).).).).~.&.6 + 0X0X0X0X0X0X0X0X0X",
"0X0X0Xp U.k.T #.W.).).).).).).).).).).).).1.q q 0X0X0X0X0X0X0X0X",
"0X0X, ) }.).p.Q 3.(.}.(.Y.W.(.).).).).).).).1.T E T 0X0X0X0X0X0X",
"0X0Xa u.).).).y.E @.7.3.<.5.{.T.).).).).).).P./ 0.F.+.e 0X0X0X0X",
"0X0X/ B.).).).).E 9 w s l V oXS a./.).).).).}.1._ S.}.!.>.e 0X0X",
"0X0X2.I.).).).j.G k U X.o.Z :X<X+Xt./.).).).).P.H h.).).).Y.! 0X",
"0X0Xf.~.).).(.J ..~.}._.N.{ XX2X5XD Z.).).).).).Q 4.P.W.~.).1.0X",
"0X@ y.(.).).z.x D.).).).).E.b.|.3X-X[.^.).).).).>.y e.p.p.g.~ 0X",
"0X* m.).).).2.Q (.).).).).)./.v.*X,X'.~.).).).).q.o 0X0X0X0X0X0X",
"0X- F.).).~.;._ ).).).).).).).K.%X7XA /.).).).).x.0X0X0X0X0X0X0X",
"0X= M.).).~.y.H ).).).).).)./.J.=X6XC /.).).).(.i.& 0X0X0X0X0X0X",
"0X0Xj.).).).x.v n.).).).).Q.H. X1X;X%./.).).).~.6.0X0X0X0X0X0X0X",
"0X0X8.).).).I.} W l.C.A.n.].$X>X8X.Xc.).).).).P.k X 0X0X0X0X0X0X",
"0X0X*.).).).).y.t u N ' B @X9X4X#X9.E.).).).).k.j P $.] ` R f 0X",
"0X0X` }.).).z.! z g g K `.OX&XF s.E.).).).).).&.c R.}.).}.G.4.0X",
"0X0Xb ).}.y.H ] S.~.0._ Y ^ w.L./.).).).).).g.m [ }.).).~.d.} 0X",
"0X. i (.4.n +.P.).).).).).).).).).).).).).I.W R F.W.k.g.( < % 0X",
"0X0XT L m 7.!.).).).).).).).).).).).).).).&.P -.&.| i 0X0X0X0X0X",
"0X0XO   2 r.}.).).).).).).).).).).).).!.R 9 8 j 4 0X0X0X0X0X0X0X",
"0X0X0X0X0X5 I B.}.).).).).).).).).).k.r > 0X$ 0X0X0X0X0X0X0X0X0X",
"0X0X0X0X0X0X0Xe E 8.x.D.U.R.!.P.h.v 0X0X0X0X0X0X0X0X0X0X0X0X0X0X",
"0X0X0X0X0X0X0X0X1 h ) ,.2...z 7 0X0X0X0X0X0X0X0X0X0X0X0X0X0X0X0X",
"0X0X0X0X0X0X0X0X0X0X0X0X0X0X0X0X0X0X0X0X0X0X0X0X0X0X0X0X0X0X0X0X",
"0X0X0X0X0X0X0X0X0X0X0X0X0X0X0X0X0X0X0X0X0X0X0X0X0X0X0X0X0X0X0X0X",
"0X0X0X0X0X0X0X0X0X0X0X0X0X0X0X0X0X0X0X0X0X0X0X0X0X0X0X0X0X0X0X0X"
};
