/* XPM */
static char *_1[] = {
/* columns rows colors chars-per-pixel */
"32 32 221 2 ",
"   c #440009",
".  c #4F000A",
"X  c #50000A",
"o  c #5C000B",
"O  c #5E000B",
"+  c #62000C",
"@  c #65000D",
"#  c #67000C",
"$  c #70000E",
"%  c #77000E",
"&  c #78000F",
"*  c #7B000F",
"=  c #7F0010",
"-  c #820010",
";  c #830010",
":  c #890011",
">  c #8A0010",
",  c #8B0011",
"<  c #8C0011",
"1  c #8F0011",
"2  c #8F0012",
"3  c #900012",
"4  c #910012",
"5  c #910112",
"6  c #920012",
"7  c #930012",
"8  c #990013",
"9  c #9A0013",
"0  c #9C0013",
"q  c #9E0014",
"w  c #A00014",
"e  c #A20014",
"r  c #A30215",
"t  c #A50014",
"y  c #A60014",
"u  c #A70014",
"i  c #A70115",
"p  c #A80014",
"a  c #A80015",
"s  c #AA0015",
"d  c #AC0015",
"f  c #AD0015",
"g  c #AF0016",
"h  c #B00015",
"j  c #B10015",
"k  c #B20015",
"l  c #B00016",
"z  c #B10016",
"x  c #B00116",
"c  c #B20016",
"v  c #B30016",
"b  c #B40016",
"n  c #B50016",
"m  c #B60016",
"M  c #B60116",
"N  c #B80017",
"B  c #B90017",
"V  c #BA0016",
"C  c #BA0017",
"Z  c #BB0017",
"A  c #BB0117",
"S  c #BF0015",
"D  c #BC0017",
"F  c #BD0017",
"G  c #BE0017",
"H  c #BF0017",
"J  c #B40318",
"K  c #BF0018",
"L  c #B3091D",
"P  c #B90A1F",
"I  c #AF1B2F",
"U  c #872E3E",
"Y  c #972435",
"T  c #AA2B3F",
"R  c #B0273B",
"E  c #C00017",
"W  c #C10017",
"Q  c #C20017",
"!  c #C30017",
"~  c #C10018",
"^  c #C20018",
"/  c #C30018",
"(  c #C40018",
")  c #C50018",
"_  c #C60018",
"`  c #C70019",
"'  c #C90018",
"]  c #C90019",
"[  c #C80119",
"{  c #CA0018",
"}  c #CB0019",
"|  c #CC0018",
" . c #CD0018",
".. c #CC0019",
"X. c #CD0019",
"o. c #CE0019",
"O. c #CF0019",
"+. c #CD021A",
"@. c #CA041B",
"#. c #CB061E",
"$. c #C6081E",
"%. c #DB0017",
"&. c #D00019",
"*. c #D20019",
"=. c #D0001A",
"-. c #D2001A",
";. c #D3001A",
":. c #D40018",
">. c #D4001A",
",. c #D5001A",
"<. c #D6001A",
"1. c #D4021B",
"2. c #D8001A",
"3. c #D9001A",
"4. c #D8001B",
"5. c #D9001B",
"6. c #DA001B",
"7. c #DB001B",
"8. c #DF0019",
"9. c #DC001B",
"0. c #DD001B",
"q. c #DE001B",
"w. c #DF001B",
"e. c #E0001B",
"r. c #E1001B",
"t. c #E2001B",
"y. c #E70019",
"u. c #E4001A",
"i. c #E4001B",
"p. c #E5001B",
"a. c #E7001A",
"s. c #E1001C",
"d. c #E2001C",
"f. c #E1021C",
"g. c #E4001C",
"h. c #E5001C",
"j. c #E6001C",
"k. c #E7001C",
"l. c #E3041E",
"z. c #EB001B",
"x. c #EF0019",
"c. c #ED001B",
"v. c #E8001C",
"b. c #E8011C",
"n. c #E9001D",
"m. c #EB001C",
"M. c #EB001D",
"N. c #EC001D",
"B. c #EE001D",
"V. c #EF001D",
"C. c #FF0017",
"Z. c #F3001B",
"A. c #F1001C",
"S. c #F0001D",
"D. c #F1001D",
"F. c #F2001D",
"G. c #F3001D",
"H. c #F0001E",
"J. c #F1001E",
"K. c #F2001E",
"L. c #F3001E",
"P. c #F4001C",
"I. c #F4001D",
"U. c #F4001E",
"Y. c #F5001E",
"T. c #F4011E",
"R. c #F6001E",
"E. c #F7001E",
"W. c #F7011E",
"Q. c #FE0019",
"!. c #FE001A",
"~. c #FF001A",
"^. c #FF001B",
"/. c #F8001E",
"(. c #F9001E",
"). c #FA001E",
"_. c #FA001F",
"`. c #FB001F",
"'. c #FF001C",
"]. c #FF001D",
"[. c #FC001F",
"{. c #FD001F",
"}. c #FF001E",
"|. c #FE001F",
" X c #FF001F",
".X c #DC0A23",
"XX c #CF142B",
"oX c #CB1C34",
"OX c #D81C33",
"+X c #FF0020",
"@X c #C4283C",
"#X c #B92D42",
"$X c #CB3146",
"%X c #CA394D",
"&X c #984A5A",
"*X c #A14153",
"=X c #A9475A",
"-X c #A44D5F",
";X c #BE475A",
":X c #915D6D",
">X c #A05162",
",X c #A75263",
"<X c #A15465",
"1X c #A36877",
"2X c #A46877",
"3X c #C74F62",
"4X c #977886",
"5X c #987987",
"6X c #AD7483",
"7X c #8FA4B1",
"8X c #8DACB9",
"9X c #98A8B6",
"0X c #98ADBA",
"qX c #A0ADBA",
"wX c #A8ADBA",
"eX c #A1B2BD",
"rX c #9CBECA",
"tX c #A0B6C3",
"yX c #A7C2CF",
"uX c #A8CCD9",
"iX c None",
/* pixels */
"iXiXiXiXiXiXiXiXiXiXiXiXiXiXiXiXiXiXiXiXiXiXiXiXiXiXiXiXiXiXiXiX",
"iXiXiXiXiXiXiXiXiXiXiXiXiXiXiXiXiXiXiXiXiXiXiXiXiXiXiXiXiXiXiXiX",
"iXiXiXiXiXiXiXiXiXiXiXiXiXiXiXiXiXiXiXiXiXiX* iXiXiXiXiXiXiXiXiX",
"iXiXiXiXiXiXiXiXiXiXiXiXiXiXiXiXiXiXiX< 2 ( ..e.*.iXiXiXiXiXiXiX",
"iXiXiXiXiXiXiXiXiXiXiXiXiXiXiXiXiX9 s.o.G.(.+X X9.~ iXiXiXiXiXiX",
"iXiXiXiXiXiXiXiXiXiXiXiXiXiX# ; ' 5._. X X X|.V.n.iXiXiXiXiXiXiX",
"iXiXiXiXiXiXiXiXiXiX, c y m v } ' W ,.q.|.{.B.v.iXiXiXiXiXiXiXiX",
"iXiXiXiXiXiXiXiX> ,.w._.{. X X|.E.N.9.H -.<.iXiXiXiXiXiXiXiXiXiX",
"iXiXiXiXiXiXl D /. X X X X X X X X X|.E.>.8 iXiXiXiXiXiXiXiXiXiX",
"iXiXiXiXiXv ..|. X X X X X X X X X X X X_.t.iXiXiXiXiXiX` 4.iXiX",
"iXiXiXiXa O. X X X X X X X X X X X X X X X).k.6 iXiXiX .E.+X..iX",
"iXiXiX- ]  X X X X X X X X}.}. X X X X X X X[.B.X : ;.(. X(.t iX",
"iXiXiX_  X X X X X X}.'.a.l.f.y.~.}. X X X X XY.K v Y.+X XM.iXiX",
"iXiXw q. X X X X X(.z.R >X5X4X&X#X%. X X X X X X0.c L. X{.n iXiX",
"iXiX^ [. X X X X`.p.L U 0XeXwXtX7X,X#.}. X X X X XH _  Xi.p iXiX",
"iXiX}  X X X X+XJ.F S P I @XXX%X2XrX=X8. X X X X|.-.)  XC iXiXiX",
"iXiXO.H.D.K.I.S.b i +.b.c.^.].C.OX6X9XoX!. X X X Xv.g 6.q iXiXiX",
"iX= C Z Z _ _ j 3 x /.[. X X X XC.3XqX*XW. X X X XB.H n iXiXiXiX",
"iXZ U.I.F.U.L.3.h E. X X X X X XQ.$XyX<Xx. X X X X`.a & iXiXiXiX",
"iXs G. X X X XK./ H. X X X X X XP.;XuX-XZ. X X X XS.4 iXiXiXiXiX",
"iX+ B +X X X XE.V g. X X X X X Xu.1X8XT ). X X X Xj.% iXiXiXiXiX",
"iXiXe w. X X X Xr./ L. X X X XE.@.Y :X.X'. X X X Xd.iXiXiXiXiXiX",
"iXiXiX| D. X X XB.*.X.R. X XT.1.:.$.J A. X X X X|.E iXiXiXiXiXiX",
"iXiXiXiXi.(. X X Xv.>.Z 9.q.[ r A Q S. X X X X XV.D iXiXiXiXiXiX",
"iXiXiXiXiXm.|. X X X(.7.&.k 5 M w.R. X X X X X+X^ iXiXiXiXiXiXiX",
"iXiXiXiXo 4 E.|. X X X X|.k.C E. X X X X X X X2.0 iXiXiXiXiXiXiX",
"iXiXiXiXiX@ e R.|. X X X Xh.! `. X X X X X Xk.o.iXiXiXiXiXiXiXiX",
"iXiXiXiXiXiXO f N.|. X X Xd.Q (. X X X X|.h.0.iXiXiXiXiXiXiXiXiX",
"iXiXiXiXiXiXiXiX2.9. X X Xs.! `. X X X/.=.-.iXiXiXiXiXiXiXiXiXiX",
"iXiXiXiXiXiXiXiXiXG X. X X5.'  X XB.7.u iXiXiXiXiXiXiXiXiXiXiXiX",
"iXiXiXiXiXiXiXiXiXiX1 d G.=.d { t z $ iXiXiXiXiXiXiXiXiXiXiXiXiX",
"iXiXiXiXiXiXiXiXiXiXiX. N 7   iXiXiXiXiXiXiXiXiXiXiXiXiXiXiXiXiX"
};
