/* XPM */
static char *_4[] = {
/* columns rows colors chars-per-pixel */
"32 32 204 2 ",
"   c #290005",
".  c #3B0007",
"X  c #58000B",
"o  c #68000C",
"O  c #6D000D",
"+  c #6E000D",
"@  c #6E000E",
"#  c #71000E",
"$  c #73000E",
"%  c #75000E",
"&  c #76000E",
"*  c #78000E",
"=  c #7A000F",
"-  c #7C000F",
";  c #7E000F",
":  c #830010",
">  c #850010",
",  c #860010",
"<  c #870011",
"1  c #880011",
"2  c #890011",
"3  c #8C0011",
"4  c #900011",
"5  c #940012",
"6  c #990012",
"7  c #990013",
"8  c #980113",
"9  c #9D0013",
"0  c #9F0013",
"q  c #A10014",
"w  c #A20014",
"e  c #A30014",
"r  c #A30215",
"t  c #A40014",
"y  c #A50014",
"u  c #A70014",
"i  c #A70015",
"p  c #AB0015",
"a  c #AC0015",
"s  c #AD0015",
"d  c #AE0015",
"f  c #B00016",
"g  c #B20016",
"h  c #B20217",
"j  c #B50016",
"k  c #B60016",
"l  c #B70016",
"z  c #BA0014",
"x  c #B80016",
"c  c #B90016",
"v  c #B80017",
"b  c #B90017",
"n  c #B80117",
"m  c #BA0017",
"M  c #BC0017",
"N  c #BD0017",
"B  c #BE0017",
"V  c #BF0017",
"C  c #BF0018",
"Z  c #BD0218",
"A  c #8D1828",
"S  c #A61B2E",
"D  c #BB1027",
"F  c #B1172C",
"G  c #B91A30",
"H  c #AC2336",
"J  c #C00017",
"K  c #C10017",
"L  c #C40017",
"P  c #C20018",
"I  c #C30018",
"U  c #C40018",
"Y  c #C50018",
"T  c #C50118",
"R  c #C60018",
"E  c #C70018",
"W  c #C80018",
"Q  c #C90018",
"!  c #C90019",
"~  c #CA0019",
"^  c #CB0019",
"/  c #CA0119",
"(  c #C8021A",
")  c #C9021A",
"_  c #CC0019",
"`  c #CD0019",
"'  c #CE0019",
"]  c #CF0019",
"[  c #CF0219",
"{  c #CF021B",
"}  c #C8041B",
"|  c #CE081E",
" . c #D00019",
".. c #D20019",
"X. c #D1001A",
"o. c #D2001A",
"O. c #D3001A",
"+. c #D4001A",
"@. c #D5001A",
"#. c #D6001A",
"$. c #D7001A",
"%. c #D6011B",
"&. c #D8001A",
"*. c #D9001A",
"=. c #DA001B",
"-. c #DB001B",
";. c #DC001B",
":. c #DD001B",
">. c #DE001B",
",. c #DF001B",
"<. c #DC021B",
"1. c #DD051F",
"2. c #E1001A",
"3. c #E0001B",
"4. c #E1001B",
"5. c #E2001B",
"6. c #E3001B",
"7. c #E1001C",
"8. c #E0011C",
"9. c #E2001C",
"0. c #E0031E",
"q. c #E3031E",
"w. c #E4001C",
"e. c #E6001C",
"r. c #E7001C",
"t. c #E2041E",
"y. c #E9001A",
"u. c #EE001B",
"i. c #E8001C",
"p. c #E9001C",
"a. c #E9001D",
"s. c #EA001C",
"d. c #EA001D",
"f. c #EC001C",
"g. c #EC001D",
"h. c #ED001D",
"j. c #ED011D",
"k. c #EF001D",
"l. c #ED001E",
"z. c #F3001A",
"x. c #F1001D",
"c. c #F2001D",
"v. c #F3001D",
"b. c #F0001E",
"n. c #F1001E",
"m. c #F2001E",
"M. c #F4001E",
"N. c #F5001E",
"B. c #F6001E",
"V. c #F7001E",
"C. c #F1051F",
"Z. c #F80019",
"A. c #F8001B",
"S. c #FE001B",
"D. c #F8001C",
"F. c #F9001C",
"G. c #FA021C",
"H. c #F8001E",
"J. c #F9001E",
"K. c #FA001E",
"L. c #FA001F",
"P. c #FB001F",
"I. c #FB011F",
"U. c #FC001D",
"Y. c #FF001C",
"T. c #FF001D",
"R. c #FC001F",
"E. c #FD001F",
"W. c #FF001E",
"Q. c #FE001F",
"!. c #FF001F",
"~. c #C10E25",
"^. c #D61B32",
"/. c #FF0020",
"(. c #993141",
"). c #9F3546",
"_. c #903B4B",
"`. c #BF2D42",
"'. c #A43447",
"]. c #A33F51",
"[. c #C53347",
"{. c #8D4A59",
"}. c #A54959",
"|. c #B24557",
" X c #965969",
".X c #B75C6C",
"XX c #8B717F",
"oX c #A86A79",
"OX c #877D8B",
"+X c #96919F",
"@X c #AD93A1",
"#X c #AA9FAC",
"$X c #96AAB6",
"%X c #99AAB7",
"&X c #92ACB9",
"*X c #97B0BC",
"=X c #9CB8C5",
"-X c #9DBAC6",
";X c #9BBDC9",
":X c #A5B5C2",
">X c #ABB5C1",
",X c #A3C1CE",
"<X c #A3C3D0",
"1X c None",
/* pixels */
"1X1X1X1X1X1X1X1X1X1X1X1X1X1X1X1X1X1X1X1X1X1X1X1X1X1X1X1X1X1X1X1X",
"1X1X1X1X1X1X1X1X1X1X1Xk ' ..U 1X1X1X1X1X! 5.9 1X1X1X1X1X1X1X1X1X",
"1X1X1X1X1X1X1X1X1X1X, U !.M.1X1X1X1X1XP 9./.W 1X1X1X1X1X1X1X1X1X",
"1X1X1X1X1X1X1X1X1X1XV d.!.c.1X1X1X1X1XL r./.a.1X1X1X1X1X1X1X1X1X",
"1X1X1X1X1X1X1X1X1X= U !.!.c.1X1X1X1X1XL p.!.!.B 1X1X1X1X1X1X1X1X",
"1X1X1X1X1X1X1X1X1Xm p.!.!.n.1X1X1X1X1X! l././.@.1X1X1X1X1X1X1X1X",
"1X1X1X1X1X1X1X1X1Xe.H.H.b.$.- 1X+ 1X  ; $.P./.J.y 1X1X1X1X1X1X1X",
"1X1X1X1X1X1X1X1Xt ;.e.W M _ &.f.i.n.+.P g s _ R.U 1X1X1X1X1X1X1X",
"1X1X1X1X1X1X1X1XK W K >.K.!.!.!.!.!.Q.P.N.5.N v  .1 1X1X1X1X1X1X",
"1X1X1X1X1X1X1Xo u #.J.!.!.!.!.!.!.!.!.!.!.Q.m.@.N : 1X1X1X1X1X1X",
"1X1X1X1X1X1X1X2 -.!.!.!.!.!.!.!.!.!.!.!.!.!.!.P.w.5 1X1X1X1X1X1X",
"1X1X1X1X1X1XO +.!.!.!.!.!.!.!.!.!.!.!.!.!.!.!.!.!.O.* 1X1X1X1X1X",
"1X1X1X1X1X1X] Q.!.!.!.!.!.!.W.Q.W.W.!.!.!.!.!.!.!.!.v 1X1X1X1X1X",
"1X1X1X1X1X7 n.!.!.!.!.!.W.D.t.~.F D %.Z.T.!.!.!.!.!.N.d 1X1X1X1X",
"1X1X1X1X1X#.!.!.!.!.!.W.y.H XX&X;X=X+X].<.Y.!.!.!.!.!._ 1X1X1X1X",
"1X1X1X1X; x.!.!.!.!.!.u.).*X:XoX|..X#X,X X0.W.!.!.!.!.m.4 1X1X1X",
"1X1X1X1Xy !.!.!.!.!.U.G $X>X`.z.S.G.^.@X<X'.A.!.!.!.!.R.t 1X1X1X",
"1X1X1X1Xb !.!.!.!.!.C.{.%X}.z.W.!.W.F.[.-XOX1.!.!.!.!.E.W 1X1X1X",
"1X1X1X1XC !.!.!.!.E.8.A S / T.!.!.!.W.q.(._.Z !.!.!.!.E.-.1X1X1X",
"1X1X1X1XV !.!.!.!.R.2.z [ j.!.!.!.!.!.H.} | J !.!.!.!.E.,.1X1X1X",
"1X1X1X1Xl !.!.!.!.Q.i.f ( I.!.!.!.!.!.L.{ T E !.!.!.!.P.$.1X1X1X",
"1X1X1X1Xe !.!.!.!.!.k.w h /.!.!.!.!.!.L.) r 3.!.!.!.!.V.Y 1X1X1X",
"1X1X1X1X9 M.!.!.!.!.h.q 9 E.!.!.!.!.!.B.n 8 E.!.!.!.!.x.u 1X1X1X",
"1X1X1X1X1XX./.!.!.c.' c N ~ M.!.!.!.N.] p a 3.!.!.!.!.&.& 1X1X1X",
"1X1X1X1X1Xm K.!.x.` ` K.B.~ k Y _ Y x Q g.7.K 6.!.!.N.I 1X1X1X1X",
"1X1X1X1X1X1X` b.! _ J.!.!.Q.c.4.*.5.x.K.!.E.=.M e./.o.> 1X1X1X1X",
"1X1X1X1X1X1X6 M ^ V.!.!.!.!.!.!.Q.Q.!.!.!.!.P.#.K +.j 1X1X1X1X1X",
"1X1X1X1X1X1X1Xy B.!.!.!.!.!.!.!.!.!.!.!.!.!.!.P.@.3 X 1X1X1X1X1X",
"1X1X1X1X1X1X1Xi +.:.c.J.R.Q.Q.!.!.!.!.!.!.!.!.!.9.> . 1X1X1X1X1X",
"1X1X1X1X1X1X1X1X1X$ 0 K $.e.s.h.v.c.g.9.#.R s 1 < 1X1X1X1X1X1X1X",
"1X1X1X1X1X1X1X1X1X1X1X1X1X1X1X@ % # $ 1X1X1X1X1X1X1X1X1X1X1X1X1X",
"1X1X1X1X1X1X1X1X1X1X1X1X1X1X1X1X1X1X1X1X1X1X1X1X1X1X1X1X1X1X1X1X"
};
